<?xml version="1.0" encoding="utf-8"?>
<!-- Generator: Adobe Illustrator 16.0.4, SVG Export Plug-In . SVG Version: 6.00 Build 0)  -->
<!DOCTYPE svg PUBLIC "-//W3C//DTD SVG 1.1//EN" "http://www.w3.org/Graphics/SVG/1.1/DTD/svg11.dtd">
<svg version="1.1" id="Layer_1" xmlns="http://www.w3.org/2000/svg" xmlns:xlink="http://www.w3.org/1999/xlink" x="0px" y="0px"
	 width="612px" height="657.078px" viewBox="0 0 612 657.078" enable-background="new 0 0 612 657.078" xml:space="preserve">
<rect x="9.206" y="11.688" fill="#362E7C" width="590.095" height="317.337"/>
<path fill="#FFFFFF" d="M349.735,220.063c0,2.745-2.225,4.969-4.969,4.969H224.89c-2.744,0-4.969-2.225-4.969-4.969v-9.316
	c0-2.745,2.225-4.969,4.969-4.969h119.876c2.744,0,4.969,2.225,4.969,4.969V220.063z"/>
<path fill="#FFFFFF" d="M349.735,243.781c0,2.745-2.225,4.969-4.969,4.969H224.89c-2.744,0-4.969-2.225-4.969-4.969v-9.316
	c0-2.745,2.225-4.969,4.969-4.969h119.876c2.744,0,4.969,2.225,4.969,4.969V243.781z"/>
<path fill="#FFFFFF" stroke="#000000" stroke-miterlimit="10" d="M349.321,268.614c0,2.744-2.225,4.969-4.97,4.969H224.476
	c-2.745,0-4.969-2.225-4.969-4.969v-9.317c0-2.745,2.225-4.969,4.969-4.969h119.875c2.745,0,4.97,2.225,4.97,4.969V268.614z"/>
<path fill="#FFFFFF" stroke="#000000" stroke-miterlimit="10" d="M349.735,292.424c0,2.744-2.225,4.969-4.969,4.969H224.89
	c-2.744,0-4.969-2.225-4.969-4.969v-9.316c0-2.745,2.225-4.969,4.969-4.969h119.876c2.744,0,4.969,2.225,4.969,4.969V292.424z"/>
<g>
	<path fill="#939393" d="M259.156,211.003h1.401v8.064c0,0.76,0.164,1.148,0.387,1.327c0.223,0.194,0.477,0.194,0.67,0.194
		c0.194,0,0.448,0,0.671-0.194c0.224-0.179,0.387-0.566,0.387-1.327v-8.064h1.401v8.064c0,0.909-0.194,1.61-0.596,2.102
		c-0.298,0.403-0.864,0.82-1.864,0.82c-0.999,0-1.565-0.417-1.863-0.82c-0.402-0.491-0.596-1.192-0.596-2.102V211.003z"/>
	<path fill="#939393" d="M265.194,218.173h1.401v0.701c0,0.641,0.119,1.103,0.342,1.386c0.046,0.074,0.135,0.134,0.269,0.208
		c0.134,0.075,0.329,0.119,0.611,0.119c0.536,0,0.835-0.268,1.013-0.596c0.164-0.328,0.194-0.746,0.194-1.043
		c0-0.521-0.179-0.864-0.432-1.118c-0.254-0.239-0.596-0.402-0.91-0.537l-0.269-0.119c-0.312-0.135-0.85-0.358-1.326-0.82
		c-0.596-0.581-0.894-1.312-0.894-2.206c0-0.939,0.252-1.729,0.73-2.28c0.462-0.537,1.117-0.865,1.893-0.865
		c1.073,0,1.67,0.462,1.983,0.865c0.432,0.552,0.641,1.312,0.641,2.28v0.701h-1.416v-0.701c0-0.849-0.194-1.311-0.447-1.52
		c-0.254-0.208-0.566-0.208-0.761-0.208c-0.582,0-0.864,0.313-1.028,0.7c-0.179,0.387-0.194,0.835-0.194,1.028
		c0,0.522,0.178,0.865,0.432,1.133c0.254,0.269,0.596,0.462,0.954,0.597l0.239,0.104c0.283,0.12,0.819,0.313,1.297,0.775
		c0.61,0.566,0.924,1.296,0.924,2.191c0,1.685-0.939,3.041-2.624,3.041c-1.744,0-2.623-1.147-2.623-3.115V218.173z"/>
	<path fill="#939393" d="M275.657,211.018v1.402h-3.145v3.383h3.145v1.401h-3.145v3.398h3.145v1.401h-4.546v-10.986H275.657z"/>
	<path fill="#939393" d="M281.755,221.989h-1.416v-3.249c0-0.969-0.462-1.446-1.401-1.446h-0.879v4.695h-1.401v-10.985h2.281
		c1.893,0,2.787,1.088,2.787,3.13c0,1.013-0.224,1.789-0.655,2.311c-0.015,0.015-0.045,0.044-0.06,0.074
		c-0.03,0.03-0.06,0.06-0.089,0.075c0.537,0.521,0.835,1.237,0.835,2.146V221.989z M278.058,215.878h0.879
		c0.373,0,0.641-0.045,0.79-0.134c0.135-0.089,0.224-0.164,0.269-0.209c0.224-0.283,0.329-0.745,0.329-1.401
		c0-0.73-0.121-1.163-0.343-1.417c-0.239-0.238-0.581-0.297-1.043-0.297h-0.879V215.878z"/>
	<path fill="#939393" d="M286.958,221.989l-2.684-6.647v6.647h-1.401v-10.985h1.178l2.683,6.648v-6.648h1.416v10.985H286.958z"/>
	<path fill="#939393" d="M293.263,218.934h-1.908l-0.701,3.07h-1.446l2.534-10.986h1.118l2.564,10.986h-1.46L293.263,218.934z
		 M291.683,217.532h1.252l-0.626-2.698L291.683,217.532z"/>
	<path fill="#939393" d="M298.645,221.989l-1.52-5.261v5.261h-1.401v-10.985h1.237l2.222,7.736l2.206-7.736h1.237v10.985h-1.401
		v-5.261l-1.521,5.261H298.645z"/>
	<path fill="#939393" d="M308.29,211.018v1.402h-3.146v3.383h3.146v1.401h-3.146v3.398h3.146v1.401h-4.547v-10.986H308.29z"/>
</g>
<g>
	<g>
		<path fill="#939393" d="M274.947,233.106v1.4h-3.145v3.384h3.145v1.401h-3.145v3.398h3.145v1.401h-4.546v-10.985H274.947z"/>
		<path fill="#939393" d="M278.867,244.077l-1.52-5.261v5.261h-1.401v-10.985h1.238l2.221,7.736l2.206-7.736h1.237v10.985h-1.401
			v-5.261l-1.521,5.261H278.867z"/>
		<path fill="#939393" d="M288.021,241.021h-1.908l-0.7,3.07h-1.447l2.534-10.985h1.118l2.564,10.985h-1.461L288.021,241.021z
			 M286.44,239.62h1.252l-0.626-2.698L286.44,239.62z"/>
		<path fill="#939393" d="M292.329,244.092h-1.401v-10.985h1.401V244.092z"/>
		<path fill="#939393" d="M298.277,244.077h-4.785v-10.985h1.401v9.584h3.383V244.077z"/>
	</g>
</g>
<g>
	<g>
		<path fill="#939393" d="M259.314,264.41v4.785h-1.401v-10.985h2.28c1.863,0,2.802,1.118,2.802,3.085
			c0,2.012-0.91,3.116-2.802,3.116H259.314z M259.314,259.625v3.369h0.879c0.387,0,0.656-0.044,0.79-0.134
			c0.134-0.09,0.224-0.164,0.268-0.209c0.225-0.223,0.329-0.685,0.329-1.356c0-0.715-0.12-1.132-0.343-1.371
			c-0.238-0.238-0.581-0.298-1.043-0.298H259.314z"/>
		<path fill="#939393" d="M267.691,266.139h-1.908l-0.701,3.071h-1.446l2.534-10.986h1.118l2.564,10.986h-1.461L267.691,266.139z
			 M266.111,264.738h1.252l-0.626-2.698L266.111,264.738z"/>
		<path fill="#939393" d="M270.151,265.379h1.401v0.7c0,0.642,0.119,1.103,0.343,1.386c0.044,0.075,0.134,0.134,0.268,0.209
			s0.328,0.12,0.611,0.12c0.537,0,0.835-0.269,1.014-0.597c0.164-0.328,0.193-0.745,0.193-1.043c0-0.522-0.179-0.865-0.433-1.119
			c-0.252-0.238-0.596-0.402-0.909-0.536l-0.268-0.12c-0.313-0.134-0.85-0.357-1.327-0.819c-0.597-0.582-0.895-1.312-0.895-2.206
			c0-0.939,0.254-1.729,0.731-2.281c0.462-0.536,1.118-0.864,1.893-0.864c1.073,0,1.67,0.462,1.982,0.864
			c0.433,0.552,0.641,1.312,0.641,2.281v0.7h-1.416v-0.7c0-0.85-0.193-1.312-0.447-1.521c-0.253-0.209-0.566-0.209-0.76-0.209
			c-0.581,0-0.864,0.313-1.028,0.701c-0.179,0.387-0.194,0.835-0.194,1.029c0,0.521,0.179,0.864,0.432,1.133
			c0.253,0.268,0.597,0.462,0.955,0.596l0.238,0.104c0.284,0.119,0.82,0.313,1.297,0.775c0.612,0.567,0.924,1.297,0.924,2.192
			c0,1.684-0.939,3.041-2.624,3.041c-1.744,0-2.624-1.148-2.624-3.116V265.379z"/>
		<path fill="#939393" d="M276.07,265.379h1.401v0.7c0,0.642,0.12,1.103,0.342,1.386c0.045,0.075,0.134,0.134,0.269,0.209
			s0.328,0.12,0.611,0.12c0.536,0,0.835-0.269,1.013-0.597c0.164-0.328,0.194-0.745,0.194-1.043c0-0.522-0.179-0.865-0.432-1.119
			c-0.254-0.238-0.597-0.402-0.91-0.536l-0.269-0.12c-0.312-0.134-0.85-0.357-1.327-0.819c-0.596-0.582-0.894-1.312-0.894-2.206
			c0-0.939,0.253-1.729,0.73-2.281c0.462-0.536,1.118-0.864,1.894-0.864c1.073,0,1.669,0.462,1.982,0.864
			c0.432,0.552,0.642,1.312,0.642,2.281v0.7h-1.416v-0.7c0-0.85-0.194-1.312-0.448-1.521c-0.253-0.209-0.566-0.209-0.76-0.209
			c-0.582,0-0.865,0.313-1.029,0.701c-0.179,0.387-0.193,0.835-0.193,1.029c0,0.521,0.178,0.864,0.432,1.133
			c0.253,0.268,0.596,0.462,0.954,0.596l0.239,0.104c0.283,0.119,0.819,0.313,1.296,0.775c0.611,0.567,0.924,1.297,0.924,2.192
			c0,1.684-0.939,3.041-2.624,3.041c-1.744,0-2.624-1.148-2.624-3.116V265.379z"/>
		<path fill="#939393" d="M289.203,265.23l1.55-7.006h1.446l-2.43,10.986h-1.133l-1.536-7.021l-1.55,7.021h-1.132l-2.43-10.986
			h1.446l1.55,7.006l1.55-7.006h1.133L289.203,265.23z"/>
		<path fill="#939393" d="M292.721,261.339c0-0.968,0.208-1.729,0.626-2.266c0.164-0.193,0.387-0.402,0.715-0.581
			c0.328-0.164,0.73-0.283,1.267-0.283c1.073,0,1.669,0.462,1.982,0.864c0.417,0.537,0.626,1.298,0.626,2.266v4.725
			c0,0.969-0.209,1.729-0.626,2.266c-0.312,0.403-0.909,0.865-1.982,0.865c-1.058,0-1.67-0.462-1.982-0.865
			c-0.418-0.536-0.626-1.297-0.626-2.266V261.339z M294.122,266.064c0,0.879,0.194,1.296,0.448,1.505
			c0.253,0.208,0.536,0.224,0.76,0.224c0.193,0,0.506-0.016,0.76-0.224c0.254-0.209,0.448-0.626,0.448-1.505v-4.725
			c0-0.85-0.194-1.297-0.448-1.505c-0.254-0.209-0.566-0.209-0.76-0.209c-0.224,0-0.507,0-0.76,0.209
			c-0.254,0.208-0.448,0.656-0.448,1.505V266.064z"/>
		<path fill="#939393" d="M303.856,269.195h-1.416v-3.25c0-0.969-0.462-1.445-1.401-1.445h-0.879v4.695h-1.401v-10.985h2.28
			c1.894,0,2.788,1.088,2.788,3.13c0,1.014-0.223,1.789-0.656,2.31c-0.015,0.016-0.045,0.045-0.06,0.075
			c-0.03,0.03-0.059,0.06-0.089,0.075c0.536,0.521,0.834,1.237,0.834,2.146V269.195z M300.16,263.083h0.879
			c0.373,0,0.641-0.045,0.791-0.134c0.133-0.089,0.223-0.164,0.268-0.208c0.224-0.283,0.328-0.746,0.328-1.401
			c0-0.73-0.119-1.163-0.343-1.416c-0.238-0.238-0.582-0.298-1.044-0.298h-0.879V263.083z"/>
		<path fill="#939393" d="M304.976,269.21v-10.986h2.191c1.893,0,2.787,1.162,2.787,3.175v4.621c0,2.012-0.895,3.19-2.787,3.19
			H304.976z M306.377,259.625v8.184h0.79c0.357,0,0.7-0.044,0.953-0.283c0.239-0.238,0.418-0.686,0.418-1.505v-4.621
			c0-0.82-0.179-1.267-0.418-1.505c-0.253-0.239-0.596-0.269-0.953-0.269H306.377z"/>
	</g>
</g>
<g>
	<g>
		<path fill="#939393" d="M253.073,293.769h-1.416v-3.25c0-0.969-0.462-1.445-1.401-1.445h-0.879v4.695h-1.401v-10.985h2.28
			c1.893,0,2.788,1.088,2.788,3.13c0,1.013-0.224,1.789-0.656,2.31c-0.015,0.015-0.044,0.044-0.06,0.074
			c-0.029,0.03-0.06,0.06-0.089,0.075c0.537,0.521,0.835,1.237,0.835,2.146V293.769z M249.376,287.658h0.879
			c0.373,0,0.641-0.045,0.79-0.134c0.134-0.089,0.224-0.164,0.269-0.209c0.224-0.283,0.328-0.745,0.328-1.4
			c0-0.731-0.12-1.163-0.343-1.416c-0.238-0.239-0.581-0.299-1.043-0.299h-0.879V287.658z"/>
		<path fill="#939393" d="M258.738,282.798v1.401h-3.145v3.384h3.145v1.401h-3.145v3.399h3.145v1.401h-4.546v-10.985H258.738z"/>
		<path fill="#939393" d="M259.737,287.568h4.577v1.401h-4.577V287.568z"/>
		<path fill="#939393" d="M266.743,288.984v4.785h-1.401v-10.985h2.281c1.863,0,2.802,1.118,2.802,3.085
			c0,2.012-0.909,3.115-2.802,3.115H266.743z M266.743,284.199v3.369h0.879c0.388,0,0.656-0.045,0.79-0.134
			c0.134-0.089,0.223-0.164,0.269-0.208c0.223-0.224,0.328-0.686,0.328-1.357c0-0.715-0.119-1.132-0.343-1.371
			c-0.238-0.239-0.582-0.299-1.043-0.299H266.743z"/>
		<path fill="#939393" d="M275.121,290.713h-1.909l-0.7,3.07h-1.446l2.534-10.985h1.118l2.564,10.985h-1.461L275.121,290.713z
			 M273.541,289.312h1.251l-0.626-2.698L273.541,289.312z"/>
		<path fill="#939393" d="M277.581,289.953h1.401v0.7c0,0.642,0.12,1.104,0.342,1.386c0.045,0.075,0.134,0.134,0.269,0.209
			s0.328,0.12,0.61,0.12c0.537,0,0.835-0.269,1.014-0.596c0.164-0.329,0.193-0.746,0.193-1.043c0-0.522-0.178-0.865-0.431-1.118
			c-0.254-0.238-0.597-0.402-0.91-0.536l-0.269-0.12c-0.312-0.134-0.85-0.358-1.326-0.82c-0.597-0.581-0.895-1.312-0.895-2.206
			c0-0.939,0.253-1.729,0.73-2.281c0.462-0.536,1.118-0.864,1.893-0.864c1.074,0,1.67,0.462,1.983,0.864
			c0.432,0.552,0.641,1.312,0.641,2.281v0.7h-1.417v-0.7c0-0.85-0.193-1.312-0.447-1.521c-0.253-0.209-0.566-0.209-0.761-0.209
			c-0.581,0-0.864,0.313-1.028,0.701c-0.179,0.387-0.193,0.834-0.193,1.028c0,0.521,0.178,0.864,0.432,1.133
			c0.254,0.268,0.596,0.462,0.954,0.596l0.239,0.104c0.283,0.119,0.819,0.313,1.296,0.775c0.611,0.566,0.924,1.297,0.924,2.191
			c0,1.684-0.939,3.041-2.625,3.041c-1.743,0-2.623-1.147-2.623-3.116V289.953z"/>
		<path fill="#939393" d="M283.499,289.953h1.401v0.7c0,0.642,0.119,1.104,0.343,1.386c0.045,0.075,0.134,0.134,0.268,0.209
			c0.135,0.075,0.329,0.12,0.612,0.12c0.537,0,0.835-0.269,1.014-0.596c0.164-0.329,0.193-0.746,0.193-1.043
			c0-0.522-0.179-0.865-0.433-1.118c-0.253-0.238-0.596-0.402-0.909-0.536l-0.268-0.12c-0.313-0.134-0.85-0.358-1.327-0.82
			c-0.597-0.581-0.895-1.312-0.895-2.206c0-0.939,0.253-1.729,0.731-2.281c0.461-0.536,1.117-0.864,1.893-0.864
			c1.073,0,1.67,0.462,1.982,0.864c0.433,0.552,0.641,1.312,0.641,2.281v0.7h-1.416v-0.7c0-0.85-0.193-1.312-0.447-1.521
			c-0.254-0.209-0.566-0.209-0.76-0.209c-0.581,0-0.864,0.313-1.028,0.701c-0.179,0.387-0.194,0.834-0.194,1.028
			c0,0.521,0.179,0.864,0.432,1.133c0.253,0.268,0.597,0.462,0.954,0.596l0.239,0.104c0.283,0.119,0.82,0.313,1.297,0.775
			c0.611,0.566,0.924,1.297,0.924,2.191c0,1.684-0.939,3.041-2.624,3.041c-1.745,0-2.624-1.147-2.624-3.116V289.953z"/>
		<path fill="#939393" d="M296.631,289.804l1.551-7.006h1.445l-2.43,10.985h-1.133l-1.535-7.021l-1.551,7.021h-1.133l-2.43-10.985
			h1.446l1.55,7.006l1.551-7.006h1.133L296.631,289.804z"/>
		<path fill="#939393" d="M300.15,285.914c0-0.969,0.209-1.729,0.626-2.267c0.165-0.193,0.387-0.401,0.716-0.581
			c0.328-0.164,0.73-0.283,1.267-0.283c1.074,0,1.67,0.462,1.982,0.864c0.418,0.538,0.626,1.298,0.626,2.267v4.725
			c0,0.969-0.208,1.729-0.626,2.265c-0.312,0.403-0.909,0.865-1.982,0.865c-1.058,0-1.669-0.461-1.982-0.865
			c-0.417-0.536-0.626-1.296-0.626-2.265V285.914z M301.552,290.639c0,0.879,0.194,1.296,0.447,1.505
			c0.254,0.209,0.537,0.224,0.76,0.224c0.193,0,0.507-0.015,0.76-0.224c0.254-0.208,0.448-0.626,0.448-1.505v-4.725
			c0-0.85-0.194-1.297-0.448-1.506c-0.252-0.209-0.566-0.209-0.76-0.209c-0.223,0-0.506,0-0.76,0.209
			c-0.253,0.208-0.447,0.656-0.447,1.506V290.639z"/>
		<path fill="#939393" d="M311.286,293.769h-1.416v-3.25c0-0.969-0.462-1.445-1.4-1.445h-0.88v4.695h-1.402v-10.985h2.282
			c1.893,0,2.785,1.088,2.785,3.13c0,1.013-0.223,1.789-0.654,2.31c-0.016,0.015-0.045,0.044-0.06,0.074
			c-0.03,0.03-0.06,0.06-0.089,0.075c0.535,0.521,0.834,1.237,0.834,2.146V293.769z M307.59,287.658h0.88
			c0.372,0,0.641-0.045,0.789-0.134c0.135-0.089,0.224-0.164,0.269-0.209c0.224-0.283,0.327-0.745,0.327-1.4
			c0-0.731-0.119-1.163-0.342-1.416c-0.239-0.239-0.582-0.299-1.043-0.299h-0.88V287.658z"/>
		<path fill="#939393" d="M312.404,293.784v-10.985h2.191c1.894,0,2.787,1.163,2.787,3.175v4.621c0,2.012-0.894,3.189-2.787,3.189
			H312.404z M313.806,284.199v8.184h0.79c0.358,0,0.7-0.044,0.954-0.283c0.238-0.239,0.417-0.686,0.417-1.505v-4.621
			c0-0.819-0.179-1.267-0.417-1.505c-0.254-0.238-0.596-0.269-0.954-0.269H313.806z"/>
	</g>
</g>
<rect x="9.206" y="328.521" fill="#2D9E90" width="590.095" height="317.337"/>
<g>
	<path fill="#FFFFFF" d="M225.784,393.218v-7.975h2.36v18.311h-2.36v-7.975h-3.528v7.975h-2.335v-18.311h2.335v7.975H225.784z"/>
	<path fill="#FFFFFF" d="M230.083,390.436c0-1.614,0.348-2.882,1.043-3.776c0.273-0.323,0.646-0.671,1.193-0.97
		c0.546-0.272,1.217-0.472,2.111-0.472c1.789,0,2.783,0.77,3.305,1.441c0.696,0.894,1.043,2.162,1.043,3.776v7.876
		c0,1.615-0.348,2.883-1.043,3.777c-0.522,0.67-1.516,1.441-3.305,1.441c-1.764,0-2.782-0.771-3.304-1.441
		c-0.696-0.895-1.043-2.162-1.043-3.777V390.436z M232.418,398.312c0,1.467,0.323,2.162,0.745,2.51
		c0.422,0.348,0.895,0.373,1.267,0.373c0.323,0,0.845-0.025,1.268-0.373s0.745-1.043,0.745-2.51v-7.876
		c0-1.416-0.323-2.161-0.745-2.509s-0.944-0.348-1.268-0.348c-0.373,0-0.845,0-1.267,0.348c-0.422,0.348-0.745,1.093-0.745,2.509
		V398.312z"/>
	<path fill="#FFFFFF" d="M252.171,396.919l2.583-11.676h2.411l-4.049,18.311h-1.889l-2.559-11.702l-2.584,11.702h-1.889
		l-4.05-18.311h2.41l2.584,11.676l2.583-11.676h1.889L252.171,396.919z"/>
	<path fill="#FFFFFF" d="M270.557,403.53l-2.534-8.771v8.771h-2.336v-18.312h2.063l3.702,12.895l3.677-12.895h2.062v18.312h-2.335
		v-8.771l-2.534,8.771H270.557z"/>
	<path fill="#FFFFFF" d="M279.054,385.218h2.335v13.441c0,1.268,0.274,1.914,0.646,2.212c0.373,0.323,0.794,0.323,1.118,0.323
		c0.323,0,0.745,0,1.118-0.323c0.373-0.298,0.646-0.944,0.646-2.212v-13.441h2.335v13.441c0,1.517-0.324,2.684-0.994,3.503
		c-0.497,0.671-1.441,1.368-3.105,1.368s-2.609-0.697-3.105-1.368c-0.671-0.819-0.994-1.986-0.994-3.503V385.218z"/>
	<path fill="#FFFFFF" d="M289.117,390.461c0-1.615,0.348-2.882,1.044-3.777c0.521-0.67,1.516-1.441,3.304-1.441
		s2.757,0.771,3.279,1.441c0.721,0.92,1.068,2.162,1.068,3.777v1.168h-2.36v-1.168c0-1.416-0.323-2.187-0.72-2.534
		c-0.422-0.348-0.944-0.348-1.267-0.348c-0.373,0-0.845,0-1.268,0.348c-0.422,0.348-0.746,1.118-0.746,2.534v7.851
		c0,1.068,0.2,1.864,0.572,2.336c0.074,0.124,0.223,0.248,0.447,0.373c0.224,0.124,0.547,0.198,0.994,0.198
		c0.895,0,1.242-0.348,1.441-0.571c0.373-0.497,0.546-1.268,0.546-2.336v-1.168h2.36v1.168c0,1.615-0.348,2.857-1.068,3.777
		c-0.522,0.67-1.491,1.465-3.279,1.465c-0.895,0-1.565-0.197-2.112-0.496c-0.547-0.273-0.919-0.646-1.192-0.969
		c-0.696-0.895-1.044-2.162-1.044-3.777V390.461z"/>
	<path fill="#FFFFFF" d="M304.62,393.218v-7.975h2.36v18.311h-2.36v-7.975h-3.528v7.975h-2.334v-18.311h2.334v7.975H304.62z"/>
	<path fill="#FFFFFF" d="M316.571,403.554v-18.311h3.652c3.155,0,4.646,1.938,4.646,5.293v7.701c0,3.354-1.49,5.316-4.646,5.316
		H316.571z M318.907,387.579v13.64h1.316c0.597,0,1.168-0.074,1.591-0.473c0.397-0.396,0.695-1.143,0.695-2.509v-7.701
		c0-1.367-0.298-2.112-0.695-2.51c-0.423-0.397-0.994-0.447-1.591-0.447H318.907z"/>
	<path fill="#FFFFFF" d="M326.312,390.436c0-1.614,0.348-2.882,1.043-3.776c0.273-0.323,0.646-0.671,1.192-0.97
		c0.547-0.272,1.219-0.472,2.112-0.472c1.789,0,2.783,0.77,3.305,1.441c0.695,0.894,1.043,2.162,1.043,3.776v7.876
		c0,1.615-0.348,2.883-1.043,3.777c-0.521,0.67-1.516,1.441-3.305,1.441c-1.764,0-2.782-0.771-3.305-1.441
		c-0.695-0.895-1.043-2.162-1.043-3.777V390.436z M328.647,398.312c0,1.467,0.322,2.162,0.744,2.51
		c0.424,0.348,0.895,0.373,1.268,0.373c0.322,0,0.845-0.025,1.268-0.373c0.422-0.348,0.745-1.043,0.745-2.51v-7.876
		c0-1.416-0.323-2.161-0.745-2.509c-0.423-0.348-0.945-0.348-1.268-0.348c-0.373,0-0.844,0-1.268,0.348
		c-0.422,0.348-0.744,1.093-0.744,2.509V398.312z"/>
	<path fill="#FFFFFF" d="M349.666,391.952l3.728-6.709h2.683l-5.242,9.441v8.869h-2.336v-8.869l-5.217-9.441h2.684L349.666,391.952z
		"/>
	<path fill="#FFFFFF" d="M356.599,390.436c0-1.614,0.348-2.882,1.043-3.776c0.273-0.323,0.646-0.671,1.193-0.97
		c0.546-0.272,1.218-0.472,2.111-0.472c1.788,0,2.782,0.77,3.304,1.441c0.696,0.894,1.044,2.162,1.044,3.776v7.876
		c0,1.615-0.348,2.883-1.044,3.777c-0.521,0.67-1.516,1.441-3.304,1.441c-1.764,0-2.783-0.771-3.305-1.441
		c-0.695-0.895-1.043-2.162-1.043-3.777V390.436z M358.934,398.312c0,1.467,0.323,2.162,0.745,2.51s0.895,0.373,1.268,0.373
		c0.322,0,0.845-0.025,1.268-0.373s0.745-1.043,0.745-2.51v-7.876c0-1.416-0.322-2.161-0.745-2.509s-0.945-0.348-1.268-0.348
		c-0.373,0-0.846,0-1.268,0.348s-0.745,1.093-0.745,2.509V398.312z"/>
	<path fill="#FFFFFF" d="M366.661,385.218h2.336v13.441c0,1.268,0.272,1.914,0.646,2.212c0.373,0.323,0.795,0.323,1.118,0.323
		c0.322,0,0.745,0,1.118-0.323c0.372-0.298,0.646-0.944,0.646-2.212v-13.441h2.336v13.441c0,1.517-0.323,2.684-0.994,3.503
		c-0.497,0.671-1.441,1.368-3.105,1.368c-1.665,0-2.608-0.697-3.106-1.368c-0.67-0.819-0.993-1.986-0.993-3.503V385.218z"/>
	<path fill="#FFFFFF" d="M384.377,385.218h2.334v13.441c0,1.268,0.274,1.914,0.646,2.212c0.374,0.323,0.796,0.323,1.117,0.323
		c0.324,0,0.746,0,1.12-0.323c0.372-0.298,0.646-0.944,0.646-2.212v-13.441h2.335v13.441c0,1.517-0.323,2.684-0.994,3.503
		c-0.496,0.671-1.44,1.368-3.106,1.368c-1.663,0-2.607-0.697-3.104-1.368c-0.671-0.819-0.993-1.986-0.993-3.503V385.218z"/>
	<path fill="#FFFFFF" d="M394.438,397.169h2.336v1.168c0,1.068,0.199,1.839,0.571,2.311c0.074,0.124,0.224,0.224,0.448,0.348
		c0.223,0.124,0.546,0.199,1.018,0.199c0.894,0,1.392-0.448,1.689-0.994c0.273-0.547,0.323-1.242,0.323-1.739
		c0-0.869-0.299-1.441-0.721-1.863c-0.422-0.397-0.994-0.671-1.516-0.895l-0.446-0.199c-0.522-0.224-1.417-0.596-2.212-1.366
		c-0.994-0.969-1.491-2.186-1.491-3.677c0-1.566,0.423-2.882,1.218-3.801c0.77-0.894,1.863-1.441,3.155-1.441
		c1.789,0,2.783,0.77,3.305,1.441c0.721,0.919,1.068,2.187,1.068,3.801v1.168h-2.36v-1.168c0-1.416-0.323-2.187-0.745-2.534
		c-0.423-0.348-0.944-0.348-1.268-0.348c-0.97,0-1.44,0.521-1.714,1.168c-0.299,0.646-0.323,1.391-0.323,1.714
		c0,0.87,0.298,1.44,0.72,1.888c0.423,0.448,0.995,0.77,1.591,0.994l0.397,0.174c0.473,0.199,1.366,0.521,2.161,1.291
		c1.019,0.945,1.541,2.162,1.541,3.653c0,2.808-1.565,5.069-4.373,5.069c-2.906,0-4.373-1.914-4.373-5.193V397.169z"/>
	<path fill="#FFFFFF" d="M411.88,385.243v2.336h-5.241v5.639h5.241v2.336h-5.241v5.665h5.241v2.335h-7.577v-18.311H411.88z"/>
	<path fill="#FFFFFF" d="M423.532,395.554v7.977h-2.335v-18.312h3.801c3.106,0,4.671,1.863,4.671,5.144
		c0,3.354-1.516,5.192-4.671,5.192H423.532z M423.532,387.579v5.615h1.466c0.646,0,1.094-0.076,1.317-0.225s0.373-0.273,0.447-0.348
		c0.373-0.373,0.547-1.143,0.547-2.26c0-1.193-0.199-1.889-0.571-2.287c-0.397-0.397-0.97-0.496-1.74-0.496H423.532z"/>
	<path fill="#FFFFFF" d="M438.315,385.243v2.336h-5.242v5.639h5.242v2.336h-5.242v5.665h5.242v2.335h-7.577v-18.311H438.315z"/>
	<path fill="#FFFFFF" d="M448.478,403.53h-2.361v-5.417c0-1.615-0.77-2.41-2.335-2.41h-1.466v7.827h-2.335v-18.312h3.801
		c3.155,0,4.646,1.813,4.646,5.217c0,1.69-0.373,2.981-1.094,3.851c-0.024,0.025-0.074,0.074-0.1,0.125
		c-0.049,0.049-0.099,0.1-0.148,0.124c0.895,0.87,1.392,2.062,1.392,3.578V403.53z M442.315,393.343h1.466
		c0.622,0,1.069-0.074,1.317-0.225c0.224-0.148,0.372-0.273,0.447-0.348c0.373-0.471,0.547-1.242,0.547-2.335
		c0-1.217-0.199-1.938-0.572-2.36c-0.397-0.397-0.968-0.496-1.739-0.496h-1.466V393.343z"/>
	<path fill="#FFFFFF" d="M463.633,391.952l3.727-6.709h2.684l-5.242,9.441v8.869h-2.335v-8.869l-5.218-9.441h2.683L463.633,391.952z
		"/>
	<path fill="#FFFFFF" d="M478.143,385.243v2.336H472.9v5.639h5.242v2.336H472.9v5.665h5.242v2.335h-7.577v-18.311H478.143z"/>
	<path fill="#FFFFFF" d="M486.565,398.436h-3.181l-1.168,5.118h-2.409l4.224-18.311h1.863l4.273,18.311h-2.435L486.565,398.436z
		 M483.933,396.101h2.086l-1.043-4.497L483.933,396.101z"/>
	<path fill="#FFFFFF" d="M499.163,403.53h-2.361v-5.417c0-1.615-0.771-2.41-2.335-2.41H493v7.827h-2.334v-18.312h3.801
		c3.155,0,4.646,1.813,4.646,5.217c0,1.69-0.373,2.981-1.094,3.851c-0.024,0.025-0.074,0.074-0.1,0.125
		c-0.05,0.049-0.1,0.1-0.148,0.124c0.894,0.87,1.392,2.062,1.392,3.578V403.53z M493,393.343h1.467c0.621,0,1.068-0.074,1.316-0.225
		c0.224-0.148,0.373-0.273,0.448-0.348c0.372-0.471,0.546-1.242,0.546-2.335c0-1.217-0.198-1.938-0.571-2.36
		c-0.397-0.397-0.97-0.496-1.739-0.496H493V393.343z"/>
	<path fill="#FFFFFF" d="M508.803,390.088v0.223h-0.025c-0.024,1.318-0.497,2.436-1.043,3.305c-0.547,0.895-1.218,1.564-1.641,1.987
		l-0.298,0.298c-0.372,0.473-0.372,1.118-0.372,2.386v1.242h-2.361v-1.242c0-0.72,0-1.466,0.125-2.111
		c0.1-0.647,0.348-1.218,0.82-1.79c0.074-0.074,0.124-0.148,0.198-0.223l0.225-0.225c0.322-0.322,0.844-0.844,1.266-1.465
		c0.397-0.622,0.721-1.393,0.745-2.286c0-0.498-0.123-1.168-0.348-1.69c-0.223-0.521-0.596-0.919-1.192-0.919
		c-0.223,0-0.621-0.026-0.943,0.322c-0.323,0.349-0.597,1.044-0.597,2.41v1.168h-2.335v-1.168c0-3.006,1.292-5.068,3.875-5.068
		c1.268,0,2.336,0.596,3.031,1.714c0.522,0.846,0.82,1.889,0.845,3.131H508.803z M505.398,403.554h-2.336v-2.633h2.336V403.554z"/>
</g>
<path fill="#FFFFFF" d="M418.999,451.56c0,2.319-0.853,4.2-1.903,4.2h-49.135c-1.051,0-1.903-1.881-1.903-4.2v-12.097
	c0-2.319,0.853-4.2,1.903-4.2h49.135c1.051,0,1.903,1.881,1.903,4.2V451.56z"/>
<g>
	<path fill="#FFFFFF" d="M300.745,439.081v1.4H297.6v3.384h3.145v1.401H297.6v3.398h3.145v1.4h-4.546v-10.984H300.745z"/>
	<path fill="#FFFFFF" d="M306.528,450.051h-4.784v-10.985h1.401v9.584h3.383V450.051z"/>
	<path fill="#FFFFFF" d="M311.598,439.081v1.4h-3.146v3.384h3.146v1.401h-3.146v3.398h3.146v1.4h-4.546v-10.984H311.598z"/>
	<path fill="#FFFFFF" d="M312.596,442.211c0-0.969,0.21-1.729,0.626-2.267c0.313-0.402,0.91-0.863,1.982-0.863
		c1.074,0,1.654,0.461,1.969,0.863c0.432,0.552,0.641,1.298,0.641,2.267v0.7h-1.416v-0.7c0-0.85-0.194-1.312-0.433-1.521
		c-0.253-0.209-0.566-0.209-0.761-0.209c-0.223,0-0.506,0-0.76,0.209c-0.253,0.209-0.446,0.671-0.446,1.521v4.71
		c0,0.642,0.118,1.118,0.342,1.401c0.046,0.074,0.135,0.148,0.269,0.224c0.135,0.074,0.328,0.119,0.596,0.119
		c0.537,0,0.746-0.209,0.865-0.343c0.224-0.299,0.328-0.76,0.328-1.401v-0.701h1.416v0.701c0,0.97-0.209,1.714-0.641,2.266
		c-0.314,0.402-0.895,0.879-1.969,0.879c-0.535,0-0.939-0.119-1.267-0.297c-0.327-0.164-0.552-0.389-0.716-0.582
		c-0.416-0.537-0.626-1.296-0.626-2.266V442.211z"/>
	<path fill="#FFFFFF" d="M318.381,439.065h6.215v1.416h-2.4v9.569h-1.415v-9.569h-2.399V439.065z"/>
	<path fill="#FFFFFF" d="M330.351,450.051h-1.416v-3.249c0-0.969-0.462-1.446-1.401-1.446h-0.879v4.695h-1.401v-10.985h2.28
		c1.893,0,2.788,1.089,2.788,3.13c0,1.015-0.225,1.789-0.656,2.311c-0.015,0.015-0.045,0.045-0.06,0.075
		c-0.03,0.029-0.061,0.06-0.09,0.074c0.537,0.521,0.835,1.237,0.835,2.146V450.051z M326.654,443.939h0.879
		c0.373,0,0.642-0.045,0.79-0.133c0.135-0.091,0.224-0.165,0.269-0.21c0.224-0.282,0.328-0.746,0.328-1.401
		c0-0.73-0.119-1.162-0.343-1.415c-0.238-0.238-0.581-0.299-1.044-0.299h-0.879V443.939z"/>
	<path fill="#FFFFFF" d="M333.317,450.065h-1.401v-10.984h1.401V450.065z"/>
	<path fill="#FFFFFF" d="M334.481,442.211c0-0.969,0.208-1.729,0.625-2.267c0.312-0.402,0.909-0.863,1.981-0.863
		c1.074,0,1.655,0.461,1.969,0.863c0.432,0.552,0.641,1.298,0.641,2.267v0.7h-1.416v-0.7c0-0.85-0.193-1.312-0.433-1.521
		c-0.253-0.209-0.565-0.209-0.761-0.209c-0.223,0-0.506,0-0.76,0.209c-0.252,0.209-0.446,0.671-0.446,1.521v4.71
		c0,0.642,0.119,1.118,0.342,1.401c0.046,0.074,0.135,0.148,0.269,0.224c0.135,0.074,0.328,0.119,0.596,0.119
		c0.537,0,0.746-0.209,0.865-0.343c0.224-0.299,0.328-0.76,0.328-1.401v-0.701h1.416v0.701c0,0.97-0.209,1.714-0.641,2.266
		c-0.313,0.402-0.895,0.879-1.969,0.879c-0.535,0-0.938-0.119-1.266-0.297c-0.329-0.164-0.552-0.389-0.716-0.582
		c-0.417-0.537-0.625-1.296-0.625-2.266V442.211z"/>
	<path fill="#FFFFFF" d="M342.112,450.065h-1.401v-10.984h1.401V450.065z"/>
	<path fill="#FFFFFF" d="M343.275,439.065h6.216v1.416h-2.399v9.569h-1.416v-9.569h-2.4V439.065z"/>
	<path fill="#FFFFFF" d="M353.532,443.105l2.236-4.024h1.609l-3.146,5.664v5.32h-1.4v-5.32l-3.13-5.664h1.609L353.532,443.105z"/>
</g>
<g>
	<path fill="#FFFFFF" d="M442.701,460.033c-7.465,0-13.536-6.072-13.536-13.536c0-7.463,6.071-13.535,13.536-13.535
		c7.463,0,13.535,6.072,13.535,13.535C456.236,453.961,450.164,460.033,442.701,460.033z M442.701,436.689
		c-5.408,0-9.809,4.399-9.809,9.808s4.4,9.809,9.809,9.809s9.809-4.4,9.809-9.809S448.109,436.689,442.701,436.689z"/>
</g>
<g>
	<path fill="#FFFFFF" d="M444.77,443.56v0.134h-0.016c-0.015,0.789-0.298,1.461-0.625,1.982c-0.329,0.537-0.731,0.938-0.985,1.192
		l-0.178,0.179c-0.224,0.284-0.224,0.671-0.224,1.431v0.746h-1.416v-0.746c0-0.433,0-0.879,0.074-1.267
		c0.06-0.388,0.209-0.729,0.492-1.073c0.045-0.044,0.074-0.09,0.118-0.134l0.136-0.135c0.193-0.193,0.506-0.506,0.76-0.879
		c0.237-0.373,0.432-0.835,0.447-1.371c0-0.299-0.074-0.701-0.21-1.015c-0.133-0.312-0.356-0.552-0.714-0.552
		c-0.136,0-0.373-0.015-0.567,0.194c-0.193,0.209-0.357,0.626-0.357,1.446v0.7h-1.401v-0.7c0-1.804,0.775-3.041,2.326-3.041
		c0.76,0,1.401,0.357,1.817,1.029c0.313,0.506,0.492,1.132,0.507,1.878H444.77z M442.728,451.639h-1.401v-1.58h1.401V451.639z"/>
</g>
<polygon fill="#2D9E90" points="414.93,442.421 408.75,448.602 402.569,442.421 "/>
<g>
	<path fill="#FFFFFF" d="M315.804,469.074v1.401h-3.145v3.383h3.145v1.401h-3.145v4.801h-1.4v-10.986H315.804z"/>
	<path fill="#FFFFFF" d="M316.804,469.06h1.4v8.063c0,0.761,0.165,1.147,0.389,1.327c0.224,0.193,0.477,0.193,0.671,0.193
		s0.446,0,0.671-0.193c0.223-0.18,0.388-0.566,0.388-1.327v-8.063h1.4v8.063c0,0.909-0.193,1.61-0.597,2.103
		c-0.298,0.401-0.864,0.819-1.862,0.819c-0.999,0-1.565-0.418-1.863-0.819c-0.403-0.492-0.597-1.193-0.597-2.103V469.06z"/>
	<path fill="#FFFFFF" d="M327.389,469.074v1.401h-3.146v3.383h3.146v1.401h-3.146v3.398h3.146v1.402h-4.548v-10.986H327.389z"/>
	<path fill="#FFFFFF" d="M333.172,480.045h-4.784V469.06h1.401v9.584h3.383V480.045z"/>
</g>
<g>
	<path fill="#FFFFFF" d="M312.501,504.268c0-1.967,0.879-3.114,2.607-3.114c1.744,0,2.624,1.147,2.624,3.114v0.702h-1.416v-0.702
		c0-0.789-0.148-1.222-0.373-1.46c-0.237-0.224-0.535-0.254-0.835-0.254c-0.298,0-0.596,0.03-0.819,0.254
		c-0.238,0.238-0.388,0.671-0.388,1.46v4.741c0,0.879,0.194,1.296,0.447,1.505c0.254,0.209,0.537,0.224,0.76,0.224
		c0.225,0,0.522-0.015,0.775-0.224c0.238-0.209,0.433-0.626,0.433-1.505v-0.835h-1.699v-1.416h3.115v2.251
		c0,0.983-0.208,1.743-0.642,2.266c-0.312,0.401-0.908,0.864-1.982,0.864c-1.058,0-1.653-0.463-1.967-0.864
		c-0.432-0.522-0.641-1.282-0.641-2.266V504.268z"/>
	<path fill="#FFFFFF" d="M322.712,509.068h-1.908l-0.7,3.07h-1.446l2.534-10.985h1.118l2.563,10.985h-1.461L322.712,509.068z
		 M321.132,507.666h1.252l-0.626-2.696L321.132,507.666z"/>
	<path fill="#FFFFFF" d="M325.172,508.308h1.401v0.701c0,0.641,0.119,1.104,0.343,1.386c0.045,0.074,0.134,0.134,0.269,0.209
		c0.134,0.074,0.327,0.119,0.61,0.119c0.537,0,0.836-0.268,1.015-0.597c0.163-0.328,0.193-0.744,0.193-1.043
		c0-0.521-0.18-0.865-0.432-1.117c-0.254-0.239-0.597-0.404-0.91-0.537l-0.269-0.119c-0.312-0.135-0.85-0.358-1.326-0.82
		c-0.596-0.581-0.895-1.312-0.895-2.206c0-0.938,0.253-1.729,0.73-2.28c0.462-0.536,1.117-0.864,1.893-0.864
		c1.074,0,1.67,0.461,1.983,0.864c0.432,0.551,0.641,1.312,0.641,2.28v0.701h-1.416v-0.701c0-0.851-0.193-1.312-0.446-1.521
		c-0.254-0.209-0.567-0.209-0.762-0.209c-0.581,0-0.863,0.312-1.028,0.701c-0.178,0.388-0.193,0.834-0.193,1.028
		c0,0.521,0.179,0.865,0.432,1.132c0.254,0.269,0.597,0.463,0.954,0.598l0.239,0.104c0.283,0.119,0.82,0.313,1.296,0.775
		c0.611,0.566,0.925,1.297,0.925,2.191c0,1.685-0.939,3.041-2.624,3.041c-1.743,0-2.623-1.147-2.623-3.115V508.308z"/>
</g>
<g>
	<path fill="#FFFFFF" d="M315.433,537.883l1.551-7.006h1.445l-2.43,10.986h-1.133l-1.534-7.021l-1.552,7.021h-1.133l-2.428-10.986
		h1.445l1.549,7.006l1.552-7.006h1.132L315.433,537.883z"/>
	<path fill="#FFFFFF" d="M323.006,538.792h-1.908l-0.699,3.071h-1.446l2.534-10.986h1.118l2.563,10.986h-1.461L323.006,538.792z
		 M321.427,537.392h1.252l-0.626-2.698L321.427,537.392z"/>
	<path fill="#FFFFFF" d="M325.466,530.863h6.217v1.415h-2.4v9.569h-1.416v-9.569h-2.4V530.863z"/>
	<path fill="#FFFFFF" d="M336.885,530.877v1.401h-3.145v3.384h3.145v1.4h-3.145v3.398h3.145v1.402h-4.546v-10.986H336.885z"/>
	<path fill="#FFFFFF" d="M342.982,541.848h-1.416v-3.249c0-0.969-0.462-1.446-1.401-1.446h-0.88v4.695h-1.4v-10.984h2.28
		c1.893,0,2.788,1.088,2.788,3.13c0,1.013-0.225,1.788-0.656,2.31c-0.016,0.016-0.045,0.046-0.06,0.075
		c-0.03,0.029-0.061,0.06-0.09,0.074c0.537,0.521,0.835,1.237,0.835,2.146V541.848z M339.285,535.736h0.88
		c0.373,0,0.642-0.044,0.789-0.134c0.136-0.089,0.225-0.164,0.269-0.209c0.225-0.283,0.329-0.744,0.329-1.4
		c0-0.73-0.119-1.163-0.344-1.416c-0.237-0.239-0.581-0.299-1.043-0.299h-0.88V535.736z"/>
</g>
<path fill="#FFFFFF" d="M161.815,594.033c0,7.175-1.382,12.992-3.088,12.992H56.52c-1.706,0-3.088-5.817-3.088-12.992v-29.229
	c0-7.177,1.382-12.992,3.088-12.992h102.208c1.706,0,3.088,5.815,3.088,12.992V594.033z"/>
<g>
	<path fill="#2D9E90" d="M77.779,558.243h5.18v1.18h-2v7.975h-1.18v-7.975h-2V558.243z"/>
	<path fill="#2D9E90" d="M83.506,560.852c0-0.808,0.174-1.441,0.521-1.889c0.137-0.161,0.323-0.335,0.597-0.484
		c0.273-0.137,0.608-0.235,1.056-0.235c0.894,0,1.391,0.385,1.651,0.72c0.348,0.447,0.522,1.081,0.522,1.889v3.938
		c0,0.808-0.174,1.44-0.522,1.889c-0.261,0.335-0.757,0.72-1.651,0.72c-0.882,0-1.392-0.385-1.653-0.72
		c-0.348-0.448-0.521-1.081-0.521-1.889V560.852z M84.674,564.789c0,0.733,0.161,1.081,0.372,1.255
		c0.211,0.174,0.447,0.186,0.634,0.186c0.161,0,0.422-0.012,0.633-0.186c0.212-0.174,0.373-0.521,0.373-1.255v-3.938
		c0-0.709-0.161-1.081-0.373-1.255c-0.211-0.174-0.472-0.174-0.633-0.174c-0.187,0-0.423,0-0.634,0.174
		c-0.211,0.174-0.372,0.546-0.372,1.255V564.789z"/>
	<path fill="#2D9E90" d="M88.537,558.243h5.181v1.18h-2v7.975h-1.18v-7.975h-2V558.243z"/>
	<path fill="#2D9E90" d="M97.644,564.852h-1.59l-0.584,2.559h-1.206l2.112-9.155h0.932l2.137,9.155h-1.218L97.644,564.852z
		 M96.327,563.684h1.043l-0.521-2.248L96.327,563.684z"/>
	<path fill="#2D9E90" d="M103.681,567.397h-3.988v-9.154h1.168v7.986h2.82V567.397z"/>
	<path fill="#2D9E90" d="M110.874,562.243v-3.988h1.18v9.155h-1.18v-3.988h-1.764v3.988h-1.167v-9.155h1.167v3.988H110.874z"/>
	<path fill="#2D9E90" d="M113.023,560.852c0-0.808,0.174-1.441,0.521-1.889c0.136-0.161,0.323-0.335,0.596-0.484
		c0.273-0.137,0.609-0.235,1.056-0.235c0.895,0,1.392,0.385,1.652,0.72c0.348,0.447,0.522,1.081,0.522,1.889v3.938
		c0,0.808-0.174,1.44-0.522,1.889c-0.261,0.335-0.757,0.72-1.652,0.72c-0.882,0-1.391-0.385-1.652-0.72
		c-0.348-0.448-0.521-1.081-0.521-1.889V560.852z M114.191,564.789c0,0.733,0.161,1.081,0.373,1.255
		c0.211,0.174,0.447,0.186,0.633,0.186c0.162,0,0.422-0.012,0.634-0.186s0.373-0.521,0.373-1.255v-3.938
		c0-0.709-0.161-1.081-0.373-1.255s-0.472-0.174-0.634-0.174c-0.186,0-0.422,0-0.633,0.174c-0.211,0.174-0.373,0.546-0.373,1.255
		V564.789z"/>
	<path fill="#2D9E90" d="M118.055,558.243h1.168v6.72c0,0.634,0.136,0.957,0.323,1.106c0.186,0.16,0.397,0.16,0.559,0.16
		s0.373,0,0.559-0.16c0.187-0.149,0.323-0.473,0.323-1.106v-6.72h1.167v6.72c0,0.758-0.161,1.342-0.497,1.752
		c-0.249,0.335-0.721,0.683-1.553,0.683c-0.833,0-1.305-0.348-1.553-0.683c-0.336-0.41-0.497-0.994-0.497-1.752V558.243z"/>
	<path fill="#2D9E90" d="M123.086,564.218h1.168v0.584c0,0.534,0.099,0.919,0.286,1.155c0.037,0.062,0.112,0.112,0.224,0.174
		s0.273,0.099,0.51,0.099c0.447,0,0.695-0.224,0.844-0.496c0.136-0.273,0.162-0.621,0.162-0.87c0-0.435-0.149-0.721-0.36-0.932
		c-0.211-0.198-0.497-0.335-0.758-0.447l-0.224-0.099c-0.261-0.112-0.708-0.298-1.105-0.684c-0.497-0.484-0.746-1.094-0.746-1.839
		c0-0.782,0.211-1.44,0.609-1.9c0.385-0.447,0.932-0.72,1.578-0.72c0.894,0,1.391,0.385,1.651,0.72
		c0.361,0.46,0.535,1.094,0.535,1.9v0.584h-1.18v-0.584c0-0.707-0.162-1.093-0.373-1.267c-0.211-0.174-0.472-0.174-0.633-0.174
		c-0.485,0-0.721,0.261-0.857,0.584c-0.149,0.322-0.162,0.695-0.162,0.856c0,0.436,0.149,0.721,0.36,0.945
		c0.212,0.223,0.497,0.384,0.795,0.496l0.199,0.087c0.236,0.099,0.683,0.261,1.081,0.646c0.51,0.472,0.771,1.08,0.771,1.825
		c0,1.404-0.783,2.534-2.186,2.534c-1.454,0-2.187-0.955-2.187-2.596V564.218z"/>
	<path fill="#2D9E90" d="M129.558,567.41h-1.167v-9.155h1.167V567.41z"/>
	<path fill="#2D9E90" d="M133.931,567.397l-2.236-5.54v5.54h-1.168v-9.154h0.982l2.235,5.54v-5.54h1.18v9.154H133.931z"/>
	<path fill="#2D9E90" d="M135.807,560.852c0-1.641,0.732-2.597,2.174-2.597c1.454,0,2.186,0.956,2.186,2.597v0.584h-1.18v-0.584
		c0-0.659-0.124-1.019-0.31-1.218c-0.199-0.187-0.448-0.211-0.696-0.211c-0.249,0-0.497,0.024-0.684,0.211
		c-0.198,0.199-0.323,0.559-0.323,1.218v3.95c0,0.732,0.161,1.08,0.373,1.254c0.211,0.174,0.447,0.187,0.634,0.187
		s0.435-0.013,0.646-0.187c0.199-0.174,0.36-0.521,0.36-1.254v-0.695h-1.416v-1.181h2.596v1.876c0,0.82-0.174,1.453-0.534,1.889
		c-0.261,0.335-0.757,0.72-1.652,0.72c-0.882,0-1.379-0.385-1.64-0.72c-0.36-0.436-0.534-1.068-0.534-1.889V560.852z"/>
</g>
<g>
	<path fill="#939393" d="M87.243,583.975h-1.432l0.656-3.398h-1.982v-1.416h2.265l0.269-1.401h-2.072v-1.416h2.355l0.656-3.384
		h1.431l-0.656,3.384h1.148l0.641-3.384h1.431l-0.642,3.384h1.7v1.416h-1.967l-0.283,1.401h1.789v1.416h-2.057l-0.656,3.398h-1.431
		l0.656-3.398h-1.148L87.243,583.975z M89.613,577.759h-1.148l-0.283,1.401h1.147L89.613,577.759z"/>
	<path fill="#939393" d="M95.755,583.975h-1.431l0.656-3.398h-1.983v-1.416h2.266l0.269-1.401h-2.072v-1.416h2.355l0.656-3.384
		h1.431l-0.656,3.384h1.147l0.641-3.384h1.431l-0.641,3.384h1.699v1.416h-1.967l-0.283,1.401h1.789v1.416h-2.057l-0.656,3.398h-1.43
		l0.656-3.398h-1.148L95.755,583.975z M98.125,577.759h-1.147l-0.283,1.401h1.148L98.125,577.759z"/>
	<path fill="#939393" d="M104.267,583.975h-1.431l0.656-3.398h-1.982v-1.416h2.265l0.269-1.401h-2.072v-1.416h2.355l0.656-3.384
		h1.431l-0.656,3.384h1.147l0.641-3.384h1.431l-0.641,3.384h1.7v1.416h-1.968l-0.283,1.401h1.789v1.416h-2.057l-0.656,3.398h-1.431
		l0.656-3.398h-1.148L104.267,583.975z M106.637,577.759h-1.147l-0.283,1.401h1.148L106.637,577.759z"/>
	<path fill="#939393" d="M112.779,583.975h-1.431l0.656-3.398h-1.982v-1.416h2.266l0.269-1.401h-2.072v-1.416h2.355l0.656-3.384
		h1.431l-0.656,3.384h1.147l0.641-3.384h1.431l-0.641,3.384h1.699v1.416h-1.967l-0.283,1.401h1.789v1.416h-2.057l-0.656,3.398
		h-1.431l0.656-3.398h-1.148L112.779,583.975z M115.149,577.759h-1.148l-0.283,1.401h1.147L115.149,577.759z"/>
	<path fill="#939393" d="M121.292,583.975h-1.431l0.656-3.398h-1.982v-1.416h2.266l0.269-1.401h-2.072v-1.416h2.355l0.656-3.384
		h1.431l-0.656,3.384h1.147l0.641-3.384h1.431l-0.641,3.384h1.7v1.416h-1.968l-0.283,1.401h1.789v1.416h-2.058l-0.656,3.398h-1.431
		l0.656-3.398h-1.148L121.292,583.975z M123.661,577.759h-1.147l-0.283,1.401h1.147L123.661,577.759z"/>
</g>
<g>
	<path fill="#2D9E90" d="M77.779,590.128h5.18v1.181h-2v7.975h-1.18v-7.975h-2V590.128z"/>
	<path fill="#2D9E90" d="M83.506,592.737c0-0.809,0.174-1.441,0.521-1.889c0.137-0.161,0.323-0.335,0.597-0.484
		c0.273-0.137,0.608-0.236,1.056-0.236c0.894,0,1.391,0.386,1.651,0.721c0.348,0.447,0.522,1.08,0.522,1.889v3.938
		c0,0.808-0.174,1.441-0.522,1.888c-0.261,0.336-0.757,0.721-1.651,0.721c-0.882,0-1.392-0.385-1.653-0.721
		c-0.348-0.446-0.521-1.08-0.521-1.888V592.737z M84.674,596.675c0,0.733,0.161,1.081,0.372,1.255
		c0.211,0.174,0.447,0.187,0.634,0.187c0.161,0,0.422-0.013,0.633-0.187c0.212-0.174,0.373-0.521,0.373-1.255v-3.938
		c0-0.708-0.161-1.081-0.373-1.255c-0.211-0.174-0.472-0.174-0.633-0.174c-0.187,0-0.423,0-0.634,0.174
		c-0.211,0.174-0.372,0.547-0.372,1.255V596.675z"/>
	<path fill="#2D9E90" d="M91.941,599.283l-2.236-5.54v5.54h-1.168v-9.155h0.981l2.236,5.541v-5.541h1.18v9.155H91.941z"/>
	<path fill="#2D9E90" d="M93.817,596.104h1.168v0.584c0,0.534,0.099,0.919,0.286,1.154c0.037,0.062,0.112,0.112,0.224,0.175
		c0.112,0.062,0.273,0.1,0.509,0.1c0.447,0,0.696-0.224,0.845-0.497c0.137-0.273,0.162-0.621,0.162-0.869
		c0-0.436-0.149-0.722-0.36-0.932c-0.211-0.2-0.497-0.336-0.758-0.448l-0.224-0.1c-0.261-0.111-0.708-0.298-1.105-0.683
		c-0.497-0.485-0.746-1.093-0.746-1.839c0-0.782,0.211-1.44,0.609-1.9c0.385-0.447,0.932-0.721,1.578-0.721
		c0.894,0,1.391,0.386,1.652,0.721c0.361,0.46,0.535,1.094,0.535,1.9v0.584h-1.18v-0.584c0-0.708-0.162-1.093-0.373-1.267
		c-0.211-0.174-0.472-0.174-0.633-0.174c-0.485,0-0.721,0.261-0.857,0.583c-0.149,0.323-0.162,0.696-0.162,0.857
		c0,0.436,0.149,0.721,0.36,0.944c0.212,0.224,0.497,0.386,0.795,0.497l0.199,0.086c0.236,0.101,0.683,0.262,1.081,0.646
		c0.51,0.473,0.771,1.081,0.771,1.827c0,1.403-0.783,2.533-2.187,2.533c-1.454,0-2.187-0.956-2.187-2.596V596.104z"/>
	<path fill="#2D9E90" d="M102.575,592.749c0-0.807,0.174-1.44,0.521-1.888c0.261-0.336,0.758-0.721,1.653-0.721
		c0.894,0,1.378,0.385,1.64,0.721c0.36,0.46,0.534,1.081,0.534,1.888v0.584h-1.18v-0.584c0-0.708-0.162-1.093-0.36-1.267
		c-0.211-0.174-0.472-0.174-0.633-0.174c-0.187,0-0.423,0-0.634,0.174s-0.372,0.559-0.372,1.267v3.926
		c0,0.534,0.099,0.932,0.285,1.167c0.037,0.062,0.112,0.125,0.224,0.188c0.111,0.062,0.273,0.099,0.497,0.099
		c0.447,0,0.621-0.174,0.72-0.286c0.187-0.247,0.273-0.633,0.273-1.167v-0.584h1.18v0.584c0,0.808-0.174,1.429-0.534,1.888
		c-0.261,0.336-0.746,0.733-1.64,0.733c-0.448,0-0.783-0.1-1.056-0.248c-0.273-0.138-0.46-0.323-0.597-0.485
		c-0.348-0.446-0.521-1.08-0.521-1.888V592.749z"/>
	<path fill="#2D9E90" d="M107.395,592.737c0-0.809,0.174-1.441,0.522-1.889c0.137-0.161,0.323-0.335,0.596-0.484
		c0.273-0.137,0.608-0.236,1.056-0.236c0.894,0,1.391,0.386,1.652,0.721c0.348,0.447,0.522,1.08,0.522,1.889v3.938
		c0,0.808-0.174,1.441-0.522,1.888c-0.261,0.336-0.758,0.721-1.652,0.721c-0.882,0-1.392-0.385-1.652-0.721
		c-0.348-0.446-0.522-1.08-0.522-1.888V592.737z M108.563,596.675c0,0.733,0.162,1.081,0.373,1.255s0.447,0.187,0.634,0.187
		c0.161,0,0.422-0.013,0.633-0.187c0.211-0.174,0.373-0.521,0.373-1.255v-3.938c0-0.708-0.162-1.081-0.373-1.255
		c-0.211-0.174-0.472-0.174-0.633-0.174c-0.187,0-0.423,0-0.634,0.174s-0.373,0.547-0.373,1.255V596.675z"/>
	<path fill="#2D9E90" d="M116.315,598.128v1.168h-3.889v-0.584c0-0.758,0.149-1.354,0.41-1.938c0.261-0.584,0.609-1.118,1.043-1.764
		c0.174-0.249,0.336-0.473,0.484-0.672c0.236-0.311,0.423-0.571,0.559-0.844c0.137-0.273,0.211-0.56,0.211-0.957
		c0-0.148-0.025-0.459-0.124-0.732c-0.112-0.273-0.298-0.497-0.646-0.497c-0.136,0-0.323,0-0.484,0.148
		c-0.161,0.162-0.286,0.485-0.286,1.118v0.596h-1.168v-0.596c0-0.745,0.149-1.329,0.46-1.738c0.236-0.336,0.683-0.696,1.478-0.696
		c0.559,0,1.043,0.236,1.379,0.634c0.335,0.41,0.546,1.006,0.559,1.701h0.013v0.1h-0.013c-0.012,0.584-0.137,1.019-0.322,1.404
		c-0.187,0.397-0.423,0.72-0.671,1.055c-0.149,0.2-0.298,0.398-0.448,0.635c-0.348,0.533-0.633,0.943-0.832,1.329
		c-0.199,0.397-0.323,0.732-0.385,1.13H116.315z"/>
	<path fill="#2D9E90" d="M116.898,599.296l3.392-9.155h1.255l-3.392,9.155H116.898z"/>
	<path fill="#2D9E90" d="M124.899,593.495l1.863-3.354h1.342l-2.621,4.72v4.436h-1.168v-4.436l-2.609-4.72h1.342L124.899,593.495z"
		/>
	<path fill="#2D9E90" d="M132.154,590.141v1.168h-2.621v2.82h2.621v1.167h-2.621v2.832h2.621v1.168h-3.789v-9.155H132.154z"/>
	<path fill="#2D9E90" d="M136.365,596.736h-1.59l-0.583,2.56h-1.205l2.112-9.155h0.932l2.137,9.155h-1.217L136.365,596.736z
		 M135.048,595.569h1.044l-0.522-2.248L135.048,595.569z"/>
	<path fill="#2D9E90" d="M142.664,599.283h-1.18v-2.707c0-0.808-0.386-1.206-1.168-1.206h-0.733v3.913h-1.168v-9.155h1.901
		c1.578,0,2.323,0.907,2.323,2.609c0,0.844-0.186,1.49-0.546,1.926c-0.013,0.012-0.037,0.036-0.05,0.062
		c-0.025,0.024-0.05,0.05-0.074,0.062c0.447,0.435,0.695,1.031,0.695,1.789V599.283z M139.583,594.19h0.733
		c0.311,0,0.534-0.037,0.658-0.111c0.112-0.075,0.187-0.138,0.224-0.174c0.187-0.236,0.273-0.622,0.273-1.168
		c0-0.609-0.1-0.969-0.286-1.181c-0.198-0.198-0.484-0.248-0.869-0.248h-0.733V594.19z"/>
</g>
<path fill="#FFFFFF" d="M281.595,449.228c0,0.532-0.432,0.964-0.965,0.964h-5.143c-0.532,0-0.965-0.432-0.965-0.964v-0.08
	c0-0.533,0.433-0.965,0.965-0.965h5.143c0.533,0,0.965,0.432,0.965,0.965V449.228z"/>
<path fill="#FFFFFF" d="M281.595,451.075c0,0.532-0.432,0.965-0.965,0.965h-5.143c-0.532,0-0.965-0.433-0.965-0.965v-0.08
	c0-0.532,0.433-0.965,0.965-0.965h5.143c0.533,0,0.965,0.433,0.965,0.965V451.075z"/>
<path fill="#FFFFFF" d="M281.354,452.683c0,0.532-0.403,0.965-0.899,0.965h-4.792c-0.496,0-0.899-0.433-0.899-0.965v-0.08
	c0-0.532,0.403-0.965,0.899-0.965h4.792c0.496,0,0.899,0.433,0.899,0.965V452.683z"/>
<ellipse fill="#FFFFFF" cx="278.059" cy="453.185" rx="1.863" ry="1.707"/>
<path fill="none" stroke="#FFFFFF" stroke-width="3" stroke-miterlimit="10" d="M275.969,448.826c0,0-0.241-3.054-2.33-4.843
	c-2.089-1.787-0.964-7.854,4.419-7.854s7.011,5.805,4.621,8.195c-2.39,2.391-2.371,4.501-2.371,4.501H275.969z"/>
<path fill="none" stroke="#FFFFFF" stroke-width="2" stroke-miterlimit="10" d="M278.019,439.545c0,0,2.611,0.241,2.611,1.888"/>
<g>
	<path fill="#FFFFFF" d="M442.701,490.505c-7.465,0-13.536-6.072-13.536-13.535s6.071-13.535,13.536-13.535
		c7.463,0,13.535,6.072,13.535,13.535S450.164,490.505,442.701,490.505z M442.701,467.161c-5.408,0-9.809,4.4-9.809,9.809
		s4.4,9.809,9.809,9.809s9.809-4.4,9.809-9.809S448.109,467.161,442.701,467.161z"/>
</g>
<g>
	<path fill="#FFFFFF" d="M444.77,474.031v0.134h-0.016c-0.015,0.79-0.298,1.461-0.625,1.982c-0.329,0.536-0.731,0.939-0.985,1.192
		l-0.178,0.179c-0.224,0.284-0.224,0.672-0.224,1.432v0.745h-1.416v-0.745c0-0.433,0-0.88,0.074-1.268
		c0.06-0.388,0.209-0.73,0.492-1.072c0.045-0.045,0.074-0.09,0.118-0.135l0.136-0.134c0.193-0.194,0.506-0.507,0.76-0.879
		c0.237-0.374,0.432-0.835,0.447-1.372c0-0.298-0.074-0.701-0.21-1.014c-0.133-0.312-0.356-0.552-0.714-0.552
		c-0.136,0-0.373-0.015-0.567,0.194c-0.193,0.209-0.357,0.626-0.357,1.445v0.701h-1.401v-0.701c0-1.803,0.775-3.04,2.326-3.04
		c0.76,0,1.401,0.356,1.817,1.028c0.313,0.507,0.492,1.132,0.507,1.878H444.77z M442.728,482.11h-1.401v-1.58h1.401V482.11z"/>
</g>
<g>
	<path fill="#FFFFFF" d="M442.701,522.128c-7.465,0-13.536-6.072-13.536-13.535s6.071-13.535,13.536-13.535
		c7.463,0,13.535,6.072,13.535,13.535S450.164,522.128,442.701,522.128z M442.701,498.785c-5.408,0-9.809,4.399-9.809,9.808
		s4.4,9.808,9.809,9.808s9.809-4.399,9.809-9.808S448.109,498.785,442.701,498.785z"/>
</g>
<g>
	<path fill="#FFFFFF" d="M444.77,505.654v0.135h-0.016c-0.015,0.789-0.298,1.46-0.625,1.982c-0.329,0.536-0.731,0.938-0.985,1.191
		l-0.178,0.18c-0.224,0.283-0.224,0.67-0.224,1.431v0.745h-1.416v-0.745c0-0.433,0-0.879,0.074-1.267
		c0.06-0.388,0.209-0.73,0.492-1.074c0.045-0.044,0.074-0.089,0.118-0.134l0.136-0.135c0.193-0.192,0.506-0.506,0.76-0.879
		c0.237-0.373,0.432-0.835,0.447-1.37c0-0.3-0.074-0.701-0.21-1.015c-0.133-0.313-0.356-0.552-0.714-0.552
		c-0.136,0-0.373-0.015-0.567,0.194c-0.193,0.208-0.357,0.626-0.357,1.446v0.7h-1.401v-0.7c0-1.805,0.775-3.041,2.326-3.041
		c0.76,0,1.401,0.357,1.817,1.028c0.313,0.506,0.492,1.133,0.507,1.878H444.77z M442.728,513.733h-1.401v-1.58h1.401V513.733z"/>
</g>
<g>
	<path fill="#FFFFFF" d="M442.701,551.852c-7.465,0-13.536-6.071-13.536-13.535c0-7.463,6.071-13.534,13.536-13.534
		c7.463,0,13.535,6.071,13.535,13.534C456.236,545.78,450.164,551.852,442.701,551.852z M442.701,528.509
		c-5.408,0-9.809,4.399-9.809,9.808s4.4,9.809,9.809,9.809s9.809-4.4,9.809-9.809S448.109,528.509,442.701,528.509z"/>
</g>
<g>
	<path fill="#FFFFFF" d="M444.77,535.378v0.135h-0.016c-0.015,0.789-0.298,1.461-0.625,1.982c-0.329,0.536-0.731,0.938-0.985,1.192
		l-0.178,0.179c-0.224,0.283-0.224,0.671-0.224,1.432v0.744h-1.416v-0.744c0-0.434,0-0.88,0.074-1.268
		c0.06-0.387,0.209-0.73,0.492-1.074c0.045-0.044,0.074-0.088,0.118-0.133l0.136-0.136c0.193-0.192,0.506-0.506,0.76-0.879
		c0.237-0.372,0.432-0.835,0.447-1.37c0-0.299-0.074-0.701-0.21-1.015c-0.133-0.313-0.356-0.552-0.714-0.552
		c-0.136,0-0.373-0.015-0.567,0.194c-0.193,0.209-0.357,0.626-0.357,1.446v0.7h-1.401v-0.7c0-1.804,0.775-3.041,2.326-3.041
		c0.76,0,1.401,0.357,1.817,1.028c0.313,0.507,0.492,1.133,0.507,1.878H444.77z M442.728,543.457h-1.401v-1.58h1.401V543.457z"/>
</g>
<line fill="none" stroke="#E2E2E2" stroke-miterlimit="10" x1="399.086" y1="435.263" x2="399.086" y2="455.76"/>
<path fill="#FFFFFF" d="M418.999,484.44c0,2.32-0.853,4.201-1.903,4.201h-49.135c-1.051,0-1.903-1.881-1.903-4.201v-12.095
	c0-2.321,0.853-4.201,1.903-4.201h49.135c1.051,0,1.903,1.88,1.903,4.201V484.44z"/>
<polygon fill="#2D9E90" points="414.93,475.304 408.75,481.482 402.569,475.304 "/>
<line fill="none" stroke="#E2E2E2" stroke-miterlimit="10" x1="399.086" y1="468.145" x2="399.086" y2="488.642"/>
<path fill="#FFFFFF" d="M418.999,514.64c0,2.32-0.853,4.201-1.903,4.201h-49.135c-1.051,0-1.903-1.881-1.903-4.201v-12.095
	c0-2.32,0.853-4.2,1.903-4.2h49.135c1.051,0,1.903,1.88,1.903,4.2V514.64z"/>
<polygon fill="#2D9E90" points="414.93,505.503 408.75,511.683 402.569,505.503 "/>
<line fill="none" stroke="#E2E2E2" stroke-miterlimit="10" x1="399.086" y1="498.345" x2="399.086" y2="518.841"/>
<path fill="#FFFFFF" d="M418.999,544.364c0,2.319-0.853,4.2-1.903,4.2h-49.135c-1.051,0-1.903-1.881-1.903-4.2V532.27
	c0-2.321,0.853-4.201,1.903-4.201h49.135c1.051,0,1.903,1.88,1.903,4.201V544.364z"/>
<polygon fill="#2D9E90" points="414.93,535.227 408.75,541.406 402.569,535.227 "/>
<line fill="none" stroke="#E2E2E2" stroke-miterlimit="10" x1="399.086" y1="528.068" x2="399.086" y2="548.564"/>
<path fill="#FFFFFF" d="M273.532,485.022c0,0-2.037-0.632-2.037-2.204s-0.026-11.794-0.026-11.794l0.168-0.219l-1.032-1.083
	c0,0-0.174-0.265,0.065-0.503c0.238-0.238,2.294-2.307,2.294-2.307s0.258-0.399,0.748,0.091s0.786,0.812,0.786,0.812l0.116-0.129
	h1.418c0,0,0.38-0.02,1.172-0.812c0.793-0.793,1.199-1.044,1.199-1.044s0.722-0.606,1.611-0.606s3.402,0,3.402,0
	s2.076,0.451,2.076,2.205c0,1.752,0,15.415,0,15.415s-0.529,2.178-2.256,2.178S273.532,485.022,273.532,485.022z"/>
<path fill="#2D9E90" d="M282.3,473.396c0.121,0.121,0.121,0.317,0,0.438l-7.137,7.137c-0.12,0.12-0.317,0.12-0.437,0l0,0
	c-0.121-0.12-0.121-0.317,0-0.438l7.136-7.137C281.983,473.276,282.179,473.276,282.3,473.396L282.3,473.396z"/>
<path fill="#2D9E90" d="M274.727,473.396c0.12-0.12,0.317-0.12,0.437,0l7.137,7.137c0.121,0.12,0.121,0.317,0,0.438l0,0
	c-0.122,0.121-0.317,0.121-0.438,0l-7.136-7.137C274.605,473.714,274.605,473.518,274.727,473.396L274.727,473.396z"/>
<path fill="#2D9E90" d="M283.424,467.323c0,0.171-0.044,0.31-0.098,0.31h-3.169c-0.053,0-0.097-0.139-0.097-0.31l0,0
	c0-0.171,0.043-0.31,0.097-0.31h3.169C283.38,467.014,283.424,467.152,283.424,467.323L283.424,467.323z"/>
<path fill="#FFFFFF" d="M281.557,497.224h-7.08v2.69c0,0-3.479-0.215-4.162,2.422v10.575c0,0,1.148,3.229,3.773,3.27l0.264,0.632
	h7.638l0.404-0.484l0.962-0.107c0,0,3.354-1.023,3.354-2.799s0-11.032,0-11.032s-1.987-3.336-4.223-3.336c-2.236,0,0,0.215,0,0.215
	v-2.045H281.557z"/>
<path fill="#2D9E90" d="M277.707,504.111c0,0,0.59,0.323,0.807,0.242c0.217-0.08,0.434-0.511,0.434-0.511l-1.024-1.804
	c0,0-1.895,3.229-2.857,3.93c-0.963,0.699-2.144,2.098-1.926,2.879c0.217,0.78,1.304,2.503,2.422,2.664s1.708,0,1.708,0
	s0.187-0.135,0.187-0.512s-0.651-0.564-0.651-0.564s-1.243-0.188-1.367-1.185c-0.124-0.995-0.032-1.488,0.466-2.438
	C276.402,505.86,277.707,504.111,277.707,504.111z"/>
<path fill="#2D9E90" d="M280.283,503.843c0,0-1.708,2.071-1.335,2.502s0.932,0.297,0.932,0.297s2.081,1.856,1.957,2.637
	s-2.112,1.802-2.112,1.802s1.149,0.458,1.615,0.162c0.465-0.296,2.081-1.129,1.397-2.717c0,0-1.459-1.965-1.646-2.234
	C280.904,506.022,279.818,504.892,280.283,503.843z"/>
<path fill="#2D9E90" d="M277.457,506.722c0,0-1.086,1.884-0.962,2.342c0.125,0.457,0.477,0.887,0.477,0.887l0.983-1.345l0.993,0.673
	c0,0,0.932,0.215,0.932-0.108c0-0.322-0.684-0.753-0.932-1.13c-0.248-0.376-0.766-1.318-0.766-1.318
	S277.718,506.247,277.457,506.722z"/>
<path fill="#FFFFFF" stroke="#FFFFFF" stroke-miterlimit="10" d="M277.896,523.88c0,0-3.25,6.5-4.452,8.01
	c-1.204,1.51-3.25,6.986-0.154,9.494c3.097,2.508,5.297,2.303,6.884,1.638c1.586-0.665,5.63-2.969,3.686-8.138
	c-1.946-5.17-3.071-5.118-3.993-7.166C278.946,525.671,277.974,524.544,277.896,523.88z"/>
<path fill="#2D9E90" d="M274.135,537.597c0,0,0.152-0.641-0.596-0.641c-0.749,0-0.518,0.641-0.518,0.641s0.403,4.178,3.877,4.178
	c0,0,0.998,0.308,0.998-0.614c0-0.921-0.94-0.519-0.94-0.519S274.518,540.598,274.135,537.597z"/>
<path fill="#FFFFFF" d="M372.428,581.66c0,2.745-1.311,4.969-2.926,4.969h-96.846c-1.616,0-2.926-2.224-2.926-4.969v-11.18
	c0-2.744,1.31-4.969,2.926-4.969h96.846c1.615,0,2.926,2.225,2.926,4.969V581.66z"/>
<path fill="#FFFFFF" d="M448.682,581.66c0,2.745-0.768,4.969-1.715,4.969h-56.753c-0.948,0-1.716-2.224-1.716-4.969v-11.18
	c0-2.744,0.768-4.969,1.716-4.969h56.753c0.947,0,1.715,2.225,1.715,4.969V581.66z"/>
<g>
	<path fill="#2D9E90" d="M408.488,574.768c0-0.646,0.14-1.153,0.418-1.512c0.209-0.268,0.606-0.576,1.321-0.576
		c0.716,0,1.104,0.309,1.312,0.576c0.288,0.368,0.428,0.865,0.428,1.512v0.466h-0.945v-0.466c0-0.566-0.128-0.876-0.287-1.015
		c-0.169-0.139-0.378-0.139-0.508-0.139c-0.148,0-0.338,0-0.507,0.139c-0.168,0.139-0.298,0.448-0.298,1.015v3.141
		c0,0.427,0.079,0.745,0.229,0.934c0.03,0.05,0.09,0.1,0.179,0.149c0.09,0.05,0.22,0.079,0.397,0.079
		c0.358,0,0.497-0.139,0.577-0.229c0.148-0.198,0.218-0.507,0.218-0.934v-0.468h0.945v0.468c0,0.646-0.14,1.142-0.428,1.511
		c-0.209,0.268-0.597,0.586-1.312,0.586c-0.356,0-0.625-0.079-0.844-0.199c-0.219-0.108-0.368-0.258-0.478-0.387
		c-0.278-0.358-0.418-0.865-0.418-1.511V574.768z"/>
	<path fill="#2D9E90" d="M415.048,577.957h-1.272l-0.467,2.048h-0.964l1.689-7.325h0.746l1.709,7.325h-0.974L415.048,577.957z
		 M413.994,577.023h0.835l-0.417-1.799L413.994,577.023z"/>
	<path fill="#2D9E90" d="M419.411,579.995l-1.789-4.434v4.434h-0.935v-7.325h0.785l1.789,4.433v-4.433h0.944v7.325H419.411z"/>
	<path fill="#2D9E90" d="M420.912,574.768c0-0.646,0.139-1.153,0.416-1.512c0.209-0.268,0.607-0.576,1.322-0.576
		c0.716,0,1.104,0.309,1.312,0.576c0.288,0.368,0.427,0.865,0.427,1.512v0.466h-0.943v-0.466c0-0.566-0.13-0.876-0.289-1.015
		c-0.168-0.139-0.378-0.139-0.507-0.139c-0.149,0-0.337,0-0.506,0.139c-0.17,0.139-0.3,0.448-0.3,1.015v3.141
		c0,0.427,0.08,0.745,0.229,0.934c0.03,0.05,0.089,0.1,0.179,0.149s0.219,0.079,0.397,0.079c0.358,0,0.498-0.139,0.577-0.229
		c0.149-0.198,0.219-0.507,0.219-0.934v-0.468h0.943v0.468c0,0.646-0.139,1.142-0.427,1.511c-0.209,0.268-0.597,0.586-1.312,0.586
		c-0.357,0-0.626-0.079-0.845-0.199c-0.218-0.108-0.368-0.258-0.478-0.387c-0.277-0.358-0.416-0.865-0.416-1.511V574.768z"/>
	<path fill="#2D9E90" d="M427.799,572.68v0.935h-2.097v2.257h2.097v0.934h-2.097v2.266h2.097v0.935h-3.031v-7.325H427.799z"/>
	<path fill="#2D9E90" d="M431.654,579.995h-3.19v-7.325h0.935v6.391h2.256V579.995z"/>
</g>
<g>
	<path fill="#2D9E90" d="M276.632,577.451h0.935v0.466c0,0.428,0.079,0.736,0.228,0.925c0.03,0.05,0.089,0.09,0.179,0.14
		c0.089,0.05,0.219,0.079,0.408,0.079c0.358,0,0.556-0.179,0.676-0.397c0.109-0.219,0.129-0.498,0.129-0.695
		c0-0.348-0.12-0.577-0.288-0.746c-0.169-0.159-0.397-0.269-0.606-0.357l-0.179-0.079c-0.208-0.09-0.566-0.239-0.885-0.548
		c-0.397-0.387-0.596-0.874-0.596-1.47c0-0.627,0.169-1.153,0.487-1.521c0.308-0.357,0.746-0.576,1.263-0.576
		c0.715,0,1.113,0.308,1.322,0.576c0.288,0.368,0.427,0.875,0.427,1.521v0.466h-0.944v-0.466c0-0.566-0.129-0.876-0.298-1.015
		c-0.169-0.139-0.377-0.139-0.506-0.139c-0.388,0-0.577,0.208-0.686,0.467c-0.119,0.259-0.129,0.557-0.129,0.687
		c0,0.348,0.12,0.575,0.288,0.755c0.169,0.179,0.398,0.308,0.636,0.397l0.16,0.069c0.188,0.079,0.546,0.209,0.864,0.517
		c0.408,0.378,0.616,0.865,0.616,1.462c0,1.122-0.626,2.027-1.749,2.027c-1.164,0-1.75-0.766-1.75-2.078V577.451z"/>
	<path fill="#2D9E90" d="M283.281,577.957h-1.272l-0.467,2.048h-0.964l1.688-7.325h0.746l1.709,7.325h-0.974L283.281,577.957z
		 M282.227,577.023h0.835l-0.417-1.799L282.227,577.023z"/>
	<path fill="#2D9E90" d="M287.107,577.59l1.242-4.92h0.965l-1.839,7.325h-0.735l-1.819-7.325h0.964L287.107,577.59z"/>
	<path fill="#2D9E90" d="M292.533,572.68v0.935h-2.097v2.257h2.097v0.934h-2.097v2.266h2.097v0.935h-3.031v-7.325H292.533z"/>
	<path fill="#2D9E90" d="M298.963,577.957h-1.272l-0.467,2.048h-0.964l1.69-7.325h0.745l1.71,7.325h-0.975L298.963,577.957z
		 M297.91,577.023h0.835l-0.417-1.799L297.91,577.023z"/>
	<path fill="#2D9E90" d="M303.327,579.995l-1.789-4.434v4.434h-0.935v-7.325h0.785l1.789,4.433v-4.433h0.945v7.325H303.327z"/>
	<path fill="#2D9E90" d="M304.827,580.005v-7.325h1.461c1.262,0,1.858,0.775,1.858,2.117v3.081c0,1.342-0.597,2.127-1.858,2.127
		H304.827z M305.761,573.614v5.456h0.527c0.238,0,0.467-0.029,0.637-0.188c0.158-0.159,0.277-0.457,0.277-1.004v-3.081
		c0-0.547-0.119-0.845-0.277-1.004c-0.17-0.159-0.398-0.179-0.637-0.179H305.761z"/>
	<path fill="#2D9E90" d="M311.784,574.768c0-0.646,0.139-1.153,0.417-1.512c0.209-0.268,0.606-0.576,1.321-0.576
		c0.717,0,1.104,0.309,1.313,0.576c0.288,0.368,0.427,0.865,0.427,1.512v0.466h-0.944v-0.466c0-0.566-0.129-0.876-0.288-1.015
		c-0.169-0.139-0.378-0.139-0.508-0.139c-0.148,0-0.338,0-0.506,0.139c-0.169,0.139-0.299,0.448-0.299,1.015v3.141
		c0,0.427,0.08,0.745,0.229,0.934c0.03,0.05,0.09,0.1,0.18,0.149s0.219,0.079,0.396,0.079c0.359,0,0.498-0.139,0.576-0.229
		c0.15-0.198,0.22-0.507,0.22-0.934v-0.468h0.944v0.468c0,0.646-0.139,1.142-0.427,1.511c-0.21,0.268-0.597,0.586-1.313,0.586
		c-0.356,0-0.625-0.079-0.844-0.199c-0.219-0.108-0.368-0.258-0.478-0.387c-0.278-0.358-0.417-0.865-0.417-1.511V574.768z"/>
	<path fill="#2D9E90" d="M315.64,574.757c0-0.646,0.14-1.153,0.418-1.511c0.109-0.13,0.259-0.269,0.477-0.388
		c0.219-0.108,0.488-0.188,0.846-0.188c0.716,0,1.112,0.308,1.32,0.576c0.279,0.357,0.419,0.864,0.419,1.511v3.151
		c0,0.646-0.14,1.152-0.419,1.511c-0.208,0.268-0.604,0.576-1.32,0.576c-0.707,0-1.113-0.309-1.322-0.576
		c-0.278-0.358-0.418-0.865-0.418-1.511V574.757z M316.574,577.908c0,0.586,0.13,0.864,0.298,1.003
		c0.169,0.139,0.358,0.149,0.508,0.149c0.129,0,0.338-0.011,0.506-0.149c0.169-0.139,0.298-0.417,0.298-1.003v-3.151
		c0-0.566-0.129-0.865-0.298-1.004c-0.168-0.139-0.377-0.139-0.506-0.139c-0.149,0-0.339,0-0.508,0.139
		c-0.168,0.139-0.298,0.438-0.298,1.004V577.908z"/>
	<path fill="#2D9E90" d="M322.388,579.995l-1.788-4.434v4.434h-0.936v-7.325h0.786l1.789,4.433v-4.433h0.943v7.325H322.388z"/>
	<path fill="#2D9E90" d="M323.889,572.67h4.146v0.944h-1.602v6.381h-0.943v-6.381h-1.601V572.67z"/>
	<path fill="#2D9E90" d="M329.703,580.005h-0.935v-7.325h0.935V580.005z"/>
	<path fill="#2D9E90" d="M330.479,572.67h0.933v5.377c0,0.507,0.11,0.766,0.26,0.885c0.148,0.129,0.317,0.129,0.447,0.129
		c0.129,0,0.297,0,0.446-0.129c0.15-0.119,0.259-0.378,0.259-0.885v-5.377h0.935v5.377c0,0.606-0.129,1.073-0.397,1.401
		c-0.199,0.269-0.577,0.547-1.242,0.547c-0.667,0-1.044-0.278-1.243-0.547c-0.268-0.328-0.396-0.795-0.396-1.401V572.67z"/>
	<path fill="#2D9E90" d="M337.227,579.995l-1.789-4.434v4.434h-0.935v-7.325h0.785l1.788,4.433v-4.433h0.945v7.325H337.227z"/>
	<path fill="#2D9E90" d="M341.758,572.68v0.935h-2.098v2.257h2.098v0.934h-2.098v2.266h2.098v0.935h-3.031v-7.325H341.758z"/>
	<path fill="#2D9E90" d="M348.675,579.995h-3.19v-7.325h0.935v6.391h2.256V579.995z"/>
	<path fill="#2D9E90" d="M351.726,577.957h-1.271l-0.467,2.048h-0.964l1.688-7.325h0.745l1.71,7.325h-0.974L351.726,577.957z
		 M350.672,577.023h0.835l-0.417-1.799L350.672,577.023z"/>
	<path fill="#2D9E90" d="M353.366,572.67h4.144v0.944h-1.6v6.381h-0.944v-6.381h-1.6V572.67z"/>
	<path fill="#2D9E90" d="M360.979,572.68v0.935h-2.098v2.257h2.098v0.934h-2.098v2.266h2.098v0.935h-3.032v-7.325H360.979z"/>
	<path fill="#2D9E90" d="M365.043,579.995H364.1v-2.167c0-0.646-0.309-0.964-0.935-0.964h-0.586v3.131h-0.935v-7.325h1.521
		c1.262,0,1.858,0.726,1.858,2.087c0,0.677-0.149,1.193-0.438,1.541c-0.01,0.01-0.029,0.03-0.039,0.049
		c-0.021,0.021-0.04,0.04-0.061,0.051c0.358,0.348,0.557,0.824,0.557,1.431V579.995z M362.579,575.92h0.586
		c0.248,0,0.428-0.03,0.526-0.09c0.09-0.06,0.149-0.109,0.179-0.14c0.149-0.188,0.219-0.496,0.219-0.934
		c0-0.487-0.079-0.775-0.228-0.944c-0.16-0.159-0.389-0.198-0.696-0.198h-0.586V575.92z"/>
</g>
<g>
	<path fill="#FFFFFF" d="M334.521,122.463c0,5.322-1.618,9.524-4.856,12.606c-3.237,3.081-7.54,4.623-12.905,4.623h-58.14
		c-5.366,0-9.667-1.542-12.904-4.623c-3.238-3.082-4.856-7.284-4.856-12.606c0-2.35,0.078-4.645,0.233-6.886
		c0.155-2.239,0.466-4.657,0.931-7.249c0.466-2.596,1.054-5.001,1.764-7.217c0.709-2.22,1.663-4.381,2.86-6.488
		c1.197-2.104,2.571-3.899,4.125-5.387c1.55-1.485,3.447-2.671,5.687-3.56c2.239-0.887,4.711-1.33,7.418-1.33
		c0.399,0,1.331,0.477,2.794,1.43c1.463,0.955,3.113,2.019,4.955,3.192c1.839,1.176,4.235,2.239,7.185,3.194
		c2.949,0.955,5.91,1.43,8.881,1.43c2.97,0,5.931-0.476,8.88-1.43s5.344-2.018,7.185-3.194c1.838-1.173,3.492-2.238,4.955-3.192
		c1.465-0.953,2.396-1.43,2.793-1.43c2.705,0,5.179,0.443,7.418,1.33c2.238,0.888,4.135,2.075,5.688,3.56
		c1.552,1.487,2.926,3.282,4.123,5.387c1.198,2.107,2.151,4.269,2.861,6.488c0.709,2.216,1.297,4.622,1.763,7.217
		c0.466,2.592,0.775,5.01,0.931,7.249C334.442,117.819,334.521,120.114,334.521,122.463z M305.751,45
		c4.988,4.989,7.483,11.009,7.483,18.061c0,7.051-2.495,13.071-7.483,18.061c-4.991,4.989-11.011,7.483-18.061,7.483
		c-7.051,0-13.072-2.494-18.06-7.483c-4.99-4.989-7.485-11.01-7.485-18.061c0-7.052,2.495-13.071,7.485-18.061
		c4.988-4.989,11.009-7.484,18.06-7.484C294.74,37.515,300.76,40.01,305.751,45z"/>
</g>
<g>
	<path fill="#FFFFFF" d="M287.69,169.977c-42.249,0-76.621-34.372-76.621-76.62c0-42.248,34.372-76.62,76.621-76.62
		s76.619,34.372,76.619,76.62C364.309,135.605,329.938,169.977,287.69,169.977z M287.69,25.019
		c-37.683,0-68.338,30.656-68.338,68.338s30.656,68.338,68.338,68.338c37.681,0,68.337-30.656,68.337-68.338
		S325.371,25.019,287.69,25.019z"/>
</g>
<g>
	<path fill="#FFFFFF" d="M107.624,511.158c-42.249,0-76.62-34.371-76.62-76.619c0-42.249,34.372-76.62,76.62-76.62
		s76.62,34.371,76.62,76.62C184.244,476.787,149.872,511.158,107.624,511.158z M107.624,366.201
		c-37.682,0-68.338,30.655-68.338,68.338c0,37.682,30.657,68.338,68.338,68.338s68.338-30.656,68.338-68.338
		C175.962,396.856,145.305,366.201,107.624,366.201z"/>
</g>
<g>
	<path fill="#FFFFFF" d="M162.093,431.479l-4.279,5.105c-0.366,0.416-0.849,0.668-1.447,0.759h-0.207
		c-0.599,0-1.081-0.161-1.451-0.48l-47.75-39.819l-47.754,39.819c-0.555,0.367-1.106,0.526-1.658,0.48
		c-0.599-0.091-1.081-0.343-1.451-0.759l-4.28-5.105c-0.366-0.46-0.528-0.999-0.479-1.621c0.045-0.619,0.3-1.114,0.761-1.482
		l49.614-41.337c1.473-1.196,3.219-1.795,5.246-1.795c2.024,0,3.771,0.6,5.244,1.795l16.835,14.077v-13.459
		c0-0.64,0.209-1.169,0.624-1.584c0.413-0.414,0.942-0.622,1.588-0.622h13.247c0.647,0,1.174,0.208,1.587,0.622
		c0.413,0.415,0.621,0.945,0.621,1.584v28.158l15.116,12.562c0.456,0.368,0.711,0.863,0.756,1.482
		C162.622,430.479,162.462,431.019,162.093,431.479z M146.705,436.242v33.123c0,1.196-0.436,2.232-1.311,3.104
		c-0.876,0.874-1.909,1.312-3.104,1.312h-26.498v-26.501H98.124v26.501h-26.5c-1.196,0-2.234-0.438-3.104-1.312
		c-0.874-0.871-1.312-1.907-1.312-3.104v-33.123c0-0.045,0.008-0.115,0.035-0.207c0.022-0.094,0.033-0.162,0.033-0.21l39.683-32.709
		l39.68,32.709C146.682,435.92,146.705,436.058,146.705,436.242z"/>
</g>
<g>
	<path fill="#FFFFFF" d="M255.843,188.418h2.335v1.167c0,1.068,0.199,1.838,0.572,2.311c0.075,0.124,0.224,0.223,0.447,0.348
		c0.223,0.124,0.546,0.198,1.019,0.198c0.895,0,1.392-0.447,1.69-0.994c0.273-0.546,0.323-1.242,0.323-1.739
		c0-0.87-0.299-1.441-0.721-1.863c-0.422-0.398-0.995-0.671-1.516-0.895l-0.448-0.199c-0.522-0.224-1.416-0.596-2.211-1.367
		c-0.993-0.969-1.491-2.186-1.491-3.677c0-1.565,0.422-2.882,1.218-3.801c0.77-0.895,1.863-1.441,3.155-1.441
		c1.789,0,2.783,0.77,3.304,1.441c0.72,0.919,1.068,2.186,1.068,3.801v1.167h-2.359v-1.167c0-1.417-0.323-2.187-0.746-2.534
		c-0.422-0.348-0.945-0.348-1.268-0.348c-0.969,0-1.441,0.522-1.714,1.168c-0.299,0.646-0.324,1.391-0.324,1.714
		c0,0.869,0.299,1.441,0.721,1.888c0.422,0.447,0.994,0.77,1.59,0.994l0.398,0.174c0.472,0.199,1.367,0.521,2.161,1.292
		c1.019,0.944,1.54,2.162,1.54,3.652c0,2.808-1.565,5.068-4.373,5.068c-2.907,0-4.373-1.913-4.373-5.193V188.418z"/>
	<path fill="#FFFFFF" d="M268.787,194.803h-2.336v-18.311h2.336V194.803z"/>
	<path fill="#FFFFFF" d="M270.725,181.685c0-3.28,1.466-5.193,4.348-5.193c2.907,0,4.373,1.913,4.373,5.193v1.168h-2.36v-1.168
		c0-1.317-0.249-2.038-0.621-2.435c-0.397-0.373-0.894-0.422-1.392-0.422c-0.497,0-0.993,0.05-1.366,0.422
		c-0.397,0.397-0.646,1.118-0.646,2.435v7.9c0,1.466,0.323,2.162,0.746,2.509c0.422,0.348,0.894,0.373,1.266,0.373
		s0.87-0.025,1.292-0.373c0.398-0.348,0.72-1.043,0.72-2.509v-1.391h-2.832v-2.36h5.192v3.751c0,1.64-0.348,2.907-1.068,3.777
		c-0.521,0.67-1.515,1.441-3.304,1.441c-1.764,0-2.758-0.771-3.279-1.441c-0.721-0.87-1.068-2.137-1.068-3.777V181.685z"/>
	<path fill="#FFFFFF" d="M287.794,194.778l-4.472-11.082v11.082h-2.335v-18.311h1.963l4.472,11.081v-11.081h2.361v18.311H287.794z"
		/>
	<path fill="#FFFFFF" d="M299.198,176.467h2.336v13.441c0,1.267,0.273,1.913,0.646,2.211c0.372,0.323,0.794,0.323,1.117,0.323
		c0.324,0,0.746,0,1.118-0.323c0.373-0.298,0.646-0.944,0.646-2.211v-13.441h2.335v13.441c0,1.515-0.323,2.683-0.993,3.503
		c-0.498,0.67-1.441,1.366-3.106,1.366c-1.664,0-2.608-0.696-3.105-1.366c-0.67-0.82-0.994-1.988-0.994-3.503V176.467z"/>
	<path fill="#FFFFFF" d="M311.597,186.803v7.976h-2.336v-18.311h3.801c3.106,0,4.671,1.863,4.671,5.143
		c0,3.354-1.515,5.192-4.671,5.192H311.597z M311.597,178.828v5.615h1.465c0.646,0,1.094-0.075,1.317-0.224
		c0.224-0.149,0.373-0.273,0.446-0.348c0.373-0.373,0.547-1.144,0.547-2.261c0-1.193-0.199-1.889-0.57-2.286
		c-0.398-0.398-0.97-0.497-1.74-0.497H311.597z"/>
</g>
<g>
	<path fill="#FFFFFF" d="M83.642,526.93v-7.975h2.36v18.311h-2.36v-7.975h-3.528v7.975h-2.335v-18.311h2.335v7.975H83.642z"/>
	<path fill="#FFFFFF" d="M87.94,524.147c0-1.615,0.348-2.883,1.044-3.776c0.273-0.322,0.646-0.671,1.192-0.969
		c0.546-0.273,1.217-0.472,2.112-0.472c1.789,0,2.783,0.77,3.305,1.44c0.695,0.894,1.043,2.161,1.043,3.776v7.876
		c0,1.615-0.348,2.882-1.043,3.776c-0.521,0.67-1.516,1.441-3.305,1.441c-1.764,0-2.783-0.771-3.304-1.441
		c-0.696-0.895-1.044-2.161-1.044-3.776V524.147z M90.276,532.023c0,1.466,0.323,2.161,0.745,2.509s0.895,0.373,1.267,0.373
		c0.323,0,0.845-0.025,1.267-0.373s0.746-1.043,0.746-2.509v-7.876c0-1.416-0.323-2.161-0.746-2.51
		c-0.422-0.348-0.944-0.348-1.267-0.348c-0.373,0-0.845,0-1.267,0.348c-0.422,0.349-0.745,1.094-0.745,2.51V532.023z"/>
	<path fill="#FFFFFF" d="M98.003,518.931h2.335v13.44c0,1.268,0.273,1.913,0.646,2.211c0.373,0.323,0.795,0.323,1.118,0.323
		c0.323,0,0.746,0,1.118-0.323c0.373-0.298,0.646-0.943,0.646-2.211v-13.44h2.335v13.44c0,1.515-0.323,2.683-0.994,3.503
		c-0.497,0.671-1.441,1.367-3.106,1.367c-1.665,0-2.608-0.696-3.105-1.367c-0.67-0.82-0.994-1.988-0.994-3.503V518.931z"/>
	<path fill="#FFFFFF" d="M108.066,530.881h2.335v1.167c0,1.068,0.199,1.838,0.571,2.311c0.075,0.125,0.224,0.224,0.447,0.348
		c0.224,0.125,0.547,0.199,1.019,0.199c0.894,0,1.391-0.447,1.689-0.994c0.273-0.546,0.322-1.242,0.322-1.738
		c0-0.87-0.298-1.441-0.72-1.864c-0.423-0.397-0.994-0.67-1.516-0.894l-0.447-0.199c-0.522-0.224-1.417-0.597-2.211-1.367
		c-0.994-0.969-1.491-2.186-1.491-3.676c0-1.565,0.422-2.883,1.217-3.802c0.771-0.895,1.863-1.44,3.156-1.44
		c1.789,0,2.783,0.77,3.304,1.44c0.72,0.919,1.068,2.187,1.068,3.802v1.167h-2.361v-1.167c0-1.417-0.322-2.187-0.745-2.535
		c-0.422-0.348-0.944-0.348-1.267-0.348c-0.969,0-1.441,0.522-1.714,1.168c-0.298,0.646-0.323,1.392-0.323,1.715
		c0,0.869,0.298,1.441,0.721,1.888c0.422,0.446,0.994,0.77,1.59,0.994l0.397,0.173c0.472,0.2,1.366,0.522,2.161,1.293
		c1.019,0.943,1.541,2.161,1.541,3.652c0,2.808-1.565,5.068-4.373,5.068c-2.907,0-4.373-1.913-4.373-5.193V530.881z"/>
	<path fill="#FFFFFF" d="M121.01,537.266h-2.335v-18.311h2.335V537.266z"/>
	<path fill="#FFFFFF" d="M129.756,537.241l-4.472-11.082v11.082h-2.335v-18.311h1.963l4.472,11.08v-11.08h2.36v18.311H129.756z"/>
	<path fill="#FFFFFF" d="M133.508,524.147c0-3.279,1.466-5.192,4.348-5.192c2.907,0,4.373,1.913,4.373,5.192v1.168h-2.36v-1.168
		c0-1.317-0.248-2.037-0.621-2.436c-0.397-0.372-0.895-0.422-1.391-0.422c-0.497,0-0.994,0.05-1.367,0.422
		c-0.397,0.398-0.646,1.118-0.646,2.436v7.9c0,1.466,0.323,2.162,0.746,2.51s0.894,0.373,1.267,0.373
		c0.373,0,0.87-0.025,1.292-0.373c0.398-0.348,0.721-1.044,0.721-2.51v-1.391h-2.833v-2.36h5.193v3.751
		c0,1.641-0.348,2.906-1.068,3.776c-0.521,0.671-1.516,1.441-3.304,1.441c-1.764,0-2.758-0.771-3.28-1.441
		c-0.721-0.87-1.068-2.136-1.068-3.776V524.147z"/>
</g>
<polygon fill="#FFFFFF" points="292.919,315.202 284.829,323.292 276.738,315.202 "/>
<polygon fill="#FFFFFF" points="331.103,632.995 323.012,641.086 314.921,632.995 "/>
<g>
	<path fill="#FFFFFF" d="M566.16,62.842c0,1.842-0.561,3.297-1.682,4.364s-2.61,1.601-4.468,1.601h-20.13
		c-1.858,0-3.348-0.534-4.468-1.601c-1.121-1.067-1.682-2.522-1.682-4.364c0-0.813,0.026-1.608,0.081-2.384
		c0.054-0.775,0.161-1.612,0.322-2.51c0.162-0.898,0.364-1.731,0.61-2.499c0.245-0.768,0.575-1.516,0.99-2.246
		c0.414-0.729,0.89-1.351,1.429-1.866c0.536-0.514,1.193-0.925,1.969-1.232c0.774-0.307,1.63-0.46,2.567-0.46
		c0.139,0,0.461,0.166,0.968,0.496c0.506,0.331,1.078,0.699,1.715,1.105c0.638,0.407,1.467,0.776,2.488,1.106
		c1.021,0.33,2.045,0.495,3.074,0.495c1.028,0,2.054-0.166,3.075-0.495c1.021-0.33,1.85-0.699,2.487-1.106
		c0.637-0.406,1.209-0.774,1.716-1.105c0.507-0.33,0.829-0.496,0.968-0.496c0.936,0,1.793,0.154,2.567,0.46
		c0.774,0.308,1.432,0.718,1.969,1.232c0.537,0.515,1.014,1.137,1.428,1.866c0.415,0.729,0.745,1.478,0.992,2.246
		c0.245,0.768,0.447,1.601,0.608,2.499c0.162,0.898,0.269,1.735,0.323,2.51C566.133,61.233,566.16,62.028,566.16,62.842z
		 M556.198,36.022c1.728,1.727,2.592,3.812,2.592,6.253c0,2.441-0.864,4.525-2.592,6.253c-1.727,1.728-3.812,2.591-6.253,2.591
		c-2.44,0-4.525-0.863-6.252-2.591c-1.729-1.728-2.592-3.812-2.592-6.253c0-2.441,0.863-4.526,2.592-6.253
		c1.727-1.728,3.812-2.591,6.252-2.591C552.387,33.431,554.472,34.294,556.198,36.022z"/>
</g>
<g>
	<path fill="#FFFFFF" d="M561.985,143.475l-0.938,1.119c-0.081,0.091-0.187,0.146-0.318,0.166h-0.046
		c-0.13,0-0.236-0.035-0.316-0.105l-10.46-8.723l-10.462,8.723c-0.12,0.081-0.242,0.116-0.362,0.105
		c-0.132-0.02-0.236-0.075-0.318-0.166l-0.937-1.119c-0.08-0.101-0.116-0.219-0.105-0.355c0.01-0.136,0.064-0.245,0.166-0.326
		l10.869-9.054c0.323-0.262,0.706-0.394,1.149-0.394c0.442,0,0.825,0.131,1.148,0.394l3.688,3.083v-2.948
		c0-0.141,0.047-0.256,0.136-0.347c0.092-0.091,0.207-0.137,0.349-0.137h2.901c0.143,0,0.257,0.046,0.349,0.137
		c0.091,0.091,0.136,0.207,0.136,0.347v6.167l3.312,2.751c0.101,0.081,0.156,0.189,0.166,0.326
		C562.1,143.256,562.066,143.375,561.985,143.475z M558.613,144.519v7.256c0,0.262-0.095,0.489-0.287,0.68
		c-0.191,0.191-0.418,0.287-0.68,0.287h-5.806v-5.805h-3.869v5.805h-5.805c-0.263,0-0.489-0.096-0.681-0.287
		s-0.287-0.418-0.287-0.68v-7.256c0-0.01,0.002-0.025,0.007-0.045c0.006-0.021,0.007-0.036,0.007-0.046l8.694-7.166l8.691,7.166
		C558.607,144.448,558.613,144.479,558.613,144.519z"/>
</g>
<path fill="#FFFFFF" d="M540.474,102.236h-1.175c0,0-0.204,0.022-0.204-0.678s0-4.16,0-4.16s0.588-1.989,2.228-1.989h0.451
	l0.995-4.001c0,0,0.396-2.803,3.334-2.803s7.913,0.022,7.913,0.022s2.419-0.181,3.154,2.917l0.971,3.877
	c0,0,2.656-0.136,2.656,2.249c0,2.385,0,4.104,0,4.104s-0.011,0.418-0.485,0.418s-0.87-0.011-0.87-0.011v1.571
	c0,0-0.181,1.809-2,1.809c-1.821,0-2.059-1.797-2.059-1.797v-1.56l-10.84-0.012l-0.022,1.537c0,0-0.204,1.832-1.978,1.832
	c-1.775,0-2.069-1.865-2.069-1.865V102.236z"/>
<circle fill="#362E7C" cx="542.488" cy="98.754" r="1.673"/>
<circle fill="#362E7C" cx="557.373" cy="98.754" r="1.674"/>
<path fill="#362E7C" d="M555.383,95.409H544.43l0.983-3.561c0,0,0.034-0.509,0.917-0.509c0.88,0,7.188,0,7.188,0
	s0.849-0.305,1.052,0.916C554.772,93.476,555.383,95.409,555.383,95.409z"/>
<path fill="#FFFFFF" d="M544.969,228.373c0,0,0.128-1.716-1.229-1.716s-3.328,0-3.328,0s-0.721,0.191-0.721,0.858
	c0,0.667,0.764,0.858,0.764,0.858h2.775l2.332,10.937l-0.636,1.292c0,0-0.53,1.357,0.636,1.357s13.585,0,13.585,0
	s0.891-0.064,0.891-0.89c0-0.827-0.933-0.827-0.933-0.827h-12.103l0.339-0.763l-0.211-0.997l13.543-1.61c0,0,1.039,0.063,1.039-1.25
	s0-6.231,0-6.231s0.105-1.039-1.421-1.039C558.767,228.352,544.969,228.373,544.969,228.373z"/>
<circle fill="#FFFFFF" cx="546.538" cy="243.633" r="1.674"/>
<circle fill="#FFFFFF" cx="558.342" cy="243.633" r="1.674"/>
<path fill="#FFFFFF" d="M543.521,197.778l-0.018-8.842c0,0-1.412-0.59-1.412-1.912c0-1.321,0-7.163,0-7.163
	s-0.035-0.786,0.715-0.786c0.751,0,0.715,0.769,0.715,0.769v4.716c0,0,0.179,0.571,0.696,0.571c0.519,0,0.732-0.661,0.732-0.661
	v-4.644c0,0-0.018-0.75,0.715-0.75s0.679,0.715,0.679,0.715l0.002,4.751c0,0,0.231,0.661,0.66,0.661
	c0.695,0,0.785-0.697,0.785-0.697v-4.787c0,0-0.018-0.715,0.715-0.715c0.731,0,0.731,0.75,0.731,0.75v7.127
	c0,0-0.231,2.072-1.464,2.072l0.053,8.824c0,0-0.356,1.232-1.215,1.232c-0.857,0-2,0-2,0S543.521,198.707,543.521,197.778z"/>
<path fill="#FFFFFF" d="M557.801,197.7l-0.023-17.982c0,0-0.144-0.715-0.668-0.715c-0.523,0-3.524,0-3.524,0s-1.478,0.5-2.191,1.501
	c-0.715,1-0.691,1.691-0.691,1.691v9.408c0,0,0,0.31,0.5,0.31c0.501,0,2.312,0.024,2.312,0.024l-0.023,5.764
	c0,0,0.404,1.31,1.143,1.31s2.096,0,2.096,0S557.801,198.677,557.801,197.7z"/>
<rect x="540.465" y="273.209" fill="#FFFFFF" width="1.281" height="15.446"/>
<rect x="540.881" y="287.374" fill="#FFFFFF" width="20.06" height="1.282"/>
<rect x="544.214" y="280.901" fill="#FFFFFF" width="2.724" height="5.223"/>
<rect x="548.123" y="275.773" fill="#FFFFFF" width="2.66" height="10.351"/>
<rect x="552.033" y="278.273" fill="#FFFFFF" width="2.596" height="7.851"/>
<rect x="555.879" y="274.492" fill="#FFFFFF" width="2.53" height="11.632"/>
<g>
	<path fill="#FFFFFF" d="M569.835,399.046c0,1.196-0.363,2.141-1.092,2.833c-0.728,0.692-1.694,1.04-2.9,1.04h-13.067
		c-1.208,0-2.175-0.348-2.9-1.04c-0.729-0.692-1.092-1.637-1.092-2.833c0-0.528,0.018-1.044,0.053-1.547
		c0.033-0.504,0.104-1.047,0.208-1.63c0.104-0.584,0.236-1.124,0.396-1.623c0.158-0.499,0.374-0.984,0.643-1.458
		c0.27-0.473,0.578-0.876,0.927-1.211c0.35-0.334,0.775-0.6,1.28-0.799c0.501-0.2,1.058-0.3,1.666-0.3
		c0.09,0,0.298,0.106,0.628,0.321c0.329,0.214,0.7,0.454,1.114,0.717c0.412,0.266,0.95,0.504,1.614,0.719
		c0.663,0.215,1.329,0.321,1.996,0.321c0.668,0,1.333-0.106,1.996-0.321s1.201-0.453,1.615-0.719
		c0.412-0.263,0.785-0.503,1.113-0.717c0.329-0.215,0.539-0.321,0.629-0.321c0.607,0,1.163,0.1,1.666,0.3
		c0.504,0.199,0.929,0.465,1.279,0.799c0.349,0.335,0.658,0.738,0.927,1.211c0.27,0.474,0.483,0.959,0.644,1.458
		c0.158,0.499,0.291,1.039,0.395,1.623c0.105,0.583,0.175,1.126,0.21,1.63C569.817,398.002,569.835,398.518,569.835,399.046z
		 M563.369,381.634c1.121,1.122,1.682,2.475,1.682,4.059c0,1.585-0.561,2.938-1.682,4.06c-1.123,1.121-2.476,1.681-4.061,1.681
		c-1.584,0-2.938-0.561-4.06-1.681c-1.121-1.122-1.683-2.475-1.683-4.06c0-1.584,0.562-2.938,1.683-4.059s2.476-1.682,4.06-1.682
		C560.894,379.952,562.246,380.513,563.369,381.634z"/>
</g>
<g>
	<path fill="#FFFFFF" d="M579.414,474.054l-1.496,1.783c-0.127,0.145-0.296,0.233-0.506,0.266h-0.072
		c-0.208,0-0.377-0.057-0.506-0.169l-16.682-13.91l-16.681,13.91c-0.194,0.129-0.388,0.185-0.58,0.169
		c-0.208-0.032-0.377-0.121-0.506-0.266l-1.495-1.783c-0.128-0.161-0.186-0.35-0.168-0.566c0.016-0.217,0.104-0.39,0.266-0.519
		l17.332-14.44c0.515-0.418,1.124-0.627,1.832-0.627s1.318,0.209,1.833,0.627l5.881,4.918v-4.702c0-0.223,0.073-0.408,0.217-0.553
		c0.146-0.146,0.33-0.217,0.555-0.217h4.628c0.226,0,0.411,0.071,0.555,0.217c0.146,0.145,0.217,0.33,0.217,0.553v9.837l5.281,4.388
		c0.158,0.129,0.248,0.302,0.264,0.519C579.599,473.704,579.543,473.893,579.414,474.054z M574.037,475.718v11.571
		c0,0.417-0.152,0.778-0.457,1.083c-0.306,0.307-0.668,0.459-1.085,0.459h-9.257v-9.258h-6.171v9.258h-9.257
		c-0.419,0-0.781-0.152-1.085-0.459c-0.305-0.305-0.459-0.666-0.459-1.083v-11.571c0-0.016,0.003-0.041,0.013-0.073
		c0.008-0.032,0.011-0.056,0.011-0.072l13.862-11.427l13.861,11.427C574.03,475.604,574.037,475.653,574.037,475.718z"/>
</g>
<path fill="#FFFFFF" d="M550.545,436.348h-1.177c0,0-0.202,0.022-0.202-0.678c0-0.701,0-4.16,0-4.16s0.588-1.989,2.226-1.989h0.453
	l0.995-4.002c0,0,0.395-2.803,3.334-2.803c2.938,0,7.913,0.021,7.913,0.021s2.419-0.18,3.152,2.917l0.974,3.877
	c0,0,2.655-0.136,2.655,2.249c0,2.386,0,4.104,0,4.104s-0.012,0.418-0.485,0.418c-0.476,0-0.87-0.012-0.87-0.012v1.571
	c0,0-0.183,1.809-2.002,1.809s-2.057-1.798-2.057-1.798v-1.56l-10.841-0.011l-0.021,1.537c0,0-0.204,1.831-1.979,1.831
	c-1.773,0-2.067-1.865-2.067-1.865V436.348z"/>
<circle fill="#2D9E90" cx="552.558" cy="432.866" r="1.672"/>
<circle fill="#2D9E90" cx="567.444" cy="432.866" r="1.674"/>
<path fill="#2D9E90" d="M565.454,429.521h-10.953l0.983-3.561c0,0,0.033-0.51,0.915-0.51s7.189,0,7.189,0s0.849-0.305,1.052,0.916
	S565.454,429.521,565.454,429.521z"/>
<path fill="#FFFFFF" d="M555.039,562.484c0,0,0.128-1.716-1.228-1.716c-1.357,0-3.328,0-3.328,0s-0.721,0.19-0.721,0.857
	c0,0.668,0.764,0.858,0.764,0.858h2.775l2.332,10.937l-0.637,1.293c0,0-0.53,1.356,0.637,1.356c1.165,0,13.584,0,13.584,0
	s0.891-0.063,0.891-0.89c0-0.827-0.932-0.827-0.932-0.827h-12.103l0.339-0.763l-0.213-0.996l13.545-1.611
	c0,0,1.037,0.064,1.037-1.25s0-6.231,0-6.231s0.107-1.038-1.42-1.038C568.836,562.464,555.039,562.484,555.039,562.484z"/>
<circle fill="#FFFFFF" cx="556.608" cy="577.744" r="1.674"/>
<circle fill="#FFFFFF" cx="568.413" cy="577.744" r="1.675"/>
<path fill="#FFFFFF" d="M553.593,531.89l-0.018-8.842c0,0-1.412-0.59-1.412-1.912c0-1.321,0-7.162,0-7.162s-0.035-0.786,0.715-0.786
	c0.751,0,0.715,0.768,0.715,0.768v4.716c0,0,0.179,0.572,0.696,0.572c0.519,0,0.732-0.662,0.732-0.662v-4.644
	c0,0-0.018-0.75,0.715-0.75s0.68,0.715,0.68,0.715v4.751c0,0,0.231,0.66,0.66,0.66c0.696,0,0.786-0.696,0.786-0.696v-4.787
	c0,0-0.018-0.715,0.713-0.715c0.733,0,0.733,0.75,0.733,0.75v7.128c0,0-0.231,2.072-1.464,2.072l0.053,8.824
	c0,0-0.358,1.232-1.215,1.232s-2,0-2,0S553.593,532.818,553.593,531.89z"/>
<path fill="#FFFFFF" d="M567.87,531.812l-0.023-17.981c0,0-0.142-0.715-0.666-0.715c-0.523,0-3.525,0-3.525,0
	s-1.477,0.501-2.19,1.501c-0.715,1-0.691,1.69-0.691,1.69v9.408c0,0,0,0.31,0.5,0.31c0.501,0,2.312,0.023,2.312,0.023l-0.025,5.764
	c0,0,0.405,1.311,1.145,1.311c0.738,0,2.096,0,2.096,0S567.87,532.789,567.87,531.812z"/>
<rect x="550.535" y="607.321" fill="#FFFFFF" width="1.282" height="15.446"/>
<rect x="550.951" y="621.485" fill="#FFFFFF" width="20.061" height="1.282"/>
<rect x="554.285" y="615.013" fill="#FFFFFF" width="2.724" height="5.223"/>
<rect x="558.194" y="609.885" fill="#FFFFFF" width="2.66" height="10.351"/>
<rect x="562.103" y="612.385" fill="#FFFFFF" width="2.598" height="7.851"/>
<rect x="565.948" y="608.604" fill="#FFFFFF" width="2.532" height="11.632"/>
<g>
	<path fill="#FFFFFF" d="M549.237,78.196c-13.654,0-24.765-11.109-24.765-24.764s11.11-24.764,24.765-24.764
		c13.655,0,24.765,11.109,24.765,24.764S562.893,78.196,549.237,78.196z M549.237,31.567c-12.056,0-21.865,9.809-21.865,21.865
		s9.81,21.865,21.865,21.865c12.057,0,21.865-9.809,21.865-21.865S561.294,31.567,549.237,31.567z"/>
</g>
<g>
	<path fill="#FFFFFF" d="M560.98,498.544c-13.654,0-24.764-11.108-24.764-24.764s11.109-24.764,24.764-24.764
		c13.655,0,24.765,11.108,24.765,24.764S574.636,498.544,560.98,498.544z M560.98,451.914c-12.057,0-21.865,9.809-21.865,21.866
		c0,12.057,9.809,21.865,21.865,21.865s21.865-9.809,21.865-21.865C582.846,461.723,573.037,451.914,560.98,451.914z"/>
</g>
</svg>
