<?xml version="1.0" encoding="utf-8"?>
<!-- Generator: Adobe Illustrator 16.0.4, SVG Export Plug-In . SVG Version: 6.00 Build 0)  -->
<!DOCTYPE svg PUBLIC "-//W3C//DTD SVG 1.1//EN" "http://www.w3.org/Graphics/SVG/1.1/DTD/svg11.dtd">
<svg version="1.1" id="Layer_1" xmlns="http://www.w3.org/2000/svg" xmlns:xlink="http://www.w3.org/1999/xlink" x="0px" y="0px"
	 width="842px" height="637.5px" viewBox="120.5 0 842 637.5" enable-background="new 120.5 0 842 637.5" xml:space="preserve">
<path fill="none" stroke="#757576" stroke-width="3" stroke-miterlimit="10" d="M585.668,103.194c0,4.909-3.405,8.888-7.604,8.888
	h-93.157c-4.2,0-7.604-3.979-7.604-8.888V42.46c0-4.909,3.404-8.888,7.604-8.888h93.157c4.197,0,7.604,3.979,7.604,8.888V103.194z"
	/>
<line fill="none" stroke="#757576" stroke-width="3" stroke-miterlimit="10" x1="477.303" y1="48.688" x2="585.668" y2="48.688"/>
<circle fill="#757576" cx="577.435" cy="41.759" r="2.729"/>
<circle fill="#757576" cx="567.989" cy="41.759" r="2.729"/>
<circle fill="#757576" cx="557.913" cy="41.759" r="2.729"/>
<path fill="none" stroke="#757576" stroke-width="3" stroke-miterlimit="10" d="M591.145,250.122c0,4.909-3.405,8.888-7.604,8.888
	h-93.157c-4.2,0-7.604-3.979-7.604-8.888v-60.734c0-4.909,3.404-8.888,7.604-8.888h93.157c4.197,0,7.604,3.979,7.604,8.888V250.122z
	"/>
<line fill="none" stroke="#757576" stroke-width="3" stroke-miterlimit="10" x1="482.779" y1="195.615" x2="591.145" y2="195.615"/>
<circle fill="#757576" cx="582.911" cy="188.687" r="2.729"/>
<circle fill="#757576" cx="573.466" cy="188.687" r="2.729"/>
<circle fill="#757576" cx="563.39" cy="188.687" r="2.729"/>
<path fill="none" stroke="#757576" stroke-width="3" stroke-miterlimit="10" d="M772.145,250.122c0,4.909-3.405,8.888-7.604,8.888
	h-93.157c-4.2,0-7.604-3.979-7.604-8.888v-60.734c0-4.909,3.404-8.888,7.604-8.888h93.157c4.197,0,7.604,3.979,7.604,8.888V250.122z
	"/>
<line fill="none" stroke="#757576" stroke-width="3" stroke-miterlimit="10" x1="663.779" y1="195.615" x2="772.145" y2="195.615"/>
<circle fill="#757576" cx="763.911" cy="188.687" r="2.729"/>
<circle fill="#757576" cx="754.466" cy="188.687" r="2.729"/>
<circle fill="#757576" cx="744.39" cy="188.687" r="2.729"/>
<path fill="none" stroke="#757576" stroke-width="3" stroke-miterlimit="10" d="M933.145,250.122c0,4.909-3.405,8.888-7.604,8.888
	h-93.157c-4.2,0-7.604-3.979-7.604-8.888v-60.734c0-4.909,3.404-8.888,7.604-8.888h93.157c4.197,0,7.604,3.979,7.604,8.888V250.122z
	"/>
<line fill="none" stroke="#757576" stroke-width="3" stroke-miterlimit="10" x1="824.779" y1="195.615" x2="933.145" y2="195.615"/>
<circle fill="#757576" cx="924.911" cy="188.687" r="2.729"/>
<circle fill="#757576" cx="915.466" cy="188.687" r="2.729"/>
<circle fill="#757576" cx="905.39" cy="188.687" r="2.729"/>
<path fill="none" stroke="#757576" stroke-width="3" stroke-miterlimit="10" d="M591.145,384.122c0,4.909-3.405,8.888-7.604,8.888
	h-93.157c-4.2,0-7.604-3.979-7.604-8.888v-60.734c0-4.909,3.404-8.888,7.604-8.888h93.157c4.197,0,7.604,3.979,7.604,8.888V384.122z
	"/>
<line fill="none" stroke="#757576" stroke-width="3" stroke-miterlimit="10" x1="482.779" y1="329.615" x2="591.145" y2="329.615"/>
<circle fill="#757576" cx="582.911" cy="322.687" r="2.729"/>
<circle fill="#757576" cx="573.466" cy="322.687" r="2.729"/>
<circle fill="#757576" cx="563.39" cy="322.687" r="2.729"/>
<path fill="none" stroke="#757576" stroke-width="3" stroke-miterlimit="10" d="M426.145,250.122c0,4.909-3.405,8.888-7.604,8.888
	h-93.157c-4.2,0-7.604-3.979-7.604-8.888v-60.734c0-4.909,3.404-8.888,7.604-8.888h93.157c4.197,0,7.604,3.979,7.604,8.888V250.122z
	"/>
<line fill="none" stroke="#757576" stroke-width="3" stroke-miterlimit="10" x1="317.779" y1="195.615" x2="426.145" y2="195.615"/>
<circle fill="#757576" cx="417.911" cy="188.687" r="2.729"/>
<circle fill="#757576" cx="408.466" cy="188.687" r="2.729"/>
<circle fill="#757576" cx="398.39" cy="188.687" r="2.729"/>
<path fill="none" stroke="#757576" stroke-width="3" stroke-miterlimit="10" d="M261.145,250.122c0,4.909-3.405,8.888-7.604,8.888
	h-93.157c-4.2,0-7.604-3.979-7.604-8.888v-60.734c0-4.909,3.404-8.888,7.604-8.888h93.157c4.197,0,7.604,3.979,7.604,8.888V250.122z
	"/>
<line fill="none" stroke="#757576" stroke-width="3" stroke-miterlimit="10" x1="152.779" y1="195.615" x2="261.145" y2="195.615"/>
<circle fill="#757576" cx="252.911" cy="188.687" r="2.729"/>
<circle fill="#757576" cx="243.466" cy="188.687" r="2.729"/>
<circle fill="#757576" cx="233.39" cy="188.687" r="2.729"/>
<path fill="none" stroke="#757576" stroke-width="3" stroke-miterlimit="10" d="M595.668,499.122c0,4.909-3.405,8.888-7.604,8.888
	h-93.157c-4.2,0-7.604-3.979-7.604-8.888v-60.734c0-4.909,3.404-8.888,7.604-8.888h93.157c4.197,0,7.604,3.979,7.604,8.888V499.122z
	"/>
<line fill="none" stroke="#757576" stroke-width="3" stroke-miterlimit="10" x1="487.303" y1="444.615" x2="595.668" y2="444.615"/>
<circle fill="#757576" cx="587.435" cy="437.687" r="2.729"/>
<circle fill="#757576" cx="577.989" cy="437.687" r="2.729"/>
<circle fill="#757576" cx="567.913" cy="437.687" r="2.729"/>
<path fill="none" stroke="#757576" stroke-width="3" stroke-miterlimit="10" d="M591.668,610.122c0,4.909-3.405,8.888-7.604,8.888
	h-93.157c-4.2,0-7.604-3.979-7.604-8.888v-60.734c0-4.909,3.404-8.888,7.604-8.888h93.157c4.197,0,7.604,3.979,7.604,8.888V610.122z
	"/>
<line fill="none" stroke="#757576" stroke-width="3" stroke-miterlimit="10" x1="483.303" y1="555.615" x2="591.668" y2="555.615"/>
<circle fill="#757576" cx="583.435" cy="548.687" r="2.729"/>
<circle fill="#757576" cx="573.989" cy="548.687" r="2.729"/>
<circle fill="#757576" cx="563.913" cy="548.687" r="2.729"/>
<path fill="none" stroke="#757576" stroke-width="3" stroke-miterlimit="10" d="M766.641,499.122c0,4.909-3.405,8.888-7.604,8.888
	H665.88c-4.2,0-7.604-3.979-7.604-8.888v-60.734c0-4.909,3.404-8.888,7.604-8.888h93.157c4.197,0,7.604,3.979,7.604,8.888V499.122z"
	/>
<line fill="none" stroke="#757576" stroke-width="3" stroke-miterlimit="10" x1="658.275" y1="444.615" x2="766.641" y2="444.615"/>
<circle fill="#757576" cx="758.407" cy="437.687" r="2.729"/>
<circle fill="#757576" cx="748.962" cy="437.687" r="2.729"/>
<circle fill="#757576" cx="738.886" cy="437.687" r="2.729"/>
<path fill="none" stroke="#757576" stroke-width="3" stroke-miterlimit="10" d="M437.668,499.122c0,4.909-3.405,8.888-7.604,8.888
	h-93.157c-4.2,0-7.604-3.979-7.604-8.888v-60.734c0-4.909,3.404-8.888,7.604-8.888h93.157c4.197,0,7.604,3.979,7.604,8.888V499.122z
	"/>
<line fill="none" stroke="#757576" stroke-width="3" stroke-miterlimit="10" x1="329.303" y1="444.615" x2="437.668" y2="444.615"/>
<circle fill="#757576" cx="429.435" cy="437.687" r="2.729"/>
<circle fill="#757576" cx="419.989" cy="437.687" r="2.729"/>
<circle fill="#757576" cx="409.913" cy="437.687" r="2.729"/>
<rect x="477.303" y="69.094" fill="none" width="108.714" height="35.812"/>
<text transform="matrix(1 0 0 1 490.0107 82.0479)" fill="#757576" font-family="'Roboto-Regular'" font-size="17">Homepage</text>
<rect x="157.907" y="213.594" fill="none" width="98.11" height="35.812"/>
<text transform="matrix(1 0 0 1 157.9067 226.5479)" fill="#757576" font-family="'Roboto-Regular'" font-size="17">Community</text>
<rect x="317.779" y="213.594" fill="none" width="105.801" height="35.812"/>
<text transform="matrix(1 0 0 1 349.2432 226.5479)" fill="#757576" font-family="'Roboto-Regular'" font-size="17">News</text>
<rect x="482.779" y="345.594" fill="none" width="107.761" height="35.812"/>
<text transform="matrix(1 0 0 1 495.0312 358.5479)" fill="#757576" font-family="'Roboto-Regular'" font-size="17">Dashboard</text>
<rect x="329.303" y="465.261" fill="none" width="108.365" height="35.812"/>
<text transform="matrix(1 0 0 1 341.5913 478.2148)" fill="#757576" font-family="'Roboto-Regular'" font-size="17">Edit Profile</text>
<rect x="658.275" y="468.755" fill="none" width="108.365" height="35.812"/>
<text transform="matrix(1 0 0 1 681.1602 481.709)" fill="#757576" font-family="'Roboto-Regular'" font-size="17">Ranking</text>
<rect x="483.733" y="574.197" fill="none" width="107.935" height="35.812"/>
<text transform="matrix(1 0 0 1 487.8496 587.1514)"><tspan x="0" y="0" fill="#757576" font-family="'Roboto-Regular'" font-size="17">Add/Remove</tspan><tspan x="32.967" y="20.399" fill="#757576" font-family="'Roboto-Regular'" font-size="17">Tree</tspan></text>
<rect x="487.733" y="458.594" fill="none" width="107.935" height="35.812"/>
<text transform="matrix(1 0 0 1 524.8164 471.5479)"><tspan x="0" y="0" fill="#757576" font-family="'Roboto-Regular'" font-size="17">Tree </tspan><tspan x="-17" y="20.399" fill="#757576" font-family="'Roboto-Regular'" font-size="17">Manager</tspan></text>
<rect x="823.627" y="213.594" fill="none" width="108.035" height="35.812"/>
<text transform="matrix(1 0 0 1 846.3477 226.5479)" fill="#757576" font-family="'Roboto-Regular'" font-size="17">Ranking</text>
<rect x="482.779" y="209.5" fill="none" width="107.385" height="35.812"/>
<text transform="matrix(1 0 0 1 511.7188 222.4541)"><tspan x="0" y="0" fill="#757576" font-family="'Roboto-Regular'" font-size="17">Login/</tspan><tspan x="-5.047" y="20.399" fill="#757576" font-family="'Roboto-Regular'" font-size="17">Sign Up</tspan></text>
<rect x="663.779" y="209.5" fill="none" width="110.721" height="35.812"/>
<text transform="matrix(1 0 0 1 689.3398 222.4541)"><tspan x="0" y="0" fill="#757576" font-family="'Roboto-Regular'" font-size="17">Sign Up</tspan><tspan x="-1.287" y="20.399" fill="#757576" font-family="'Roboto-Regular'" font-size="17">Process</tspan></text>
<polyline fill="none" stroke="#757576" stroke-width="4" stroke-miterlimit="10" points="206.962,180.5 206.962,152.5 
	878.962,152.5 878.962,180.5 "/>
<line fill="none" stroke="#757576" stroke-width="4" stroke-miterlimit="10" x1="376.5" y1="152.5" x2="376.5" y2="180.5"/>
<line fill="none" stroke="#757576" stroke-width="4" stroke-miterlimit="10" x1="536.962" y1="152.5" x2="536.962" y2="180.5"/>
<line fill="none" stroke="#757576" stroke-width="4" stroke-miterlimit="10" x1="536.962" y1="112.625" x2="536.962" y2="153"/>
<line fill="none" stroke="#757576" stroke-width="4" stroke-miterlimit="10" x1="536.962" y1="259.01" x2="536.962" y2="314.5"/>
<line fill="none" stroke="#757576" stroke-width="4" stroke-miterlimit="10" x1="536.962" y1="393.01" x2="536.962" y2="429.5"/>
<line fill="none" stroke="#757576" stroke-width="4" stroke-miterlimit="10" x1="718.167" y1="409.5" x2="718.167" y2="429.5"/>
<line fill="none" stroke="#757576" stroke-width="4" stroke-miterlimit="10" x1="536.962" y1="508.01" x2="536.962" y2="540.5"/>
<line fill="none" stroke="#757576" stroke-width="4" stroke-miterlimit="10" x1="387.167" y1="411.255" x2="387.167" y2="429.5"/>
<line fill="none" stroke="#757576" stroke-width="4" stroke-miterlimit="10" x1="719.918" y1="411.512" x2="385.173" y2="411"/>
<line fill="none" stroke="#757576" stroke-width="4" stroke-miterlimit="10" x1="591.145" y1="219.755" x2="663.779" y2="219.755"/>
<line fill="none" stroke="#757576" stroke-width="4" stroke-miterlimit="10" x1="591.145" y1="358" x2="724" y2="358"/>
<line fill="none" stroke="#757576" stroke-width="4" stroke-miterlimit="10" x1="722" y1="258.689" x2="722" y2="358"/>
</svg>
