<?xml version="1.0" encoding="utf-8"?>
<!-- Generator: Adobe Illustrator 16.0.4, SVG Export Plug-In . SVG Version: 6.00 Build 0)  -->
<!DOCTYPE svg PUBLIC "-//W3C//DTD SVG 1.1//EN" "http://www.w3.org/Graphics/SVG/1.1/DTD/svg11.dtd">
<svg version="1.1" id="Layer_1" xmlns="http://www.w3.org/2000/svg" xmlns:xlink="http://www.w3.org/1999/xlink" x="0px" y="0px"
	 width="612px" height="700.575px" viewBox="0 0 612 700.575" enable-background="new 0 0 612 700.575" xml:space="preserve">
<rect x="20.06" y="15.963" fill="none" stroke="#231F20" stroke-miterlimit="10" width="574.071" height="20.143"/>
<path fill="none" stroke="#231F20" stroke-miterlimit="10" d="M588.287,30.147c0,1.84-2.165,3.332-4.836,3.332h-32.95
	c-2.671,0-4.836-1.492-4.836-3.332v-8.225c0-1.84,2.165-3.332,4.836-3.332h32.95c2.671,0,4.836,1.492,4.836,3.332V30.147z"/>
<g>
	<path fill="#231F20" d="M555.829,23.221h0.638v5.149h-0.638V23.221z"/>
	<path fill="#231F20" d="M560.717,26.586c0,1.298-0.899,1.864-1.748,1.864c-0.95,0-1.684-0.696-1.684-1.806
		c0-1.175,0.77-1.864,1.74-1.864C560.035,24.78,560.717,25.512,560.717,26.586z M557.931,26.622c0,0.769,0.443,1.35,1.066,1.35
		c0.61,0,1.066-0.573,1.066-1.364c0-0.595-0.297-1.349-1.051-1.349C558.257,25.258,557.931,25.955,557.931,26.622z"/>
	<path fill="#231F20" d="M564.545,24.859c-0.015,0.254-0.028,0.538-0.028,0.965v2.038c0,0.806-0.161,1.299-0.5,1.603
		c-0.343,0.319-0.835,0.421-1.276,0.421c-0.423,0-0.887-0.102-1.169-0.29l0.159-0.486c0.233,0.145,0.595,0.276,1.03,0.276
		c0.651,0,1.131-0.34,1.131-1.226v-0.392h-0.013c-0.197,0.326-0.574,0.588-1.118,0.588c-0.871,0-1.494-0.74-1.494-1.712
		c0-1.189,0.776-1.864,1.581-1.864c0.61,0,0.943,0.319,1.095,0.609h0.016l0.03-0.53H564.545z M563.886,26.245
		c0-0.109-0.007-0.203-0.038-0.291c-0.115-0.37-0.428-0.674-0.892-0.674c-0.608,0-1.044,0.515-1.044,1.327
		c0,0.689,0.349,1.263,1.038,1.263c0.391,0,0.746-0.247,0.885-0.653c0.036-0.108,0.051-0.232,0.051-0.341V26.245z"/>
	<path fill="#231F20" d="M570.288,26.586c0,1.298-0.897,1.864-1.748,1.864c-0.949,0-1.683-0.696-1.683-1.806
		c0-1.175,0.77-1.864,1.741-1.864C569.606,24.78,570.288,25.512,570.288,26.586z M567.504,26.622c0,0.769,0.441,1.35,1.066,1.35
		c0.607,0,1.066-0.573,1.066-1.364c0-0.595-0.298-1.349-1.054-1.349C567.829,25.258,567.504,25.955,567.504,26.622z"/>
	<path fill="#231F20" d="M574.03,27.413c0,0.362,0.008,0.681,0.028,0.957h-0.566l-0.035-0.573h-0.014
		c-0.167,0.283-0.538,0.653-1.161,0.653c-0.553,0-1.212-0.305-1.212-1.538v-2.053h0.639v1.944c0,0.667,0.202,1.117,0.783,1.117
		c0.429,0,0.726-0.297,0.842-0.58c0.035-0.095,0.059-0.21,0.059-0.327v-2.154h0.638V27.413z"/>
	<path fill="#231F20" d="M575.856,23.851v1.009h0.915v0.486h-0.915v1.894c0,0.436,0.123,0.682,0.479,0.682
		c0.166,0,0.289-0.021,0.369-0.043l0.03,0.479c-0.125,0.05-0.32,0.087-0.566,0.087c-0.297,0-0.538-0.095-0.689-0.269
		c-0.182-0.188-0.246-0.5-0.246-0.914v-1.916h-0.544v-0.486h0.544v-0.841L575.856,23.851z"/>
</g>
<path fill="none" stroke="#231F20" stroke-miterlimit="10" d="M81.014,31.518c0,1.647-2.164,2.982-4.834,2.982H27.463
	c-2.669,0-4.834-1.335-4.834-2.982V20.552c0-1.647,2.165-2.983,4.834-2.983H76.18c2.67,0,4.834,1.336,4.834,2.983V31.518z"/>
<g>
	<path fill="#231F20" d="M44.177,23.221h0.638v5.149h-0.638V23.221z"/>
	<path fill="#231F20" d="M49.066,26.586c0,1.298-0.9,1.864-1.749,1.864c-0.95,0-1.683-0.696-1.683-1.806
		c0-1.175,0.769-1.864,1.741-1.864C48.384,24.78,49.066,25.512,49.066,26.586z M46.28,26.622c0,0.769,0.442,1.35,1.066,1.35
		c0.61,0,1.066-0.573,1.066-1.364c0-0.595-0.297-1.349-1.051-1.349C46.606,25.258,46.28,25.955,46.28,26.622z"/>
	<path fill="#231F20" d="M52.895,24.859c-0.015,0.254-0.029,0.538-0.029,0.965v2.038c0,0.806-0.16,1.299-0.5,1.603
		c-0.341,0.319-0.834,0.421-1.277,0.421c-0.421,0-0.885-0.102-1.168-0.29l0.16-0.486c0.232,0.145,0.595,0.276,1.03,0.276
		c0.653,0,1.132-0.34,1.132-1.226v-0.392h-0.015c-0.196,0.326-0.573,0.588-1.117,0.588c-0.87,0-1.494-0.74-1.494-1.712
		c0-1.189,0.776-1.864,1.581-1.864c0.609,0,0.943,0.319,1.096,0.609h0.014l0.029-0.53H52.895z M52.234,26.245
		c0-0.109-0.007-0.203-0.036-0.291c-0.116-0.37-0.428-0.674-0.892-0.674c-0.609,0-1.044,0.515-1.044,1.327
		c0,0.689,0.348,1.263,1.037,1.263c0.392,0,0.747-0.247,0.885-0.653c0.036-0.108,0.05-0.232,0.05-0.341V26.245z"/>
	<path fill="#231F20" d="M57.1,26.586c0,1.298-0.899,1.864-1.749,1.864c-0.95,0-1.683-0.696-1.683-1.806
		c0-1.175,0.769-1.864,1.741-1.864C56.418,24.78,57.1,25.512,57.1,26.586z M54.314,26.622c0,0.769,0.442,1.35,1.066,1.35
		c0.609,0,1.066-0.573,1.066-1.364c0-0.595-0.297-1.349-1.052-1.349C54.641,25.258,54.314,25.955,54.314,26.622z"/>
</g>
<path fill="none" stroke="#231F20" stroke-miterlimit="10" d="M206.542,31.518c0,1.647-1.298,2.982-2.901,2.982h-29.229
	c-1.602,0-2.9-1.335-2.9-2.982V20.552c0-1.647,1.298-2.983,2.9-2.983h29.229c1.603,0,2.901,1.336,2.901,2.983V31.518z"/>
<g>
	<path fill="#231F20" d="M182.304,23.481v2.046h2.364v-2.046h0.639v4.889h-0.639v-2.292h-2.364v2.292h-0.631v-4.889H182.304z"/>
	<path fill="#231F20" d="M189.556,26.586c0,1.298-0.899,1.864-1.749,1.864c-0.95,0-1.682-0.696-1.682-1.806
		c0-1.175,0.769-1.864,1.741-1.864C188.874,24.78,189.556,25.512,189.556,26.586z M186.771,26.622c0,0.769,0.442,1.35,1.066,1.35
		c0.609,0,1.065-0.573,1.065-1.364c0-0.595-0.297-1.349-1.051-1.349C187.097,25.258,186.771,25.955,186.771,26.622z"/>
	<path fill="#231F20" d="M190.359,25.81c0-0.363-0.007-0.661-0.029-0.951h0.56l0.028,0.566h0.021
		c0.196-0.334,0.522-0.646,1.103-0.646c0.479,0,0.841,0.29,0.994,0.703h0.015c0.109-0.195,0.247-0.348,0.392-0.457
		c0.21-0.16,0.442-0.247,0.776-0.247c0.464,0,1.153,0.305,1.153,1.524v2.066h-0.624v-1.987c0-0.674-0.246-1.08-0.761-1.08
		c-0.363,0-0.646,0.268-0.754,0.58c-0.029,0.086-0.051,0.203-0.051,0.319v2.168h-0.624v-2.104c0-0.558-0.246-0.964-0.732-0.964
		c-0.399,0-0.689,0.318-0.791,0.638c-0.036,0.094-0.051,0.203-0.051,0.312v2.118h-0.624V25.81z"/>
	<path fill="#231F20" d="M196.763,26.731c0.015,0.863,0.565,1.219,1.204,1.219c0.457,0,0.732-0.08,0.972-0.182l0.109,0.457
		c-0.225,0.102-0.609,0.219-1.168,0.219c-1.081,0-1.727-0.711-1.727-1.77c0-1.059,0.624-1.894,1.646-1.894
		c1.146,0,1.451,1.009,1.451,1.654c0,0.13-0.015,0.232-0.022,0.297H196.763z M198.634,26.274c0.008-0.407-0.167-1.038-0.885-1.038
		c-0.646,0-0.928,0.595-0.979,1.038H198.634z"/>
</g>
<path fill="none" stroke="#231F20" stroke-miterlimit="10" d="M251.499,31.518c0,1.647-1.299,2.982-2.901,2.982h-29.23
	c-1.602,0-2.9-1.335-2.9-2.982V20.552c0-1.647,1.299-2.983,2.9-2.983h29.23c1.602,0,2.901,1.336,2.901,2.983V31.518z"/>
<g>
	<path fill="#231F20" d="M226.628,23.547c0.32-0.066,0.777-0.102,1.212-0.102c0.674,0,1.109,0.124,1.414,0.399
		c0.247,0.218,0.385,0.552,0.385,0.929c0,0.646-0.406,1.073-0.921,1.247v0.022c0.377,0.13,0.602,0.479,0.718,0.986
		c0.16,0.682,0.275,1.154,0.377,1.342h-0.653c-0.08-0.138-0.189-0.558-0.327-1.167c-0.145-0.675-0.406-0.928-0.979-0.951h-0.595
		v2.118h-0.631V23.547z M227.26,25.774h0.646c0.674,0,1.102-0.371,1.102-0.929c0-0.631-0.457-0.907-1.125-0.915
		c-0.304,0-0.522,0.029-0.624,0.059V25.774z"/>
	<path fill="#231F20" d="M232.539,28.37l-0.051-0.442h-0.021c-0.196,0.275-0.573,0.522-1.074,0.522c-0.711,0-1.074-0.5-1.074-1.009
		c0-0.848,0.754-1.312,2.111-1.305v-0.072c0-0.29-0.079-0.813-0.797-0.813c-0.327,0-0.667,0.102-0.914,0.261l-0.146-0.421
		c0.291-0.188,0.711-0.312,1.154-0.312c1.073,0,1.334,0.732,1.334,1.436v1.313c0,0.304,0.015,0.602,0.059,0.841H232.539z
		 M232.445,26.579c-0.696-0.015-1.486,0.108-1.486,0.79c0,0.414,0.275,0.609,0.601,0.609c0.457,0,0.748-0.29,0.849-0.587
		c0.021-0.065,0.036-0.138,0.036-0.204V26.579z"/>
	<path fill="#231F20" d="M234.09,25.81c0-0.363-0.007-0.661-0.029-0.951h0.565l0.037,0.58h0.014c0.174-0.333,0.581-0.66,1.161-0.66
		c0.486,0,1.24,0.29,1.24,1.495v2.096h-0.638v-2.024c0-0.565-0.21-1.037-0.812-1.037c-0.421,0-0.747,0.297-0.855,0.653
		c-0.029,0.08-0.044,0.188-0.044,0.297v2.111h-0.638V25.81z"/>
	<path fill="#231F20" d="M238.746,26.47h0.015c0.087-0.124,0.21-0.275,0.312-0.399l1.03-1.211h0.769l-1.356,1.444l1.545,2.066
		h-0.776l-1.211-1.683l-0.327,0.363v1.32h-0.631v-5.149h0.631V26.47z"/>
</g>
<path fill="none" stroke="#231F20" stroke-miterlimit="10" d="M294.803,31.518c0,1.647-1.298,2.982-2.9,2.982h-29.23
	c-1.602,0-2.9-1.335-2.9-2.982V20.552c0-1.647,1.299-2.983,2.9-2.983h29.23c1.602,0,2.9,1.336,2.9,2.983V31.518z"/>
<g>
	<path fill="#231F20" d="M270.861,24.018h-1.487v-0.537h3.62v0.537H271.5v4.352h-0.639V24.018z"/>
	<path fill="#231F20" d="M273.356,26.731c0.014,0.863,0.565,1.219,1.204,1.219c0.457,0,0.733-0.08,0.972-0.182l0.108,0.457
		c-0.225,0.102-0.609,0.219-1.167,0.219c-1.081,0-1.727-0.711-1.727-1.77c0-1.059,0.624-1.894,1.647-1.894
		c1.146,0,1.451,1.009,1.451,1.654c0,0.13-0.015,0.232-0.022,0.297H273.356z M275.228,26.274c0.007-0.407-0.167-1.038-0.885-1.038
		c-0.646,0-0.929,0.595-0.979,1.038H275.228z"/>
	<path fill="#231F20" d="M278.578,28.37l-0.051-0.442h-0.022c-0.196,0.275-0.573,0.522-1.074,0.522c-0.711,0-1.074-0.5-1.074-1.009
		c0-0.848,0.754-1.312,2.111-1.305v-0.072c0-0.29-0.08-0.813-0.798-0.813c-0.327,0-0.667,0.102-0.914,0.261l-0.146-0.421
		c0.291-0.188,0.711-0.312,1.154-0.312c1.073,0,1.334,0.732,1.334,1.436v1.313c0,0.304,0.015,0.602,0.059,0.841H278.578z
		 M278.483,26.579c-0.696-0.015-1.487,0.108-1.487,0.79c0,0.414,0.276,0.609,0.602,0.609c0.458,0,0.748-0.29,0.849-0.587
		c0.022-0.065,0.036-0.138,0.036-0.204V26.579z"/>
	<path fill="#231F20" d="M280.129,25.81c0-0.363-0.007-0.661-0.029-0.951h0.559l0.029,0.566h0.022
		c0.195-0.334,0.522-0.646,1.102-0.646c0.479,0,0.841,0.29,0.994,0.703h0.015c0.109-0.195,0.247-0.348,0.392-0.457
		c0.209-0.16,0.442-0.247,0.776-0.247c0.464,0,1.153,0.305,1.153,1.524v2.066h-0.624v-1.987c0-0.674-0.247-1.08-0.762-1.08
		c-0.362,0-0.646,0.268-0.754,0.58c-0.029,0.086-0.051,0.203-0.051,0.319v2.168h-0.624v-2.104c0-0.558-0.247-0.964-0.732-0.964
		c-0.399,0-0.689,0.318-0.791,0.638c-0.036,0.094-0.051,0.203-0.051,0.312v2.118h-0.624V25.81z"/>
</g>
<path fill="none" stroke="#231F20" stroke-miterlimit="10" d="M539.92,31.518c0,1.647-1.297,2.982-2.899,2.982h-29.231
	c-1.602,0-2.899-1.335-2.899-2.982V20.552c0-1.647,1.298-2.983,2.899-2.983h29.231c1.603,0,2.899,1.336,2.899,2.983V31.518z"/>
<g>
	<path fill="#231F20" d="M515.052,23.539c0.305-0.05,0.702-0.094,1.212-0.094c0.623,0,1.079,0.146,1.369,0.406
		c0.27,0.233,0.428,0.589,0.428,1.023c0,0.443-0.13,0.791-0.377,1.044c-0.333,0.356-0.878,0.537-1.494,0.537
		c-0.188,0-0.361-0.008-0.508-0.043v1.958h-0.63V23.539z M515.682,25.897c0.139,0.036,0.312,0.051,0.523,0.051
		c0.761,0,1.226-0.371,1.226-1.044c0-0.646-0.457-0.958-1.154-0.958c-0.274,0-0.484,0.022-0.595,0.05V25.897z"/>
	<path fill="#231F20" d="M518.771,25.955c0-0.414-0.008-0.769-0.03-1.095h0.559l0.022,0.689h0.028
		c0.159-0.472,0.546-0.769,0.972-0.769c0.074,0,0.125,0.008,0.182,0.022v0.602c-0.064-0.014-0.13-0.021-0.218-0.021
		c-0.448,0-0.769,0.34-0.855,0.819c-0.014,0.087-0.028,0.188-0.028,0.297v1.872h-0.631V25.955z"/>
	<path fill="#231F20" d="M524.247,26.586c0,1.298-0.899,1.864-1.748,1.864c-0.951,0-1.683-0.696-1.683-1.806
		c0-1.175,0.77-1.864,1.741-1.864C523.565,24.78,524.247,25.512,524.247,26.586z M521.461,26.622c0,0.769,0.443,1.35,1.066,1.35
		c0.609,0,1.068-0.573,1.068-1.364c0-0.595-0.3-1.349-1.054-1.349S521.461,25.955,521.461,26.622z"/>
	<path fill="#231F20" d="M525.116,28.37v-3.025h-0.494v-0.486h0.494v-0.188c0-0.929,0.544-1.531,1.53-1.531
		c0.326,0,0.711,0.101,0.893,0.232l-0.182,0.486c-0.152-0.108-0.429-0.203-0.739-0.203c-0.676,0-0.871,0.472-0.871,1.03v0.174h2.038
		v3.511h-0.631v-3.025h-1.407v3.025H525.116z"/>
	<path fill="#231F20" d="M528.842,23.221h0.641v5.149h-0.641V23.221z"/>
	<path fill="#231F20" d="M530.91,26.731c0.016,0.863,0.566,1.219,1.203,1.219c0.458,0,0.732-0.08,0.974-0.182l0.107,0.457
		c-0.224,0.102-0.609,0.219-1.167,0.219c-1.081,0-1.727-0.711-1.727-1.77c0-1.059,0.625-1.894,1.647-1.894
		c1.146,0,1.451,1.009,1.451,1.654c0,0.13-0.016,0.232-0.023,0.297H530.91z M532.781,26.274c0.008-0.407-0.166-1.038-0.884-1.038
		c-0.646,0-0.929,0.595-0.979,1.038H532.781z"/>
</g>
<rect x="18.741" y="364.401" fill="none" stroke="#231F20" stroke-miterlimit="10" width="575.527" height="20.194"/>
<path fill="none" stroke="#231F20" stroke-miterlimit="10" d="M590.052,378.62c0,1.845-2.171,3.341-4.848,3.341h-33.035
	c-2.678,0-4.847-1.496-4.847-3.341v-8.244c0-1.845,2.169-3.341,4.847-3.341h33.035c2.677,0,4.848,1.496,4.848,3.341V378.62z"/>
<g>
	<path fill="#231F20" d="M557.511,371.676h0.64v5.163h-0.64V371.676z"/>
	<path fill="#231F20" d="M562.412,375.05c0,1.301-0.903,1.869-1.753,1.869c-0.953,0-1.688-0.698-1.688-1.811
		c0-1.179,0.771-1.869,1.746-1.869C561.728,373.24,562.412,373.974,562.412,375.05z M559.619,375.086
		c0,0.771,0.442,1.353,1.068,1.353c0.611,0,1.069-0.573,1.069-1.366c0-0.597-0.297-1.354-1.055-1.354
		C559.945,373.718,559.619,374.417,559.619,375.086z"/>
	<path fill="#231F20" d="M566.249,373.32c-0.014,0.254-0.028,0.537-0.028,0.966v2.045c0,0.807-0.16,1.301-0.502,1.607
		c-0.342,0.319-0.836,0.421-1.28,0.421c-0.421,0-0.886-0.102-1.17-0.291l0.16-0.487c0.232,0.146,0.597,0.276,1.033,0.276
		c0.653,0,1.134-0.342,1.134-1.229v-0.393h-0.016c-0.195,0.327-0.573,0.589-1.118,0.589c-0.874,0-1.498-0.742-1.498-1.716
		c0-1.193,0.777-1.869,1.584-1.869c0.611,0,0.945,0.319,1.099,0.611h0.014l0.03-0.531H566.249z M565.588,374.708
		c0-0.108-0.008-0.203-0.036-0.291c-0.117-0.371-0.429-0.676-0.894-0.676c-0.612,0-1.048,0.516-1.048,1.331
		c0,0.69,0.349,1.266,1.04,1.266c0.393,0,0.749-0.248,0.886-0.655c0.038-0.109,0.052-0.233,0.052-0.342V374.708z"/>
	<path fill="#231F20" d="M572.008,375.05c0,1.301-0.902,1.869-1.753,1.869c-0.953,0-1.687-0.698-1.687-1.811
		c0-1.179,0.771-1.869,1.745-1.869C571.323,373.24,572.008,373.974,572.008,375.05z M569.216,375.086
		c0,0.771,0.443,1.353,1.067,1.353c0.611,0,1.069-0.573,1.069-1.366c0-0.597-0.297-1.354-1.054-1.354
		C569.543,373.718,569.216,374.417,569.216,375.086z"/>
	<path fill="#231F20" d="M575.759,375.879c0,0.363,0.007,0.684,0.029,0.96h-0.567l-0.037-0.574h-0.014
		c-0.167,0.283-0.538,0.654-1.164,0.654c-0.553,0-1.214-0.306-1.214-1.542v-2.058h0.64v1.948c0,0.67,0.204,1.12,0.785,1.12
		c0.429,0,0.727-0.298,0.843-0.581c0.037-0.096,0.06-0.212,0.06-0.328v-2.159h0.64V375.879z"/>
	<path fill="#231F20" d="M577.59,372.309v1.011h0.916v0.486h-0.916v1.898c0,0.436,0.124,0.684,0.479,0.684
		c0.167,0,0.291-0.022,0.372-0.044l0.028,0.48c-0.123,0.051-0.319,0.087-0.567,0.087c-0.299,0-0.538-0.095-0.69-0.269
		c-0.182-0.188-0.248-0.503-0.248-0.917v-1.92h-0.544v-0.486h0.544v-0.844L577.59,372.309z"/>
</g>
<path fill="none" stroke="#231F20" stroke-miterlimit="10" d="M81.492,379.995c0,1.651-2.17,2.99-4.847,2.99h-48.84
	c-2.677,0-4.847-1.339-4.847-2.99V369c0-1.65,2.17-2.99,4.847-2.99h48.84c2.676,0,4.847,1.34,4.847,2.99V379.995z"/>
<g>
	<path fill="#231F20" d="M44.562,371.676h0.64v5.163h-0.64V371.676z"/>
	<path fill="#231F20" d="M49.462,375.05c0,1.301-0.902,1.869-1.753,1.869c-0.953,0-1.687-0.698-1.687-1.811
		c0-1.179,0.771-1.869,1.745-1.869C48.779,373.24,49.462,373.974,49.462,375.05z M46.67,375.086c0,0.771,0.443,1.353,1.069,1.353
		c0.611,0,1.069-0.573,1.069-1.366c0-0.597-0.298-1.354-1.055-1.354C46.997,373.718,46.67,374.417,46.67,375.086z"/>
	<path fill="#231F20" d="M53.301,373.32c-0.015,0.254-0.029,0.537-0.029,0.966v2.045c0,0.807-0.16,1.301-0.502,1.607
		c-0.342,0.319-0.836,0.421-1.279,0.421c-0.422,0-0.888-0.102-1.171-0.291l0.16-0.487c0.233,0.146,0.597,0.276,1.033,0.276
		c0.654,0,1.134-0.342,1.134-1.229v-0.393h-0.015c-0.195,0.327-0.574,0.589-1.119,0.589c-0.874,0-1.499-0.742-1.499-1.716
		c0-1.193,0.778-1.869,1.585-1.869c0.611,0,0.945,0.319,1.098,0.611h0.014l0.029-0.531H53.301z M52.639,374.708
		c0-0.108-0.008-0.203-0.037-0.291c-0.117-0.371-0.429-0.676-0.895-0.676c-0.61,0-1.047,0.516-1.047,1.331
		c0,0.69,0.349,1.266,1.04,1.266c0.393,0,0.749-0.248,0.887-0.655c0.036-0.109,0.051-0.233,0.051-0.342V374.708z"/>
	<path fill="#231F20" d="M57.517,375.05c0,1.301-0.901,1.869-1.753,1.869c-0.953,0-1.687-0.698-1.687-1.811
		c0-1.179,0.77-1.869,1.745-1.869C56.833,373.24,57.517,373.974,57.517,375.05z M54.725,375.086c0,0.771,0.443,1.353,1.069,1.353
		c0.611,0,1.069-0.573,1.069-1.366c0-0.597-0.298-1.354-1.054-1.354C55.051,373.718,54.725,374.417,54.725,375.086z"/>
</g>
<path fill="none" stroke="#231F20" stroke-miterlimit="10" d="M207.338,379.995c0,1.651-1.302,2.99-2.908,2.99h-29.304
	c-1.606,0-2.908-1.339-2.908-2.99V369c0-1.65,1.302-2.99,2.908-2.99h29.304c1.606,0,2.908,1.34,2.908,2.99V379.995z"/>
<g>
	<path fill="#231F20" d="M183.039,371.938v2.051h2.37v-2.051h0.64v4.901h-0.64v-2.298h-2.37v2.298h-0.633v-4.901H183.039z"/>
	<path fill="#231F20" d="M190.309,375.05c0,1.301-0.902,1.869-1.752,1.869c-0.953,0-1.687-0.698-1.687-1.811
		c0-1.179,0.771-1.869,1.745-1.869C189.625,373.24,190.309,373.974,190.309,375.05z M187.516,375.086
		c0,0.771,0.443,1.353,1.069,1.353c0.611,0,1.069-0.573,1.069-1.366c0-0.597-0.297-1.354-1.054-1.354
		C187.843,373.718,187.516,374.417,187.516,375.086z"/>
	<path fill="#231F20" d="M191.115,374.272c0-0.363-0.008-0.661-0.029-0.952h0.56l0.029,0.566h0.022
		c0.196-0.334,0.523-0.646,1.105-0.646c0.48,0,0.843,0.29,0.997,0.705h0.014c0.109-0.196,0.248-0.35,0.393-0.459
		c0.21-0.159,0.443-0.246,0.778-0.246c0.465,0,1.156,0.305,1.156,1.527v2.072h-0.625v-1.993c0-0.676-0.247-1.084-0.763-1.084
		c-0.364,0-0.647,0.271-0.757,0.582c-0.029,0.088-0.051,0.204-0.051,0.32v2.175h-0.625v-2.109c0-0.56-0.248-0.968-0.735-0.968
		c-0.4,0-0.691,0.321-0.792,0.641c-0.036,0.095-0.051,0.204-0.051,0.313v2.123h-0.625V374.272z"/>
	<path fill="#231F20" d="M197.534,375.195c0.015,0.866,0.568,1.222,1.208,1.222c0.458,0,0.734-0.078,0.975-0.181l0.108,0.458
		c-0.225,0.102-0.61,0.218-1.17,0.218c-1.084,0-1.731-0.713-1.731-1.773c0-1.062,0.625-1.898,1.651-1.898
		c1.149,0,1.455,1.011,1.455,1.658c0,0.13-0.015,0.232-0.022,0.297H197.534z M199.41,374.738c0.007-0.408-0.167-1.04-0.887-1.04
		c-0.647,0-0.931,0.596-0.981,1.04H199.41z"/>
</g>
<path fill="none" stroke="#231F20" stroke-miterlimit="10" d="M252.409,379.995c0,1.651-1.302,2.99-2.908,2.99h-29.304
	c-1.606,0-2.908-1.339-2.908-2.99V369c0-1.65,1.302-2.99,2.908-2.99h29.304c1.606,0,2.908,1.34,2.908,2.99V379.995z"/>
<g>
	<path fill="#231F20" d="M227.476,372.003c0.32-0.065,0.778-0.102,1.214-0.102c0.676,0,1.112,0.123,1.418,0.399
		c0.248,0.218,0.385,0.552,0.385,0.931c0,0.646-0.407,1.077-0.924,1.252v0.021c0.378,0.13,0.604,0.479,0.72,0.988
		c0.16,0.684,0.276,1.155,0.378,1.346h-0.654c-0.08-0.139-0.189-0.561-0.328-1.171c-0.145-0.676-0.407-0.931-0.981-0.952h-0.596
		v2.123h-0.633V372.003z M228.109,374.236h0.646c0.677,0,1.105-0.371,1.105-0.931c0-0.633-0.458-0.909-1.127-0.917
		c-0.305,0-0.523,0.03-0.625,0.058V374.236z"/>
	<path fill="#231F20" d="M233.401,376.839l-0.05-0.443h-0.022c-0.196,0.276-0.574,0.523-1.077,0.523
		c-0.712,0-1.076-0.503-1.076-1.012c0-0.85,0.756-1.315,2.116-1.308v-0.073c0-0.291-0.08-0.815-0.799-0.815
		c-0.328,0-0.669,0.103-0.917,0.263l-0.146-0.422c0.291-0.189,0.712-0.312,1.156-0.312c1.076,0,1.338,0.734,1.338,1.439v1.316
		c0,0.305,0.015,0.604,0.058,0.844H233.401z M233.307,375.042c-0.698-0.015-1.491,0.108-1.491,0.793
		c0,0.414,0.277,0.611,0.604,0.611c0.458,0,0.749-0.291,0.851-0.589c0.021-0.066,0.036-0.139,0.036-0.204V375.042z"/>
	<path fill="#231F20" d="M234.956,374.272c0-0.363-0.007-0.661-0.029-0.952h0.567l0.036,0.581h0.015
		c0.174-0.334,0.582-0.661,1.164-0.661c0.487,0,1.243,0.29,1.243,1.498v2.102h-0.639v-2.029c0-0.566-0.211-1.04-0.815-1.04
		c-0.421,0-0.749,0.299-0.857,0.655c-0.029,0.08-0.044,0.188-0.044,0.298v2.116h-0.64V374.272z"/>
	<path fill="#231F20" d="M239.624,374.933h0.014c0.087-0.123,0.211-0.275,0.313-0.398l1.033-1.215h0.771l-1.36,1.447l1.548,2.072
		h-0.778l-1.214-1.688l-0.327,0.365v1.323h-0.633v-5.163h0.633V374.933z"/>
</g>
<path fill="none" stroke="#231F20" stroke-miterlimit="10" d="M295.822,379.995c0,1.651-1.301,2.99-2.907,2.99h-29.304
	c-1.606,0-2.908-1.339-2.908-2.99V369c0-1.65,1.302-2.99,2.908-2.99h29.304c1.606,0,2.907,1.34,2.907,2.99V379.995z"/>
<g>
	<path fill="#231F20" d="M271.822,372.476h-1.491v-0.538h3.628v0.538h-1.498v4.363h-0.64V372.476z"/>
	<path fill="#231F20" d="M274.322,375.195c0.014,0.866,0.566,1.222,1.207,1.222c0.458,0,0.734-0.078,0.974-0.181l0.11,0.458
		c-0.226,0.102-0.611,0.218-1.171,0.218c-1.083,0-1.731-0.713-1.731-1.773c0-1.062,0.625-1.898,1.651-1.898
		c1.149,0,1.455,1.011,1.455,1.658c0,0.13-0.015,0.232-0.021,0.297H274.322z M276.198,374.738c0.007-0.408-0.167-1.04-0.887-1.04
		c-0.647,0-0.931,0.596-0.981,1.04H276.198z"/>
	<path fill="#231F20" d="M279.557,376.839l-0.052-0.443h-0.022c-0.196,0.276-0.575,0.523-1.076,0.523
		c-0.713,0-1.077-0.503-1.077-1.012c0-0.85,0.757-1.315,2.117-1.308v-0.073c0-0.291-0.08-0.815-0.8-0.815
		c-0.328,0-0.669,0.103-0.917,0.263l-0.145-0.422c0.291-0.189,0.713-0.312,1.156-0.312c1.077,0,1.338,0.734,1.338,1.439v1.316
		c0,0.305,0.015,0.604,0.059,0.844H279.557z M279.461,375.042c-0.698-0.015-1.49,0.108-1.49,0.793c0,0.414,0.276,0.611,0.604,0.611
		c0.458,0,0.748-0.291,0.85-0.589c0.022-0.066,0.036-0.139,0.036-0.204V375.042z"/>
	<path fill="#231F20" d="M281.111,374.272c0-0.363-0.007-0.661-0.029-0.952h0.561l0.028,0.566h0.023
		c0.196-0.334,0.523-0.646,1.105-0.646c0.479,0,0.842,0.29,0.996,0.705h0.015c0.109-0.196,0.248-0.35,0.393-0.459
		c0.21-0.159,0.443-0.246,0.777-0.246c0.465,0,1.157,0.305,1.157,1.527v2.072h-0.625v-1.993c0-0.676-0.248-1.084-0.765-1.084
		c-0.363,0-0.647,0.271-0.756,0.582c-0.029,0.088-0.05,0.204-0.05,0.32v2.175h-0.625v-2.109c0-0.56-0.247-0.968-0.735-0.968
		c-0.399,0-0.69,0.321-0.792,0.641c-0.036,0.095-0.05,0.204-0.05,0.313v2.123h-0.626V374.272z"/>
</g>
<path fill="none" stroke="#231F20" stroke-miterlimit="10" d="M541.562,379.995c0,1.651-1.302,2.99-2.908,2.99h-29.303
	c-1.606,0-2.909-1.339-2.909-2.99V369c0-1.65,1.303-2.99,2.909-2.99h29.303c1.606,0,2.908,1.34,2.908,2.99V379.995z"/>
<g>
	<path fill="#231F20" d="M516.631,371.997c0.305-0.051,0.705-0.095,1.214-0.095c0.625,0,1.084,0.145,1.374,0.407
		c0.27,0.232,0.43,0.588,0.43,1.025c0,0.444-0.131,0.793-0.38,1.047c-0.333,0.356-0.879,0.537-1.498,0.537
		c-0.188,0-0.363-0.007-0.507-0.042v1.963h-0.633V371.997z M517.264,374.36c0.138,0.035,0.311,0.05,0.522,0.05
		c0.765,0,1.229-0.37,1.229-1.047c0-0.646-0.459-0.96-1.157-0.96c-0.276,0-0.486,0.021-0.595,0.052V374.36z"/>
	<path fill="#231F20" d="M520.359,374.417c0-0.415-0.008-0.771-0.029-1.098h0.561l0.021,0.691h0.028
		c0.16-0.474,0.547-0.771,0.976-0.771c0.073,0,0.122,0.007,0.181,0.022v0.603c-0.064-0.014-0.13-0.021-0.218-0.021
		c-0.45,0-0.771,0.342-0.857,0.821c-0.015,0.087-0.029,0.189-0.029,0.298v1.877h-0.633V374.417z"/>
	<path fill="#231F20" d="M525.849,375.05c0,1.301-0.9,1.869-1.753,1.869c-0.951,0-1.687-0.698-1.687-1.811
		c0-1.179,0.771-1.869,1.745-1.869C525.166,373.24,525.849,373.974,525.849,375.05z M523.057,375.086
		c0,0.771,0.443,1.353,1.069,1.353c0.61,0,1.068-0.573,1.068-1.366c0-0.597-0.298-1.354-1.054-1.354
		C523.384,373.718,523.057,374.417,523.057,375.086z"/>
	<path fill="#231F20" d="M526.722,376.839v-3.033h-0.495v-0.486h0.495v-0.189c0-0.931,0.544-1.534,1.533-1.534
		c0.327,0,0.713,0.101,0.895,0.232l-0.182,0.487c-0.152-0.109-0.43-0.203-0.742-0.203c-0.676,0-0.872,0.473-0.872,1.033v0.174h2.043
		v3.52h-0.633v-3.033h-1.41v3.033H526.722z"/>
	<path fill="#231F20" d="M530.457,371.676h0.64v5.163h-0.64V371.676z"/>
	<path fill="#231F20" d="M532.529,375.195c0.015,0.866,0.566,1.222,1.207,1.222c0.458,0,0.735-0.078,0.975-0.181l0.108,0.458
		c-0.225,0.102-0.61,0.218-1.17,0.218c-1.084,0-1.73-0.713-1.73-1.773c0-1.062,0.625-1.898,1.65-1.898
		c1.148,0,1.453,1.011,1.453,1.658c0,0.13-0.014,0.232-0.021,0.297H532.529z M534.406,374.738c0.006-0.408-0.168-1.04-0.889-1.04
		c-0.646,0-0.931,0.596-0.981,1.04H534.406z"/>
</g>
<rect x="20.06" y="283.058" fill="#231F20" width="574.071" height="40.286"/>
<rect x="17.731" y="632.173" fill="#231F20" width="575.528" height="40.388"/>
<rect x="20.06" y="15.963" fill="none" stroke="#231F20" stroke-miterlimit="10" width="574.071" height="307.38"/>
<rect x="64.001" y="67.751" fill="none" stroke="#231F20" stroke-miterlimit="10" width="493.843" height="202.597"/>
<rect x="64.001" y="50.235" fill="none" stroke="#231F20" stroke-miterlimit="10" width="63.056" height="17.516"/>
<g>
	<path fill="#231F20" d="M80.316,55.774c0.305-0.051,0.704-0.094,1.211-0.094c0.624,0,1.081,0.145,1.371,0.406
		c0.269,0.232,0.428,0.587,0.428,1.023c0,0.442-0.131,0.791-0.377,1.044c-0.334,0.354-0.878,0.537-1.494,0.537
		c-0.188,0-0.363-0.007-0.508-0.043v1.958h-0.631V55.774z M80.947,58.131c0.138,0.037,0.312,0.051,0.522,0.051
		c0.762,0,1.226-0.37,1.226-1.044c0-0.646-0.458-0.958-1.153-0.958c-0.275,0-0.486,0.021-0.595,0.05V58.131z"/>
	<path fill="#231F20" d="M84.327,58.965c0.015,0.863,0.565,1.219,1.204,1.219c0.457,0,0.732-0.08,0.972-0.182l0.109,0.457
		c-0.225,0.102-0.609,0.218-1.167,0.218c-1.081,0-1.727-0.711-1.727-1.77c0-1.06,0.624-1.894,1.646-1.894
		c1.146,0,1.451,1.008,1.451,1.654c0,0.13-0.015,0.232-0.022,0.297H84.327z M86.198,58.508c0.007-0.406-0.167-1.037-0.885-1.037
		c-0.646,0-0.929,0.595-0.979,1.037H86.198z"/>
	<path fill="#231F20" d="M87.604,58.189c0-0.414-0.007-0.769-0.029-1.095h0.559l0.021,0.689h0.029
		c0.159-0.471,0.544-0.769,0.972-0.769c0.073,0,0.124,0.007,0.182,0.021v0.603c-0.065-0.015-0.131-0.022-0.217-0.022
		c-0.45,0-0.769,0.341-0.856,0.82c-0.015,0.087-0.029,0.189-0.029,0.297v1.872h-0.631V58.189z"/>
	<path fill="#231F20" d="M89.888,59.952c0.188,0.124,0.521,0.254,0.841,0.254c0.464,0,0.681-0.232,0.681-0.522
		c0-0.306-0.181-0.472-0.652-0.646c-0.631-0.224-0.929-0.572-0.929-0.993c0-0.566,0.457-1.03,1.211-1.03
		c0.355,0,0.667,0.101,0.863,0.218l-0.16,0.464c-0.137-0.087-0.392-0.204-0.718-0.204c-0.377,0-0.588,0.218-0.588,0.479
		c0,0.29,0.21,0.42,0.667,0.594c0.609,0.232,0.921,0.537,0.921,1.06c0,0.616-0.479,1.051-1.313,1.051
		c-0.384,0-0.74-0.094-0.986-0.239L89.888,59.952z"/>
	<path fill="#231F20" d="M96.024,58.821c0,1.297-0.9,1.864-1.749,1.864c-0.95,0-1.683-0.697-1.683-1.807
		c0-1.175,0.769-1.864,1.741-1.864C95.341,57.014,96.024,57.747,96.024,58.821z M93.238,58.857c0,0.769,0.442,1.349,1.066,1.349
		c0.609,0,1.066-0.574,1.066-1.364c0-0.594-0.297-1.349-1.051-1.349C93.564,57.493,93.238,58.189,93.238,58.857z"/>
	<path fill="#231F20" d="M96.828,58.044c0-0.362-0.008-0.66-0.03-0.95h0.566l0.036,0.58h0.015c0.174-0.333,0.581-0.66,1.161-0.66
		c0.486,0,1.241,0.291,1.241,1.494v2.097h-0.639v-2.024c0-0.566-0.21-1.037-0.812-1.037c-0.42,0-0.747,0.298-0.856,0.652
		c-0.029,0.08-0.043,0.189-0.043,0.297v2.111h-0.638V58.044z"/>
	<path fill="#231F20" d="M102.796,60.605l-0.05-0.443h-0.022c-0.196,0.276-0.573,0.523-1.073,0.523
		c-0.711,0-1.074-0.501-1.074-1.009c0-0.849,0.754-1.313,2.11-1.305v-0.073c0-0.291-0.08-0.812-0.798-0.812
		c-0.326,0-0.667,0.101-0.914,0.261l-0.146-0.42c0.291-0.189,0.711-0.312,1.153-0.312c1.074,0,1.335,0.732,1.335,1.436v1.313
		c0,0.304,0.014,0.602,0.058,0.841H102.796z M102.702,58.813c-0.696-0.015-1.487,0.108-1.487,0.791c0,0.414,0.276,0.609,0.603,0.609
		c0.457,0,0.747-0.291,0.849-0.587c0.021-0.065,0.036-0.138,0.036-0.203V58.813z"/>
	<path fill="#231F20" d="M104.347,55.455h0.639v5.15h-0.639V55.455z"/>
</g>
<rect x="127.057" y="50.235" fill="none" stroke="#231F20" stroke-miterlimit="10" width="63.056" height="17.516"/>
<g>
	<path fill="#231F20" d="M136.126,56.252h-1.487v-0.536h3.62v0.536h-1.495v4.353h-0.638V56.252z"/>
	<path fill="#231F20" d="M138.454,58.189c0-0.414-0.007-0.769-0.029-1.095h0.559l0.022,0.689h0.029
		c0.159-0.471,0.543-0.769,0.972-0.769c0.072,0,0.124,0.007,0.182,0.021v0.603c-0.065-0.015-0.131-0.022-0.218-0.022
		c-0.449,0-0.768,0.341-0.855,0.82c-0.015,0.087-0.029,0.189-0.029,0.297v1.872h-0.631V58.189z"/>
	<path fill="#231F20" d="M141.108,58.965c0.014,0.863,0.565,1.219,1.204,1.219c0.457,0,0.732-0.08,0.972-0.182l0.109,0.457
		c-0.225,0.102-0.609,0.218-1.168,0.218c-1.081,0-1.726-0.711-1.726-1.77c0-1.06,0.624-1.894,1.646-1.894
		c1.146,0,1.451,1.008,1.451,1.654c0,0.13-0.015,0.232-0.022,0.297H141.108z M142.979,58.508c0.007-0.406-0.167-1.037-0.885-1.037
		c-0.646,0-0.929,0.595-0.979,1.037H142.979z"/>
	<path fill="#231F20" d="M144.741,58.965c0.015,0.863,0.566,1.219,1.204,1.219c0.458,0,0.732-0.08,0.972-0.182l0.109,0.457
		c-0.225,0.102-0.609,0.218-1.168,0.218c-1.081,0-1.726-0.711-1.726-1.77c0-1.06,0.624-1.894,1.646-1.894
		c1.146,0,1.451,1.008,1.451,1.654c0,0.13-0.015,0.232-0.022,0.297H144.741z M146.612,58.508c0.008-0.406-0.167-1.037-0.884-1.037
		c-0.646,0-0.929,0.595-0.979,1.037H146.612z"/>
	<path fill="#231F20" d="M153.697,58.458c-0.036-0.682-0.08-1.501-0.073-2.11h-0.021c-0.167,0.572-0.371,1.182-0.617,1.856
		l-0.863,2.372h-0.479l-0.791-2.328c-0.232-0.689-0.427-1.32-0.565-1.9h-0.015c-0.015,0.609-0.051,1.429-0.094,2.161l-0.13,2.097
		h-0.602l0.341-4.889h0.805l0.834,2.364c0.203,0.603,0.37,1.139,0.493,1.646h0.022c0.124-0.492,0.297-1.029,0.515-1.646l0.87-2.364
		h0.805l0.305,4.889h-0.617L153.697,58.458z"/>
	<path fill="#231F20" d="M157.373,60.605l-0.05-0.443h-0.021c-0.196,0.276-0.574,0.523-1.074,0.523c-0.71,0-1.073-0.501-1.073-1.009
		c0-0.849,0.754-1.313,2.11-1.305v-0.073c0-0.291-0.08-0.812-0.798-0.812c-0.326,0-0.667,0.101-0.914,0.261l-0.145-0.42
		c0.29-0.189,0.71-0.312,1.153-0.312c1.073,0,1.335,0.732,1.335,1.436v1.313c0,0.304,0.015,0.602,0.058,0.841H157.373z
		 M157.279,58.813c-0.697-0.015-1.487,0.108-1.487,0.791c0,0.414,0.275,0.609,0.602,0.609c0.457,0,0.748-0.291,0.849-0.587
		c0.022-0.065,0.037-0.138,0.037-0.203V58.813z"/>
	<path fill="#231F20" d="M158.924,58.044c0-0.362-0.008-0.66-0.029-0.95h0.566l0.036,0.58h0.015c0.174-0.333,0.581-0.66,1.161-0.66
		c0.486,0,1.24,0.291,1.24,1.494v2.097h-0.638v-2.024c0-0.566-0.21-1.037-0.812-1.037c-0.421,0-0.748,0.298-0.856,0.652
		c-0.029,0.08-0.043,0.189-0.043,0.297v2.111h-0.638V58.044z"/>
	<path fill="#231F20" d="M164.893,60.605l-0.051-0.443h-0.022c-0.195,0.276-0.573,0.523-1.073,0.523
		c-0.711,0-1.074-0.501-1.074-1.009c0-0.849,0.754-1.313,2.111-1.305v-0.073c0-0.291-0.08-0.812-0.798-0.812
		c-0.326,0-0.667,0.101-0.914,0.261l-0.146-0.42c0.29-0.189,0.711-0.312,1.153-0.312c1.074,0,1.334,0.732,1.334,1.436v1.313
		c0,0.304,0.015,0.602,0.058,0.841H164.893z M164.798,58.813c-0.697-0.015-1.487,0.108-1.487,0.791c0,0.414,0.275,0.609,0.602,0.609
		c0.458,0,0.748-0.291,0.849-0.587c0.022-0.065,0.036-0.138,0.036-0.203V58.813z"/>
	<path fill="#231F20" d="M169.469,57.094c-0.015,0.254-0.029,0.536-0.029,0.964v2.039c0,0.805-0.16,1.298-0.5,1.603
		c-0.341,0.319-0.834,0.42-1.277,0.42c-0.42,0-0.885-0.101-1.168-0.29l0.16-0.486c0.232,0.146,0.595,0.275,1.031,0.275
		c0.652,0,1.131-0.341,1.131-1.226v-0.392h-0.015c-0.196,0.327-0.573,0.587-1.117,0.587c-0.871,0-1.495-0.74-1.495-1.711
		c0-1.19,0.776-1.864,1.581-1.864c0.609,0,0.943,0.319,1.096,0.609h0.014l0.029-0.529H169.469z M168.809,58.479
		c0-0.108-0.007-0.204-0.037-0.29c-0.116-0.37-0.428-0.675-0.892-0.675c-0.609,0-1.044,0.516-1.044,1.328
		c0,0.69,0.348,1.262,1.037,1.262c0.392,0,0.748-0.246,0.885-0.653c0.036-0.108,0.051-0.232,0.051-0.34V58.479z"/>
	<path fill="#231F20" d="M170.853,58.965c0.015,0.863,0.565,1.219,1.204,1.219c0.457,0,0.732-0.08,0.972-0.182l0.109,0.457
		c-0.225,0.102-0.609,0.218-1.168,0.218c-1.081,0-1.726-0.711-1.726-1.77c0-1.06,0.624-1.894,1.646-1.894
		c1.146,0,1.45,1.008,1.45,1.654c0,0.13-0.014,0.232-0.021,0.297H170.853z M172.725,58.508c0.007-0.406-0.167-1.037-0.886-1.037
		c-0.646,0-0.928,0.595-0.979,1.037H172.725z"/>
	<path fill="#231F20" d="M174.13,58.189c0-0.414-0.007-0.769-0.029-1.095h0.559l0.022,0.689h0.029
		c0.16-0.471,0.544-0.769,0.972-0.769c0.072,0,0.124,0.007,0.181,0.021v0.603c-0.065-0.015-0.13-0.022-0.218-0.022
		c-0.449,0-0.769,0.341-0.855,0.82c-0.015,0.087-0.029,0.189-0.029,0.297v1.872h-0.631V58.189z"/>
</g>
<rect x="337.107" y="77.6" fill="none" stroke="#231F20" stroke-miterlimit="10" width="208.558" height="153.892"/>
<g>
	<path fill="#231F20" d="M407.007,136.037c0-0.967-0.02-1.759-0.078-2.533h1.488l0.078,1.508h0.059
		c0.521-0.89,1.393-1.721,2.938-1.721c1.277,0,2.245,0.773,2.65,1.876h0.039c0.29-0.522,0.657-0.928,1.044-1.218
		c0.561-0.425,1.18-0.658,2.07-0.658c1.237,0,3.074,0.812,3.074,4.062v5.511h-1.663v-5.299c0-1.798-0.657-2.881-2.03-2.881
		c-0.966,0-1.722,0.716-2.012,1.547c-0.078,0.232-0.137,0.542-0.137,0.851v5.783h-1.663v-5.608c0-1.489-0.657-2.572-1.952-2.572
		c-1.062,0-1.838,0.851-2.108,1.702c-0.097,0.252-0.135,0.542-0.135,0.832v5.646h-1.662V136.037z"/>
	<path fill="#231F20" d="M428.316,142.863l-0.137-1.18h-0.057c-0.522,0.735-1.528,1.393-2.861,1.393
		c-1.896,0-2.864-1.334-2.864-2.688c0-2.263,2.012-3.5,5.629-3.481v-0.193c0-0.774-0.214-2.166-2.127-2.166
		c-0.871,0-1.78,0.271-2.438,0.696l-0.387-1.122c0.773-0.503,1.895-0.832,3.074-0.832c2.862,0,3.56,1.954,3.56,3.83v3.5
		c0,0.812,0.037,1.605,0.153,2.243H428.316z M428.064,138.086c-1.856-0.038-3.964,0.291-3.964,2.108
		c0,1.102,0.734,1.625,1.604,1.625c1.218,0,1.992-0.774,2.263-1.567c0.059-0.174,0.097-0.368,0.097-0.542V138.086z"/>
	<path fill="#231F20" d="M432.453,136.559c0-1.2-0.038-2.166-0.078-3.056h1.529l0.077,1.604h0.038c0.697-1.14,1.8-1.817,3.326-1.817
		c2.264,0,3.966,1.915,3.966,4.758c0,3.364-2.051,5.028-4.256,5.028c-1.236,0-2.32-0.542-2.881-1.47h-0.04v5.087h-1.682V136.559z
		 M434.135,139.053c0,0.251,0.04,0.483,0.078,0.697c0.311,1.179,1.335,1.992,2.553,1.992c1.8,0,2.844-1.47,2.844-3.616
		c0-1.875-0.987-3.481-2.785-3.481c-1.16,0-2.244,0.832-2.571,2.108c-0.06,0.212-0.118,0.464-0.118,0.696V139.053z"/>
</g>
<rect x="337.107" y="238.744" fill="none" stroke="#231F20" stroke-miterlimit="10" width="208.558" height="22.56"/>
<g>
	<path fill="#231F20" d="M366.013,244.278h5.264v1.059h-4.001v3.248h3.698v1.043h-3.698v4.423h-1.263V244.278z"/>
	<path fill="#231F20" d="M374.076,245.061c0.016,0.435-0.303,0.784-0.811,0.784c-0.449,0-0.77-0.349-0.77-0.784
		c0-0.449,0.334-0.797,0.798-0.797C373.773,244.264,374.076,244.612,374.076,245.061z M372.656,254.052v-7.018h1.276v7.018H372.656z
		"/>
	<path fill="#231F20" d="M376.05,243.756h1.276v10.295h-1.276V243.756z"/>
	<path fill="#231F20" d="M381.01,245.018v2.016h1.826v0.972h-1.826v3.785c0,0.87,0.246,1.362,0.956,1.362
		c0.334,0,0.581-0.042,0.739-0.087l0.06,0.958c-0.247,0.101-0.639,0.174-1.131,0.174c-0.595,0-1.074-0.189-1.379-0.538
		c-0.362-0.376-0.493-1-0.493-1.827v-3.828h-1.087v-0.972h1.087v-1.682L381.01,245.018z"/>
	<path fill="#231F20" d="M384.896,250.775c0.029,1.725,1.131,2.436,2.407,2.436c0.913,0,1.464-0.16,1.942-0.363l0.218,0.914
		c-0.449,0.203-1.218,0.436-2.335,0.436c-2.16,0-3.451-1.421-3.451-3.539c0-2.118,1.248-3.785,3.293-3.785
		c2.29,0,2.9,2.015,2.9,3.307c0,0.261-0.029,0.463-0.045,0.594H384.896z M388.638,249.862c0.014-0.812-0.334-2.075-1.77-2.075
		c-1.291,0-1.855,1.189-1.957,2.075H388.638z"/>
	<path fill="#231F20" d="M391.452,249.223c0-0.827-0.015-1.538-0.059-2.189h1.116l0.044,1.377h0.058
		c0.318-0.942,1.087-1.537,1.943-1.537c0.145,0,0.246,0.014,0.362,0.043v1.204c-0.131-0.029-0.26-0.044-0.436-0.044
		c-0.898,0-1.536,0.682-1.71,1.638c-0.029,0.174-0.058,0.377-0.058,0.595v3.741h-1.262V249.223z"/>
</g>
<rect x="337.107" y="238.744" fill="none" stroke="#231F20" stroke-miterlimit="10" width="84.875" height="22.56"/>
<rect x="81.598" y="88.075" fill="none" stroke="#231F20" stroke-miterlimit="10" width="50.761" height="50.76"/>
<rect x="160.727" y="88.075" fill="none" stroke="#231F20" stroke-miterlimit="10" width="50.76" height="50.76"/>
<rect x="244.002" y="88.075" fill="none" stroke="#231F20" stroke-miterlimit="10" width="50.759" height="50.76"/>
<rect x="72.834" y="142.863" fill="none" stroke="#231F20" stroke-miterlimit="10" width="66.068" height="16.115"/>
<g>
	<path fill="#231F20" d="M90.46,150.327c0-0.483-0.01-0.88-0.038-1.267h0.753l0.049,0.774h0.019c0.232-0.444,0.774-0.88,1.547-0.88
		c0.648,0,1.654,0.386,1.654,1.992v2.794h-0.852v-2.697c0-0.754-0.28-1.383-1.083-1.383c-0.561,0-0.996,0.396-1.141,0.87
		c-0.039,0.106-0.058,0.251-0.058,0.397v2.813H90.46V150.327z"/>
	<path fill="#231F20" d="M98.417,153.74l-0.068-0.589h-0.029c-0.261,0.368-0.764,0.696-1.431,0.696
		c-0.948,0-1.431-0.667-1.431-1.344c0-1.131,1.005-1.75,2.813-1.74v-0.097c0-0.387-0.106-1.083-1.064-1.083
		c-0.435,0-0.889,0.135-1.218,0.348l-0.193-0.561c0.387-0.251,0.948-0.416,1.537-0.416c1.431,0,1.78,0.977,1.78,1.914v1.75
		c0,0.406,0.019,0.803,0.077,1.121H98.417z M98.292,151.352c-0.929-0.019-1.982,0.146-1.982,1.055c0,0.551,0.367,0.812,0.802,0.812
		c0.609,0,0.997-0.387,1.131-0.783c0.029-0.087,0.049-0.184,0.049-0.271V151.352z"/>
	<path fill="#231F20" d="M100.486,150.327c0-0.483-0.01-0.88-0.039-1.267h0.745l0.039,0.754h0.029c0.261-0.445,0.696-0.86,1.47-0.86
		c0.638,0,1.121,0.386,1.324,0.938h0.02c0.145-0.261,0.329-0.464,0.522-0.609c0.281-0.212,0.59-0.329,1.035-0.329
		c0.619,0,1.537,0.406,1.537,2.031v2.755h-0.831v-2.648c0-0.899-0.329-1.441-1.015-1.441c-0.484,0-0.861,0.358-1.006,0.773
		c-0.038,0.116-0.067,0.271-0.067,0.425v2.891h-0.832v-2.804c0-0.744-0.329-1.286-0.977-1.286c-0.532,0-0.918,0.425-1.054,0.851
		c-0.048,0.125-0.067,0.27-0.067,0.416v2.822h-0.832V150.327z"/>
	<path fill="#231F20" d="M109.024,151.555c0.019,1.15,0.754,1.625,1.605,1.625c0.609,0,0.977-0.106,1.295-0.242l0.145,0.608
		c-0.3,0.136-0.812,0.291-1.556,0.291c-1.441,0-2.301-0.947-2.301-2.359s0.831-2.524,2.194-2.524c1.528,0,1.934,1.344,1.934,2.205
		c0,0.174-0.02,0.309-0.029,0.396H109.024z M111.519,150.946c0.01-0.541-0.222-1.383-1.18-1.383c-0.86,0-1.238,0.793-1.306,1.383
		H111.519z"/>
</g>
<rect x="153.073" y="142.46" fill="none" stroke="#231F20" stroke-miterlimit="10" width="66.068" height="16.115"/>
<g>
	<path fill="#231F20" d="M170.699,149.924c0-0.483-0.009-0.88-0.039-1.267h0.754l0.049,0.773h0.02
		c0.231-0.444,0.773-0.88,1.547-0.88c0.648,0,1.654,0.386,1.654,1.992v2.794h-0.851v-2.698c0-0.753-0.28-1.382-1.083-1.382
		c-0.561,0-0.996,0.396-1.141,0.87c-0.039,0.106-0.058,0.251-0.058,0.397v2.814h-0.852V149.924z"/>
	<path fill="#231F20" d="M178.656,153.338l-0.068-0.59h-0.029c-0.261,0.367-0.764,0.696-1.431,0.696
		c-0.947,0-1.431-0.667-1.431-1.344c0-1.131,1.005-1.75,2.813-1.74v-0.097c0-0.386-0.106-1.083-1.063-1.083
		c-0.435,0-0.89,0.135-1.218,0.348l-0.193-0.561c0.386-0.251,0.948-0.416,1.537-0.416c1.431,0,1.779,0.977,1.779,1.915v1.75
		c0,0.406,0.02,0.803,0.077,1.122H178.656z M178.531,150.95c-0.929-0.02-1.983,0.144-1.983,1.053c0,0.552,0.368,0.812,0.803,0.812
		c0.609,0,0.997-0.386,1.131-0.782c0.029-0.087,0.049-0.184,0.049-0.271V150.95z"/>
	<path fill="#231F20" d="M180.725,149.924c0-0.483-0.01-0.88-0.039-1.267h0.745l0.039,0.754h0.029c0.261-0.445,0.696-0.86,1.47-0.86
		c0.638,0,1.122,0.386,1.325,0.938h0.02c0.145-0.261,0.329-0.464,0.522-0.609c0.28-0.213,0.59-0.329,1.035-0.329
		c0.619,0,1.537,0.406,1.537,2.031v2.756h-0.831v-2.65c0-0.899-0.329-1.441-1.015-1.441c-0.483,0-0.861,0.358-1.006,0.774
		c-0.038,0.116-0.067,0.271-0.067,0.425v2.892h-0.831v-2.805c0-0.744-0.329-1.286-0.977-1.286c-0.532,0-0.918,0.426-1.054,0.851
		c-0.049,0.126-0.068,0.271-0.068,0.416v2.824h-0.832V149.924z"/>
	<path fill="#231F20" d="M189.263,151.152c0.019,1.15,0.754,1.625,1.605,1.625c0.609,0,0.977-0.106,1.295-0.242l0.145,0.609
		c-0.3,0.136-0.812,0.291-1.557,0.291c-1.441,0-2.301-0.948-2.301-2.359c0-1.413,0.832-2.524,2.195-2.524
		c1.528,0,1.934,1.344,1.934,2.205c0,0.174-0.019,0.31-0.029,0.396H189.263z M191.757,150.543c0.01-0.542-0.223-1.383-1.18-1.383
		c-0.86,0-1.237,0.793-1.305,1.383H191.757z"/>
</g>
<rect x="231.963" y="142.46" fill="none" stroke="#231F20" stroke-miterlimit="10" width="66.068" height="16.115"/>
<g>
	<path fill="#231F20" d="M249.588,149.924c0-0.483-0.009-0.88-0.039-1.267h0.754l0.048,0.773h0.02
		c0.232-0.444,0.773-0.88,1.547-0.88c0.648,0,1.654,0.386,1.654,1.992v2.794h-0.851v-2.698c0-0.753-0.28-1.382-1.083-1.382
		c-0.561,0-0.996,0.396-1.141,0.87c-0.039,0.106-0.058,0.251-0.058,0.397v2.814h-0.851V149.924z"/>
	<path fill="#231F20" d="M257.546,153.338l-0.067-0.59h-0.029c-0.261,0.367-0.764,0.696-1.431,0.696
		c-0.947,0-1.431-0.667-1.431-1.344c0-1.131,1.005-1.75,2.813-1.74v-0.097c0-0.386-0.106-1.083-1.063-1.083
		c-0.435,0-0.89,0.135-1.218,0.348l-0.193-0.561c0.386-0.251,0.948-0.416,1.537-0.416c1.432,0,1.779,0.977,1.779,1.915v1.75
		c0,0.406,0.02,0.803,0.077,1.122H257.546z M257.42,150.95c-0.928-0.02-1.982,0.144-1.982,1.053c0,0.552,0.368,0.812,0.802,0.812
		c0.609,0,0.997-0.386,1.132-0.782c0.029-0.087,0.048-0.184,0.048-0.271V150.95z"/>
	<path fill="#231F20" d="M259.615,149.924c0-0.483-0.01-0.88-0.039-1.267h0.745l0.039,0.754h0.029c0.261-0.445,0.696-0.86,1.47-0.86
		c0.639,0,1.122,0.386,1.325,0.938h0.019c0.145-0.261,0.329-0.464,0.522-0.609c0.28-0.213,0.59-0.329,1.035-0.329
		c0.62,0,1.538,0.406,1.538,2.031v2.756h-0.832v-2.65c0-0.899-0.329-1.441-1.015-1.441c-0.483,0-0.86,0.358-1.006,0.774
		c-0.038,0.116-0.068,0.271-0.068,0.425v2.892h-0.831v-2.805c0-0.744-0.329-1.286-0.977-1.286c-0.532,0-0.918,0.426-1.054,0.851
		c-0.049,0.126-0.067,0.271-0.067,0.416v2.824h-0.832V149.924z"/>
	<path fill="#231F20" d="M268.152,151.152c0.019,1.15,0.754,1.625,1.605,1.625c0.609,0,0.977-0.106,1.295-0.242l0.146,0.609
		c-0.3,0.136-0.812,0.291-1.557,0.291c-1.44,0-2.301-0.948-2.301-2.359c0-1.413,0.832-2.524,2.195-2.524
		c1.528,0,1.934,1.344,1.934,2.205c0,0.174-0.019,0.31-0.029,0.396H268.152z M270.647,150.543c0.01-0.542-0.223-1.383-1.18-1.383
		c-0.86,0-1.237,0.793-1.305,1.383H270.647z"/>
</g>
<rect x="82.272" y="173.883" fill="none" stroke="#231F20" stroke-miterlimit="10" width="50.76" height="50.761"/>
<rect x="161.402" y="173.883" fill="none" stroke="#231F20" stroke-miterlimit="10" width="50.76" height="50.761"/>
<rect x="244.677" y="173.883" fill="none" stroke="#231F20" stroke-miterlimit="10" width="50.76" height="50.761"/>
<rect x="73.509" y="228.672" fill="none" stroke="#231F20" stroke-miterlimit="10" width="66.068" height="16.115"/>
<g>
	<path fill="#231F20" d="M91.135,236.136c0-0.485-0.01-0.88-0.039-1.267h0.754l0.048,0.773h0.02c0.232-0.444,0.773-0.88,1.547-0.88
		c0.648,0,1.654,0.386,1.654,1.992v2.794h-0.851v-2.698c0-0.753-0.28-1.382-1.083-1.382c-0.561,0-0.996,0.396-1.141,0.87
		c-0.039,0.106-0.058,0.251-0.058,0.396v2.813h-0.851V236.136z"/>
	<path fill="#231F20" d="M99.092,239.549l-0.068-0.59h-0.029c-0.261,0.368-0.764,0.697-1.431,0.697
		c-0.947,0-1.431-0.667-1.431-1.344c0-1.131,1.006-1.751,2.814-1.741v-0.097c0-0.387-0.106-1.083-1.064-1.083
		c-0.435,0-0.89,0.135-1.218,0.348l-0.193-0.561c0.387-0.251,0.948-0.416,1.538-0.416c1.431,0,1.779,0.977,1.779,1.915v1.75
		c0,0.406,0.02,0.802,0.078,1.122H99.092z M98.966,237.16c-0.928-0.019-1.982,0.146-1.982,1.055c0,0.551,0.367,0.812,0.802,0.812
		c0.609,0,0.997-0.386,1.132-0.783c0.029-0.088,0.048-0.184,0.048-0.271V237.16z"/>
	<path fill="#231F20" d="M101.161,236.136c0-0.485-0.01-0.88-0.039-1.267h0.745l0.039,0.754h0.029c0.261-0.445,0.697-0.86,1.47-0.86
		c0.638,0,1.122,0.386,1.325,0.938h0.019c0.145-0.261,0.329-0.464,0.522-0.609c0.28-0.213,0.59-0.329,1.035-0.329
		c0.619,0,1.537,0.406,1.537,2.03v2.756h-0.832V236.9c0-0.899-0.329-1.442-1.015-1.442c-0.483,0-0.86,0.359-1.006,0.774
		c-0.038,0.116-0.067,0.271-0.067,0.425v2.892h-0.832v-2.804c0-0.744-0.329-1.287-0.977-1.287c-0.532,0-0.918,0.427-1.054,0.852
		c-0.049,0.125-0.067,0.271-0.067,0.415v2.824h-0.832V236.136z"/>
	<path fill="#231F20" d="M109.699,237.363c0.019,1.152,0.753,1.625,1.604,1.625c0.609,0,0.977-0.106,1.295-0.242l0.146,0.609
		c-0.3,0.135-0.812,0.29-1.557,0.29c-1.441,0-2.302-0.948-2.302-2.36s0.832-2.523,2.195-2.523c1.528,0,1.935,1.344,1.935,2.205
		c0,0.174-0.02,0.31-0.029,0.396H109.699z M112.193,236.754c0.01-0.542-0.223-1.383-1.18-1.383c-0.86,0-1.237,0.793-1.305,1.383
		H112.193z"/>
</g>
<rect x="153.748" y="228.269" fill="none" stroke="#231F20" stroke-miterlimit="10" width="66.068" height="16.115"/>
<g>
	<path fill="#231F20" d="M171.374,235.733c0-0.483-0.01-0.88-0.039-1.267h0.754l0.048,0.773h0.02c0.232-0.444,0.774-0.88,1.547-0.88
		c0.648,0,1.654,0.386,1.654,1.992v2.795h-0.851v-2.698c0-0.754-0.28-1.383-1.083-1.383c-0.561,0-0.996,0.396-1.141,0.87
		c-0.039,0.106-0.058,0.251-0.058,0.397v2.814h-0.851V235.733z"/>
	<path fill="#231F20" d="M179.331,239.146l-0.068-0.59h-0.029c-0.261,0.367-0.764,0.696-1.432,0.696
		c-0.947,0-1.431-0.667-1.431-1.344c0-1.131,1.006-1.75,2.814-1.74v-0.097c0-0.387-0.106-1.083-1.064-1.083
		c-0.435,0-0.89,0.135-1.218,0.348l-0.193-0.561c0.387-0.251,0.948-0.416,1.538-0.416c1.431,0,1.779,0.977,1.779,1.915v1.75
		c0,0.406,0.019,0.803,0.077,1.122H179.331z M179.205,236.757c-0.928-0.019-1.982,0.146-1.982,1.055c0,0.55,0.368,0.812,0.803,0.812
		c0.609,0,0.996-0.387,1.131-0.783c0.029-0.087,0.048-0.185,0.048-0.271V236.757z"/>
	<path fill="#231F20" d="M181.4,235.733c0-0.483-0.01-0.88-0.039-1.267h0.745l0.039,0.754h0.029c0.262-0.445,0.697-0.86,1.47-0.86
		c0.638,0,1.122,0.386,1.325,0.938h0.019c0.145-0.261,0.329-0.464,0.522-0.609c0.28-0.212,0.59-0.329,1.035-0.329
		c0.619,0,1.538,0.406,1.538,2.03v2.757h-0.832v-2.65c0-0.899-0.329-1.44-1.015-1.44c-0.483,0-0.86,0.358-1.006,0.773
		c-0.038,0.116-0.067,0.271-0.067,0.425v2.892h-0.832v-2.804c0-0.745-0.329-1.286-0.977-1.286c-0.532,0-0.918,0.425-1.054,0.851
		c-0.049,0.125-0.067,0.271-0.067,0.415v2.824H181.4V235.733z"/>
	<path fill="#231F20" d="M189.937,236.961c0.019,1.15,0.754,1.625,1.605,1.625c0.609,0,0.977-0.106,1.295-0.242l0.145,0.61
		c-0.3,0.135-0.812,0.29-1.557,0.29c-1.441,0-2.302-0.948-2.302-2.36s0.832-2.523,2.195-2.523c1.528,0,1.934,1.344,1.934,2.205
		c0,0.174-0.02,0.31-0.029,0.396H189.937z M192.432,236.352c0.01-0.542-0.223-1.382-1.18-1.382c-0.86,0-1.237,0.793-1.305,1.382
		H192.432z"/>
</g>
<rect x="232.638" y="228.269" fill="none" stroke="#231F20" stroke-miterlimit="10" width="66.068" height="16.115"/>
<g>
	<path fill="#231F20" d="M250.263,235.733c0-0.483-0.01-0.88-0.039-1.267h0.754l0.049,0.773h0.019
		c0.232-0.444,0.774-0.88,1.547-0.88c0.648,0,1.654,0.386,1.654,1.992v2.795h-0.851v-2.698c0-0.754-0.28-1.383-1.083-1.383
		c-0.561,0-0.996,0.396-1.141,0.87c-0.039,0.106-0.058,0.251-0.058,0.397v2.814h-0.851V235.733z"/>
	<path fill="#231F20" d="M258.22,239.146l-0.067-0.59h-0.029c-0.261,0.367-0.764,0.696-1.431,0.696
		c-0.947,0-1.431-0.667-1.431-1.344c0-1.131,1.005-1.75,2.813-1.74v-0.097c0-0.387-0.106-1.083-1.063-1.083
		c-0.435,0-0.889,0.135-1.218,0.348l-0.193-0.561c0.386-0.251,0.948-0.416,1.538-0.416c1.431,0,1.779,0.977,1.779,1.915v1.75
		c0,0.406,0.02,0.803,0.078,1.122H258.22z M258.095,236.757c-0.929-0.019-1.983,0.146-1.983,1.055c0,0.55,0.368,0.812,0.803,0.812
		c0.609,0,0.996-0.387,1.131-0.783c0.029-0.087,0.049-0.185,0.049-0.271V236.757z"/>
	<path fill="#231F20" d="M260.29,235.733c0-0.483-0.01-0.88-0.039-1.267h0.745l0.039,0.754h0.029c0.261-0.445,0.696-0.86,1.47-0.86
		c0.638,0,1.122,0.386,1.325,0.938h0.02c0.145-0.261,0.329-0.464,0.522-0.609c0.28-0.212,0.59-0.329,1.034-0.329
		c0.62,0,1.538,0.406,1.538,2.03v2.757h-0.831v-2.65c0-0.899-0.329-1.44-1.016-1.44c-0.483,0-0.86,0.358-1.006,0.773
		c-0.038,0.116-0.067,0.271-0.067,0.425v2.892h-0.831v-2.804c0-0.745-0.329-1.286-0.977-1.286c-0.532,0-0.918,0.425-1.054,0.851
		c-0.048,0.125-0.067,0.271-0.067,0.415v2.824h-0.832V235.733z"/>
	<path fill="#231F20" d="M268.827,236.961c0.02,1.15,0.754,1.625,1.605,1.625c0.609,0,0.977-0.106,1.295-0.242l0.145,0.61
		c-0.3,0.135-0.812,0.29-1.557,0.29c-1.441,0-2.301-0.948-2.301-2.36s0.832-2.523,2.195-2.523c1.528,0,1.934,1.344,1.934,2.205
		c0,0.174-0.02,0.31-0.029,0.396H268.827z M271.321,236.352c0.01-0.542-0.223-1.382-1.18-1.382c-0.861,0-1.237,0.793-1.305,1.382
		H271.321z"/>
</g>
<rect x="121.957" y="254.768" fill="none" stroke="#231F20" stroke-miterlimit="10" width="25.38" height="13.072"/>
<rect x="204.77" y="254.768" fill="none" stroke="#231F20" stroke-miterlimit="10" width="25.38" height="13.072"/>
<rect x="160.727" y="254.768" fill="none" stroke="#231F20" stroke-miterlimit="10" width="25.38" height="13.072"/>
<rect x="240.292" y="254.768" fill="none" stroke="#231F20" stroke-miterlimit="10" width="25.38" height="13.072"/>
<g>
	<path fill="#231F20" d="M127.75,264.526V261h-0.576v-0.567h0.576v-0.22c0-1.083,0.634-1.785,1.785-1.785
		c0.38,0,0.829,0.118,1.04,0.271l-0.211,0.566c-0.178-0.126-0.499-0.236-0.863-0.236c-0.787,0-1.015,0.549-1.015,1.201v0.203h2.377
		v4.094h-0.736V261h-1.641v3.527H127.75z"/>
	<path fill="#231F20" d="M132.099,261.709c0-0.483-0.008-0.896-0.034-1.277h0.652l0.025,0.804h0.034
		c0.186-0.55,0.634-0.896,1.133-0.896c0.084,0,0.144,0.008,0.211,0.025v0.701c-0.076-0.017-0.152-0.024-0.254-0.024
		c-0.524,0-0.896,0.397-0.998,0.956c-0.017,0.102-0.034,0.22-0.034,0.347v2.183h-0.736V261.709z"/>
	<path fill="#231F20" d="M134.764,263.764c0.22,0.145,0.609,0.297,0.981,0.297c0.542,0,0.795-0.271,0.795-0.608
		c0-0.355-0.211-0.55-0.761-0.753c-0.736-0.262-1.083-0.668-1.083-1.159c0-0.659,0.533-1.201,1.413-1.201
		c0.415,0,0.778,0.118,1.007,0.254l-0.186,0.541c-0.161-0.102-0.457-0.237-0.838-0.237c-0.44,0-0.685,0.254-0.685,0.559
		c0,0.339,0.245,0.49,0.778,0.693c0.71,0.271,1.074,0.626,1.074,1.235c0,0.719-0.559,1.226-1.531,1.226
		c-0.448,0-0.862-0.109-1.15-0.278L134.764,263.764z"/>
	<path fill="#231F20" d="M139.112,259.257v1.175h1.065V261h-1.065v2.208c0,0.507,0.144,0.794,0.558,0.794
		c0.195,0,0.338-0.025,0.432-0.05l0.034,0.558c-0.144,0.06-0.372,0.101-0.66,0.101c-0.347,0-0.626-0.109-0.804-0.312
		c-0.211-0.221-0.288-0.584-0.288-1.066V261h-0.634v-0.567h0.634v-0.98L139.112,259.257z"/>
</g>
<g>
	<path fill="#231F20" d="M167.154,261.769c0-0.524-0.017-0.948-0.034-1.336h0.668l0.034,0.702h0.017
		c0.305-0.499,0.787-0.795,1.455-0.795c0.99,0,1.733,0.837,1.733,2.081c0,1.473-0.896,2.2-1.86,2.2
		c-0.542,0-1.015-0.237-1.261-0.644h-0.017v2.225h-0.736V261.769z M167.89,262.86c0,0.11,0.017,0.211,0.034,0.304
		c0.136,0.517,0.583,0.872,1.117,0.872c0.787,0,1.244-0.644,1.244-1.582c0-0.82-0.432-1.522-1.218-1.522
		c-0.507,0-0.981,0.363-1.125,0.922c-0.025,0.092-0.051,0.203-0.051,0.304V262.86z"/>
	<path fill="#231F20" d="M171.968,261.709c0-0.483-0.009-0.896-0.034-1.277h0.651l0.025,0.804h0.034
		c0.186-0.55,0.634-0.896,1.133-0.896c0.085,0,0.144,0.008,0.211,0.025v0.701c-0.076-0.017-0.152-0.024-0.253-0.024
		c-0.524,0-0.897,0.397-0.999,0.956c-0.017,0.102-0.034,0.22-0.034,0.347v2.183h-0.736V261.709z"/>
	<path fill="#231F20" d="M175.064,262.614c0.017,1.007,0.66,1.421,1.404,1.421c0.533,0,0.854-0.093,1.133-0.211l0.127,0.533
		c-0.262,0.119-0.711,0.253-1.362,0.253c-1.26,0-2.013-0.828-2.013-2.063c0-1.234,0.728-2.207,1.92-2.207
		c1.336,0,1.691,1.176,1.691,1.929c0,0.151-0.017,0.27-0.025,0.346H175.064z M177.246,262.082c0.008-0.474-0.194-1.21-1.032-1.21
		c-0.753,0-1.083,0.694-1.142,1.21H177.246z"/>
	<path fill="#231F20" d="M179.176,260.432l0.803,2.301c0.135,0.372,0.246,0.71,0.33,1.048h0.026
		c0.093-0.338,0.211-0.677,0.346-1.048l0.795-2.301h0.778l-1.607,4.094h-0.71l-1.557-4.094H179.176z"/>
</g>
<g>
	<path fill="#231F20" d="M209.857,261.54c0-0.422-0.008-0.769-0.034-1.108h0.66l0.042,0.677h0.017
		c0.203-0.389,0.676-0.77,1.353-0.77c0.567,0,1.447,0.338,1.447,1.743v2.444h-0.744v-2.36c0-0.661-0.246-1.21-0.947-1.21
		c-0.491,0-0.872,0.347-0.998,0.762c-0.034,0.094-0.051,0.22-0.051,0.348v2.461h-0.745V261.54z"/>
	<path fill="#231F20" d="M214.966,262.614c0.017,1.007,0.66,1.421,1.404,1.421c0.533,0,0.854-0.093,1.133-0.211l0.127,0.533
		c-0.262,0.119-0.71,0.253-1.362,0.253c-1.26,0-2.013-0.828-2.013-2.063c0-1.234,0.728-2.207,1.92-2.207
		c1.336,0,1.692,1.176,1.692,1.929c0,0.151-0.017,0.27-0.026,0.346H214.966z M217.149,262.082c0.009-0.474-0.194-1.21-1.032-1.21
		c-0.753,0-1.083,0.694-1.142,1.21H217.149z"/>
	<path fill="#231F20" d="M219.112,260.432l0.584,0.88c0.152,0.228,0.279,0.44,0.415,0.668h0.025
		c0.135-0.246,0.271-0.457,0.406-0.677l0.575-0.871h0.804l-1.396,1.979l1.438,2.115h-0.846l-0.601-0.923
		c-0.16-0.236-0.296-0.464-0.44-0.71h-0.017c-0.136,0.246-0.279,0.465-0.432,0.71l-0.592,0.923h-0.82l1.455-2.089l-1.387-2.005
		H219.112z"/>
	<path fill="#231F20" d="M223.688,259.257v1.175h1.066V261h-1.066v2.208c0,0.507,0.144,0.794,0.559,0.794
		c0.194,0,0.338-0.025,0.431-0.05l0.034,0.558c-0.144,0.06-0.373,0.101-0.66,0.101c-0.347,0-0.626-0.109-0.804-0.312
		c-0.211-0.221-0.288-0.584-0.288-1.066V261h-0.634v-0.567h0.634v-0.98L223.688,259.257z"/>
</g>
<g>
	<path fill="#231F20" d="M245.294,258.521h0.745v6.006h-0.745V258.521z"/>
	<path fill="#231F20" d="M249.557,264.526l-0.059-0.517h-0.026c-0.228,0.322-0.668,0.61-1.251,0.61
		c-0.829,0-1.252-0.584-1.252-1.176c0-0.99,0.88-1.532,2.461-1.522v-0.085c0-0.338-0.093-0.947-0.93-0.947
		c-0.38,0-0.778,0.119-1.065,0.305l-0.169-0.49c0.338-0.221,0.829-0.364,1.345-0.364c1.252,0,1.557,0.854,1.557,1.674v1.531
		c0,0.355,0.017,0.702,0.068,0.981H249.557z M249.447,262.437c-0.812-0.017-1.733,0.127-1.733,0.921
		c0,0.482,0.321,0.711,0.702,0.711c0.533,0,0.871-0.338,0.99-0.685c0.025-0.076,0.042-0.161,0.042-0.237V262.437z"/>
	<path fill="#231F20" d="M251.267,263.764c0.22,0.145,0.609,0.297,0.981,0.297c0.542,0,0.795-0.271,0.795-0.608
		c0-0.355-0.211-0.55-0.761-0.753c-0.736-0.262-1.083-0.668-1.083-1.159c0-0.659,0.533-1.201,1.413-1.201
		c0.414,0,0.778,0.118,1.007,0.254l-0.186,0.541c-0.161-0.102-0.457-0.237-0.838-0.237c-0.44,0-0.685,0.254-0.685,0.559
		c0,0.339,0.245,0.49,0.778,0.693c0.711,0.271,1.074,0.626,1.074,1.235c0,0.719-0.558,1.226-1.531,1.226
		c-0.448,0-0.863-0.109-1.15-0.278L251.267,263.764z"/>
	<path fill="#231F20" d="M255.615,259.257v1.175h1.066V261h-1.066v2.208c0,0.507,0.144,0.794,0.558,0.794
		c0.195,0,0.339-0.025,0.432-0.05l0.033,0.558c-0.144,0.06-0.372,0.101-0.659,0.101c-0.347,0-0.626-0.109-0.804-0.312
		c-0.211-0.221-0.287-0.584-0.287-1.066V261h-0.635v-0.567h0.635v-0.98L255.615,259.257z"/>
</g>
<rect x="190.113" y="50.235" fill="none" stroke="#231F20" stroke-miterlimit="10" width="63.055" height="17.516"/>
<g>
	<path fill="#231F20" d="M212.124,60.605l-0.06-0.516h-0.025c-0.229,0.322-0.668,0.608-1.251,0.608
		c-0.829,0-1.252-0.583-1.252-1.175c0-0.989,0.88-1.531,2.461-1.522v-0.084c0-0.339-0.093-0.948-0.931-0.948
		c-0.38,0-0.778,0.118-1.066,0.304l-0.169-0.49c0.338-0.22,0.829-0.364,1.345-0.364c1.252,0,1.557,0.854,1.557,1.674v1.531
		c0,0.355,0.017,0.702,0.067,0.981H212.124z M212.014,58.516c-0.812-0.017-1.734,0.127-1.734,0.922c0,0.482,0.322,0.71,0.702,0.71
		c0.533,0,0.871-0.338,0.99-0.684c0.025-0.076,0.042-0.161,0.042-0.237V58.516z"/>
	<path fill="#231F20" d="M217.471,54.6v4.948c0,0.364,0.008,0.778,0.033,1.057h-0.668l-0.034-0.71h-0.017
		c-0.229,0.456-0.728,0.802-1.396,0.802c-0.99,0-1.751-0.836-1.751-2.08c-0.008-1.362,0.837-2.199,1.835-2.199
		c0.626,0,1.049,0.296,1.235,0.626h0.017V54.6H217.471z M216.726,58.177c0-0.093-0.008-0.22-0.034-0.313
		c-0.11-0.473-0.516-0.862-1.075-0.862c-0.769,0-1.226,0.677-1.226,1.582c0,0.828,0.406,1.514,1.209,1.514
		c0.499,0,0.956-0.33,1.091-0.888c0.025-0.102,0.034-0.204,0.034-0.321V58.177z"/>
	<path fill="#231F20" d="M222.242,54.6v4.948c0,0.364,0.009,0.778,0.034,1.057h-0.668l-0.034-0.71h-0.017
		c-0.229,0.456-0.728,0.802-1.396,0.802c-0.99,0-1.75-0.836-1.75-2.08c-0.008-1.362,0.837-2.199,1.835-2.199
		c0.626,0,1.049,0.296,1.235,0.626h0.017V54.6H222.242z M221.498,58.177c0-0.093-0.009-0.22-0.034-0.313
		c-0.11-0.473-0.516-0.862-1.074-0.862c-0.77,0-1.226,0.677-1.226,1.582c0,0.828,0.406,1.514,1.209,1.514
		c0.499,0,0.956-0.33,1.091-0.888c0.025-0.102,0.034-0.204,0.034-0.321V58.177z"/>
	<path fill="#231F20" d="M226.168,55.336v1.176h1.066v0.566h-1.066v2.208c0,0.508,0.144,0.796,0.558,0.796
		c0.195,0,0.338-0.026,0.431-0.051l0.034,0.558c-0.144,0.06-0.372,0.102-0.66,0.102c-0.346,0-0.626-0.109-0.803-0.312
		c-0.212-0.221-0.288-0.584-0.288-1.067v-2.232h-0.634v-0.566h0.634V55.53L226.168,55.336z"/>
	<path fill="#231F20" d="M228.071,57.788c0-0.482-0.008-0.896-0.034-1.276h0.652l0.025,0.802h0.034
		c0.186-0.549,0.634-0.896,1.134-0.896c0.084,0,0.143,0.008,0.211,0.025v0.702c-0.076-0.017-0.152-0.025-0.254-0.025
		c-0.524,0-0.896,0.397-0.998,0.956c-0.017,0.101-0.034,0.22-0.034,0.347v2.182h-0.736V57.788z"/>
	<path fill="#231F20" d="M231.167,58.693c0.017,1.007,0.66,1.421,1.404,1.421c0.533,0,0.854-0.094,1.133-0.212l0.127,0.533
		c-0.262,0.119-0.71,0.254-1.362,0.254c-1.26,0-2.013-0.829-2.013-2.064c0-1.234,0.727-2.208,1.92-2.208
		c1.336,0,1.692,1.176,1.692,1.929c0,0.152-0.017,0.271-0.025,0.347H231.167z M233.35,58.16c0.008-0.474-0.195-1.208-1.032-1.208
		c-0.752,0-1.083,0.692-1.142,1.208H233.35z"/>
	<path fill="#231F20" d="M235.406,58.693c0.017,1.007,0.66,1.421,1.404,1.421c0.533,0,0.854-0.094,1.134-0.212l0.127,0.533
		c-0.262,0.119-0.711,0.254-1.362,0.254c-1.261,0-2.013-0.829-2.013-2.064c0-1.234,0.728-2.208,1.92-2.208
		c1.336,0,1.692,1.176,1.692,1.929c0,0.152-0.017,0.271-0.026,0.347H235.406z M237.588,58.16c0.009-0.474-0.194-1.208-1.032-1.208
		c-0.752,0-1.082,0.692-1.142,1.208H237.588z"/>
</g>
<rect x="58.957" y="416.915" fill="none" stroke="#231F20" stroke-miterlimit="10" width="495.096" height="203.109"/>
<rect x="58.957" y="399.355" fill="none" stroke="#231F20" stroke-miterlimit="10" width="63.216" height="17.56"/>
<g>
	<path fill="#231F20" d="M75.313,404.908c0.305-0.052,0.705-0.096,1.214-0.096c0.625,0,1.083,0.146,1.374,0.407
		c0.27,0.232,0.429,0.591,0.429,1.025c0,0.444-0.13,0.793-0.378,1.047c-0.335,0.356-0.88,0.539-1.498,0.539
		c-0.189,0-0.364-0.008-0.509-0.044v1.964h-0.632V404.908z M75.946,407.27c0.138,0.036,0.312,0.052,0.524,0.052
		c0.763,0,1.229-0.372,1.229-1.047c0-0.648-0.458-0.96-1.156-0.96c-0.276,0-0.487,0.021-0.596,0.051V407.27z"/>
	<path fill="#231F20" d="M79.334,408.107c0.014,0.865,0.566,1.223,1.207,1.223c0.458,0,0.734-0.081,0.974-0.184l0.109,0.458
		c-0.225,0.103-0.611,0.219-1.17,0.219c-1.084,0-1.73-0.713-1.73-1.775c0-1.061,0.625-1.897,1.65-1.897
		c1.149,0,1.454,1.012,1.454,1.658c0,0.131-0.014,0.232-0.021,0.299H79.334z M81.21,407.648c0.007-0.406-0.167-1.04-0.888-1.04
		c-0.647,0-0.93,0.598-0.981,1.04H81.21z"/>
	<path fill="#231F20" d="M82.62,407.33c0-0.415-0.007-0.772-0.029-1.099h0.56l0.021,0.69h0.03c0.159-0.473,0.545-0.771,0.974-0.771
		c0.072,0,0.124,0.009,0.182,0.022v0.603c-0.065-0.014-0.131-0.021-0.218-0.021c-0.451,0-0.771,0.343-0.857,0.822
		c-0.015,0.088-0.03,0.188-0.03,0.298v1.877H82.62V407.33z"/>
	<path fill="#231F20" d="M84.909,409.095c0.189,0.124,0.523,0.255,0.844,0.255c0.465,0,0.683-0.232,0.683-0.523
		c0-0.306-0.181-0.473-0.654-0.646c-0.633-0.227-0.931-0.575-0.931-0.998c0-0.567,0.458-1.032,1.214-1.032
		c0.356,0,0.669,0.103,0.865,0.219l-0.16,0.466c-0.138-0.087-0.393-0.203-0.72-0.203c-0.378,0-0.589,0.216-0.589,0.479
		c0,0.292,0.211,0.422,0.669,0.597c0.611,0.232,0.924,0.538,0.924,1.062c0,0.617-0.48,1.054-1.316,1.054
		c-0.385,0-0.742-0.095-0.989-0.239L84.909,409.095z"/>
	<path fill="#231F20" d="M91.061,407.961c0,1.301-0.901,1.868-1.753,1.868c-0.953,0-1.687-0.697-1.687-1.811
		c0-1.178,0.771-1.869,1.746-1.869C90.377,406.15,91.061,406.884,91.061,407.961z M88.268,407.997c0,0.772,0.443,1.354,1.069,1.354
		c0.611,0,1.069-0.575,1.069-1.367c0-0.597-0.299-1.352-1.055-1.352C88.595,406.631,88.268,407.33,88.268,407.997z"/>
	<path fill="#231F20" d="M91.866,407.182c0-0.362-0.007-0.661-0.029-0.951h0.568l0.036,0.581h0.015
		c0.174-0.335,0.582-0.662,1.163-0.662c0.487,0,1.244,0.291,1.244,1.498v2.103h-0.64v-2.029c0-0.567-0.211-1.04-0.814-1.04
		c-0.422,0-0.749,0.299-0.858,0.655c-0.029,0.078-0.044,0.188-0.044,0.298v2.116h-0.64V407.182z"/>
	<path fill="#231F20" d="M97.851,409.75l-0.051-0.444h-0.021c-0.197,0.277-0.575,0.523-1.076,0.523c-0.713,0-1.077-0.5-1.077-1.011
		c0-0.85,0.757-1.315,2.117-1.309v-0.072c0-0.291-0.08-0.814-0.8-0.814c-0.327,0-0.669,0.102-0.916,0.261l-0.146-0.42
		c0.291-0.189,0.713-0.314,1.156-0.314c1.076,0,1.338,0.734,1.338,1.44v1.316c0,0.305,0.014,0.604,0.058,0.844H97.851z
		 M97.756,407.954c-0.698-0.015-1.491,0.11-1.491,0.792c0,0.416,0.276,0.611,0.603,0.611c0.458,0,0.749-0.29,0.852-0.588
		c0.021-0.066,0.036-0.14,0.036-0.204V407.954z"/>
	<path fill="#231F20" d="M99.405,404.586h0.64v5.164h-0.64V404.586z"/>
</g>
<rect x="122.172" y="399.355" fill="none" stroke="#231F20" stroke-miterlimit="10" width="63.216" height="17.56"/>
<g>
	<path fill="#231F20" d="M131.265,405.387h-1.491v-0.538h3.629v0.538h-1.498v4.363h-0.64V405.387z"/>
	<path fill="#231F20" d="M133.598,407.33c0-0.415-0.007-0.772-0.029-1.099h0.561l0.021,0.69h0.03
		c0.159-0.473,0.544-0.771,0.974-0.771c0.073,0,0.124,0.009,0.182,0.022v0.603c-0.065-0.014-0.131-0.021-0.218-0.021
		c-0.451,0-0.771,0.343-0.858,0.822c-0.014,0.088-0.029,0.188-0.029,0.298v1.877h-0.632V407.33z"/>
	<path fill="#231F20" d="M136.26,408.107c0.014,0.865,0.567,1.223,1.207,1.223c0.458,0,0.734-0.081,0.974-0.184l0.109,0.458
		c-0.226,0.103-0.61,0.219-1.171,0.219c-1.083,0-1.731-0.713-1.731-1.775c0-1.061,0.626-1.897,1.651-1.897
		c1.148,0,1.454,1.012,1.454,1.658c0,0.131-0.014,0.232-0.022,0.299H136.26z M138.136,407.648c0.007-0.406-0.168-1.04-0.887-1.04
		c-0.647,0-0.931,0.598-0.982,1.04H138.136z"/>
	<path fill="#231F20" d="M139.901,408.107c0.014,0.865,0.567,1.223,1.207,1.223c0.458,0,0.734-0.081,0.974-0.184l0.109,0.458
		c-0.226,0.103-0.611,0.219-1.17,0.219c-1.084,0-1.731-0.713-1.731-1.775c0-1.061,0.625-1.897,1.651-1.897
		c1.149,0,1.454,1.012,1.454,1.658c0,0.131-0.014,0.232-0.021,0.299H139.901z M141.777,407.648c0.007-0.406-0.167-1.04-0.887-1.04
		c-0.647,0-0.931,0.598-0.982,1.04H141.777z"/>
	<path fill="#231F20" d="M148.88,407.597c-0.036-0.683-0.08-1.505-0.073-2.115h-0.021c-0.167,0.573-0.371,1.185-0.618,1.86
		l-0.866,2.379h-0.479l-0.793-2.335c-0.232-0.689-0.429-1.323-0.567-1.904h-0.015c-0.014,0.61-0.051,1.433-0.094,2.166l-0.131,2.103
		h-0.604l0.342-4.901h0.807l0.836,2.37c0.204,0.604,0.371,1.143,0.494,1.651h0.022c0.124-0.495,0.298-1.033,0.517-1.651l0.873-2.37
		h0.807l0.306,4.901h-0.619L148.88,407.597z"/>
	<path fill="#231F20" d="M152.565,409.75l-0.051-0.444h-0.022c-0.196,0.277-0.575,0.523-1.076,0.523c-0.712,0-1.076-0.5-1.076-1.011
		c0-0.85,0.756-1.315,2.116-1.309v-0.072c0-0.291-0.08-0.814-0.8-0.814c-0.328,0-0.669,0.102-0.917,0.261l-0.146-0.42
		c0.291-0.189,0.712-0.314,1.156-0.314c1.077,0,1.338,0.734,1.338,1.44v1.316c0,0.305,0.014,0.604,0.058,0.844H152.565z
		 M152.471,407.954c-0.698-0.015-1.49,0.11-1.49,0.792c0,0.416,0.276,0.611,0.604,0.611c0.458,0,0.749-0.29,0.851-0.588
		c0.022-0.066,0.036-0.14,0.036-0.204V407.954z"/>
	<path fill="#231F20" d="M154.121,407.182c0-0.362-0.008-0.661-0.029-0.951h0.567l0.037,0.581h0.015
		c0.174-0.335,0.582-0.662,1.164-0.662c0.487,0,1.243,0.291,1.243,1.498v2.103h-0.64v-2.029c0-0.567-0.21-1.04-0.814-1.04
		c-0.422,0-0.749,0.299-0.858,0.655c-0.029,0.078-0.043,0.188-0.043,0.298v2.116h-0.64V407.182z"/>
	<path fill="#231F20" d="M160.104,409.75l-0.051-0.444h-0.022c-0.196,0.277-0.574,0.523-1.076,0.523c-0.712,0-1.076-0.5-1.076-1.011
		c0-0.85,0.756-1.315,2.116-1.309v-0.072c0-0.291-0.08-0.814-0.8-0.814c-0.327,0-0.669,0.102-0.916,0.261l-0.146-0.42
		c0.291-0.189,0.712-0.314,1.156-0.314c1.076,0,1.338,0.734,1.338,1.44v1.316c0,0.305,0.015,0.604,0.058,0.844H160.104z
		 M160.01,407.954c-0.698-0.015-1.491,0.11-1.491,0.792c0,0.416,0.276,0.611,0.604,0.611c0.458,0,0.749-0.29,0.851-0.588
		c0.022-0.066,0.037-0.14,0.037-0.204V407.954z"/>
	<path fill="#231F20" d="M164.692,406.231c-0.015,0.254-0.029,0.538-0.029,0.967v2.043c0,0.808-0.16,1.302-0.501,1.607
		c-0.342,0.319-0.836,0.422-1.28,0.422c-0.421,0-0.887-0.103-1.17-0.291l0.16-0.486c0.232,0.145,0.596,0.274,1.033,0.274
		c0.655,0,1.134-0.34,1.134-1.228v-0.394h-0.014c-0.196,0.328-0.574,0.59-1.12,0.59c-0.872,0-1.498-0.741-1.498-1.717
		c0-1.192,0.778-1.869,1.585-1.869c0.611,0,0.945,0.32,1.098,0.611h0.015l0.029-0.53H164.692z M164.03,407.62
		c0-0.109-0.007-0.205-0.036-0.29c-0.116-0.372-0.429-0.678-0.895-0.678c-0.61,0-1.047,0.517-1.047,1.331
		c0,0.691,0.349,1.266,1.04,1.266c0.393,0,0.749-0.247,0.887-0.654c0.037-0.109,0.051-0.232,0.051-0.342V407.62z"/>
	<path fill="#231F20" d="M166.08,408.107c0.015,0.865,0.567,1.223,1.207,1.223c0.458,0,0.734-0.081,0.975-0.184l0.109,0.458
		c-0.225,0.103-0.611,0.219-1.17,0.219c-1.084,0-1.731-0.713-1.731-1.775c0-1.061,0.626-1.897,1.651-1.897
		c1.149,0,1.454,1.012,1.454,1.658c0,0.131-0.014,0.232-0.021,0.299H166.08z M167.956,407.648c0.007-0.406-0.167-1.04-0.887-1.04
		c-0.647,0-0.931,0.598-0.981,1.04H167.956z"/>
	<path fill="#231F20" d="M169.365,407.33c0-0.415-0.007-0.772-0.029-1.099h0.56l0.022,0.69h0.029
		c0.161-0.473,0.545-0.771,0.975-0.771c0.073,0,0.124,0.009,0.182,0.022v0.603c-0.066-0.014-0.131-0.021-0.218-0.021
		c-0.451,0-0.771,0.343-0.858,0.822c-0.015,0.088-0.029,0.188-0.029,0.298v1.877h-0.633V407.33z"/>
</g>
<rect x="185.388" y="399.355" fill="none" stroke="#231F20" stroke-miterlimit="10" width="63.216" height="17.56"/>
<g>
	<path fill="#231F20" d="M207.456,409.751l-0.06-0.519h-0.025c-0.229,0.322-0.67,0.61-1.255,0.61c-0.831,0-1.255-0.585-1.255-1.179
		c0-0.991,0.882-1.535,2.468-1.525v-0.086c0-0.339-0.094-0.949-0.934-0.949c-0.381,0-0.78,0.119-1.068,0.305l-0.169-0.491
		c0.339-0.221,0.831-0.364,1.348-0.364c1.255,0,1.561,0.855,1.561,1.679v1.535c0,0.355,0.017,0.703,0.068,0.984H207.456z
		 M207.345,407.657c-0.814-0.019-1.738,0.127-1.738,0.923c0,0.484,0.322,0.713,0.704,0.713c0.535,0,0.873-0.34,0.993-0.687
		c0.025-0.076,0.042-0.162,0.042-0.237V407.657z"/>
	<path fill="#231F20" d="M212.816,403.729v4.961c0,0.365,0.008,0.78,0.033,1.062h-0.669l-0.035-0.714h-0.017
		c-0.229,0.458-0.729,0.806-1.399,0.806c-0.992,0-1.755-0.839-1.755-2.086c-0.009-1.364,0.84-2.204,1.84-2.204
		c0.627,0,1.052,0.297,1.238,0.628h0.017v-2.452H212.816z M212.069,407.318c0-0.095-0.008-0.222-0.034-0.315
		c-0.11-0.475-0.517-0.865-1.077-0.865c-0.771,0-1.229,0.68-1.229,1.587c0,0.83,0.407,1.518,1.212,1.518
		c0.5,0,0.958-0.331,1.094-0.891c0.026-0.102,0.034-0.203,0.034-0.322V407.318z"/>
	<path fill="#231F20" d="M217.599,403.729v4.961c0,0.365,0.009,0.78,0.034,1.062h-0.67l-0.034-0.714h-0.017
		c-0.229,0.458-0.729,0.806-1.399,0.806c-0.992,0-1.755-0.839-1.755-2.086c-0.008-1.364,0.839-2.204,1.84-2.204
		c0.628,0,1.052,0.297,1.238,0.628h0.017v-2.452H217.599z M216.853,407.318c0-0.095-0.009-0.222-0.034-0.315
		c-0.11-0.475-0.518-0.865-1.077-0.865c-0.771,0-1.229,0.68-1.229,1.587c0,0.83,0.407,1.518,1.212,1.518
		c0.501,0,0.958-0.331,1.094-0.891c0.025-0.102,0.034-0.203,0.034-0.322V407.318z"/>
	<path fill="#231F20" d="M221.535,404.467v1.179h1.068v0.568h-1.068v2.214c0,0.509,0.144,0.797,0.559,0.797
		c0.195,0,0.339-0.026,0.433-0.051l0.034,0.56c-0.144,0.06-0.373,0.101-0.662,0.101c-0.347,0-0.627-0.109-0.805-0.312
		c-0.212-0.222-0.289-0.585-0.289-1.069v-2.238h-0.636v-0.568h0.636v-0.982L221.535,404.467z"/>
	<path fill="#231F20" d="M223.443,406.927c0-0.484-0.008-0.899-0.034-1.281h0.653l0.025,0.806h0.034
		c0.187-0.552,0.636-0.898,1.137-0.898c0.085,0,0.144,0.008,0.212,0.024v0.704c-0.076-0.017-0.152-0.025-0.254-0.025
		c-0.526,0-0.899,0.398-1,0.959c-0.017,0.103-0.034,0.221-0.034,0.348v2.188h-0.738V406.927z"/>
	<path fill="#231F20" d="M226.547,407.833c0.017,1.01,0.661,1.425,1.407,1.425c0.535,0,0.857-0.093,1.137-0.211l0.127,0.533
		c-0.263,0.119-0.712,0.254-1.365,0.254c-1.264,0-2.019-0.83-2.019-2.069c0-1.237,0.729-2.212,1.925-2.212
		c1.339,0,1.696,1.179,1.696,1.934c0,0.151-0.017,0.271-0.026,0.347H226.547z M228.735,407.299c0.009-0.475-0.195-1.213-1.034-1.213
		c-0.755,0-1.086,0.695-1.146,1.213H228.735z"/>
	<path fill="#231F20" d="M230.796,407.833c0.017,1.01,0.662,1.425,1.408,1.425c0.534,0,0.856-0.093,1.136-0.211l0.127,0.533
		c-0.263,0.119-0.712,0.254-1.365,0.254c-1.264,0-2.018-0.83-2.018-2.069c0-1.237,0.729-2.212,1.925-2.212
		c1.339,0,1.696,1.179,1.696,1.934c0,0.151-0.017,0.271-0.025,0.347H230.796z M232.984,407.299c0.008-0.475-0.195-1.213-1.035-1.213
		c-0.754,0-1.085,0.695-1.145,1.213H232.984z"/>
</g>
<rect x="77.588" y="439.327" fill="none" stroke="#231F20" stroke-miterlimit="10" width="96.926" height="96.927"/>
<rect x="77.588" y="544.734" fill="none" stroke="#231F20" stroke-miterlimit="10" width="96.926" height="19.386"/>
<g>
	<path fill="#231F20" d="M104.114,555.73c0,0.424,0.009,0.797,0.034,1.12h-0.662l-0.042-0.672h-0.017
		c-0.195,0.332-0.628,0.764-1.357,0.764c-0.645,0-1.416-0.356-1.416-1.798v-2.398h0.746v2.271c0,0.78,0.237,1.307,0.916,1.307
		c0.5,0,0.849-0.349,0.983-0.679c0.043-0.111,0.068-0.246,0.068-0.383v-2.517h0.746V555.73z"/>
	<path fill="#231F20" d="M105.354,554.084c0-0.524-0.017-0.95-0.034-1.339h0.67l0.034,0.703h0.017
		c0.305-0.5,0.789-0.798,1.458-0.798c0.992,0,1.738,0.84,1.738,2.086c0,1.477-0.898,2.205-1.866,2.205
		c-0.542,0-1.017-0.237-1.263-0.644h-0.017v2.229h-0.738V554.084z M106.091,555.178c0,0.111,0.017,0.212,0.034,0.306
		c0.136,0.518,0.585,0.873,1.119,0.873c0.789,0,1.247-0.645,1.247-1.585c0-0.823-0.433-1.527-1.221-1.527
		c-0.509,0-0.984,0.365-1.128,0.925c-0.025,0.094-0.05,0.204-0.05,0.306V555.178z"/>
	<path fill="#231F20" d="M110.179,550.828h0.747v6.022h-0.747V550.828z"/>
	<path fill="#231F20" d="M115.895,554.763c0,1.518-1.052,2.179-2.043,2.179c-1.111,0-1.967-0.813-1.967-2.11
		c0-1.374,0.898-2.181,2.035-2.181C115.098,552.651,115.895,553.508,115.895,554.763z M112.639,554.805
		c0,0.898,0.517,1.577,1.246,1.577c0.713,0,1.247-0.67,1.247-1.595c0-0.694-0.348-1.576-1.229-1.576
		C113.02,553.211,112.639,554.026,112.639,554.805z"/>
	<path fill="#231F20" d="M119.109,556.85l-0.059-0.518h-0.026c-0.229,0.321-0.669,0.609-1.254,0.609
		c-0.832,0-1.255-0.585-1.255-1.179c0-0.991,0.882-1.534,2.468-1.526v-0.085c0-0.339-0.093-0.949-0.933-0.949
		c-0.382,0-0.78,0.119-1.068,0.306l-0.17-0.492c0.339-0.222,0.831-0.365,1.348-0.365c1.255,0,1.561,0.857,1.561,1.68v1.535
		c0,0.355,0.017,0.704,0.068,0.984H119.109z M118.999,554.753c-0.814-0.017-1.738,0.129-1.738,0.925
		c0,0.484,0.322,0.713,0.705,0.713c0.534,0,0.873-0.339,0.991-0.688c0.026-0.075,0.042-0.161,0.042-0.236V554.753z"/>
	<path fill="#231F20" d="M124.469,550.828v4.961c0,0.365,0.008,0.781,0.034,1.062h-0.67l-0.034-0.713h-0.017
		c-0.229,0.457-0.729,0.805-1.399,0.805c-0.993,0-1.755-0.839-1.755-2.086c-0.009-1.365,0.839-2.205,1.84-2.205
		c0.627,0,1.051,0.298,1.238,0.629h0.017v-2.452H124.469z M123.723,554.416c0-0.094-0.008-0.22-0.034-0.314
		c-0.11-0.474-0.517-0.865-1.077-0.865c-0.771,0-1.229,0.68-1.229,1.586c0,0.831,0.407,1.519,1.212,1.519
		c0.5,0,0.958-0.332,1.094-0.891c0.025-0.102,0.034-0.203,0.034-0.322V554.416z"/>
	<path fill="#231F20" d="M127.506,554.084c0-0.524-0.017-0.95-0.034-1.339h0.669l0.035,0.703h0.017
		c0.305-0.5,0.789-0.798,1.458-0.798c0.992,0,1.738,0.84,1.738,2.086c0,1.477-0.898,2.205-1.866,2.205
		c-0.542,0-1.017-0.237-1.263-0.644h-0.017v2.229h-0.738V554.084z M128.244,555.178c0,0.111,0.017,0.212,0.034,0.306
		c0.136,0.518,0.584,0.873,1.119,0.873c0.789,0,1.247-0.645,1.247-1.585c0-0.823-0.433-1.527-1.221-1.527
		c-0.509,0-0.984,0.365-1.128,0.925c-0.026,0.094-0.051,0.204-0.051,0.306V555.178z"/>
	<path fill="#231F20" d="M132.332,550.828h0.746v2.562h0.018c0.118-0.212,0.305-0.399,0.534-0.525
		c0.221-0.128,0.483-0.213,0.764-0.213c0.551,0,1.433,0.339,1.433,1.756v2.443h-0.746v-2.358c0-0.662-0.247-1.222-0.95-1.222
		c-0.483,0-0.865,0.34-1,0.747c-0.042,0.101-0.051,0.212-0.051,0.356v2.477h-0.746V550.828z"/>
	<path fill="#231F20" d="M140.753,554.763c0,1.518-1.051,2.179-2.043,2.179c-1.111,0-1.967-0.813-1.967-2.11
		c0-1.374,0.899-2.181,2.035-2.181C139.957,552.651,140.753,553.508,140.753,554.763z M137.497,554.805
		c0,0.898,0.518,1.577,1.247,1.577c0.712,0,1.247-0.67,1.247-1.595c0-0.694-0.348-1.576-1.23-1.576S137.497,554.026,137.497,554.805
		z"/>
	<path fill="#231F20" d="M142.594,551.566v1.18h1.069v0.567h-1.069v2.214c0,0.509,0.145,0.797,0.56,0.797
		c0.195,0,0.339-0.025,0.433-0.051l0.034,0.559c-0.144,0.059-0.373,0.103-0.661,0.103c-0.348,0-0.628-0.111-0.806-0.314
		c-0.211-0.221-0.288-0.584-0.288-1.068v-2.238h-0.636v-0.567h0.636v-0.983L142.594,551.566z"/>
	<path fill="#231F20" d="M148.167,554.763c0,1.518-1.051,2.179-2.044,2.179c-1.11,0-1.967-0.813-1.967-2.11
		c0-1.374,0.899-2.181,2.036-2.181C147.37,552.651,148.167,553.508,148.167,554.763z M144.91,554.805
		c0,0.898,0.518,1.577,1.247,1.577c0.712,0,1.247-0.67,1.247-1.595c0-0.694-0.348-1.576-1.229-1.576S144.91,554.026,144.91,554.805z
		"/>
</g>
<g>
	<path fill="#231F20" d="M112.995,487.958v1.179h1.068v0.568h-1.068v2.214c0,0.508,0.144,0.795,0.56,0.795
		c0.195,0,0.339-0.024,0.433-0.049l0.034,0.559c-0.144,0.06-0.373,0.102-0.662,0.102c-0.347,0-0.627-0.11-0.805-0.312
		c-0.212-0.222-0.289-0.586-0.289-1.069v-2.238h-0.636v-0.568h0.636v-0.984L112.995,487.958z"/>
	<path fill="#231F20" d="M114.903,490.417c0-0.483-0.009-0.898-0.035-1.28h0.653l0.025,0.805h0.034
		c0.186-0.551,0.636-0.897,1.136-0.897c0.084,0,0.144,0.008,0.212,0.024v0.704c-0.076-0.017-0.153-0.025-0.254-0.025
		c-0.525,0-0.899,0.398-1.001,0.959c-0.017,0.101-0.034,0.22-0.034,0.347v2.188h-0.737V490.417z"/>
	<path fill="#231F20" d="M118.007,491.324c0.017,1.011,0.662,1.426,1.408,1.426c0.534,0,0.856-0.094,1.136-0.212l0.127,0.534
		c-0.263,0.119-0.713,0.254-1.366,0.254c-1.263,0-2.019-0.83-2.019-2.068c0-1.237,0.73-2.213,1.925-2.213
		c1.34,0,1.696,1.178,1.696,1.933c0,0.152-0.017,0.271-0.026,0.347H118.007z M120.195,490.791c0.008-0.475-0.195-1.212-1.035-1.212
		c-0.755,0-1.085,0.694-1.146,1.212H120.195z"/>
	<path fill="#231F20" d="M122.256,491.324c0.018,1.011,0.662,1.426,1.408,1.426c0.535,0,0.856-0.094,1.136-0.212l0.128,0.534
		c-0.263,0.119-0.712,0.254-1.365,0.254c-1.264,0-2.018-0.83-2.018-2.068c0-1.237,0.729-2.213,1.924-2.213
		c1.34,0,1.696,1.178,1.696,1.933c0,0.152-0.017,0.271-0.025,0.347H122.256z M124.444,490.791c0.008-0.475-0.195-1.212-1.035-1.212
		c-0.755,0-1.085,0.694-1.145,1.212H124.444z"/>
	<path fill="#231F20" d="M127.888,490.477c0-0.526-0.017-0.95-0.034-1.34h0.67l0.034,0.704h0.017
		c0.306-0.501,0.789-0.797,1.459-0.797c0.992,0,1.738,0.839,1.738,2.085c0,1.476-0.899,2.205-1.866,2.205
		c-0.542,0-1.018-0.237-1.264-0.645h-0.017v2.23h-0.738V490.477z M128.625,491.571c0,0.11,0.017,0.212,0.034,0.306
		c0.136,0.518,0.585,0.873,1.119,0.873c0.789,0,1.247-0.645,1.247-1.586c0-0.822-0.433-1.526-1.222-1.526
		c-0.508,0-0.983,0.364-1.127,0.925c-0.025,0.094-0.051,0.204-0.051,0.305V491.571z"/>
	<path fill="#231F20" d="M133.545,487.983c0.008,0.256-0.179,0.458-0.475,0.458c-0.263,0-0.45-0.202-0.45-0.458
		c0-0.262,0.195-0.466,0.467-0.466C133.366,487.517,133.545,487.721,133.545,487.983z M132.714,493.242v-4.104h0.746v4.104H132.714z
		"/>
	<path fill="#231F20" d="M137.624,493.088c-0.195,0.103-0.627,0.237-1.179,0.237c-1.238,0-2.044-0.84-2.044-2.094
		c0-1.264,0.865-2.18,2.205-2.18c0.441,0,0.831,0.11,1.034,0.213l-0.169,0.576c-0.179-0.102-0.458-0.196-0.865-0.196
		c-0.941,0-1.45,0.696-1.45,1.553c0,0.95,0.611,1.535,1.425,1.535c0.423,0,0.704-0.11,0.916-0.204L137.624,493.088z"/>
</g>
<rect x="191.569" y="442.359" fill="none" stroke="#231F20" stroke-miterlimit="10" width="127.216" height="21.202"/>
<rect x="191.569" y="479.918" fill="none" stroke="#231F20" stroke-miterlimit="10" width="127.216" height="21.202"/>
<rect x="191.569" y="516.261" fill="none" stroke="#231F20" stroke-miterlimit="10" width="127.216" height="19.992"/>
<rect x="356.821" y="428.421" fill="none" stroke="#231F20" stroke-miterlimit="10" width="187.849" height="132.669"/>
<rect x="356.821" y="580.475" fill="none" stroke="#231F20" stroke-miterlimit="10" width="89.656" height="18.175"/>
<rect x="457.118" y="580.475" fill="none" stroke="#231F20" stroke-miterlimit="10" width="89.657" height="18.175"/>
<rect x="191.569" y="554.426" fill="none" stroke="#231F20" stroke-miterlimit="10" width="127.216" height="19.994"/>
<g>
	<path fill="#231F20" d="M235.971,446.768v1.179h1.068v0.568h-1.068v2.214c0,0.509,0.144,0.797,0.56,0.797
		c0.195,0,0.338-0.026,0.432-0.051l0.034,0.559c-0.144,0.061-0.373,0.102-0.661,0.102c-0.348,0-0.628-0.109-0.806-0.312
		c-0.212-0.222-0.289-0.585-0.289-1.069v-2.238h-0.636v-0.568h0.636v-0.982L235.971,446.768z"/>
	<path fill="#231F20" d="M237.879,449.228c0-0.485-0.008-0.899-0.034-1.281h0.653l0.025,0.806h0.034
		c0.186-0.552,0.636-0.898,1.136-0.898c0.084,0,0.144,0.008,0.211,0.026v0.702c-0.076-0.017-0.152-0.025-0.254-0.025
		c-0.526,0-0.898,0.399-1,0.959c-0.018,0.102-0.034,0.221-0.034,0.348v2.188h-0.738V449.228z"/>
	<path fill="#231F20" d="M240.983,450.134c0.017,1.01,0.662,1.425,1.408,1.425c0.534,0,0.856-0.093,1.136-0.211l0.126,0.533
		c-0.263,0.119-0.712,0.254-1.365,0.254c-1.263,0-2.018-0.83-2.018-2.069c0-1.237,0.73-2.212,1.925-2.212
		c1.339,0,1.696,1.178,1.696,1.935c0,0.15-0.018,0.27-0.026,0.346H240.983z M243.171,449.6c0.009-0.475-0.195-1.213-1.035-1.213
		c-0.754,0-1.085,0.695-1.145,1.213H243.171z"/>
	<path fill="#231F20" d="M245.232,450.134c0.017,1.01,0.661,1.425,1.407,1.425c0.535,0,0.856-0.093,1.136-0.211l0.128,0.533
		c-0.263,0.119-0.713,0.254-1.365,0.254c-1.264,0-2.019-0.83-2.019-2.069c0-1.237,0.729-2.212,1.925-2.212
		c1.34,0,1.696,1.178,1.696,1.935c0,0.15-0.017,0.27-0.026,0.346H245.232z M247.42,449.6c0.008-0.475-0.195-1.213-1.034-1.213
		c-0.755,0-1.086,0.695-1.145,1.213H247.42z"/>
	<path fill="#231F20" d="M250.864,449.057c0-0.423-0.008-0.771-0.033-1.11h0.661l0.043,0.679h0.017
		c0.204-0.39,0.679-0.771,1.356-0.771c0.569,0,1.45,0.339,1.45,1.746v2.451h-0.747v-2.365c0-0.663-0.245-1.214-0.949-1.214
		c-0.492,0-0.874,0.349-1.001,0.764c-0.034,0.094-0.051,0.221-0.051,0.348v2.468h-0.746V449.057z"/>
	<path fill="#231F20" d="M257.844,452.051l-0.06-0.518h-0.026c-0.229,0.322-0.67,0.61-1.255,0.61c-0.832,0-1.255-0.585-1.255-1.179
		c0-0.991,0.882-1.535,2.468-1.525v-0.086c0-0.339-0.093-0.949-0.933-0.949c-0.382,0-0.781,0.119-1.068,0.306l-0.169-0.492
		c0.339-0.221,0.83-0.364,1.348-0.364c1.255,0,1.56,0.856,1.56,1.679v1.535c0,0.355,0.017,0.703,0.068,0.983H257.844z
		 M257.734,449.957c-0.814-0.018-1.738,0.128-1.738,0.924c0,0.484,0.322,0.713,0.704,0.713c0.534,0,0.873-0.339,0.993-0.687
		c0.025-0.076,0.042-0.162,0.042-0.237V449.957z"/>
	<path fill="#231F20" d="M259.66,449.057c0-0.423-0.009-0.771-0.035-1.11h0.653l0.034,0.661h0.026
		c0.229-0.39,0.61-0.754,1.289-0.754c0.56,0,0.984,0.339,1.163,0.822h0.016c0.127-0.229,0.289-0.407,0.458-0.535
		c0.246-0.186,0.518-0.287,0.908-0.287c0.542,0,1.349,0.355,1.349,1.78v2.417h-0.729v-2.323c0-0.788-0.289-1.263-0.891-1.263
		c-0.424,0-0.754,0.312-0.882,0.677c-0.033,0.103-0.059,0.238-0.059,0.374v2.535h-0.729v-2.459c0-0.652-0.289-1.127-0.856-1.127
		c-0.467,0-0.806,0.372-0.924,0.746c-0.042,0.108-0.059,0.237-0.059,0.364v2.476h-0.729V449.057z"/>
	<path fill="#231F20" d="M267.149,450.134c0.016,1.01,0.662,1.425,1.407,1.425c0.534,0,0.856-0.093,1.136-0.211l0.127,0.533
		c-0.263,0.119-0.712,0.254-1.365,0.254c-1.264,0-2.019-0.83-2.019-2.069c0-1.237,0.729-2.212,1.925-2.212
		c1.34,0,1.696,1.178,1.696,1.935c0,0.15-0.017,0.27-0.025,0.346H267.149z M269.335,449.6c0.009-0.475-0.194-1.213-1.034-1.213
		c-0.755,0-1.085,0.695-1.145,1.213H269.335z"/>
</g>
<g>
	<path fill="#231F20" d="M222.35,485.408h0.747v6.02h-0.747V485.408z"/>
	<path fill="#231F20" d="M228.066,489.341c0,1.518-1.051,2.181-2.043,2.181c-1.111,0-1.967-0.815-1.967-2.112
		c0-1.375,0.899-2.18,2.035-2.18C227.269,487.23,228.066,488.086,228.066,489.341z M224.81,489.384c0,0.897,0.518,1.577,1.247,1.577
		c0.712,0,1.247-0.671,1.247-1.595c0-0.695-0.348-1.577-1.229-1.577S224.81,488.603,224.81,489.384z"/>
	<path fill="#231F20" d="M231.934,491.275c-0.195,0.102-0.628,0.238-1.179,0.238c-1.238,0-2.043-0.84-2.043-2.095
		c0-1.265,0.865-2.181,2.205-2.181c0.441,0,0.831,0.11,1.035,0.213l-0.169,0.576c-0.178-0.102-0.458-0.194-0.865-0.194
		c-0.941,0-1.45,0.695-1.45,1.552c0,0.949,0.611,1.533,1.425,1.533c0.424,0,0.704-0.109,0.916-0.202L231.934,491.275z"/>
	<path fill="#231F20" d="M235.08,491.427l-0.06-0.517h-0.025c-0.229,0.322-0.67,0.611-1.255,0.611c-0.831,0-1.255-0.586-1.255-1.181
		c0-0.991,0.882-1.533,2.468-1.526v-0.084c0-0.34-0.093-0.949-0.933-0.949c-0.382,0-0.78,0.118-1.068,0.305l-0.169-0.492
		c0.338-0.22,0.831-0.364,1.348-0.364c1.255,0,1.56,0.856,1.56,1.679v1.535c0,0.356,0.017,0.703,0.068,0.983H235.08z
		 M234.97,489.333c-0.814-0.018-1.738,0.126-1.738,0.924c0,0.483,0.322,0.712,0.704,0.712c0.534,0,0.874-0.339,0.992-0.688
		c0.025-0.075,0.042-0.161,0.042-0.236V489.333z"/>
	<path fill="#231F20" d="M237.761,486.145v1.178h1.068v0.569h-1.068v2.212c0,0.509,0.144,0.798,0.56,0.798
		c0.195,0,0.339-0.025,0.433-0.051l0.033,0.56c-0.144,0.06-0.373,0.103-0.662,0.103c-0.347,0-0.627-0.11-0.805-0.315
		c-0.212-0.22-0.289-0.585-0.289-1.067v-2.238h-0.636v-0.569h0.636v-0.983L237.761,486.145z"/>
	<path fill="#231F20" d="M240.5,486.169c0.008,0.255-0.178,0.459-0.475,0.459c-0.264,0-0.45-0.204-0.45-0.459
		c0-0.263,0.195-0.466,0.466-0.466C240.322,485.704,240.5,485.907,240.5,486.169z M239.669,491.427v-4.104h0.747v4.104H239.669z"/>
	<path fill="#231F20" d="M245.368,489.341c0,1.518-1.052,2.181-2.044,2.181c-1.111,0-1.967-0.815-1.967-2.112
		c0-1.375,0.899-2.18,2.035-2.18C244.571,487.23,245.368,488.086,245.368,489.341z M242.112,489.384
		c0,0.897,0.517,1.577,1.246,1.577c0.713,0,1.247-0.671,1.247-1.595c0-0.695-0.348-1.577-1.229-1.577
		C242.493,487.79,242.112,488.603,242.112,489.384z"/>
	<path fill="#231F20" d="M246.31,488.434c0-0.424-0.008-0.771-0.034-1.111h0.661l0.043,0.679h0.017
		c0.203-0.39,0.678-0.771,1.356-0.771c0.568,0,1.451,0.339,1.451,1.748v2.449h-0.747v-2.366c0-0.66-0.246-1.212-0.95-1.212
		c-0.492,0-0.874,0.348-1.001,0.763c-0.034,0.094-0.05,0.221-0.05,0.348v2.468h-0.747V488.434z"/>
</g>
<g>
	<path fill="#231F20" d="M226.616,520.924c0.45-0.067,0.984-0.119,1.568-0.119c1.061,0,1.815,0.246,2.315,0.712
		c0.508,0.468,0.806,1.129,0.806,2.053c0,0.933-0.289,1.695-0.823,2.222c-0.534,0.534-1.416,0.823-2.527,0.823
		c-0.525,0-0.966-0.026-1.339-0.067V520.924z M227.354,525.979c0.187,0.033,0.458,0.041,0.747,0.041
		c1.577,0,2.434-0.882,2.434-2.425c0.008-1.348-0.755-2.205-2.315-2.205c-0.382,0-0.67,0.034-0.865,0.077V525.979z"/>
	<path fill="#231F20" d="M237.149,523.646c0,1.967-1.195,3.012-2.654,3.012c-1.51,0-2.569-1.172-2.569-2.901
		c0-1.814,1.127-3.002,2.654-3.002C236.14,520.754,237.149,521.951,237.149,523.646z M232.714,523.74
		c0,1.221,0.662,2.314,1.823,2.314c1.17,0,1.832-1.077,1.832-2.374c0-1.137-0.594-2.323-1.823-2.323
		C233.325,521.357,232.714,522.485,232.714,523.74z"/>
	<path fill="#231F20" d="M238.108,520.924c0.322-0.067,0.831-0.119,1.349-0.119c0.737,0,1.212,0.127,1.568,0.415
		c0.297,0.221,0.475,0.56,0.475,1.011c0,0.55-0.365,1.034-0.967,1.255v0.017c0.542,0.135,1.178,0.585,1.178,1.433
		c0,0.491-0.195,0.866-0.483,1.146c-0.398,0.364-1.043,0.534-1.975,0.534c-0.509,0-0.899-0.034-1.145-0.067V520.924z
		 M238.846,523.265h0.67c0.78,0,1.238-0.407,1.238-0.959c0-0.669-0.509-0.933-1.255-0.933c-0.339,0-0.534,0.025-0.653,0.051V523.265
		z M238.846,526.003c0.144,0.026,0.356,0.034,0.619,0.034c0.764,0,1.468-0.28,1.468-1.11c0-0.78-0.67-1.104-1.476-1.104h-0.611
		V526.003z"/>
</g>
<g>
	<path fill="#231F20" d="M234.375,556.889v4.961c0,0.365,0.009,0.78,0.034,1.061h-0.67l-0.034-0.713h-0.017
		c-0.229,0.457-0.729,0.806-1.399,0.806c-0.993,0-1.755-0.839-1.755-2.086c-0.009-1.364,0.839-2.204,1.84-2.204
		c0.627,0,1.051,0.296,1.237,0.627h0.017v-2.451H234.375z M233.629,560.477c0-0.094-0.008-0.221-0.034-0.314
		c-0.11-0.474-0.517-0.865-1.078-0.865c-0.771,0-1.229,0.679-1.229,1.587c0,0.83,0.407,1.518,1.212,1.518
		c0.5,0,0.958-0.331,1.094-0.891c0.025-0.102,0.034-0.204,0.034-0.321V560.477z"/>
	<path fill="#231F20" d="M236.446,557.653c0.008,0.254-0.179,0.458-0.475,0.458c-0.263,0-0.449-0.204-0.449-0.458
		c0-0.262,0.195-0.466,0.466-0.466C236.267,557.187,236.446,557.391,236.446,557.653z M235.614,562.911v-4.104h0.747v4.104H235.614z
		"/>
	<path fill="#231F20" d="M239.872,562.911l-0.059-0.517h-0.025c-0.229,0.321-0.67,0.609-1.255,0.609
		c-0.832,0-1.256-0.585-1.256-1.179c0-0.992,0.882-1.534,2.468-1.526v-0.085c0-0.339-0.093-0.949-0.933-0.949
		c-0.382,0-0.78,0.119-1.068,0.306l-0.169-0.492c0.338-0.221,0.831-0.364,1.348-0.364c1.255,0,1.561,0.856,1.561,1.678v1.536
		c0,0.355,0.017,0.703,0.068,0.983H239.872z M239.762,560.816c-0.814-0.018-1.739,0.128-1.739,0.924
		c0,0.484,0.322,0.713,0.704,0.713c0.534,0,0.873-0.339,0.992-0.687c0.025-0.076,0.042-0.162,0.042-0.237V560.816z"/>
	<path fill="#231F20" d="M241.688,559.917c0-0.424-0.009-0.772-0.035-1.11h0.653l0.034,0.66h0.025
		c0.229-0.39,0.61-0.754,1.288-0.754c0.561,0,0.985,0.34,1.163,0.821h0.017c0.127-0.229,0.289-0.406,0.458-0.533
		c0.247-0.187,0.518-0.288,0.908-0.288c0.542,0,1.347,0.355,1.347,1.78v2.417h-0.729v-2.324c0-0.787-0.289-1.262-0.891-1.262
		c-0.424,0-0.754,0.312-0.881,0.677c-0.034,0.103-0.059,0.238-0.059,0.374v2.535h-0.73v-2.46c0-0.651-0.288-1.126-0.856-1.126
		c-0.467,0-0.806,0.372-0.924,0.745c-0.042,0.109-0.06,0.238-0.06,0.365v2.476h-0.729V559.917z"/>
	<path fill="#231F20" d="M249.176,560.993c0.017,1.011,0.662,1.426,1.408,1.426c0.534,0,0.857-0.093,1.136-0.211l0.126,0.533
		c-0.263,0.119-0.711,0.254-1.365,0.254c-1.264,0-2.018-0.83-2.018-2.068c0-1.237,0.729-2.213,1.925-2.213
		c1.339,0,1.696,1.178,1.696,1.933c0,0.152-0.018,0.271-0.025,0.347H249.176z M251.364,560.459c0.009-0.475-0.195-1.212-1.034-1.212
		c-0.754,0-1.085,0.694-1.145,1.212H251.364z"/>
	<path fill="#231F20" d="M253.909,557.627v1.18h1.069v0.566h-1.069v2.214c0,0.51,0.144,0.797,0.56,0.797
		c0.195,0,0.338-0.025,0.432-0.051l0.034,0.56c-0.144,0.06-0.373,0.102-0.662,0.102c-0.347,0-0.627-0.11-0.806-0.312
		c-0.211-0.222-0.289-0.585-0.289-1.069v-2.239h-0.636v-0.566h0.636v-0.984L253.909,557.627z"/>
	<path fill="#231F20" d="M256.182,560.993c0.017,1.011,0.661,1.426,1.407,1.426c0.535,0,0.857-0.093,1.137-0.211l0.127,0.533
		c-0.263,0.119-0.713,0.254-1.365,0.254c-1.264,0-2.019-0.83-2.019-2.068c0-1.237,0.729-2.213,1.925-2.213
		c1.339,0,1.695,1.178,1.695,1.933c0,0.152-0.016,0.271-0.025,0.347H256.182z M258.37,560.459c0.009-0.475-0.194-1.212-1.035-1.212
		c-0.755,0-1.085,0.694-1.145,1.212H258.37z"/>
	<path fill="#231F20" d="M260.016,560.086c0-0.483-0.009-0.898-0.035-1.279h0.653l0.026,0.805h0.034
		c0.187-0.552,0.636-0.898,1.136-0.898c0.085,0,0.145,0.008,0.213,0.024v0.705c-0.077-0.018-0.154-0.026-0.255-0.026
		c-0.525,0-0.898,0.398-1,0.959c-0.017,0.102-0.035,0.221-0.035,0.347v2.188h-0.737V560.086z"/>
	<path fill="#231F20" d="M268.301,560.825c0,1.519-1.051,2.179-2.043,2.179c-1.112,0-1.968-0.814-1.968-2.111
		c0-1.373,0.898-2.179,2.036-2.179C267.503,558.713,268.301,559.57,268.301,560.825z M265.045,560.867
		c0,0.899,0.518,1.578,1.246,1.578c0.713,0,1.247-0.671,1.247-1.595c0-0.695-0.348-1.577-1.229-1.577
		C265.426,559.273,265.045,560.086,265.045,560.867z"/>
	<path fill="#231F20" d="M269.319,562.911v-3.537h-0.576v-0.566h0.576v-0.195c0-0.577,0.127-1.104,0.476-1.435
		c0.28-0.271,0.653-0.381,1-0.381c0.263,0,0.492,0.06,0.636,0.119l-0.103,0.576c-0.11-0.051-0.263-0.094-0.474-0.094
		c-0.637,0-0.798,0.561-0.798,1.188v0.222h0.993v0.566h-0.993v3.537H269.319z"/>
	<path fill="#231F20" d="M275.79,562.911l-0.059-0.517h-0.026c-0.229,0.321-0.67,0.609-1.255,0.609
		c-0.832,0-1.255-0.585-1.255-1.179c0-0.992,0.882-1.534,2.468-1.526v-0.085c0-0.339-0.094-0.949-0.934-0.949
		c-0.381,0-0.78,0.119-1.068,0.306l-0.17-0.492c0.34-0.221,0.831-0.364,1.349-0.364c1.255,0,1.56,0.856,1.56,1.678v1.536
		c0,0.355,0.018,0.703,0.068,0.983H275.79z M275.68,560.816c-0.814-0.018-1.738,0.128-1.738,0.924c0,0.484,0.321,0.713,0.703,0.713
		c0.535,0,0.874-0.339,0.993-0.687c0.026-0.076,0.042-0.162,0.042-0.237V560.816z"/>
	<path fill="#231F20" d="M281.15,556.889v4.961c0,0.365,0.009,0.78,0.034,1.061h-0.67l-0.034-0.713h-0.018
		c-0.228,0.457-0.729,0.806-1.398,0.806c-0.992,0-1.755-0.839-1.755-2.086c-0.009-1.364,0.839-2.204,1.84-2.204
		c0.627,0,1.051,0.296,1.238,0.627h0.017v-2.451H281.15z M280.404,560.477c0-0.094-0.008-0.221-0.034-0.314
		c-0.11-0.474-0.518-0.865-1.077-0.865c-0.771,0-1.23,0.679-1.23,1.587c0,0.83,0.408,1.518,1.213,1.518
		c0.5,0,0.959-0.331,1.094-0.891c0.026-0.102,0.034-0.204,0.034-0.321V560.477z"/>
	<path fill="#231F20" d="M285.824,561.792c0,0.424,0.008,0.797,0.034,1.119h-0.662l-0.042-0.67h-0.017
		c-0.196,0.331-0.628,0.763-1.358,0.763c-0.644,0-1.416-0.355-1.416-1.798v-2.398h0.747v2.271c0,0.779,0.237,1.306,0.915,1.306
		c0.501,0,0.849-0.346,0.984-0.678c0.042-0.109,0.068-0.245,0.068-0.382v-2.518h0.746V561.792z"/>
	<path fill="#231F20" d="M287.062,556.889h0.746v6.021h-0.746V556.889z"/>
	<path fill="#231F20" d="M289.963,557.627v1.18h1.068v0.566h-1.068v2.214c0,0.51,0.144,0.797,0.56,0.797
		c0.195,0,0.339-0.025,0.432-0.051l0.035,0.56c-0.144,0.06-0.373,0.102-0.662,0.102c-0.347,0-0.628-0.11-0.806-0.312
		c-0.212-0.222-0.289-0.585-0.289-1.069v-2.239h-0.636v-0.566h0.636v-0.984L289.963,557.627z"/>
</g>
<g>
	<path fill="#231F20" d="M415.597,583.544h0.746v6.021h-0.746V583.544z"/>
	<path fill="#231F20" d="M419.871,589.565l-0.06-0.517h-0.025c-0.229,0.321-0.67,0.61-1.255,0.61c-0.831,0-1.256-0.585-1.256-1.179
		c0-0.991,0.882-1.535,2.469-1.526v-0.085c0-0.339-0.095-0.95-0.933-0.95c-0.383,0-0.78,0.118-1.069,0.306l-0.17-0.492
		c0.339-0.221,0.832-0.364,1.35-0.364c1.254,0,1.56,0.856,1.56,1.68v1.534c0,0.356,0.017,0.705,0.068,0.983H419.871z M419.76,587.47
		c-0.813-0.017-1.738,0.127-1.738,0.925c0,0.484,0.323,0.713,0.704,0.713c0.535,0,0.873-0.34,0.992-0.687
		c0.026-0.078,0.042-0.161,0.042-0.238V587.47z"/>
	<path fill="#231F20" d="M422.552,584.282v1.179h1.067v0.568h-1.067v2.214c0,0.508,0.144,0.797,0.559,0.797
		c0.196,0,0.339-0.025,0.434-0.051l0.033,0.56c-0.144,0.059-0.373,0.102-0.661,0.102c-0.348,0-0.628-0.11-0.806-0.312
		c-0.213-0.221-0.288-0.587-0.288-1.069v-2.239h-0.637v-0.568h0.637v-0.983L422.552,584.282z"/>
	<path fill="#231F20" d="M425.29,584.307c0.009,0.255-0.178,0.458-0.474,0.458c-0.264,0-0.45-0.203-0.45-0.458
		c0-0.263,0.194-0.466,0.467-0.466C425.112,583.841,425.29,584.044,425.29,584.307z M424.46,589.565v-4.104h0.747v4.104H424.46z"/>
	<path fill="#231F20" d="M427.344,584.282v1.179h1.067v0.568h-1.067v2.214c0,0.508,0.144,0.797,0.559,0.797
		c0.195,0,0.339-0.025,0.434-0.051l0.033,0.56c-0.145,0.059-0.373,0.102-0.661,0.102c-0.348,0-0.628-0.11-0.806-0.312
		c-0.213-0.221-0.289-0.587-0.289-1.069v-2.239h-0.636v-0.568h0.636v-0.983L427.344,584.282z"/>
	<path fill="#231F20" d="M432.686,588.446c0,0.425,0.008,0.797,0.034,1.119h-0.662l-0.041-0.669h-0.018
		c-0.194,0.33-0.628,0.763-1.356,0.763c-0.644,0-1.416-0.356-1.416-1.798v-2.4h0.746v2.273c0,0.779,0.236,1.306,0.916,1.306
		c0.501,0,0.848-0.349,0.982-0.679c0.043-0.11,0.068-0.246,0.068-0.381v-2.52h0.746V588.446z"/>
	<path fill="#231F20" d="M437.469,583.544v4.961c0,0.365,0.009,0.781,0.035,1.06h-0.671l-0.034-0.713h-0.017
		c-0.229,0.459-0.729,0.807-1.398,0.807c-0.993,0-1.756-0.84-1.756-2.086c-0.009-1.366,0.84-2.205,1.839-2.205
		c0.629,0,1.053,0.297,1.24,0.628h0.016v-2.451H437.469z M436.723,587.131c0-0.093-0.009-0.22-0.034-0.313
		c-0.109-0.475-0.517-0.865-1.076-0.865c-0.771,0-1.229,0.679-1.229,1.586c0,0.832,0.407,1.519,1.213,1.519
		c0.5,0,0.957-0.331,1.093-0.892c0.025-0.101,0.034-0.202,0.034-0.321V587.131z"/>
	<path fill="#231F20" d="M439.124,587.649c0.017,1.009,0.661,1.425,1.408,1.425c0.533,0,0.855-0.094,1.136-0.213l0.127,0.535
		c-0.263,0.119-0.712,0.254-1.365,0.254c-1.264,0-2.019-0.831-2.019-2.069c0-1.237,0.729-2.213,1.926-2.213
		c1.34,0,1.695,1.179,1.695,1.933c0,0.153-0.017,0.272-0.024,0.349H439.124z M441.312,587.115c0.008-0.475-0.196-1.213-1.035-1.213
		c-0.755,0-1.086,0.695-1.145,1.213H441.312z"/>
</g>
<g>
	<path fill="#231F20" d="M482.839,584.151h0.746v6.021h-0.746V584.151z"/>
	<path fill="#231F20" d="M488.555,588.085c0,1.518-1.052,2.18-2.044,2.18c-1.11,0-1.967-0.814-1.967-2.112
		c0-1.374,0.898-2.18,2.035-2.18C487.757,585.973,488.555,586.831,488.555,588.085z M485.299,588.128
		c0,0.897,0.517,1.576,1.246,1.576c0.712,0,1.247-0.67,1.247-1.595c0-0.694-0.348-1.576-1.229-1.576
		C485.68,586.534,485.299,587.347,485.299,588.128z"/>
	<path fill="#231F20" d="M489.497,587.177c0-0.424-0.009-0.771-0.034-1.11h0.661l0.042,0.679h0.018
		c0.203-0.391,0.678-0.772,1.356-0.772c0.568,0,1.45,0.339,1.45,1.748v2.45h-0.746v-2.366c0-0.661-0.246-1.213-0.949-1.213
		c-0.493,0-0.874,0.349-1.002,0.763c-0.033,0.095-0.051,0.222-0.051,0.348v2.469h-0.745V587.177z"/>
	<path fill="#231F20" d="M497.74,586.067c-0.018,0.297-0.034,0.628-0.034,1.127v2.384c0,0.941-0.186,1.518-0.585,1.874
		c-0.398,0.373-0.975,0.492-1.493,0.492c-0.491,0-1.033-0.119-1.364-0.34l0.187-0.567c0.271,0.169,0.694,0.321,1.203,0.321
		c0.764,0,1.323-0.398,1.323-1.433v-0.458h-0.017c-0.229,0.382-0.67,0.688-1.307,0.688c-1.017,0-1.746-0.865-1.746-2.002
		c0-1.391,0.907-2.18,1.849-2.18c0.712,0,1.103,0.373,1.28,0.713h0.018l0.033-0.619H497.74z M496.969,587.687
		c0-0.128-0.009-0.237-0.043-0.34c-0.136-0.433-0.5-0.789-1.043-0.789c-0.712,0-1.221,0.603-1.221,1.552
		c0,0.806,0.407,1.477,1.212,1.477c0.459,0,0.874-0.289,1.035-0.763c0.042-0.129,0.06-0.272,0.06-0.399V587.687z"/>
	<path fill="#231F20" d="M499.726,584.914c0.008,0.255-0.178,0.458-0.475,0.458c-0.264,0-0.449-0.203-0.449-0.458
		c0-0.264,0.194-0.466,0.466-0.466C499.548,584.448,499.726,584.65,499.726,584.914z M498.894,590.171v-4.104h0.746v4.104H498.894z"
		/>
	<path fill="#231F20" d="M501.776,584.889v1.178h1.07v0.568h-1.07v2.213c0,0.509,0.145,0.797,0.561,0.797
		c0.194,0,0.34-0.024,0.433-0.051l0.033,0.561c-0.144,0.059-0.372,0.102-0.661,0.102c-0.347,0-0.627-0.11-0.806-0.314
		c-0.211-0.221-0.287-0.585-0.287-1.067v-2.239h-0.636v-0.568h0.636v-0.983L501.776,584.889z"/>
	<path fill="#231F20" d="M507.12,589.051c0,0.424,0.009,0.798,0.033,1.12h-0.661l-0.042-0.671h-0.017
		c-0.195,0.331-0.628,0.765-1.356,0.765c-0.645,0-1.417-0.356-1.417-1.798v-2.4h0.747v2.271c0,0.781,0.237,1.307,0.915,1.307
		c0.5,0,0.848-0.348,0.984-0.678c0.042-0.111,0.067-0.246,0.067-0.382v-2.519h0.746V589.051z"/>
	<path fill="#231F20" d="M511.904,584.151v4.961c0,0.363,0.008,0.779,0.033,1.06h-0.669l-0.035-0.713h-0.016
		c-0.229,0.458-0.73,0.807-1.4,0.807c-0.992,0-1.755-0.841-1.755-2.087c-0.009-1.365,0.84-2.205,1.84-2.205
		c0.628,0,1.052,0.297,1.238,0.628h0.018v-2.45H511.904z M511.158,587.738c0-0.094-0.009-0.221-0.035-0.315
		c-0.109-0.475-0.517-0.864-1.076-0.864c-0.771,0-1.229,0.679-1.229,1.586c0,0.831,0.407,1.518,1.212,1.518
		c0.501,0,0.959-0.33,1.094-0.889c0.026-0.103,0.035-0.205,0.035-0.324V587.738z"/>
	<path fill="#231F20" d="M513.558,588.254c0.019,1.009,0.662,1.426,1.408,1.426c0.534,0,0.856-0.094,1.137-0.213l0.127,0.533
		c-0.264,0.12-0.713,0.256-1.365,0.256c-1.264,0-2.019-0.832-2.019-2.068c0-1.24,0.73-2.215,1.926-2.215
		c1.34,0,1.695,1.179,1.695,1.935c0,0.151-0.016,0.271-0.026,0.347H513.558z M515.745,587.721c0.01-0.476-0.194-1.214-1.033-1.214
		c-0.755,0-1.085,0.696-1.145,1.214H515.745z"/>
</g>
<rect x="18.741" y="364.401" fill="none" stroke="#231F20" stroke-miterlimit="10" width="575.527" height="308.16"/>
</svg>
