<?xml version="1.0" encoding="utf-8"?>
<!-- Generator: Adobe Illustrator 16.0.4, SVG Export Plug-In . SVG Version: 6.00 Build 0)  -->
<!DOCTYPE svg PUBLIC "-//W3C//DTD SVG 1.1//EN" "http://www.w3.org/Graphics/SVG/1.1/DTD/svg11.dtd">
<svg version="1.1" xmlns="http://www.w3.org/2000/svg" xmlns:xlink="http://www.w3.org/1999/xlink" x="0px" y="0px" width="50px"
	 height="50px" viewBox="0 0 50 50" enable-background="new 0 0 50 50" xml:space="preserve">
<g id="Layer_1">
	<g>
		<path fill="#84D1DD" d="M25,49.562C11.456,49.562,0.438,38.544,0.438,25C0.438,11.456,11.456,0.437,25,0.437
			S49.562,11.456,49.562,25C49.562,38.544,38.544,49.562,25,49.562z M25,3.437C13.11,3.437,3.438,13.11,3.438,25
			c0,11.89,9.673,21.563,21.562,21.563S46.562,36.89,46.562,25C46.562,13.11,36.89,3.437,25,3.437z"/>
	</g>
</g>
<g id="Layer_2">
	<g id="tBpDSy.tif">
		<g>
			<path fill="#84D1DD" d="M20.403,46.95c0.004-1.103,0.002-2.205-0.001-3.307c0-0.15-0.018-0.299-0.029-0.453
				c-0.611,0.079-1.18,0.174-1.753,0.219c-2.692,0.209-5.343-0.846-6.387-3.692c-0.486-1.321-1.312-2.423-2.557-3.163
				c-0.208-0.124-0.396-0.293-0.562-0.471c-0.387-0.412-0.313-0.688,0.229-0.797c0.302-0.062,0.628-0.084,0.93-0.037
				c1.476,0.227,2.523,1.104,3.253,2.339c1.532,2.595,3.942,3.056,6.572,2.083c0.144-0.055,0.336-0.193,0.361-0.32
				c0.219-1.113,0.643-2.123,1.4-2.946c-1.15-0.247-2.275-0.43-3.365-0.733c-2.886-0.806-5.134-2.417-6.345-5.26
				c-0.563-1.317-0.823-2.706-0.944-4.12c-0.239-2.783,0.238-5.366,2.106-7.568c0.107-0.126,0.147-0.388,0.099-0.554
				c-0.454-1.576-0.402-3.143,0.027-4.709c0.364-1.328,0.483-1.394,1.852-1.099c1.667,0.358,3.125,1.179,4.565,2.052
				c0.211,0.128,0.534,0.217,0.76,0.157c3.719-0.985,7.428-0.977,11.149-0.004c0.228,0.062,0.537-0.03,0.763-0.143
				c1.076-0.539,2.105-1.185,3.213-1.642c0.741-0.306,1.587-0.369,2.388-0.518c0.264-0.049,0.438,0.072,0.537,0.361
				c0.625,1.812,0.816,3.638,0.296,5.514c-0.056,0.201,0.03,0.513,0.163,0.682c1.085,1.358,1.853,2.875,1.955,4.611
				c0.085,1.402,0.07,2.838-0.126,4.228c-0.534,3.775-2.542,6.464-6.22,7.712c-1.36,0.463-2.789,0.724-4.198,1.079
				c1.29,1.332,1.448,3.065,1.425,4.863c-0.024,1.838-0.005,3.676-0.005,5.513"/>
		</g>
	</g>
</g>
</svg>
