<?xml version="1.0" encoding="utf-8"?>
<!-- Generator: Adobe Illustrator 16.0.4, SVG Export Plug-In . SVG Version: 6.00 Build 0)  -->
<!DOCTYPE svg PUBLIC "-//W3C//DTD SVG 1.1//EN" "http://www.w3.org/Graphics/SVG/1.1/DTD/svg11.dtd">
<svg version="1.1" id="Layer_1" xmlns="http://www.w3.org/2000/svg" xmlns:xlink="http://www.w3.org/1999/xlink" x="0px" y="0px"
	 width="50px" height="50px" viewBox="0 0 50 50" enable-background="new 0 0 50 50" xml:space="preserve">
<g>
	<path fill="#84D1DD" d="M25,49.562C11.456,49.562,0.438,38.544,0.438,25C0.438,11.456,11.456,0.437,25,0.437
		S49.562,11.456,49.562,25C49.562,38.544,38.544,49.562,25,49.562z M25,3.437C13.11,3.437,3.438,13.11,3.438,25
		c0,11.89,9.673,21.563,21.562,21.563S46.562,36.89,46.562,25C46.562,13.11,36.89,3.437,25,3.437z"/>
</g>
<g>
	<path fill="#84D1DD" d="M30.13,40.307H19.87c-5.612,0-10.177-4.565-10.177-10.178V19.872c0-5.612,4.565-10.178,10.177-10.178h10.26
		c5.611,0,10.177,4.566,10.177,10.178v10.257C40.307,35.741,35.741,40.307,30.13,40.307z M19.87,12.694
		c-3.958,0-7.177,3.22-7.177,7.178v10.257c0,3.958,3.22,7.178,7.177,7.178h10.26c3.957,0,7.177-3.22,7.177-7.178V19.872
		c0-3.958-3.22-7.178-7.177-7.178H19.87z"/>
</g>
<g>
	<path fill="#84D1DD" d="M25,31.584c-3.63,0-6.583-2.954-6.583-6.584c0-3.63,2.953-6.583,6.583-6.583S31.583,21.37,31.583,25
		C31.583,28.63,28.63,31.584,25,31.584z M25,20.417c-2.527,0-4.583,2.056-4.583,4.583c0,2.528,2.056,4.584,4.583,4.584
		c2.528,0,4.583-2.057,4.583-4.584C29.583,22.473,27.527,20.417,25,20.417z"/>
</g>
<circle fill="#84D1DD" cx="31.833" cy="17.667" r="1"/>
</svg>
