<?xml version="1.0" encoding="utf-8"?>
<!-- Generator: Adobe Illustrator 16.0.4, SVG Export Plug-In . SVG Version: 6.00 Build 0)  -->
<!DOCTYPE svg PUBLIC "-//W3C//DTD SVG 1.1//EN" "http://www.w3.org/Graphics/SVG/1.1/DTD/svg11.dtd">
<svg version="1.1" id="Layer_1" xmlns="http://www.w3.org/2000/svg" xmlns:xlink="http://www.w3.org/1999/xlink" x="0px" y="0px"
	 width="50px" height="50px" viewBox="0 0 50 50" enable-background="new 0 0 50 50" xml:space="preserve">
<g>
	<path fill="#84D1DD" d="M25,49.562C11.456,49.562,0.438,38.544,0.438,25C0.438,11.456,11.456,0.437,25,0.437
		S49.562,11.456,49.562,25C49.562,38.544,38.544,49.562,25,49.562z M25,3.437C13.11,3.437,3.438,13.11,3.438,25
		c0,11.89,9.673,21.563,21.562,21.563S46.562,36.89,46.562,25C46.562,13.11,36.89,3.437,25,3.437z"/>
</g>
<g id="Layer_2">
	<g id="Layer_4_1_">
		<circle fill="#84D1DD" cx="17.044" cy="15.211" r="2.744"/>
		<rect x="14.569" y="19.855" fill="#84D1DD" width="4.951" height="14.966"/>
		<rect x="22.244" y="19.855" fill="#84D1DD" width="4.95" height="14.966"/>
		<path fill="#84D1DD" d="M32.4,34.875h4.988c0,0,0-8.02,0-9.23s-0.384-6.044-5.41-6.044c-3.896,0-4.837,2.476-4.837,2.476v4.015
			c0,0,0.441-2.557,3.071-2.557c2.206,0,2.225,3.799,2.225,4.874S32.4,34.875,32.4,34.875z"/>
		<path fill="#84D1DD" d="M39.207,24.562"/>
	</g>
</g>
</svg>
