<?xml version="1.0" encoding="utf-8"?>
<!-- Generator: Adobe Illustrator 16.0.4, SVG Export Plug-In . SVG Version: 6.00 Build 0)  -->
<!DOCTYPE svg PUBLIC "-//W3C//DTD SVG 1.1//EN" "http://www.w3.org/Graphics/SVG/1.1/DTD/svg11.dtd">
<svg version="1.1" id="Layer_1" xmlns="http://www.w3.org/2000/svg" xmlns:xlink="http://www.w3.org/1999/xlink" x="0px" y="0px"
	 width="50px" height="50px" viewBox="0 0 50 50" enable-background="new 0 0 50 50" xml:space="preserve">
<g>
	<path fill="#84D1DD" d="M25,49.562C11.456,49.562,0.438,38.544,0.438,25C0.438,11.456,11.456,0.437,25,0.437
		S49.562,11.456,49.562,25C49.562,38.544,38.544,49.562,25,49.562z M25,3.437C13.11,3.437,3.438,13.11,3.438,25
		c0,11.89,9.673,21.563,21.562,21.563S46.562,36.89,46.562,25C46.562,13.11,36.89,3.437,25,3.437z"/>
</g>
<g>
	<path fill="#84D1DD" d="M40.111,34.188H9.889c-0.474,0-0.857-0.447-0.857-1V16.812c0-0.552,0.384-1,0.857-1h30.223
		c0.474,0,0.857,0.448,0.857,1v16.375C40.969,33.74,40.585,34.188,40.111,34.188z M10.746,32.188h28.508V17.812H10.746V32.188z"/>
</g>
<g>
	<path fill="#84D1DD" d="M25,26c-0.124,0-0.247-0.031-0.361-0.094L9.527,17.719l0.722-1.813L25,23.897l14.751-7.992l0.722,1.813
		l-15.111,8.188C25.247,25.969,25.124,26,25,26z"/>
</g>
</svg>
