<?xml version="1.0" encoding="utf-8"?>
<!-- Generator: Adobe Illustrator 16.0.4, SVG Export Plug-In . SVG Version: 6.00 Build 0)  -->
<!DOCTYPE svg PUBLIC "-//W3C//DTD SVG 1.1//EN" "http://www.w3.org/Graphics/SVG/1.1/DTD/svg11.dtd">
<svg version="1.1" id="Layer_1" xmlns="http://www.w3.org/2000/svg" xmlns:xlink="http://www.w3.org/1999/xlink" x="0px" y="0px"
	 width="555px" height="282px" viewBox="0 0 555 282" enable-background="new 0 0 555 282" xml:space="preserve">
<rect x="2.05" y="0" fill="#F1AACC" width="552.95" height="282"/>
<path fill="#D9D832" d="M219.987,45.35h-71.335v11.583c0,0,4.478,54.438,4.776,73.242c0.299,18.804,0.597,43.875,1.791,45.368
	c1.194,1.492,23.579,0,30.743,0s25.37,0.662,25.37,0.662s2.089,0.248,2.089-5.58c0-5.827,4.776-107.308,6.566-111.486V45.35z"/>
<path fill="#444444" d="M156.114,176.207c0,0,1.761,28.795,4.477,31.511h46.86c0,0,5.372-23.983,3.88-31.513
	c0,0-18.839-2.155-27.477-2.155S156.114,176.207,156.114,176.207z"/>
<path fill="#F4F4F4" d="M225.003,205.74c0,0-13.245,0-17.122,0c-2.1,0-1.292-5.491-1.292-5.491l0.323-106.604
	c0,0,0.97-3.23,5.492-3.23s20.998,0,20.998,0s5.976,0.323,5.976,2.261c0,1.938,0,105.796,0,105.796s0.001,7.268-3.23,7.268
	C232.917,205.74,225.003,205.74,225.003,205.74z"/>
<path d="M213.051,76.201v14.214h20.351V76.524c0,0-1.364-2.584-10.494-2.584C213.778,73.94,213.051,76.201,213.051,76.201z"/>
<polygon fill="#B5D563" points="314.803,256.115 220.484,232.11 302.39,184.674 388.232,205.587 "/>
<path fill="#EED9A0" d="M328.097,72.465l0.298,127.447c0,0,3.283,4.195,15.223,4.195c11.938,0,17.609-3.747,17.609-3.747V72.465
	c0,0-6.517-2.089-15.869-2.089C336.006,70.375,328.097,72.465,328.097,72.465z"/>
<path fill="#B47D38" d="M328.842,45.751v26.531c0,0,8.986-1.161,15.072-1.161c6.088,0,16.566,1.393,16.566,1.393l-0.746-26.764
	c0,0-2.389-2.52-14.028-2.52C334.065,43.232,328.842,45.751,328.842,45.751z"/>
<path fill="#2A6045" d="M125.561,207.948c0,0-2.312,0.046-2.312,0.32s0.44,6.344,0.44,6.344s0.439,0.168,3.301,0.168
	s84.301-0.091,84.301-0.091s1.76,0,1.76-0.365c0-0.367,0-6.261,0-6.261s-1.431-0.115-2.752-0.115c-1.32,0-33.785-0.343-39.619-0.343
	C164.848,207.605,125.561,207.948,125.561,207.948z"/>
<path fill="#2F7A57" d="M120.476,165.244c0,0-3.06,0.292-3.06,2.04c0,1.747,0.583,40.449,0.583,40.449s0.583,1.072,4.37,1.072
	c3.789,0,111.6-0.582,111.6-0.582s2.331,0,2.331-2.332c0-2.33,0-39.917,0-39.917s-1.894-0.73-3.642-0.73
	c-1.749,0-44.727-2.185-52.449-2.185C172.487,163.06,120.476,165.244,120.476,165.244z"/>
<path fill="#535352" d="M233.239,167.046c0,0,3.06-0.022,3.06-0.159s-0.583-3.164-0.583-3.164s-0.581-0.084-4.37-0.084
	s-111.601,0.046-111.601,0.046s-2.33,0-2.33,0.183c0,0.182,0,3.121,0,3.121s1.894,0.058,3.643,0.058
	c1.748,0,44.727,0.171,52.448,0.171C181.229,167.217,233.239,167.046,233.239,167.046z"/>
<path fill="#303331" d="M179.418,122.301c-7.431,0-47.75,0.437-48.952,3.716c0,0-1.584,37.096-1.093,37.588
	c0.492,0.491,41.413,1.345,49.28,1.345s45.783-1.127,45.783-1.127V127.11c0,0-1.528-2.253-6.774-3.279
	C213.48,123.014,179.418,122.301,179.418,122.301z"/>
<path fill="#D8D5DB" d="M371.664,66.546v7.065h33.605v-7.065C405.27,66.546,392.109,62.815,371.664,66.546z"/>
<path fill="#F1DF6F" d="M356.889,77.291l-1.492,108.644c0,0,4.775,12.296,8.357,14.924s22.684,2.628,27.16,2.628
	c4.479,0,19.402,0,19.402,0s11.043-12.776,10.744-16.954c-0.299-4.179,0.006-109.241,0.006-109.241s-17.609-5.372-32.836-5.372
	C373.008,71.919,356.889,77.291,356.889,77.291z"/>
<path fill="#ECEAEF" d="M369.723,43.862v23.729c0,0,21.342-4.477,37.758,0V43.862c0,0-6.711-2.745-19.25-2.745
	C375.693,41.117,369.723,43.862,369.723,43.862z"/>
<path fill="#0EBAB4" d="M306.831,184.674c-6.95,0-22.988,0-24.86,0c-1.871,0-1.871-0.936-1.871-2.139
	c0-1.202-2.674-96.9-6.148-114.142h60.814c0,0-6.549,109.598-6.016,113.074c0,0-0.533,3.207-2.004,3.207
	S306.831,184.674,306.831,184.674z"/>
<path fill="#CFCFCF" d="M280.434,183.471v25.797c0,0,15.771,2.019,26.196,2.019c10.426,0,21.786-1.886,21.786-1.886v-25.528
	C328.416,183.872,292.062,184.941,280.434,183.471z"/>
<path fill="#CDCCCC" d="M259.923,49.153c-7.909,0-13.282,2.578-13.282,2.578v18.505c0,0-0.149,0.821,2.388,0.821v-1.418
	c0,0,10.351-2.224,19.23,0.015l-0.228,1.08c0,0,2.338-0.199,2.637-0.572V50.835C270.669,50.835,267.908,49.153,259.923,49.153z"/>
<path fill="#DE8826" d="M249.029,69.639v2.835c0,0-13.879,1.642-13.879,4.477c0,2.835-0.746,129.537-0.746,129.537
	s1.045,5.033,3.433,5.033s41.041,0,41.041,0s3.58-1.303,3.58-4.586c0-3.282,0-128.044,0-128.044s-1.939-6.269-14.177-6.269
	l-0.024-3.481C268.256,69.142,260.62,67.351,249.029,69.639z"/>
<path fill="#C54277" d="M171.464,159.378v19.418c0,0,18.23,1.089,35.369,1.089c17.14,0,34.577-1.486,34.577-1.486v-19.021
	c0,0-8.421-2.181-31.307-2.181C187.217,157.197,171.464,159.378,171.464,159.378z"/>
<path fill="#E2E0E0" d="M174.536,178.894v0.991c0,0-3.17-0.693-5.548,0c-2.377,0.694-2.972,1.882-2.972,4.656
	c0,2.775,1.288,38.441,1.288,38.441s9.016,6.836,40.52,6.836c31.506,0,37.846-8.521,37.846-8.521s1.189-35.566,1.189-38.439
	s-3.27-3.468-4.062-3.468c-0.793,0-4.657,0-4.657,0l0.099-0.991C238.239,178.398,211.093,181.371,174.536,178.894z"/>
<path fill="#442310" d="M348.84,131.355v1.643h1.193c0,0,0.448,1.94-0.596,2.835c-1.045,0.896-9.104,6.119-9.104,10.298
	c0,4.178,0,64.469,0,64.469s3.73,5.82,20.744,5.82c17.012,0,19.549-6.118,19.549-6.118v-65.663c0,0-5.869-6.319-9.352-8.358
	c-1.123-0.658-0.348-3.283-0.348-3.283l1.242-0.2l0.1-1.443H348.84z"/>
<rect x="346.302" y="112.601" width="28.056" height="18.754"/>
<path d="M360.33,90.415c-2.637,0-6.317,2.537-6.317,4.477c0,1.94,0,13.979,0,14.625s-1.864,2.363-2.587,3.084h18.008
	c0,0-2.438-2.238-2.438-2.885c0-0.647-0.149-14.078-0.149-14.725C366.847,94.345,364.607,90.415,360.33,90.415z"/>
<g>
	<path d="M206.544,217.168h-2.436v-22.813h-2.615v-2.257h5.05V217.168z"/>
</g>
<g>
	<path d="M264.583,139.191h-16.976l12.643-13.18c1.433-1.504,1.827-3.366,1.827-4.333c0-3.295-3.331-5.551-5.981-5.551
		c-3.474,0-5.659,3.653-5.659,5.623h-2.615c0.896-4.907,3.689-7.628,8.273-7.844c0.609-0.072,1.11,0,1.612,0.107
		c1.862,0.251,3.402,1.146,4.799,2.615c1.361,1.54,2.042,3.188,2.042,5.05c0,1.934-0.645,3.689-1.898,5.193l-9.419,9.849
		l11.354-0.035V139.191z"/>
</g>
<g>
	<path d="M308.789,131.211c0,3.483-1.892,5.074-3.219,5.904c-1.326,0.763-2.819,1.194-4.511,1.194c-2.057,0-3.781-0.63-5.241-1.924
		c-1.459-1.295-2.223-2.621-2.223-4.645h2.422c0.033,1.991,2.289,4.246,5.208,4.246c2.321,0,5.108-1.692,5.108-4.477
		c0-3.053-1.891-4.346-3.914-4.346c-0.133,0-1.096,0-1.493,0v-2.123c0.133,0,1.028-0.033,1.294-0.033
		c1.791,0,3.947-2.421,3.947-4.146c0-2.322-1.758-4.113-4.744-4.113c-3.117,0-4.975,2.521-4.975,4.246h-2.322
		c0.764-4.378,3.185-6.236,7.33-6.236c1.924,0,3.517,0.597,4.91,1.692c1.393,1.227,2.123,2.753,2.123,4.577
		c0,2.124-1.294,3.715-2.854,4.942C307.429,127.031,308.789,128.988,308.789,131.211z"/>
</g>
<g>
	<path d="M225.238,115.819h-1.82v2.304h-1.475v-2.304h-8.893l10.39-14.076v12.647h1.797V115.819z M217.589,114.391h3.317l1.06,0.046
		l-0.023-0.967v-6.014l0.023-1.382l-0.829,1.221l-4.032,5.506l-1.267,1.635L217.589,114.391z"/>
</g>
<g>
	<path d="M349.408,103.265c-1.134,1.187-2.479,2.084-4.193,2.295c-0.291,0-0.816,0.026-0.816,0.026c-0.238,0-0.238,0-0.37,0
		c-1.188,0-1.979-0.422-3.033-1.16c-1.662-1.134-2.452-3.587-2.479-3.825h1.82c0.58,1.714,2.347,3.35,4.088,3.35
		c2.717,0,4.668-2.321,4.668-4.827c0-2.374-1.872-4.299-4.273-4.299c-1.476,0-3.296,0.766-4.087,1.899l-1.319-0.791l3.429-8.968
		h7.622v1.767l-6.54,0.053l-1.82,4.906c0.765-0.475,4.589-1.372,7.042,1.055c1.268,1.266,1.662,2.506,1.662,4.194
		C350.807,100.575,350.463,102.078,349.408,103.265z"/>
</g>
<g>
	<path fill="#FFFFFF" d="M369.297,177.34c0,4.441-3.582,8.022-8.309,8.022c-4.692,0-8.273-3.581-8.273-8.022
		c0-1.54,0.357-3.045,1.182-4.228l0.071-0.035c0.144-0.322,9.956-13.18,9.956-13.18l1.971,1.611l-4.691,6.089l-1.469,1.97
		c1.038-0.179,1.72-0.214,2.938,0C366.61,170.283,369.297,173.472,369.297,177.34z M366.97,177.411c0-3.152-2.687-5.729-5.981-5.729
		c-3.26,0-5.945,2.577-5.945,5.729c0,3.151,2.686,5.767,5.945,5.767C364.283,183.178,366.97,180.562,366.97,177.411z"/>
</g>
<g>
	<path d="M304.194,219.232l-18.329,20.955l-2.867-0.78l16.504-18.89l-12.302-3.352l0.649-2.386L304.194,219.232z"/>
</g>
<g>
	<path fill="#FFFFFF" d="M164.167,192.599c0,4.165-3.533,7.812-8.072,7.812c-4.5,0-8.035-3.571-8.035-7.739
		c0-2.417,1.637-4.612,3.459-5.988c-1.525-1.338-2.901-3.347-2.901-5.542c0-4.055,3.236-7.254,7.403-7.254
		c4.203,0,7.439,3.199,7.439,7.254c0,2.12-1.339,4.128-2.864,5.506C162.531,187.986,164.167,190.144,164.167,192.599z
		 M161.526,192.748c0-2.754-2.417-4.985-5.431-4.985c-2.976,0-5.394,2.231-5.394,4.985c0,2.79,2.418,5.282,5.394,5.282
		C159.108,198.03,161.526,195.538,161.526,192.748z M151.223,180.956c0,2.864,2.157,4.76,4.799,4.76c2.678,0,4.835-1.896,4.835-4.76
		c0-2.567-2.157-4.688-4.835-4.688C153.38,176.269,151.223,178.389,151.223,180.956z"/>
</g>
<g>
	<path d="M399.107,117.634c0,1.396-0.322,2.793-1.182,4.298c-0.395,0.68-1.254,1.97-2.615,3.653l-7.307,9.419h-3.545l7.557-9.527
		c-0.18,0.143-0.789,0.215-1.002,0.215c-2.758,0-5.336-0.787-6.877-2.399c-1.541-1.576-2.078-3.438-2.078-5.552
		c0-2.22,0.645-4.118,2.4-5.73c1.611-1.504,3.582-2.256,5.803-2.256c2.291,0,4.297,0.752,6.088,2.148
		C398.248,113.515,399.107,115.413,399.107,117.634z M396.564,117.598c0-3.188-2.973-5.624-6.018-5.624
		c-3.295,0-6.088,2.543-6.088,5.659c0,3.188,2.793,5.73,6.088,5.73C394.094,123.364,396.564,120.714,396.564,117.598z"/>
</g>
<g>
	<path d="M174.847,105.264h-2.435V82.45h-2.615v-2.256h5.05V105.264z"/>
	<path d="M194.76,99.533c0,4.19-3.116,6.053-7.485,6.053c-3.152,0-7.378-0.788-7.378-6.447V86.497c0-4.942,3.474-6.59,7.521-6.59
		c2.973,0,7.342,1.29,7.342,6.77V99.533z M192.396,86.281c0-2.793-2.542-3.939-5.05-3.939c-2.399,0-5.014,1.039-5.014,4.119v12.428
		c0,4.119,3.295,4.441,4.943,4.441c1.432,0,5.121-0.107,5.121-4.333V86.281z"/>
</g>
</svg>
