<?xml version="1.0" encoding="utf-8"?>
<!-- Generator: Adobe Illustrator 16.0.4, SVG Export Plug-In . SVG Version: 6.00 Build 0)  -->
<!DOCTYPE svg PUBLIC "-//W3C//DTD SVG 1.1//EN" "http://www.w3.org/Graphics/SVG/1.1/DTD/svg11.dtd">
<svg version="1.1" xmlns="http://www.w3.org/2000/svg" xmlns:xlink="http://www.w3.org/1999/xlink" x="0px" y="0px" width="1700px"
	 height="1700px" viewBox="0 0 1700 1700" enable-background="new 0 0 1700 1700" xml:space="preserve">
<g id="Layer_1">
	<linearGradient id="SVGID_1_" gradientUnits="userSpaceOnUse" x1="850" y1="0" x2="849.9999" y2="1700.0005">
		<stop  offset="0.5051" style="stop-color:#2BB673"/>
		<stop  offset="0.8979" style="stop-color:#00703E"/>
		<stop  offset="0.9286" style="stop-color:#006B3B"/>
		<stop  offset="0.9592" style="stop-color:#006838"/>
	</linearGradient>
	<rect x="0" fill="url(#SVGID_1_)" width="1700" height="1700"/>
</g>
<g id="Layer_7" display="none">
	
		<rect x="824.881" y="0.918" display="inline" fill="#189647" stroke="#000000" stroke-miterlimit="10" width="875.119" height="1700"/>
</g>
<g id="Layer_5" display="none">
	<path display="inline" opacity="0.3" fill="#B21F2B" d="M1396.637,1616.039c0,0-2.862-3.653-4.433-1.301
		c-1.571,2.338-2.873,3.651-2.873,4.952c0,1.302-1.044,4.967-2.866,4.967c-1.828,0-2.879,2.611-3.396,3.649
		c-0.526,1.045-6.787,4.701-7.058,7.569c-0.253,2.878-9.127,6.009-9.127,6.009s3.125-12.264,0-12.533
		c-3.135-0.259-4.96-4.96-6.531-5.476c-1.569-0.522-8.095-4.701-8.095-4.701s-5.217-5.756-7.567-5.223
		c-2.351,0.522-8.096-6.396-8.482-7.569c-0.394-1.172-3.132-1.693-4.703-3.13c-1.57-1.44-8.348-9.66-10.827-9.144
		c-2.479,0.52-9.789-0.517-10.188-1.172c-0.394-0.652-3.394-2.873-6.261-3.396c-2.874-0.525-2.874,0.921-4.836-1.307
		c-1.952-2.215-5.74-5.869-5.74-5.869s1.175-2.215,0.915-4.693c-0.265-2.486-2.094-5.364-3-6.398
		c-0.915-1.041-1.566-3.14-4.188-5.093c-2.603-1.957-4.824-8.225-4.436-10.315c0.392-2.089-1.952-5.349-1.431-7.827
		c0.526-2.486,1.312-6.524,2.091-7.311c0.775-0.785,2.081-3.008,0.775-4.438c-1.301-1.437-2.216-4.7-2.216-4.7
		s2.216-4.176,2.873-5.358c0.648-1.167,2.221-11.614,2.221-13.043c0-1.437-1.043-4.967,0.263-5.615
		c1.304-0.658,2.088-11.356,2.088-11.882c0-0.522,1.044-9.264,1.959-9.528c0.906-0.257,0.394-9.918,0.516-11.618
		c0.134-1.694,1.306-6.525,0.649-8.482c-0.649-1.958-1.958-7.568-1.958-7.568s2.878-3.915,2.487-5.487
		c-0.393-1.558-2.879-9.79-3.126-10.305c-0.269-0.528-1.447-4.31-1.571-5.486c-0.136-1.173-2.879-7.052-3.92-7.693
		c-1.04-0.655-3.519-4.184-2.347-4.841c1.173-0.65,2.222-1.957,2.222-2.736c0-0.78-2.771-6.261-3.081-6.918
		c-0.312-0.651-2.663-9.656-3.19-11.483c-0.518-1.83-0.263-5.224,0.787-7.703c1.042-2.479-3.133-6.53-3.396-5.875
		c-0.252,0.652-6.133-0.779-5.88-1.436c0.269-0.657,0.518-3.394-0.006-4.831c-0.511-1.429-1.161-4.303-2.338-6.659
		c-1.174-2.35-4.181-4.044-2.219-5.869c1.954-1.826,3.261-8.224,1.83-8.886c-1.431-0.644-2.479,0.662-3.008-1.688
		c-0.515-2.351-0.387-4.305,0-6.262c0.394-1.97-4.959-9.279-4.701-11.23c0.27-1.96,1.184-2.217-0.779-5.61
		c-1.957-3.39-4.174-6.272-3.915-8.095c0.257-1.83,1.834-4.696-1.958-5.612c-3.781-0.918-11.489-8.747-10.969-10.575
		c0.528-1.828,1.7-3.651,1.05-4.437c-0.656-0.785-0.915-0.388-1.7-2.486c-0.779-2.086-0.65-4.045-0.65-4.045l-3.911-2.21
		c0,0-1.835-10.059-2.747-10.973c-0.91-0.909-4.047-2.862-3.395-4.825c0.65-1.956,3.266-1.822,3.395-3.651
		c0.135-1.83-1.049-13.062,0.264-16.315c1.301-3.271,2.221-3.271,3.392-5.357c1.18-2.087,1.18-4.038,1.438-4.567
		c0.256-0.52,4.044,2.224,5.738-1.564c1.705-3.781,4.571-5.739,4.835-6.131c0.264-0.4,2.211-2.486,3.126-2.751
		c0.918-0.252,1.699-4.689,1.834-5.867c0.129-1.173,11.231-10.177,12.662-10.312s4.964-0.521,6.658,0
		c1.702,0.521,4.825,0.247,5.09-0.27c0.26-0.516,0.26-10.827,0.26-10.827s3.005,1.437,5.345-2.744
		c2.354-4.175,2.878-6.395,3.658-8.211c0.786-1.837,0.914-4.445,2.221-5.229c1.309-0.78,4.434-4.961,5.611-7.312
		c1.178-2.346,0.521-1.823,1.437-4.571c0.914-2.737,2.747-5.212,3.915-6.787c1.178-1.561,8.622-3.262,9.666-2.733
		c1.032,0.521,2.124-2.352,2.56-4.05c0.437-1.694-0.436-13.179,0-13.707c0.437-0.521,1.48-3.915,0.566-6.529
		c-0.911-2.614-2.609-7.04-4.17-9.397c-1.57-2.351-7.185-6.395-6.276-9.263c0.914-2.878,0.134-3.265-2.48-4.826
		c-2.604-1.568-2.604-6.922-3.646-9.272c-1.049-2.345-6.788-2.866-6.918-6.524c-0.14-3.658,0.651-8.224-0.14-10.703
		c-0.774-2.479-3.909-7.962-2.6-9.263c1.299-1.309,0.519-8.618-1.049-11.231c-1.563-2.608,1.954-15.663,1.83-16.444
		c-0.136-0.789-0.526-9.401,0.26-9.536c0.784-0.117,7.181-7.041,8.75-7.95c1.561-0.92,6.391-4.841,8.736-4.7
		c2.351,0.127,3.136,0.908,5.744,1.817c2.614,0.914,6.659,2.355,7.311,3.276c0.65,0.908,2.226,0.645,3.916,0.772
		c1.699,0.136,1.436,1.438,3.656,3.267c2.213,1.822,4.174,4.432,7.306,4.179c3.14-0.271,4.051-1.964,6.53-0.394
		c2.479,1.565,3.393,7.171,4.701,7.961c1.302,0.78,3.909,1.443,4.696,2.481c0.785,1.036,1.694,7.567,4.965,9.272
		c3.259,1.694,7.04,3.524,8.471,6.262c1.446,2.731,5.881,2.731,8.627,4.825c2.738,2.092,7.172,4.964,8.221,7.443
		c1.043,2.48,2.478,6.392,4.83,6.784c2.339,0.392,7.703-0.254,8.615,1.178c0.915,1.43,3.784,7.703,6.264,9.009
		c2.478,1.304,7.573-2.614,8.874-2.614c1.307,0,12.017,0.65,13.447,2.345c1.438,1.701,10.962,3.929,12.271,5.223
		c1.307,1.309,5.222,1.701,8.87,2.48c3.658,0.785,7.184,0.521,7.573,1.05c0.392,0.517,6.265,3.653,6.265,3.653
		s9.011,4.173,10.706,5.087c1.694,0.921,1.694,1.7,3.388,3.399c1.694,1.694,5.616,3.126,7.315,5.089
		c1.7,1.953,0.91,4.701,6.004,5.218c5.087,0.525,4.302-1.044,9.524,1.306c5.219,2.348,8.359,0.914,10.06,4.697
		c1.701,3.793,1.431,4.437,7.047,6.008c5.604,1.565,8.482,4.824,10.569,7.439c2.093,2.614,2.613,6.266,5.094,7.31
		c2.475,1.045,6.526,0.91,7.828,2.216c1.305,1.309,7.572,3.922,7.964,5.089c0.389,1.184,2.352,4.313,2.211,5.88
		c-0.122,1.559,11.361,8.226,13.189,10.307c1.829,2.098,1.565,5.086,4.571,5.086c3.003,0,5.225,0,5.74,1.185
		c0.522,1.169-0.262,4.824,0.651,6.128c0.92,1.312,4.18,5.356,4.437,6.663c0.264,1.308,5.097,6.268,5.873,6.918
		c0.786,0.651,4.306,2.871,4.182,4.039c-0.13,1.185,2.221,4.052,2.221,5.094c0,1.055,1.172,5.485,1.297,7.833
		c0.14,2.355-1.038,3.393-2.603,5.352c-1.567,1.952-0.791,3.915-0.523,5.098c0.258,1.169,2.346,14.353,1.432,16.315
		c-0.908,1.953-2.086,3.647-1.823,5.347c0.263,1.694,1.694,7.832,1.964,8.746c0.257,0.908,1.16,6.53,2.343,6.66
		c1.18,0.123,5.613-4.18,5.613-4.572c0-0.387,0.785-2.481,4.044-1.701c3.265,0.785,6.391,1.178,8.874,0.656
		c2.485-0.521,7.574-0.521,7.833,0.266c0.271,0.779,8.488,12.14,9.272,14.614c0.785,2.479,1.173,11.483,0,15.534
		c-1.178,4.049,0.437,5.481,0.743,7.181c0.29,1.693,0.822,2.351,0.952,4.83c0.135,2.48,1.302,6.138,4.695,7.177
		c3.398,1.042,6.138,2.872,6.138,2.872s-1.045,4.045-1.045,4.7c0,0.646,5.089,5.609,5.089,5.609s8.229,6.396,9.009,8.093
		c0.781,1.691,4.96,4.308,5.745,4.7c0.787,0.393,9.926,6.137,12.137,6.91c2.221,0.792,2.087-3.387,5.094,0.662
		c3.001,4.045,13.178,10.049,13.963,12.271c0.786,2.221,1.302,4.179,0,4.437c-1.305,0.264-3.522,2.345-3.26,3.394
		c0.265,1.045,0.265,4.96,0.265,4.96s-8.882,15.663-13.19,19.451c-4.301,3.78-15.793,17.486-17.755,18.531
		c-1.957,1.049-3.127-0.916-5.739,2.743c-2.615,3.651-13.184,12.785-15.53,15.921c-2.354,3.142-13.189,9.536-16.448,11.883
		c-3.259,2.35-7.703,5.874-9.004,7.045c-1.307,1.172-12.797,0-14.099,1.953c-1.302,1.963-2.877,5.094-5.353,7.445
		c-2.479,2.351-8.353,3.657-10.445,6.793c-2.088,3.131-0.773,5.477-3.26,4.83c-2.479-0.655-5.611-4.313-9.402-1.699
		c-3.781,2.613,1.441,3.002-3.652,4.174c-5.088,1.172-10.182-0.13-11.619,1.964c-1.431,2.081-3.658,1.302-5.739,0.646
		c-2.091-0.646-15.405-6.654-17.749-6.003c-2.35,0.649-4.18,1.179-5.874,2.081c-1.702,0.914-6.268,0-7.962,0.914
		c-1.705,0.925-5.616,4.443-7.449,8.102c-1.816,3.656-6.256,4.57-8.736,6.91c-2.484,2.351-3.002,4.837-4.829,7.451
		c-1.829,2.609-5.61,3.78-7.968,5.088c-2.344,1.303-7.832,2.217-8.229,2.997c-0.387,0.785-1.161,3.135-4.297,3.135
		s-12.663,6.139-13.186,9.134c-0.526,3.007-3.655,9.269-7.966,11.231c-4.303,1.957-10.176,0.916-12.402,2.345
		c-2.211,1.438-5.74,4.696-5.869,5.09c-0.129,0.392,1.565,2.879-1.173,4.964c-2.742,2.087-6.267,3.399-7.053,5.745
		c-0.778,2.351,1.308,4.434-1.698,5.211c-2.998,0.793-5.212,3.4-5.212,5.359c0,1.956-2.621,15.932-2.621,15.932
		s-5.217,1.948-6.388,5.997c-1.174,4.04,1.563,7.31-0.653,9.134C1402.515,1602.332,1396.637,1616.039,1396.637,1616.039z"/>
	<path display="inline" opacity="0.3" fill="#B21F2B" d="M1199.018,894.747c0,0-7.955,2.211-9.139,2.082
		c-1.167-0.131-5.476-3.518-7.563-3.518c-2.091,0-9.402,0.521-10.053,2.603c-0.65,2.093-8.354,7.708-9.919,8.751
		c-1.564,1.045-7.831,5.09-9.659,4.438c-1.824-0.657-6.531,1.565-7.563,2.872c-1.049,1.296-6.407,1.566-8.623,0.909
		c0,0-5.48-1.312-6.26-0.393c-0.793,0.92-1.701,1.693-3.529,1.693c-1.824,0-8.742,3.788-9.141,3.664
		c-0.387-0.13-6.906-3.271-8.74-3.131c-1.829,0.124-6.524-0.264-6.524-0.264s-2.614-8.354-3.927-7.573
		c-1.302,0.779-5.082-2.867-5.346-5.481c-0.259-2.604-0.125-3.007-1.694-5.604c-1.565-2.614-4.7-9.01-4.7-9.01
		s3.135-2.228,4.183-4.056c1.037-1.818-0.661-6.262-0.661-8.349c0-2.092-1.688-8.88-1.688-10.312c0-1.436-1.958-7.578-1.833-10.704
		c0.134-3.13,0.655-12.791-0.781-16.712c-1.438-3.911-6.138-13.7-7.966-13.835c-1.825-0.128-8.091-4.303-8.876-2.345
		c-0.779,1.958-4.438,8.875-7.439,9.656c-3,0.78-9.661-5.481-11.359-6.396c-1.694-0.914-5.476-1.564-8.085-1.431
		c-2.609,0.129-3.528-3.006-5.093-5.094c-1.565-2.082-4.305-4.179-6.79-3.651c-2.479,0.521-3.91,2.711-5.093-0.08
		c-1.167-2.793-8.09-12.981-10.705-14.803c-2.608-1.828-4.047-2.486-5.475-5.218c-1.437-2.746-3.002-6.918-4.444-8.488
		c-1.43-1.563-4.303-4.825-2.603-8.093c1.688-3.256,2.603-5.604,0.91-6.521c-1.701-0.92-4.31-5.357-3.268-7.706
		c1.044-2.348,1.566-4.306,2.616-10.05c1.042-5.742,2.737-15.01,5.352-17.882c2.612-2.871-0.656-4.438,2.353-6.262
		c2.999-1.832,5.613-0.135,8.479-3.79c2.874-3.65-1.822-8.611,3.002-8.095c4.83,0.526,8.219,1.96,10.06,1.567
		c1.817-0.391,2.479-2.608,4.297-2.999c1.828-0.393,4.837-0.522,5.75,2.482c0.904,3,6.783,5.872,7.306,6.134
		c0.521,0.262,3.389,5.872,4.185,6.913c0.78,1.043,4.555,3.92,6.396,5.223c1.823,1.307,3.642,5.484,4.038,7.051
		c0.395,1.56,2.873,6.654,3.788,8.219c0.909,1.571,1.823,1.308,2.608,4.962c0.785,3.655,2.608,1.436,3.652,4.83
		c1.044,3.392-4.438,4.172,0.527,6.396c4.96,2.221,8.09,0.648,7.439,5.483c-0.656,4.831,2.346,6.396,2.871,5.742
		c0.523-0.658,2.348-3.394,6.263-4.439s8.747-4.306,13.834-5.093c5.093-0.776,6.788-2.866,9.401-4.434
		c2.614-1.574,9.01-6.131,11.098-6.922c2.088-0.78,0.78,0,2.088-0.78c1.307-0.783,3.393-1.042,4.433-2.351
		c1.042-1.305,5.093-2.737,6.276-1.436c1.162,1.308,6.127,1.961,7.036,1.961c0.914,0,5.613-2.221,6.276-1.961
		c0.646,0.264,2.216,3.395,2.996,3.914c0.781,0.527,2.223,0.398,4.313,0.789c2.077,0.393,4.954-0.262,6.654,0.656
		c1.699,0.906,6.654,0.519,6.523,2.477c-0.133,1.961-0.914,7.176-0.914,7.176s2.217,0.137,3.784,1.441
		c1.563,1.301,2.735,2.867,3.914,4.701c1.179,1.823,5.873,6.519,6.009,7.176c0.129,0.653,7.304,2.867,7.304,2.867
		s2.098,4.438,2.873,5.879c0.785,1.43,2.479,2.477,5.229,1.308c2.736-1.179,4.437-1.179,5.218-0.525
		c0.778,0.647,3.259,6.395,3.522,8.873c0.264,2.481,2.345,3.655,2.609,4.042c0.264,0.398,1.178,2.221,3.131,2.484
		c1.962,0.259,4.829-1.172,5.094-1.693c0.259-0.522,6.002,0.521,7.31,3.001c1.302,2.484,4.697,4.302,6.659,4.695
		c1.953,0.394,9.393,4.104,9.655,4.019c0.264-0.103,6.654,2.243,7.574,3.814c0.919,1.565,3.78,3.265,4.044,3.915
		c0.27,0.656,1.179,0,2.866,1.695c1.7,1.694,1.571,0.661,2.356,4.179c0.785,3.524,0,4.955,0,7.181c0,2.222,1.565,1.694,0.916,4.696
		c-0.658,3.001-1.959,4.83-1.572,6.26c0.398,1.448-0.903,4.578-1.042,5.1c-0.129,0.522-6.789,15.405-8.748,15.787
		c-1.951,0.394-4.296-2.21-5.873,0.528c-1.565,2.737-10.829,11.876-12.662,13.312c-1.822,1.441-4.302,1.307-4.955,1.441
		c-0.648,0.123-1.697-0.915-3.919,1.818c-2.217,2.748-5.87,1.436-7.436,2.479c-1.576,1.044-5.361,6.789-8.357,7.838
		C1203.068,897.49,1199.018,894.747,1199.018,894.747z"/>
	<path display="inline" opacity="0.3" fill="#B21F2B" d="M1060.406,933.035h-2.091c0,0-2.347-0.7-3.304-0.7c0,0-3.223,1.314-2.62,0
		c0.614-1.307,1.921-10.962,1.921-10.962s2.604-0.43,3.314-0.872c0.688-0.437-2.092-9.306-2.969-10.004
		c-0.868-0.695-10.441-8.876-12.27-7.482c-1.823,1.393-11.398,9.053-13.399,9.659c-2.002,0.603-2.701,2.351-3.395,3.562
		c-0.688,1.226-1.909,0.606-3.474,1.618c-1.572,0.995,0.771,4.304-2.535,3.438c-3.303-0.872-7.557,2.258-9.042,3.043
		c-1.479,0.781-4.356,3.47-4.791,4.87c-0.432,1.388-1.223,2.603-2.873,3.83c-1.648,1.22-4.255,7.218-1.909,9.041
		c2.351,1.823,4.087,1.738,3.748,3.917c-0.354,2.173,1.383,3.742,3.212,4.173c1.827,0.435,6.353-1.221,6.353-1.221l4.78-4.959
		c0,0,3.313,0.613,2.971,2.786c-0.354,2.173,4.953-0.695,7.126-1.475c2.18-0.786,5.052-0.607,5.052-0.607s0.953-3.92,2.259-4.179
		c1.312-0.259,1.393,3.215,2.958,5.396c1.567,2.177,4.702-2.438,6.881-2.782c2.173-0.351,4.529-0.784,6.352-0.182
		c1.824,0.612,3.562,1.828,4.256,2.092C1057.627,945.298,1062.844,935.395,1060.406,933.035z"/>
	<path display="inline" opacity="0.3" fill="#B21F2B" d="M957.11,819.99c0,0-9.914,13.232-10.087,14.625
		c-0.182,1.388-4.447,0.78-5.841,1.744c-1.388,0.951-4.868,3.383-7.396,5.04c-2.517,1.656-5.652,3.571-6.004,4.179
		c-0.343,0.608,0.264-0.608-3.65,0c-3.917,0.608-9.398,0.699-9.398,1.043c0,0.349-0.784,0.085-2.437,0
		c-1.661-0.086-5.737-0.086-6.523,1.13c-0.791,1.22-4.965,1.478-5.053,0.789c-0.089-0.705-1.301-5.319-2.779-6.093
		c-1.479-0.786-4.794-4.013-4.873-5.751c-0.087-1.742-0.792-4.782-0.529-6.438c0.266-1.651-1.908-4.007-1.816-4.701
		c0.08-0.693,1.217-3.642,1.217-5.567c0-1.914,0.344-5.917,0-7.138c-0.357-1.221,0.165-4.443-0.265-4.874
		c-0.437-0.43-4.885-9.666-5.308-11.838c-0.432-2.179-6.09-5.915-7.662-5.915c-1.569,0-8.438-4.099-9.569-7.057
		c-1.134-2.954-0.525-15.323,0-15.409c0.523-0.083,5.22-1.127,7.483-2.956c2.26-1.823,11.049-4.795,12.877-4.268
		c1.824,0.519,8.532-2.208,9.139-0.065c0.609,2.151,4.781,1.984,8.182,1.889c3.395-0.084,9.662,0.096,12.357,2.178
		c2.692,2.09,14,8.789,14.962,10.616c0.959,1.831,3.565,5.051,5.918,5.745c2.355,0.696,13.141,13.227,14.619,16.015
		c1.48,2.785,3.835,7.568,4.095,9.828C959.023,809.006,957.11,819.99,957.11,819.99z"/>
	<path display="inline" opacity="0.3" fill="#B21F2B" d="M947.196,708.611c0,0-3.052,1.406-3.398,1.406
		c-0.356,0-1.045-2.101-2.7-0.702c-1.653,1.396-5.832,4.612-8.005,2.958c-2.174-1.653-10.441-6.178-12.964-6.352
		c-2.527-0.173-8.529-2.701-10.962-2.87c-2.442-0.17-10.624-2.697-12.882-3.741c-2.254-1.046-9.834-3.047-12.884-3.309
		c-3.039-0.26-12.349-7.923-14.447-10.18c-2.083-2.266-9.821,0.603-10.698,0c-0.866-0.609-1.125-2.436-3.133-2.782
		c-2.006-0.35-4.515,2.345-5.916,3.044c-1.393,0.697-7.31,2.614-8.353,2.784c-1.044,0.177-22.36-0.349-24.098,0
		c-1.754,0.348-9.402,2.434-10.968,3.044c-1.565,0.614-10.187,0-11.58-0.346c-1.389-0.348-16.967-2.962-17.314-2.962
		c-0.347,0-2.53-5.594-2.53-5.594s4.616-8.161,4.96-9.467c0.36-1.299,1.043-5.305,1.834-5.39c0.779-0.091,2.788-1.568,3.31-3.833
		c0.516-2.264,6.96-5.919,8.783-6.877c1.833-0.959,3.921-4.524,3.662-5.395c-0.27-0.871,1.651-3.927,1.651-4.443
		c0-0.524,0-1.391,0.252-3.828c0.27-2.441-1.729-6.793-3.474-9.491c-1.742-2.692,3.39-4.523,5.481-3.216
		c2.091,1.307,7.4,1.126,8.612,1.126c1.22,0,6.353,0.789,6.701,2.265c0.351,1.481,3.739,3.829,4.442,5.051
		c0.7,1.218,8.091,2.781,9.746,2.348c1.652-0.436,4.348-0.263,6.176,0.611c1.825,0.865,3.744-0.439,5.047-0.874
		c1.312-0.431,5.836,1.475,7.832,1.833c2,0.347,5.398-0.263,6.53,0.084c1.129,0.35,2.435,3.044,7.05,3.655
		c4.604,0.61,17.838,1.911,20.796,2.523c2.958,0.607,5.212-0.433,6.004-0.783c0.773-0.35,4.78-6.958,4.872-8.966
		c0.08-2.001,2.521-4,2.785-4c0.26,0,4.606,0.088,4.606,0.088s7.062,12.789,6.352,14.185c-0.692,1.394,4.62,6.355,6.01,6.088
		c1.393-0.26,4.178-0.871,4.788-0.693c0.606,0.169,5.651,3.133,6.266,2.784c0.602-0.35,4.088-3.225,4.088-3.225
		s3.484,2.355,3.915,2.527c0.432,0.172,2.872-0.865,5.039-0.527c2.186,0.351,4.96,1.225,5.751,0.875
		c0.785-0.347,2.002-1.829,2.964-2c0.951-0.172,5.567-0.874,6.432-1.571c0.868-0.69,4.003-2.78,5.57-1.907
		c1.569,0.866,6.261,4.522,6.521,3.91c0.271-0.604,1.228-2.089,2.181-2.257c0.951-0.176,10.791-0.093,10.791-0.093
		s1.919-1.39,3.044-1.39c1.136,0,2.091,4.096,2.091,4.701c0,0.608,8.187,2.439,9.919,1.044c1.738-1.393,1.474,6.266,0.865,7.658
		c-0.606,1.393-4.866,10.356-6.26,10.271c-1.393-0.087-4.088,3.223-4.524,5.045c-0.439,1.834-9.488,14.106-11.924,15.497
		c-2.437,1.393-6.788,2.782-10.097,3.479C958.508,701.128,947.196,708.611,947.196,708.611z"/>
	<path display="inline" opacity="0.3" fill="#B21F2B" d="M655.329,593.047c-0.178,0.697-9.22,13.398-11.834,15.315
		c-2.614,1.918-6.96,4-6.089,4.694c0.865,0.699-1.748,2.963-4.185,3.311c-2.431,0.349-3.824-7.133-5.739-7.66
		c-1.91-0.517-12.527,0.522-15.486,1.74c-2.958,1.224-10.79,3.511-11.485,5.933c-0.704,2.421-6.615,2.622-9.229,0
		c-2.609-2.625-3.997-7.845-5.396-9.411c-1.387-1.562-6.262-2.961-7.305-4.351c-1.043-1.394-0.35-7.829-3.829-9.571
		c-3.481-1.741-3.658-4.178-5.223-4.178c-1.566,0-6.267-4.007-6.267-4.007s-5.045,6.439-6.266,7.836
		c-1.216,1.392-1.738,2.265-4.174,1.914c-2.437-0.351-4.702-1.393-6.96-1.565c-2.265-0.176-5.396-4.696-5.917-4.53
		c-0.523,0.178-2.266,1.393-4.353,3.138c-2.086,1.741-15.664,3.134-17.4,4.352c-1.748,1.215-7.66,2.956-12.361,2.436
		c-4.701-0.525-9.569,2.599-11.662,3.123c-2.087,0.533-2.437,0.187-5.568-1.731c-3.136-1.917-7.831-13.574-8.175-16.186
		c-0.344-2.612-2.442-10.267-3.308-12.184c-0.877-1.917-4.416-6.567-5.132-8.001c-0.726-1.439-2.221-3.722-4.049-4.701
		c-1.83-0.976-5.547-2.546-6.068-5.088c-0.522-2.547-2.022-6.853-2.937-9.461c-0.919-2.614-3.594-9.729-5.159-11.229
		c-1.571-1.5-2.867-2.086-4.895-2.805c-2.018-0.718-2.217-4.375-3.658-5.938c-1.435-1.567-3.652-1.894-4.104-1.828
		c-0.463,0.064,0-24.214,0-24.671c0-0.457-4.309-6.2-4.896-6.458c-0.591-0.263-2.033-2.352-3.797-2.55
		c-1.754-0.193-8.87-9.657-8.935-10.569c-0.065-0.917,13.318-2.743,14.749-2.68c1.436,0.067,1.436,0.067,3.781-0.911
		c2.356-0.979,3.658-0.979,5.487-0.784c1.829,0.195,2.608-1.306,3.846-1.238c1.249,0.063,8.558,1.89,9.665,1.628
		c1.109-0.261,11.028-0.718,11.877-0.39c0.845,0.329,1.959-0.588,3.136-0.521c1.167,0.063,5.675,2.022,5.675,2.022
		s1.107-0.85,1.63-2.089s1.372-1.829,2.415-2.74c1.044-0.912,1.83-2.741,1.83-2.741s2.872-6.527,5.088-7.113
		c2.216-0.589,8.29-5.874,8.747-8.222c0.456-2.353-0.656-6.137,0.914-6.398c1.571-0.262,12.21-12.662,13.448-14.032
		c1.236-1.365,1.043-3.851,3.581-5.026c2.551-1.175,4.374-0.263,5.811-3.066c1.441-2.808,4.108-4.241,6.4-3.916
		c2.281,0.326,8.091,1.372,8.611,1.894c0.522,0.519,0,1.759,3.395,2.937c3.39,1.172,3.39,3.13,5.158,6.463
		c1.76,3.324,3.072,5.22,4.239,6.655c1.178,1.434,1.178,4.568,2.937,6.068c1.758,1.5,3.329-0.524,2.479,2.413
		c-0.839,2.939-2.802,4.176-1.888,6.659c0.909,2.479,1.167,2.28,2.216,3.652c1.043,1.375,2.027,3.658,3.787,5.22
		c1.759,1.572,3.388,3.004,3.33,5.159c-0.065,2.154,2.937,4.833,4.044,6.984c1.108,2.154,2.673,6.331,3.13,8.811
		c0.463,2.48,2.088,3.917,3.131,2.415c1.043-1.502,5.088-1.046,5.422-0.07c0.323,0.979,4.63,9.596,4.895,10.118
		c0.258,0.524,0.393,11.228-0.786,12.598c-1.171,1.366-1.108-0.653-2.28,1.958c-1.178,2.611-1.178,4.11-0.592,5.745
		c0.592,1.627,1.437-0.261,1.764,1.697c0.323,1.956,0.193,5.678,0.193,5.936c0,0.263,1.572,2.154,2.614,2.875
		c1.044,0.715,3.912,1.238,4.896,2.609c0.978,1.371,5.152,13.838,6.524,14.552c1.367,0.718,1.309-1.435,3.588-0.714
		c2.281,0.714,3.851,2.871,3.917,4.046c0.064,1.173,3.453,0.32,4.766-2.615c1.301-2.937,1.635-5.09,1.437-5.48
		c-0.194-0.396-1.108-0.589-2.75-1.372c-1.625-0.783-2.216-2.677-2.216-3.524c0-0.849,1.312-2.871,2.679-3.719
		c1.376-0.853,3.98-0.395,6.003,0.912c2.028,1.307,3.266,0.654,4.174,0.524c0.915-0.135,2.873-2.875,3.335-2.808
		c0.457,0.067,3.787,1.045,3.716,1.568c-0.059,0.524-3.129,5.021-3.329,5.483c-0.194,0.455-0.85,0.651-1.496,3.325
		c-0.655,2.676-2.351,5.806-2.484,7.503c-0.13,1.7,5.609,7.706,7.379,7.706c1.764,0,5.74,2.738,6.068,6.264
		c0.323,3.525-2.485,12.791-0.715,14.294c1.759,1.501,3.195,4.368,5.933,7.373c2.743,2.997,3.27,3.197,5.615,3.587
		c2.35,0.398,2.48,2.611,4.179,3.792C650.283,590.613,655.329,593.047,655.329,593.047z"/>
	<path display="inline" opacity="0.3" fill="#B21F2B" d="M219.511,374.321c-4.002,0.699-9.22-0.694-12.878-1.738
		c-3.657-1.048-2.614-3.482-6.444-4.874c-3.83-1.395-11.489-0.174-11.662-3.307c-0.172-3.131-12.007-20.365-13.399-22.103
		c-1.394-1.737-2.608-4.179,0-6.792c2.609-2.608,1.744-12.349,2.609-13.745c0.872-1.39,8.881-9.225,13.228-11.831
		c4.352-2.614,6.443-19.666,9.396-22.624c2.965-2.958,3.143-4.177,5.051-5.22c1.91-1.044,5.745-2.958,8.876-3.136
		c3.136-0.173,6.96,0.178,8.526-2.429c1.571-2.615,0.35-3.48,2.614-3.308c2.258,0.169,9.224-2.787,10.44-4.527
		c1.216-1.742,8.532-9.575,12.012-10.964c3.474-1.388,1.388-3.131,7.659-4.871c6.261-1.741,8.698-1.741,8.876,0
		c0.172,1.74,11.307,10.619,13.221,10.791c1.915,0.175,3.652-4.526,5.4-7.136c1.737-2.61,9.393-2.958,13.222-1.393
		c3.83,1.565,6.616,0.348,8.009,0c1.394-0.349,3.48,0.172,4.525,0.348c1.042,0.175,8.875-3.914,8.875-3.914s4.357,4.607,5.223,5.132
		c0.866,0.522,3.479,1.568,5.045,2.614c1.565,1.041,4.001,3.653,4.001,3.653s3.137-1.563,3.83-0.867
		c0.7,0.695,6.96,3.653,6.611,4.866c-0.344,1.218-0.667,1.742,0.01,2.786c0.688,1.046,5.212,2.441,5.384,3.833
		c0.178,1.392,2.442,6.96,3.309,8.872c0.872,1.916-1.565,6.439,0,7.657c1.57,1.225,3.486-1.389,5.045,0.7
		c1.566,2.087,0,10.616,0,10.788c0,0.175,0.871-0.35,0.699,1.569c-0.172,1.914-3.303,4.003-4.174,6.609
		c-0.871,2.615-2.615,9.051-3.485,12.185c-0.872,3.133-2.437,6.613-2.437,8.701c0,2.09-5.74,0.874-6.083,3.829
		c-0.356,2.958,1.214,13.402,1.214,14.618c0,1.218,0.862,5.05,0.689,5.919c-0.172,0.871-3.297,2.432-3.475,3.825
		c-0.178,1.393,4.002-0.167,4.346,0.699c0.355,0.869,0.527,12.006-0.517,14.271c-1.043,2.261-3.657-0.522-4.179-0.694
		c-0.521-0.174-3.652-4.877-5.044-1.043c-1.394,3.827-1.049,4.696,0.343,6.266c1.394,1.564,0.878,3.656-0.694,5.571
		c-1.565,1.909-7.481,2.256-8.875,6.433c-1.393,4.177-2.087,4.704-3.136,6.444c-1.039,1.737-7.31,3.128-7.482,3.827
		c-0.172,0.693-9.747,7.482-10.263,9.746c-0.521,2.26-10.273,0-12.188-2.267c-1.916-2.262-8.349-5.571-10.619-5.743
		c-2.259-0.172-5.912-2.611-6.961,0.351c-1.042,2.958-7.079,1.737-8.584,1.394c-1.506-0.351-15.781-5.227-16.126-6.442
		c-0.343-1.215-4.179,1.74-4.523,2.961c-0.35,1.215-9.575-5.401-9.748-6.79c-0.172-1.392-4.7-10.27-5.739-12.529
		C228.042,379.028,219.511,374.321,219.511,374.321z"/>
	<path display="inline" opacity="0.3" fill="#B21F2B" d="M76.278,351.522c0,0,1.564,2.092-2.443,2.265
		c-3.997,0.174-4.693-0.347-4.693-1.13c0-0.787-3.83-2.176-4.354-1.135c-0.52,1.044,1.571,0.414-0.697,2.299
		c-2.262,1.879-3.302,2.576-4.175,4.485c-0.87,1.917-2.089,11.49-2.266,12.531c-0.17,1.049-9.042,8.184-12.875,9.399
		c-3.831,1.224-8.529,2.092-8.529,2.092s-0.347,2.61-2.265,3.83c-1.912,1.216-9.741,8.174-10.613,10.787
		c-0.871,2.609-6.438,2.611-6.264,5.396c0.173,2.783-1.221,7.654-2.436,10.791c-1.221,3.13-3.486,3.302-4.699,8.353
		c-1.221,5.046-1.744,6.609,0,10.441c1.737,3.831,2.605,8.182,4.699,10.268c2.084,2.088,6.088,3.131,7.132,4.875
		c1.049,1.737,5.742,3.479,6.091,4.699c0.348,1.217,2.265-5.396,2.265-6.09c0-0.699,0.17-1.742,1.912-4.526
		c1.743-2.783,1.046-2.434,1.216-6.959c0.177-4.524,5.398-8.701,6.96-10.443c1.57-1.744,3.311-7.139,3.311-9.745
		c0-2.614,9.75-4.875,11.66-4.875c1.914,0,4.7-1.563,5.398-0.348c0.694,1.216,4.179-1.042,4.523-1.739
		c0.347-0.699,5.396-5.508,5.396-5.508s4.526-2.674,4.526-4.935c0-2.264-2.437-5.92-3.136-7.139
		c-0.694-1.218-0.169-9.566,0.524-11.134c0.697-1.566-0.003-4.004,1.388-5.57c1.396-1.562,2.347-3.13,2.741-5.395
		c0.398-2.262,2.312-3.127,3.701-3.127C81.669,364.233,83.759,353.959,76.278,351.522z"/>
</g>
<g id="Layer_6">
	<path opacity="0.2" fill="#FDF168" d="M1365.201,1631.972c0,0-3.202-4.087-4.959-1.455c-1.758,2.615-3.214,4.085-3.214,5.54
		c0,1.456-1.168,5.556-3.206,5.556c-2.045,0-3.221,2.922-3.799,4.083c-0.589,1.169-7.593,5.259-7.896,8.468
		c-0.282,3.22-10.21,6.722-10.21,6.722s3.496-13.719,0-14.021c-3.507-0.29-5.549-5.549-7.307-6.126
		c-1.756-0.584-9.056-5.259-9.056-5.259s-5.836-6.439-8.465-5.843c-2.63,0.585-9.057-7.154-9.489-8.468
		c-0.44-1.311-3.504-1.895-5.262-3.501c-1.757-1.611-9.338-10.807-12.112-10.229c-2.773,0.581-10.95-0.578-11.396-1.312
		c-0.44-0.729-3.796-3.214-7.004-3.8c-3.215-0.588-3.215,1.03-5.409-1.461c-2.185-2.479-6.422-6.566-6.422-6.566
		s1.314-2.478,1.023-5.25c-0.296-2.781-2.342-6.001-3.355-7.158c-1.024-1.164-1.753-3.512-4.686-5.697
		c-2.911-2.189-5.396-9.2-4.962-11.539c0.438-2.337-2.184-5.984-1.601-8.757c0.59-2.781,1.468-7.299,2.34-8.178
		c0.867-0.879,2.328-3.365,0.867-4.965c-1.455-1.606-2.479-5.258-2.479-5.258s2.479-4.671,3.214-5.994
		c0.726-1.306,2.484-12.993,2.484-14.591c0-1.607-1.167-5.557,0.294-6.282c1.458-0.736,2.335-12.704,2.335-13.292
		c0-0.584,1.168-10.363,2.192-10.659c1.014-0.287,0.439-11.095,0.576-12.997c0.149-1.896,1.461-7.3,0.727-9.489
		c-0.727-2.19-2.19-8.467-2.19-8.467s3.22-4.38,2.782-6.139c-0.438-1.742-3.221-10.951-3.496-11.527
		c-0.301-0.591-1.619-4.821-1.758-6.138c-0.152-1.312-3.221-7.889-4.386-8.606c-1.163-0.732-3.937-4.68-2.625-5.415
		c1.312-0.728,2.485-2.189,2.485-3.062s-3.1-7.004-3.447-7.739c-0.35-0.729-2.979-10.802-3.568-12.846
		c-0.579-2.047-0.294-5.844,0.88-8.617c1.166-2.774-3.505-7.306-3.798-6.572c-0.282,0.729-6.861-0.872-6.578-1.606
		c0.301-0.735,0.579-3.796-0.007-5.404c-0.571-1.599-1.299-4.813-2.615-7.449c-1.313-2.629-4.677-4.524-2.481-6.566
		c2.186-2.043,3.647-9.199,2.047-9.94c-1.601-0.72-2.773,0.741-3.365-1.888c-0.575-2.629-0.433-4.815,0-7.005
		c0.44-2.203-5.547-10.381-5.259-12.563c0.302-2.192,1.324-2.479-0.872-6.276c-2.189-3.791-4.669-7.017-4.379-9.055
		c0.287-2.048,2.051-5.254-2.191-6.278c-4.229-1.027-12.853-9.786-12.271-11.831c0.592-2.045,1.902-4.084,1.175-4.963
		c-0.734-0.878-1.023-0.434-1.902-2.781c-0.871-2.334-0.728-4.525-0.728-4.525l-4.375-2.472c0,0-2.053-11.253-3.073-12.275
		c-1.018-1.017-4.527-3.202-3.797-5.397c0.728-2.188,3.652-2.039,3.797-4.085c0.15-2.048-1.173-14.612,0.295-18.252
		c1.455-3.659,2.484-3.659,3.794-5.993c1.32-2.335,1.32-4.518,1.609-5.109c0.286-0.581,4.524,2.487,6.42-1.75
		c1.907-4.23,5.113-6.421,5.408-6.859c0.295-0.447,2.474-2.781,3.497-3.077c1.027-0.281,1.901-5.246,2.052-6.563
		c0.145-1.312,12.564-11.385,14.165-11.535s5.553-0.584,7.448,0c1.904,0.583,5.398,0.276,5.694-0.302
		c0.29-0.577,0.29-12.112,0.29-12.112s3.362,1.607,5.979-3.069c2.634-4.671,3.22-7.153,4.092-9.186
		c0.88-2.056,1.023-4.974,2.484-5.851c1.465-0.873,4.96-5.55,6.277-8.179c1.318-2.624,0.584-2.04,1.607-5.114
		c1.022-3.062,3.073-5.83,4.38-7.593c1.317-1.745,9.646-3.648,10.813-3.058c1.154,0.582,2.376-2.631,2.863-4.53
		c0.488-1.896-0.487-14.743,0-15.334c0.488-0.582,1.656-4.38,0.633-7.305c-1.019-2.925-2.919-7.875-4.664-10.513
		c-1.757-2.629-8.037-7.153-7.021-10.362c1.022-3.219,0.149-3.651-2.775-5.398c-2.913-1.755-2.913-7.743-4.079-10.373
		c-1.173-2.623-7.594-3.206-7.739-7.299c-0.156-4.093,0.729-9.2-0.156-11.974c-0.866-2.773-4.373-8.906-2.908-10.362
		c1.453-1.464,0.58-9.641-1.173-12.564c-1.749-2.918,2.187-17.521,2.048-18.396c-0.152-0.883-0.59-10.518,0.29-10.668
		c0.877-0.131,8.033-7.877,9.788-8.895c1.746-1.028,7.149-5.415,9.773-5.258c2.63,0.143,3.508,1.017,6.426,2.033
		c2.925,1.022,7.45,2.635,8.179,3.665c0.728,1.017,2.489,0.722,4.381,0.864c1.9,0.152,1.605,1.609,4.09,3.654
		c2.476,2.039,4.669,4.958,8.173,4.675c3.513-0.303,4.531-2.197,7.306-0.44c2.773,1.752,3.795,8.022,5.259,8.906
		c1.456,0.873,4.373,1.614,5.254,2.775c0.878,1.159,1.896,8.466,5.554,10.373c3.646,1.896,7.876,3.943,9.477,7.005
		c1.618,3.056,6.579,3.056,9.65,5.398c3.063,2.34,8.023,5.553,9.196,8.327c1.167,2.774,2.771,7.149,5.404,7.589
		c2.616,0.438,8.617-0.284,9.637,1.317c1.024,1.6,4.234,8.617,7.008,10.078c2.771,1.459,8.472-2.925,9.927-2.925
		c1.462,0,13.443,0.728,15.044,2.623c1.607,1.903,12.263,4.396,13.727,5.843c1.462,1.464,5.842,1.903,9.923,2.775
		c4.093,0.878,8.036,0.583,8.472,1.174c0.438,0.578,7.009,4.087,7.009,4.087s10.08,4.668,11.977,5.69
		c1.896,1.03,1.896,1.902,3.79,3.803c1.896,1.896,6.282,3.497,8.184,5.693c1.902,2.185,1.018,5.259,6.717,5.837
		c5.69,0.588,4.812-1.168,10.654,1.461c5.838,2.626,9.352,1.022,11.254,5.255c1.902,4.243,1.6,4.963,7.883,6.721
		c6.27,1.751,9.489,5.396,11.824,8.322c2.341,2.925,2.923,7.01,5.698,8.177c2.769,1.169,7.301,1.019,8.757,2.479
		c1.46,1.464,8.471,4.387,8.909,5.692c0.435,1.324,2.631,4.825,2.474,6.578c-0.137,1.743,12.71,9.202,14.755,11.53
		c2.046,2.346,1.751,5.689,5.113,5.689c3.359,0,5.845,0,6.422,1.324c0.585,1.309-0.293,5.397,0.729,6.855
		c1.029,1.469,4.676,5.992,4.963,7.454c0.295,1.463,5.702,7.012,6.57,7.739c0.88,0.729,4.817,3.212,4.678,4.519
		c-0.145,1.325,2.484,4.532,2.484,5.698c0,1.18,1.312,6.137,1.451,8.763c0.156,2.635-1.161,3.795-2.911,5.986
		c-1.754,2.185-0.885,4.38-0.586,5.703c0.288,1.308,2.624,16.056,1.602,18.252c-1.016,2.185-2.334,4.08-2.04,5.981
		c0.294,1.895,1.896,8.762,2.197,9.783c0.287,1.017,1.298,7.306,2.621,7.451c1.319,0.138,6.279-4.676,6.279-5.115
		c0-0.433,0.878-2.775,4.524-1.902c3.651,0.878,7.148,1.317,9.927,0.733c2.78-0.582,8.474-0.582,8.763,0.298
		c0.303,0.871,9.496,13.58,10.373,16.349c0.878,2.773,1.312,12.846,0,17.378c-1.317,4.529,0.488,6.132,0.831,8.032
		c0.325,1.895,0.92,2.63,1.065,5.403c0.15,2.775,1.456,6.866,5.253,8.029c3.802,1.165,6.866,3.213,6.866,3.213
		s-1.169,4.524-1.169,5.258c0,0.723,5.692,6.275,5.692,6.275s9.206,7.155,10.078,9.053c0.874,1.893,5.549,4.819,6.427,5.259
		c0.881,0.438,11.104,6.864,13.577,7.729c2.484,0.887,2.335-3.788,5.698,0.741c3.357,4.524,14.742,11.241,15.62,13.727
		c0.88,2.484,1.457,4.675,0,4.963c-1.459,0.296-3.94,2.623-3.646,3.797c0.296,1.169,0.296,5.549,0.296,5.549
		s-9.936,17.521-14.756,21.76c-4.812,4.229-17.667,19.562-19.862,20.73c-2.189,1.173-3.498-1.024-6.42,3.068
		c-2.926,4.085-14.748,14.303-17.374,17.811c-2.634,3.515-14.755,10.668-18.4,13.294c-3.646,2.628-8.617,6.57-10.072,7.881
		c-1.462,1.311-14.315,0-15.772,2.185c-1.456,2.196-3.218,5.698-5.987,8.329c-2.773,2.63-9.344,4.091-11.685,7.6
		c-2.336,3.502-0.865,6.126-3.647,5.403c-2.773-0.733-6.277-4.826-10.519-1.901c-4.229,2.924,1.613,3.358-4.085,4.669
		c-5.692,1.312-11.391-0.146-12.999,2.197c-1.6,2.328-4.092,1.456-6.42,0.722c-2.339-0.722-17.233-7.443-19.855-6.715
		c-2.629,0.727-4.676,1.318-6.571,2.328c-1.904,1.022-7.012,0-8.907,1.022c-1.907,1.034-6.282,4.971-8.333,9.063
		c-2.032,4.09-6.998,5.112-9.773,7.729c-2.779,2.63-3.358,5.411-5.402,8.336c-2.046,2.919-6.276,4.229-8.913,5.691
		c-2.622,1.458-8.762,2.48-9.206,3.354c-0.433,0.878-1.3,3.507-4.808,3.507s-14.166,6.867-14.75,10.218
		c-0.589,3.363-4.089,10.368-8.911,12.564c-4.813,2.188-11.384,1.024-13.875,2.623c-2.473,1.607-6.421,5.253-6.565,5.693
		c-0.145,0.438,1.751,3.221-1.312,5.554c-3.067,2.334-7.01,3.803-7.89,6.427c-0.87,2.63,1.463,4.96-1.899,5.829
		c-3.354,0.887-5.83,3.804-5.83,5.996c0,2.188-2.933,17.822-2.933,17.822s-5.836,2.18-7.146,6.709
		c-1.313,4.52,1.749,8.177-0.731,10.218C1371.776,1616.638,1365.201,1631.972,1365.201,1631.972z"/>
	<path opacity="0.2" fill="#FDF168" d="M1144.127,825.071c0,0-8.899,2.473-10.224,2.329c-1.306-0.146-6.125-3.935-8.461-3.935
		c-2.339,0-10.519,0.582-11.246,2.911c-0.728,2.341-9.345,8.623-11.096,9.79c-1.75,1.169-8.761,5.694-10.806,4.965
		c-2.041-0.735-7.307,1.751-8.461,3.213c-1.174,1.45-7.168,1.752-9.646,1.017c0,0-6.131-1.468-7.003-0.439
		c-0.888,1.029-1.903,1.895-3.948,1.895c-2.041,0-9.78,4.237-10.226,4.099c-0.433-0.145-7.726-3.658-9.777-3.502
		c-2.047,0.139-7.299-0.295-7.299-0.295s-2.925-9.345-4.394-8.472c-1.456,0.872-5.685-3.207-5.979-6.132
		c-0.29-2.913-0.14-3.364-1.896-6.27c-1.751-2.925-5.258-10.079-5.258-10.079s3.507-2.492,4.679-4.537
		c1.16-2.034-0.739-7.005-0.739-9.339c0-2.34-1.89-9.934-1.89-11.536c0-1.606-2.19-8.478-2.05-11.975
		c0.149-3.502,0.732-14.309-0.874-18.695c-1.608-4.375-6.866-15.326-8.911-15.477c-2.042-0.144-9.052-4.814-9.93-2.624
		c-0.872,2.19-4.965,9.928-8.322,10.802c-3.356,0.873-10.809-6.132-12.708-7.156c-1.896-1.022-6.126-1.75-9.045-1.6
		c-2.919,0.144-3.946-3.363-5.696-5.699c-1.752-2.329-4.816-4.675-7.597-4.084c-2.772,0.583-4.374,3.033-5.697-0.09
		c-1.306-3.125-9.05-14.521-11.976-16.56c-2.918-2.044-4.527-2.781-6.124-5.837c-1.607-3.072-3.358-7.739-4.972-9.496
		c-1.6-1.748-4.813-5.397-2.912-9.054c1.889-3.642,2.912-6.27,1.019-7.295c-1.903-1.03-4.821-5.993-3.655-8.62
		c1.168-2.627,1.752-4.817,2.927-11.243c1.165-6.423,3.062-16.792,5.986-20.004c2.923-3.211-0.733-4.964,2.632-7.005
		c3.355-2.049,6.279-0.15,9.486-4.239c3.215-4.083-2.039-9.633,3.358-9.055c5.403,0.588,9.194,2.193,11.253,1.753
		c2.033-0.437,2.772-2.918,4.807-3.354c2.046-0.439,5.411-0.584,6.433,2.776c1.012,3.355,7.589,6.569,8.173,6.862
		c0.582,0.293,3.791,6.568,4.682,7.733c0.873,1.167,5.095,4.385,7.154,5.843c2.04,1.462,4.074,6.135,4.518,7.888
		c0.441,1.745,3.214,7.444,4.237,9.195c1.018,1.757,2.04,1.463,2.918,5.551c0.879,4.089,2.918,1.606,4.086,5.403
		c1.168,3.795-4.964,4.667,0.59,7.155c5.549,2.485,9.05,0.725,8.322,6.134c-0.733,5.404,2.624,7.155,3.212,6.423
		c0.586-0.736,2.627-3.797,7.006-4.966c4.38-1.169,9.785-4.817,15.477-5.698c5.697-0.868,7.594-3.206,10.517-4.96
		c2.925-1.76,10.079-6.859,12.415-7.744c2.336-0.873,0.873,0,2.336-0.873c1.462-0.875,3.795-1.166,4.959-2.63
		c1.165-1.459,5.697-3.062,7.021-1.606c1.3,1.463,6.854,2.193,7.871,2.193c1.022,0,6.279-2.484,7.021-2.193
		c0.723,0.295,2.479,3.797,3.353,4.378c0.873,0.589,2.486,0.445,4.825,0.882c2.323,0.439,5.542-0.293,7.444,0.733
		c1.9,1.014,7.443,0.581,7.297,2.771c-0.148,2.194-1.022,8.027-1.022,8.027s2.48,0.153,4.233,1.613
		c1.749,1.456,3.061,3.207,4.379,5.259c1.318,2.04,6.57,7.292,6.722,8.028c0.145,0.731,8.171,3.207,8.171,3.207
		s2.347,4.965,3.214,6.578c0.878,1.599,2.773,2.771,5.849,1.462c3.062-1.319,4.964-1.319,5.838-0.587
		c0.87,0.724,3.646,7.154,3.94,9.926c0.295,2.776,2.623,4.089,2.919,4.522c0.295,0.446,1.317,2.484,3.502,2.779
		c2.195,0.29,5.402-1.311,5.699-1.894c0.289-0.585,6.714,0.583,8.177,3.357c1.456,2.779,5.255,4.813,7.449,5.252
		c2.185,0.441,10.508,4.591,10.802,4.496c0.295-0.115,7.443,2.509,8.473,4.267c1.028,1.75,4.229,3.652,4.524,4.38
		c0.302,0.734,1.318,0,3.206,1.896c1.902,1.896,1.758,0.74,2.636,4.674c0.879,3.942,0,5.543,0,8.034
		c0,2.485,1.752,1.896,1.025,5.254c-0.736,3.357-2.191,5.403-1.759,7.003c0.445,1.62-1.011,5.122-1.166,5.705
		c-0.145,0.584-7.595,17.234-9.786,17.661c-2.183,0.44-4.806-2.472-6.57,0.591c-1.751,3.062-12.114,13.286-14.165,14.893
		c-2.038,1.612-4.812,1.461-5.543,1.612c-0.726,0.138-1.898-1.023-4.384,2.034c-2.48,3.074-6.567,1.606-8.318,2.773
		c-1.764,1.167-5.998,7.595-9.35,8.768C1148.658,828.14,1144.127,825.071,1144.127,825.071z"/>
	<path opacity="0.2" fill="#FDF168" d="M989.064,867.903h-2.34c0,0-2.625-0.783-3.695-0.783c0,0-3.605,1.47-2.931,0
		c0.687-1.462,2.148-12.263,2.148-12.263s2.914-0.481,3.708-0.977c0.77-0.488-2.34-10.41-3.321-11.191
		c-0.972-0.778-11.681-9.929-13.726-8.371c-2.04,1.558-12.752,10.127-14.99,10.806c-2.239,0.674-3.021,2.63-3.797,3.985
		c-0.771,1.371-2.136,0.679-3.886,1.811c-1.759,1.113,0.862,4.814-2.837,3.845c-3.694-0.975-8.453,2.526-10.115,3.404
		c-1.654,0.875-4.873,3.882-5.359,5.449c-0.482,1.552-1.367,2.91-3.214,4.284c-1.844,1.364-4.76,8.074-2.136,10.114
		c2.63,2.039,4.572,1.944,4.193,4.382c-0.396,2.431,1.547,4.187,3.593,4.668c2.044,0.486,7.106-1.366,7.106-1.366l5.348-5.547
		c0,0,3.707,0.686,3.323,3.116c-0.396,2.431,5.541-0.777,7.972-1.649c2.438-0.879,5.651-0.68,5.651-0.68s1.066-4.385,2.527-4.674
		c1.468-0.29,1.558,3.596,3.309,6.035c1.754,2.436,5.261-2.727,7.697-3.112c2.431-0.392,5.067-0.877,7.105-0.203
		c2.041,0.685,3.984,2.045,4.762,2.34C985.955,881.621,991.791,870.543,989.064,867.903z"/>
	<path opacity="0.2" fill="#FDF168" d="M873.508,741.441c0,0-11.09,14.803-11.283,16.361c-0.204,1.553-4.976,0.873-6.534,1.951
		c-1.553,1.064-5.446,3.785-8.275,5.638c-2.815,1.853-6.323,3.995-6.716,4.675c-0.383,0.68,0.295-0.681-4.083,0
		c-4.382,0.68-10.514,0.782-10.514,1.167c0,0.391-0.877,0.096-2.726,0c-1.858-0.097-6.418-0.097-7.298,1.265
		c-0.885,1.365-5.554,1.653-5.652,0.882c-0.1-0.788-1.455-5.951-3.109-6.816c-1.655-0.879-5.363-4.489-5.451-6.434
		c-0.097-1.948-0.886-5.35-0.592-7.203c0.297-1.847-2.134-4.482-2.032-5.259c0.089-0.776,1.361-4.075,1.361-6.228
		c0-2.141,0.384-6.619,0-7.985c-0.4-1.365,0.185-4.97-0.296-5.452c-0.488-0.481-5.464-10.813-5.938-13.244
		c-0.483-2.437-6.812-6.617-8.571-6.617c-1.756,0-9.439-4.585-10.705-7.894c-1.269-3.305-0.588-17.141,0-17.237
		c0.585-0.093,5.839-1.261,8.372-3.307c2.528-2.04,12.36-5.364,14.405-4.774c2.041,0.58,9.545-2.47,10.223-0.073
		c0.682,2.407,5.349,2.22,9.153,2.113c3.797-0.094,10.809,0.107,13.824,2.437c3.012,2.338,15.661,9.832,16.737,11.875
		c1.073,2.048,3.988,5.65,6.62,6.426c2.636,0.779,14.7,14.796,16.354,17.916c1.656,3.115,4.29,8.467,4.581,10.994
		C875.648,729.153,873.508,741.441,873.508,741.441z"/>
	<path opacity="0.2" fill="#FDF168" d="M862.418,616.843c0,0-3.414,1.573-3.803,1.573c-0.398,0-1.168-2.35-3.021-0.786
		c-1.85,1.561-6.524,5.16-8.955,3.309c-2.432-1.85-11.681-6.911-14.502-7.105c-2.828-0.193-9.542-3.021-12.263-3.21
		c-2.732-0.191-11.885-3.018-14.411-4.186c-2.521-1.17-11.001-3.408-14.413-3.701c-3.399-0.291-13.814-8.863-16.162-11.388
		c-2.33-2.535-10.987,0.674-11.968,0c-0.969-0.682-1.259-2.725-3.505-3.113c-2.244-0.392-5.05,2.623-6.618,3.405
		c-1.558,0.78-8.177,2.925-9.344,3.114c-1.168,0.198-25.014-0.391-26.958,0c-1.962,0.389-10.519,2.722-12.27,3.406
		c-1.751,0.687-11.396,0-12.955-0.387c-1.554-0.39-18.98-3.313-19.37-3.313c-0.388,0-2.831-6.258-2.831-6.258
		s5.164-9.129,5.549-10.59c0.403-1.454,1.167-5.934,2.052-6.03c0.872-0.102,3.119-1.754,3.702-4.288
		c0.577-2.533,7.786-6.622,9.826-7.693c2.051-1.074,4.386-5.061,4.097-6.035c-0.301-0.974,1.848-4.393,1.848-4.97
		c0-0.586,0-1.556,0.282-4.282c0.301-2.731-1.935-7.599-3.886-10.617c-1.949-3.011,3.792-5.061,6.132-3.598
		c2.339,1.462,8.279,1.26,9.634,1.26c1.365,0,7.106,0.882,7.497,2.534c0.392,1.658,4.183,4.284,4.97,5.65
		c0.783,1.362,9.051,3.111,10.903,2.626c1.849-0.487,4.864-0.294,6.909,0.683c2.042,0.968,4.188-0.491,5.646-0.977
		c1.468-0.482,6.529,1.65,8.762,2.05c2.237,0.388,6.039-0.293,7.305,0.094c1.263,0.391,2.724,3.406,7.887,4.088
		c5.151,0.683,19.955,2.138,23.264,2.823c3.309,0.679,5.831-0.484,6.716-0.876c0.865-0.391,5.348-7.783,5.45-10.03
		c0.09-2.239,2.821-4.474,3.116-4.474c0.291,0,5.153,0.099,5.153,0.099s7.901,14.307,7.105,15.869
		c-0.775,1.559,5.168,7.109,6.723,6.811c1.558-0.291,4.673-0.975,5.356-0.776c0.678,0.189,6.322,3.505,7.009,3.114
		c0.673-0.392,4.573-3.607,4.573-3.607s3.898,2.635,4.38,2.828c0.483,0.193,3.213-0.968,5.637-0.59
		c2.445,0.393,5.549,1.37,6.434,0.979c0.879-0.388,2.24-2.046,3.316-2.238c1.063-0.193,6.228-0.978,7.194-1.758
		c0.972-0.772,4.479-3.11,6.231-2.133c1.756,0.969,7.004,5.059,7.296,4.375c0.304-0.676,1.373-2.337,2.439-2.525
		c1.063-0.197,12.071-0.104,12.071-0.104s2.146-1.555,3.405-1.555c1.271,0,2.339,4.582,2.339,5.258c0,0.68,9.158,2.729,11.097,1.168
		c1.944-1.558,1.648,7.01,0.968,8.566c-0.679,1.558-5.443,11.585-7.003,11.49c-1.558-0.098-4.573,3.605-5.062,5.644
		c-0.491,2.052-10.614,15.781-13.339,17.336c-2.726,1.559-7.594,3.112-11.295,3.893
		C875.071,608.471,862.418,616.843,862.418,616.843z"/>
	<path opacity="0.2" fill="#FDF168" d="M638.157,487.562c-0.199,0.779-10.314,14.988-13.239,17.133
		c-2.924,2.146-7.787,4.475-6.812,5.251c0.968,0.782-1.956,3.315-4.682,3.704c-2.72,0.391-4.278-7.979-6.42-8.569
		c-2.136-0.578-14.014,0.584-17.324,1.947c-3.309,1.369-12.071,3.927-12.848,6.637c-0.787,2.708-7.4,2.933-10.324,0
		c-2.919-2.937-4.471-8.776-6.036-10.527c-1.552-1.748-7.005-3.312-8.171-4.868c-1.167-1.559-0.392-8.758-4.284-10.707
		c-3.894-1.947-4.092-4.674-5.843-4.674s-7.011-4.482-7.011-4.482s-5.644,7.204-7.01,8.767c-1.361,1.557-1.944,2.534-4.67,2.141
		c-2.726-0.392-5.26-1.559-7.786-1.751c-2.534-0.197-6.036-5.254-6.619-5.067c-0.585,0.199-2.535,1.558-4.869,3.51
		c-2.334,1.948-17.522,3.506-19.465,4.869c-1.956,1.36-8.569,3.307-13.829,2.725c-5.259-0.587-10.705,2.908-13.046,3.494
		c-2.335,0.597-2.726,0.209-6.229-1.937c-3.508-2.145-8.761-15.186-9.146-18.107c-0.385-2.921-2.732-11.485-3.701-13.63
		c-0.981-2.145-4.94-7.346-5.742-8.951c-0.812-1.61-2.484-4.164-4.529-5.259c-2.047-1.092-6.206-2.849-6.788-5.692
		c-0.584-2.849-2.263-7.666-3.285-10.584c-1.028-2.925-4.02-10.883-5.771-12.562c-1.757-1.678-3.208-2.334-5.476-3.138
		c-2.257-0.803-2.479-4.895-4.092-6.643c-1.605-1.753-4.085-2.119-4.59-2.045c-0.519,0.072,0-27.088,0-27.599
		c0-0.512-4.821-6.936-5.477-7.224c-0.662-0.294-2.274-2.631-4.248-2.853c-1.962-0.216-9.923-10.803-9.995-11.824
		c-0.073-1.026,14.898-3.069,16.5-2.998c1.606,0.075,1.606,0.075,4.23-1.019c2.636-1.096,4.093-1.096,6.138-0.876
		c2.046,0.218,2.918-1.461,4.302-1.385c1.396,0.071,9.574,2.114,10.812,1.822c1.241-0.292,12.337-0.803,13.287-0.437
		c0.945,0.368,2.191-0.658,3.508-0.583c1.306,0.071,6.349,2.262,6.349,2.262s1.239-0.951,1.823-2.337
		c0.584-1.387,1.534-2.046,2.701-3.065c1.168-1.021,2.047-3.067,2.047-3.067s3.212-7.301,5.691-7.958
		c2.479-0.659,9.273-6.571,9.785-9.198c0.51-2.632-0.734-6.866,1.022-7.157c1.758-0.293,13.66-14.165,15.044-15.697
		c1.383-1.527,1.167-4.308,4.006-5.623c2.854-1.315,4.893-0.294,6.5-3.43c1.612-3.141,4.595-4.745,7.16-4.381
		c2.552,0.365,9.051,1.534,9.633,2.119c0.584,0.58,0,1.968,3.798,3.286c3.792,1.312,3.792,3.502,5.77,7.23
		c1.969,3.719,3.437,5.84,4.743,7.445c1.317,1.604,1.317,5.11,3.286,6.789c1.967,1.679,3.724-0.587,2.773,2.699
		c-0.938,3.289-3.135,4.672-2.112,7.45c1.017,2.774,1.306,2.551,2.479,4.085c1.167,1.538,2.268,4.092,4.236,5.839
		c1.968,1.758,3.79,3.36,3.725,5.771c-0.073,2.409,3.286,5.406,4.524,7.813c1.24,2.41,2.991,7.083,3.502,9.857
		c0.518,2.774,2.336,4.381,3.503,2.702c1.167-1.681,5.692-1.17,6.066-0.078c0.361,1.096,5.18,10.735,5.476,11.318
		c0.289,0.587,0.439,12.561-0.879,14.093c-1.311,1.527-1.24-0.731-2.55,2.19c-1.318,2.921-1.318,4.598-0.663,6.426
		c0.663,1.82,1.607-0.292,1.973,1.898c0.361,2.188,0.216,6.352,0.216,6.64c0,0.294,1.758,2.41,2.925,3.216
		c1.168,0.8,4.376,1.385,5.477,2.919c1.094,1.534,5.763,15.48,7.298,16.279c1.529,0.803,1.464-1.605,4.014-0.798
		c2.551,0.798,4.308,3.211,4.381,4.527c0.072,1.312,3.862,0.358,5.331-2.925c1.456-3.285,1.829-5.694,1.607-6.13
		c-0.218-0.443-1.24-0.659-3.076-1.534c-1.817-0.876-2.479-2.995-2.479-3.943c0-0.95,1.467-3.212,2.997-4.16
		c1.54-0.954,4.453-0.442,6.715,1.02c2.269,1.462,3.653,0.731,4.669,0.586c1.023-0.151,3.214-3.216,3.731-3.141
		c0.511,0.075,4.236,1.17,4.157,1.754c-0.066,0.586-3.5,5.617-3.724,6.134c-0.217,0.509-0.951,0.729-1.673,3.72
		c-0.733,2.993-2.63,6.495-2.779,8.394c-0.146,1.901,6.275,8.62,8.255,8.62c1.974,0,6.421,3.062,6.788,7.007
		c0.361,3.944-2.78,14.309-0.8,15.991c1.968,1.679,3.574,4.886,6.637,8.248c3.068,3.353,3.658,3.577,6.281,4.013
		c2.629,0.445,2.774,2.921,4.675,4.242C632.513,484.84,638.157,487.562,638.157,487.562z"/>
	<path opacity="0.2" fill="#FDF168" d="M167.607,293.809c-4.477,0.782-10.314-0.777-14.406-1.944
		c-4.091-1.173-2.924-3.896-7.209-5.453c-4.284-1.561-12.852-0.194-13.045-3.7c-0.192-3.502-13.432-22.782-14.989-24.726
		c-1.559-1.944-2.918-4.675,0-7.598c2.918-2.917,1.951-13.814,2.918-15.376c0.976-1.555,9.936-10.32,14.797-13.235
		c4.868-2.925,7.208-22,10.511-25.309c3.317-3.309,3.516-4.673,5.651-5.84c2.136-1.168,6.427-3.309,9.93-3.508
		c3.508-0.193,7.786,0.199,9.538-2.717c1.757-2.925,0.391-3.894,2.924-3.701c2.526,0.189,10.319-3.117,11.679-5.064
		c1.36-1.949,9.544-10.711,13.438-12.266c3.886-1.553,1.553-3.502,8.568-5.449c7.004-1.948,9.731-1.948,9.93,0
		c0.192,1.947,12.648,11.879,14.79,12.071c2.142,0.196,4.085-5.063,6.041-7.982c1.944-2.92,10.507-3.309,14.791-1.559
		c4.284,1.751,7.401,0.389,8.96,0c1.559-0.39,3.894,0.192,5.062,0.389c1.166,0.195,9.928-4.379,9.928-4.379s4.874,5.154,5.842,5.741
		c0.969,0.584,3.893,1.754,5.645,2.924c1.751,1.165,4.477,4.087,4.477,4.087s3.509-1.749,4.285-0.97
		c0.783,0.778,7.786,4.087,7.396,5.444c-0.385,1.362-0.746,1.949,0.011,3.117c0.77,1.17,5.831,2.731,6.023,4.288
		c0.199,1.558,2.732,7.786,3.701,9.925c0.975,2.143-1.751,7.204,0,8.565c1.757,1.37,3.899-1.554,5.644,0.783
		c1.752,2.334,0,11.875,0,12.068c0,0.195,0.975-0.392,0.782,1.755c-0.192,2.142-3.694,4.479-4.669,7.394
		c-0.974,2.925-2.925,10.125-3.898,13.631c-0.975,3.504-2.727,7.397-2.727,9.733c0,2.338-6.421,0.977-6.805,4.283
		c-0.398,3.31,1.358,14.993,1.358,16.353c0,1.363,0.964,5.65,0.771,6.622c-0.192,0.975-3.688,2.72-3.887,4.279
		s4.477-0.187,4.862,0.782c0.398,0.972,0.59,13.431-0.579,15.964c-1.167,2.529-4.09-0.584-4.674-0.776
		c-0.583-0.195-4.085-5.456-5.643-1.167c-1.56,4.282-1.173,5.253,0.384,7.009c1.559,1.75,0.982,4.09-0.777,6.232
		c-1.75,2.136-8.369,2.524-9.928,7.196c-1.559,4.673-2.335,5.262-3.508,7.209c-1.162,1.943-8.178,3.499-8.371,4.281
		c-0.192,0.775-10.903,8.37-11.481,10.903c-0.583,2.528-11.493,0-13.634-2.536c-2.143-2.53-9.34-6.232-11.879-6.424
		c-2.527-0.193-6.613-2.921-7.787,0.392c-1.167,3.309-7.919,1.943-9.604,1.559c-1.685-0.393-17.654-5.848-18.041-7.207
		c-0.384-1.359-4.675,1.946-5.06,3.313c-0.392,1.359-10.712-6.042-10.905-7.596c-0.192-1.557-5.258-11.488-6.42-14.016
		C177.151,299.074,167.607,293.809,167.607,293.809z"/>
	<path opacity="0.2" fill="#FDF168" d="M88.808,133.504c0,0,1.75,2.341-2.733,2.534c-4.471,0.195-5.25-0.388-5.25-1.264
		c0-0.88-4.285-2.434-4.871-1.27c-0.581,1.168,1.757,0.463-0.779,2.572c-2.531,2.103-3.694,2.882-4.67,5.018
		c-0.973,2.145-2.337,12.854-2.535,14.019c-0.19,1.174-10.116,9.155-14.402,10.515c-4.285,1.369-9.542,2.341-9.542,2.341
		s-0.388,2.92-2.533,4.285c-2.139,1.36-10.897,9.144-11.873,12.067c-0.974,2.918-7.202,2.921-7.007,6.036
		c0.194,3.114-1.366,8.562-2.725,12.071c-1.366,3.501-3.9,3.694-5.256,9.344c-1.366,5.645-1.951,7.393,0,11.68
		c1.943,4.285,2.915,9.152,5.256,11.486c2.331,2.336,6.811,3.503,7.979,5.453c1.173,1.943,6.423,3.892,6.814,5.257
		c0.389,1.361,2.533-6.037,2.533-6.813c0-0.782,0.19-1.949,2.139-5.063c1.95-3.114,1.17-2.723,1.36-7.786
		c0.198-5.061,6.039-9.734,7.786-11.683c1.756-1.951,3.703-7.987,3.703-10.901c0-2.924,10.907-5.454,13.043-5.454
		c2.141,0,5.258-1.749,6.039-0.39c0.776,1.361,4.674-1.166,5.06-1.946c0.388-0.781,6.036-6.161,6.036-6.161s5.063-2.991,5.063-5.521
		c0-2.533-2.726-6.623-3.508-7.986c-0.776-1.362-0.189-10.702,0.587-12.456c0.78-1.751-0.003-4.479,1.553-6.23
		c1.561-1.748,2.626-3.501,3.066-6.036c0.445-2.53,2.587-3.499,4.14-3.499C94.84,147.723,97.177,136.23,88.808,133.504z"/>
</g>
<g id="Layer_8">
	<g opacity="0.3">
		<path fill="#070808" d="M266.064,368.166c10.411,0,19.371,3.547,26.867,10.611c7.495,7.496,11.243,16.657,11.243,27.483v292.326
			c66.195-49.538,128.458-74.322,186.756-74.322c72.873,0,135.135,25.817,186.771,77.453
			c51.635,51.636,77.453,114.098,77.453,187.387v341.666c0,10.425-3.747,19.368-11.243,26.866
			c-7.496,7.495-16.457,11.242-26.867,11.242h-1.25c-10.827,0-19.988-3.747-27.483-11.242c-7.496-7.498-11.244-16.441-11.244-26.866
			V889.104c0-51.218-18.122-95.159-54.335-131.804c-36.645-36.644-80.584-54.966-131.804-54.966
			c-51.636,0-95.776,18.322-132.421,54.966c-36.228,36.645-54.335,80.586-54.335,131.804v341.666
			c0,10.425-3.748,19.368-11.243,26.866c-7.496,7.495-16.457,11.242-26.867,11.242h-1.866c-10.426,0-19.372-3.747-26.867-11.242
			c-7.496-7.498-11.244-16.441-11.244-26.866V406.26c0-10.827,3.748-19.988,11.244-27.483c7.495-7.064,16.441-10.611,26.867-10.611
			H266.064z"/>
		<path fill="#070808" d="M1430.378,718.574c62.863,62.894,94.312,138.882,94.312,227.996v284.199
			c0,10.425-3.748,19.368-11.243,26.866c-7.497,7.495-16.456,11.242-26.853,11.242h-1.881c-10.411,0-19.355-3.747-26.852-11.242
			c-7.496-7.498-11.244-16.441-11.244-26.866v-70.576c-81.617,72.457-163.035,108.685-244.236,108.685
			c-89.113,0-165.116-31.432-227.98-94.326c-62.896-62.864-94.328-138.867-94.328-227.981s31.432-165.103,94.328-227.996
			c62.864-62.863,138.867-94.311,227.98-94.311S1367.483,655.711,1430.378,718.574z M1029.367,774.173
			c-47.472,47.888-71.208,105.354-71.208,172.397c0,67.46,23.736,125.141,71.208,173.014
			c47.872,47.473,105.554,71.208,173.014,71.208c67.459,0,124.926-23.735,172.398-71.208
			c47.887-47.873,71.838-105.554,71.838-173.014c0-67.044-23.951-124.51-71.838-172.397
			c-47.057-47.888-104.521-71.839-172.398-71.839C1134.921,702.334,1077.239,726.285,1029.367,774.173z"/>
	</g>
</g>
<g id="Layer_2">
	<g>
		<path fill="#FFFFFF" d="M266.064,323.444c10.411,0,19.371,3.547,26.867,10.611c7.495,7.496,11.243,16.657,11.243,27.483v292.326
			c66.195-49.538,128.458-74.322,186.756-74.322c72.873,0,135.135,25.817,186.771,77.453
			c51.635,51.636,77.453,114.098,77.453,187.387v341.666c0,10.425-3.747,19.368-11.243,26.866
			c-7.496,7.495-16.457,11.242-26.867,11.242h-1.25c-10.827,0-19.988-3.747-27.483-11.242c-7.496-7.498-11.244-16.441-11.244-26.866
			V844.382c0-51.218-18.122-95.159-54.335-131.804c-36.645-36.644-80.584-54.966-131.804-54.966
			c-51.636,0-95.776,18.322-132.421,54.966c-36.228,36.645-54.335,80.586-54.335,131.804v341.666
			c0,10.425-3.748,19.368-11.243,26.866c-7.496,7.495-16.457,11.242-26.867,11.242h-1.866c-10.426,0-19.372-3.747-26.867-11.242
			c-7.496-7.498-11.244-16.441-11.244-26.866V361.539c0-10.827,3.748-19.988,11.244-27.483c7.495-7.064,16.441-10.611,26.867-10.611
			H266.064z"/>
		<path fill="#FFFFFF" d="M1430.378,673.853c62.863,62.894,94.312,138.882,94.312,227.996v284.199
			c0,10.425-3.748,19.368-11.243,26.866c-7.497,7.495-16.456,11.242-26.853,11.242h-1.881c-10.411,0-19.355-3.747-26.852-11.242
			c-7.496-7.498-11.244-16.441-11.244-26.866v-70.576c-81.617,72.457-163.035,108.685-244.236,108.685
			c-89.113,0-165.116-31.432-227.98-94.326c-62.896-62.864-94.328-138.867-94.328-227.981s31.432-165.103,94.328-227.996
			c62.864-62.863,138.867-94.311,227.98-94.311S1367.483,610.989,1430.378,673.853z M1029.367,729.451
			c-47.472,47.888-71.208,105.354-71.208,172.397c0,67.46,23.736,125.141,71.208,173.014
			c47.872,47.473,105.554,71.208,173.014,71.208c67.459,0,124.926-23.735,172.398-71.208
			c47.887-47.873,71.838-105.554,71.838-173.014c0-67.044-23.951-124.51-71.838-172.397
			c-47.057-47.888-104.521-71.839-172.398-71.839C1134.921,657.612,1077.239,681.563,1029.367,729.451z"/>
	</g>
</g>
<g id="Layer_4">
</g>
</svg>
