<?xml version="1.0" encoding="utf-8"?>
<!-- Generator: Adobe Illustrator 16.0.4, SVG Export Plug-In . SVG Version: 6.00 Build 0)  -->
<!DOCTYPE svg PUBLIC "-//W3C//DTD SVG 1.1//EN" "http://www.w3.org/Graphics/SVG/1.1/DTD/svg11.dtd">
<svg version="1.1" id="Layer_1" xmlns="http://www.w3.org/2000/svg" xmlns:xlink="http://www.w3.org/1999/xlink" x="0px" y="0px"
	 width="1366px" height="994px" viewBox="0 0 1366 994" enable-background="new 0 0 1366 994" xml:space="preserve">
<rect fill="#F1AACC" width="1364.751" height="994"/>
<path fill="#D9D832" d="M492.589,106.859H217.723v44.631c0,0,17.251,209.763,18.401,282.217c1.15,72.455,2.3,169.06,6.9,174.811
	c4.6,5.75,90.855,0,118.457,0c27.602,0,97.755,2.556,97.755,2.556s8.051,0.952,8.051-21.505c0-22.454,18.401-413.477,25.301-429.578
	V106.859z"/>
<path fill="#444444" d="M246.475,611.079c0,0,6.786,110.95,17.251,121.417h180.561c0,0,20.701-92.414,14.951-121.422
	c0,0-72.593-8.307-105.875-8.307C320.08,602.768,246.475,611.079,246.475,611.079z"/>
<path fill="#F4F4F4" d="M511.918,724.877c0,0-51.035,0-65.972,0c-8.091,0-4.979-21.159-4.979-21.159l1.244-410.765
	c0,0,3.736-12.447,21.162-12.447c17.425,0,80.907,0,80.907,0s23.026,1.244,23.026,8.712c0,7.469,0,407.653,0,407.653
	s0.002,28.006-12.446,28.006C542.414,724.877,511.918,724.877,511.918,724.877z"/>
<path d="M465.864,225.736v54.769h78.417v-53.524c0,0-5.257-9.958-40.437-9.958S465.864,225.736,465.864,225.736z"/>
<polygon fill="#B5D563" points="857.934,918.979 494.506,826.481 810.102,643.703 1140.871,724.284 "/>
<path fill="#EED9A0" d="M909.154,211.34l1.149,491.079c0,0,12.651,16.166,58.654,16.166s67.854-14.44,67.854-14.44V211.34
	c0,0-25.108-8.05-61.145-8.05S909.154,211.34,909.154,211.34z"/>
<path fill="#B47D38" d="M912.029,108.409v102.229c0,0,34.626-4.473,58.078-4.473c23.453,0,63.83,5.368,63.83,5.368l-2.876-103.125
	c0,0-9.201-9.71-54.054-9.71S912.029,108.409,912.029,108.409z"/>
<path fill="#2A6045" d="M128.746,733.384c0,0-8.907,0.178-8.907,1.233c0,1.058,1.697,24.443,1.697,24.443s1.691,0.648,12.718,0.648
	c11.028,0,324.828-0.352,324.828-0.352s6.782,0,6.782-1.409c0-1.411,0-24.122,0-24.122s-5.514-0.442-10.604-0.442
	c-5.086,0-130.18-1.318-152.657-1.318C280.129,732.065,128.746,733.384,128.746,733.384z"/>
<path fill="#2F7A57" d="M109.154,568.839c0,0-11.791,1.121-11.791,7.856c0,6.736,2.246,155.859,2.246,155.859
	s2.245,4.133,16.841,4.133c14.597,0,430.013-2.244,430.013-2.244s8.981,0,8.981-8.982c0-8.979,0-153.811,0-153.811
	s-7.298-2.812-14.035-2.812c-6.737,0-172.341-8.419-202.094-8.419C309.564,560.42,109.154,568.839,109.154,568.839z"/>
<path fill="#535352" d="M543.654,575.781c0,0,11.791-0.089,11.791-0.614c0-0.529-2.246-12.193-2.246-12.193
	s-2.239-0.324-16.837-0.324c-14.597,0-430.02,0.176-430.02,0.176s-8.979,0-8.979,0.703s0,12.03,0,12.03s7.299,0.223,14.037,0.223
	c6.734,0,172.338,0.656,202.093,0.656C343.247,576.438,543.654,575.781,543.654,575.781z"/>
<path fill="#303331" d="M336.271,403.37c-28.63,0-183.99,1.686-188.622,14.316c0,0-6.105,142.94-4.21,144.834
	c1.895,1.896,159.571,5.182,189.885,5.182c30.315,0,176.412-4.34,176.412-4.34V421.896c0,0-5.891-8.682-26.104-12.631
	C467.516,406.115,336.271,403.37,336.271,403.37z"/>
<path fill="#D8D5DB" d="M1077.029,188.534v27.224h129.491v-27.224C1206.521,188.534,1155.809,174.159,1077.029,188.534z"/>
<path fill="#F1DF6F" d="M1020.1,229.937l-5.749,418.625c0,0,18.4,47.379,32.201,57.502c13.801,10.124,87.405,10.124,104.656,10.124
	c17.25,0,74.754,0,74.754,0s42.553-49.226,41.403-65.327c-1.151-16.101,0.021-420.924,0.021-420.924s-67.854-20.701-126.519-20.701
	C1082.204,209.236,1020.1,229.937,1020.1,229.937z"/>
<path fill="#ECEAEF" d="M1069.553,101.129v91.431c0,0,82.23-17.251,145.483,0v-91.431c0,0-25.854-10.578-74.168-10.578
	S1069.553,101.129,1069.553,101.129z"/>
<path fill="#0EBAB4" d="M827.215,643.703c-26.778,0-88.579,0-95.79,0c-7.21,0-7.21-3.604-7.21-8.239
	c0-4.636-10.301-373.377-23.689-439.812h234.326c0,0-25.234,422.303-23.177,435.692c0,0-2.058,12.359-7.723,12.359
	S827.215,643.703,827.215,643.703z"/>
<path fill="#CFCFCF" d="M725.503,639.069v99.396c0,0,60.77,7.782,100.939,7.782c40.171,0,83.948-7.269,83.948-7.269v-98.364
	C910.391,640.614,770.308,644.734,725.503,639.069z"/>
<path fill="#CDCCCC" d="M646.472,121.514c-30.477,0-51.178,9.932-51.178,9.932v71.305c0,0-0.575,3.163,9.2,3.163v-5.463
	c0,0,39.884-8.569,74.099,0.056l-0.877,4.162c0,0,9.008-0.768,10.159-2.206v-74.467
	C687.875,127.997,677.236,121.514,646.472,121.514z"/>
<path fill="#DE8826" d="M604.494,200.451v10.926c0,0-53.478,6.326-53.478,17.251c0,10.926-2.875,499.129-2.875,499.129
	s4.025,19.395,13.226,19.395s158.134,0,158.134,0s13.801-5.02,13.801-17.669c0-12.651,0-493.379,0-493.379
	s-7.475-24.152-54.628-24.152l-0.094-13.414C678.58,198.537,649.155,191.635,604.494,200.451z"/>
<path fill="#C54277" d="M305.622,546.23v74.823c0,0,70.243,4.196,136.283,4.196c66.043,0,133.23-5.728,133.23-5.728V546.23
	c0,0-32.448-8.398-120.633-8.398C366.319,537.832,305.622,546.23,305.622,546.23z"/>
<path fill="#E2E0E0" d="M317.456,621.432v3.818c0,0-12.215-2.673-21.377,0c-9.16,2.676-11.452,7.254-11.452,17.941
	c0,10.691,4.963,148.12,4.963,148.12s34.739,26.34,156.133,26.34c121.396,0,145.828-32.834,145.828-32.834
	s4.58-137.044,4.58-148.113c0-11.071-12.597-13.36-15.65-13.36c-3.055,0-17.944,0-17.944,0l0.383-3.821
	C562.92,619.522,458.321,630.976,317.456,621.432z"/>
<path fill="#442310" d="M989.085,438.257v6.327h4.6c0,0,1.725,7.475-2.3,10.926c-4.025,3.451-35.077,23.577-35.077,39.678
	c0,16.101,0,248.412,0,248.412s14.375,22.426,79.93,22.426c65.554,0,75.329-23.575,75.329-23.575V489.437
	c0,0-22.619-24.344-36.036-32.204c-4.327-2.537-1.341-12.649-1.341-12.649l4.788-0.769l0.382-5.558H989.085z"/>
<rect x="979.304" y="365.993" width="108.107" height="72.264"/>
<path d="M1033.356,280.505c-10.157,0-24.342,9.775-24.342,17.25c0,7.476,0,53.861,0,56.354c0,2.493-7.185,9.104-9.967,11.884h69.386
	c0,0-9.391-8.625-9.391-11.117s-0.576-54.244-0.576-56.736S1049.841,280.505,1033.356,280.505z"/>
<g>
	<path d="M440.791,768.91h-9.385v-87.906h-10.074v-8.695h19.459V768.91z"/>
</g>
<g>
	<path d="M664.426,468.448h-65.413l48.714-50.785c5.521-5.797,7.039-12.973,7.039-16.699c0-12.696-12.834-21.391-23.046-21.391
		c-13.386,0-21.804,14.078-21.804,21.667h-10.074c3.45-18.907,14.214-29.395,31.878-30.223c2.346-0.277,4.278,0,6.21,0.415
		c7.177,0.966,13.111,4.416,18.493,10.074c5.244,5.934,7.866,12.282,7.866,19.458c0,7.452-2.484,14.215-7.315,20.01l-36.295,37.951
		l43.747-0.136V468.448z"/>
</g>
<g>
	<path d="M834.759,437.698c0,13.422-7.286,19.555-12.398,22.751c-5.112,2.94-10.864,4.603-17.383,4.603
		c-7.925,0-14.57-2.431-20.194-7.413c-5.623-4.987-8.563-10.099-8.563-17.895h9.33c0.128,7.67,8.82,16.358,20.067,16.358
		c8.946,0,19.682-6.518,19.682-17.253c0-11.76-7.284-16.744-15.081-16.744c-0.512,0-4.218,0-5.752,0v-8.18
		c0.512,0,3.963-0.127,4.986-0.127c6.901,0,15.209-9.33,15.209-15.977c0-8.947-6.774-15.848-18.277-15.848
		c-12.014,0-19.171,9.712-19.171,16.359h-8.948c2.94-16.871,12.271-24.029,28.248-24.029c7.413,0,13.547,2.301,18.915,6.519
		c5.368,4.729,8.181,10.607,8.181,17.637c0,8.181-4.985,14.314-10.991,19.046C829.519,421.594,834.759,429.135,834.759,437.698z"/>
</g>
<g>
	<path d="M512.824,378.395h-7.013v8.877h-5.682v-8.877h-34.265l40.036-54.238v48.734h6.924V378.395z M483.352,372.89h12.782
		l4.084,0.178l-0.09-3.728v-23.169l0.09-5.327l-3.196,4.706l-15.535,21.215l-4.882,6.303L483.352,372.89z"/>
</g>
<g>
	<path d="M991.274,330.019c-4.369,4.573-9.552,8.029-16.158,8.842c-1.118,0-3.148,0.102-3.148,0.102c-0.917,0-0.917,0-1.424,0
		c-4.574,0-7.624-1.626-11.688-4.471c-6.403-4.37-9.449-13.821-9.553-14.737h7.013c2.237,6.606,9.043,12.907,15.751,12.907
		c10.469,0,17.989-8.943,17.989-18.598c0-9.146-7.215-16.565-16.465-16.565c-5.689,0-12.703,2.948-15.753,7.317l-5.081-3.048
		l13.212-34.554h29.37v6.808l-25.202,0.204l-7.013,18.902c2.947-1.829,17.682-5.284,27.135,4.066
		c4.88,4.878,6.403,9.655,6.403,16.159C996.663,319.652,995.34,325.445,991.274,330.019z"/>
</g>
<g>
	<path fill="#FFFFFF" d="M1067.908,615.44c0,17.113-13.8,30.913-32.015,30.913c-18.08,0-31.878-13.8-31.878-30.913
		c0-5.934,1.379-11.729,4.553-16.285l0.275-0.137c0.553-1.242,38.364-50.784,38.364-50.784l7.592,6.208l-18.077,23.463l-5.661,7.59
		c4.003-0.689,6.627-0.827,11.316,0C1057.558,588.255,1067.908,600.538,1067.908,615.44z M1058.939,615.717
		c0-12.145-10.351-22.079-23.046-22.079c-12.559,0-22.909,9.935-22.909,22.079c0,12.146,10.351,22.218,22.909,22.218
		C1048.589,637.935,1058.939,627.862,1058.939,615.717z"/>
</g>
<g>
	<path d="M817.058,776.864l-70.624,80.744l-11.053-3.01l63.595-72.786l-47.401-12.914l2.503-9.189L817.058,776.864z"/>
</g>
<g>
	<path fill="#FFFFFF" d="M277.505,674.238c0,16.049-13.614,30.1-31.102,30.1c-17.342,0-30.959-13.759-30.959-29.817
		c0-9.312,6.307-17.772,13.329-23.074c-5.877-5.155-11.178-12.896-11.178-21.354c0-15.624,12.468-27.95,28.522-27.95
		c16.195,0,28.664,12.326,28.664,27.95c0,8.171-5.159,15.906-11.034,21.215C271.199,656.467,277.505,664.777,277.505,674.238z
		 M267.328,674.813c0-10.609-9.315-19.21-20.925-19.21c-11.466,0-20.783,8.601-20.783,19.21c0,10.75,9.317,20.351,20.783,20.351
		C258.013,695.164,267.328,685.563,267.328,674.813z M227.627,629.377c0,11.036,8.313,18.342,18.491,18.342
		c10.32,0,18.631-7.306,18.631-18.342c0-9.893-8.312-18.062-18.631-18.062C235.94,611.314,227.627,619.484,227.627,629.377z"/>
</g>
<g>
	<path d="M1182.773,385.385c0,5.382-1.242,10.764-4.553,16.561c-1.519,2.622-4.832,7.59-10.077,14.076l-28.151,36.294h-13.661
		l29.118-36.71c-0.69,0.553-3.038,0.829-3.863,0.829c-10.628,0-20.562-3.036-26.497-9.245c-5.935-6.073-8.006-13.249-8.006-21.392
		c0-8.556,2.484-15.869,9.248-22.08c6.211-5.795,13.799-8.694,22.356-8.694c8.832,0,16.559,2.898,23.46,8.28
		C1179.461,369.514,1182.773,376.828,1182.773,385.385z M1172.974,385.247c0-12.283-11.451-21.667-23.184-21.667
		c-12.696,0-23.459,9.799-23.459,21.805c0,12.283,10.763,22.081,23.459,22.081C1163.454,407.466,1172.974,397.252,1172.974,385.247z
		"/>
</g>
<g>
	<path d="M318.657,337.72h-9.385v-87.907h-10.075v-8.694h19.459V337.72z"/>
	<path d="M395.385,315.64c0,16.146-12.006,23.323-28.842,23.323c-12.145,0-28.429-3.036-28.429-24.841v-48.714
		c0-19.044,13.387-25.394,28.981-25.394c11.454,0,28.29,4.968,28.29,26.083V315.64z M386.277,264.578
		c0-10.764-9.798-15.18-19.458-15.18c-9.247,0-19.321,4.002-19.321,15.871v47.886c0,15.871,12.697,17.113,19.045,17.113
		c5.52,0,19.734-0.415,19.734-16.698V264.578z"/>
</g>
</svg>
