<?xml version="1.0" encoding="utf-8"?>
<!-- Generator: Adobe Illustrator 16.0.4, SVG Export Plug-In . SVG Version: 6.00 Build 0)  -->
<!DOCTYPE svg PUBLIC "-//W3C//DTD SVG 1.1//EN" "http://www.w3.org/Graphics/SVG/1.1/DTD/svg11.dtd">
<svg version="1.1" id="Layer_1" xmlns="http://www.w3.org/2000/svg" xmlns:xlink="http://www.w3.org/1999/xlink" x="0px" y="0px"
	 width="399.5px" height="300px" viewBox="0 0 399.5 300" enable-background="new 0 0 399.5 300" xml:space="preserve">
<g id="Layer_1_1_" display="none">
	
		<image display="inline" overflow="visible" enable-background="new    " width="2448" height="3264" xlink:href="../../../Deep End/IMG_1962.jpg"  transform="matrix(0.158 0 0 0.158 13.645 -136.9414)">
	</image>
</g>
<g id="Layer_11">
	<rect fill="#131743" width="399.5" height="300"/>
</g>
<g id="Layer_6">
	<path fill="#1E1D56" d="M132.895,219.666c0,0-18.229,10.105-21.229,13.105s-8.667,7,3,7s33.453-3.024,37.071-7.844
		C155.355,227.109,132.895,219.666,132.895,219.666z"/>
	<path fill="#1E1D56" d="M247.98,221.613c0,0,18.229,10.104,21.229,13.104s8.668,7-3,7c-11.666,0-33.451-3.024-37.07-7.843
		S247.98,221.613,247.98,221.613z"/>
</g>
<g id="back">
	<path fill="#1E1A4E" d="M136.872,144.001c-13.977,30.804,25.371,62.985,51.604,62.985s71.902-36.256,53.523-64.653
		C211.366,95,214.71,84.486,188.477,84.486C162.243,84.486,160.266,92.441,136.872,144.001z"/>
</g>
<g id="jaw">
	<path fill="#2F3875" d="M125.878,215c0,0,21.72,28.75,40.725,36.333c12.531,5,25.846,4.667,40.725,0
		c14.88-4.667,43.467-34.667,43.467-34.667L125.878,215z"/>
</g>
<g id="body">
	<path fill="#1E1D56" d="M194.5,120.865c0,0-51.333,16.635-61.167,26.468s-7,30.001-8.667,36.667s-10.333,12.334-10,20
		s13,15,18.667,16s50,17.334,52.667,20c0,0,27.332-12.666,40.666-15s34.986-6.667,34.498-19.334
		c-0.456-11.812-8.215-12.407-8.215-22.174c0-9.768,0.051-34.159-10.949-41.159S194.5,120.865,194.5,120.865z"/>
</g>
<g id="eyes">
	<path fill="#7B7D32" d="M144.667,179.333c0,14.176-4.328,25.667-9.667,25.667s-15-11.491-15-25.667s9.662-25.667,15-25.667
		S144.667,165.157,144.667,179.333z"/>
	<path fill="#7B7D32" d="M235,179.333c0,14.176,4.328,25.667,9.666,25.667c5.339,0,15-11.491,15-25.667s-9.661-25.667-15-25.667
		C239.328,153.666,235,165.157,235,179.333z"/>
	<ellipse cx="129.775" cy="174.972" rx="7.097" ry="12.167"/>
	<ellipse fill="#BABABA" cx="132.721" cy="172.5" rx="2.946" ry="4.166"/>
	<ellipse cx="247.333" cy="174.972" rx="7.097" ry="12.167"/>
	<ellipse fill="#BABABA" cx="250.277" cy="172.5" rx="2.947" ry="4.166"/>
</g>
<g id="Layer_7">
	<path fill="#2C2E6B" d="M160.281,133.293c0,0-1.614,22.54,28.552,22.54s35.157-22.54,35.157-22.54l-14.161-6.142L170.833,129
		L160.281,133.293z"/>
	<path fill="#373F89" d="M163.441,132.007c0,0-0.838,18.993,24.245,18.993c25.083,0,31.056-19.983,31.056-19.983l-9.768-4.225
		l-35.99,1.216L163.441,132.007z"/>
	<path fill="#414294" d="M168.514,129.952c0,0,0.086,15.785,19.912,15.785c19.826,0,24.387-17.284,24.387-17.284l-8.709-3.688
		l-27.507,1.713L168.514,129.952z"/>
</g>
<g id="light_ball">
	<circle fill="#E7E620" cx="188.833" cy="122.5" r="21.5"/>
	<circle fill="#FAF075" cx="196.582" cy="115.167" r="8.668"/>
	<circle fill="#FFFFFF" cx="200.667" cy="112.583" r="4.583"/>
</g>
<g id="Layer_9" display="none">
	
		<image display="inline" overflow="visible" opacity="0.3" enable-background="new    " width="1500" height="1161" xlink:href="../../../Deep End/stock-vector-vector-water-ripples-fading-into-the-distance-4326745.jpg"  transform="matrix(0.24 0 0 0.24 20.666 29.0127)">
	</image>
</g>
<g id="Layer_10">
	<path opacity="0.5" fill="#2F3F89" enable-background="new    " d="M161.8,176.713c-4.336,0.305-9.531,0.407-9.667,2.334
		c-0.136,1.928,13.2,3,19.267,4s36.067,1.667,43.067,3.667s15.668,2.195,28,0c12.332-2.194,17.643-5.456,7.154-6.062
		c-10.489-0.606-23.488-2.94-33.488-3.939S164.501,176.523,161.8,176.713z"/>
	<path opacity="0.5" fill="#2F3F89" enable-background="new    " d="M80.803,260.242c-4.336,0.304-9.531,0.406-9.667,2.334
		c-0.136,1.927,13.2,3,19.267,4c6.067,1,36.067,1.667,43.067,3.667s15.668,2.194,28,0c12.332-2.195,17.643-5.456,7.154-6.062
		c-10.489-0.606-23.488-2.94-33.488-3.939S83.504,260.053,80.803,260.242z"/>
	<path opacity="0.5" fill="#2F3F89" enable-background="new    " d="M65.747,140.193c-4.336,0.304-9.531,0.407-9.667,2.334
		c-0.136,1.927,13.2,3,19.267,4c6.067,1,36.067,1.667,43.067,3.667c7,2,15.668,2.195,28,0s17.643-5.456,7.154-6.062
		c-10.489-0.606-23.488-2.94-33.488-3.939S68.448,140.004,65.747,140.193z"/>
	<path opacity="0.5" fill="#2F3F89" enable-background="new    " d="M155.5,189.75c-6.161-0.336-35.436-2-40.843-1.25
		c-5.407,0.75-24.157-0.434-19.157,2.408s14.159,0.892,22.387,4.18s20.174,0.219,31.863,1.662s24-1.25,29-1.75
		S180.753,191.127,155.5,189.75z"/>
	<path opacity="0.5" fill="#2F3F89" enable-background="new    " d="M228.744,203c0,0-68.744-2-74.494-1.5s-23.508-0.75-15.504,1.5
		s26.504,3,39.754,5.75s25.496,2.41,51.5,4.5s61.25-4,73-3.25S283.988,202.25,228.744,203z"/>
	<path opacity="0.5" fill="#2F3F89" enable-background="new    " d="M113.5,206.986c0,0-22.75-2.377-15.75,0.568
		c7,2.944,7.224,7.854,14.25,6.135c7.026-1.72,7.952-1.572,20.721,0c12.769,1.571,74.279,7.537,99.529,7.924s-35-8.863-45.5-9.863
		S113.5,206.986,113.5,206.986z"/>
	<path opacity="0.5" fill="#2F3F89" enable-background="new    " d="M135.071,174.973c0,0-4.846,2.359-15.88,1.693
		c-11.033-0.666-1.364-2.916-28.109-2.916s-43.822,4.438-28.803,5.094s39.501-1.178,49.583,0.489S152.314,176.443,135.071,174.973z"
		/>
	<path opacity="0.5" fill="#2F3F89" enable-background="new    " d="M114.657,165c0,0-26.907-1.25-14.657,1.25
		s22.916,2.416,32.333,2.083s27.139-1.077,37.153,0.17c10.014,1.247,48.096-5.658,6.514-5.698
		C134.417,162.766,114.657,165,114.657,165z"/>
	<path opacity="0.5" fill="#2F3F89" enable-background="new    " d="M86.062,197.441c0,0-31-2.582-26.333,1.875
		c4.667,4.459,7.666,8.606,14.333,6.033c6.667-2.574,19.667-2.951,23.667-3.931S88.36,197.613,86.062,197.441z"/>
	<path opacity="0.5" fill="#2F3F89" enable-background="new    " d="M293.334,261.001c-1.648-0.239-84.002-22.669-126.001-21.001
		s-104.755,14.584-59.71,14.959s135.377,6.709,159.711,9.709S314,264.001,293.334,261.001z"/>
	<path opacity="0.5" fill="#2F3F89" enable-background="new    " d="M294.001,190.908c0,0-40.845-1.842-47.756,0.792
		s-2.072,2.622,11.342,3.128s13.747,0.513,24.414,2.343s17.628-1.052,19.479-3.444C303.333,191.335,297.659,191.055,294.001,190.908
		z"/>
	<path opacity="0.5" fill="#2F3F89" enable-background="new    " d="M262.48,138.895c0,0-30.81-1.842-36.021,0.792
		s-1.562,2.622,8.555,3.128c10.118,0.506,10.369,0.513,18.416,2.343c8.045,1.83,13.295-1.052,14.692-3.444
		C269.52,139.322,265.239,139.041,262.48,138.895z"/>
	<path opacity="0.5" fill="#2F3F89" enable-background="new    " d="M297.334,168.333c0,0,0-4.21-9.333-2.604
		c-9.333,1.606-25.334-0.09-10.667,2.926c14.667,3.015,18.668,2.015,22.334,2.348S299.334,167.332,297.334,168.333z"/>
	<path opacity="0.5" fill="#2F3F89" enable-background="new    " d="M358.302,275.635c0,0,0-4.21-9.333-2.604
		c-9.333,1.605-25.334-0.09-10.667,2.925s18.668,2.015,22.334,2.349C364.302,278.637,360.302,274.634,358.302,275.635z"/>
	<path opacity="0.5" fill="#2F3F89" enable-background="new    " d="M374.441,138.039c0,0-12.497-6.334-34.875-4.166
		s-34.047,1.332-40.379,1.25s-9.635,1.952,25.989,2.916s43.811,4.531,47.41,3.767C376.188,141.042,377.612,139.301,374.441,138.039z
		"/>
	<path opacity="0.5" fill="#2F3F89" enable-background="new    " d="M245.99,160.077c-1.99,0.248-43.949,5.307-50.969,8.114
		c-7.02,2.809,3.377,1.447,16.345,0.461c12.968-0.984,23.854-3.654,38.911-0.319s27.391,1.79,17.391-2.604
		C257.668,161.335,250.934,159.461,245.99,160.077z"/>
	<path opacity="0.5" fill="#2F3F89" enable-background="new    " d="M37.996,206.193c-1.115,0.248-24.634,5.308-28.569,8.115
		c-3.935,2.81,1.893,1.446,9.162,0.461c7.269-0.984,13.371-3.654,21.811-0.319s15.353,1.79,9.748-2.604
		C44.543,207.452,40.767,205.578,37.996,206.193z"/>
	<path opacity="0.5" fill="#2F3F89" enable-background="new    " d="M237.848,154.329c0,0-25.154-3.451-32.089-0.683
		c-6.933,2.768-37.144,0.295-19.555,3.883c17.589,3.587,7.672-0.144,33.403,0.102c25.73,0.243,34.47-0.301,27.99-1.734
		C241.119,154.462,237.848,154.329,237.848,154.329z"/>
	<path opacity="0.5" fill="#2F3F89" enable-background="new    " d="M216.463,275.875c0,0-25.398-7.37-32.219-2.771
		c-6.82,4.597-37.241-1.274-19.425,5.973c17.815,7.248,7.688,0.117,33.508,1.802c25.821,1.681,34.559,1.136,27.991-1.735
		C219.75,276.271,216.463,275.875,216.463,275.875z"/>
	<path opacity="0.5" fill="#2F3F89" enable-background="new    " d="M201.83,37.598c0,0-25.399-7.37-32.219-2.772
		c-6.82,4.597-37.241-1.274-19.425,5.973c17.815,7.248,7.688,0.118,33.508,1.802c25.822,1.681,34.56,1.135,27.992-1.736
		C205.117,37.993,201.83,37.598,201.83,37.598z"/>
	<path opacity="0.5" fill="#2F3F89" enable-background="new    " d="M143.334,221.613c0,0-46.667-5.945-62.667-4.945
		s-24.333,3.999-7.333,7.666s46.439,4.333,59.386,4C145.667,228.001,166.001,226.227,143.334,221.613z"/>
	<path opacity="0.5" fill="#2F3F89" enable-background="new    " d="M98.749,167.792c0,0-22.833-2.737-30.662-2.276
		c-7.828,0.459-11.905,1.84-3.588,3.529c8.318,1.688,22.722,1.995,29.057,1.842C99.891,170.734,109.839,169.916,98.749,167.792z"/>
	<path opacity="0.5" fill="#2F3F89" enable-background="new    " d="M371.206,173.352c0,0-22.833-2.738-30.661-2.277
		c-7.828,0.46-11.906,1.841-3.588,3.529c8.317,1.688,22.722,1.996,29.057,1.842C372.348,176.292,382.297,175.475,371.206,173.352z"
		/>
	<path opacity="0.5" fill="#2F3F89" enable-background="new    " d="M251.43,112.183c0,0-22.834-2.738-30.662-2.277
		c-7.828,0.46-11.904,1.841-3.588,3.53c8.318,1.688,22.723,1.995,29.057,1.842C252.57,115.125,262.52,114.307,251.43,112.183z"/>
	<path opacity="0.5" fill="#2F3F89" enable-background="new    " d="M296.001,239.771c0,0-32.368,1.332-46.351,1.946
		c-13.983,0.615-20.396,2.616,1.145,4.949s40.873,2.999,62.206,1.666s34.333-8.792,19.333-8.562
		C317.334,240.001,301.668,237.875,296.001,239.771z"/>
	<path opacity="0.5" fill="#2F3F89" enable-background="new    " d="M192.759,222.482c-26.724,2.022-54.561,8.638-28.826,8.078
		C189.668,230,193.998,232,207,233s58.893,3.146,69.668,1.152C287.443,232.157,200.51,221.896,192.759,222.482z"/>
	<path opacity="0.5" fill="#2F3F89" enable-background="new    " d="M287.816,218.001c0,0-39.148-0.108-30.481,3.612
		c8.667,3.72,9.181,7.721,20.257,4.388s16.036-1.999,23.891-0.333c7.854,1.666,16.153-11.561,4.004-9.113
		C293.336,219.002,292.637,217.975,287.816,218.001z"/>
	<path opacity="0.5" fill="#2F3F89" enable-background="new    " d="M362.246,213.809c0,0-48.301-0.17-37.607,5.646
		c10.692,5.815,11.326,12.065,24.992,6.856c13.665-5.209,19.784-3.123,29.475-0.521c9.689,2.603,19.931-18.065,4.939-14.242
		S368.192,213.766,362.246,213.809z"/>
	<path opacity="0.5" fill="#2F3F89" enable-background="new    " d="M79.735,235.229c0,0-39.149-0.106-30.482,3.613
		c8.667,3.721,9.181,7.721,20.257,4.387c11.076-3.332,16.036-1.998,23.89-0.332s16.154-11.561,4.004-9.112
		C85.252,236.229,84.554,235.201,79.735,235.229z"/>
	<path opacity="0.5" fill="#2F3F89" enable-background="new    " d="M158.871,105.592c4.336,0.304,9.531,0.407,9.667,2.334
		c0.135,1.927-13.201,3-19.268,4s-36.066,1.667-43.066,3.667s-15.668,2.195-28,0c-12.332-2.195-17.643-5.456-7.154-6.062
		c10.489-0.606,23.488-2.94,33.488-3.939S156.168,105.402,158.871,105.592z"/>
	<path opacity="0.5" fill="#2F3F89" enable-background="new    " d="M266.077,85.336c6.161-0.336,35.437-2,40.843-1.25
		c5.407,0.75,24.157-0.434,19.157,2.408c-5,2.842-14.159,0.892-22.388,4.18c-8.228,3.288-20.174,0.218-31.862,1.662
		s-24-1.25-29-1.75S240.824,86.713,266.077,85.336z"/>
	<path opacity="0.5" fill="#2F3F89" enable-background="new    " d="M165.283,77.636c0,0,68.744-2,74.494-1.5
		s23.508-0.75,15.504,1.5s-26.504,3-39.754,5.75s-25.496,2.41-51.5,4.5c-26.004,2.09-61.25-4-73-3.25S110.039,76.886,165.283,77.636
		z"/>
	<path opacity="0.5" fill="#2F3F89" enable-background="new    " d="M242.625,94.105c0,0,22.871-0.391,15.643,1.935
		c-7.229,2.326-7.881,7.197-14.729,4.873c-6.849-2.324-7.784-2.257-20.644-1.801c-12.856,0.457-74.652,1.053-99.84-0.756
		c-25.188-1.81,35.638-5.788,46.185-5.872C179.786,92.401,242.625,94.105,242.625,94.105z"/>
	<path opacity="0.5" fill="#2F3F89" enable-background="new    " d="M288.768,180.506c0,0,3.026,2.359,9.92,1.693
		s0.853-2.916,17.562-2.916s27.378,4.438,17.995,5.094s-24.679-1.178-30.979,0.49C296.969,186.533,277.993,181.977,288.768,180.506z
		"/>
	<path opacity="0.5" fill="#2F3F89" enable-background="new    " d="M266.294,147.892c0,0,40.846-1.842,47.756,0.792
		c6.912,2.634,2.072,2.623-11.342,3.128c-13.414,0.504-13.746,0.512-24.414,2.342c-10.666,1.83-17.627-1.051-19.479-3.444
		C256.962,148.318,262.636,148.039,266.294,147.892z"/>
	<path opacity="0.5" fill="#2F3F89" enable-background="new    " d="M199.696,59.935c0,0,7.312-9.25,17.748-4.472
		c10.435,4.778,16.262,4.164,19.352,4.417s4.292,3.667-13.189,3.035c-17.479-0.632-22.154,4.508-23.75,3.083
		C198.258,64.572,197.909,61.738,199.696,59.935z"/>
	<path opacity="0.5" fill="#2F3F89" enable-background="new    " d="M244.15,271.466c0,0,6.775-5.616,17.412-2.25
		c10.64,3.369,16.403,3.171,19.489,3.433c3.089,0.263,4.468,2.463-12.956,1.488c-17.424-0.974-21.799,2.129-23.464,1.172
		C242.968,274.354,242.469,272.548,244.15,271.466z"/>
	<path opacity="0.5" fill="#2F3F89" enable-background="new    " d="M226.586,119.996c0,0,46.666-5.945,62.666-4.945
		s24.334,3.999,7.334,7.666s-46.439,4.333-59.387,4C224.251,126.384,203.918,124.608,226.586,119.996z"/>
	<path opacity="0.5" fill="#2F3F89" enable-background="new    " d="M10.57,186.27c0,0,32.265-5.944,43.327-4.944
		s16.824,3.999,5.07,7.666c-11.753,3.667-32.108,4.333-41.059,4C8.957,192.657-5.103,190.882,10.57,186.27z"/>
	<path opacity="0.5" fill="#2F3F89" enable-background="new    " d="M64.888,125.175c19.713,2.023,40.246,8.638,21.263,8.078
		s-22.177,1.44-31.768,2.44c-9.591,1-43.441,3.147-51.39,1.152C-4.956,134.85,59.171,124.588,64.888,125.175z"/>
	<path opacity="0.5" fill="#2F3F89" enable-background="new    " d="M131.707,123.403c0,0,39.149-0.108,30.482,3.612
		c-8.667,3.72-9.181,7.721-20.257,4.388c-11.076-3.333-16.036-1.999-23.89-0.333s-16.154-11.56-4.004-9.113
		C126.188,124.404,126.887,123.375,131.707,123.403z"/>
	<path opacity="0.5" fill="#2F3F89" enable-background="new    " d="M149.755,61.92c0,0,39.149-0.108,30.482,3.612
		c-8.667,3.72-9.181,7.721-20.257,4.388s-16.036-1.999-23.89-0.333s-16.154-11.56-4.004-9.113
		C144.236,62.921,144.936,61.893,149.755,61.92z"/>
</g>
</svg>
