<?xml version="1.0" encoding="utf-8"?>
<!-- Generator: Adobe Illustrator 16.0.4, SVG Export Plug-In . SVG Version: 6.00 Build 0)  -->
<!DOCTYPE svg PUBLIC "-//W3C//DTD SVG 1.1//EN" "http://www.w3.org/Graphics/SVG/1.1/DTD/svg11.dtd">
<svg version="1.1" id="Layer_1" xmlns="http://www.w3.org/2000/svg" xmlns:xlink="http://www.w3.org/1999/xlink" x="0px" y="0px"
	 width="1366px" height="994px" viewBox="0 0 1366 994" enable-background="new 0 0 1366 994" xml:space="preserve">
<g id="Layer_11">
	<rect x="-8.779" fill="#151842" width="1372.779" height="1030.873"/>
</g>
<g id="Layer_6">
	<path fill="#231F55" d="M447.88,754.826c0,0-62.639,34.725-72.948,45.033c-10.309,10.309-29.782,24.054,10.309,24.054
		c40.09,0,114.953-10.393,127.384-26.956C525.058,780.403,447.88,754.826,447.88,754.826z"/>
	<path fill="#231F55" d="M843.342,761.518c0,0,62.638,34.718,72.946,45.026s29.785,24.054-10.309,24.054
		c-40.087,0-114.946-10.389-127.383-26.949C766.161,787.088,843.342,761.518,843.342,761.518z"/>
</g>
<g id="back">
	<path fill="#1F1A4D" d="M461.546,494.822c-48.028,105.85,87.181,216.434,177.324,216.434c90.142,0,247.072-124.584,183.917-222.165
		c-105.262-162.647-93.771-198.777-183.914-198.777C548.728,290.314,541.934,317.649,461.546,494.822z"/>
</g>
<g id="jaw">
	<path fill="#2F3975" d="M423.768,738.792c0,0,74.636,98.792,139.941,124.85c43.059,17.181,88.813,16.037,139.941,0
		c51.131-16.037,149.362-119.124,149.362-119.124L423.768,738.792z"/>
</g>
<g id="body">
	<path fill="#231F55" d="M659.57,415.322c0,0-176.393,57.161-210.185,90.95c-33.792,33.788-24.054,103.09-29.782,125.996
		s-35.507,42.383-34.362,68.726c1.144,26.342,44.671,51.543,64.144,54.979s171.812,59.563,180.977,68.725
		c0,0,93.919-43.523,139.739-51.544c45.818-8.02,120.222-22.909,118.544-66.436c-1.567-40.591-28.229-42.635-28.229-76.195
		c0-33.563,0.174-117.379-37.624-141.433C784.993,465.037,659.57,415.322,659.57,415.322z"/>
</g>
<g id="eyes">
	<path fill="#7C7E32" d="M488.332,616.231c0,48.712-14.873,88.198-33.218,88.198c-18.346,0-51.544-39.486-51.544-88.198
		c0-48.711,33.202-88.197,51.544-88.197S488.332,567.521,488.332,616.231z"/>
	<path fill="#7C7E32" d="M798.738,616.231c0,48.712,14.872,88.198,33.215,88.198c18.346,0,51.543-39.486,51.543-88.198
		c0-48.711-33.197-88.197-51.543-88.197C813.61,528.034,798.738,567.521,798.738,616.231z"/>
	<path fill="#010101" d="M437.159,559.437c13.468,0,24.388,18.718,24.388,41.812c0,23.087-10.919,41.805-24.388,41.805
		c-13.468,0-24.387-18.718-24.387-41.805C412.771,578.154,423.691,559.437,437.159,559.437z"/>
	<ellipse fill="#BBBBBB" cx="447.283" cy="592.752" rx="10.122" ry="14.315"/>
	<path fill="#010101" d="M841.117,559.437c13.467,0,24.386,18.718,24.386,41.812c0,23.087-10.919,41.805-24.386,41.805
		s-24.386-18.718-24.386-41.805C816.731,578.154,827.65,559.437,841.117,559.437z"/>
	<ellipse fill="#BBBBBB" cx="851.234" cy="592.752" rx="10.128" ry="14.315"/>
</g>
<g id="Layer_7">
	<path fill="#2B306B" d="M541.986,458.027c0,0-5.547,77.453,98.11,77.453c103.658,0,120.809-77.453,120.809-77.453l-48.661-21.106
		l-134,6.354L541.986,458.027z"/>
	<path fill="#364089" d="M552.844,453.607c0,0-2.879,65.266,83.312,65.266c86.193,0,106.716-68.667,106.716-68.667l-33.563-14.519
		l-123.673,4.178L552.844,453.607z"/>
	<path fill="#424395" d="M570.276,446.547c0,0,0.295,54.24,68.421,54.24c68.127,0,83.798-59.391,83.798-59.391l-29.926-12.672
		l-94.519,5.886L570.276,446.547z"/>
</g>
<g id="light_ball">
	<circle fill="#E7E624" cx="640.097" cy="420.94" r="73.879"/>
	<circle fill="#FAF077" cx="666.725" cy="395.742" r="29.785"/>
	<circle fill="#FFFFFF" cx="680.762" cy="386.863" r="15.748"/>
</g>
<g id="Layer_10">
	<path opacity="0.5" fill="#2E4089" enable-background="new    " d="M547.204,607.229c-14.899,1.047-32.75,1.399-33.218,8.021
		c-0.467,6.624,45.359,10.309,66.206,13.745c20.848,3.436,123.935,5.728,147.988,12.601c24.054,6.872,53.839,7.543,96.215,0
		c42.376-7.541,60.624-18.749,24.584-20.829c-36.044-2.084-80.711-10.104-115.074-13.537
		C699.543,603.796,556.486,606.577,547.204,607.229z"/>
	<path opacity="0.5" fill="#2E4089" enable-background="new    " d="M268.88,894.256c-14.901,1.043-32.752,1.396-33.22,8.02
		c-0.467,6.621,45.359,10.309,66.206,13.745c20.849,3.437,123.937,5.729,147.99,12.601c24.054,6.873,53.839,7.541,96.215,0
		c42.374-7.543,60.624-18.748,24.582-20.828c-36.043-2.084-80.711-10.104-115.072-13.537
		C421.219,890.822,278.161,893.604,268.88,894.256z"/>
	<path opacity="0.5" fill="#2E4089" enable-background="new    " d="M217.144,481.737c-14.899,1.045-32.751,1.399-33.218,8.02
		c-0.468,6.623,45.357,10.309,66.207,13.745c20.848,3.437,123.935,5.729,147.988,12.601c24.054,6.871,53.839,7.542,96.215,0
		s60.626-18.747,24.583-20.831c-36.042-2.082-80.71-10.102-115.072-13.535C369.482,478.304,226.426,481.087,217.144,481.737z"/>
	<path opacity="0.5" fill="#2E4089" enable-background="new    " d="M525.557,652.027c-21.171-1.154-121.767-6.873-140.346-4.295
		c-18.581,2.576-83.01-1.49-65.829,8.274c17.181,9.766,48.654,3.064,76.928,14.362c28.273,11.299,69.322,0.752,109.488,5.712
		c40.166,4.96,82.47-4.296,99.651-6.014S612.332,656.759,525.557,652.027z"/>
	<path opacity="0.5" fill="#2E4089" enable-background="new    " d="M777.241,697.558c0,0-236.222-6.873-255.98-5.154
		c-19.758,1.718-80.778-2.577-53.275,5.154c27.503,7.731,91.074,10.309,136.604,19.758c45.53,9.45,87.611,8.282,176.966,15.464
		c89.355,7.181,210.47-13.745,250.846-11.168S967.073,694.98,777.241,697.558z"/>
	<path opacity="0.5" fill="#2E4089" enable-background="new    " d="M381.234,711.256c0,0-78.175-8.168-54.121,1.949
		s24.824,26.99,48.967,21.084c24.143-5.913,27.325-5.402,71.203,0c43.877,5.396,255.24,25.899,342.005,27.229
		c86.766,1.328-120.269-30.457-156.349-33.893C596.858,724.188,381.234,711.256,381.234,711.256z"/>
	<path opacity="0.5" fill="#2E4089" enable-background="new    " d="M455.357,601.249c0,0-16.651,8.107-54.567,5.818
		c-37.911-2.288-4.686-10.021-96.589-10.021s-150.584,15.249-98.975,17.504c51.609,2.255,135.735-4.047,170.379,1.681
		C410.25,621.96,514.608,606.303,455.357,601.249z"/>
	<path opacity="0.5" fill="#2E4089" enable-background="new    " d="M385.211,566.98c0,0-92.46-4.296-50.366,4.295
		c42.094,8.591,78.745,8.302,111.104,7.158c32.359-1.145,93.257-3.702,127.666,0.584c34.411,4.285,165.271-19.443,22.384-19.581
		C453.11,559.303,385.211,566.98,385.211,566.98z"/>
	<path opacity="0.5" fill="#2E4089" enable-background="new    " d="M286.951,678.457c0,0-106.523-8.873-90.487,6.442
		c16.037,15.322,26.343,29.571,49.252,20.731c22.909-8.846,67.581-10.141,81.326-13.51
		C340.786,688.752,294.847,679.047,286.951,678.457z"/>
	<path opacity="0.5" fill="#2E4089" enable-background="new    " d="M999.188,896.863c-5.664-0.822-288.651-77.896-432.97-72.165
		c-144.319,5.731-359.963,50.114-205.178,51.403c154.786,1.288,465.188,23.054,548.806,33.362
		C993.463,919.772,1070.201,907.172,999.188,896.863z"/>
	<path opacity="0.5" fill="#2E4089" enable-background="new    " d="M1001.479,656.007c0,0-140.353-6.329-164.101,2.722
		s-7.121,9.01,38.973,10.748c46.095,1.738,47.238,1.762,83.894,8.051c36.654,6.288,60.573-3.614,66.936-11.836
		C1033.547,657.474,1014.05,656.511,1001.479,656.007z"/>
	<path opacity="0.5" fill="#2E4089" enable-background="new    " d="M893.168,477.277c0,0-105.873-6.331-123.779,2.721
		c-17.906,9.052-5.369,9.01,29.396,10.749c34.769,1.74,35.631,1.763,63.281,8.052c27.645,6.289,45.685-3.616,50.487-11.835
		C917.355,478.745,902.647,477.779,893.168,477.277z"/>
	<path opacity="0.5" fill="#2E4089" enable-background="new    " d="M1012.933,578.434c0,0,0-14.467-32.07-8.95
		c-32.07,5.521-87.054-0.309-36.654,10.054s64.147,6.927,76.745,8.07C1033.55,588.752,1019.805,574.993,1012.933,578.434z"/>
	<path opacity="0.5" fill="#2E4089" enable-background="new    " d="M1222.433,947.148c0,0,0-14.467-32.07-8.946
		c-32.07,5.513-87.054-0.309-36.654,10.05c50.399,10.359,64.147,6.923,76.745,8.07
		C1243.051,957.464,1229.306,943.709,1222.433,947.148z"/>
	<path opacity="0.5" fill="#2E4089" enable-background="new    " d="M1277.893,474.336c0,0-42.946-21.765-119.839-14.315
		c-76.899,7.45-116.993,4.577-138.752,4.295c-21.759-0.282-33.11,6.708,89.302,10.02c122.413,3.312,150.548,15.569,162.913,12.944
		C1283.893,484.655,1288.785,478.671,1277.893,474.336z"/>
	<path opacity="0.5" fill="#2E4089" enable-background="new    " d="M836.503,550.064c-6.839,0.852-151.021,18.234-175.143,27.882
		c-24.123,9.651,11.604,4.974,56.166,1.584c44.561-3.382,81.967-12.557,133.708-1.097c51.738,11.459,94.121,6.15,59.759-8.95
		C876.631,554.387,853.489,547.946,836.503,550.064z"/>
	<path opacity="0.5" fill="#2E4089" enable-background="new    " d="M121.785,708.53c-3.833,0.853-84.649,18.238-98.171,27.886
		c-13.52,9.655,6.505,4.967,31.483,1.584c24.978-3.382,45.946-12.557,74.948-1.097c29.002,11.46,52.757,6.15,33.497-8.95
		C144.281,712.856,131.306,706.416,121.785,708.53z"/>
	<path opacity="0.5" fill="#2E4089" enable-background="new    " d="M808.523,530.312c0,0-86.437-11.859-110.266-2.346
		c-23.822,9.51-127.634,1.014-67.194,13.342c60.439,12.326,26.362-0.496,114.782,0.35c88.412,0.835,118.446-1.034,96.181-5.96
		C819.765,530.769,808.523,530.312,808.523,530.312z"/>
	<path opacity="0.5" fill="#2E4089" enable-background="new    " d="M735.04,947.974c0,0-87.273-25.325-110.711-9.523
		c-23.437,15.799-127.97-4.376-66.75,20.526c61.216,24.906,26.417,0.399,115.143,6.191c88.728,5.779,118.751,3.906,96.184-5.959
		C746.335,949.336,735.04,947.974,735.04,947.974z"/>
	<path opacity="0.5" fill="#2E4089" enable-background="new    " d="M684.758,129.196c0,0-87.277-25.325-110.713-9.525
		c-23.435,15.795-127.968-4.379-66.749,20.523c61.217,24.906,26.418,0.406,115.141,6.193c88.729,5.777,118.757,3.899,96.187-5.965
		C696.054,130.554,684.758,129.196,684.758,129.196z"/>
	<path opacity="0.5" fill="#2E4089" enable-background="new    " d="M483.751,761.518c0,0-160.359-20.43-215.339-16.994
		c-54.98,3.437-83.614,13.742-25.198,26.343c58.416,12.601,159.575,14.89,204.065,13.745
		C491.768,783.467,561.641,777.369,483.751,761.518z"/>
	<path opacity="0.5" fill="#2E4089" enable-background="new    " d="M330.546,576.574c0,0-78.46-9.406-105.362-7.822
		c-26.899,1.577-40.908,6.322-12.329,12.128c28.583,5.798,78.079,6.855,99.848,6.328
		C334.471,586.685,368.654,583.873,330.546,576.574z"/>
	<path opacity="0.5" fill="#2E4089" enable-background="new    " d="M1266.775,595.678c0,0-78.46-9.405-105.359-7.821
		c-26.899,1.58-40.913,6.325-12.329,12.124c28.577,5.802,78.077,6.858,99.846,6.332
		C1270.698,605.782,1304.886,602.974,1266.775,595.678z"/>
	<path opacity="0.5" fill="#2E4089" enable-background="new    " d="M855.194,385.488c0,0-78.463-9.409-105.362-7.824
		c-26.899,1.581-40.906,6.326-12.329,12.129c28.584,5.8,78.081,6.855,99.846,6.329C859.114,395.598,893.302,392.787,855.194,385.488
		z"/>
	<path opacity="0.5" fill="#2E4089" enable-background="new    " d="M1008.353,823.913c0,0-111.226,4.577-159.272,6.685
		c-48.05,2.114-70.087,8.99,3.933,17.007c74.021,8.017,140.45,10.306,213.756,5.725c73.306-4.58,117.977-30.211,66.433-29.423
		C1081.657,824.702,1027.825,817.396,1008.353,823.913z"/>
	<path opacity="0.5" fill="#2E4089" enable-background="new    " d="M653.587,764.504c-91.829,6.946-187.483,29.681-99.052,27.758
		c88.431-1.926,103.311,4.947,147.989,8.383c44.678,3.437,202.369,10.812,239.396,3.96
		C978.946,797.749,680.221,762.49,653.587,764.504z"/>
	<path opacity="0.5" fill="#2E4089" enable-background="new    " d="M980.228,749.104c0,0-134.523-0.372-104.741,12.413
		c29.782,12.781,31.547,26.53,69.607,15.077s55.104-6.869,82.094-1.145s55.507-39.725,13.759-31.315
		C999.194,752.544,996.792,749.014,980.228,749.104z"/>
	<path opacity="0.5" fill="#2E4089" enable-background="new    " d="M1235.986,734.698c0,0-165.973-0.584-129.229,19.403
		c36.742,19.979,38.92,41.456,85.88,23.557c46.956-17.899,67.983-10.731,101.282-1.789c33.295,8.943,68.489-62.077,16.973-48.939
		S1256.416,734.551,1235.986,734.698z"/>
	<path opacity="0.5" fill="#2E4089" enable-background="new    " d="M265.209,808.303c0,0-134.525-0.362-104.743,12.416
		c29.782,12.785,31.549,26.53,69.607,15.073c38.061-11.449,55.104-6.865,82.092-1.141s55.51-39.725,13.758-31.309
		C284.167,811.738,281.77,808.209,265.209,808.303z"/>
	<path opacity="0.5" fill="#2E4089" enable-background="new    " d="M537.141,362.839c14.899,1.045,32.75,1.399,33.218,8.02
		c0.463,6.623-45.362,10.309-66.209,13.745c-20.847,3.436-123.931,5.728-147.985,12.601c-24.054,6.872-53.839,7.543-96.215,0
		c-42.376-7.542-60.626-18.747-24.584-20.829c36.043-2.084,80.711-10.104,115.074-13.537
		C384.801,359.406,527.852,362.187,537.141,362.839z"/>
	<path opacity="0.5" fill="#2E4089" enable-background="new    " d="M905.526,293.235c21.171-1.154,121.769-6.872,140.346-4.295
		c18.581,2.577,83.011-1.492,65.829,8.275c-17.182,9.765-48.654,3.064-76.93,14.362c-28.275,11.299-69.322,0.75-109.486,5.711
		c-40.165,4.963-82.47-4.295-99.651-6.013C808.453,309.557,818.751,297.967,905.526,293.235z"/>
	<path opacity="0.5" fill="#2E4089" enable-background="new    " d="M559.174,266.775c0,0,236.222-6.873,255.98-5.154
		c19.758,1.718,80.778-2.577,53.275,5.154c-27.504,7.731-91.074,10.309-136.604,19.758s-87.611,8.282-176.968,15.463
		c-89.356,7.183-210.47-13.745-250.846-11.168S369.342,264.198,559.174,266.775z"/>
	<path opacity="0.5" fill="#2E4089" enable-background="new    " d="M824.939,323.368c0,0,78.591-1.344,53.752,6.649
		c-24.84,7.993-27.081,24.73-50.611,16.745c-23.537-7.986-26.748-7.755-70.939-6.189c-44.175,1.57-256.521,3.619-343.072-2.597
		c-86.552-6.22,122.46-19.889,158.703-20.178C609.01,317.512,824.939,323.368,824.939,323.368z"/>
	<path opacity="0.5" fill="#2E4089" enable-background="new    " d="M983.496,620.262c0,0,10.399,8.107,34.088,5.819
		c23.691-2.289,2.933-10.021,60.349-10.021s94.077,15.248,61.836,17.504c-32.242,2.255-84.802-4.047-106.453,1.685
		C1011.678,640.974,946.473,625.315,983.496,620.262z"/>
	<path opacity="0.5" fill="#2E4089" enable-background="new    " d="M906.271,508.193c0,0,140.359-6.331,164.101,2.722
		c23.752,9.052,7.121,9.012-38.973,10.75c-46.095,1.731-47.235,1.758-83.893,8.047c-36.651,6.288-60.571-3.611-66.937-11.836
		C874.204,509.656,893.701,508.698,906.271,508.193z"/>
	<path opacity="0.5" fill="#2E4089" enable-background="new    " d="M677.424,205.952c0,0,25.126-31.786,60.985-15.368
		c35.859,16.419,55.883,14.309,66.5,15.178s14.748,12.601-45.319,10.43c-60.063-2.171-76.127,15.49-81.612,10.594
		C672.483,221.886,671.285,212.146,677.424,205.952z"/>
	<path opacity="0.5" fill="#2E4089" enable-background="new    " d="M830.181,932.822c0,0,23.278-19.298,59.832-7.731
		c36.561,11.577,56.363,10.896,66.967,11.796c10.617,0.906,15.355,8.466-44.521,5.114c-59.872-3.346-74.905,7.315-80.627,4.026
		C826.117,942.745,824.402,936.541,830.181,932.822z"/>
	<path opacity="0.5" fill="#2E4089" enable-background="new    " d="M769.825,412.336c0,0,160.355-20.43,215.336-16.994
		c54.979,3.437,83.617,13.742,25.201,26.342c-58.416,12.601-159.577,14.89-204.067,13.745
		C761.802,434.286,691.933,428.183,769.825,412.336z"/>
	<path opacity="0.5" fill="#2E4089" enable-background="new    " d="M27.541,640.067c0,0,110.871-20.423,148.883-16.986
		s57.812,13.741,17.421,26.342c-40.386,12.601-110.331,14.89-141.087,13.745C21.999,662.018-26.314,655.916,27.541,640.067z"/>
	<path opacity="0.5" fill="#2E4089" enable-background="new    " d="M214.192,430.131c67.738,6.953,138.293,29.683,73.063,27.759
		c-65.229-1.925-76.205,4.948-109.163,8.384c-32.957,3.436-149.273,10.813-176.587,3.958
		C-25.81,463.378,194.546,428.114,214.192,430.131z"/>
	<path opacity="0.5" fill="#2E4089" enable-background="new    " d="M443.798,424.042c0,0,134.525-0.371,104.743,12.413
		c-29.782,12.782-31.549,26.53-69.607,15.077c-38.061-11.453-55.104-6.869-82.092-1.145c-26.988,5.725-55.508-39.723-13.758-31.313
		C424.833,427.482,427.236,423.946,443.798,424.042z"/>
	<path opacity="0.5" fill="#2E4089" enable-background="new    " d="M505.815,212.772c0,0,134.525-0.371,104.743,12.413
		c-29.782,12.782-31.547,26.53-69.607,15.077c-38.06-11.453-55.104-6.869-82.092-1.144c-26.988,5.725-55.508-39.723-13.758-31.314
		C486.85,216.211,489.256,212.68,505.815,212.772z"/>
</g>
</svg>
