<?xml version="1.0" encoding="utf-8"?>
<!-- Generator: Adobe Illustrator 16.0.4, SVG Export Plug-In . SVG Version: 6.00 Build 0)  -->
<!DOCTYPE svg PUBLIC "-//W3C//DTD SVG 1.1//EN" "http://www.w3.org/Graphics/SVG/1.1/DTD/svg11.dtd">
<svg version="1.1" xmlns="http://www.w3.org/2000/svg" xmlns:xlink="http://www.w3.org/1999/xlink" x="0px" y="0px" width="200px"
	 height="200px" viewBox="0 0 200 200" enable-background="new 0 0 200 200" xml:space="preserve">
<g id="Layer_3">
	<path fill="none" stroke="#636281" stroke-width="7" stroke-miterlimit="10" d="M190.667,186.258c0,2.879-2.238,5.212-5,5.212
		H72.333c-2.761,0-5-2.333-5-5.212V13.029c0-2.879,2.239-5.213,5-5.213h113.333c2.762,0,5,2.333,5,5.213V186.258z"/>
	<g>
		<rect x="67.333" y="63.835" fill="#636281" width="123.333" height="7"/>
	</g>
	<g>
		
			<rect x="124.815" y="37.136" transform="matrix(0.8334 -0.5527 0.5527 0.8334 4.6246 91.9452)" fill="#636281" width="59.963" height="2.334"/>
	</g>
	<g>
		
			<rect x="125.325" y="37.135" transform="matrix(0.8574 0.5146 -0.5146 0.8574 41.8589 -74.4668)" fill="#636281" width="59.964" height="2.334"/>
	</g>
	<g>
		
			<rect x="76.159" y="127.203" transform="matrix(0.8574 0.5147 -0.5147 0.8574 79.3838 -30.6697)" fill="#636281" width="37.75" height="1.411"/>
	</g>
	<g>
		
			<rect x="75.886" y="126.823" transform="matrix(-0.836 0.5487 -0.5487 -0.836 243.9578 182.1475)" fill="#636281" width="37.751" height="1.411"/>
	</g>
	<g>
		
			<rect x="137.261" y="154.484" transform="matrix(0.891 0.454 -0.454 0.891 87.7149 -54.9948)" fill="#636281" width="42.272" height="1.411"/>
	</g>
	<g>
		
			<rect x="137.131" y="154.483" transform="matrix(-0.8891 0.4577 -0.4577 -0.8891 370.0133 220.73)" fill="#636281" width="42.272" height="1.411"/>
	</g>
	<g>
		<rect x="67.5" y="102.334" fill="#636281" width="123.333" height="7"/>
	</g>
	<g>
		<rect x="67.333" y="170.25" fill="#636281" width="123.333" height="7"/>
	</g>
	<path fill="none" stroke="#636281" stroke-width="3" stroke-miterlimit="10" d="M181.449,50.624c0,2.758-2.236,4.996-4.995,4.996
		h-42.293c-2.759,0-4.995-2.237-4.995-4.996V25.981c0-2.759,2.236-4.995,4.995-4.995h42.293c2.759,0,4.995,2.236,4.995,4.995V50.624
		z"/>
	<path fill="none" stroke="#636281" stroke-width="2" stroke-miterlimit="10" d="M112.201,135.469c0,1.778-1.441,3.221-3.221,3.221
		H81.722c-1.778,0-3.22-1.442-3.22-3.221v-15.883c0-1.777,1.441-3.219,3.22-3.219h27.258c1.779,0,3.221,1.441,3.221,3.219V135.469z"
		/>
	<path fill="none" stroke="#636281" stroke-width="2" stroke-miterlimit="10" d="M177.939,163.13c0,1.778-1.683,3.221-3.759,3.221
		h-31.827c-2.076,0-3.759-1.442-3.759-3.221v-15.883c0-1.777,1.683-3.219,3.759-3.219h31.827c2.076,0,3.759,1.441,3.759,3.219
		V163.13z"/>
	<path fill="none" stroke="#636281" stroke-width="2" stroke-miterlimit="10" d="M121.916,35.78c0,0.334-1.124,0.605-2.512,0.605
		H80.596c-1.387,0-2.512-0.271-2.512-0.605v-5.789c0-0.334,1.125-0.605,2.512-0.605h38.809c1.388,0,2.512,0.271,2.512,0.605V35.78z"
		/>
	<path fill="none" stroke="#636281" stroke-width="2" stroke-miterlimit="10" d="M116.583,46.613c0,0.334-0.77,0.605-1.719,0.605
		H88.303c-0.949,0-1.719-0.271-1.719-0.605v-5.789c0-0.334,0.771-0.605,1.719-0.605h26.561c0.949,0,1.719,0.271,1.719,0.605V46.613z
		"/>
	<path fill="#636281" d="M103.354,96.223c0,0.167-0.617,0.303-1.377,0.303H80.69c-0.76,0-1.378-0.136-1.378-0.303v-2.895
		c0-0.167,0.618-0.303,1.378-0.303h21.287c0.76,0,1.377,0.136,1.377,0.303V96.223z"/>
	<path fill="#636281" d="M177.939,119.831c0,0.167-1.479,0.303-3.299,0.303h-51.007c-1.82,0-3.299-0.136-3.299-0.303v-2.895
		c0-0.167,1.479-0.303,3.299-0.303h51.007c1.82,0,3.299,0.136,3.299,0.303V119.831z"/>
	<path fill="#636281" d="M177.939,126.226c0,0.167-1.479,0.303-3.299,0.303h-51.007c-1.82,0-3.299-0.136-3.299-0.303v-2.895
		c0-0.167,1.479-0.303,3.299-0.303h51.007c1.82,0,3.299,0.136,3.299,0.303V126.226z"/>
	<path fill="#636281" d="M177.939,132.976c0,0.167-1.479,0.303-3.299,0.303h-51.007c-1.82,0-3.299-0.136-3.299-0.303v-2.895
		c0-0.167,1.479-0.303,3.299-0.303h51.007c1.82,0,3.299,0.136,3.299,0.303V132.976z"/>
	<path fill="#636281" d="M177.939,139.137c0,0.167-1.479,0.303-3.299,0.303h-51.007c-1.82,0-3.299-0.136-3.299-0.303v-2.895
		c0-0.167,1.479-0.303,3.299-0.303h51.007c1.82,0,3.299,0.136,3.299,0.303V139.137z"/>
	<path fill="#636281" d="M132.719,147.226c0,0.167-1.395,0.303-3.11,0.303H81.515c-1.716,0-3.11-0.136-3.11-0.303v-2.895
		c0-0.167,1.394-0.303,3.11-0.303h48.094c1.716,0,3.11,0.136,3.11,0.303V147.226z"/>
	<path fill="#636281" d="M132.719,153.62c0,0.167-1.395,0.303-3.11,0.303H81.515c-1.716,0-3.11-0.136-3.11-0.303v-2.895
		c0-0.167,1.394-0.303,3.11-0.303h48.094c1.716,0,3.11,0.136,3.11,0.303V153.62z"/>
	<path fill="#636281" d="M132.719,160.37c0,0.167-1.395,0.303-3.11,0.303H81.515c-1.716,0-3.11-0.136-3.11-0.303v-2.895
		c0-0.167,1.394-0.303,3.11-0.303h48.094c1.716,0,3.11,0.136,3.11,0.303V160.37z"/>
	<path fill="#636281" d="M132.719,166.531c0,0.167-1.395,0.303-3.11,0.303H81.515c-1.716,0-3.11-0.136-3.11-0.303v-2.895
		c0-0.167,1.394-0.303,3.11-0.303h48.094c1.716,0,3.11,0.136,3.11,0.303V166.531z"/>
	<path fill="#636281" d="M141.187,96.223c0,0.167-0.617,0.303-1.377,0.303h-21.286c-0.761,0-1.379-0.136-1.379-0.303v-2.895
		c0-0.167,0.618-0.303,1.379-0.303h21.286c0.76,0,1.377,0.136,1.377,0.303V96.223z"/>
	<path fill="#636281" d="M177.939,96.223c0,0.167-0.617,0.303-1.377,0.303h-21.286c-0.761,0-1.379-0.136-1.379-0.303v-2.895
		c0-0.167,0.618-0.303,1.379-0.303h21.286c0.76,0,1.377,0.136,1.377,0.303V96.223z"/>
	<path fill="none" stroke="#636281" stroke-miterlimit="10" d="M184.25,16.84c0,0.231-0.402,0.418-0.897,0.418h-13.87
		c-0.496,0-0.898-0.187-0.898-0.418v-3.998c0-0.231,0.402-0.418,0.898-0.418h13.87c0.495,0,0.897,0.187,0.897,0.418V16.84z"/>
	<circle fill="#636281" cx="91.333" cy="82.705" r="8.667"/>
	<circle fill="#636281" cx="129" cy="82.705" r="8.667"/>
	<circle fill="#636281" cx="165.918" cy="82.705" r="8.667"/>
	
		<rect x="180.55" y="173.378" transform="matrix(-0.7071 -0.7071 0.7071 -0.7071 181.0642 442.7424)" fill="#636281" width="3.353" height="20.988"/>
	
		<rect x="172.665" y="172.446" transform="matrix(-0.7071 -0.7071 0.7071 -0.7071 168.3659 435.3254)" fill="#636281" width="3.353" height="20.694"/>
	
		<rect x="164.429" y="172.03" transform="matrix(-0.7071 -0.7071 0.7071 -0.7071 154.6117 428.7649)" fill="#636281" width="3.353" height="20.663"/>
	
		<rect x="155.575" y="172.248" transform="matrix(-0.7071 -0.7071 0.7071 -0.7071 139.3637 422.8259)" fill="#636281" width="3.353" height="20.603"/>
	
		<rect x="145.829" y="171.63" transform="matrix(-0.7073 -0.707 0.707 -0.7073 122.7708 415.9499)" fill="#636281" width="3.354" height="21.851"/>
	
		<rect x="136.935" y="172.275" transform="matrix(-0.7071 -0.7071 0.7071 -0.7071 107.5875 409.5378)" fill="#636281" width="3.353" height="20.425"/>
	
		<rect x="128.247" y="172.902" transform="matrix(-0.7071 -0.7071 0.7071 -0.7071 92.7417 403.4295)" fill="#636281" width="3.355" height="19.21"/>
	
		<rect x="119.706" y="172.66" transform="matrix(-0.7071 -0.7071 0.7071 -0.7071 78.2493 397.1776)" fill="#636281" width="3.353" height="19.445"/>
	
		<rect x="111.297" y="172.884" transform="matrix(-0.7071 -0.7071 0.7071 -0.7071 63.6514 391.8145)" fill="#636281" width="3.353" height="19.681"/>
	
		<rect x="102.324" y="172.693" transform="matrix(-0.7071 -0.7071 0.7071 -0.7071 48.3271 385.4855)" fill="#636281" width="3.353" height="20.082"/>
	
		<rect x="93.675" y="172.465" transform="matrix(-0.7071 -0.7071 0.7071 -0.7071 33.576 379.3383)" fill="#636281" width="3.353" height="20.501"/>
	
		<rect x="84.978" y="172.959" transform="matrix(-0.7071 -0.7071 0.7071 -0.7071 18.7072 373.2419)" fill="#636281" width="3.353" height="19.574"/>
	
		<rect x="76.727" y="172.634" transform="matrix(-0.7071 -0.7071 0.7071 -0.7071 4.8354 366.8945)" fill="#636281" width="3.353" height="19.623"/>
	
		<rect x="71.353" y="173.642" transform="matrix(-0.7071 -0.7071 0.7071 -0.7071 -2.7191 359.1823)" fill="#636281" width="3.353" height="13.024"/>
</g>
<g id="Layer_4">
	<path fill="#272730" d="M15.154,44.98c0.721,2.522,3.687,3.887,6.625,3.047l0,0c2.938-0.839,4.736-3.565,4.016-6.087l-0.893-3.125
		c-0.72-2.522-3.687-3.887-6.625-3.048l0,0c-2.938,0.839-4.736,3.565-4.016,6.087L15.154,44.98z"/>
	<path fill="#434359" d="M43.983,152.938L14.741,50.572c-1.052-3.68-2.629-6.459,1.221-7.559l7.692-2.197
		c3.85-1.1,3.978,2.093,5.029,5.773l29.242,102.365L43.983,152.938z"/>
	<path fill="#434359" d="M26.119,37.613c0.165,0.576-2.823,1.936-6.673,3.035l0,0c-3.85,1.1-7.105,1.524-7.27,0.947L7.596,25.56
		c-0.165-0.577,2.823-1.936,6.673-3.036l0,0c3.85-1.1,7.104-1.524,7.269-0.947L26.119,37.613z"/>
	<path fill="#B5B5B6" d="M15.095,52.017c0.759,2.655,1.374,4.809,1.374,4.809l10.573-3.021c3.084-0.881,2.084-2.924,1.325-5.58l0,0
		c-0.758-2.654-0.988-4.917-4.072-4.037l-10.55,3.102C13.745,47.291,14.336,49.362,15.095,52.017L15.095,52.017z"/>
	<path fill="#85D2DD" d="M48.137,114.688l-13.954,3.985c0,0-0.615-2.152-1.374-4.809l0,0c-0.758-2.654-1.35-4.726-1.35-4.726
		l13.93-4.068L48.137,114.688z"/>
	<g>
		<path fill="#B5B5B6" d="M19.215,83.237L8.678,46.351l0.961-0.275c1.737-0.496,3.615,0.96,4.105,1.215l0.457,1.598
			c-0.597-0.309-3.302-2.045-3.039-1.125l7.783,27.246c0.392-0.192,0.967-0.362,1.605-0.17c0.816,0.247,1.401,0.975,1.741,2.163
			c0.885,3.097-1.792,5.231-1.907,5.321L19.215,83.237z M19.344,76.407l0.854,2.99c0.238-0.514,0.37-1.146,0.17-1.845
			c-0.164-0.574-0.349-0.774-0.401-0.8c-0.054,0.002-0.457,0.123-0.483,0.144L19.344,76.407z"/>
	</g>
	
		<rect x="7.953" y="25.458" transform="matrix(0.9615 -0.2746 0.2746 0.9615 -6.4993 5.1673)" fill="#353544" width="14.5" height="0.669"/>
	
		<rect x="8.61" y="27.761" transform="matrix(0.9615 -0.2747 0.2747 0.9615 -7.1074 5.4372)" fill="#353544" width="14.5" height="0.669"/>
	
		<rect x="9.268" y="30.065" transform="matrix(0.9615 -0.2747 0.2747 0.9615 -7.7148 5.7066)" fill="#353544" width="14.5" height="0.669"/>
	
		<rect x="9.927" y="32.369" transform="matrix(0.9615 -0.2746 0.2746 0.9615 -8.3216 5.9752)" fill="#353544" width="14.5" height="0.669"/>
	
		<rect x="10.585" y="34.672" transform="matrix(0.9615 -0.2747 0.2747 0.9615 -8.9301 6.2456)" fill="#353544" width="14.5" height="0.669"/>
	
		<rect x="11.243" y="36.976" transform="matrix(0.9615 -0.2747 0.2747 0.9615 -9.5372 6.5147)" fill="#353544" width="14.5" height="0.669"/>
	<path fill="#C6C6C5" d="M58.361,150.181c0.012,0.042-0.341,0.179-0.788,0.307l-12.426,3.547c-0.447,0.127-0.819,0.196-0.831,0.154
		l-0.33-1.157c-0.012-0.042,0.34-0.18,0.788-0.307l12.426-3.547c0.447-0.127,0.819-0.196,0.831-0.154L58.361,150.181z"/>
	<path fill="#C6C6C5" d="M59.317,152.557c0.012,0.042-0.341,0.179-0.788,0.307l-12.426,3.547c-0.447,0.127-0.819,0.196-0.831,0.154
		l-0.33-1.157c-0.012-0.042,0.34-0.18,0.788-0.307l12.426-3.547c0.447-0.127,0.819-0.196,0.831-0.154L59.317,152.557z"/>
	<path fill="#D4D0CF" d="M58.987,153.992c0.012,0.042-1.094,2.852-1.498,2.968l-7.911,2.258c-0.404,0.114-3.279-1.56-3.291-1.602
		l-0.33-1.157c-0.012-0.042,0.306-0.17,0.71-0.284l11.236-3.207c0.404-0.115,0.741-0.175,0.753-0.133L58.987,153.992z"/>
	<path fill="#D4D0CF" d="M58.146,151.57c0.012,0.042-0.306,0.168-0.708,0.284l-11.197,3.196c-0.403,0.114-0.739,0.173-0.751,0.131
		l-0.33-1.157c-0.012-0.042,0.304-0.169,0.708-0.283l11.197-3.196c0.402-0.115,0.739-0.174,0.75-0.132L58.146,151.57z"/>
	<path fill="#C6C6C5" d="M58.465,159.895c0.029,0.101-0.154,0.24-0.407,0.316l-7.056,2.018c-0.255,0.067-0.484,0.04-0.514-0.061
		l-0.809-2.836c-0.029-0.102,0.153-0.241,0.407-0.312l7.055-2.019c0.254-0.072,0.484-0.044,0.513,0.056L58.465,159.895z"/>
	<path fill="#D4D0CF" d="M58.696,160.672c0.006,0.021-0.195,0.096-0.449,0.169l-7.057,2.015c-0.254,0.071-0.464,0.112-0.47,0.092
		l-0.165-0.579c-0.006-0.021,0.194-0.096,0.448-0.168l7.056-2.015c0.254-0.072,0.464-0.113,0.47-0.093L58.696,160.672z"/>
	<path fill="#D4D0CF" d="M57.879,168.943c0.011,0.038-0.008,0.076-0.041,0.088l-0.945,0.27c-0.034,0.01-0.071-0.017-0.082-0.055
		l-0.304-1.067c-0.012-0.037,0.007-0.074,0.041-0.086l0.944-0.271c0.034-0.008,0.071,0.017,0.081,0.053L57.879,168.943z"/>
	<path fill="#646282" d="M57.961,170.229c0.011,0.038,0.007,0.072-0.006,0.078l-0.404,0.115c-0.015,0.004-0.036-0.026-0.047-0.064
		L57.2,169.29c-0.011-0.037-0.007-0.07,0.007-0.076l0.403-0.117c0.014-0.002,0.036,0.026,0.046,0.062L57.961,170.229z"/>
	<path fill="#C6C6C5" d="M58.915,161.297c0.006,0.021-0.195,0.096-0.449,0.169l-7.057,2.015c-0.254,0.071-0.464,0.112-0.47,0.092
		l-0.165-0.579c-0.006-0.021,0.194-0.096,0.448-0.168l7.056-2.015c0.254-0.072,0.464-0.113,0.47-0.093L58.915,161.297z"/>
	<path fill="#D4D0CF" d="M57.929,167.316c0.05,0.177-0.115,0.376-0.367,0.456l-1.333,0.354c-0.256,0.063-0.504-0.028-0.555-0.206
		l-4.602-4.037c-0.051-0.178,0.114-0.378,0.368-0.449l7.054-2.022c0.254-0.07,0.503,0.022,0.554,0.198L57.929,167.316z"/>
</g>
</svg>
