<?xml version="1.0" encoding="utf-8"?>
<!-- Generator: Adobe Illustrator 16.0.4, SVG Export Plug-In . SVG Version: 6.00 Build 0)  -->
<!DOCTYPE svg PUBLIC "-//W3C//DTD SVG 1.1//EN" "http://www.w3.org/Graphics/SVG/1.1/DTD/svg11.dtd">
<svg version="1.1" xmlns="http://www.w3.org/2000/svg" xmlns:xlink="http://www.w3.org/1999/xlink" x="0px" y="0px" width="200px"
	 height="200px" viewBox="0 0 200 200" enable-background="new 0 0 200 200" xml:space="preserve">
<g id="Layer_1">
	<rect x="204.483" y="17.806" fill="#B7E0D6" width="27.398" height="27.398"/>
	<rect x="204.483" y="72.602" fill="#636281" width="27.398" height="27.398"/>
	<rect x="204.483" y="127.398" fill="#C6C6C5" width="27.398" height="27.397"/>
	<rect x="204.483" y="100" fill="#DE6162" width="27.398" height="27.398"/>
	<rect x="204.483" y="45.204" fill="#85D2DD" width="27.398" height="27.398"/>
	<rect x="204.483" y="154.796" fill="#FFF9E8" width="27.398" height="27.398"/>
</g>
<g id="wire">
	<path fill="none" stroke="#636281" stroke-width="3" stroke-miterlimit="10" d="M109.999,126.174c0,0.676-0.447,1.225-1,1.225H11
		c-0.552,0-1-0.549-1-1.225V6.224C10,5.547,10.447,5,11,5h98c0.553,0,1,0.548,1,1.224V126.174z"/>
	<rect x="10" y="40.414" fill="#636281" width="100" height="2.505"/>
	<rect x="8.937" y="70.9" fill="#636281" width="100" height="2.505"/>
	<rect x="11.062" y="117.753" fill="#636281" width="99.999" height="2.505"/>
	<path fill="none" stroke="#636281" stroke-miterlimit="10" d="M66.75,24.5c0,0.552-0.376,1-0.841,1H19.591
		c-0.464,0-0.841-0.448-0.841-1V17c0-0.552,0.376-1,0.841-1h46.318c0.464,0,0.841,0.448,0.841,1V24.5z"/>
	<path fill="none" stroke="#636281" stroke-miterlimit="10" d="M58.937,33.38c0,0.276-0.274,0.5-0.613,0.5H24.55
		c-0.339,0-0.613-0.224-0.613-0.5v-3.75c0-0.276,0.274-0.5,0.613-0.5h33.773c0.339,0,0.613,0.224,0.613,0.5V33.38z"/>
	<path fill="none" stroke="#636281" stroke-miterlimit="10" d="M84.25,92.417c0,0.276-0.274,0.5-0.613,0.5H49.863
		c-0.339,0-0.613-0.224-0.613-0.5v-3.75c0-0.276,0.274-0.5,0.613-0.5h33.773c0.339,0,0.613,0.224,0.613,0.5V92.417z"/>
	<path fill="none" stroke="#636281" stroke-miterlimit="10" d="M84.25,99.727c0,0.276-0.274,0.5-0.613,0.5H49.863
		c-0.339,0-0.613-0.224-0.613-0.5v-3.75c0-0.276,0.274-0.5,0.613-0.5h33.773c0.339,0,0.613,0.224,0.613,0.5V99.727z"/>
	<path fill="none" stroke="#636281" stroke-miterlimit="10" d="M84.25,107.125c0,0.276-0.274,0.5-0.613,0.5H49.863
		c-0.339,0-0.613-0.224-0.613-0.5v-3.75c0-0.276,0.274-0.5,0.613-0.5h33.773c0.339,0,0.613,0.224,0.613,0.5V107.125z"/>
	<circle fill="none" stroke="#636281" stroke-miterlimit="10" cx="88.325" cy="25.5" r="13.124"/>
	<circle fill="none" stroke="#636281" stroke-miterlimit="10" cx="31.874" cy="96.789" r="13.124"/>
	<path fill="none" stroke="#636281" stroke-miterlimit="10" d="M45.937,62.715c0,0.552-0.448,1-1,1h-20c-0.552,0-1-0.448-1-1V47.979
		c0-0.552,0.448-1,1-1h20c0.552,0,1,0.448,1,1V62.715z"/>
	<path fill="none" stroke="#636281" stroke-miterlimit="10" d="M48,67.966c0,0.552-0.448,1-1,1H22.5c-0.552,0-1-0.448-1-1v-0.767
		c0-0.552,0.448-1,1-1H47c0.552,0,1,0.448,1,1V67.966z"/>
	
		<rect x="34.312" y="42.005" transform="matrix(0.5984 -0.8012 0.8012 0.5984 -30.113 50.1156)" fill="#636281" width="1.25" height="26.184"/>
	
		<rect x="34.45" y="42.255" transform="matrix(-0.5984 -0.8012 0.8012 -0.5984 11.7232 116.5697)" fill="#636281" width="1.25" height="26.184"/>
</g>
<g id="atom">
	<path fill="#313440" d="M171.001,152.68c0,0.676-0.521,1.223-1.167,1.223H55.5c-0.644,0-1.167-0.547-1.167-1.223V32.729
		c0-0.676,0.522-1.224,1.167-1.224h114.334c0.646,0,1.167,0.548,1.167,1.224V152.68z"/>
	<path fill="#1A1A1C" d="M84.834,152.68c0,0.676-0.136,1.223-0.305,1.223H54.638c-0.168,0-0.305-0.547-0.305-1.223V32.729
		c0-0.676,0.137-1.224,0.305-1.224h29.892c0.169,0,0.305,0.548,0.305,1.224V152.68z"/>
	<path fill="#454545" d="M81.5,40.315c0,0.746-0.448,1.351-1,1.351H59c-0.552,0-1-0.605-1-1.351v-3.714c0-0.746,0.448-1.351,1-1.351
		h21.5c0.552,0,1,0.605,1,1.351V40.315z"/>
	<path fill="#454545" d="M80.5,89.19c0,0.746-0.448,1.351-1,1.351H58c-0.552,0-1-0.605-1-1.351v-3.714c0-0.746,0.448-1.351,1-1.351
		h21.5c0.552,0,1,0.605,1,1.351V89.19z"/>
	<path fill="#565655" d="M80.5,49.271c0,0.494-0.321,0.895-0.716,0.895H64.382c-0.396,0-0.716-0.401-0.716-0.895v-2.459
		c0-0.494,0.321-0.895,0.716-0.895h15.402c0.396,0,0.716,0.401,0.716,0.895V49.271z"/>
	<path fill="#565655" d="M80.5,57.008c0,0.494-0.321,0.895-0.716,0.895H64.382c-0.396,0-0.716-0.401-0.716-0.895v-2.459
		c0-0.494,0.321-0.895,0.716-0.895h15.402c0.396,0,0.716,0.401,0.716,0.895V57.008z"/>
	<path fill="#565655" d="M80.5,63.883c0,0.494-0.321,0.895-0.716,0.895H64.382c-0.396,0-0.716-0.401-0.716-0.895v-2.459
		c0-0.494,0.321-0.895,0.716-0.895h15.402c0.396,0,0.716,0.401,0.716,0.895V63.883z"/>
	<path fill="#565655" d="M80.5,71.258c0,0.494-0.321,0.895-0.716,0.895H64.382c-0.396,0-0.716-0.401-0.716-0.895v-2.459
		c0-0.494,0.321-0.895,0.716-0.895h15.402c0.396,0,0.716,0.401,0.716,0.895V71.258z"/>
	<path fill="#565655" d="M80.5,78.832c0,0.494-0.321,0.895-0.716,0.895H64.382c-0.396,0-0.716-0.401-0.716-0.895v-2.459
		c0-0.494,0.321-0.895,0.716-0.895h15.402c0.396,0,0.716,0.401,0.716,0.895V78.832z"/>
	<path fill="#565655" d="M80.5,96.957c0,0.494-0.321,0.895-0.716,0.895H64.382c-0.396,0-0.716-0.401-0.716-0.895v-2.459
		c0-0.494,0.321-0.895,0.716-0.895h15.402c0.396,0,0.716,0.401,0.716,0.895V96.957z"/>
	<path fill="#565655" d="M80.5,104.355c0,0.494-0.321,0.895-0.716,0.895H64.382c-0.396,0-0.716-0.4-0.716-0.895v-2.46
		c0-0.494,0.321-0.896,0.716-0.896h15.402c0.396,0,0.716,0.401,0.716,0.896V104.355z"/>
	<path fill="#565655" d="M80.5,111.605c0,0.494-0.321,0.895-0.716,0.895H64.382c-0.396,0-0.716-0.4-0.716-0.895v-2.46
		c0-0.494,0.321-0.896,0.716-0.896h15.402c0.396,0,0.716,0.401,0.716,0.896V111.605z"/>
	<circle fill="#565655" cx="60" cy="48.041" r="1.062"/>
	<circle fill="#565655" cx="60" cy="55.778" r="1.062"/>
	<circle fill="#565655" cx="60" cy="62.653" r="1.062"/>
	<circle fill="#565655" cx="60" cy="70.028" r="1.062"/>
	<circle fill="#565655" cx="59.999" cy="77.602" r="1.062"/>
	<circle fill="#565655" cx="60" cy="95.727" r="1.062"/>
	<circle fill="#565655" cx="59.999" cy="103.125" r="1.062"/>
	<circle fill="#565655" cx="59.999" cy="110.375" r="1.062"/>
	<path fill="#1A1A1C" d="M171.001,37.458c0,0.553-0.447,1-1,1H119.25c-0.553,0-1-0.447-1-1v-4.953c0-0.552,0.447-1,1-1h50.751
		c0.553,0,1,0.448,1,1V37.458z"/>
	<path fill="#89B6E2" d="M113.583,44.317c0,0.49-0.397,0.887-0.887,0.887H93.22c-0.49,0-0.887-0.397-0.887-0.887l0,0
		c0-0.49,0.397-0.887,0.887-0.887h19.476C113.186,43.43,113.583,43.827,113.583,44.317L113.583,44.317z"/>
	<path fill="#89B6E2" d="M119.207,71.091c0,0.49-0.397,0.887-0.887,0.887H98.844c-0.49,0-0.887-0.397-0.887-0.887l0,0
		c0-0.49,0.397-0.887,0.887-0.887h19.476C118.81,70.204,119.207,70.601,119.207,71.091L119.207,71.091z"/>
	<path fill="#A7D380" d="M113.583,53.653c0,0.49-0.397,0.887-0.887,0.887H93.22c-0.49,0-0.887-0.397-0.887-0.887l0,0
		c0-0.49,0.397-0.887,0.887-0.887h19.476C113.186,52.766,113.583,53.164,113.583,53.653L113.583,53.653z"/>
	<path fill="#A7D380" d="M113.583,67.086c0,0.49-0.397,0.887-0.887,0.887H93.22c-0.49,0-0.887-0.397-0.887-0.887l0,0
		c0-0.49,0.397-0.887,0.887-0.887h19.476C113.186,66.199,113.583,66.596,113.583,67.086L113.583,67.086z"/>
	<path fill="#636281" d="M101.833,49.104c0,0.49-0.178,0.887-0.396,0.887h-8.707c-0.219,0-0.396-0.397-0.396-0.887l0,0
		c0-0.49,0.178-0.887,0.396-0.887h8.707C101.655,48.216,101.833,48.614,101.833,49.104L101.833,49.104z"/>
	<path fill="#636281" d="M106.584,57.903c0,0.49-0.178,0.887-0.396,0.887H97.48c-0.219,0-0.396-0.397-0.396-0.887l0,0
		c0-0.49,0.178-0.887,0.396-0.887h8.708C106.406,57.016,106.584,57.413,106.584,57.903L106.584,57.903z"/>
	<path fill="#636281" d="M117.417,75.477c0,0.49-0.178,0.887-0.396,0.887h-8.708c-0.219,0-0.396-0.397-0.396-0.887l0,0
		c0-0.49,0.178-0.887,0.396-0.887h8.708C117.239,74.59,117.417,74.987,117.417,75.477L117.417,75.477z"/>
	<path fill="#DE6162" d="M127.833,49.104c0,0.49-0.423,0.887-0.942,0.887h-20.699c-0.52,0-0.942-0.397-0.942-0.887l0,0
		c0-0.49,0.423-0.887,0.942-0.887h20.699C127.41,48.216,127.833,48.614,127.833,49.104L127.833,49.104z"/>
	<path fill="#DE6162" d="M131.166,57.903c0,0.49-0.423,0.887-0.942,0.887h-20.699c-0.52,0-0.942-0.397-0.942-0.887l0,0
		c0-0.49,0.423-0.887,0.942-0.887h20.699C130.743,57.016,131.166,57.413,131.166,57.903L131.166,57.903z"/>
	<path fill="#636281" d="M106.584,62.653c0,0.49-0.178,0.887-0.396,0.887H97.48c-0.219,0-0.396-0.397-0.396-0.887l0,0
		c0-0.49,0.178-0.887,0.396-0.887h8.708C106.406,61.766,106.584,62.163,106.584,62.653L106.584,62.653z"/>
	<path fill="#636281" d="M143.418,62.653c0,0.49-0.178,0.887-0.396,0.887h-8.707c-0.219,0-0.396-0.397-0.396-0.887l0,0
		c0-0.49,0.178-0.887,0.396-0.887h8.707C143.24,61.766,143.418,62.163,143.418,62.653L143.418,62.653z"/>
	<path fill="#DE6162" d="M131.166,62.653c0,0.49-0.423,0.887-0.942,0.887h-20.699c-0.52,0-0.942-0.397-0.942-0.887l0,0
		c0-0.49,0.423-0.887,0.942-0.887h20.699C130.743,61.766,131.166,62.163,131.166,62.653L131.166,62.653z"/>
	<path fill="#DE6162" d="M141.791,75.477c0,0.49-0.423,0.887-0.942,0.887h-20.699c-0.52,0-0.942-0.397-0.942-0.887l0,0
		c0-0.49,0.423-0.887,0.942-0.887h20.699C141.368,74.59,141.791,74.987,141.791,75.477L141.791,75.477z"/>
	<circle fill="#A7D380" cx="88.325" cy="35.25" r="0.8"/>
	<circle fill="#454545" cx="122.125" cy="35.25" r="0.8"/>
</g>
<g id="web_page">
	<path fill="#FFF9E8" d="M192.333,198.776c0,0.676-0.447,1.224-1,1.224h-98c-0.552,0-1-0.548-1-1.224V78.826
		c0-0.676,0.448-1.224,1-1.224h98c0.553,0,1,0.548,1,1.224V198.776z"/>
	<path fill="#85D2DD" d="M92.333,116.5V78.826c0-0.676,0.448-1.224,1-1.224h98c0.553,0,1,0.548,1,1.224V116.5"/>
	<rect x="92.333" y="145.001" fill="#85D2DD" width="100" height="39.666"/>
	<circle fill="#636281" cx="171.001" cy="98.853" r="13.167"/>
	<circle fill="#DE6162" cx="115.334" cy="166.168" r="13.167"/>
	<path fill="#636281" d="M147.667,99.523c0,0.552-0.447,1-1,1h-42.709c-0.553,0-1-0.448-1-1v-7.718c0-0.552,0.447-1,1-1h42.709
		c0.553,0,1,0.448,1,1V99.523z"/>
	<path fill="#DE6162" d="M139.866,107.141c0,0.275-0.285,0.5-0.637,0.5h-27.167c-0.352,0-0.636-0.225-0.636-0.5v-3.859
		c0-0.275,0.284-0.5,0.636-0.5h27.167c0.352,0,0.637,0.225,0.637,0.5V107.141z"/>
	<path fill="#DE6162" d="M120.171,132.731c0,0.553-0.447,1-1,1h-13.009c-0.552,0-1-0.447-1-1v-10.667c0-0.553,0.448-1,1-1h13.009
		c0.553,0,1,0.447,1,1V132.731z"/>
	<path fill="#DE6162" d="M152.13,132.731c0,0.553-0.447,1-1,1h-13.009c-0.552,0-1-0.447-1-1v-10.667c0-0.553,0.448-1,1-1h13.009
		c0.553,0,1,0.447,1,1V132.731z"/>
	<path fill="#DE6162" d="M182.504,132.731c0,0.553-0.447,1-1,1h-13.009c-0.552,0-1-0.447-1-1v-10.667c0-0.553,0.448-1,1-1h13.009
		c0.553,0,1,0.447,1,1V132.731z"/>
	<path fill="#636281" d="M124.158,135.833c0,0.534-0.291,0.968-0.65,0.968h-21.683c-0.359,0-0.65-0.434-0.65-0.968l0,0
		c0-0.535,0.291-0.968,0.65-0.968h21.683C123.867,134.865,124.158,135.298,124.158,135.833L124.158,135.833z"/>
	<path fill="#636281" d="M124.158,138.769c0,0.534-0.291,0.968-0.65,0.968h-21.683c-0.359,0-0.65-0.434-0.65-0.968l0,0
		c0-0.535,0.291-0.968,0.65-0.968h21.683C123.867,137.801,124.158,138.233,124.158,138.769L124.158,138.769z"/>
	<path fill="#636281" d="M156.117,135.833c0,0.534-0.291,0.968-0.65,0.968h-21.683c-0.359,0-0.65-0.434-0.65-0.968l0,0
		c0-0.535,0.291-0.968,0.65-0.968h21.683C155.826,134.865,156.117,135.298,156.117,135.833L156.117,135.833z"/>
	<path fill="#636281" d="M156.117,138.769c0,0.534-0.291,0.968-0.65,0.968h-21.683c-0.359,0-0.65-0.434-0.65-0.968l0,0
		c0-0.535,0.291-0.968,0.65-0.968h21.683C155.826,137.801,156.117,138.233,156.117,138.769L156.117,138.769z"/>
	<path fill="#636281" d="M186.491,135.833c0,0.534-0.291,0.968-0.65,0.968h-21.683c-0.359,0-0.65-0.434-0.65-0.968l0,0
		c0-0.535,0.291-0.968,0.65-0.968h21.683C186.2,134.865,186.491,135.298,186.491,135.833L186.491,135.833z"/>
	<path fill="#636281" d="M186.491,138.769c0,0.534-0.291,0.968-0.65,0.968h-21.683c-0.359,0-0.65-0.434-0.65-0.968l0,0
		c0-0.535,0.291-0.968,0.65-0.968h21.683C186.2,137.801,186.491,138.233,186.491,138.769L186.491,138.769z"/>
	<path fill="#636281" d="M92.333,82.25v-3.424c0-0.676,0.448-1.224,1-1.224h98c0.553,0,1,0.548,1,1.224v3.424"/>
	<path fill="#636281" d="M92.333,184.667l0,13.366c0,0.676,0.448,1.225,1,1.225h97.999c0.553,0,1-0.549,1-1.225l-0.001-13.366"/>
	<path fill="#FFF9E8" d="M184.168,159.13c0,0.553-0.447,1-1,1h-45.047c-0.553,0-1-0.447-1-1v-3.334c0-0.553,0.447-1,1-1h45.047
		c0.553,0,1,0.447,1,1V159.13z"/>
	<path fill="#FFF9E8" d="M184.168,164.334c0,0.276-0.447,0.5-1,0.5h-45.047c-0.553,0-1-0.224-1-0.5v-1.667c0-0.276,0.447-0.5,1-0.5
		h45.047c0.553,0,1,0.224,1,0.5V164.334z"/>
	<path fill="#FFF9E8" d="M184.168,168.334c0,0.276-0.447,0.5-1,0.5h-45.047c-0.553,0-1-0.224-1-0.5v-1.667c0-0.276,0.447-0.5,1-0.5
		h45.047c0.553,0,1,0.224,1,0.5V168.334z"/>
	<path fill="#FFF9E8" d="M184.168,172.272c0,0.276-0.447,0.5-1,0.5h-45.047c-0.553,0-1-0.224-1-0.5v-1.667c0-0.276,0.447-0.5,1-0.5
		h45.047c0.553,0,1,0.224,1,0.5V172.272z"/>
	<path fill="#FFF9E8" d="M184.168,176.188c0,0.276-0.447,0.5-1,0.5h-45.047c-0.553,0-1-0.224-1-0.5v-1.667c0-0.276,0.447-0.5,1-0.5
		h45.047c0.553,0,1,0.224,1,0.5V176.188z"/>
	<path fill="#FFF9E8" d="M158.611,188.295c0,0.414-0.336,0.75-0.75,0.75h-18.81c-0.414,0-0.75-0.336-0.75-0.75l0,0
		c0-0.414,0.336-0.75,0.75-0.75h18.81C158.275,187.545,158.611,187.881,158.611,188.295L158.611,188.295z"/>
	<path fill="#FFF9E8" d="M158.611,192.091c0,0.414-0.336,0.75-0.75,0.75h-18.81c-0.414,0-0.75-0.336-0.75-0.75l0,0
		c0-0.414,0.336-0.75,0.75-0.75h18.81C158.275,191.341,158.611,191.677,158.611,192.091L158.611,192.091z"/>
	<path fill="#FFF9E8" d="M158.611,195.716c0,0.414-0.336,0.75-0.75,0.75h-18.81c-0.414,0-0.75-0.336-0.75-0.75l0,0
		c0-0.414,0.336-0.75,0.75-0.75h18.81C158.275,194.966,158.611,195.302,158.611,195.716L158.611,195.716z"/>
	<path fill="#FFF9E8" d="M131.736,188.38c0,0.414-0.336,0.75-0.75,0.75h-18.81c-0.414,0-0.75-0.336-0.75-0.75l0,0
		c0-0.414,0.336-0.75,0.75-0.75h18.81C131.4,187.63,131.736,187.966,131.736,188.38L131.736,188.38z"/>
	<path fill="#FFF9E8" d="M131.736,192.176c0,0.414-0.336,0.75-0.75,0.75h-18.81c-0.414,0-0.75-0.336-0.75-0.75l0,0
		c0-0.414,0.336-0.75,0.75-0.75h18.81C131.4,191.426,131.736,191.762,131.736,192.176L131.736,192.176z"/>
	<path fill="#FFF9E8" d="M131.736,195.801c0,0.414-0.336,0.75-0.75,0.75h-18.81c-0.414,0-0.75-0.336-0.75-0.75l0,0
		c0-0.414,0.336-0.75,0.75-0.75h18.81C131.4,195.051,131.736,195.387,131.736,195.801L131.736,195.801z"/>
	<circle fill="#FFF9E8" cx="167.495" cy="192.176" r="3.668"/>
	<circle fill="#FFF9E8" cx="95.612" cy="79.727" r="1.323"/>
	<circle fill="#FFF9E8" cx="180.5" cy="192.176" r="3.668"/>
</g>
<g id="Layer_6">
	<g id="iphone">
		<path fill="#EFEAE8" d="M78.993,190.034c0,4.328-3.508,7.835-7.834,7.835h-37.54c-4.327,0-7.834-3.507-7.834-7.835v-78.995
			c0-4.328,3.508-7.835,7.834-7.835h37.54c4.326,0,7.834,3.507,7.834,7.835V190.034z"/>
		<rect x="30.028" y="115.185" fill="#272731" width="44.721" height="71.729"/>
		<circle fill="#272731" cx="52.389" cy="107.013" r="0.626"/>
		<circle fill="#272731" cx="60.189" cy="109.351" r="1.038"/>
		<circle fill="#44445A" cx="60.188" cy="109.352" r="0.437"/>
		<path fill="#272731" d="M56.387,109.352c0,0.21-0.17,0.382-0.38,0.382h-7.236c-0.21,0-0.381-0.172-0.381-0.382l0,0
			c0-0.209,0.17-0.381,0.381-0.381h7.236C56.217,108.971,56.387,109.143,56.387,109.352L56.387,109.352z"/>
	</g>
	<circle fill="#D6D2D0" stroke="#F1ED74" stroke-miterlimit="10" cx="52.389" cy="192.334" r="3.5"/>
</g>
<g id="Layer_7">
	<rect x="30.028" y="115.185" fill="#85D2DD" width="44.721" height="56.255"/>
	<path fill="#636281" d="M71.411,131.258c0,0.552-0.381,1-0.852,1H34.185c-0.471,0-0.852-0.448-0.852-1v-7.719
		c0-0.552,0.381-1,0.852-1H70.56c0.471,0,0.852,0.448,0.852,1V131.258z"/>
	<path fill="#DE6162" d="M67.235,138.73c0,0.275-0.285,0.5-0.637,0.5H39.431c-0.352,0-0.636-0.225-0.636-0.5v-3.859
		c0-0.275,0.284-0.5,0.636-0.5h27.167c0.352,0,0.637,0.225,0.637,0.5V138.73z"/>
	<circle fill="#636281" cx="53.015" cy="154.903" r="13.167"/>
	<rect x="30.028" y="171.439" fill="#FFF9E8" width="44.721" height="15.475"/>
	<path fill="#DE6162" d="M36.24,186.913v-8.073c0-1.188,0.965-2.151,2.152-2.151h27.994c1.189,0,2.152,0.963,2.152,2.151v8.074"/>
</g>
</svg>
