<?xml version="1.0" encoding="utf-8"?>
<!-- Generator: Adobe Illustrator 16.0.4, SVG Export Plug-In . SVG Version: 6.00 Build 0)  -->
<!DOCTYPE svg PUBLIC "-//W3C//DTD SVG 1.1//EN" "http://www.w3.org/Graphics/SVG/1.1/DTD/svg11.dtd">
<svg version="1.1" id="Layer_2" xmlns="http://www.w3.org/2000/svg" xmlns:xlink="http://www.w3.org/1999/xlink" x="0px" y="0px"
	 width="200px" height="200px" viewBox="0 0 200 200" enable-background="new 0 0 200 200" xml:space="preserve">
<g>
	<path fill="#231F20" d="M176.727,182.295H23.109c-8.534,0-15.477-8.439-15.477-18.812V34.662c0-10.373,6.943-18.812,15.477-18.812
		h153.618c8.533,0,15.477,8.439,15.477,18.812v128.82C192.203,173.855,185.262,182.295,176.727,182.295z M23.109,18.85
		c-6.879,0-12.477,7.093-12.477,15.812v128.82c0,8.719,5.597,15.812,12.477,15.812h153.618c6.879,0,12.477-7.094,12.477-15.812
		V34.662c0-8.719-5.598-15.812-12.477-15.812H23.109z"/>
</g>
<g>
	<path fill="#231F20" d="M19.857,31.741c-1.941,0-3.521-1.58-3.521-3.521c0-1.942,1.58-3.521,3.521-3.521
		c1.942,0,3.521,1.58,3.521,3.521C23.379,30.162,21.799,31.741,19.857,31.741z M19.857,25.699c-1.39,0-2.521,1.131-2.521,2.521
		c0,1.39,1.131,2.521,2.521,2.521s2.521-1.131,2.521-2.521C22.378,26.83,21.248,25.699,19.857,25.699z"/>
</g>
<g>
	<path fill="#231F20" d="M29.234,31.741c-1.942,0-3.521-1.58-3.521-3.521c0-1.942,1.58-3.521,3.521-3.521s3.521,1.58,3.521,3.521
		C32.755,30.162,31.176,31.741,29.234,31.741z M29.234,25.699c-1.39,0-2.521,1.131-2.521,2.521c0,1.39,1.131,2.521,2.521,2.521
		s2.521-1.131,2.521-2.521C31.755,26.83,30.625,25.699,29.234,25.699z"/>
</g>
<g>
	<path fill="#231F20" d="M38.023,31.741c-1.942,0-3.521-1.58-3.521-3.521c0-1.942,1.58-3.521,3.521-3.521s3.521,1.58,3.521,3.521
		C41.544,30.162,39.964,31.741,38.023,31.741z M38.023,25.699c-1.39,0-2.521,1.131-2.521,2.521c0,1.39,1.131,2.521,2.521,2.521
		s2.521-1.131,2.521-2.521C40.544,26.83,39.413,25.699,38.023,25.699z"/>
</g>
<g>
	<rect x="9.133" y="35.383" fill="#231F20" width="182.779" height="5.438"/>
</g>
<g>
	<rect x="9.132" y="107.922" fill="#231F20" width="182.78" height="2.719"/>
</g>
<g>
	<rect x="9.132" y="165.922" fill="#231F20" width="181.571" height="2.719"/>
</g>
<g>
	<path fill="#231F20" d="M42.752,97.29H28.836c-7.168,0-13-5.832-13-13V70.374c0-7.168,5.832-13,13-13h13.916
		c7.168,0,13,5.832,13,13V84.29C55.752,91.458,49.921,97.29,42.752,97.29z M28.836,59.374c-6.065,0-11,4.935-11,11V84.29
		c0,6.065,4.935,11,11,11h13.916c6.065,0,11-4.935,11-11V70.374c0-6.065-4.935-11-11-11H28.836z"/>
</g>
<g>
	<path fill="#231F20" d="M104.048,140.945h-8.261c-4.479,0-8.124-3.645-8.124-8.123v-8.262c0-4.479,3.644-8.123,8.124-8.123h8.261
		c4.479,0,8.124,3.644,8.124,8.123v8.262C112.172,137.302,108.527,140.945,104.048,140.945z M95.787,118.438
		c-3.376,0-6.124,2.748-6.124,6.123v8.263c0,3.376,2.747,6.122,6.124,6.122h8.261c3.377,0,6.124-2.746,6.124-6.122v-8.263
		c0-3.375-2.747-6.123-6.124-6.123H95.787z"/>
</g>
<g>
	<path fill="#231F20" d="M156.382,140.945h-8.261c-4.479,0-8.123-3.645-8.123-8.123v-8.262c0-4.479,3.645-8.123,8.123-8.123h8.261
		c4.479,0,8.124,3.644,8.124,8.123v8.262C164.506,137.302,160.861,140.945,156.382,140.945z M148.121,118.438
		c-3.376,0-6.123,2.748-6.123,6.123v8.263c0,3.376,2.747,6.122,6.123,6.122h8.261c3.377,0,6.124-2.746,6.124-6.122v-8.263
		c0-3.375-2.747-6.123-6.124-6.123H148.121z"/>
</g>
<g>
	<path fill="#231F20" d="M47.639,140.945h-8.261c-4.479,0-8.123-3.645-8.123-8.123v-8.262c0-4.479,3.644-8.123,8.123-8.123h8.261
		c4.479,0,8.124,3.644,8.124,8.123v8.262C55.763,137.302,52.119,140.945,47.639,140.945z M39.378,118.438
		c-3.376,0-6.123,2.748-6.123,6.123v8.263c0,3.376,2.747,6.122,6.123,6.122h8.261c3.377,0,6.124-2.746,6.124-6.122v-8.263
		c0-3.375-2.747-6.123-6.124-6.123H39.378z"/>
</g>
<g>
	<path fill="#231F20" d="M178.316,66.078c0,2.085-1.69,3.776-3.776,3.776H67.894c-2.085,0-3.776-1.691-3.776-3.776l0,0
		c0-2.085,1.691-3.776,3.776-3.776H174.54C176.626,62.302,178.316,63.993,178.316,66.078L178.316,66.078z"/>
</g>
<g>
	<path fill="#231F20" d="M178.316,77.332c0,2.085-1.69,3.776-3.776,3.776H67.894c-2.085,0-3.776-1.691-3.776-3.776l0,0
		c0-2.085,1.691-3.776,3.776-3.776H174.54C176.626,73.556,178.316,75.247,178.316,77.332L178.316,77.332z"/>
</g>
<g>
	<path fill="#231F20" d="M178.316,88.132c0,2.085-1.69,3.776-3.776,3.776H67.894c-2.085,0-3.776-1.691-3.776-3.776l0,0
		c0-2.085,1.691-3.776,3.776-3.776H174.54C176.626,84.356,178.316,86.047,178.316,88.132L178.316,88.132z"/>
</g>
<g>
	<path fill="#231F20" d="M180.29,50.176h-26.17c-1.328,0-2.369-1.414-2.369-3.219s1.041-3.219,2.369-3.219h26.17
		c1.329,0,2.37,1.414,2.37,3.219S181.619,50.176,180.29,50.176z M154.12,44.738c-0.742,0-1.369,1.016-1.369,2.219
		s0.627,2.219,1.369,2.219h26.17c0.743,0,1.37-1.016,1.37-2.219s-0.627-2.219-1.37-2.219H154.12z"/>
</g>
<g>
	<path fill="#231F20" d="M147.887,46.957c0,1.502-1.219,2.719-2.72,2.719h-5.896c-1.502,0-2.72-1.217-2.72-2.719l0,0
		c0-1.502,1.218-2.719,2.72-2.719h5.896C146.668,44.238,147.887,45.455,147.887,46.957L147.887,46.957z"/>
</g>
<g>
	<path fill="#231F20" d="M58.069,147.336c0,1.242-1.007,2.25-2.25,2.25H31.198c-1.243,0-2.25-1.008-2.25-2.25l0,0
		c0-1.242,1.007-2.25,2.25-2.25h24.621C57.062,145.086,58.069,146.094,58.069,147.336L58.069,147.336z"/>
</g>
<g>
	<path fill="#231F20" d="M58.069,156.086c0,1.242-1.007,2.25-2.25,2.25H31.198c-1.243,0-2.25-1.008-2.25-2.25l0,0
		c0-1.242,1.007-2.25,2.25-2.25h24.621C57.062,153.836,58.069,154.844,58.069,156.086L58.069,156.086z"/>
</g>
<g>
	<path fill="#231F20" d="M114.479,147.336c0,1.242-1.008,2.25-2.25,2.25H87.606c-1.243,0-2.25-1.008-2.25-2.25l0,0
		c0-1.242,1.007-2.25,2.25-2.25h24.621C113.471,145.086,114.479,146.094,114.479,147.336L114.479,147.336z"/>
</g>
<g>
	<path fill="#231F20" d="M115.083,156.086c0,1.242-1.007,2.25-2.25,2.25H88.212c-1.243,0-2.25-1.008-2.25-2.25l0,0
		c0-1.242,1.007-2.25,2.25-2.25h24.621C114.076,153.836,115.083,154.844,115.083,156.086L115.083,156.086z"/>
</g>
<g>
	<path fill="#231F20" d="M167.206,147.336c0,1.242-1.007,2.25-2.25,2.25h-24.621c-1.243,0-2.25-1.008-2.25-2.25l0,0
		c0-1.242,1.007-2.25,2.25-2.25h24.621C166.199,145.086,167.206,146.094,167.206,147.336L167.206,147.336z"/>
</g>
<g>
	<path fill="#231F20" d="M167.206,156.086c0,1.242-1.007,2.25-2.25,2.25h-24.621c-1.243,0-2.25-1.008-2.25-2.25l0,0
		c0-1.242,1.007-2.25,2.25-2.25h24.621C166.199,153.836,167.206,154.844,167.206,156.086L167.206,156.086z"/>
</g>
</svg>
