<?xml version="1.0" encoding="utf-8"?>
<!-- Generator: Adobe Illustrator 16.0.4, SVG Export Plug-In . SVG Version: 6.00 Build 0)  -->
<!DOCTYPE svg PUBLIC "-//W3C//DTD SVG 1.1//EN" "http://www.w3.org/Graphics/SVG/1.1/DTD/svg11.dtd">
<svg version="1.1" id="Layer_1" xmlns="http://www.w3.org/2000/svg" xmlns:xlink="http://www.w3.org/1999/xlink" x="0px" y="0px"
	 width="1366px" height="994px" viewBox="0 0 1366 994" enable-background="new 0 0 1366 994" xml:space="preserve">
<linearGradient id="SVGID_1_" gradientUnits="userSpaceOnUse" x1="399.5801" y1="1376.7754" x2="399.58" y2="-1.0205" gradientTransform="matrix(1 0 0 -1 287 1187)">
	<stop  offset="0.5051" style="stop-color:#2DB674"/>
	<stop  offset="0.8979" style="stop-color:#07713E"/>
	<stop  offset="0.9286" style="stop-color:#066C3B"/>
	<stop  offset="0.9592" style="stop-color:#046938"/>
</linearGradient>
<rect x="-13.319" y="-189.775" fill="url(#SVGID_1_)" width="1399.798" height="1377.796"/>
<path opacity="0.2" fill="#FCF16B" enable-background="new    " d="M901.863,850.927c0,0-1.414-1.801-2.185-0.642
	c-0.775,1.151-1.417,1.801-1.417,2.435c0,0.643-0.518,2.447-1.418,2.447s-1.417,1.284-1.667,1.797
	c-0.259,0.513-3.343,2.317-3.477,3.727c-0.121,1.417-4.494,2.959-4.494,2.959s1.539-6.036,0-6.173
	c-1.542-0.125-2.446-2.438-3.218-2.693c-0.771-0.255-3.984-2.317-3.984-2.317s-2.576-2.834-3.728-2.572
	c-1.158,0.255-3.992-3.155-4.181-3.73c-0.195-0.575-1.542-0.834-2.317-1.542c-0.771-0.709-4.106-4.757-5.332-4.502
	c-1.221,0.254-4.818-0.255-5.019-0.584c-0.195-0.312-1.667-1.413-3.08-1.667c-1.421-0.259-1.421,0.45-2.385-0.643
	c-0.959-1.092-2.826-2.896-2.826-2.896s0.58-1.084,0.454-2.31c-0.133-1.226-1.033-2.639-1.479-3.147
	c-0.45-0.517-0.771-1.55-2.067-2.513c-1.279-0.96-2.376-4.048-2.184-5.082c0.195-1.025-0.964-2.63-0.705-3.852
	c0.259-1.226,0.646-3.214,1.033-3.602c0.384-0.384,1.026-1.476,0.384-2.185c-0.642-0.708-1.092-2.31-1.092-2.31
	s1.092-2.059,1.413-2.639c0.321-0.579,1.096-5.723,1.096-6.428c0-0.708-0.517-2.442,0.13-2.76c0.638-0.329,1.025-5.594,1.025-5.856
	c0-0.254,0.517-4.561,0.967-4.693c0.446-0.125,0.191-4.886,0.25-5.723c0.071-0.83,0.643-3.215,0.321-4.174
	c-0.321-0.963-0.963-3.734-0.963-3.734s1.417-1.926,1.226-2.701c-0.2-0.759-1.421-4.818-1.539-5.073
	c-0.133-0.262-0.72-2.122-0.774-2.701c-0.07-0.579-1.417-3.476-1.927-3.789c-0.517-0.325-1.737-2.06-1.158-2.388
	c0.579-0.321,1.092-0.963,1.092-1.347c0-0.388-1.366-3.085-1.519-3.41c-0.152-0.321-1.312-4.756-1.569-5.652
	c-0.255-0.904-0.13-2.572,0.391-3.794c0.51-1.221-1.55-3.218-1.675-2.893c-0.126,0.321-3.022-0.388-2.897-0.708
	c0.134-0.325,0.255-1.668-0.008-2.381c-0.246-0.704-0.571-2.117-1.15-3.28c-0.575-1.154-2.056-1.988-1.089-2.889
	c0.968-0.904,1.605-4.048,0.908-4.377c-0.712-0.32-1.225,0.329-1.487-0.83c-0.246-1.158-0.188-2.121,0-3.088
	c0.196-0.971-2.438-4.568-2.31-5.531c0.133-0.968,0.583-1.089-0.392-2.765c-0.963-1.667-2.051-3.084-1.922-3.984
	c0.121-0.904,0.904-2.31-0.963-2.76c-1.863-0.45-5.66-4.311-5.402-5.207c0.263-0.904,0.838-1.801,0.517-2.188
	c-0.321-0.383-0.45-0.188-0.838-1.221c-0.387-1.03-0.32-1.997-0.32-1.997l-1.923-1.084c0,0-0.908-4.952-1.354-5.406
	c-0.447-0.446-1.997-1.413-1.668-2.372c0.316-0.971,1.604-0.904,1.668-1.801c0.062-0.9-0.521-6.432,0.129-8.033
	c0.642-1.612,1.092-1.612,1.667-2.639c0.584-1.033,0.584-1.996,0.717-2.254c0.121-0.259,1.984,1.096,2.818-0.768
	c0.842-1.863,2.255-2.826,2.38-3.022c0.13-0.199,1.093-1.225,1.543-1.354c0.454-0.125,0.838-2.31,0.908-2.889
	c0.062-0.579,5.527-5.011,6.24-5.081c0.704-0.07,2.438-0.255,3.276,0c0.833,0.254,2.376,0.125,2.501-0.134
	c0.133-0.25,0.133-5.331,0.133-5.331s1.473,0.708,2.631-1.351c1.159-2.056,1.417-3.147,1.801-4.044
	c0.384-0.908,0.446-2.192,1.089-2.576c0.646-0.388,2.184-2.442,2.764-3.602c0.583-1.15,0.25-0.9,0.704-2.251
	c0.454-1.35,1.354-2.567,1.926-3.343c0.588-0.771,4.252-1.608,4.765-1.347c0.509,0.255,1.045-1.158,1.265-1.996
	c0.211-0.834-0.224-6.49,0-6.753c0.211-0.255,0.728-1.926,0.273-3.218s-1.288-3.461-2.059-4.627
	c-0.771-1.155-3.539-3.144-3.089-4.557c0.45-1.421,0.066-1.609-1.222-2.38c-1.284-0.768-1.284-3.41-1.797-4.568
	c-0.521-1.155-3.343-1.414-3.413-3.214c-0.07-1.801,0.321-4.048-0.07-5.27c-0.38-1.222-1.919-3.923-1.276-4.564
	c0.642-0.643,0.254-4.247-0.517-5.527c-0.768-1.288,0.959-7.72,0.904-8.104c-0.066-0.388-0.255-4.627,0.129-4.697
	c0.384-0.062,3.535-3.469,4.306-3.915c0.768-0.454,3.147-2.388,4.303-2.317c1.158,0.062,1.546,0.446,2.826,0.896
	c1.288,0.45,3.28,1.158,3.598,1.617c0.321,0.445,1.096,0.312,1.93,0.379s0.709,0.709,1.801,1.609
	c1.085,0.896,2.056,2.177,3.598,2.055c1.546-0.133,1.988-0.967,3.214-0.191c1.222,0.768,1.672,3.531,2.313,3.923
	c0.643,0.383,1.926,0.712,2.317,1.221c0.384,0.509,0.83,3.73,2.439,4.568c1.604,0.834,3.464,1.742,4.173,3.081
	c0.716,1.347,2.9,1.347,4.247,2.38c1.354,1.034,3.539,2.443,4.052,3.664c0.517,1.226,1.222,3.147,2.376,3.344
	c1.155,0.195,3.798-0.122,4.251,0.583c0.451,0.705,1.864,3.793,3.085,4.436c1.222,0.642,3.728-1.288,4.369-1.288
	s5.919,0.321,6.623,1.154c0.705,0.838,5.398,1.935,6.041,2.576c0.646,0.642,2.579,0.834,4.368,1.222
	c1.801,0.388,3.539,0.254,3.73,0.517c0.196,0.258,3.089,1.801,3.089,1.801s4.436,2.051,5.273,2.505
	c0.83,0.45,0.83,0.838,1.667,1.668c0.838,0.838,2.764,1.542,3.602,2.513c0.834,0.956,0.446,2.31,2.952,2.568
	c2.505,0.259,2.122-0.513,4.693,0.642c2.572,1.159,4.114,0.455,4.952,2.318c0.838,1.867,0.705,2.184,3.469,2.951
	c2.76,0.771,4.177,2.38,5.206,3.664c1.033,1.288,1.288,3.093,2.514,3.602c1.213,0.513,3.21,0.446,3.852,1.084
	c0.642,0.646,3.73,1.935,3.923,2.506c0.195,0.587,1.158,2.13,1.088,2.9c-0.062,0.768,5.594,4.052,6.498,5.077
	c0.9,1.034,0.768,2.506,2.251,2.506s2.572,0,2.826,0.583c0.255,0.579-0.125,2.38,0.321,3.022c0.45,0.642,2.06,2.639,2.185,3.276
	c0.129,0.646,2.509,3.089,2.893,3.409c0.392,0.321,2.122,1.418,2.06,1.989c-0.062,0.583,1.092,1.996,1.092,2.513
	s0.583,2.693,0.643,3.853c0.066,1.158-0.514,1.675-1.28,2.639c-0.775,0.959-0.392,1.922-0.259,2.505
	c0.125,0.579,1.151,7.074,0.705,8.041c-0.442,0.963-1.025,1.793-0.9,2.63c0.129,0.838,0.838,3.86,0.967,4.307
	c0.125,0.446,0.575,3.218,1.154,3.28c0.58,0.059,2.764-2.059,2.764-2.255c0-0.191,0.388-1.221,1.989-0.842
	c1.604,0.396,3.147,0.584,4.372,0.325c1.226-0.251,3.731-0.251,3.86,0.129c0.129,0.388,4.181,5.981,4.564,7.199
	c0.388,1.222,0.583,5.657,0,7.653c-0.575,1.988,0.215,2.697,0.364,3.535c0.145,0.834,0.411,1.154,0.474,2.376
	c0.066,1.226,0.638,3.026,2.31,3.535c1.676,0.517,3.021,1.417,3.021,1.417s-0.513,1.992-0.513,2.317c0,0.313,2.506,2.76,2.506,2.76
	s4.056,3.147,4.432,3.981c0.391,0.833,2.442,2.121,2.834,2.317c0.388,0.191,4.89,3.021,5.974,3.405
	c1.096,0.392,1.025-1.667,2.513,0.329c1.477,1.988,6.487,4.944,6.874,6.036c0.388,1.097,0.643,2.063,0,2.185
	c-0.638,0.133-1.737,1.159-1.601,1.676c0.121,0.517,0.121,2.438,0.121,2.438s-4.368,7.716-6.49,9.587
	c-2.118,1.859-7.778,8.604-8.745,9.121c-0.963,0.517-1.543-0.446-2.826,1.354c-1.284,1.793-6.491,6.291-7.646,7.833
	c-1.163,1.555-6.494,4.702-8.104,5.86c-1.601,1.151-3.793,2.889-4.428,3.465c-0.646,0.583-6.302,0-6.944,0.959
	c-0.642,0.971-1.417,2.509-2.639,3.668c-1.217,1.154-4.106,1.797-5.136,3.347c-1.033,1.542-0.384,2.697-1.608,2.38
	c-1.226-0.324-2.761-2.129-4.624-0.838c-1.867,1.284,0.705,1.477-1.801,2.06c-2.505,0.575-5.019-0.07-5.723,0.963
	c-0.709,1.025-1.801,0.639-2.826,0.317c-1.03-0.317-7.591-3.276-8.742-2.956c-1.158,0.321-2.062,0.584-2.893,1.026
	c-0.846,0.45-3.093,0-3.927,0.45c-0.841,0.454-2.768,2.188-3.672,3.988c-0.893,1.801-3.076,2.255-4.294,3.406
	c-1.229,1.158-1.479,2.38-2.384,3.664c-0.9,1.288-2.76,1.863-3.927,2.513c-1.15,0.635-3.852,1.089-4.048,1.473
	c-0.195,0.383-0.579,1.542-2.117,1.542c-1.547,0-6.236,3.022-6.495,4.502c-0.258,1.476-1.797,4.564-3.922,5.527
	c-2.118,0.963-5.011,0.45-6.111,1.159c-1.084,0.704-2.822,2.306-2.893,2.505c-0.062,0.188,0.771,1.417-0.579,2.442
	c-1.347,1.026-3.085,1.672-3.469,2.831c-0.388,1.158,0.643,2.184-0.838,2.563c-1.472,0.392-2.567,1.676-2.567,2.639
	c0,0.967-1.292,7.849-1.292,7.849s-2.568,0.959-3.14,2.956c-0.583,1.988,0.768,3.594-0.321,4.494
	C904.756,844.179,901.863,850.927,901.863,850.927z"/>
<path opacity="0.2" fill="#FCF16B" enable-background="new    " d="M804.541,495.705c0,0-3.919,1.088-4.502,1.025
	c-0.575-0.07-2.697-1.733-3.73-1.733c-1.025,0-4.627,0.254-4.944,1.279c-0.321,1.034-4.114,3.794-4.89,4.311
	c-0.767,0.513-3.855,2.505-4.76,2.184c-0.896-0.324-3.214,0.771-3.723,1.418c-0.517,0.638-3.155,0.771-4.248,0.442
	c0,0-2.701-0.643-3.088-0.192c-0.388,0.454-0.834,0.834-1.734,0.834s-4.307,1.871-4.506,1.805c-0.191-0.066-3.402-1.609-4.303-1.542
	c-0.9,0.062-3.214-0.13-3.214-0.13s-1.287-4.11-1.934-3.734c-0.638,0.388-2.501-1.413-2.627-2.693
	c-0.133-1.284-0.066-1.479-0.837-2.76c-0.768-1.288-2.318-4.436-2.318-4.436s1.551-1.096,2.067-1.996
	c0.509-0.9-0.325-3.089-0.325-4.11c0-1.033-0.834-4.377-0.834-5.081c0-0.709-0.963-3.734-0.908-5.273
	c0.071-1.538,0.329-6.295-0.383-8.232c-0.709-1.918-3.022-6.744-3.923-6.808c-0.9-0.064-3.985-2.121-4.377-1.154
	c-0.383,0.961-2.184,4.368-3.656,4.758c-1.479,0.386-4.764-2.703-5.598-3.151s-2.697-0.769-3.978-0.704
	c-1.283,0.064-1.741-1.479-2.513-2.51c-0.768-1.027-2.114-2.061-3.343-1.801c-1.222,0.257-1.923,1.339-2.506-0.039
	c-0.575-1.376-3.985-6.395-5.273-7.289c-1.279-0.902-1.988-1.226-2.696-2.567c-0.705-1.356-1.477-3.412-2.185-4.184
	c-0.705-0.765-2.122-2.376-1.28-3.982c0.83-1.604,1.28-2.758,0.442-3.212c-0.838-0.456-2.118-2.641-1.605-3.796
	c0.518-1.154,0.768-2.115,1.284-4.946c0.517-2.83,1.354-7.393,2.639-8.808s-0.321-2.185,1.159-3.087
	c1.476-0.902,2.76-0.068,4.173-1.867c1.421-1.793-0.9-4.241,1.479-3.985c2.38,0.261,4.048,0.968,4.952,0.77
	c0.896-0.191,1.222-1.282,2.11-1.474c0.908-0.194,2.388-0.257,2.842,1.226c0.438,1.476,3.335,2.891,3.59,3.02
	c0.254,0.128,1.667,2.894,2.062,3.402c0.384,0.517,2.243,1.934,3.147,2.577c0.9,0.643,1.793,2.703,1.992,3.473
	c0.192,0.766,1.413,3.274,1.864,4.048c0.445,0.77,0.896,0.646,1.283,2.44c0.388,1.801,1.28,0.711,1.797,2.382
	c0.517,1.668-2.185,2.058,0.259,3.147c2.442,1.095,3.981,0.319,3.664,2.705c-0.325,2.378,1.154,3.147,1.417,2.827
	c0.255-0.325,1.15-1.672,3.085-2.188c1.926-0.519,4.306-2.118,6.812-2.506c2.509-0.386,3.343-1.415,4.627-2.187
	c1.292-0.772,4.439-3.021,5.465-3.413c1.025-0.382,0.384,0,1.025-0.382c0.65-0.39,1.676-0.513,2.185-1.158
	c0.517-0.645,2.513-1.351,3.093-0.709c0.571,0.644,3.018,0.965,3.464,0.965c0.45,0,2.76-1.094,3.089-0.965
	c0.321,0.131,1.096,1.672,1.479,1.928c0.384,0.257,1.089,0.196,2.122,0.388c1.025,0.194,2.435-0.127,3.28,0.321
	c0.838,0.446,3.272,0.252,3.21,1.223c-0.062,0.966-0.45,3.535-0.45,3.535s1.093,0.068,1.863,0.711
	c0.775,0.642,1.347,1.415,1.931,2.313c0.579,0.9,2.889,3.21,2.959,3.535c0.062,0.32,3.59,1.411,3.59,1.411s1.033,2.188,1.421,2.902
	c0.384,0.701,1.222,1.218,2.576,0.641c1.347-0.582,2.184-0.582,2.567-0.257c0.384,0.317,1.605,3.147,1.738,4.368
	c0.125,1.228,1.151,1.801,1.284,1.993c0.129,0.197,0.583,1.09,1.542,1.224c0.963,0.127,2.377-0.578,2.506-0.834
	c0.133-0.253,2.959,0.256,3.602,1.479c0.642,1.222,2.313,2.116,3.28,2.308c0.955,0.197,4.619,2.023,4.752,1.98
	c0.13-0.053,3.276,1.103,3.735,1.879c0.453,0.771,1.859,1.605,1.988,1.931c0.133,0.321,0.583,0,1.413,0.83
	c0.838,0.833,0.771,0.328,1.163,2.062c0.387,1.732,0,2.438,0,3.535c0,1.092,0.767,0.838,0.445,2.31
	c-0.32,1.479-0.959,2.38-0.771,3.085c0.195,0.716-0.442,2.255-0.513,2.513c-0.062,0.255-3.344,7.587-4.307,7.771
	c-0.963,0.2-2.113-1.084-2.893,0.263c-0.771,1.347-5.332,5.849-6.236,6.557c-0.904,0.709-2.117,0.643-2.438,0.709
	c-0.321,0.062-0.838-0.446-1.93,0.9c-1.089,1.354-2.894,0.708-3.664,1.221c-0.775,0.514-2.639,3.344-4.11,3.86
	C806.533,497.056,804.541,495.705,804.541,495.705z"/>
<path opacity="0.2" fill="#FCF16B" enable-background="new    " d="M736.273,514.558h-1.029c0,0-1.155-0.344-1.625-0.344
	c0,0-1.585,0.649-1.291,0c0.305-0.643,0.947-5.402,0.947-5.402s1.279-0.212,1.632-0.423c0.337-0.22-1.029-4.588-1.46-4.925
	c-0.427-0.345-5.144-4.377-6.044-3.688s-5.614,4.459-6.601,4.76c-0.986,0.298-1.331,1.159-1.667,1.754
	c-0.345,0.604-0.94,0.298-1.715,0.799c-0.771,0.489,0.384,2.122-1.249,1.691s-3.723,1.111-4.451,1.499
	c-0.731,0.388-2.145,1.711-2.364,2.399c-0.207,0.689-0.595,1.28-1.417,1.887c-0.807,0.604-2.091,3.559-0.936,4.455
	c1.158,0.9,2.012,0.854,1.844,1.926c-0.172,1.073,0.686,1.84,1.582,2.06c0.908,0.211,3.131-0.603,3.131-0.603l2.357-2.443
	c0,0,1.628,0.302,1.46,1.378c-0.177,1.069,2.438-0.345,3.511-0.731c1.073-0.388,2.486-0.294,2.486-0.294s0.466-1.93,1.107-2.063
	c0.65-0.125,0.689,1.586,1.457,2.654c0.771,1.077,2.317-1.201,3.39-1.366c1.072-0.172,2.235-0.392,3.132-0.09
	c0.9,0.302,1.754,0.904,2.09,1.029C734.907,520.599,737.479,515.725,736.273,514.558z"/>
<path opacity="0.2" fill="#FCF16B" enable-background="new    " d="M685.399,458.886c0,0-4.878,6.519-4.96,7.203
	c-0.09,0.684-2.192,0.386-2.877,0.859c-0.689,0.47-2.404,1.668-3.645,2.481c-1.241,0.814-2.784,1.758-2.959,2.06
	c-0.165,0.302,0.133-0.298-1.797,0c-1.922,0.302-4.623,0.345-4.623,0.513c0,0.172-0.388,0.043-1.202,0
	c-0.814-0.043-2.826-0.043-3.21,0.56c-0.396,0.6-2.45,0.729-2.49,0.392c-0.047-0.353-0.642-2.619-1.37-2.999
	c-0.728-0.391-2.364-1.977-2.399-2.834c-0.043-0.859-0.396-2.358-0.262-3.175c0.129-0.81-0.939-1.969-0.896-2.313
	c0.039-0.34,0.599-1.793,0.599-2.742c0-0.941,0.165-2.914,0-3.515c-0.172-0.602,0.083-2.188-0.133-2.402
	c-0.211-0.211-2.404-4.762-2.611-5.833c-0.208-1.068-2.999-2.912-3.77-2.912c-0.771,0-4.157-2.018-4.713-3.473
	c-0.56-1.456-0.254-7.547,0-7.592c0.254-0.041,2.568-0.554,3.688-1.45c1.108-0.902,5.438-2.367,6.342-2.103
	c0.9,0.255,4.197-1.084,4.494-0.035c0.301,1.062,2.356,0.979,4.032,0.93c1.676-0.043,4.764,0.049,6.091,1.074
	c1.323,1.03,6.894,4.33,7.368,5.229c0.474,0.906,1.753,2.487,2.92,2.828c1.159,0.343,6.467,6.514,7.195,7.89
	c0.732,1.372,1.891,3.729,2.02,4.839C686.347,453.478,685.399,458.886,685.399,458.886z"/>
<path opacity="0.2" fill="#FCF16B" enable-background="new    " d="M680.521,404.036c0,0-1.503,0.692-1.676,0.692
	c-0.172,0-0.509-1.033-1.323-0.348c-0.814,0.69-2.874,2.274-3.942,1.456c-1.077-0.811-5.144-3.044-6.385-3.124
	c-1.249-0.084-4.204-1.335-5.402-1.417c-1.202-0.086-5.23-1.327-6.342-1.842c-1.112-0.517-4.847-1.503-6.35-1.627
	c-1.496-0.129-6.08-3.904-7.109-5.015c-1.026-1.115-4.839,0.292-5.269,0c-0.423-0.301-0.556-1.201-1.542-1.37
	c-0.987-0.174-2.224,1.153-2.915,1.498c-0.689,0.346-3.6,1.287-4.112,1.372c-0.517,0.084-11.012-0.173-11.869,0
	c-0.861,0.172-4.631,1.197-5.404,1.499c-0.773,0.299-5.015,0-5.704-0.172c-0.681-0.169-8.354-1.457-8.526-1.457
	c-0.168,0-1.247-2.758-1.247-2.758s2.272-4.021,2.441-4.66c0.176-0.642,0.513-2.611,0.902-2.654c0.388-0.049,1.374-0.771,1.63-1.889
	c0.252-1.113,3.427-2.918,4.326-3.392c0.902-0.468,1.928-2.224,1.801-2.652c-0.129-0.429,0.812-1.932,0.812-2.19
	c0-0.257,0-0.686,0.125-1.883c0.133-1.206-0.854-3.348-1.712-4.674c-0.857-1.327,1.667-2.233,2.703-1.588
	c1.03,0.643,3.639,0.554,4.24,0.554c0.603,0,3.132,0.392,3.3,1.114c0.172,0.733,1.844,1.889,2.188,2.489
	c0.345,0.598,3.985,1.37,4.799,1.157c0.814-0.216,2.139-0.127,3.042,0.297c0.902,0.425,1.844-0.215,2.486-0.424
	c0.646-0.218,2.874,0.726,3.856,0.901c0.987,0.173,2.662-0.129,3.222,0.04c0.556,0.176,1.198,1.499,3.469,1.801
	c2.263,0.301,8.784,0.938,10.241,1.246c1.456,0.296,2.572-0.217,2.956-0.39c0.387-0.172,2.356-3.423,2.399-4.417
	c0.047-0.986,1.245-1.968,1.378-1.968c0.125,0,2.263,0.043,2.263,0.043s3.48,6.299,3.128,6.988
	c-0.341,0.685,2.274,3.126,2.963,2.994c0.685-0.125,2.055-0.425,2.356-0.34c0.297,0.084,2.779,1.546,3.085,1.374
	c0.297-0.173,2.012-1.588,2.012-1.588s1.722,1.159,1.926,1.247c0.215,0.084,1.417-0.425,2.486-0.257
	c1.073,0.173,2.439,0.602,2.83,0.429c0.388-0.172,0.987-0.906,1.457-0.986c0.47-0.084,2.744-0.429,3.171-0.773
	c0.423-0.34,1.969-1.366,2.744-0.934c0.771,0.421,3.089,2.224,3.21,1.921c0.137-0.298,0.606-1.032,1.076-1.11
	c0.47-0.086,5.316-0.045,5.316-0.045s0.943-0.685,1.495-0.685c0.563,0,1.033,2.016,1.033,2.312c0,0.301,4.032,1.203,4.886,0.519
	c0.854-0.691,0.725,3.086,0.423,3.768c-0.298,0.686-2.396,5.095-3.081,5.058c-0.685-0.043-2.016,1.588-2.235,2.486
	c-0.215,0.906-4.674,6.942-5.871,7.629c-1.198,0.686-3.344,1.37-4.972,1.715C686.092,400.349,680.521,404.036,680.521,404.036z"/>
<path opacity="0.2" fill="#FCF16B" enable-background="new    " d="M581.796,347.127c-0.084,0.341-4.543,6.598-5.825,7.54
	c-1.29,0.945-3.427,1.973-3.002,2.313c0.425,0.345-0.861,1.455-2.061,1.626c-1.198,0.172-1.883-3.511-2.825-3.768
	c-0.939-0.256-6.169,0.252-7.625,0.857c-1.455,0.599-5.314,1.728-5.655,2.922c-0.351,1.196-3.255,1.288-4.547,0
	c-1.286-1.29-1.967-3.863-2.658-4.633c-0.681-0.769-3.083-1.458-3.595-2.141c-0.513-0.689-0.172-3.856-1.883-4.713
	c-1.72-0.863-1.805-2.061-2.574-2.061s-3.09-1.973-3.09-1.973s-2.486,3.171-3.087,3.858c-0.601,0.689-0.857,1.118-2.061,0.941
	c-1.198-0.172-2.313-0.685-3.423-0.765c-1.114-0.088-2.658-2.317-2.915-2.237c-0.256,0.088-1.114,0.689-2.143,1.548
	c-1.028,0.857-7.718,1.546-8.571,2.143c-0.861,0.599-3.771,1.457-6.093,1.2c-2.313-0.252-4.709,1.278-5.741,1.538
	c-1.029,0.265-1.202,0.088-2.746-0.849c-1.542-0.941-3.856-6.687-4.024-7.972c-0.172-1.284-1.206-5.06-1.626-6.001
	c-0.432-0.943-2.176-3.235-2.529-3.938c-0.358-0.708-1.092-1.836-1.992-2.315c-0.906-0.478-2.734-1.251-2.991-2.501
	c-0.256-1.254-0.994-3.38-1.444-4.662c-0.452-1.286-1.771-4.79-2.541-5.532c-0.773-0.738-1.415-1.031-2.414-1.384
	c-0.994-0.352-1.09-2.153-1.799-2.922c-0.707-0.769-1.8-0.93-2.025-0.902c-0.227,0.034,0-11.924,0-12.145
	c0-0.229-2.12-3.059-2.408-3.183c-0.293-0.129-1.002-1.155-1.873-1.25c-0.865-0.096-4.369-4.758-4.402-5.207
	c-0.031-0.454,6.559-1.356,7.264-1.319c0.707,0.031,0.707,0.031,1.862-0.45c1.163-0.481,1.798-0.481,2.701-0.384
	c0.906,0.092,1.282-0.646,1.897-0.61c0.612,0.029,4.216,0.932,4.762,0.798c0.544-0.125,5.431-0.352,5.848-0.188
	c0.417,0.161,0.965-0.29,1.546-0.256c0.578,0.031,2.795,0.993,2.795,0.993s0.544-0.415,0.801-1.026
	c0.256-0.609,0.673-0.902,1.188-1.354c0.517-0.444,0.904-1.347,0.904-1.347s1.415-3.216,2.505-3.503
	c1.09-0.29,4.085-2.895,4.306-4.054c0.229-1.157-0.321-3.018,0.448-3.146c0.775-0.129,6.013-6.238,6.624-6.911
	c0.605-0.673,0.513-1.9,1.764-2.478c1.254-0.581,2.153-0.127,2.861-1.507c0.71-1.386,2.02-2.088,3.151-1.928
	c1.122,0.161,3.983,0.673,4.242,0.93c0.256,0.252,0,0.867,1.671,1.448c1.667,0.578,1.667,1.539,2.541,3.183
	c0.869,1.635,1.511,2.57,2.088,3.275c0.585,0.705,0.585,2.253,1.447,2.987c0.867,0.742,1.64-0.256,1.223,1.19
	c-0.417,1.447-1.38,2.057-0.93,3.279c0.444,1.223,0.577,1.119,1.09,1.796c0.513,0.677,0.998,1.799,1.867,2.574
	c0.867,0.769,1.667,1.474,1.636,2.537c-0.033,1.066,1.446,2.384,1.993,3.439c0.544,1.063,1.313,3.118,1.542,4.341
	c0.233,1.223,1.031,1.928,1.544,1.19c0.513-0.738,2.505-0.517,2.67-0.035c0.161,0.481,2.276,4.727,2.414,4.983
	c0.123,0.256,0.191,5.527-0.39,6.205c-0.578,0.669-0.546-0.325-1.124,0.961c-0.58,1.284-0.58,2.026-0.292,2.831
	c0.292,0.798,0.708-0.127,0.873,0.833c0.156,0.963,0.092,2.795,0.092,2.922c0,0.129,0.775,1.063,1.288,1.419
	c0.513,0.352,1.924,0.61,2.413,1.28c0.481,0.677,2.537,6.817,3.214,7.172c0.669,0.352,0.642-0.711,1.764-0.354
	c1.124,0.354,1.896,1.415,1.93,1.989c0.032,0.581,1.699,0.16,2.345-1.282c0.64-1.448,0.804-2.509,0.708-2.703
	c-0.096-0.196-0.548-0.288-1.354-0.673c-0.799-0.387-1.09-1.317-1.09-1.736s0.646-1.413,1.319-1.832
	c0.677-0.419,1.959-0.196,2.954,0.446c0.998,0.646,1.607,0.325,2.061,0.256c0.452-0.069,1.415-1.416,1.638-1.384
	c0.229,0.037,1.865,0.513,1.828,0.771c-0.027,0.256-1.539,2.472-1.634,2.701c-0.096,0.225-0.417,0.321-0.738,1.636
	c-0.325,1.317-1.159,2.862-1.228,3.695c-0.068,0.838,2.762,3.795,3.633,3.795c0.869,0,2.825,1.347,2.989,3.087
	c0.157,1.736-1.225,6.298-0.352,7.038c0.867,0.742,1.576,2.149,2.922,3.633c1.351,1.476,1.607,1.576,2.766,1.764
	c1.155,0.198,1.223,1.282,2.057,1.869C579.311,345.923,581.796,347.127,581.796,347.127z"/>
<path opacity="0.2" fill="#FCF16B" enable-background="new    " d="M374.644,261.827c-1.967,0.342-4.541-0.345-6.342-0.857
	c-1.795-0.517-1.282-1.715-3.171-2.406c-1.887-0.685-5.659-0.084-5.743-1.626c-0.084-1.54-5.917-10.029-6.598-10.885
	c-0.691-0.857-1.284-2.059,0-3.347c1.282-1.282,0.857-6.08,1.282-6.765c0.429-0.687,4.373-4.543,6.514-5.825
	c2.145-1.288,3.175-9.685,4.625-11.145c1.46-1.455,1.548-2.055,2.49-2.568c0.938-0.515,2.83-1.456,4.369-1.544
	c1.548-0.084,3.427,0.084,4.203-1.198c0.769-1.288,0.172-1.716,1.282-1.628c1.114,0.084,4.547-1.374,5.144-2.233
	c0.597-0.857,4.204-4.713,5.921-5.398c1.707-0.685,0.681-1.544,3.768-2.402c3.083-0.857,4.281-0.857,4.369,0
	c0.088,0.857,5.572,5.232,6.514,5.316c0.941,0.084,1.795-2.233,2.658-3.516c0.857-1.288,4.625-1.456,6.51-0.687
	c1.887,0.768,3.259,0.168,3.944,0c0.685-0.172,1.716,0.084,2.233,0.168c0.513,0.084,4.369-1.924,4.369-1.924
	s2.145,2.269,2.574,2.527c0.425,0.256,1.714,0.773,2.482,1.29c0.769,0.513,1.971,1.797,1.971,1.797s1.548-0.771,1.889-0.425
	c0.344,0.341,3.427,1.795,3.255,2.396c-0.172,0.601-0.329,0.857,0.004,1.376c0.337,0.513,2.57,1.202,2.65,1.887
	c0.088,0.687,1.202,3.423,1.63,4.371c0.425,0.941-0.77,3.171,0,3.768c0.769,0.601,1.716-0.687,2.482,0.348
	c0.769,1.026,0,5.228,0,5.311c0,0.086,0.429-0.176,0.344,0.767c-0.084,0.941-1.628,1.971-2.057,3.255
	c-0.425,1.286-1.286,4.457-1.714,5.999c-0.429,1.544-1.204,3.257-1.204,4.287c0,1.03-2.826,0.429-2.995,1.887
	c-0.176,1.456,0.595,6.598,0.595,7.195c0,0.599,0.425,2.49,0.34,2.92c-0.084,0.425-1.621,1.198-1.712,1.883
	c-0.084,0.689,1.969-0.084,2.141,0.345s0.256,5.913-0.256,7.027c-0.513,1.116-1.797-0.252-2.057-0.341
	c-0.26-0.088-1.795-2.399-2.486-0.513c-0.685,1.885-0.513,2.31,0.172,3.086c0.687,0.77,0.431,1.801-0.345,2.746
	c-0.769,0.938-3.684,1.11-4.369,3.167c-0.685,2.059-1.029,2.317-1.548,3.175c-0.513,0.854-3.596,1.542-3.684,1.883
	c-0.084,0.346-4.797,3.689-5.054,4.803c-0.256,1.109-5.063,0-6.005-1.114c-0.941-1.116-4.108-2.75-5.232-2.831
	c-1.106-0.084-2.911-1.288-3.423,0.172c-0.513,1.455-3.488,0.854-4.228,0.689c-0.746-0.176-7.769-2.578-7.943-3.175
	c-0.168-0.597-2.059,0.857-2.227,1.455c-0.172,0.599-4.715-2.656-4.799-3.343c-0.084-0.685-2.312-5.058-2.825-6.169
	C378.85,264.141,374.644,261.827,374.644,261.827z"/>
<path opacity="0.2" fill="#FCF16B" enable-background="new    " d="M339.958,191.256c0,0,0.77,1.032-1.208,1.116
	c-1.963,0.084-2.308-0.172-2.308-0.558c0-0.389-1.889-1.074-2.146-0.562c-0.252,0.513,0.773,0.206-0.344,1.131
	c-1.11,0.926-1.623,1.267-2.053,2.212c-0.429,0.943-1.034,5.657-1.114,6.169c-0.084,0.517-4.453,4.028-6.342,4.627
	c-1.887,0.601-4.2,1.034-4.2,1.034s-0.172,1.282-1.114,1.889c-0.943,0.593-4.799,4.024-5.232,5.31
	c-0.425,1.28-3.167,1.284-3.083,2.654c0.084,1.374-0.601,3.771-1.202,5.316c-0.603,1.542-1.716,1.623-2.313,4.112
	c-0.597,2.482-0.857,3.255,0,5.138c0.857,1.885,1.282,4.03,2.313,5.06c1.026,1.029,2.997,1.544,3.516,2.401
	c0.513,0.857,2.826,1.715,2.999,2.314c0.168,0.597,1.11-2.658,1.11-2.999c0-0.347,0.084-0.859,0.941-2.229
	c0.861-1.372,0.517-1.2,0.597-3.427c0.088-2.229,2.662-4.287,3.427-5.144c0.771-0.857,1.633-3.515,1.633-4.797
	c0-1.284,4.797-2.401,5.741-2.401c0.941,0,2.315-0.77,2.656-0.172c0.347,0.601,2.061-0.513,2.229-0.854
	c0.172-0.349,2.658-2.715,2.658-2.715s2.229-1.317,2.229-2.433c0-1.11-1.2-2.915-1.544-3.516c-0.341-0.593-0.084-4.709,0.256-5.48
	c0.34-0.769,0-1.971,0.681-2.744c0.691-0.767,1.159-1.541,1.356-2.654c0.192-1.116,1.133-1.544,1.818-1.544
	C342.604,197.51,343.637,192.456,339.958,191.256z"/>
<g opacity="0.5">
	<path fill="#010101" d="M476.078,302.67c2.284,0,4.253,0.779,5.901,2.333c1.643,1.644,2.464,3.652,2.464,6.035v64.165
		c14.535-10.875,28.201-16.314,40.996-16.314c15.999,0,29.663,5.668,41,17.003c11.333,11.333,17.003,25.046,17.003,41.133v75.001
		c0,2.278-0.824,4.251-2.468,5.896s-3.611,2.466-5.897,2.466h-0.272c-2.382,0-4.391-0.821-6.037-2.466
		c-1.64-1.645-2.466-3.609-2.466-5.896v-75.001c0-11.244-3.971-20.884-11.93-28.931c-8.044-8.045-17.684-12.069-28.933-12.069
		c-11.333,0-21.021,4.024-29.066,12.069c-7.949,8.047-11.93,17.687-11.93,28.931v75.001c0,2.278-0.822,4.251-2.464,5.896
		c-1.648,1.645-3.613,2.466-5.901,2.466h-0.409c-2.288,0-4.253-0.821-5.897-2.466c-1.646-1.645-2.468-3.609-2.468-5.896V311.038
		c0-2.382,0.822-4.391,2.468-6.035c1.644-1.554,3.604-2.333,5.897-2.333H476.078z"/>
	<path fill="#010101" d="M624.571,324.606c-3.106,0-5.717-1.049-7.817-3.155c-2.1-2.1-3.149-4.705-3.149-7.812
		c0-3.018,1.049-5.576,3.149-7.681c2.1-2.096,4.711-3.151,7.817-3.151c3.014,0,5.577,1.055,7.677,3.151
		c2.198,2.196,3.29,4.758,3.29,7.681c0,3.014-1.092,5.62-3.29,7.812C630.144,323.561,627.582,324.606,624.571,324.606z
		 M624.708,358.885c2.28,0,4.253,0.826,5.896,2.468c1.644,1.645,2.466,3.656,2.466,6.033v124.636c0,2.282-0.822,4.255-2.466,5.896
		c-1.642,1.645-3.611,2.466-5.896,2.466h-0.274c-2.376,0-4.389-0.821-6.033-2.466c-1.648-1.641-2.464-3.613-2.464-5.896V367.386
		c0-2.377,0.816-4.389,2.464-6.033c1.644-1.642,3.656-2.468,6.033-2.468H624.708z"/>
	<path fill="#010101" d="M674.477,302.67c2.286,0,4.255,0.779,5.896,2.333c1.652,1.644,2.474,3.652,2.474,6.035v103.24h13.435
		c13.714,0,25.731-4.609,36.055-13.846c10.146-9.232,15.912-20.567,17.283-34.001c0.184-2.1,1.092-3.889,2.744-5.347
		c1.644-1.46,3.515-2.196,5.617-2.196h0.419c2.466,0,4.521,0.918,6.169,2.744c1.645,1.828,2.325,4.026,2.056,6.582
		c-2.013,20.569-12.981,38.303-32.906,53.198c13.893,8.414,23.855,17.874,29.888,28.385c6.303,10.879,9.458,22.623,9.458,35.236
		v6.995c0,2.282-0.822,4.255-2.462,5.896c-1.648,1.645-3.613,2.466-5.899,2.466h-0.415c-2.278,0-4.252-0.821-5.896-2.466
		c-1.645-1.641-2.467-3.613-2.467-5.896v-6.995c-0.094-14.806-5.347-27.375-15.768-37.704
		c-10.515-10.423-23.132-15.629-37.843-15.629h-19.468v60.332c0,2.278-0.822,4.251-2.466,5.896s-3.609,2.466-5.896,2.466h-0.415
		c-2.286,0-4.251-0.821-5.895-2.466c-1.645-1.645-2.47-3.609-2.47-5.896V311.038c0-2.382,0.826-4.391,2.47-6.035
		c1.644-1.554,3.605-2.333,5.895-2.333H674.477z"/>
	<path fill="#010101" d="M927.308,400.294c1.007,2.1,1.097,4.247,0.274,6.441c-0.822,2.104-2.282,3.654-4.385,4.66
		c-12.801,5.761-29.622,13.345-50.459,22.762c-25.868,11.701-44.243,19.971-55.122,24.816
		c12.797,16.454,27.923,24.679,45.386,24.679c11.607,0,22.122-3.43,31.536-10.284c9.047-6.58,15.4-15.167,19.057-25.773
		c1.37-3.841,4.114-5.765,8.225-5.765c2.921,0,5.262,1.189,6.996,3.568c1.644,2.376,1.965,4.935,0.959,7.677
		c-4.847,13.982-13.302,25.319-25.367,34.002c-12.433,8.871-26.231,13.298-41.405,13.298c-19.565,0-36.245-6.901-50.049-20.704
		c-13.799-13.797-20.7-30.481-20.7-50.043c0-19.56,6.897-36.242,20.7-50.043c13.804-13.799,30.483-20.704,50.049-20.704
		c14.073,0,26.96,3.84,38.665,11.517C913.094,377.896,921.64,387.866,927.308,400.294z M863.006,376.297
		c-14.805,0-27.473,5.26-37.979,15.771c-10.425,10.515-15.631,23.168-15.631,37.981c0,2.65,0.458,7.087,1.37,13.3l96.664-43.738
		C894.448,384.069,879.636,376.297,863.006,376.297z"/>
</g>
<g opacity="0.5">
	<path fill="#010101" d="M465.065,595.998c13.797,13.799,20.705,30.483,20.705,50.041v62.388c0,2.278-0.822,4.251-2.466,5.896
		c-1.646,1.644-3.611,2.466-5.899,2.466h-0.413c-2.286,0-4.253-0.822-5.897-2.466c-1.642-1.645-2.464-3.613-2.464-5.896v-15.494
		c-17.919,15.905-35.79,23.855-53.611,23.855c-19.565,0-36.246-6.897-50.045-20.708c-13.801-13.796-20.703-30.479-20.703-50.041
		c0-19.558,6.901-36.242,20.703-50.041c13.799-13.799,30.483-20.7,50.045-20.7C434.58,575.298,451.261,582.195,465.065,595.998z
		 M377.041,608.196c-10.423,10.515-15.629,23.132-15.629,37.843c0,14.809,5.21,27.469,15.629,37.983
		c10.511,10.421,23.169,15.627,37.982,15.627c14.811,0,27.422-5.21,37.841-15.627c10.511-10.515,15.77-23.171,15.77-37.983
		c0-14.715-5.259-27.328-15.77-37.843c-10.331-10.507-22.946-15.765-37.841-15.765C400.21,592.432,387.552,597.689,377.041,608.196z
		"/>
	<path fill="#010101" d="M527.447,519.075c2.284,0,4.253,0.775,5.901,2.333c1.642,1.645,2.464,3.657,2.464,6.033v180.985
		c0,2.278-0.822,4.251-2.464,5.896c-1.648,1.644-3.613,2.466-5.901,2.466h-0.409c-2.288,0-4.253-0.822-5.897-2.466
		c-1.646-1.645-2.468-3.613-2.468-5.896V527.441c0-2.376,0.822-4.389,2.468-6.033c1.645-1.558,3.605-2.333,5.897-2.333H527.447z"/>
	<path fill="#010101" d="M635.358,575.298c19.557,0,36.237,6.901,50.041,20.7c13.803,13.799,20.7,30.483,20.7,50.041
		c0,19.562-6.897,36.245-20.7,50.041c-13.804,13.811-30.484,20.708-50.041,20.708c-19.565,0-36.25-6.897-50.047-20.708
		c-13.801-13.796-20.705-30.479-20.705-50.041c0-19.558,6.903-36.242,20.705-50.041
		C599.108,582.195,615.793,575.298,635.358,575.298z M635.358,592.706c-14.812,0-27.475,5.253-37.986,15.768
		c-10.423,10.512-15.625,23.167-15.625,37.984c0,14.711,5.208,27.324,15.625,37.835c10.511,10.515,23.17,15.771,37.986,15.771
		c14.895,0,27.508-5.257,37.835-15.771c10.515-10.511,15.771-23.124,15.771-37.835c0-14.813-5.257-27.473-15.771-37.984
		C662.866,597.959,650.253,592.706,635.358,592.706z"/>
	<path fill="#010101" d="M738.184,519.075c2.286,0,4.256,0.775,5.899,2.333c1.645,1.645,2.467,3.657,2.467,6.033v64.169
		c14.539-10.879,28.197-16.312,40.998-16.312c15.995,0,29.661,5.66,41.002,16.997c11.329,11.333,16.997,25.046,16.997,41.135v74.997
		c0,2.282-0.822,4.255-2.466,5.899c-1.645,1.64-3.613,2.47-5.896,2.47h-0.274c-2.38,0-4.393-0.83-6.036-2.47
		c-1.641-1.645-2.463-3.613-2.463-5.899V633.43c0-11.246-3.98-20.889-11.936-28.937c-8.041-8.041-17.687-12.062-28.929-12.062
		c-11.337,0-21.021,4.021-29.066,12.062c-7.95,8.048-11.932,17.69-11.932,28.937v74.997c0,2.282-0.822,4.255-2.467,5.899
		c-1.644,1.64-3.613,2.47-5.899,2.47h-0.41c-2.283,0-4.252-0.83-5.896-2.47c-1.645-1.645-2.471-3.613-2.471-5.899V527.445
		c0-2.376,0.826-4.393,2.471-6.033c1.644-1.554,3.604-2.333,5.896-2.333h0.41V519.075z"/>
	<path fill="#010101" d="M993.763,595.998c13.795,13.799,20.705,30.483,20.705,50.041v62.388c0,2.278-0.822,4.251-2.467,5.896
		c-1.647,1.644-3.613,2.466-5.899,2.466h-0.415c-2.286,0-4.251-0.822-5.896-2.466c-1.644-1.645-2.466-3.613-2.466-5.896v-15.494
		c-17.917,15.905-35.788,23.855-53.611,23.855c-19.565,0-36.245-6.897-50.048-20.708c-13.796-13.796-20.701-30.479-20.701-50.041
		c0-19.558,6.905-36.242,20.701-50.041c13.803-13.799,30.482-20.7,50.048-20.7C963.275,575.298,979.96,582.195,993.763,595.998z
		 M905.738,608.196c-10.421,10.515-15.627,23.132-15.627,37.843c0,14.809,5.206,27.469,15.627,37.983
		c10.511,10.421,23.167,15.627,37.979,15.627c14.813,0,27.427-5.21,37.843-15.627c10.511-10.515,15.769-23.171,15.769-37.983
		c0-14.715-5.258-27.328-15.769-37.843c-10.33-10.507-22.951-15.765-37.843-15.765C928.905,592.432,916.249,597.689,905.738,608.196
		z"/>
</g>
<g>
	<path fill="#FFFFFF" d="M475.451,292.062c2.286,0,4.253,0.777,5.897,2.332c1.648,1.64,2.47,3.656,2.47,6.034v64.165
		c14.531-10.875,28.195-16.314,40.994-16.314c15.996,0,29.662,5.67,41,17c11.333,11.337,17.001,25.05,17.001,41.137v75.003
		c0,2.282-0.822,4.251-2.466,5.896c-1.646,1.644-3.611,2.466-5.896,2.466h-0.276c-2.378,0-4.386-0.822-6.034-2.466
		c-1.643-1.645-2.464-3.609-2.464-5.896v-75.003c0-11.245-3.978-20.885-11.934-28.931c-8.041-8.045-17.682-12.065-28.931-12.065
		c-11.331,0-21.023,4.021-29.066,12.065c-7.949,8.046-11.928,17.686-11.928,28.931v75.003c0,2.282-0.822,4.251-2.47,5.896
		c-1.644,1.644-3.607,2.466-5.897,2.466h-0.409c-2.284,0-4.251-0.822-5.896-2.466c-1.644-1.645-2.466-3.609-2.466-5.896v-180.99
		c0-2.378,0.822-4.394,2.466-6.034c1.644-1.554,3.607-2.332,5.896-2.332H475.451z"/>
	<path fill="#FFFFFF" d="M623.941,314c-3.106,0-5.711-1.049-7.812-3.151c-2.1-2.1-3.155-4.709-3.155-7.815
		c0-3.015,1.055-5.577,3.155-7.677s4.706-3.155,7.812-3.155c3.021,0,5.577,1.055,7.681,3.155c2.194,2.192,3.287,4.754,3.287,7.677
		c0,3.018-1.092,5.619-3.287,7.815C629.518,312.95,626.961,314,623.941,314z M624.078,348.278c2.284,0,4.253,0.82,5.897,2.468
		c1.646,1.644,2.468,3.656,2.468,6.032v124.639c0,2.282-0.822,4.251-2.468,5.896c-1.644,1.644-3.609,2.466-5.897,2.466h-0.268
		c-2.382,0-4.39-0.822-6.037-2.466c-1.644-1.645-2.466-3.609-2.466-5.896V356.778c0-2.376,0.822-4.388,2.466-6.032
		c1.646-1.648,3.654-2.468,6.037-2.468H624.078z"/>
	<path fill="#FFFFFF" d="M673.851,292.062c2.282,0,4.251,0.777,5.899,2.332c1.641,1.64,2.462,3.656,2.462,6.034v103.241h13.439
		c13.713,0,25.731-4.609,36.062-13.846c10.143-9.231,15.905-20.567,17.275-34.001c0.188-2.1,1.1-3.885,2.748-5.347
		c1.645-1.464,3.516-2.196,5.621-2.196h0.411c2.471,0,4.525,0.918,6.17,2.746c1.647,1.826,2.333,4.024,2.055,6.581
		c-2.012,20.567-12.98,38.303-32.906,53.198c13.897,8.41,23.86,17.87,29.893,28.381c6.307,10.879,9.458,22.625,9.458,35.241v6.992
		c0,2.282-0.818,4.251-2.467,5.896c-1.645,1.644-3.609,2.466-5.896,2.466h-0.415c-2.286,0-4.251-0.822-5.896-2.466
		c-1.644-1.645-2.466-3.609-2.466-5.896v-6.992c-0.094-14.809-5.348-27.381-15.772-37.709
		c-10.511-10.419-23.123-15.632-37.843-15.632H682.22v60.333c0,2.286-0.822,4.255-2.466,5.899c-1.648,1.64-3.613,2.462-5.896,2.462
		h-0.418c-2.282,0-4.248-0.822-5.892-2.462c-1.648-1.645-2.47-3.609-2.47-5.899v-180.99c0-2.378,0.822-4.394,2.47-6.034
		c1.644-1.554,3.602-2.332,5.892-2.332H673.851z"/>
	<path fill="#FFFFFF" d="M926.689,389.685c1.002,2.106,1.092,4.254,0.271,6.444c-0.822,2.1-2.286,3.654-4.389,4.66
		c-12.797,5.76-29.618,13.349-50.46,22.762c-25.867,11.7-44.235,19.97-55.118,24.816c12.797,16.451,27.928,24.68,45.383,24.68
		c11.61,0,22.121-3.425,31.536-10.283c9.047-6.583,15.4-15.173,19.061-25.776c1.37-3.84,4.11-5.764,8.229-5.764
		c2.92,0,5.254,1.189,6.991,3.565c1.645,2.383,1.962,4.937,0.959,7.681c-4.85,13.983-13.298,25.32-25.366,33.999
		c-12.434,8.87-26.236,13.302-41.409,13.302c-19.562,0-36.246-6.901-50.041-20.708c-13.803-13.796-20.708-30.479-20.708-50.041
		s6.905-36.242,20.708-50.045c13.795-13.797,30.479-20.705,50.041-20.705c14.081,0,26.968,3.84,38.669,11.517
		C912.472,367.289,921.021,377.256,926.689,389.685z M862.38,365.687c-14.806,0-27.469,5.259-37.979,15.77
		c-10.421,10.515-15.628,23.173-15.628,37.982c0,2.652,0.454,7.087,1.37,13.3L906.803,389
		C893.822,373.463,879.017,365.687,862.38,365.687z"/>
</g>
<g>
	<path fill="#FFFFFF" d="M464.441,585.39c13.797,13.795,20.702,30.479,20.702,50.045v62.379c0,2.283-0.824,4.256-2.468,5.899
		c-1.645,1.641-3.607,2.467-5.897,2.467h-0.413c-2.284,0-4.253-0.826-5.896-2.467c-1.644-1.644-2.47-3.616-2.47-5.899v-15.49
		c-17.917,15.901-35.784,23.856-53.611,23.856c-19.562,0-36.242-6.901-50.043-20.709c-13.797-13.795-20.7-30.479-20.7-50.036
		s6.903-36.25,20.7-50.045c13.801-13.803,30.481-20.709,50.043-20.709S450.634,571.587,464.441,585.39z M376.411,597.592
		c-10.417,10.511-15.629,23.131-15.629,37.843c0,14.801,5.216,27.469,15.629,37.979c10.515,10.421,23.175,15.627,37.982,15.627
		c14.809,0,27.428-5.214,37.841-15.627c10.515-10.511,15.77-23.175,15.77-37.979c0-14.72-5.255-27.332-15.77-37.843
		c-10.325-10.511-22.944-15.772-37.841-15.772C399.589,581.819,386.925,587.081,376.411,597.592z"/>
	<path fill="#FFFFFF" d="M526.827,508.475c2.28,0,4.253,0.771,5.896,2.325c1.648,1.645,2.466,3.656,2.466,6.036v180.981
		c0,2.279-0.818,4.252-2.466,5.896c-1.642,1.645-3.611,2.471-5.896,2.471h-0.413c-2.286,0-4.253-0.826-5.897-2.471
		c-1.645-1.644-2.464-3.608-2.464-5.896V516.836c0-2.38,0.82-4.392,2.464-6.036c1.644-1.554,3.607-2.325,5.897-2.325H526.827z"/>
	<path fill="#FFFFFF" d="M634.736,564.681c19.558,0,36.242,6.906,50.041,20.709c13.8,13.795,20.705,30.479,20.705,50.045
		c0,19.558-6.905,36.241-20.705,50.036c-13.799,13.808-30.483,20.709-50.041,20.709c-19.565,0-36.248-6.901-50.047-20.709
		c-13.801-13.795-20.703-30.479-20.703-50.036s6.902-36.25,20.703-50.045C598.488,571.587,615.17,564.681,634.736,564.681z
		 M634.736,582.098c-14.811,0-27.473,5.257-37.984,15.771c-10.423,10.507-15.629,23.167-15.629,37.98
		c0,14.715,5.21,27.323,15.629,37.839c10.511,10.515,23.169,15.771,37.984,15.771c14.891,0,27.508-5.257,37.839-15.771
		c10.511-10.516,15.768-23.128,15.768-37.839c0-14.806-5.257-27.474-15.768-37.98C662.244,587.354,649.627,582.098,634.736,582.098z
		"/>
	<path fill="#FFFFFF" d="M737.565,508.475c2.278,0,4.251,0.771,5.896,2.325c1.645,1.645,2.466,3.656,2.466,6.036v64.161
		c14.535-10.875,28.197-16.312,41.002-16.312c15.987,0,29.657,5.673,40.994,17.006c11.333,11.333,17.002,25.046,17.002,41.131v75
		c0,2.283-0.822,4.256-2.471,5.899c-1.644,1.641-3.609,2.467-5.896,2.467h-0.273c-2.377,0-4.385-0.826-6.029-2.467
		c-1.647-1.644-2.47-3.612-2.47-5.899v-75c0-11.243-3.974-20.885-11.928-28.93c-8.041-8.04-17.687-12.064-28.93-12.064
		c-11.337,0-21.029,4.024-29.069,12.064c-7.951,8.045-11.933,17.687-11.933,28.93v75c0,2.283-0.821,4.256-2.466,5.899
		c-1.645,1.641-3.609,2.467-5.896,2.467h-0.415c-2.282,0-4.251-0.826-5.899-2.467c-1.64-1.644-2.462-3.612-2.462-5.899V516.836
		c0-2.376,0.822-4.388,2.462-6.028c1.648-1.558,3.613-2.333,5.899-2.333H737.565L737.565,508.475z"/>
	<path fill="#FFFFFF" d="M993.137,585.39c13.803,13.795,20.704,30.479,20.704,50.045v62.379c0,2.283-0.822,4.256-2.462,5.899
		c-1.652,1.641-3.609,2.467-5.899,2.467h-0.411c-2.29,0-4.255-0.826-5.899-2.467c-1.648-1.644-2.47-3.616-2.47-5.899v-15.49
		c-17.918,15.901-35.784,23.856-53.607,23.856c-19.565,0-36.242-6.901-50.045-20.709c-13.803-13.795-20.704-30.479-20.704-50.036
		s6.901-36.25,20.704-50.045c13.803-13.803,30.479-20.709,50.045-20.709C962.649,564.681,979.334,571.587,993.137,585.39z
		 M905.116,597.592c-10.421,10.511-15.632,23.131-15.632,37.843c0,14.801,5.215,27.469,15.632,37.979
		c10.511,10.421,23.171,15.627,37.976,15.627c14.809,0,27.43-5.214,37.843-15.627c10.511-10.511,15.772-23.175,15.772-37.979
		c0-14.72-5.262-27.332-15.772-37.843c-10.331-10.511-22.943-15.772-37.843-15.772C928.287,581.819,915.627,587.081,905.116,597.592
		z"/>
</g>
</svg>
