<?xml version="1.0" encoding="utf-8"?>
<!-- Generator: Adobe Illustrator 16.0.4, SVG Export Plug-In . SVG Version: 6.00 Build 0)  -->
<!DOCTYPE svg PUBLIC "-//W3C//DTD SVG 1.1//EN" "http://www.w3.org/Graphics/SVG/1.1/DTD/svg11.dtd">
<svg version="1.1" id="Layer_1" xmlns="http://www.w3.org/2000/svg" xmlns:xlink="http://www.w3.org/1999/xlink" x="0px" y="0px"
	 width="1366px" height="994px" viewBox="0 0 1366 994" enable-background="new 0 0 1366 994" xml:space="preserve">
<linearGradient id="SVGID_1_" gradientUnits="userSpaceOnUse" x1="397.4736" y1="1175.8467" x2="390.0894" y2="284.0052" gradientTransform="matrix(0.9999 -0.0125 -0.0113 -1.2044 297.0493 1377.9521)">
	<stop  offset="0" style="stop-color:#75C26B"/>
	<stop  offset="1" style="stop-color:#0F6B38"/>
</linearGradient>
<polygon fill="url(#SVGID_1_)" points="-24,-41.423 -19.87,1031.494 1389.088,1029.237 1384.971,-43.681 "/>
<g>
	<path fill="#EAE8E5" d="M265.629,411.042v125.177h-6.107V428.445l-30.926,84.997l-31.107-84.997v107.774h-6.108V411.042h6.294
		l30.921,84.437l30.745-84.437H265.629z"/>
	<path fill="#EAE8E5" d="M305.446,537.143c-3.703,0-7.191-0.715-10.463-2.131c-3.274-1.416-6.112-3.332-8.52-5.738
		c-2.406-2.402-4.317-5.246-5.743-8.518c-1.423-3.275-2.126-6.758-2.126-10.457v-73.148c0-3.7,0.71-7.187,2.126-10.46
		c1.422-3.27,3.333-6.104,5.743-8.522c2.404-2.403,5.243-4.316,8.52-5.736c3.271-1.422,6.76-2.132,10.463-2.132
		c3.704,0,7.16,0.71,10.366,2.132c3.212,1.42,6.016,3.33,8.422,5.736c2.408,2.415,4.321,5.253,5.741,8.522
		c1.416,3.273,2.128,6.76,2.128,10.46v73.148c0,3.699-0.712,7.182-2.128,10.457c-1.42,3.271-3.333,6.107-5.741,8.518
		c-2.406,2.402-5.213,4.322-8.422,5.738C312.602,536.428,309.149,537.143,305.446,537.143z M305.446,416.405
		c-2.845,0-5.532,0.561-8.059,1.668c-2.535,1.115-4.72,2.603-6.574,4.456c-1.85,1.853-3.33,4.018-4.444,6.488
		c-1.113,2.475-1.667,5.136-1.667,7.975v73.264c0,2.846,0.551,5.535,1.667,8.07c1.114,2.537,2.594,4.729,4.444,6.584
		c1.854,1.855,4.039,3.342,6.574,4.451c2.527,1.115,5.213,1.668,8.059,1.668c2.838,0,5.49-0.553,7.961-1.668
		c2.468-1.109,4.625-2.596,6.481-4.451c1.85-1.855,3.339-4.051,4.444-6.584c1.109-2.535,1.669-5.225,1.669-8.07v-73.264
		c0-2.841-0.556-5.5-1.669-7.975c-1.105-2.471-2.59-4.636-4.444-6.488c-1.854-1.854-4.014-3.341-6.481-4.456
		C310.933,416.965,308.284,416.405,305.446,416.405z"/>
	<path fill="#EAE8E5" d="M370.55,411.042c3.683,0,7.157,0.682,10.414,2.033c3.259,1.358,6.09,3.241,8.49,5.646
		c2.397,2.406,4.3,5.218,5.716,8.426c1.409,3.211,2.124,6.666,2.124,10.373v72.215c0,3.699-0.711,7.162-2.124,10.367
		c-1.417,3.211-3.319,6.021-5.716,8.428c-2.4,2.402-5.231,4.293-8.49,5.645c-3.257,1.357-6.728,2.045-10.414,2.045h-19.37h-1.479
		h-4.632V411.042h4.632h1.479H370.55z M391.178,437.519c0-2.84-0.558-5.493-1.667-7.966c-1.114-2.471-2.594-4.627-4.448-6.48
		c-1.853-1.851-4.017-3.305-6.478-4.353c-2.471-1.042-5.125-1.575-7.958-1.575h-19.447v112.957h19.447
		c2.836,0,5.487-0.523,7.958-1.58c2.467-1.043,4.625-2.492,6.478-4.35c1.85-1.857,3.333-4.01,4.448-6.475
		c1.109-2.475,1.667-5.129,1.667-7.969V437.519z"/>
	<path fill="#EAE8E5" d="M416.547,417.145v47.4h34.999v6.109h-34.999v59.443h42.588v6.111h-42.588h-6.111V411.042h6.111h42.588
		v6.108L416.547,417.145L416.547,417.145z"/>
	<path fill="#EAE8E5" d="M489.683,483.436h-15.184v52.783h-6.112v-52.783v-6.109v-60.181v-6.107h6.112h16.416
		c3.685,0,7.156,0.681,10.411,2.034c3.26,1.358,6.086,3.24,8.483,5.646c2.394,2.409,4.299,5.221,5.715,8.429
		c1.411,3.208,2.124,6.666,2.124,10.37v3.332v16.105c0,3.207-0.558,6.24-1.668,9.076c-1.109,2.838-2.656,5.438-4.625,7.777
		c-1.978,2.346-4.257,4.285-6.852,5.832c-2.592,1.547-5.43,2.623-8.519,3.244l22.59,53.32h-6.481L489.683,483.436z M474.502,477.326
		h16.482c2.838,0,5.49-0.52,7.961-1.574c2.468-1.041,4.625-2.498,6.478-4.348c1.854-1.855,3.335-4.014,4.452-6.48
		c1.111-2.473,1.662-5.129,1.662-7.965V440.85v-3.331c0-2.716-0.551-5.308-1.662-7.778c-1.117-2.475-2.593-4.635-4.452-6.487
		c-1.853-1.848-4.014-3.326-6.478-4.439c-2.468-1.11-5.123-1.664-7.961-1.664h-16.482V477.326z"/>
	<path fill="#EAE8E5" d="M583.195,411.042v125.177h-6.111l-39.253-108.141v108.141h-6.111V411.042h6.111l39.253,108.138V411.042
		H583.195z"/>
</g>
<g>
	<path fill="#EAE8E5" d="M749.456,529.172c2.839,0,5.483-0.555,7.954-1.672c2.476-1.105,4.633-2.586,6.482-4.445
		c1.85-1.85,3.331-4.035,4.443-6.564c1.121-2.533,1.669-5.217,1.669-8.057h6.106c0,3.701-0.707,7.191-2.116,10.463
		c-1.428,3.273-3.339,6.107-5.741,8.521c-2.41,2.402-5.222,4.32-8.431,5.736c-3.208,1.416-6.668,2.125-10.367,2.125
		c-3.709,0-7.191-0.709-10.457-2.125c-3.284-1.416-6.113-3.33-8.531-5.736c-2.402-2.406-4.316-5.248-5.732-8.521
		c-1.424-3.271-2.132-6.758-2.132-10.463V435.29c0-3.7,0.708-7.187,2.132-10.463c1.416-3.268,3.323-6.109,5.732-8.521
		c2.41-2.403,5.247-4.318,8.531-5.733c3.266-1.422,6.748-2.132,10.457-2.132c3.699,0,7.159,0.688,10.367,2.071
		c3.201,1.378,6.013,3.264,8.431,5.642c2.397,2.391,4.313,5.222,5.741,8.491c1.409,3.271,2.116,6.759,2.116,10.46h-6.106
		c0-2.839-0.552-5.49-1.669-7.958c-1.112-2.472-2.587-4.632-4.443-6.482c-1.85-1.853-4.01-3.338-6.482-4.447
		c-2.471-1.108-5.123-1.669-7.954-1.669c-2.845,0-5.528,0.563-8.065,1.674c-2.529,1.112-4.718,2.597-6.568,4.451
		c-1.849,1.852-3.331,4.018-4.443,6.488c-1.105,2.475-1.67,5.136-1.67,7.974v73.264c0,2.848,0.564,5.531,1.67,8.072
		c1.112,2.531,2.595,4.721,4.443,6.578c1.857,1.855,4.039,3.342,6.568,4.451C743.928,528.617,746.611,529.172,749.456,529.172z"/>
	<path fill="#EAE8E5" d="M815.927,535.279c-3.7,0-7.184-0.701-10.456-2.125c-3.273-1.416-6.106-3.328-8.52-5.736
		c-2.41-2.406-4.32-5.248-5.738-8.518c-1.427-3.271-2.131-6.762-2.131-10.467V435.29c0-3.7,0.704-7.187,2.131-10.463
		c1.418-3.268,3.324-6.109,5.738-8.521c2.406-2.403,5.246-4.318,8.52-5.733c3.272-1.422,6.756-2.132,10.456-2.132
		c3.707,0,7.163,0.71,10.372,2.132c3.205,1.415,6.016,3.325,8.43,5.733c2.402,2.409,4.32,5.254,5.737,8.521
		c1.42,3.273,2.124,6.763,2.124,10.463v73.144c0,3.701-0.7,7.195-2.124,10.463c-1.417,3.273-3.331,6.107-5.737,8.521
		c-2.41,2.402-5.218,4.32-8.43,5.736C823.084,534.574,819.634,535.279,815.927,535.279z M815.927,414.547
		c-2.84,0-5.521,0.561-8.054,1.669c-2.537,1.117-4.722,2.602-6.564,4.452c-1.857,1.855-3.342,4.018-4.451,6.492
		c-1.113,2.471-1.666,5.136-1.666,7.969v73.269c0,2.848,0.553,5.535,1.666,8.072c1.109,2.535,2.587,4.725,4.451,6.582
		c1.843,1.852,4.031,3.338,6.564,4.447c2.533,1.117,5.214,1.672,8.054,1.672c2.847,0,5.488-0.559,7.966-1.672
		c2.473-1.109,4.633-2.59,6.479-4.447c1.851-1.857,3.339-4.051,4.444-6.582c1.112-2.537,1.668-5.219,1.668-8.072v-73.264
		c0-2.838-0.556-5.503-1.668-7.974c-1.105-2.471-2.59-4.632-4.444-6.488c-1.85-1.854-4.015-3.339-6.479-4.451
		C821.415,415.111,818.77,414.547,815.927,414.547z"/>
	<path fill="#EAE8E5" d="M929.812,409.18v125.181H923.7V426.587l-30.926,84.997l-31.107-84.997v107.774h-6.105V409.18h6.293
		l30.924,84.437l30.742-84.437H929.812z"/>
	<path fill="#EAE8E5" d="M967.208,409.18c3.707,0,7.136,0.713,10.269,2.13c3.154,1.422,5.93,3.335,8.339,5.739
		c2.403,2.404,4.284,5.216,5.644,8.424c1.358,3.216,2.038,6.604,2.038,10.188v25.551c0,3.584-0.646,6.918-1.94,10
		c-1.297,3.09-3.089,5.803-5.369,8.145c-2.291,2.348-4.935,4.26-7.966,5.744c-3.021,1.48-6.266,2.344-9.72,2.586h-0.925h-0.736
		h-17.968v46.666h-6.109V409.18h3.149h2.965H967.208z M987.395,435.662c0-2.719-0.553-5.313-1.669-7.78
		c-1.113-2.471-2.591-4.633-4.444-6.484c-1.85-1.851-4.014-3.326-6.474-4.44c-2.475-1.114-5.127-1.664-7.961-1.664h-17.966v66.29
		h18.331c2.841,0,5.495-0.557,7.96-1.67c2.472-1.107,4.604-2.586,6.387-4.443c1.786-1.85,3.209-3.982,4.257-6.391
		c1.055-2.404,1.582-5.023,1.582-7.869v-25.547H987.395z"/>
	<path fill="#EAE8E5" d="M1055.906,534.361l-8.699-39.256h-35.924l-8.711,39.256h-6.286l27.77-125.181h10.372l27.777,125.181
		H1055.906z M1012.576,488.988h33.338l-16.663-74.812L1012.576,488.988z"/>
	<path fill="#EAE8E5" d="M1097.753,468.146c3.086,2.471,6.142,5.039,9.17,7.699c3.024,2.658,5.736,5.561,8.147,8.713
		c2.401,3.158,4.35,6.678,5.831,10.57c1.478,3.887,2.214,8.309,2.214,13.262c0,3.707-0.707,7.197-2.116,10.475
		c-1.424,3.27-3.332,6.115-5.741,8.525c-2.41,2.418-5.221,4.332-8.43,5.758c-3.205,1.418-6.669,2.123-10.368,2.123
		c-3.704,0-7.191-0.705-10.464-2.123s-6.105-3.332-8.52-5.738c-2.406-2.406-4.321-5.246-5.734-8.516
		c-1.427-3.273-2.127-6.764-2.127-10.467h6.098c0,2.84,0.561,5.523,1.678,8.055c1.109,2.533,2.587,4.721,4.444,6.57
		c1.85,1.852,4.038,3.33,6.567,4.443c2.537,1.113,5.21,1.662,8.058,1.662c2.839,0,5.495-0.549,7.962-1.662
		c2.472-1.113,4.633-2.592,6.479-4.443c1.85-1.85,3.335-4.039,4.447-6.57c1.109-2.531,1.669-5.215,1.669-8.055
		c0-4.195-0.649-7.963-1.943-11.299c-1.293-3.328-3.021-6.393-5.182-9.166c-2.167-2.773-4.639-5.369-7.413-7.779
		c-2.774-2.402-5.64-4.783-8.605-7.135c-2.974-2.342-5.903-4.771-8.795-7.312c-2.905-2.525-5.495-5.271-7.781-8.238
		c-2.291-2.969-4.138-6.234-5.555-9.812c-1.427-3.58-2.127-7.717-2.127-12.41c0-3.698,0.7-7.183,2.127-10.461
		c1.417-3.268,3.328-6.108,5.738-8.521c2.402-2.404,5.246-4.316,8.516-5.734c3.272-1.421,6.764-2.132,10.464-2.132
		c3.699,0,7.163,0.689,10.368,2.072c3.209,1.373,6.013,3.263,8.43,5.643c2.406,2.39,4.317,5.221,5.741,8.49
		c1.409,3.271,2.12,6.759,2.12,10.459h-6.103c0-2.838-0.56-5.489-1.672-7.957c-1.109-2.472-2.591-4.633-4.444-6.482
		c-1.854-1.854-4.014-3.338-6.479-4.447c-2.471-1.108-5.129-1.669-7.962-1.669c-2.848,0-5.528,0.563-8.061,1.673
		c-2.534,1.112-4.723,2.598-6.564,4.451c-1.857,1.854-3.335,4.018-4.444,6.488c-1.113,2.475-1.674,5.135-1.674,7.972
		c0,3.961,0.618,7.454,1.854,10.479c1.225,3.035,2.861,5.844,4.906,8.439c2.038,2.6,4.385,5.043,7.034,7.324
		C1092.175,463.666,1094.914,465.922,1097.753,468.146z"/>
	<path fill="#EAE8E5" d="M1164.231,468.146c3.089,2.471,6.139,5.039,9.169,7.699c3.021,2.658,5.738,5.561,8.145,8.713
		c2.406,3.158,4.35,6.678,5.832,10.57c1.48,3.887,2.219,8.309,2.219,13.262c0,3.707-0.71,7.197-2.119,10.475
		c-1.422,3.27-3.338,6.115-5.744,8.525c-2.406,2.418-5.217,4.332-8.425,5.758c-3.208,1.418-6.67,2.123-10.37,2.123
		c-3.706,0-7.193-0.705-10.47-2.123c-3.267-1.418-6.096-3.332-8.512-5.738c-2.406-2.406-4.321-5.246-5.738-8.516
		c-1.419-3.273-2.123-6.764-2.123-10.467h6.103c0,2.84,0.559,5.523,1.668,8.055c1.109,2.533,2.59,4.721,4.447,6.57
		c1.85,1.852,4.031,3.33,6.562,4.443c2.536,1.113,5.217,1.662,8.063,1.662c2.84,0,5.488-0.549,7.96-1.662s4.635-2.592,6.478-4.443
		c1.854-1.85,3.335-4.039,4.444-6.57c1.116-2.531,1.674-5.215,1.674-8.055c0-4.195-0.647-7.963-1.945-11.299
		c-1.296-3.328-3.022-6.393-5.185-9.166c-2.168-2.773-4.631-5.369-7.406-7.779c-2.775-2.402-5.646-4.783-8.613-7.135
		c-2.963-2.342-5.903-4.771-8.795-7.312c-2.903-2.525-5.495-5.271-7.777-8.238c-2.288-2.969-4.145-6.234-5.557-9.812
		c-1.42-3.58-2.129-7.717-2.129-12.41c0-3.698,0.709-7.183,2.129-10.461c1.412-3.268,3.327-6.108,5.733-8.521
		c2.414-2.404,5.253-4.316,8.52-5.734c3.276-1.421,6.764-2.132,10.47-2.132c3.7,0,7.158,0.689,10.363,2.072
		c3.208,1.373,6.022,3.263,8.425,5.643c2.406,2.39,4.329,5.221,5.744,8.49c1.413,3.271,2.126,6.759,2.126,10.459h-6.103
		c0-2.838-0.561-5.489-1.674-7.957c-1.109-2.472-2.587-4.633-4.444-6.482c-1.846-1.854-4.006-3.338-6.478-4.447
		c-2.472-1.108-5.124-1.669-7.96-1.669c-2.847,0-5.527,0.563-8.063,1.673c-2.534,1.112-4.719,2.598-6.562,4.451
		c-1.851,1.854-3.338,4.018-4.447,6.488c-1.109,2.475-1.668,5.135-1.668,7.972c0,3.961,0.613,7.454,1.852,10.479
		c1.229,3.035,2.862,5.844,4.903,8.439c2.038,2.6,4.383,5.043,7.041,7.324C1158.646,463.666,1161.392,465.922,1164.231,468.146z"/>
</g>
<path fill="#D42F2E" d="M714.875,442.053c0-32.977-26.739-59.714-59.71-59.714c-32.979,0-59.704,23.198-59.704,59.714
	c0,36.51,60.763,101.797,60.763,101.797S714.875,479.422,714.875,442.053z"/>
<path fill="#B72327" d="M635.347,472.391l43.227,44.148c0,0,30.098-40.064,34.184-60.791c2.319-11.77,2.117-13.693,2.117-13.693
	l-32.191-32.17c0,0,3.646,6.276,5.438,12.056c1.789,5.775,12.19,16.919,0.849,32.244
	C677.619,469.506,673.191,478.367,635.347,472.391z"/>
<circle fill="#EAE8E5" cx="655.165" cy="438.205" r="28.332"/>
<g>
	<path fill="#EAE8E5" d="M655.165,477.725c-21.792,0-39.517-17.723-39.517-39.518c0-21.789,17.729-39.514,39.517-39.514
		c21.788,0,39.521,17.725,39.521,39.514C694.687,460.002,676.957,477.725,655.165,477.725z M655.165,402.557
		c-19.66,0-35.648,15.993-35.648,35.653c0,19.661,15.989,35.655,35.648,35.655c19.664,0,35.651-15.994,35.651-35.655
		C690.816,418.55,674.829,402.557,655.165,402.557z"/>
</g>
<polygon fill="#B72327" points="666.031,444.6 669.339,418.317 645.983,431.445 643.241,458.092 "/>
<polygon fill="#BEBEC0" points="645.983,431.445 643.241,458.096 666.031,444.6 "/>
</svg>
