<?xml version="1.0" encoding="utf-8"?>
<!-- Generator: Adobe Illustrator 16.0.4, SVG Export Plug-In . SVG Version: 6.00 Build 0)  -->
<!DOCTYPE svg PUBLIC "-//W3C//DTD SVG 1.1//EN" "http://www.w3.org/Graphics/SVG/1.1/DTD/svg11.dtd">
<svg version="1.1" xmlns="http://www.w3.org/2000/svg" xmlns:xlink="http://www.w3.org/1999/xlink" x="0px" y="0px" width="150px"
	 height="150px" viewBox="0 0 150 150" enable-background="new 0 0 150 150" xml:space="preserve">
<g id="Layer_1">
</g>
<g id="Layer_2">
	<rect fill="#84D1DD" width="150" height="150"/>
</g>
<g id="Layer_10">
	<path fill="#272730" d="M124.5,141.379c0,6.877-5.373,12.453-12,12.453H39.667c-6.627,0-12-5.576-12-12.453v-27.676
		c0-6.877,5.373-12.453,12-12.453H112.5c6.627,0,12,5.576,12,12.453V141.379z"/>
</g>
<g id="Layer_8">
	<path fill="#F9D6C3" d="M54.1,112.385c0.834,0.834,5.023,9.178,11.22,9.178h19.098c6.196,0,11.221-7.531,11.221-9.178v-4.207
		c0-5.069-5.024-9.178-11.221-9.178H65.32c-6.197,0-11.22,4.108-11.22,9.178V112.385z"/>
	<ellipse fill="#DBB9A9" cx="74.78" cy="97.098" rx="22.343" ry="15.783"/>
</g>
<g id="Layer_9">
	<g>
		<path fill="#434359" d="M75.279,126.229c-13.111,0-23.777-10.666-23.777-23.777h5c0,10.354,8.423,18.777,18.777,18.777
			c10.354,0,18.777-8.424,18.777-18.777h5C99.057,115.563,88.391,126.229,75.279,126.229z"/>
	</g>
</g>
<g id="base">
	<circle fill="#F9D6C3" cx="75" cy="69.152" r="40.77"/>
	<circle fill="#272730" cx="95.638" cy="65.854" r="3.296"/>
	<circle fill="#272730" cx="54.1" cy="65.854" r="3.296"/>
	<path fill="#434359" d="M56.958,75c0,9.771,7.921,17.691,17.692,17.691c9.771,0,17.692-7.921,17.692-17.691H56.958z"/>
</g>
<g id="Layer_11">
	<path fill="#DF6162" d="M63.787,88.959c0,0,5.771-4.292,11.492-4.292s11.908,2.813,11.908,2.813s-4.562,5.211-12.407,5.211
		C67.781,92.691,63.787,88.959,63.787,88.959z"/>
</g>
<g id="Layer_4">
	<path fill="none" stroke="#434359" stroke-width="2" stroke-linecap="round" stroke-miterlimit="10" d="M59.303,60.575
		c0-1.814-2.33-3.286-5.203-3.286c-2.874,0-5.203,1.471-5.203,3.286"/>
	<path fill="none" stroke="#434359" stroke-width="2" stroke-linecap="round" stroke-miterlimit="10" d="M100.841,60.575
		c0-1.814-2.329-3.286-5.202-3.286c-2.874,0-5.203,1.471-5.203,3.286"/>
</g>
<g id="Layer_7">
	<path fill="#272730" d="M34.371,66.052c0,0,5.879-11.152,9.379-16.021c2.046-2.846,10.355-2.887,15.553-2.68
		S83.25,45.077,89,46.111c5.75,1.034,8.716,0.405,13.125,2.482s4.75,3.652,7.5,9.411S115.77,67,115.77,67s0.666-13.15-1.27-21.717
		c-1.25-5.534-5.161-7.542-5.75-8.273C107.25,35.149,94,23.153,88.5,19.017S76,12.605,75,13.846c-1,1.241-12.835,7.859-18.042,9.514
		S45.44,29.522,39.25,35.052c-3.019,2.696-2.75,5.202-5.02,13.333C33.409,51.328,34.371,66.052,34.371,66.052z"/>
</g>
<g id="Layer_5">
	<path fill="#434359" d="M74.108,26.244c0,0-2.931,8.141-3.415,11.378c-0.485,3.237-0.512,5.407-0.512,5.407l-2.968,1.403
		c0,0,1.657-8.077,2.802-10.747C71.159,31.016,74.108,26.244,74.108,26.244z"/>
	<path fill="#434359" d="M83.635,30.008c0,0,3.718,6.562,4.532,9.297s1.07,4.625,1.07,4.625l3.042,0.673c0,0-2.47-6.743-3.868-8.86
		S83.635,30.008,83.635,30.008z"/>
	<path fill="#434359" d="M76.078,17.572c0,0,4.773,5.381,6.273,7.648c1.502,2.267,2.334,3.842,2.334,3.842l2.259,0.466
		c0,0-4.006-5.573-5.679-7.303C79.594,20.495,76.078,17.572,76.078,17.572z"/>
	<path fill="#434359" d="M77.641,22.701c0,0,2.785,4.544,3.614,6.379c0.829,1.836,1.263,3.079,1.263,3.079l1.487,0.678
		c0,0-2.251-4.562-3.239-6.043S77.641,22.701,77.641,22.701z"/>
	<path fill="#434359" d="M80.823,33.737c0,0,2.785,4.544,3.614,6.379c0.829,1.836,1.263,3.079,1.263,3.079l1.487,0.678
		c0,0-2.251-4.562-3.239-6.043S80.823,33.737,80.823,33.737z"/>
	<path fill="#434359" d="M88.42,32.231c0,0,3.802,6.106,4.899,8.593c1.1,2.487,1.655,4.18,1.655,4.18l2.148,0.839
		c0,0-3.013-6.167-4.371-8.153C91.395,35.704,88.42,32.231,88.42,32.231z"/>
	<path fill="#434359" d="M75.664,17.673c0,0-5.799,7.687-7.672,10.805c-1.874,3.118-2.942,5.236-2.942,5.236l-2.56,1.1
		c0,0,4.958-7.742,6.977-10.245C71.484,22.066,75.664,17.673,75.664,17.673z"/>
	<path fill="#434359" d="M70.259,22.935c0,0-5.711,4.374-7.615,6.314c-1.906,1.939-3.023,3.327-3.023,3.327l-2.306,0.027
		c0,0,4.994-4.708,6.965-6.087C66.251,25.135,70.259,22.935,70.259,22.935z"/>
	<path fill="#434359" d="M60.816,32.232c0,0-3.802,6.106-4.899,8.593c-1.1,2.487-1.655,4.18-1.655,4.18l-2.148,0.839
		c0,0,3.013-6.167,4.371-8.153C57.841,35.705,60.816,32.232,60.816,32.232z"/>
	<path fill="#434359" d="M66.906,35.462c0,0-2.104,3.998-2.349,5.694c-0.245,1.696-0.151,2.879-0.151,2.879l-2.5,0.302
		c0,0,1.001-4.163,1.853-5.444C64.605,37.612,66.906,35.462,66.906,35.462z"/>
	<path fill="#434359" d="M56.353,33.531c0,0-4.214,5.865-5.239,8.398c-1.029,2.533-1.433,4.319-1.433,4.319L46.61,46.53
		c0,0,2.988-6.188,4.545-8.057C52.711,36.605,56.353,33.531,56.353,33.531z"/>
	<path fill="#434359" d="M87.188,30.814c0,0,7.159,6.439,9.593,9.142c2.435,2.703,3.887,4.579,3.887,4.579l2.724,0.591
		c0,0-6.346-6.652-8.804-8.724C92.128,34.329,87.188,30.814,87.188,30.814z"/>
	<path fill="#434359" d="M76.078,26.735c0,0,2.836,7.678,3.285,10.742c0.451,3.065,0.456,5.124,0.456,5.124l2.942,1.283
		c0,0-1.568-7.639-2.681-10.154C78.967,31.215,76.078,26.735,76.078,26.735z"/>
	<path fill="#434359" d="M64.077,30.416c0,0-3.725,7.528-4.531,10.602c-0.807,3.074-1.053,5.169-1.053,5.169l-3.083,1.007
		c0,0,2.457-7.616,3.86-10.063C60.672,34.683,64.077,30.416,64.077,30.416z"/>
	<path fill="#434359" d="M75.075,27.769c0,0-0.996,8.101-0.967,8.413s1.467,7.312,1.467,7.312l0.875-7.754L75.075,27.769z"/>
</g>
</svg>
