<?xml version="1.0" encoding="utf-8"?>
<!-- Generator: Adobe Illustrator 16.0.4, SVG Export Plug-In . SVG Version: 6.00 Build 0)  -->
<!DOCTYPE svg PUBLIC "-//W3C//DTD SVG 1.1//EN" "http://www.w3.org/Graphics/SVG/1.1/DTD/svg11.dtd">
<svg version="1.1" xmlns="http://www.w3.org/2000/svg" xmlns:xlink="http://www.w3.org/1999/xlink" x="0px" y="0px" width="200px"
	 height="200px" viewBox="0 0 200 200" enable-background="new 0 0 200 200" xml:space="preserve">
<g id="Layer_1">
	<g id="Layer_1_1_">
		<path fill="none" stroke="#231F20" stroke-width="5" stroke-miterlimit="10" d="M139.053,176.723c0,6.627-5.373,12-12,12H35.217
			c-6.627,0-12-5.373-12-12V30.047c0-6.627,5.373-12,12-12h91.836c6.627,0,12,5.373,12,12V176.723z"/>
	</g>
	<g id="Layer_4">
		<path fill="none" stroke="#231F20" stroke-width="5" stroke-miterlimit="10" d="M56.31,54.363c0,3.263-2.646,5.909-5.909,5.909
			H40.27c-3.263,0-5.909-2.646-5.909-5.909V44.232c0-3.263,2.646-5.909,5.909-5.909h10.131c3.263,0,5.909,2.646,5.909,5.909V54.363z
			"/>
		<path fill="none" stroke="#231F20" stroke-width="5" stroke-miterlimit="10" d="M56.31,92.268c0,3.263-2.646,5.909-5.909,5.909
			H40.27c-3.263,0-5.909-2.646-5.909-5.909V82.136c0-3.263,2.646-5.909,5.909-5.909h10.131c3.263,0,5.909,2.646,5.909,5.909V92.268z
			"/>
		<path fill="none" stroke="#231F20" stroke-width="5" stroke-miterlimit="10" d="M56.31,127.383c0,3.264-2.646,5.909-5.909,5.909
			H40.27c-3.263,0-5.909-2.646-5.909-5.909v-10.131c0-3.264,2.646-5.908,5.909-5.908h10.131c3.263,0,5.909,2.646,5.909,5.908
			V127.383z"/>
		<path fill="none" stroke="#231F20" stroke-width="5" stroke-miterlimit="10" d="M56.31,162.172c0,3.264-2.646,5.909-5.909,5.909
			H40.27c-3.263,0-5.909-2.646-5.909-5.909v-10.131c0-3.264,2.646-5.908,5.909-5.908h10.131c3.263,0,5.909,2.645,5.909,5.908
			V162.172z"/>
		<path fill="#FFFFFF" d="M123.805,48.7c0,2.18-2.035,3.948-4.547,3.948H74.683c-2.51,0-4.545-1.768-4.545-3.948l0,0
			c0-2.18,2.035-3.948,4.545-3.948h44.575C121.77,44.752,123.805,46.52,123.805,48.7L123.805,48.7z"/>
		<path fill="#FFFFFF" d="M123.805,87.202c0,2.18-2.035,3.948-4.547,3.948H74.683c-2.51,0-4.545-1.768-4.545-3.948l0,0
			c0-2.18,2.035-3.948,4.545-3.948h44.575C121.77,83.254,123.805,85.021,123.805,87.202L123.805,87.202z"/>
		<path fill="#FFFFFF" d="M123.805,122.316c0,2.182-2.035,3.949-4.547,3.949H74.683c-2.51,0-4.545-1.769-4.545-3.949l0,0
			c0-2.181,2.035-3.947,4.545-3.947h44.575C121.77,118.369,123.805,120.137,123.805,122.316L123.805,122.316z"/>
		<path fill="#231F20" d="M123.805,157.105c0,2.182-2.035,3.949-4.547,3.949H74.683c-2.51,0-4.545-1.769-4.545-3.949l0,0
			c0-2.181,2.035-3.947,4.545-3.947h44.575C121.77,153.158,123.805,154.926,123.805,157.105L123.805,157.105z"/>
		<path fill="#77C043" d="M44.093,48.863c1.075,1.377,0.89,3.319-0.415,4.338l0,0c-1.305,1.019-3.235,0.729-4.311-0.648
			L29.37,39.756c-1.076-1.377-0.889-3.319,0.415-4.338l0,0c1.305-1.019,3.234-0.729,4.31,0.647L44.093,48.863z"/>
		<path fill="#77C043" d="M42.623,54.188c-0.617,0.494-1.956-0.153-2.99-1.445l0,0c-1.035-1.292-1.374-2.74-0.757-3.235l5.732-4.589
			c0.617-0.494,1.956,0.154,2.991,1.446l0,0c1.035,1.292,1.374,2.74,0.757,3.234L42.623,54.188z"/>
	</g>
	<g id="Layer_3">
		<circle fill="#FFFFFF" stroke="#231F20" stroke-width="5" stroke-miterlimit="10" cx="114.473" cy="74.017" r="65.396"/>
		<path fill="#231F20" d="M194.84,151.298c2.635,2.634,2.635,6.904-0.001,9.539l0,0c-2.634,2.634-6.903,2.634-9.537,0
			l-28.616-28.616c-2.635-2.635-2.635-6.904,0-9.539l0,0c2.633-2.635,6.903-2.635,9.537,0L194.84,151.298z"/>
	</g>
	<g id="Layer_5">
		<path fill="none" stroke="#231F20" stroke-width="8" stroke-linecap="round" stroke-linejoin="round" stroke-miterlimit="10" d="
			M137.779,24.673c0,0,22.846,10.452,22.846,31.702"/>
	</g>
	<g id="Layer_6">
		<path fill="#231F20" d="M122.264,92.28c8.441,0,15.287,0.856,15.287,1.913v6.792c0,1.057-6.846,1.912-15.287,1.912H67.956
			c-8.444,0-15.288-0.855-15.288-1.912v-6.792c0-1.057,6.844-1.913,15.288-1.913H122.264z"/>
		<path fill="#231F20" d="M126.749,120.957c5.965,0,10.802,0.855,10.802,1.913v6.792c0,1.056-4.837,1.911-10.802,1.911H88.377
			c-5.966,0-10.801-0.855-10.801-1.911l-3.889-6.792c0-1.058,0-1.913,14.69-1.913H126.749z"/>
		<path fill="#231F20" d="M121.543,73.097c8.839,0,16.008,0.856,16.008,1.913v6.792c0,1.056-7.169,1.911-16.008,1.911h-56.87
			c-8.842,0-16.009-0.855-16.009-1.911V75.01c0-1.057,7.167-1.913,16.009-1.913H121.543z"/>
		<path fill="#231F20" d="M121.818,55.965c8.688,0,15.731,0.856,15.731,1.913v6.792c0,1.056-7.045,1.911-15.731,1.911H65.93
			c-8.689,0-15.733-0.855-15.733-1.911v-6.792c0-1.057,7.044-1.913,15.733-1.913H121.818z"/>
		<path fill="#231F20" d="M122.389,38.323c8.373,0,15.162,0.856,15.162,1.913v6.792c0,1.056-6.789,1.911-15.162,1.911H68.524
			c-8.375,0-15.163-0.855-15.163-1.911l2.949-6.504c0-1.057,3.84-2.201,12.214-2.201H122.389z"/>
	</g>
</g>
<g id="Layer_2">
</g>
</svg>
