<?xml version="1.0" encoding="utf-8"?>
<!-- Generator: Adobe Illustrator 16.0.4, SVG Export Plug-In . SVG Version: 6.00 Build 0)  -->
<!DOCTYPE svg PUBLIC "-//W3C//DTD SVG 1.1//EN" "http://www.w3.org/Graphics/SVG/1.1/DTD/svg11.dtd">
<svg version="1.1" xmlns="http://www.w3.org/2000/svg" xmlns:xlink="http://www.w3.org/1999/xlink" x="0px" y="0px"
	 width="458.016px" height="300px" viewBox="0 0 458.016 300" enable-background="new 0 0 458.016 300" xml:space="preserve">
<g id="Layer_2" display="none">
	
		<image display="inline" overflow="visible" width="3670" height="2462" xlink:href="../../../../Downloads/aleks-dorohovich-26.jpg"  transform="matrix(0.2111 0 0 0.2111 83.3501 -53.8589)">
	</image>
</g>
<g id="Layer_10" display="none">
	<g id="rUll4Q.tif" display="inline">
		
			<image overflow="visible" width="691" height="281" id="Layer_0_1_" xlink:href="BC14F87FE8EA969A.png"  transform="matrix(-1.723757e-08 0.3943 -0.3943 -1.723757e-08 113.7661 -50)">
		</image>
	</g>
</g>
<g id="Layer_11">
	<path fill="#272730" d="M101.016,164.833c-0.661,0-0.5,3.501-0.5,3.501h-92V3.833h91.999c0,0,0.083,0.084,0.083,1.667
		s3.75,1.584,3.75,1.584v157.747C104.35,164.832,102.85,164.833,101.016,164.833z"/>
</g>
<g id="Layer_12">
	<path fill="#434359" d="M100.016,155.588c0,6.671-0.5,7.079-7.285,7.079H21.051c-6.785,0-7.285-0.408-7.285-7.079V16.579
		c0-6.671,0.5-7.079,7.285-7.079h71.681c6.785,0,7.285,0.408,7.285,7.079V155.588z"/>
	<path fill="#434359" d="M105.35,31.167c0,0.276-0.224,0.5-0.5,0.5l0,0c-0.276,0-0.5-0.224-0.5-0.5V26c0-0.276,0.224-0.5,0.5-0.5
		l0,0c0.276,0,0.5,0.224,0.5,0.5V31.167z"/>
	<path fill="#434359" d="M105.35,39.729c0,0.276-0.224,0.5-0.5,0.5l0,0c-0.276,0-0.5-0.224-0.5-0.5v-5.167
		c0-0.276,0.224-0.5,0.5-0.5l0,0c0.276,0,0.5,0.224,0.5,0.5V39.729z"/>
</g>
<g id="Layer_13">
	<path fill="#DE6162" d="M104.35,184.416c0,6.5-8.292,15.251-16,15.251H28.517c-7.375,0-19.563-8.042-19.563-15.229l-0.437-12.104
		v-4H94.35c6.627,0,10,0,10,0V184.416z"/>
	<path fill="#66B9C1" d="M104.35-12.082c0-6.5-8.292-15.251-16-15.251H28.517c-7.375,0-19.563,8.042-19.563,15.229L8.517,0v4H94.35
		c6.627,0,10,0,10,0V-12.082z"/>
</g>
<g id="Layer_14">
	<circle fill="#434359" cx="80.599" cy="175.084" r="3.583"/>
	<circle fill="#434359" cx="54.192" cy="182.668" r="7.458"/>
	<circle fill="#3B3B4F" cx="54.192" cy="182.667" r="5.084"/>
	<circle fill="#434359" cx="73.432" cy="182.667" r="3.583"/>
	<circle fill="#504F66" cx="35.951" cy="177.582" r="3.74"/>
	<circle fill="#434359" cx="35.951" cy="177.582" r="2.508"/>
	<circle fill="#434359" cx="87.766" cy="182.667" r="3.583"/>
	<circle fill="#434359" cx="80.599" cy="190.417" r="3.583"/>
	<rect x="92.766" y="172.459" fill="#434359" width="5.125" height="1.457"/>
	<rect x="94.6" y="170.625" fill="#434359" width="1.457" height="5.125"/>
	<rect x="53.784" y="175.208" fill="#3B3B4F" width="0.816" height="2.386"/>
	<rect x="53.784" y="187.751" fill="#3B3B4F" width="0.816" height="2.386"/>
	<rect x="46.733" y="182.258" fill="#3B3B4F" width="2.386" height="0.816"/>
	<rect x="59.276" y="182.258" fill="#3B3B4F" width="2.386" height="0.816"/>
</g>
<g id="base">
	<path fill="#C6C6C5" d="M423.349,158c0,6.627-5.373,12-12,12h-278c-6.627,0-12-5.373-12-12V-25.333c0-6.627,5.373-12,12-12h278
		c6.627,0,12,5.373,12,12V158z"/>
	<path fill="#B5B5B6" d="M296.639,169.999L296.639,169.999c0-1.438-1.166-2.604-2.604-2.604h-54.458
		c-1.438,0-2.604,1.166-2.604,2.604l0,0H296.639z"/>
</g>
<g id="trackpad">
	<path fill="#D4CDCD" d="M211.35,150.667c0,6.627,5.373,12,12,12h83.333c6.628,0,12-5.373,12-12V109c0-6.627-5.372-12-12-12H223.35
		c-6.627,0-12,5.373-12,12V150.667z"/>
</g>
<g id="Layer_5">
	<path fill="#B5B5B6" d="M404.016,79c0,6.627-5.373,12-12,12h-239.5c-6.627,0-12-5.373-12-12V-7c0-6.627,5.373-12,12-12h239.5
		c6.627,0,12,5.373,12,12V79z"/>
</g>
<g id="Layer_6">
	<path fill="#636281" d="M371.469,14.419c0,0.934-0.476,1.409-1.409,1.409h-12.01c-0.934,0-1.409-0.475-1.409-1.409V2.409
		c0-0.934,0.476-1.409,1.409-1.409h12.01c0.934,0,1.409,0.475,1.409,1.409V14.419z"/>
	<path fill="#636281" d="M398.349,14.419c0,0.934-0.775,1.409-2.296,1.409h-19.569c-1.521,0-2.296-0.475-2.296-1.409V2.409
		c0-0.934,0.775-1.409,2.296-1.409h19.569c1.521,0,2.296,0.475,2.296,1.409V14.419z"/>
	<path fill="#636281" d="M169.68,31.506c0,0.934-0.775,1.409-2.296,1.409h-19.569c-1.521,0-2.296-0.475-2.296-1.409v-12.01
		c0-0.934,0.775-1.409,2.296-1.409h19.569c1.521,0,2.296,0.475,2.296,1.409V31.506z"/>
	<path fill="#636281" d="M175.349,48.482c0,0.934-0.958,1.409-2.834,1.409h-24.161c-1.877,0-2.834-0.475-2.834-1.409v-12.01
		c0-0.934,0.958-1.409,2.834-1.409h24.161c1.877,0,2.834,0.475,2.834,1.409V48.482z"/>
	<path fill="#636281" d="M184.266,65.482c0,0.934-1.244,1.409-3.682,1.409h-31.384c-2.438,0-3.682-0.475-3.682-1.409v-12.01
		c0-0.934,1.244-1.409,3.682-1.409h31.384c2.438,0,3.682,0.475,3.682,1.409V65.482z"/>
	<path fill="#636281" d="M398.436,48.482c0,0.934-0.865,1.409-2.562,1.409h-21.844c-1.696,0-2.562-0.475-2.562-1.409v-12.01
		c0-0.934,0.865-1.409,2.562-1.409h21.844c1.696,0,2.562,0.475,2.562,1.409V48.482z"/>
	<path fill="#636281" d="M398.436,65.482c0,0.934-1.177,1.409-3.483,1.409H365.25c-2.307,0-3.483-0.475-3.483-1.409v-12.01
		c0-0.934,1.177-1.409,3.483-1.409h29.703c2.307,0,3.483,0.475,3.483,1.409V65.482z"/>
	<path fill="#636281" d="M354.344,14.419c0,0.934-0.476,1.409-1.409,1.409h-12.01c-0.934,0-1.409-0.475-1.409-1.409V2.409
		c0-0.934,0.476-1.409,1.409-1.409h12.01c0.934,0,1.409,0.475,1.409,1.409V14.419z"/>
	<path fill="#636281" d="M336.594,14.419c0,0.934-0.476,1.409-1.409,1.409h-12.01c-0.934,0-1.409-0.475-1.409-1.409V2.409
		c0-0.934,0.476-1.409,1.409-1.409h12.01c0.934,0,1.409,0.475,1.409,1.409V14.419z"/>
	<path fill="#636281" d="M319.469,14.419c0,0.934-0.476,1.409-1.409,1.409h-12.01c-0.934,0-1.409-0.475-1.409-1.409V2.409
		c0-0.934,0.476-1.409,1.409-1.409h12.01c0.934,0,1.409,0.475,1.409,1.409V14.419z"/>
	<path fill="#636281" d="M301.68,14.419c0,0.934-0.476,1.409-1.409,1.409h-12.01c-0.934,0-1.409-0.475-1.409-1.409V2.409
		c0-0.934,0.476-1.409,1.409-1.409h12.01c0.934,0,1.409,0.475,1.409,1.409V14.419z"/>
	<path fill="#636281" d="M284.555,14.419c0,0.934-0.476,1.409-1.409,1.409h-12.01c-0.934,0-1.409-0.475-1.409-1.409V2.409
		c0-0.934,0.476-1.409,1.409-1.409h12.01c0.934,0,1.409,0.475,1.409,1.409V14.419z"/>
	<path fill="#636281" d="M266.805,14.419c0,0.934-0.476,1.409-1.409,1.409h-12.01c-0.934,0-1.409-0.475-1.409-1.409V2.409
		c0-0.934,0.476-1.409,1.409-1.409h12.01c0.934,0,1.409,0.475,1.409,1.409V14.419z"/>
	<path fill="#636281" d="M249.68,14.419c0,0.934-0.476,1.409-1.409,1.409h-12.01c-0.934,0-1.409-0.475-1.409-1.409V2.409
		c0-0.934,0.476-1.409,1.409-1.409h12.01c0.934,0,1.409,0.475,1.409,1.409V14.419z"/>
	<path fill="#636281" d="M213.68,14.419c0,0.934-0.476,1.409-1.409,1.409h-12.01c-0.934,0-1.409-0.475-1.409-1.409V2.409
		c0-0.934,0.476-1.409,1.409-1.409h12.01c0.934,0,1.409,0.475,1.409,1.409V14.419z"/>
	<path fill="#636281" d="M231.347,14.419c0,0.934-0.476,1.409-1.409,1.409h-12.01c-0.934,0-1.409-0.475-1.409-1.409V2.409
		c0-0.934,0.476-1.409,1.409-1.409h12.01c0.934,0,1.409,0.475,1.409,1.409V14.419z"/>
	<path fill="#636281" d="M195.68,14.419c0,0.934-0.476,1.409-1.409,1.409h-12.01c-0.934,0-1.409-0.475-1.409-1.409V2.409
		c0-0.934,0.476-1.409,1.409-1.409h12.01c0.934,0,1.409,0.475,1.409,1.409V14.419z"/>
	<path fill="#636281" d="M178.014,14.419c0,0.934-0.476,1.409-1.409,1.409h-12.01c-0.934,0-1.409-0.475-1.409-1.409V2.409
		c0-0.934,0.476-1.409,1.409-1.409h12.01c0.934,0,1.409,0.475,1.409,1.409V14.419z"/>
	<path fill="#636281" d="M160.347,14.419c0,0.934-0.476,1.409-1.409,1.409h-12.01c-0.934,0-1.409-0.475-1.409-1.409V2.409
		c0-0.934,0.476-1.409,1.409-1.409h12.01c0.934,0,1.409,0.475,1.409,1.409V14.419z"/>
	<path fill="#636281" d="M381.136,31.506c0,0.934-0.476,1.409-1.409,1.409h-12.01c-0.934,0-1.409-0.475-1.409-1.409v-12.01
		c0-0.934,0.476-1.409,1.409-1.409h12.01c0.934,0,1.409,0.475,1.409,1.409V31.506z"/>
	<path fill="#636281" d="M398.349,31.506c0,0.934-0.476,1.409-1.409,1.409h-12.01c-0.934,0-1.409-0.475-1.409-1.409v-12.01
		c0-0.934,0.476-1.409,1.409-1.409h12.01c0.934,0,1.409,0.475,1.409,1.409V31.506z"/>
	<path fill="#636281" d="M329.136,83.881c0,1.001-0.648,1.51-1.92,1.51h-16.365c-1.272,0-1.92-0.509-1.92-1.51V71.01
		c0-1.001,0.648-1.51,1.92-1.51h16.365c1.271,0,1.92,0.509,1.92,1.51V83.881z"/>
	<path fill="#636281" d="M306.622,83.881c0,1.001-2.781,1.51-8.234,1.51h-70.185c-5.457,0-8.236-0.509-8.236-1.51V71.01
		c0-1.001,2.779-1.51,8.236-1.51h70.185c5.453,0,8.234,0.509,8.234,1.51V83.881z"/>
	<path fill="#636281" d="M364.011,31.506c0,0.934-0.476,1.409-1.409,1.409h-12.01c-0.934,0-1.409-0.475-1.409-1.409v-12.01
		c0-0.934,0.476-1.409,1.409-1.409h12.01c0.934,0,1.409,0.475,1.409,1.409V31.506z"/>
	<path fill="#636281" d="M346.261,31.506c0,0.934-0.476,1.409-1.409,1.409h-12.01c-0.934,0-1.409-0.475-1.409-1.409v-12.01
		c0-0.934,0.476-1.409,1.409-1.409h12.01c0.934,0,1.409,0.475,1.409,1.409V31.506z"/>
	<path fill="#636281" d="M329.136,31.506c0,0.934-0.476,1.409-1.409,1.409h-12.01c-0.934,0-1.409-0.475-1.409-1.409v-12.01
		c0-0.934,0.476-1.409,1.409-1.409h12.01c0.934,0,1.409,0.475,1.409,1.409V31.506z"/>
	<path fill="#636281" d="M311.347,31.506c0,0.934-0.476,1.409-1.409,1.409h-12.01c-0.934,0-1.409-0.475-1.409-1.409v-12.01
		c0-0.934,0.476-1.409,1.409-1.409h12.01c0.934,0,1.409,0.475,1.409,1.409V31.506z"/>
	<path fill="#636281" d="M294.222,31.506c0,0.934-0.476,1.409-1.409,1.409h-12.01c-0.934,0-1.409-0.475-1.409-1.409v-12.01
		c0-0.934,0.476-1.409,1.409-1.409h12.01c0.934,0,1.409,0.475,1.409,1.409V31.506z"/>
	<path fill="#636281" d="M276.472,31.506c0,0.934-0.476,1.409-1.409,1.409h-12.01c-0.934,0-1.409-0.475-1.409-1.409v-12.01
		c0-0.934,0.476-1.409,1.409-1.409h12.01c0.934,0,1.409,0.475,1.409,1.409V31.506z"/>
	<path fill="#636281" d="M259.347,31.506c0,0.934-0.476,1.409-1.409,1.409h-12.01c-0.934,0-1.409-0.475-1.409-1.409v-12.01
		c0-0.934,0.476-1.409,1.409-1.409h12.01c0.934,0,1.409,0.475,1.409,1.409V31.506z"/>
	<path fill="#636281" d="M223.347,31.506c0,0.934-0.476,1.409-1.409,1.409h-12.01c-0.934,0-1.409-0.475-1.409-1.409v-12.01
		c0-0.934,0.476-1.409,1.409-1.409h12.01c0.934,0,1.409,0.475,1.409,1.409V31.506z"/>
	<path fill="#636281" d="M241.014,31.506c0,0.934-0.476,1.409-1.409,1.409h-12.01c-0.934,0-1.409-0.475-1.409-1.409v-12.01
		c0-0.934,0.476-1.409,1.409-1.409h12.01c0.934,0,1.409,0.475,1.409,1.409V31.506z"/>
	<path fill="#636281" d="M205.347,31.506c0,0.934-0.476,1.409-1.409,1.409h-12.01c-0.934,0-1.409-0.475-1.409-1.409v-12.01
		c0-0.934,0.476-1.409,1.409-1.409h12.01c0.934,0,1.409,0.475,1.409,1.409V31.506z"/>
	<path fill="#636281" d="M187.681,31.506c0,0.934-0.476,1.409-1.409,1.409h-12.01c-0.934,0-1.409-0.475-1.409-1.409v-12.01
		c0-0.934,0.476-1.409,1.409-1.409h12.01c0.934,0,1.409,0.475,1.409,1.409V31.506z"/>
	<path fill="#636281" d="M333.469,48.482c0,0.934-0.475,1.409-1.408,1.409h-12.01c-0.934,0-1.41-0.475-1.41-1.409v-12.01
		c0-0.934,0.477-1.409,1.41-1.409h12.01c0.934,0,1.408,0.475,1.408,1.409V48.482z"/>
	<path fill="#636281" d="M350.682,48.482c0,0.934-0.475,1.409-1.408,1.409h-12.01c-0.934,0-1.41-0.475-1.41-1.409v-12.01
		c0-0.934,0.477-1.409,1.41-1.409h12.01c0.934,0,1.408,0.475,1.408,1.409V48.482z"/>
	<path fill="#636281" d="M316.344,48.482c0,0.934-0.475,1.409-1.408,1.409h-12.01c-0.934,0-1.409-0.475-1.409-1.409v-12.01
		c0-0.934,0.476-1.409,1.409-1.409h12.01c0.934,0,1.408,0.475,1.408,1.409V48.482z"/>
	<path fill="#636281" d="M298.595,48.482c0,0.934-0.476,1.409-1.409,1.409h-12.01c-0.934,0-1.409-0.475-1.409-1.409v-12.01
		c0-0.934,0.476-1.409,1.409-1.409h12.01c0.934,0,1.409,0.475,1.409,1.409V48.482z"/>
	<path fill="#636281" d="M281.47,48.482c0,0.934-0.476,1.409-1.409,1.409h-12.01c-0.934,0-1.409-0.475-1.409-1.409v-12.01
		c0-0.934,0.476-1.409,1.409-1.409h12.01c0.934,0,1.409,0.475,1.409,1.409V48.482z"/>
	<path fill="#636281" d="M263.681,48.482c0,0.934-0.476,1.409-1.409,1.409h-12.01c-0.934,0-1.409-0.475-1.409-1.409v-12.01
		c0-0.934,0.476-1.409,1.409-1.409h12.01c0.934,0,1.409,0.475,1.409,1.409V48.482z"/>
	<path fill="#636281" d="M246.556,48.482c0,0.934-0.476,1.409-1.409,1.409h-12.01c-0.934,0-1.409-0.475-1.409-1.409v-12.01
		c0-0.934,0.476-1.409,1.409-1.409h12.01c0.934,0,1.409,0.475,1.409,1.409V48.482z"/>
	<path fill="#636281" d="M228.806,48.482c0,0.934-0.476,1.409-1.409,1.409h-12.01c-0.934,0-1.409-0.475-1.409-1.409v-12.01
		c0-0.934,0.476-1.409,1.409-1.409h12.01c0.934,0,1.409,0.475,1.409,1.409V48.482z"/>
	<path fill="#636281" d="M211.681,48.482c0,0.934-0.476,1.409-1.409,1.409h-12.01c-0.934,0-1.409-0.475-1.409-1.409v-12.01
		c0-0.934,0.476-1.409,1.409-1.409h12.01c0.934,0,1.409,0.475,1.409,1.409V48.482z"/>
	<path fill="#636281" d="M193.347,48.482c0,0.934-0.476,1.409-1.409,1.409h-12.01c-0.934,0-1.409-0.475-1.409-1.409v-12.01
		c0-0.934,0.476-1.409,1.409-1.409h12.01c0.934,0,1.409,0.475,1.409,1.409V48.482z"/>
	<path fill="#636281" d="M367.849,48.482c0,0.934-0.476,1.409-1.409,1.409h-12.01c-0.934,0-1.409-0.475-1.409-1.409v-12.01
		c0-0.934,0.476-1.409,1.409-1.409h12.01c0.934,0,1.409,0.475,1.409,1.409V48.482z"/>
	<path fill="#636281" d="M324.63,65.482c0,0.934-0.475,1.409-1.408,1.409h-12.01c-0.934,0-1.41-0.475-1.41-1.409v-12.01
		c0-0.934,0.477-1.409,1.41-1.409h12.01c0.934,0,1.408,0.475,1.408,1.409V65.482z"/>
	<path fill="#636281" d="M341.843,65.482c0,0.934-0.475,1.409-1.408,1.409h-12.01c-0.934,0-1.41-0.475-1.41-1.409v-12.01
		c0-0.934,0.477-1.409,1.41-1.409h12.01c0.934,0,1.408,0.475,1.408,1.409V65.482z"/>
	<path fill="#636281" d="M307.505,65.482c0,0.934-0.475,1.409-1.408,1.409h-12.01c-0.934,0-1.409-0.475-1.409-1.409v-12.01
		c0-0.934,0.476-1.409,1.409-1.409h12.01c0.934,0,1.408,0.475,1.408,1.409V65.482z"/>
	<path fill="#636281" d="M289.756,65.482c0,0.934-0.476,1.409-1.409,1.409h-12.01c-0.934,0-1.409-0.475-1.409-1.409v-12.01
		c0-0.934,0.476-1.409,1.409-1.409h12.01c0.934,0,1.409,0.475,1.409,1.409V65.482z"/>
	<path fill="#636281" d="M272.631,65.482c0,0.934-0.476,1.409-1.409,1.409h-12.01c-0.934,0-1.409-0.475-1.409-1.409v-12.01
		c0-0.934,0.476-1.409,1.409-1.409h12.01c0.934,0,1.409,0.475,1.409,1.409V65.482z"/>
	<path fill="#636281" d="M254.842,65.482c0,0.934-0.476,1.409-1.409,1.409h-12.01c-0.934,0-1.409-0.475-1.409-1.409v-12.01
		c0-0.934,0.476-1.409,1.409-1.409h12.01c0.934,0,1.409,0.475,1.409,1.409V65.482z"/>
	<path fill="#636281" d="M237.717,65.482c0,0.934-0.476,1.409-1.409,1.409h-12.01c-0.934,0-1.409-0.475-1.409-1.409v-12.01
		c0-0.934,0.476-1.409,1.409-1.409h12.01c0.934,0,1.409,0.475,1.409,1.409V65.482z"/>
	<path fill="#636281" d="M219.967,65.482c0,0.934-0.476,1.409-1.409,1.409h-12.01c-0.934,0-1.409-0.475-1.409-1.409v-12.01
		c0-0.934,0.476-1.409,1.409-1.409h12.01c0.934,0,1.409,0.475,1.409,1.409V65.482z"/>
	<path fill="#636281" d="M202.842,65.482c0,0.934-0.476,1.409-1.409,1.409h-12.01c-0.934,0-1.409-0.475-1.409-1.409v-12.01
		c0-0.934,0.476-1.409,1.409-1.409h12.01c0.934,0,1.409,0.475,1.409,1.409V65.482z"/>
	<path fill="#636281" d="M359.01,65.482c0,0.934-0.476,1.409-1.409,1.409h-12.01c-0.934,0-1.409-0.475-1.409-1.409v-12.01
		c0-0.934,0.476-1.409,1.409-1.409h12.01c0.934,0,1.409,0.475,1.409,1.409V65.482z"/>
	<path fill="#636281" d="M346.261,83.881c0,1.001-0.476,1.51-1.409,1.51h-12.01c-0.934,0-1.409-0.509-1.409-1.51V71.01
		c0-1.001,0.476-1.51,1.409-1.51h12.01c0.934,0,1.409,0.509,1.409,1.51V83.881z"/>
	<path fill="#636281" d="M217.058,83.881c0,1.001-0.648,1.51-1.92,1.51h-16.365c-1.272,0-1.92-0.509-1.92-1.51V71.01
		c0-1.001,0.648-1.51,1.92-1.51h16.365c1.271,0,1.92,0.509,1.92,1.51V83.881z"/>
	<path fill="#636281" d="M193.347,83.881c0,1.001-0.476,1.51-1.409,1.51h-12.01c-0.934,0-1.409-0.509-1.409-1.51V71.01
		c0-1.001,0.476-1.51,1.409-1.51h12.01c0.934,0,1.409,0.509,1.409,1.51V83.881z"/>
	<path fill="#636281" d="M177.094,83.881c0,1.001-0.476,1.51-1.409,1.51h-12.01c-0.934,0-1.409-0.509-1.409-1.51V71.01
		c0-1.001,0.476-1.51,1.409-1.51h12.01c0.934,0,1.409,0.509,1.409,1.51V83.881z"/>
	<path fill="#636281" d="M160.347,83.881c0,1.001-0.476,1.51-1.409,1.51h-12.01c-0.934,0-1.409-0.509-1.409-1.51V71.01
		c0-1.001,0.476-1.51,1.409-1.51h12.01c0.934,0,1.409,0.509,1.409,1.51V83.881z"/>
	<path fill="#636281" d="M381.136,84.687c0,0.467-0.476,0.705-1.409,0.705h-12.01c-0.934,0-1.409-0.237-1.409-0.705v-6.005
		c0-0.467,0.476-0.704,1.409-0.704h12.01c0.934,0,1.409,0.237,1.409,0.704V84.687z"/>
	<path fill="#636281" d="M364.011,84.553c0,0.556-0.476,0.839-1.409,0.839h-12.01c-0.934,0-1.409-0.283-1.409-0.839v-7.151
		c0-0.556,0.476-0.839,1.409-0.839h12.01c0.934,0,1.409,0.283,1.409,0.839V84.553z"/>
	<path fill="#636281" d="M398.349,84.553c0,0.556-0.476,0.839-1.409,0.839h-12.01c-0.934,0-1.409-0.283-1.409-0.839v-7.151
		c0-0.556,0.476-0.839,1.409-0.839h12.01c0.934,0,1.409,0.283,1.409,0.839V84.553z"/>
	<path fill="#636281" d="M381.136,75.881c0,0.556-0.476,0.839-1.409,0.839h-12.01c-0.934,0-1.409-0.283-1.409-0.839V68.73
		c0-0.556,0.476-0.839,1.409-0.839h12.01c0.934,0,1.409,0.283,1.409,0.839V75.881z"/>
</g>
<g id="starbucks">
	<circle fill="#EDEDED" cx="-125.492" cy="262.914" r="55.508"/>
</g>
<g id="iphone">
	<path fill="#EFEAE9" d="M159.516,347c0,6.627-5.373,12-12,12h-57.5c-6.627,0-12-5.373-12-12V226c0-6.627,5.373-12,12-12h57.5
		c6.627,0,12,5.373,12,12V347z"/>
	<rect x="84.516" y="232.351" fill="#272730" width="68.5" height="109.87"/>
	<circle fill="#272730" cx="118.766" cy="219.835" r="0.959"/>
	<circle fill="#272730" cx="130.714" cy="223.416" r="1.589"/>
	<circle fill="#434359" cx="130.713" cy="223.416" r="0.669"/>
	<path fill="#272730" d="M124.891,223.416c0,0.322-0.261,0.584-0.583,0.584h-11.083c-0.322,0-0.583-0.262-0.583-0.584l0,0
		c0-0.321,0.261-0.583,0.583-0.583h11.083C124.63,222.833,124.891,223.095,124.891,223.416L124.891,223.416z"/>
</g>
<g id="Layer_9">
	<circle fill="#EFEAE9" cx="36.813" cy="257.177" r="15.695"/>
	<path fill="#DE6162" d="M21.118,257.177c0-8.668,7.027-15.694,15.695-15.694c8.668,0,15.695,7.026,15.695,15.694"/>
	<circle fill="#EDEDED" stroke="#000000" stroke-width="2" stroke-miterlimit="10" cx="36.813" cy="257.178" r="3.852"/>
	<path fill="#EFEAE9" d="M22.516,263.65c0,0,10.085,21.264,14.297,21.264S51.11,263.65,51.11,263.65H22.516z"/>
	<path fill="#434359" d="M341.516,406.5c0,6.627-5.373,12-12,12h-98.5c-6.627,0-12-5.373-12-12V199.867c0-6.627,5.373-12,12-12h98.5
		c6.627,0,12,5.373,12,12V406.5z"/>
	<path fill="#272730" d="M309.016,288c0,6.627,0.559,12,1.248,12h9.17c0.689,0,1.249-5.373,1.249-12v-88.133
		c0-6.627-0.56-12-1.249-12h-9.17c-0.689,0-1.248,5.373-1.248,12V288z"/>
	<path fill="#434359" d="M370.016,272.382c0,8.861,30.343,22.046,39.4,22.046h1.199c9.058,0,41.4-13.185,41.4-22.046v-78.908
		c0-8.861-7.343-16.046-16.4-16.046h-17.85l0.25,36h-13.834l-0.166-36h-17.6c-9.058,0-16.4,7.185-16.4,16.046V272.382z"/>
	<path fill="#272730" d="M404.683,215.863c0,3.498,2.836,6.334,6.333,6.334l0,0c3.498,0,6.334-2.836,6.334-6.334v-18.947
		c0-3.498-2.836-6.334-6.334-6.334l0,0c-3.497,0-6.333,2.836-6.333,6.334V215.863z"/>
	<path fill="#85D2DD" d="M402.891,213.862c0,2.606,0.401,4.719,0.896,4.719l0,0c0.494,0,0.896-2.112,0.896-4.719v-14.115
		c0-2.606-0.401-4.719-0.896-4.719l0,0c-0.494,0-0.896,2.112-0.896,4.719V213.862z"/>
	<path fill="#85D2DD" d="M417.35,213.447c0,2.606,0.401,4.719,0.896,4.719l0,0c0.494,0,0.896-2.112,0.896-4.719v-14.115
		c0-2.606-0.401-4.719-0.896-4.719l0,0c-0.494,0-0.896,2.112-0.896,4.719V213.447z"/>
	<line fill="none" stroke="#272730" stroke-width="6" stroke-miterlimit="10" x1="435.616" y1="177.428" x2="435.616" y2="-49"/>
	<rect x="408.371" y="225" fill="#272730" width="5.291" height="13.5"/>
	<rect x="379.007" y="190.582" fill="#272730" width="2.944" height="12.46"/>
	<rect x="379.007" y="203.789" fill="#272730" width="2.944" height="12.46"/>
	<rect x="368.543" y="223.094" fill="#272730" width="1.473" height="12.46"/>
	<rect x="368.543" y="236.301" fill="#272730" width="1.473" height="12.46"/>
</g>
<g id="pencil">
	<path fill="#272730" d="M186.954,223.25c0,2.623,2.477,4.75,5.533,4.75l0,0c3.056,0,5.533-2.127,5.533-4.75V220
		c0-2.623-2.477-4.75-5.533-4.75l0,0c-3.056,0-5.533,2.127-5.533,4.75V223.25z"/>
	<path fill="#434359" d="M199.519,321.397c0,3.369-3.246,6.103-7.25,6.103l0,0c-4.004,0-7.25-2.733-7.25-6.103v-93.714
		c0-3.369-0.754-6.103,3.25-6.103h8c4.004,0,3.25,2.733,3.25,6.103V321.397z"/>
	<path fill="#434359" d="M199.519,219.178c0,0.6-3.246,1.086-7.25,1.086l0,0c-4.004,0-7.25-0.486-7.25-1.086v-16.677
		c0-0.6,3.246-1.086,7.25-1.086l0,0c4.004,0,7.25,0.486,7.25,1.086V219.178z"/>
	<path fill="#B5B5B6" d="M184.962,230c0,2.762,0,5.001,0,5.001h10.997c3.207,0,2.807-2.239,2.807-5.001l0,0c0-2.761,0.4-5-2.807-5
		l-10.997,0.085C184.962,225.085,184.962,227.239,184.962,230L184.962,230z"/>
	<g>
		<path fill="#B5B5B6" d="M180.35,261.151v-38.362h1c1.807,0,3.212,1.916,3.613,2.296v1.662c-0.489-0.461-2.613-2.873-2.613-1.917
			v28.336c0.429-0.077,1.03-0.082,1.59,0.277c0.716,0.462,1.08,1.322,1.08,2.558c0,3.221-3.159,4.538-3.294,4.593L180.35,261.151z
			 M182.35,254.619v3.109c0.37-0.429,0.669-1.001,0.669-1.728c0-0.597-0.123-0.84-0.166-0.879c-0.052-0.013-0.472-0.008-0.503,0.006
			V254.619z"/>
	</g>
	<rect x="185.019" y="204.479" fill="#353544" width="14.5" height="0.669"/>
	<rect x="185.019" y="206.875" fill="#353544" width="14.5" height="0.669"/>
	<rect x="185.019" y="209.271" fill="#353544" width="14.5" height="0.669"/>
	<rect x="185.019" y="211.667" fill="#353544" width="14.5" height="0.669"/>
	<rect x="185.019" y="214.062" fill="#353544" width="14.5" height="0.669"/>
	<rect x="185.019" y="216.458" fill="#353544" width="14.5" height="0.669"/>
</g>
<g id="Layer_1">
	<rect x="513.516" y="4" fill="#B7E0D6" width="46.967" height="46.967"/>
	<rect x="513.516" y="97.934" fill="#636281" width="46.967" height="46.967"/>
	<rect x="513.516" y="191.867" fill="#C6C6C5" width="46.967" height="46.967"/>
	<rect x="513.516" y="144.9" fill="#DE6162" width="46.967" height="46.967"/>
	<rect x="513.516" y="50.967" fill="#85D2DD" width="46.967" height="46.967"/>
	<rect x="513.516" y="238.834" fill="#FFF9E8" width="46.967" height="46.967"/>
</g>
</svg>
