<?xml version="1.0" encoding="utf-8"?>
<!-- Generator: Adobe Illustrator 16.0.4, SVG Export Plug-In . SVG Version: 6.00 Build 0)  -->
<!DOCTYPE svg PUBLIC "-//W3C//DTD SVG 1.1//EN" "http://www.w3.org/Graphics/SVG/1.1/DTD/svg11.dtd">
<svg version="1.1" id="Layer_1" xmlns="http://www.w3.org/2000/svg" xmlns:xlink="http://www.w3.org/1999/xlink" x="0px" y="0px"
	 width="300px" height="300px" viewBox="0 0 300 300" enable-background="new 0 0 300 300" xml:space="preserve">
<g id="Layer_1_1_">
	<circle fill="#F0565C" cx="150.255" cy="150.916" r="142.763"/>
</g>
<g id="Layer_1_2_">
	<path fill="#C64E57" d="M93.579,93.835l67.277-23.623"/>
	<path fill="#C64E57" d="M189.486,79.038l101.158,97.937c-10.966,59.461-58.777,106.012-118.877,115.095l-79.816-81.095V70
		l68.904,0.212"/>
</g>
<g id="Layer_3_1_">
</g>
<g id="Layer_2">
	<g>
		<path fill="#FFFFFF" d="M203.123,105.244c0,15.506-9.265,27.39-24.57,31.216c18.729,3.424,30.006,16.916,30.006,35.647
			c0,24.167-19.937,38.867-52.161,38.867H91.952V70h62.635C184.594,70,203.123,83.493,203.123,105.244z M175.531,110.077
			c0-10.674-8.458-16.917-22.356-16.715H118.94v34.237h34.234C167.072,127.599,175.531,121.154,175.531,110.077z M180.565,168.684
			c0-11.48-10.27-18.53-27.391-18.327H118.94v37.26h34.234C170.296,187.815,180.565,180.767,180.565,168.684z"/>
	</g>
</g>
</svg>
