<?xml version="1.0" encoding="utf-8"?>
<!-- Generator: Adobe Illustrator 16.0.4, SVG Export Plug-In . SVG Version: 6.00 Build 0)  -->
<!DOCTYPE svg PUBLIC "-//W3C//DTD SVG 1.1//EN" "http://www.w3.org/Graphics/SVG/1.1/DTD/svg11.dtd">
<svg version="1.1" id="Layer_1" xmlns="http://www.w3.org/2000/svg" xmlns:xlink="http://www.w3.org/1999/xlink" x="0px" y="0px"
	 width="300px" height="300px" viewBox="0 0 300 300" enable-background="new 0 0 300 300" xml:space="preserve">
<rect x="-11.5" y="-10.5" fill="#6200EE" width="320.764" height="315.883"/>
<g id="Layer_3_1_">
</g>
<g>
	<path fill="#FAFAFA" d="M208.559,171.07c0,12.693-4.119,22.584-12.354,29.672c-8.237,7.09-19.513,10.633-33.823,10.633H103.24
		V69.601h53.471c27.003,0,40.506,11.412,40.506,34.229c0,14.044-5.2,24.035-15.595,29.975
		C199.578,139.611,208.559,152.033,208.559,171.07z M129.166,125.297h23.696c6.347,0,11.069-1.316,14.179-3.949
		c3.104-2.633,4.657-6.716,4.657-12.253c0-5.805-1.554-9.991-4.657-12.557c-3.109-2.564-7.832-3.849-14.179-3.849h-23.696V125.297z
		 M175.849,183.729c3.982-3.037,5.977-8.201,5.977-15.492c0-7.156-2.061-12.254-6.177-15.293c-4.122-3.037-9.824-4.557-17.115-4.557
		h-29.368v39.901h29.368C166.093,188.287,171.866,186.768,175.849,183.729z"/>
</g>
</svg>
