<?xml version="1.0" encoding="utf-8"?>
<!-- Generator: Adobe Illustrator 16.0.4, SVG Export Plug-In . SVG Version: 6.00 Build 0)  -->
<!DOCTYPE svg PUBLIC "-//W3C//DTD SVG 1.1//EN" "http://www.w3.org/Graphics/SVG/1.1/DTD/svg11.dtd">
<svg version="1.1" id="Layer_1" xmlns="http://www.w3.org/2000/svg" xmlns:xlink="http://www.w3.org/1999/xlink" x="0px" y="0px"
	 width="300px" height="225px" viewBox="0 0 300 225" enable-background="new 0 0 300 225" xml:space="preserve">
<rect x="0.317" y="-0.109" fill="#362E7C" width="299.683" height="139.138"/>
<path fill="#FFFFFF" d="M173.257,91.254c0,1.203-1.13,2.179-2.523,2.179h-60.879c-1.394,0-2.524-0.976-2.524-2.179v-4.085
	c0-1.203,1.13-2.179,2.524-2.179h60.879c1.394,0,2.523,0.976,2.523,2.179V91.254z"/>
<path fill="#FFFFFF" d="M173.257,101.652c0,1.204-1.13,2.179-2.523,2.179h-60.879c-1.394,0-2.524-0.975-2.524-2.179v-4.085
	c0-1.203,1.13-2.179,2.524-2.179h60.879c1.394,0,2.523,0.976,2.523,2.179V101.652z"/>
<path fill="#FFFFFF" stroke="#000000" stroke-miterlimit="10" d="M173.046,112.541c0,1.203-1.129,2.179-2.523,2.179h-60.879
	c-1.394,0-2.524-0.976-2.524-2.179v-4.085c0-1.203,1.13-2.179,2.524-2.179h60.879c1.395,0,2.523,0.976,2.523,2.179V112.541z"/>
<path fill="#FFFFFF" stroke="#000000" stroke-miterlimit="10" d="M173.257,122.98c0,1.203-1.13,2.179-2.523,2.179h-60.879
	c-1.394,0-2.524-0.976-2.524-2.179v-4.085c0-1.203,1.13-2.179,2.524-2.179h60.879c1.394,0,2.523,0.976,2.523,2.179V122.98z"/>
<text transform="matrix(1.1583 0 0 1 127.2563 92.1045)" fill="#939393" font-family="'OstrichSans-Black'" font-size="6.5363">Username</text>
<g>
	<text transform="matrix(1.1583 0 0 1 132.9673 101.7886)" fill="#939393" font-family="'OstrichSans-Black'" font-size="6.5363">email</text>
</g>
<g>
	<text transform="matrix(1.1583 0 0 1 126.624 112.8018)" fill="#939393" font-family="'OstrichSans-Black'" font-size="6.5363">password</text>
</g>
<g>
	<text transform="matrix(1.1583 0 0 1 121.5776 123.5762)" fill="#939393" font-family="'OstrichSans-Black'" font-size="6.5363">re-password</text>
</g>
<rect x="0.317" y="138.808" fill="#2D9E90" width="299.683" height="139.137"/>
<rect x="107.33" y="163.677" fill="none" width="157.608" height="11.182"/>
<text transform="matrix(1.1583 0 0 1 107.3306 171.7061)" fill="#FFFFFF" font-family="'OstrichSans-Black'" font-size="10.8938">How much do you use per year?</text>
<path fill="#FFFFFF" d="M208.433,192.753c0,1.018-0.433,1.842-0.967,1.842h-24.953c-0.534,0-0.966-0.824-0.966-1.842v-5.303
	c0-1.018,0.432-1.842,0.966-1.842h24.953c0.534,0,0.967,0.824,0.967,1.842V192.753z"/>
<text transform="matrix(1.1583 0 0 1 146.0679 192.0996)" fill="#FFFFFF" font-family="'OstrichSans-Black'" font-size="6.5363">Electricity</text>
<ellipse fill="none" stroke="#FFFFFF" stroke-width="2" stroke-miterlimit="10" cx="220.47" cy="190.534" rx="5.928" ry="5.117"/>
<text transform="matrix(1.1583 0 0 1 219.1504 192.7871)" fill="#FFFFFF" font-family="'OstrichSans-Black'" font-size="6.5363">?</text>
<polygon fill="#2D9E90" points="206.366,188.747 203.228,191.456 200.09,188.747 "/>
<text transform="matrix(1.1583 0 0 1 153.7168 205.25)" fill="#FFFFFF" font-family="'OstrichSans-Black'" font-size="6.5363">Fuel</text>
<text transform="matrix(1.1583 0 0 1 154.3477 219.3145)" fill="#FFFFFF" font-family="'OstrichSans-Black'" font-size="6.5363">Gas</text>
<text transform="matrix(1.1583 0 0 1 152.1719 232.3477)" fill="#FFFFFF" font-family="'OstrichSans-Black'" font-size="6.5363">Water</text>
<path fill="#FFFFFF" d="M77.821,255.222c0,3.146-0.702,5.696-1.567,5.696H24.346c-0.866,0-1.569-2.551-1.569-5.696v-12.815
	c0-3.146,0.703-5.696,1.569-5.696h51.907c0.865,0,1.567,2.55,1.567,5.696V255.222z"/>
<text transform="matrix(1.1583 0 0 1 35.1421 243.5488)" fill="#2D9E90" font-family="'OstrichSans-Black'" font-size="5.4469">Total Housing</text>
<text transform="matrix(1.1583 0 0 1 38.6997 250.8115)" fill="#939393" font-family="'OstrichSans-Black'" font-size="6.5363">#####</text>
<text transform="matrix(1.1583 0 0 1 35.1421 257.5293)" fill="#2D9E90" font-family="'OstrichSans-Black'" font-size="5.4469">Tons CO2/year</text>
<path fill="#FFFFFF" d="M138.651,191.731c0,0.233-0.219,0.422-0.49,0.422h-2.612c-0.27,0-0.49-0.188-0.49-0.422v-0.036
	c0-0.233,0.22-0.423,0.49-0.423h2.612c0.271,0,0.49,0.189,0.49,0.423V191.731z"/>
<path fill="#FFFFFF" d="M138.651,192.541c0,0.233-0.219,0.423-0.49,0.423h-2.612c-0.27,0-0.49-0.189-0.49-0.423v-0.035
	c0-0.233,0.22-0.423,0.49-0.423h2.612c0.271,0,0.49,0.189,0.49,0.423V192.541z"/>
<path fill="#FFFFFF" d="M138.528,193.246c0,0.233-0.204,0.423-0.456,0.423h-2.434c-0.251,0-0.456-0.189-0.456-0.423v-0.035
	c0-0.233,0.205-0.423,0.456-0.423h2.434c0.252,0,0.456,0.189,0.456,0.423V193.246z"/>
<ellipse fill="#FFFFFF" cx="136.856" cy="193.466" rx="0.946" ry="0.748"/>
<path fill="none" stroke="#FFFFFF" stroke-width="3" stroke-miterlimit="10" d="M135.794,191.555c0,0-0.122-1.339-1.183-2.123
	c-1.061-0.783-0.49-3.443,2.244-3.443s3.561,2.545,2.347,3.594c-1.215,1.048-1.205,1.973-1.205,1.973H135.794z"/>
<path fill="none" stroke="#FFFFFF" stroke-width="2" stroke-miterlimit="10" d="M136.835,187.485c0,0,1.327,0.105,1.327,0.828"/>
<ellipse fill="none" stroke="#FFFFFF" stroke-width="3" stroke-miterlimit="10" cx="220.47" cy="203.895" rx="5.928" ry="5.117"/>
<text transform="matrix(1.1583 0 0 1 219.1504 206.1484)" fill="#FFFFFF" font-family="'OstrichSans-Black'" font-size="6.5363">?</text>
<ellipse fill="none" stroke="#FFFFFF" stroke-width="3" stroke-miterlimit="10" cx="220.47" cy="217.76" rx="5.928" ry="5.117"/>
<text transform="matrix(1.1583 0 0 1 219.1504 220.0137)" fill="#FFFFFF" font-family="'OstrichSans-Black'" font-size="6.5363">?</text>
<ellipse fill="none" stroke="#FFFFFF" stroke-width="3" stroke-miterlimit="10" cx="220.47" cy="230.792" rx="5.928" ry="5.118"/>
<text transform="matrix(1.1583 0 0 1 219.1504 233.0469)" fill="#FFFFFF" font-family="'OstrichSans-Black'" font-size="6.5363">?</text>
<line fill="none" stroke="#E2E2E2" stroke-miterlimit="10" x1="198.319" y1="185.608" x2="198.319" y2="194.595"/>
<path fill="#FFFFFF" d="M208.433,207.171c0,1.017-0.433,1.842-0.967,1.842h-24.953c-0.534,0-0.966-0.825-0.966-1.842v-5.304
	c0-1.018,0.432-1.842,0.966-1.842h24.953c0.534,0,0.967,0.824,0.967,1.842V207.171z"/>
<polygon fill="#2D9E90" points="206.366,203.164 203.228,205.874 200.09,203.164 "/>
<line fill="none" stroke="#E2E2E2" stroke-miterlimit="10" x1="198.319" y1="200.025" x2="198.319" y2="209.013"/>
<path fill="#FFFFFF" d="M208.433,220.411c0,1.018-0.433,1.842-0.967,1.842h-24.953c-0.534,0-0.966-0.824-0.966-1.842v-5.303
	c0-1.018,0.432-1.842,0.966-1.842h24.953c0.534,0,0.967,0.824,0.967,1.842V220.411z"/>
<polygon fill="#2D9E90" points="206.366,216.405 203.228,219.114 200.09,216.405 "/>
<line fill="none" stroke="#E2E2E2" stroke-miterlimit="10" x1="198.319" y1="213.267" x2="198.319" y2="222.253"/>
<path fill="#FFFFFF" d="M208.433,233.444c0,1.017-0.433,1.842-0.967,1.842h-24.953c-0.534,0-0.966-0.825-0.966-1.842v-5.304
	c0-1.018,0.432-1.842,0.966-1.842h24.953c0.534,0,0.967,0.824,0.967,1.842V233.444z"/>
<polygon fill="#2D9E90" points="206.366,229.438 203.228,232.147 200.09,229.438 "/>
<line fill="none" stroke="#E2E2E2" stroke-miterlimit="10" x1="198.319" y1="226.299" x2="198.319" y2="235.286"/>
<path fill="#FFFFFF" d="M134.557,207.426c0,0-1.035-0.277-1.035-0.967s-0.013-5.171-0.013-5.171l0.085-0.096l-0.524-0.475
	c0,0-0.088-0.116,0.033-0.221s1.165-1.012,1.165-1.012s0.131-0.175,0.38,0.04s0.399,0.355,0.399,0.355l0.059-0.057h0.72
	c0,0,0.193-0.008,0.596-0.355c0.403-0.348,0.609-0.458,0.609-0.458s0.366-0.266,0.818-0.266c0.452,0,1.728,0,1.728,0
	s1.054,0.198,1.054,0.967s0,6.759,0,6.759s-0.268,0.955-1.146,0.955C138.608,207.426,134.557,207.426,134.557,207.426z"/>
<path fill="#2D9E90" d="M139.01,202.328c0.061,0.053,0.061,0.139,0,0.191l-3.625,3.129c-0.062,0.054-0.162,0.054-0.223,0l0,0
	c-0.061-0.053-0.061-0.139,0-0.191l3.624-3.129C138.849,202.275,138.948,202.275,139.01,202.328L139.01,202.328z"/>
<path fill="#2D9E90" d="M135.163,202.328c0.061-0.053,0.161-0.053,0.223,0l3.625,3.129c0.061,0.053,0.061,0.139,0,0.191l0,0
	c-0.062,0.054-0.162,0.054-0.223,0l-3.624-3.129C135.102,202.467,135.102,202.381,135.163,202.328L135.163,202.328z"/>
<path fill="#2D9E90" d="M139.58,199.665c0,0.075-0.021,0.136-0.05,0.136h-1.609c-0.027,0-0.049-0.061-0.049-0.136l0,0
	c0-0.074,0.021-0.136,0.049-0.136h1.609C139.559,199.529,139.58,199.591,139.58,199.665L139.58,199.665z"/>
<path fill="#FFFFFF" d="M138.632,212.774h-3.596v1.18c0,0-1.767-0.094-2.113,1.062v4.637c0,0,0.583,1.416,1.915,1.434l0.135,0.277
	h3.88l0.205-0.213l0.489-0.047c0,0,1.704-0.448,1.704-1.228c0-0.778,0-4.837,0-4.837s-1.009-1.463-2.145-1.463
	c-1.135,0,0,0.095,0,0.095v-0.897H138.632z"/>
<path fill="#2D9E90" d="M136.677,215.795c0,0,0.3,0.142,0.409,0.106c0.111-0.035,0.222-0.225,0.222-0.225l-0.521-0.79
	c0,0-0.961,1.416-1.45,1.723c-0.49,0.307-1.088,0.92-0.979,1.262c0.111,0.343,0.663,1.098,1.23,1.169c0.568,0.07,0.868,0,0.868,0
	s0.094-0.06,0.094-0.225s-0.331-0.248-0.331-0.248s-0.63-0.082-0.694-0.519c-0.063-0.437-0.016-0.653,0.237-1.07
	C136.014,216.562,136.677,215.795,136.677,215.795z"/>
<path fill="#2D9E90" d="M137.985,215.677c0,0-0.868,0.909-0.678,1.098c0.189,0.188,0.473,0.13,0.473,0.13s1.056,0.813,0.993,1.156
	c-0.063,0.342-1.072,0.79-1.072,0.79s0.583,0.201,0.82,0.071s1.057-0.495,0.709-1.191c0,0-0.741-0.861-0.835-0.979
	C138.301,216.633,137.749,216.138,137.985,215.677z"/>
<path fill="#2D9E90" d="M136.55,216.939c0,0-0.552,0.826-0.488,1.026c0.063,0.201,0.242,0.39,0.242,0.39l0.499-0.59l0.505,0.295
	c0,0,0.473,0.095,0.473-0.048c0-0.142-0.347-0.33-0.473-0.495c-0.126-0.165-0.389-0.578-0.389-0.578S136.684,216.731,136.55,216.939
	z"/>
<path fill="#FFFFFF" stroke="#FFFFFF" stroke-miterlimit="10" d="M136.774,224.462c0,0-1.651,2.851-2.262,3.513
	s-1.65,3.063-0.078,4.163c1.573,1.1,2.691,1.01,3.496,0.718c0.806-0.292,2.86-1.302,1.872-3.568
	c-0.987-2.267-1.56-2.244-2.028-3.142C137.307,225.248,136.812,224.754,136.774,224.462z"/>
<path fill="#2D9E90" d="M134.862,230.477c0,0,0.078-0.28-0.302-0.28c-0.38,0-0.262,0.28-0.262,0.28s0.205,1.832,1.968,1.832
	c0,0,0.508,0.135,0.508-0.27s-0.479-0.228-0.479-0.228S135.058,231.792,134.862,230.477z"/>
<path fill="#FFFFFF" d="M184.78,249.796c0,1.204-0.665,2.179-1.484,2.179h-49.184c-0.821,0-1.486-0.975-1.486-2.179v-4.901
	c0-1.203,0.665-2.179,1.486-2.179h49.184c0.819,0,1.484,0.976,1.484,2.179V249.796z"/>
<path fill="#FFFFFF" d="M223.508,249.796c0,1.204-0.391,2.179-0.871,2.179h-28.822c-0.481,0-0.871-0.975-0.871-2.179v-4.901
	c0-1.203,0.39-2.179,0.871-2.179h28.822c0.48,0,0.871,0.976,0.871,2.179V249.796z"/>
<text transform="matrix(1.1583 0 0 1 203.0947 249.0703)" fill="#2D9E90" font-family="'OstrichSans-Black'" font-size="4.3575">Cancel</text>
<text transform="matrix(1.1583 0 0 1 136.1318 249.0703)" fill="#2D9E90" font-family="'OstrichSans-Black'" font-size="4.3575">Save and Contiune Later</text>
<g>
	<path fill="#FFFFFF" d="M165.53,48.461c0,2.333-0.821,4.176-2.467,5.526c-1.644,1.352-3.83,2.027-6.554,2.027h-29.527
		c-2.725,0-4.909-0.676-6.553-2.027c-1.645-1.351-2.467-3.193-2.467-5.526c0-1.03,0.04-2.037,0.119-3.02
		c0.08-0.981,0.237-2.042,0.473-3.178c0.236-1.139,0.535-2.193,0.896-3.165c0.36-0.973,0.844-1.921,1.453-2.845
		c0.607-0.923,1.305-1.71,2.095-2.361c0.788-0.651,1.751-1.172,2.888-1.561c1.137-0.389,2.392-0.583,3.767-0.583
		c0.204,0,0.676,0.209,1.419,0.627c0.742,0.418,1.582,0.885,2.516,1.399c0.935,0.516,2.151,0.981,3.649,1.4
		c1.498,0.418,3.002,0.627,4.51,0.627c1.509,0,3.012-0.209,4.51-0.627c1.498-0.419,2.713-0.885,3.649-1.4
		c0.935-0.515,1.773-0.981,2.517-1.399s1.218-0.627,1.419-0.627c1.373,0,2.63,0.194,3.767,0.583
		c1.138,0.389,2.101,0.909,2.889,1.561s1.486,1.438,2.095,2.361c0.608,0.924,1.093,1.872,1.453,2.845
		c0.359,0.972,0.658,2.026,0.895,3.165c0.236,1.136,0.395,2.196,0.474,3.178C165.49,46.424,165.53,47.431,165.53,48.461z
		 M150.919,14.496c2.533,2.188,3.801,4.827,3.801,7.919s-1.268,5.731-3.801,7.919c-2.534,2.188-5.591,3.281-9.172,3.281
		c-3.58,0-6.638-1.094-9.171-3.281c-2.535-2.188-3.802-4.827-3.802-7.919s1.267-5.73,3.802-7.919
		c2.534-2.188,5.591-3.281,9.171-3.281C145.328,11.215,148.385,12.309,150.919,14.496z"/>
</g>
<ellipse fill="none" stroke="#FFFFFF" stroke-width="5" stroke-miterlimit="10" cx="141.747" cy="35.699" rx="36.809" ry="31.778"/>
<ellipse fill="none" stroke="#FFFFFF" stroke-width="7" stroke-miterlimit="10" cx="50.299" cy="185.291" rx="36.809" ry="31.778"/>
<g>
	<path fill="#FFFFFF" d="M77.962,183.949l-2.174,2.238c-0.186,0.183-0.431,0.293-0.734,0.333h-0.105
		c-0.305,0-0.55-0.071-0.738-0.211l-24.25-17.459L25.709,186.31c-0.282,0.161-0.562,0.23-0.842,0.211
		c-0.304-0.04-0.55-0.15-0.736-0.333l-2.174-2.238c-0.185-0.201-0.268-0.438-0.243-0.711c0.023-0.271,0.152-0.488,0.387-0.65
		l25.196-18.124c0.748-0.524,1.634-0.787,2.664-0.787c1.028,0,1.915,0.263,2.664,0.787l8.549,6.172v-5.901
		c0-0.28,0.107-0.513,0.318-0.694c0.209-0.182,0.479-0.272,0.807-0.272h6.727c0.329,0,0.596,0.091,0.806,0.272
		c0.209,0.182,0.316,0.414,0.316,0.694v12.346l7.676,5.508c0.232,0.162,0.362,0.379,0.385,0.65
		C78.23,183.511,78.149,183.748,77.962,183.949z M70.147,186.038v14.522c0,0.524-0.222,0.979-0.667,1.36
		c-0.444,0.384-0.969,0.575-1.577,0.575H54.447v-11.619h-8.973v11.619H32.017c-0.606,0-1.135-0.191-1.576-0.575
		c-0.445-0.382-0.667-0.836-0.667-1.36v-14.522c0-0.021,0.003-0.052,0.017-0.092c0.011-0.04,0.017-0.07,0.017-0.092l20.152-14.341
		l20.152,14.341C70.135,185.896,70.147,185.957,70.147,186.038z"/>
</g>
<text transform="matrix(1.1583 0 0 1 125.5737 80.1782)" fill="#FFFFFF" font-family="'OstrichSans-Black'" font-size="10.8938">SIGN UP</text>
<text transform="matrix(1.1583 0 0 1 35.1426 230.332)" fill="#FFFFFF" font-family="'OstrichSans-Black'" font-size="10.8938">Housing</text>
<polygon fill="#FFFFFF" points="144.402,132.967 140.294,136.515 136.185,132.967 "/>
<polygon fill="#FFFFFF" points="163.795,272.304 159.686,275.852 155.576,272.304 "/>
<g>
	<path fill="#FFFFFF" d="M283.169,22.319c0,0.809-0.284,1.446-0.854,1.914c-0.568,0.468-1.325,0.701-2.269,0.701h-10.223
		c-0.944,0-1.7-0.233-2.269-0.701c-0.57-0.468-0.854-1.105-0.854-1.914c0-0.356,0.014-0.705,0.041-1.045s0.081-0.707,0.164-1.101
		c0.081-0.394,0.186-0.759,0.31-1.096c0.125-0.337,0.292-0.665,0.502-0.984c0.212-0.32,0.453-0.593,0.727-0.818
		c0.272-0.226,0.606-0.405,1-0.54s0.828-0.202,1.304-0.202c0.07,0,0.234,0.072,0.491,0.217c0.257,0.146,0.548,0.307,0.871,0.485
		c0.323,0.178,0.745,0.34,1.264,0.484c0.518,0.145,1.039,0.217,1.561,0.217c0.522,0,1.043-0.072,1.562-0.217
		c0.518-0.145,0.939-0.307,1.264-0.484c0.323-0.179,0.614-0.34,0.871-0.485c0.258-0.145,0.42-0.217,0.49-0.217
		c0.477,0,0.911,0.067,1.305,0.202s0.728,0.314,1.001,0.54c0.272,0.226,0.514,0.498,0.724,0.818
		c0.212,0.319,0.379,0.647,0.505,0.984c0.124,0.337,0.228,0.702,0.309,1.096c0.083,0.394,0.137,0.761,0.164,1.101
		S283.169,21.963,283.169,22.319z M278.11,10.561c0.878,0.757,1.315,1.671,1.315,2.741s-0.438,1.984-1.315,2.742
		c-0.878,0.757-1.936,1.136-3.177,1.136c-1.238,0-2.297-0.379-3.175-1.136c-0.877-0.758-1.315-1.672-1.315-2.742
		s0.438-1.984,1.315-2.741c0.878-0.758,1.937-1.137,3.175-1.137C276.175,9.424,277.232,9.803,278.11,10.561z"/>
</g>
<g>
	<path fill="#FFFFFF" d="M281.049,57.673l-0.477,0.491c-0.04,0.04-0.095,0.063-0.161,0.072h-0.022c-0.067,0-0.12-0.015-0.161-0.046
		l-5.312-3.824l-5.313,3.824c-0.061,0.035-0.122,0.051-0.185,0.046c-0.066-0.009-0.119-0.032-0.16-0.072l-0.477-0.491
		c-0.04-0.044-0.059-0.096-0.053-0.155c0.004-0.06,0.032-0.107,0.083-0.143l5.521-3.97c0.164-0.115,0.358-0.173,0.584-0.173
		c0.225,0,0.419,0.058,0.583,0.173l1.873,1.352v-1.293c0-0.061,0.023-0.112,0.069-0.151c0.047-0.04,0.105-0.061,0.177-0.061h1.474
		c0.071,0,0.13,0.021,0.177,0.061c0.046,0.039,0.068,0.091,0.068,0.151v2.705l1.683,1.206c0.051,0.035,0.079,0.083,0.083,0.143
		C281.107,57.577,281.09,57.629,281.049,57.673z M279.336,58.131v3.182c0,0.114-0.048,0.214-0.146,0.298s-0.212,0.126-0.345,0.126
		h-2.948v-2.545h-1.966v2.545h-2.947c-0.134,0-0.249-0.042-0.347-0.126c-0.097-0.084-0.145-0.184-0.145-0.298v-3.182
		c0-0.005,0-0.011,0.003-0.02s0.004-0.016,0.004-0.021l4.415-3.142l4.414,3.142C279.334,58.1,279.336,58.113,279.336,58.131z"/>
</g>
<path fill="#FFFFFF" d="M270.124,39.592h-0.597c0,0-0.104,0.01-0.104-0.297c0-0.308,0-1.824,0-1.824s0.299-0.872,1.132-0.872h0.229
	l0.504-1.755c0,0,0.201-1.229,1.693-1.229c1.493,0,4.02,0.01,4.02,0.01s1.229-0.079,1.602,1.278l0.493,1.7c0,0,1.35-0.06,1.35,0.986
	s0,1.799,0,1.799s-0.006,0.184-0.248,0.184c-0.241,0-0.441-0.005-0.441-0.005v0.688c0,0-0.093,0.793-1.016,0.793
	c-0.925,0-1.045-0.788-1.045-0.788v-0.684l-5.506-0.005l-0.011,0.674c0,0-0.104,0.803-1.005,0.803s-1.051-0.817-1.051-0.817V39.592z
	"/>
<ellipse fill="#362E7C" cx="271.146" cy="38.065" rx="0.85" ry="0.733"/>
<ellipse fill="#362E7C" cx="278.706" cy="38.065" rx="0.85" ry="0.733"/>
<path fill="#362E7C" d="M277.696,36.599h-5.563l0.5-1.562c0,0,0.018-0.223,0.465-0.223c0.448,0,3.65,0,3.65,0
	s0.432-0.134,0.534,0.401C277.387,35.751,277.696,36.599,277.696,36.599z"/>
<path fill="#FFFFFF" d="M272.407,94.897c0,0,0.064-0.753-0.625-0.753c-0.688,0-1.689,0-1.689,0s-0.365,0.084-0.365,0.376
	c0,0.293,0.387,0.377,0.387,0.377h1.41l1.184,4.795l-0.322,0.566c0,0-0.27,0.595,0.322,0.595c0.593,0,6.899,0,6.899,0
	s0.453-0.028,0.453-0.39c0-0.363-0.475-0.363-0.475-0.363h-6.146l0.172-0.334l-0.107-0.438l6.878-0.706c0,0,0.527,0.028,0.527-0.548
	s0-2.732,0-2.732s0.054-0.455-0.721-0.455C279.414,94.888,272.407,94.897,272.407,94.897z"/>
<ellipse fill="#FFFFFF" cx="273.204" cy="101.588" rx="0.85" ry="0.733"/>
<ellipse fill="#FFFFFF" cx="279.199" cy="101.588" rx="0.85" ry="0.733"/>
<path fill="#FFFFFF" d="M271.672,81.482l-0.009-3.877c0,0-0.717-0.259-0.717-0.838s0-3.141,0-3.141s-0.018-0.345,0.363-0.345
	c0.38,0,0.362,0.337,0.362,0.337v2.067c0,0,0.092,0.251,0.354,0.251c0.264,0,0.372-0.29,0.372-0.29v-2.036
	c0,0-0.009-0.329,0.363-0.329s0.346,0.313,0.346,0.313v2.083c0,0,0.117,0.29,0.334,0.29c0.354,0,0.399-0.306,0.399-0.306v-2.099
	c0,0-0.009-0.313,0.363-0.313s0.372,0.329,0.372,0.329v3.125c0,0-0.118,0.908-0.744,0.908l0.027,3.869c0,0-0.182,0.54-0.616,0.54
	c-0.436,0-1.017,0-1.017,0S271.672,81.89,271.672,81.482z"/>
<path fill="#FFFFFF" d="M278.924,81.448l-0.013-7.884c0,0-0.072-0.313-0.338-0.313c-0.267,0-1.791,0-1.791,0s-0.75,0.22-1.113,0.658
	c-0.361,0.438-0.351,0.741-0.351,0.741v4.125c0,0,0,0.136,0.255,0.136c0.254,0,1.173,0.011,1.173,0.011l-0.012,2.526
	c0,0,0.206,0.574,0.58,0.574c0.375,0,1.064,0,1.064,0S278.924,81.877,278.924,81.448z"/>
<rect x="270.12" y="114.556" fill="#FFFFFF" width="0.65" height="6.772"/>
<rect x="270.331" y="120.766" fill="#FFFFFF" width="10.188" height="0.562"/>
<rect x="272.023" y="117.928" fill="#FFFFFF" width="1.384" height="2.29"/>
<rect x="274.009" y="115.68" fill="#FFFFFF" width="1.351" height="4.538"/>
<rect x="275.995" y="116.775" fill="#FFFFFF" width="1.317" height="3.442"/>
<rect x="277.947" y="115.118" fill="#FFFFFF" width="1.286" height="5.1"/>
<g>
	<path fill="#FFFFFF" d="M285.035,169.729c0,0.524-0.185,0.938-0.555,1.242c-0.368,0.304-0.86,0.456-1.473,0.456h-6.637
		c-0.612,0-1.104-0.152-1.474-0.456c-0.368-0.304-0.554-0.718-0.554-1.242c0-0.231,0.009-0.457,0.027-0.678
		c0.017-0.221,0.053-0.459,0.105-0.715c0.054-0.256,0.12-0.493,0.202-0.712c0.08-0.218,0.189-0.432,0.325-0.639
		c0.137-0.208,0.294-0.385,0.472-0.531c0.177-0.146,0.394-0.263,0.649-0.351c0.255-0.088,0.537-0.131,0.846-0.131
		c0.046,0,0.152,0.047,0.319,0.141s0.355,0.199,0.565,0.314c0.211,0.116,0.483,0.221,0.82,0.315
		c0.337,0.094,0.674,0.141,1.014,0.141c0.339,0,0.678-0.047,1.014-0.141c0.337-0.095,0.61-0.199,0.819-0.315
		c0.211-0.115,0.399-0.221,0.565-0.314c0.168-0.094,0.275-0.141,0.319-0.141c0.309,0,0.592,0.043,0.848,0.131
		c0.255,0.088,0.472,0.204,0.649,0.351c0.177,0.146,0.333,0.323,0.47,0.531c0.138,0.207,0.246,0.421,0.327,0.639
		c0.08,0.219,0.148,0.456,0.201,0.712c0.054,0.256,0.089,0.494,0.106,0.715C285.027,169.271,285.035,169.497,285.035,169.729z
		 M281.751,162.095c0.569,0.491,0.854,1.085,0.854,1.779c0,0.695-0.285,1.289-0.854,1.78c-0.569,0.492-1.257,0.737-2.062,0.737
		s-1.492-0.245-2.062-0.737c-0.569-0.491-0.854-1.085-0.854-1.78c0-0.694,0.285-1.288,0.854-1.779
		c0.569-0.492,1.257-0.737,2.062-0.737S281.182,161.603,281.751,162.095z"/>
</g>
<g>
	<path fill="#FFFFFF" d="M289.9,202.616l-0.76,0.782c-0.065,0.063-0.15,0.102-0.256,0.116h-0.038c-0.106,0-0.19-0.025-0.257-0.074
		l-8.472-6.099l-8.472,6.099c-0.098,0.057-0.196,0.081-0.294,0.074c-0.106-0.015-0.192-0.053-0.258-0.116l-0.759-0.782
		c-0.064-0.07-0.094-0.153-0.085-0.248c0.008-0.096,0.053-0.171,0.135-0.228l8.802-6.331c0.262-0.184,0.57-0.275,0.931-0.275
		c0.359,0,0.669,0.092,0.931,0.275l2.986,2.155v-2.062c0-0.098,0.037-0.179,0.11-0.242c0.074-0.063,0.168-0.096,0.282-0.096h2.351
		c0.114,0,0.208,0.032,0.281,0.096s0.11,0.145,0.11,0.242v4.313l2.682,1.924c0.081,0.057,0.127,0.132,0.135,0.228
		C289.994,202.463,289.966,202.546,289.9,202.616z M287.17,203.346v5.073c0,0.184-0.077,0.342-0.232,0.476
		c-0.156,0.134-0.339,0.2-0.551,0.2h-4.701v-4.059h-3.134v4.059h-4.701c-0.213,0-0.397-0.066-0.551-0.2
		c-0.155-0.134-0.233-0.292-0.233-0.476v-5.073c0-0.007,0.001-0.018,0.006-0.032c0.004-0.014,0.007-0.024,0.007-0.032l7.039-5.01
		l7.04,5.01C287.166,203.296,287.17,203.317,287.17,203.346z"/>
</g>
<path fill="#FFFFFF" d="M275.239,186.084h-0.598c0,0-0.104,0.01-0.104-0.298c0-0.307,0-1.823,0-1.823s0.299-0.872,1.131-0.872h0.229
	l0.506-1.755c0,0,0.2-1.229,1.693-1.229c1.492,0,4.018,0.01,4.018,0.01s1.229-0.079,1.602,1.279l0.495,1.7
	c0,0,1.348-0.06,1.348,0.985c0,1.046,0,1.8,0,1.8s-0.005,0.183-0.246,0.183s-0.442-0.005-0.442-0.005v0.689
	c0,0-0.092,0.793-1.016,0.793c-0.925,0-1.044-0.788-1.044-0.788v-0.684l-5.507-0.006l-0.012,0.675c0,0-0.103,0.803-1.004,0.803
	s-1.05-0.817-1.05-0.817V186.084z"/>
<ellipse fill="#2D9E90" cx="276.262" cy="184.558" rx="0.85" ry="0.733"/>
<ellipse fill="#2D9E90" cx="283.821" cy="184.558" rx="0.85" ry="0.733"/>
<path fill="#2D9E90" d="M282.812,183.091h-5.563l0.499-1.562c0,0,0.017-0.223,0.465-0.223s3.651,0,3.651,0s0.431-0.134,0.534,0.401
	C282.5,182.243,282.812,183.091,282.812,183.091z"/>
<path fill="#FFFFFF" d="M277.521,241.389c0,0,0.064-0.752-0.624-0.752s-1.689,0-1.689,0s-0.367,0.083-0.367,0.376
	s0.389,0.376,0.389,0.376h1.41l1.184,4.795l-0.323,0.567c0,0-0.269,0.595,0.323,0.595c0.593,0,6.899,0,6.899,0
	s0.451-0.028,0.451-0.391s-0.473-0.362-0.473-0.362h-6.146l0.172-0.335l-0.107-0.437l6.879-0.706c0,0,0.526,0.028,0.526-0.548
	s0-2.732,0-2.732s0.054-0.455-0.722-0.455C284.528,241.38,277.521,241.389,277.521,241.389z"/>
<ellipse fill="#FFFFFF" cx="278.318" cy="248.079" rx="0.851" ry="0.734"/>
<ellipse fill="#FFFFFF" cx="284.313" cy="248.079" rx="0.851" ry="0.734"/>
<path fill="#FFFFFF" d="M276.787,227.975l-0.01-3.877c0,0-0.717-0.259-0.717-0.838c0-0.58,0-3.141,0-3.141s-0.019-0.345,0.363-0.345
	c0.381,0,0.363,0.337,0.363,0.337v2.067c0,0,0.09,0.251,0.354,0.251c0.263,0,0.372-0.29,0.372-0.29v-2.036
	c0,0-0.009-0.329,0.362-0.329c0.372,0,0.345,0.313,0.345,0.313l0.001,2.083c0,0,0.118,0.289,0.335,0.289
	c0.354,0,0.399-0.305,0.399-0.305v-2.1c0,0-0.009-0.312,0.362-0.312c0.372,0,0.372,0.328,0.372,0.328v3.125
	c0,0-0.118,0.909-0.743,0.909l0.027,3.869c0,0-0.183,0.54-0.618,0.54s-1.016,0-1.016,0S276.787,228.382,276.787,227.975z"/>
<path fill="#FFFFFF" d="M284.037,227.94l-0.011-7.885c0,0-0.072-0.312-0.339-0.312s-1.79,0-1.79,0s-0.75,0.219-1.113,0.657
	s-0.351,0.742-0.351,0.742v4.124c0,0,0,0.136,0.253,0.136c0.255,0,1.175,0.011,1.175,0.011l-0.013,2.527c0,0,0.206,0.574,0.58,0.574
	c0.376,0,1.064,0,1.064,0S284.037,228.369,284.037,227.94z"/>
<rect x="275.233" y="261.048" fill="#FFFFFF" width="0.651" height="6.771"/>
<rect x="275.445" y="267.258" fill="#FFFFFF" width="10.188" height="0.562"/>
<rect x="277.139" y="264.42" fill="#FFFFFF" width="1.383" height="2.29"/>
<rect x="279.124" y="262.172" fill="#FFFFFF" width="1.351" height="4.538"/>
<rect x="281.108" y="263.268" fill="#FFFFFF" width="1.319" height="3.442"/>
<rect x="283.062" y="261.609" fill="#FFFFFF" width="1.285" height="5.101"/>
<ellipse fill="none" stroke="#FFFFFF" stroke-width="2" stroke-miterlimit="10" cx="274.575" cy="18.194" rx="11.84" ry="10.222"/>
<ellipse fill="none" stroke="#FFFFFF" stroke-width="3" stroke-miterlimit="10" cx="280.539" cy="202.496" rx="11.841" ry="10.223"/>
</svg>
