<?xml version="1.0" encoding="utf-8"?>
<!-- Generator: Adobe Illustrator 16.0.4, SVG Export Plug-In . SVG Version: 6.00 Build 0)  -->
<!DOCTYPE svg PUBLIC "-//W3C//DTD SVG 1.1//EN" "http://www.w3.org/Graphics/SVG/1.1/DTD/svg11.dtd">
<svg version="1.1" id="Layer_2" xmlns="http://www.w3.org/2000/svg" xmlns:xlink="http://www.w3.org/1999/xlink" x="0px" y="0px"
	 width="200px" height="200px" viewBox="0 0 200 200" enable-background="new 0 0 200 200" xml:space="preserve">
<g>
	<path fill="#FFFFFF" d="M69.48,150.591c-5.586,0-10.783-3.334-13.24-8.495L5.646,35.801c-1.681-3.531-1.932-7.489-0.706-11.146
		c1.238-3.695,3.831-6.639,7.3-8.291l12.126-5.772c1.892-0.9,3.912-1.356,6.004-1.356c5.586,0,10.783,3.334,13.239,8.495
		l50.596,106.295c1.68,3.531,1.931,7.489,0.706,11.146c-1.239,3.695-3.831,6.64-7.3,8.291l-12.126,5.772
		C73.593,150.135,71.573,150.591,69.48,150.591z M30.371,15.236c-1.193,0-2.346,0.26-3.425,0.774l-12.126,5.772
		c-1.986,0.945-3.474,2.642-4.19,4.779c-0.729,2.175-0.575,4.54,0.434,6.66l50.595,106.295c1.467,3.082,4.537,5.073,7.822,5.073
		c1.193,0,2.346-0.261,3.425-0.774l12.126-5.772c1.986-0.944,3.474-2.642,4.19-4.779c0.729-2.175,0.575-4.541-0.435-6.661
		L38.192,20.31C36.725,17.228,33.655,15.236,30.371,15.236z"/>
</g>
<g>
	<path fill="#FFFFFF" d="M97.777,175.159c-0.427,0-0.852-0.137-1.207-0.405l-35.017-26.492c-0.694-0.524-0.969-1.438-0.68-2.258
		s1.083-1.381,1.943-1.336c25.488,0.746,28.832-15.942,28.862-16.107c0.18-0.983,1.049-1.67,2.055-1.639
		c0.998,0.044,1.811,0.817,1.903,1.812l4.104,43.957c0.036,0.15,0.055,0.307,0.055,0.468c0,1.106-0.867,1.999-2.009,2
		C97.785,175.159,97.781,175.159,97.777,175.159z M68.547,148.537l26.816,20.288l-3.025-32.405
		C88.88,141.465,81.981,147.505,68.547,148.537z"/>
</g>
<g>
	<polygon fill="#FFFFFF" points="96.266,159.909 86.345,163.858 97.777,170.659 	"/>
</g>
<g>
	
		<rect x="28.758" y="21.097" transform="matrix(0.413 0.9107 -0.9107 0.413 55.5729 -5.7639)" fill="#FFFFFF" width="7" height="38.26"/>
</g>
<g>
	
		<rect x="-0.029" y="91.242" transform="matrix(0.4324 0.9017 -0.9017 0.4324 116.343 1.6565)" fill="#FFFFFF" width="113.769" height="4"/>
</g>
<g>
	<path fill="#FFFFFF" d="M161,177.58c0,3.821-3.099,6.92-6.92,6.92h-39.16c-3.821,0-6.92-3.099-6.92-6.92l0,0
		c0-3.822,3.099-6.921,6.92-6.921h39.16C157.901,170.659,161,173.758,161,177.58L161,177.58z"/>
</g>
</svg>
