<?xml version="1.0" encoding="utf-8"?>
<!-- Generator: Adobe Illustrator 16.0.4, SVG Export Plug-In . SVG Version: 6.00 Build 0)  -->
<!DOCTYPE svg PUBLIC "-//W3C//DTD SVG 1.1//EN" "http://www.w3.org/Graphics/SVG/1.1/DTD/svg11.dtd">
<svg version="1.1" id="Layer_1" xmlns="http://www.w3.org/2000/svg" xmlns:xlink="http://www.w3.org/1999/xlink" x="0px" y="0px"
	 width="300px" height="225px" viewBox="0 0 300 225" enable-background="new 0 0 300 225" xml:space="preserve">
<linearGradient id="SVGID_1_" gradientUnits="userSpaceOnUse" x1="149.5356" y1="-60.7959" x2="149.5356" y2="282.9155">
	<stop  offset="0.5051" style="stop-color:#2BB673"/>
	<stop  offset="0.8979" style="stop-color:#00703E"/>
	<stop  offset="0.9286" style="stop-color:#006B3B"/>
	<stop  offset="0.9592" style="stop-color:#006838"/>
</linearGradient>
<rect x="-22.319" y="-60.796" fill="url(#SVGID_1_)" width="343.711" height="343.711"/>
<path opacity="0.2" fill="#FDF168" d="M205.986,198.822c0,0-0.352-0.449-0.545-0.16c-0.193,0.287-0.353,0.449-0.353,0.608
	c0,0.16-0.129,0.61-0.353,0.61c-0.225,0-0.354,0.32-0.417,0.448c-0.064,0.128-0.834,0.578-0.867,0.93
	c-0.03,0.354-1.121,0.738-1.121,0.738s0.384-1.506,0-1.54c-0.385-0.031-0.61-0.608-0.803-0.672
	c-0.192-0.064-0.994-0.578-0.994-0.578s-0.642-0.707-0.93-0.642c-0.289,0.064-0.995-0.786-1.042-0.93
	c-0.049-0.144-0.385-0.208-0.578-0.385s-1.025-1.187-1.33-1.123s-1.203-0.063-1.252-0.145c-0.049-0.079-0.417-0.353-0.769-0.417
	c-0.354-0.064-0.354,0.113-0.595-0.16c-0.239-0.272-0.705-0.722-0.705-0.722s0.145-0.271,0.113-0.576
	c-0.033-0.306-0.258-0.659-0.369-0.786c-0.112-0.128-0.192-0.386-0.515-0.626c-0.32-0.24-0.593-1.01-0.545-1.268
	c0.048-0.256-0.24-0.656-0.176-0.961c0.064-0.306,0.161-0.802,0.257-0.898s0.256-0.369,0.096-0.545
	c-0.16-0.177-0.272-0.577-0.272-0.577s0.272-0.513,0.353-0.658c0.08-0.144,0.273-1.428,0.273-1.604s-0.129-0.609,0.032-0.688
	c0.16-0.082,0.256-1.396,0.256-1.461c0-0.063,0.129-1.138,0.241-1.171c0.111-0.031,0.048-1.218,0.062-1.427
	c0.018-0.208,0.161-0.802,0.081-1.042c-0.081-0.24-0.241-0.931-0.241-0.931s0.354-0.48,0.306-0.674
	c-0.049-0.19-0.354-1.202-0.384-1.266c-0.033-0.065-0.179-0.529-0.193-0.674c-0.017-0.144-0.354-0.866-0.481-0.945
	c-0.128-0.081-0.433-0.514-0.288-0.595c0.144-0.08,0.272-0.24,0.272-0.336c0-0.097-0.341-0.77-0.379-0.851
	c-0.038-0.08-0.327-1.186-0.392-1.41c-0.063-0.225-0.032-0.642,0.098-0.946c0.127-0.305-0.386-0.803-0.418-0.722
	c-0.031,0.08-0.754-0.097-0.723-0.177c0.033-0.081,0.064-0.416-0.001-0.594c-0.062-0.175-0.143-0.528-0.287-0.818
	c-0.144-0.288-0.513-0.496-0.272-0.721s0.401-1.01,0.226-1.092c-0.177-0.079-0.305,0.082-0.37-0.207
	c-0.062-0.289-0.047-0.529,0-0.77c0.048-0.242-0.609-1.14-0.577-1.38c0.033-0.241,0.146-0.272-0.097-0.689
	c-0.24-0.416-0.512-0.77-0.48-0.994c0.031-0.226,0.225-0.576-0.24-0.689c-0.465-0.112-1.412-1.075-1.348-1.299
	c0.065-0.225,0.209-0.449,0.129-0.546c-0.08-0.096-0.112-0.047-0.209-0.305c-0.096-0.256-0.08-0.497-0.08-0.497l-0.48-0.271
	c0,0-0.226-1.235-0.337-1.348c-0.112-0.112-0.498-0.353-0.417-0.593c0.08-0.241,0.401-0.225,0.417-0.449s-0.13-1.604,0.032-2.004
	c0.16-0.402,0.272-0.402,0.416-0.658c0.146-0.257,0.146-0.497,0.178-0.562c0.031-0.064,0.496,0.273,0.704-0.192
	c0.21-0.465,0.562-0.705,0.594-0.753c0.032-0.05,0.272-0.306,0.385-0.338c0.113-0.031,0.208-0.576,0.226-0.721
	c0.016-0.145,1.379-1.25,1.556-1.268c0.176-0.017,0.609-0.063,0.818,0c0.208,0.064,0.592,0.031,0.624-0.033
	c0.033-0.063,0.033-1.33,0.033-1.33s0.368,0.177,0.656-0.337c0.289-0.513,0.354-0.785,0.449-1.009
	c0.097-0.226,0.112-0.546,0.272-0.642c0.161-0.097,0.545-0.61,0.689-0.899c0.146-0.287,0.063-0.224,0.177-0.561
	c0.112-0.337,0.337-0.641,0.48-0.834c0.146-0.192,1.06-0.401,1.188-0.336c0.127,0.063,0.261-0.289,0.315-0.498
	c0.054-0.208-0.055-1.619,0-1.684c0.054-0.064,0.182-0.481,0.069-0.803s-0.321-0.864-0.513-1.154
	c-0.193-0.289-0.883-0.785-0.771-1.138c0.112-0.354,0.016-0.401-0.305-0.593c-0.32-0.192-0.32-0.851-0.448-1.14
	c-0.13-0.288-0.834-0.352-0.851-0.802c-0.018-0.449,0.08-1.01-0.018-1.314c-0.095-0.305-0.479-0.979-0.318-1.139
	c0.159-0.16,0.063-1.059-0.129-1.379c-0.192-0.321,0.239-1.925,0.225-2.021c-0.017-0.097-0.064-1.155,0.032-1.172
	c0.096-0.015,0.882-0.865,1.074-0.977c0.192-0.113,0.785-0.595,1.074-0.577c0.289,0.015,0.385,0.111,0.705,0.223
	c0.321,0.112,0.818,0.289,0.898,0.403c0.08,0.111,0.273,0.079,0.481,0.095c0.208,0.017,0.176,0.177,0.449,0.401
	c0.271,0.224,0.513,0.544,0.897,0.513c0.386-0.033,0.497-0.241,0.802-0.048c0.305,0.192,0.417,0.881,0.578,0.979
	c0.159,0.095,0.48,0.177,0.577,0.304c0.096,0.128,0.208,0.931,0.609,1.14c0.4,0.208,0.864,0.434,1.041,0.769
	c0.178,0.336,0.723,0.336,1.06,0.594c0.337,0.257,0.882,0.609,1.01,0.914c0.129,0.305,0.305,0.785,0.593,0.833
	c0.288,0.049,0.947-0.03,1.06,0.146s0.465,0.946,0.77,1.106s0.93-0.321,1.09-0.321s1.477,0.08,1.652,0.288
	c0.176,0.209,1.347,0.483,1.507,0.643c0.161,0.16,0.643,0.208,1.09,0.305c0.449,0.096,0.883,0.063,0.931,0.128
	s0.77,0.449,0.77,0.449s1.107,0.513,1.315,0.625c0.208,0.113,0.208,0.209,0.416,0.417c0.209,0.209,0.69,0.385,0.899,0.626
	c0.208,0.239,0.111,0.577,0.737,0.641c0.625,0.064,0.528-0.128,1.17,0.16c0.642,0.289,1.027,0.113,1.236,0.578
	c0.209,0.466,0.175,0.545,0.865,0.737c0.688,0.192,1.042,0.593,1.299,0.914s0.321,0.771,0.626,0.898
	c0.304,0.128,0.801,0.111,0.962,0.271c0.159,0.161,0.93,0.482,0.978,0.625c0.049,0.146,0.289,0.531,0.271,0.723
	c-0.015,0.192,1.396,1.011,1.621,1.267c0.225,0.258,0.192,0.625,0.562,0.625s0.642,0,0.705,0.146
	c0.064,0.144-0.031,0.593,0.08,0.753c0.113,0.161,0.514,0.658,0.545,0.818c0.032,0.161,0.626,0.771,0.722,0.85
	c0.097,0.08,0.529,0.354,0.514,0.497c-0.016,0.145,0.272,0.498,0.272,0.626c0,0.129,0.145,0.673,0.16,0.962
	c0.017,0.289-0.128,0.417-0.319,0.657c-0.193,0.24-0.098,0.48-0.065,0.626c0.032,0.144,0.288,1.764,0.176,2.005
	c-0.11,0.24-0.256,0.448-0.224,0.657c0.032,0.208,0.208,0.962,0.241,1.074c0.031,0.111,0.143,0.802,0.288,0.818
	c0.145,0.015,0.689-0.514,0.689-0.562s0.097-0.305,0.497-0.21c0.4,0.098,0.784,0.146,1.09,0.081
	c0.306-0.063,0.931-0.063,0.963,0.032c0.033,0.097,1.043,1.492,1.139,1.796c0.097,0.305,0.145,1.411,0,1.909
	c-0.144,0.496,0.054,0.673,0.091,0.882c0.036,0.208,0.102,0.288,0.118,0.593c0.016,0.306,0.159,0.754,0.576,0.882
	c0.418,0.128,0.754,0.353,0.754,0.353s-0.128,0.497-0.128,0.578c0,0.079,0.625,0.689,0.625,0.689s1.012,0.785,1.106,0.993
	c0.097,0.208,0.609,0.529,0.706,0.578c0.097,0.048,1.22,0.754,1.491,0.849c0.273,0.098,0.256-0.416,0.626,0.082
	c0.369,0.497,1.619,1.234,1.715,1.507c0.097,0.273,0.16,0.514,0,0.545c-0.159,0.033-0.433,0.289-0.399,0.417
	c0.031,0.129,0.031,0.609,0.031,0.609s-1.091,1.925-1.62,2.391c-0.528,0.464-1.94,2.147-2.181,2.276
	c-0.241,0.128-0.385-0.112-0.705,0.337c-0.321,0.448-1.62,1.57-1.908,1.955c-0.29,0.387-1.62,1.172-2.021,1.461
	c-0.399,0.288-0.946,0.721-1.105,0.865c-0.161,0.145-1.572,0-1.732,0.239c-0.16,0.242-0.354,0.626-0.658,0.915
	c-0.304,0.289-1.025,0.449-1.282,0.835c-0.257,0.385-0.095,0.673-0.401,0.594c-0.305-0.081-0.688-0.531-1.154-0.209
	c-0.465,0.32,0.177,0.368-0.449,0.513c-0.625,0.144-1.251-0.017-1.427,0.241c-0.177,0.256-0.45,0.159-0.706,0.079
	c-0.256-0.079-1.893-0.817-2.18-0.737c-0.289,0.08-0.514,0.145-0.722,0.256c-0.21,0.112-0.771,0-0.979,0.112
	c-0.21,0.113-0.69,0.546-0.916,0.995c-0.223,0.449-0.768,0.562-1.072,0.849c-0.306,0.289-0.369,0.595-0.594,0.915
	c-0.225,0.321-0.689,0.465-0.979,0.626c-0.288,0.159-0.962,0.272-1.011,0.368c-0.048,0.096-0.144,0.385-0.528,0.385
	c-0.386,0-1.556,0.754-1.62,1.122c-0.064,0.369-0.448,1.139-0.979,1.38c-0.528,0.24-1.25,0.112-1.524,0.288
	c-0.271,0.177-0.704,0.576-0.721,0.625c-0.016,0.048,0.192,0.354-0.145,0.61c-0.336,0.256-0.77,0.417-0.865,0.706
	c-0.097,0.289,0.16,0.545-0.209,0.64c-0.368,0.098-0.641,0.418-0.641,0.658c0,0.241-0.322,1.958-0.322,1.958
	s-0.641,0.239-0.784,0.737c-0.145,0.496,0.192,0.897-0.08,1.121C206.708,197.138,205.986,198.822,205.986,198.822z"/>
<path opacity="0.2" fill="#FDF168" d="M181.708,110.207c0,0-0.978,0.271-1.123,0.256c-0.144-0.017-0.673-0.433-0.93-0.433
	s-1.155,0.064-1.234,0.32c-0.08,0.257-1.026,0.946-1.22,1.075c-0.191,0.128-0.962,0.625-1.187,0.545
	c-0.224-0.081-0.802,0.192-0.929,0.353c-0.129,0.159-0.787,0.192-1.06,0.111c0,0-0.673-0.16-0.77-0.048
	c-0.097,0.113-0.208,0.208-0.433,0.208s-1.074,0.466-1.124,0.45c-0.047-0.016-0.848-0.401-1.073-0.385
	c-0.225,0.016-0.802-0.032-0.802-0.032s-0.321-1.026-0.482-0.931c-0.16,0.096-0.624-0.353-0.656-0.673s-0.016-0.369-0.208-0.688
	c-0.192-0.321-0.578-1.107-0.578-1.107s0.386-0.273,0.515-0.498c0.127-0.224-0.081-0.77-0.081-1.025
	c0-0.258-0.208-1.092-0.208-1.268s-0.24-0.931-0.226-1.315c0.017-0.384,0.081-1.57-0.096-2.053
	c-0.177-0.479-0.754-1.683-0.979-1.699c-0.225-0.016-0.994-0.529-1.091-0.288c-0.096,0.24-0.545,1.09-0.913,1.187
	c-0.369,0.096-1.188-0.674-1.396-0.786c-0.208-0.112-0.673-0.192-0.993-0.176c-0.32,0.016-0.434-0.369-0.626-0.626
	c-0.192-0.256-0.528-0.514-0.834-0.449c-0.305,0.064-0.48,0.334-0.625-0.01c-0.144-0.343-0.994-1.595-1.316-1.818
	c-0.319-0.225-0.496-0.306-0.672-0.641c-0.177-0.338-0.369-0.851-0.546-1.043c-0.176-0.191-0.529-0.593-0.319-0.994
	c0.207-0.4,0.319-0.688,0.111-0.801c-0.209-0.114-0.529-0.659-0.401-0.947c0.129-0.288,0.192-0.528,0.321-1.234
	c0.128-0.706,0.337-1.844,0.657-2.197c0.321-0.353-0.08-0.545,0.289-0.77s0.689-0.017,1.042-0.466
	c0.354-0.447-0.225-1.058,0.369-0.994c0.594,0.065,1.01,0.241,1.235,0.192c0.224-0.048,0.305-0.32,0.527-0.368
	c0.226-0.048,0.595-0.064,0.708,0.306c0.11,0.368,0.833,0.721,0.896,0.753c0.064,0.032,0.416,0.722,0.515,0.849
	c0.096,0.129,0.559,0.482,0.785,0.643c0.225,0.16,0.447,0.674,0.497,0.866c0.048,0.191,0.353,0.817,0.465,1.01
	c0.111,0.192,0.224,0.161,0.32,0.609c0.097,0.449,0.32,0.177,0.449,0.594c0.128,0.416-0.546,0.513,0.064,0.785
	c0.609,0.273,0.993,0.08,0.914,0.675c-0.081,0.593,0.288,0.785,0.353,0.705c0.064-0.081,0.288-0.417,0.77-0.546
	c0.48-0.129,1.074-0.528,1.699-0.625c0.626-0.096,0.834-0.353,1.155-0.545c0.321-0.193,1.107-0.754,1.363-0.852
	c0.256-0.095,0.096,0,0.256-0.095c0.161-0.097,0.418-0.128,0.545-0.289c0.128-0.161,0.626-0.337,0.771-0.177
	c0.143,0.161,0.753,0.241,0.864,0.241c0.112,0,0.689-0.273,0.771-0.241c0.08,0.033,0.273,0.417,0.369,0.481s0.272,0.049,0.529,0.097
	c0.256,0.048,0.608-0.032,0.818,0.08c0.209,0.111,0.817,0.063,0.801,0.305c-0.016,0.241-0.112,0.882-0.112,0.882
	s0.272,0.017,0.465,0.177s0.336,0.353,0.481,0.577c0.145,0.225,0.721,0.801,0.738,0.882c0.016,0.08,0.896,0.352,0.896,0.352
	s0.258,0.546,0.354,0.724c0.096,0.175,0.305,0.304,0.643,0.16c0.336-0.145,0.545-0.145,0.641-0.064
	c0.096,0.079,0.4,0.785,0.433,1.09c0.032,0.306,0.288,0.449,0.321,0.497c0.032,0.049,0.145,0.272,0.384,0.305
	c0.241,0.032,0.593-0.144,0.626-0.208c0.032-0.063,0.737,0.064,0.898,0.369c0.16,0.305,0.577,0.528,0.818,0.576
	c0.239,0.049,1.153,0.505,1.186,0.494c0.032-0.013,0.817,0.275,0.931,0.469c0.113,0.192,0.464,0.4,0.497,0.481
	c0.033,0.08,0.145,0,0.352,0.207c0.209,0.208,0.193,0.082,0.29,0.515c0.097,0.432,0,0.608,0,0.882c0,0.272,0.192,0.208,0.112,0.576
	c-0.081,0.369-0.24,0.594-0.193,0.77c0.049,0.178-0.11,0.562-0.128,0.626c-0.016,0.064-0.834,1.893-1.074,1.939
	c-0.24,0.049-0.528-0.271-0.722,0.065c-0.192,0.336-1.33,1.459-1.556,1.636c-0.225,0.177-0.528,0.16-0.608,0.177
	c-0.08,0.015-0.209-0.112-0.482,0.224c-0.271,0.338-0.721,0.177-0.913,0.305c-0.194,0.128-0.658,0.834-1.026,0.963
	C182.205,110.544,181.708,110.207,181.708,110.207z"/>
<path opacity="0.2" fill="#FDF168" d="M164.678,114.91h-0.257c0,0-0.288-0.086-0.405-0.086c0,0-0.396,0.162-0.322,0
	c0.075-0.16,0.236-1.347,0.236-1.347s0.319-0.053,0.407-0.106c0.084-0.054-0.257-1.144-0.365-1.229
	c-0.106-0.086-1.283-1.091-1.507-0.92c-0.225,0.172-1.4,1.113-1.646,1.188s-0.332,0.289-0.417,0.438
	c-0.085,0.15-0.234,0.074-0.427,0.199c-0.193,0.122,0.095,0.529-0.312,0.422s-0.929,0.277-1.11,0.374
	c-0.183,0.097-0.536,0.427-0.59,0.599c-0.052,0.171-0.149,0.319-0.353,0.47c-0.202,0.15-0.522,0.888-0.234,1.111
	c0.289,0.225,0.502,0.214,0.46,0.481c-0.043,0.267,0.171,0.459,0.395,0.513c0.226,0.053,0.781-0.15,0.781-0.15l0.587-0.609
	c0,0,0.407,0.075,0.365,0.343c-0.044,0.267,0.608-0.086,0.876-0.182c0.268-0.097,0.62-0.074,0.62-0.074s0.116-0.481,0.277-0.514
	c0.161-0.031,0.171,0.396,0.363,0.662c0.192,0.269,0.578-0.299,0.846-0.341c0.267-0.043,0.557-0.097,0.78-0.022
	c0.225,0.075,0.438,0.225,0.522,0.257C164.337,116.417,164.978,115.201,164.678,114.91z"/>
<path opacity="0.2" fill="#FDF168" d="M151.987,101.022c0,0-1.218,1.626-1.238,1.797c-0.022,0.17-0.547,0.096-0.718,0.214
	c-0.172,0.117-0.599,0.416-0.909,0.619c-0.309,0.204-0.694,0.439-0.738,0.514c-0.041,0.075,0.033-0.074-0.448,0
	c-0.48,0.075-1.154,0.086-1.154,0.128c0,0.043-0.096,0.011-0.3,0c-0.203-0.011-0.704-0.011-0.801,0.14
	c-0.098,0.149-0.61,0.181-0.621,0.097c-0.011-0.087-0.159-0.653-0.341-0.748c-0.182-0.098-0.59-0.493-0.599-0.707
	c-0.011-0.214-0.098-0.588-0.065-0.792c0.032-0.202-0.234-0.491-0.224-0.577c0.01-0.085,0.15-0.447,0.15-0.684
	c0-0.235,0.041-0.727,0-0.877c-0.044-0.15,0.02-0.546-0.033-0.599c-0.054-0.053-0.6-1.188-0.652-1.455s-0.748-0.727-0.94-0.727
	c-0.193,0-1.037-0.503-1.176-0.866c-0.14-0.363-0.064-1.883,0-1.894c0.063-0.01,0.641-0.138,0.919-0.362
	c0.277-0.225,1.357-0.59,1.582-0.524c0.225,0.063,1.048-0.271,1.122-0.009c0.075,0.265,0.588,0.244,1.006,0.232
	c0.417-0.011,1.188,0.012,1.519,0.268c0.33,0.257,1.72,1.08,1.838,1.304c0.118,0.226,0.438,0.621,0.728,0.706
	s1.614,1.625,1.796,1.968c0.182,0.342,0.471,0.93,0.503,1.207C152.223,99.673,151.987,101.022,151.987,101.022z"/>
<path opacity="0.2" fill="#FDF168" d="M150.77,87.339c0,0-0.375,0.173-0.418,0.173s-0.128-0.258-0.331-0.087
	c-0.203,0.172-0.717,0.567-0.983,0.363c-0.268-0.202-1.283-0.759-1.593-0.779c-0.311-0.021-1.048-0.333-1.347-0.354
	c-0.3-0.021-1.305-0.331-1.583-0.459c-0.277-0.129-1.208-0.375-1.583-0.406c-0.373-0.032-1.517-0.974-1.774-1.251
	c-0.256-0.278-1.207,0.073-1.314,0c-0.106-0.075-0.139-0.3-0.385-0.342c-0.246-0.043-0.555,0.288-0.727,0.374
	s-0.898,0.321-1.026,0.342c-0.129,0.021-2.747-0.043-2.961,0c-0.215,0.043-1.155,0.299-1.348,0.374s-1.251,0-1.423-0.043
	c-0.17-0.042-2.084-0.363-2.127-0.363c-0.042,0-0.311-0.688-0.311-0.688s0.567-1.003,0.609-1.163
	c0.044-0.16,0.128-0.651,0.225-0.662c0.097-0.012,0.343-0.192,0.407-0.471c0.063-0.278,0.855-0.728,1.079-0.846
	c0.225-0.117,0.481-0.555,0.449-0.662s0.203-0.482,0.203-0.546c0-0.064,0-0.171,0.031-0.47c0.033-0.301-0.213-0.835-0.427-1.166
	s0.416-0.557,0.674-0.396c0.257,0.16,0.908,0.138,1.058,0.138s0.781,0.098,0.823,0.278c0.043,0.183,0.46,0.471,0.546,0.621
	c0.086,0.149,0.994,0.342,1.197,0.289c0.203-0.054,0.534-0.032,0.759,0.074s0.46-0.054,0.62-0.106
	c0.161-0.054,0.717,0.181,0.962,0.225c0.246,0.043,0.664-0.032,0.803,0.01c0.139,0.044,0.299,0.374,0.866,0.449
	c0.565,0.075,2.191,0.234,2.555,0.311c0.363,0.074,0.641-0.054,0.737-0.097c0.096-0.043,0.588-0.854,0.599-1.102
	c0.011-0.246,0.31-0.491,0.343-0.491c0.031,0,0.565,0.011,0.565,0.011s0.868,1.571,0.78,1.743c-0.085,0.171,0.567,0.78,0.739,0.747
	c0.171-0.031,0.513-0.106,0.588-0.085c0.074,0.021,0.693,0.386,0.77,0.343c0.074-0.043,0.502-0.396,0.502-0.396
	s0.429,0.289,0.48,0.311c0.054,0.021,0.354-0.106,0.62-0.064c0.268,0.043,0.609,0.15,0.706,0.107s0.246-0.226,0.364-0.246
	c0.117-0.021,0.684-0.107,0.79-0.193c0.106-0.085,0.492-0.341,0.685-0.233c0.192,0.105,0.77,0.555,0.801,0.479
	c0.034-0.074,0.151-0.257,0.269-0.277c0.117-0.021,1.325-0.011,1.325-0.011s0.236-0.171,0.374-0.171c0.14,0,0.257,0.503,0.257,0.577
	c0,0.075,1.006,0.3,1.219,0.129c0.213-0.172,0.181,0.77,0.106,0.94c-0.075,0.171-0.598,1.271-0.769,1.262
	c-0.171-0.011-0.503,0.396-0.557,0.62c-0.054,0.226-1.166,1.732-1.465,1.903s-0.834,0.342-1.24,0.428
	C152.159,86.419,150.77,87.339,150.77,87.339z"/>
<path opacity="0.2" fill="#FDF168" d="M126.141,73.142c-0.021,0.085-1.133,1.646-1.453,1.881c-0.322,0.236-0.855,0.492-0.749,0.577
	c0.106,0.086-0.215,0.363-0.514,0.406s-0.47-0.876-0.705-0.94c-0.234-0.064-1.539,0.063-1.902,0.214
	c-0.363,0.149-1.326,0.431-1.411,0.729c-0.087,0.298-0.812,0.321-1.134,0c-0.321-0.322-0.491-0.964-0.663-1.156
	c-0.17-0.192-0.769-0.364-0.897-0.534c-0.128-0.172-0.043-0.962-0.47-1.176c-0.429-0.215-0.45-0.514-0.642-0.514
	c-0.192,0-0.771-0.492-0.771-0.492s-0.62,0.791-0.77,0.962c-0.15,0.172-0.214,0.279-0.514,0.235
	c-0.299-0.043-0.577-0.171-0.854-0.191c-0.278-0.022-0.663-0.578-0.727-0.558c-0.064,0.022-0.278,0.172-0.535,0.386
	c-0.256,0.214-1.925,0.386-2.138,0.535c-0.215,0.149-0.941,0.363-1.52,0.299c-0.577-0.063-1.175,0.319-1.432,0.384
	c-0.257,0.066-0.3,0.022-0.685-0.212c-0.385-0.235-0.962-1.668-1.004-1.989c-0.043-0.32-0.301-1.262-0.406-1.497
	c-0.108-0.235-0.543-0.807-0.631-0.982c-0.089-0.177-0.272-0.458-0.497-0.578c-0.226-0.119-0.682-0.312-0.746-0.624
	c-0.064-0.313-0.248-0.843-0.36-1.163c-0.113-0.321-0.442-1.195-0.634-1.38c-0.193-0.184-0.353-0.257-0.602-0.345
	c-0.248-0.088-0.272-0.537-0.449-0.729c-0.176-0.192-0.449-0.232-0.505-0.225c-0.057,0.008,0-2.975,0-3.03
	c0-0.057-0.529-0.763-0.601-0.794c-0.073-0.032-0.25-0.288-0.467-0.312c-0.216-0.024-1.09-1.187-1.098-1.299
	c-0.008-0.113,1.636-0.338,1.812-0.329c0.176,0.008,0.176,0.008,0.464-0.112c0.29-0.12,0.449-0.12,0.674-0.096
	c0.226,0.023,0.32-0.161,0.473-0.152c0.153,0.007,1.052,0.232,1.188,0.199c0.136-0.031,1.355-0.088,1.459-0.047
	c0.104,0.04,0.241-0.072,0.386-0.064c0.144,0.008,0.697,0.248,0.697,0.248s0.136-0.104,0.2-0.256s0.168-0.225,0.296-0.338
	c0.129-0.111,0.226-0.336,0.226-0.336s0.353-0.802,0.625-0.874s1.019-0.722,1.074-1.011c0.057-0.289-0.08-0.753,0.112-0.785
	c0.193-0.032,1.5-1.556,1.652-1.724c0.151-0.168,0.128-0.474,0.44-0.618c0.313-0.145,0.537-0.032,0.714-0.376
	c0.177-0.346,0.504-0.521,0.786-0.481c0.28,0.04,0.994,0.168,1.058,0.232c0.064,0.063,0,0.216,0.417,0.361
	c0.416,0.144,0.416,0.384,0.634,0.794c0.217,0.408,0.377,0.641,0.521,0.817c0.146,0.176,0.146,0.562,0.361,0.745
	c0.216,0.185,0.409-0.064,0.305,0.297c-0.104,0.361-0.344,0.513-0.232,0.818c0.111,0.305,0.144,0.279,0.272,0.448
	c0.128,0.169,0.249,0.449,0.466,0.642c0.216,0.192,0.416,0.368,0.408,0.633c-0.008,0.266,0.361,0.595,0.497,0.858
	c0.136,0.265,0.328,0.778,0.385,1.083c0.058,0.305,0.257,0.481,0.385,0.297s0.625-0.129,0.666-0.009
	c0.04,0.12,0.568,1.179,0.602,1.243c0.031,0.064,0.048,1.379-0.097,1.548c-0.144,0.167-0.136-0.081-0.28,0.24
	c-0.145,0.32-0.145,0.505-0.073,0.706c0.073,0.199,0.177-0.032,0.218,0.208c0.039,0.24,0.023,0.697,0.023,0.729
	s0.193,0.265,0.321,0.354c0.128,0.088,0.48,0.152,0.602,0.319c0.12,0.169,0.633,1.701,0.802,1.789
	c0.167,0.088,0.16-0.177,0.44-0.088c0.28,0.088,0.473,0.353,0.481,0.496c0.008,0.145,0.424,0.04,0.585-0.32
	c0.16-0.361,0.201-0.626,0.177-0.674c-0.024-0.049-0.137-0.072-0.338-0.168c-0.199-0.097-0.272-0.329-0.272-0.433
	c0-0.105,0.161-0.353,0.329-0.457c0.169-0.105,0.489-0.049,0.737,0.111c0.249,0.161,0.401,0.081,0.514,0.064
	s0.353-0.353,0.409-0.345c0.057,0.009,0.465,0.128,0.456,0.192c-0.007,0.064-0.384,0.617-0.408,0.674
	c-0.024,0.056-0.104,0.08-0.184,0.408c-0.081,0.329-0.289,0.714-0.306,0.922c-0.017,0.209,0.689,0.947,0.906,0.947
	s0.705,0.336,0.746,0.77c0.039,0.433-0.306,1.571-0.088,1.756c0.216,0.185,0.393,0.536,0.729,0.906
	c0.337,0.368,0.401,0.393,0.69,0.44c0.288,0.049,0.305,0.32,0.513,0.466C125.521,72.842,126.141,73.142,126.141,73.142z"/>
<path opacity="0.2" fill="#FDF168" d="M74.464,51.863c-0.491,0.085-1.133-0.086-1.582-0.214c-0.448-0.129-0.32-0.428-0.791-0.6
	c-0.471-0.171-1.412-0.021-1.433-0.406c-0.021-0.384-1.476-2.502-1.646-2.715c-0.172-0.214-0.32-0.514,0-0.835
	c0.32-0.32,0.214-1.517,0.32-1.688c0.107-0.171,1.091-1.133,1.625-1.453c0.535-0.321,0.792-2.416,1.154-2.78
	c0.364-0.363,0.386-0.513,0.621-0.641c0.234-0.128,0.706-0.363,1.09-0.385c0.386-0.021,0.855,0.021,1.048-0.299
	c0.192-0.321,0.043-0.428,0.32-0.406c0.278,0.021,1.134-0.343,1.283-0.557s1.049-1.176,1.477-1.347
	c0.426-0.171,0.17-0.385,0.94-0.599c0.769-0.214,1.068-0.214,1.09,0s1.39,1.305,1.625,1.326c0.235,0.021,0.448-0.557,0.663-0.877
	c0.214-0.321,1.154-0.363,1.624-0.171c0.471,0.191,0.813,0.042,0.984,0c0.171-0.043,0.428,0.021,0.557,0.042
	c0.128,0.021,1.09-0.48,1.09-0.48s0.535,0.566,0.642,0.63c0.106,0.064,0.428,0.193,0.619,0.322c0.192,0.128,0.492,0.448,0.492,0.448
	s0.386-0.192,0.471-0.106c0.086,0.085,0.855,0.448,0.812,0.598c-0.043,0.15-0.082,0.214,0.001,0.343
	c0.084,0.128,0.641,0.3,0.661,0.471c0.022,0.171,0.3,0.854,0.407,1.09c0.106,0.235-0.192,0.791,0,0.94
	c0.192,0.15,0.428-0.171,0.619,0.087c0.192,0.256,0,1.304,0,1.325c0,0.021,0.107-0.044,0.086,0.191s-0.406,0.492-0.513,0.812
	c-0.106,0.321-0.321,1.112-0.428,1.497c-0.107,0.385-0.3,0.812-0.3,1.069s-0.705,0.107-0.747,0.471
	c-0.044,0.363,0.148,1.646,0.148,1.795c0,0.149,0.106,0.621,0.085,0.728c-0.021,0.106-0.404,0.299-0.427,0.47
	c-0.021,0.172,0.491-0.021,0.534,0.086s0.064,1.475-0.064,1.753c-0.128,0.278-0.448-0.063-0.513-0.085s-0.448-0.599-0.62-0.128
	c-0.171,0.47-0.128,0.576,0.043,0.77c0.171,0.192,0.107,0.449-0.086,0.685c-0.192,0.234-0.919,0.277-1.09,0.79
	c-0.171,0.514-0.257,0.578-0.386,0.792c-0.128,0.213-0.897,0.385-0.919,0.47c-0.021,0.086-1.197,0.92-1.261,1.198
	c-0.064,0.277-1.263,0-1.498-0.278s-1.025-0.686-1.305-0.706c-0.276-0.021-0.726-0.321-0.854,0.043
	c-0.128,0.363-0.87,0.213-1.055,0.172c-0.186-0.044-1.938-0.643-1.981-0.792c-0.042-0.149-0.514,0.214-0.556,0.363
	c-0.043,0.149-1.176-0.663-1.197-0.834s-0.577-1.262-0.705-1.539C75.513,52.44,74.464,51.863,74.464,51.863z"/>
<path opacity="0.2" fill="#FDF168" d="M65.811,34.258c0,0,0.192,0.257-0.301,0.278c-0.49,0.021-0.576-0.043-0.576-0.139
	c0-0.097-0.471-0.268-0.535-0.14c-0.063,0.128,0.193,0.051-0.086,0.282c-0.277,0.231-0.405,0.316-0.512,0.552
	c-0.107,0.235-0.258,1.411-0.278,1.539c-0.021,0.129-1.111,1.005-1.582,1.154c-0.471,0.15-1.048,0.258-1.048,0.258
	s-0.043,0.32-0.278,0.471c-0.235,0.148-1.197,1.004-1.305,1.325c-0.106,0.319-0.79,0.32-0.769,0.662
	c0.021,0.343-0.15,0.941-0.3,1.326s-0.428,0.405-0.577,1.026c-0.149,0.619-0.214,0.812,0,1.282s0.32,1.005,0.577,1.262
	c0.256,0.257,0.748,0.385,0.877,0.599c0.128,0.214,0.705,0.428,0.748,0.577c0.042,0.149,0.277-0.663,0.277-0.748
	c0-0.086,0.021-0.214,0.235-0.556c0.215-0.342,0.129-0.299,0.149-0.855c0.022-0.556,0.664-1.069,0.855-1.283
	c0.192-0.214,0.407-0.877,0.407-1.197s1.197-0.599,1.432-0.599c0.235,0,0.578-0.192,0.663-0.043c0.086,0.15,0.514-0.128,0.556-0.213
	c0.043-0.087,0.663-0.677,0.663-0.677s0.556-0.329,0.556-0.607c0-0.277-0.299-0.727-0.385-0.877
	c-0.085-0.148-0.021-1.175,0.064-1.367s0-0.492,0.17-0.685c0.172-0.191,0.289-0.384,0.338-0.662
	c0.048-0.278,0.283-0.385,0.454-0.385S66.729,34.557,65.811,34.258z"/>
<g opacity="0.5">
	<path d="M99.768,62.052c0.57,0,1.061,0.194,1.472,0.582c0.41,0.41,0.615,0.911,0.615,1.505v16.007
		c3.626-2.713,7.035-4.07,10.227-4.07c3.991,0,7.4,1.414,10.228,4.242c2.827,2.827,4.242,6.248,4.242,10.261v18.71
		c0,0.569-0.206,1.061-0.616,1.471s-0.901,0.615-1.471,0.615h-0.068c-0.594,0-1.095-0.205-1.506-0.615
		c-0.409-0.41-0.615-0.901-0.615-1.471v-18.71c0-2.805-0.991-5.21-2.976-7.217c-2.007-2.007-4.412-3.011-7.218-3.011
		c-2.827,0-5.244,1.004-7.251,3.011c-1.983,2.007-2.976,4.412-2.976,7.217v18.71c0,0.569-0.205,1.061-0.615,1.471
		c-0.411,0.41-0.901,0.615-1.472,0.615h-0.102c-0.571,0-1.061-0.205-1.471-0.615c-0.411-0.41-0.616-0.901-0.616-1.471V64.139
		c0-0.594,0.205-1.095,0.616-1.505c0.41-0.388,0.899-0.582,1.471-0.582H99.768z"/>
	<path d="M136.812,67.524c-0.775,0-1.426-0.262-1.95-0.787c-0.524-0.524-0.786-1.174-0.786-1.949c0-0.753,0.262-1.391,0.786-1.916
		c0.524-0.523,1.175-0.786,1.95-0.786c0.752,0,1.391,0.263,1.915,0.786c0.548,0.548,0.821,1.187,0.821,1.916
		c0,0.752-0.273,1.402-0.821,1.949C138.202,67.263,137.563,67.524,136.812,67.524z M136.846,76.075c0.569,0,1.061,0.206,1.471,0.616
		s0.615,0.912,0.615,1.505v31.092c0,0.569-0.205,1.061-0.615,1.471s-0.901,0.615-1.471,0.615h-0.068
		c-0.593,0-1.095-0.205-1.505-0.615c-0.411-0.41-0.615-0.901-0.615-1.471V78.196c0-0.593,0.204-1.095,0.615-1.505
		c0.41-0.41,0.912-0.616,1.505-0.616H136.846z"/>
	<path d="M149.262,62.052c0.57,0,1.061,0.194,1.471,0.582c0.411,0.41,0.616,0.911,0.616,1.505v25.755h3.352
		c3.421,0,6.419-1.15,8.995-3.454c2.531-2.303,3.969-5.131,4.311-8.482c0.046-0.524,0.273-0.97,0.684-1.334s0.878-0.548,1.402-0.548
		h0.104c0.615,0,1.128,0.229,1.539,0.685c0.41,0.456,0.581,1.004,0.513,1.642c-0.502,5.131-3.238,9.555-8.209,13.271
		c3.466,2.099,5.951,4.459,7.456,7.081c1.573,2.714,2.36,5.644,2.36,8.79v1.745c0,0.569-0.205,1.061-0.615,1.471
		c-0.411,0.41-0.901,0.615-1.472,0.615h-0.103c-0.569,0-1.06-0.205-1.47-0.615c-0.411-0.41-0.616-0.901-0.616-1.471v-1.745
		c-0.023-3.693-1.334-6.829-3.934-9.406c-2.623-2.6-5.77-3.899-9.44-3.899h-4.856v15.051c0,0.569-0.205,1.061-0.616,1.471
		c-0.41,0.41-0.9,0.615-1.471,0.615h-0.103c-0.57,0-1.061-0.205-1.471-0.615s-0.616-0.901-0.616-1.471V64.139
		c0-0.594,0.206-1.095,0.616-1.505c0.41-0.388,0.9-0.582,1.471-0.582H149.262z"/>
	<path d="M212.334,86.405c0.251,0.524,0.273,1.06,0.069,1.607c-0.206,0.525-0.57,0.912-1.095,1.163
		c-3.193,1.437-7.389,3.329-12.587,5.678c-6.454,2.919-11.037,4.982-13.751,6.191c3.192,4.104,6.966,6.156,11.322,6.156
		c2.896,0,5.518-0.855,7.867-2.565c2.257-1.642,3.842-3.784,4.754-6.43c0.342-0.958,1.026-1.438,2.052-1.438
		c0.729,0,1.312,0.297,1.745,0.89c0.41,0.593,0.49,1.231,0.239,1.915c-1.209,3.489-3.318,6.317-6.328,8.483
		c-3.102,2.212-6.544,3.317-10.329,3.317c-4.881,0-9.042-1.721-12.485-5.165c-3.443-3.442-5.164-7.604-5.164-12.484
		c0-4.879,1.721-9.041,5.164-12.484c3.443-3.442,7.604-5.165,12.485-5.165c3.511,0,6.726,0.958,9.646,2.873
		C208.788,80.818,210.92,83.305,212.334,86.405z M196.293,80.419c-3.694,0-6.853,1.312-9.475,3.934
		c-2.6,2.623-3.899,5.78-3.899,9.475c0,0.661,0.114,1.768,0.342,3.318l24.114-10.911C204.137,82.358,200.442,80.419,196.293,80.419z
		"/>
</g>
<g opacity="0.5">
	<path d="M97.021,135.226c3.442,3.443,5.165,7.605,5.165,12.484v15.563c0,0.569-0.205,1.061-0.615,1.471
		c-0.411,0.41-0.901,0.616-1.472,0.616h-0.103c-0.57,0-1.061-0.206-1.471-0.616s-0.615-0.901-0.615-1.471v-3.865
		c-4.47,3.968-8.928,5.952-13.374,5.952c-4.881,0-9.042-1.722-12.484-5.166c-3.443-3.442-5.165-7.604-5.165-12.484
		c0-4.879,1.722-9.041,5.165-12.484c3.442-3.442,7.604-5.164,12.484-5.164C89.416,130.062,93.577,131.783,97.021,135.226z
		 M75.062,138.27c-2.6,2.623-3.899,5.77-3.899,9.44c0,3.694,1.3,6.853,3.899,9.475c2.622,2.6,5.78,3.899,9.475,3.899
		s6.841-1.3,9.44-3.899c2.622-2.622,3.934-5.78,3.934-9.475c0-3.671-1.312-6.817-3.934-9.44c-2.577-2.621-5.724-3.933-9.44-3.933
		C80.842,134.337,77.684,135.648,75.062,138.27z"/>
	<path d="M112.583,116.037c0.57,0,1.061,0.194,1.472,0.582c0.41,0.41,0.615,0.912,0.615,1.505v45.149
		c0,0.569-0.205,1.061-0.615,1.471c-0.411,0.41-0.901,0.616-1.472,0.616h-0.102c-0.571,0-1.061-0.206-1.471-0.616
		c-0.411-0.41-0.616-0.901-0.616-1.471v-45.149c0-0.593,0.205-1.095,0.616-1.505c0.41-0.388,0.899-0.582,1.471-0.582H112.583z"/>
	<path d="M139.503,130.062c4.879,0,9.04,1.722,12.483,5.164c3.443,3.443,5.165,7.605,5.165,12.484c0,4.88-1.722,9.042-5.165,12.484
		c-3.443,3.444-7.604,5.166-12.483,5.166c-4.881,0-9.043-1.722-12.485-5.166c-3.443-3.442-5.165-7.604-5.165-12.484
		c0-4.879,1.722-9.041,5.165-12.484C130.46,131.783,134.622,130.062,139.503,130.062z M139.503,134.405
		c-3.695,0-6.854,1.311-9.476,3.934c-2.6,2.622-3.898,5.779-3.898,9.475c0,3.671,1.299,6.817,3.898,9.439
		c2.622,2.623,5.78,3.934,9.476,3.934c3.716,0,6.862-1.311,9.439-3.934c2.622-2.622,3.934-5.769,3.934-9.439
		c0-3.695-1.312-6.853-3.934-9.475C146.365,135.716,143.219,134.405,139.503,134.405z"/>
	<path d="M165.155,116.037c0.569,0,1.061,0.194,1.471,0.582c0.41,0.41,0.615,0.912,0.615,1.505v16.008
		c3.627-2.714,7.034-4.07,10.228-4.07c3.99,0,7.399,1.413,10.228,4.241c2.827,2.827,4.24,6.248,4.24,10.261v18.71
		c0,0.569-0.204,1.061-0.615,1.471c-0.41,0.41-0.901,0.616-1.471,0.616h-0.068c-0.593,0-1.095-0.206-1.505-0.616
		s-0.615-0.901-0.615-1.471v-18.71c0-2.805-0.993-5.21-2.977-7.218c-2.006-2.006-4.412-3.009-7.217-3.009
		c-2.828,0-5.244,1.003-7.251,3.009c-1.984,2.008-2.977,4.413-2.977,7.218v18.71c0,0.569-0.205,1.061-0.615,1.471
		s-0.901,0.616-1.471,0.616h-0.103c-0.57,0-1.061-0.206-1.471-0.616s-0.616-0.901-0.616-1.471v-45.149
		c0-0.593,0.206-1.095,0.616-1.505c0.41-0.388,0.9-0.582,1.471-0.582H165.155z"/>
	<path d="M228.912,135.226c3.442,3.443,5.165,7.605,5.165,12.484v15.563c0,0.569-0.205,1.061-0.615,1.471
		c-0.411,0.41-0.901,0.616-1.472,0.616h-0.103c-0.57,0-1.061-0.206-1.471-0.616s-0.615-0.901-0.615-1.471v-3.865
		c-4.47,3.968-8.928,5.952-13.374,5.952c-4.881,0-9.042-1.722-12.485-5.166c-3.442-3.442-5.164-7.604-5.164-12.484
		c0-4.879,1.722-9.041,5.164-12.484c3.443-3.442,7.604-5.164,12.485-5.164C221.307,130.062,225.469,131.783,228.912,135.226z
		 M206.953,138.27c-2.6,2.623-3.899,5.77-3.899,9.44c0,3.694,1.3,6.853,3.899,9.475c2.622,2.6,5.78,3.899,9.475,3.899
		s6.841-1.3,9.44-3.899c2.622-2.622,3.934-5.78,3.934-9.475c0-3.671-1.312-6.817-3.934-9.44c-2.577-2.621-5.725-3.933-9.44-3.933
		C212.733,134.337,209.575,135.648,206.953,138.27z"/>
</g>
<g>
	<path fill="#FFFFFF" d="M99.612,59.405c0.57,0,1.061,0.194,1.471,0.582c0.411,0.409,0.616,0.912,0.616,1.505v16.007
		c3.625-2.713,7.034-4.07,10.227-4.07c3.99,0,7.399,1.415,10.228,4.241c2.827,2.828,4.241,6.249,4.241,10.262v18.71
		c0,0.57-0.205,1.061-0.615,1.471c-0.411,0.41-0.901,0.615-1.471,0.615h-0.069c-0.593,0-1.094-0.205-1.505-0.615
		c-0.41-0.41-0.615-0.9-0.615-1.471v-18.71c0-2.805-0.992-5.21-2.977-7.217c-2.006-2.007-4.411-3.01-7.217-3.01
		c-2.827,0-5.245,1.003-7.251,3.01c-1.983,2.007-2.976,4.412-2.976,7.217v18.71c0,0.57-0.205,1.061-0.616,1.471
		c-0.41,0.41-0.9,0.615-1.471,0.615H99.51c-0.57,0-1.061-0.205-1.471-0.615s-0.615-0.9-0.615-1.471V61.492
		c0-0.593,0.205-1.096,0.615-1.505c0.41-0.388,0.9-0.582,1.471-0.582H99.612z"/>
	<path fill="#FFFFFF" d="M136.655,64.878c-0.775,0-1.425-0.262-1.949-0.786s-0.787-1.175-0.787-1.95
		c0-0.752,0.263-1.391,0.787-1.915s1.174-0.787,1.949-0.787c0.753,0,1.391,0.263,1.916,0.787c0.547,0.547,0.82,1.186,0.82,1.915
		c0,0.753-0.273,1.402-0.82,1.95C138.046,64.616,137.408,64.878,136.655,64.878z M136.689,73.429c0.57,0,1.061,0.205,1.471,0.616
		c0.411,0.41,0.616,0.912,0.616,1.505v31.092c0,0.57-0.205,1.061-0.616,1.471c-0.41,0.41-0.9,0.615-1.471,0.615h-0.067
		c-0.594,0-1.095-0.205-1.506-0.615c-0.41-0.41-0.615-0.9-0.615-1.471V75.55c0-0.593,0.205-1.095,0.615-1.505
		c0.411-0.411,0.912-0.616,1.506-0.616H136.689z"/>
	<path fill="#FFFFFF" d="M149.106,59.405c0.569,0,1.06,0.194,1.471,0.582c0.41,0.409,0.615,0.912,0.615,1.505v25.755h3.352
		c3.421,0,6.419-1.15,8.996-3.454c2.531-2.303,3.968-5.131,4.31-8.482c0.046-0.524,0.274-0.969,0.685-1.334s0.877-0.548,1.402-0.548
		h0.103c0.616,0,1.129,0.229,1.539,0.685c0.411,0.456,0.582,1.004,0.513,1.642c-0.502,5.131-3.238,9.555-8.209,13.271
		c3.466,2.098,5.952,4.458,7.457,7.08c1.573,2.714,2.359,5.644,2.359,8.791v1.744c0,0.57-0.204,1.061-0.615,1.471
		c-0.41,0.41-0.9,0.615-1.471,0.615h-0.103c-0.57,0-1.061-0.205-1.471-0.615s-0.615-0.9-0.615-1.471v-1.744
		c-0.023-3.694-1.334-6.83-3.935-9.407c-2.622-2.599-5.769-3.899-9.44-3.899h-4.856v15.051c0,0.57-0.205,1.061-0.615,1.471
		c-0.411,0.41-0.901,0.615-1.471,0.615h-0.104c-0.57,0-1.06-0.205-1.47-0.615c-0.411-0.41-0.616-0.9-0.616-1.471V61.492
		c0-0.593,0.205-1.096,0.616-1.505c0.41-0.388,0.899-0.582,1.47-0.582H149.106z"/>
	<path fill="#FFFFFF" d="M212.179,83.759c0.251,0.525,0.273,1.061,0.068,1.607c-0.205,0.524-0.57,0.912-1.095,1.163
		c-3.192,1.437-7.388,3.33-12.587,5.678c-6.453,2.919-11.036,4.982-13.75,6.191c3.192,4.104,6.966,6.156,11.321,6.156
		c2.896,0,5.519-0.854,7.867-2.565c2.257-1.642,3.842-3.785,4.755-6.43c0.342-0.958,1.025-1.438,2.052-1.438
		c0.729,0,1.311,0.297,1.744,0.89c0.411,0.594,0.49,1.231,0.24,1.916c-1.21,3.488-3.318,6.316-6.328,8.481
		c-3.102,2.213-6.545,3.318-10.33,3.318c-4.88,0-9.042-1.721-12.484-5.165c-3.443-3.442-5.165-7.604-5.165-12.484
		c0-4.88,1.722-9.041,5.165-12.484c3.442-3.442,7.604-5.165,12.484-5.165c3.512,0,6.727,0.958,9.646,2.873
		C208.633,78.172,210.765,80.658,212.179,83.759z M196.137,77.772c-3.694,0-6.853,1.312-9.475,3.934
		c-2.6,2.623-3.899,5.781-3.899,9.475c0,0.662,0.114,1.768,0.343,3.318l24.113-10.911C203.98,79.712,200.287,77.772,196.137,77.772z
		"/>
</g>
<g>
	<path fill="#FFFFFF" d="M96.865,132.58c3.442,3.442,5.165,7.604,5.165,12.484v15.562c0,0.569-0.206,1.061-0.616,1.471
		s-0.9,0.616-1.471,0.616h-0.103c-0.57,0-1.061-0.206-1.471-0.616s-0.616-0.901-0.616-1.471v-3.864
		c-4.47,3.967-8.927,5.951-13.374,5.951c-4.88,0-9.041-1.722-12.484-5.166c-3.442-3.442-5.164-7.604-5.164-12.483
		s1.722-9.042,5.164-12.484c3.443-3.443,7.604-5.166,12.484-5.166S93.421,129.137,96.865,132.58z M74.905,135.624
		c-2.599,2.622-3.899,5.77-3.899,9.44c0,3.693,1.301,6.853,3.899,9.475c2.623,2.599,5.781,3.899,9.475,3.899
		c3.694,0,6.842-1.301,9.44-3.899c2.623-2.622,3.934-5.781,3.934-9.475c0-3.671-1.311-6.818-3.934-9.44
		c-2.576-2.622-5.724-3.934-9.44-3.934C80.687,131.69,77.528,133.002,74.905,135.624z"/>
	<path fill="#FFFFFF" d="M112.428,113.392c0.569,0,1.061,0.193,1.471,0.581c0.411,0.41,0.615,0.912,0.615,1.505v45.149
		c0,0.569-0.204,1.061-0.615,1.471c-0.41,0.41-0.901,0.616-1.471,0.616h-0.103c-0.57,0-1.061-0.206-1.471-0.616
		s-0.615-0.901-0.615-1.471v-45.149c0-0.593,0.205-1.095,0.615-1.505c0.41-0.388,0.9-0.581,1.471-0.581H112.428z"/>
	<path fill="#FFFFFF" d="M139.347,127.414c4.879,0,9.041,1.723,12.484,5.166c3.443,3.442,5.165,7.604,5.165,12.484
		s-1.722,9.041-5.165,12.483c-3.443,3.444-7.605,5.166-12.484,5.166c-4.88,0-9.042-1.722-12.484-5.166
		c-3.443-3.442-5.165-7.604-5.165-12.483s1.722-9.042,5.165-12.484C130.305,129.137,134.467,127.414,139.347,127.414z
		 M139.347,131.759c-3.694,0-6.853,1.312-9.475,3.934c-2.6,2.622-3.899,5.78-3.899,9.475c0,3.671,1.3,6.817,3.899,9.44
		c2.622,2.622,5.78,3.934,9.475,3.934c3.716,0,6.863-1.312,9.44-3.934c2.622-2.623,3.934-5.77,3.934-9.44
		c0-3.694-1.312-6.853-3.934-9.475C146.21,133.07,143.062,131.759,139.347,131.759z"/>
	<path fill="#FFFFFF" d="M165,113.392c0.569,0,1.061,0.193,1.471,0.581c0.41,0.41,0.615,0.912,0.615,1.505v16.007
		c3.626-2.713,7.034-4.07,10.228-4.07c3.989,0,7.399,1.415,10.227,4.242c2.827,2.828,4.241,6.248,4.241,10.261v18.71
		c0,0.569-0.205,1.061-0.616,1.471c-0.41,0.41-0.9,0.616-1.47,0.616h-0.069c-0.593,0-1.094-0.206-1.504-0.616
		c-0.411-0.41-0.616-0.901-0.616-1.471v-18.71c0-2.805-0.992-5.21-2.976-7.217c-2.006-2.006-4.412-3.01-7.217-3.01
		c-2.828,0-5.245,1.004-7.252,3.01c-1.983,2.007-2.976,4.412-2.976,7.217v18.71c0,0.569-0.205,1.061-0.615,1.471
		s-0.901,0.616-1.471,0.616h-0.104c-0.569,0-1.06-0.206-1.471-0.616c-0.41-0.41-0.615-0.901-0.615-1.471v-45.149
		c0-0.593,0.205-1.095,0.615-1.505c0.411-0.388,0.901-0.581,1.471-0.581H165z"/>
	<path fill="#FFFFFF" d="M228.756,132.58c3.443,3.442,5.165,7.604,5.165,12.484v15.562c0,0.569-0.205,1.061-0.615,1.471
		c-0.411,0.41-0.9,0.616-1.471,0.616h-0.103c-0.571,0-1.061-0.206-1.471-0.616c-0.411-0.41-0.616-0.901-0.616-1.471v-3.864
		c-4.47,3.967-8.927,5.951-13.374,5.951c-4.88,0-9.041-1.722-12.484-5.166c-3.443-3.442-5.165-7.604-5.165-12.483
		s1.722-9.042,5.165-12.484c3.443-3.443,7.604-5.166,12.484-5.166S225.312,129.137,228.756,132.58z M206.798,135.624
		c-2.6,2.622-3.9,5.77-3.9,9.44c0,3.693,1.301,6.853,3.9,9.475c2.622,2.599,5.78,3.899,9.474,3.899c3.694,0,6.842-1.301,9.44-3.899
		c2.622-2.622,3.934-5.781,3.934-9.475c0-3.671-1.312-6.818-3.934-9.44c-2.577-2.622-5.724-3.934-9.44-3.934
		C212.578,131.69,209.42,133.002,206.798,135.624z"/>
</g>
</svg>
