<?xml version="1.0" encoding="utf-8"?>
<!-- Generator: Adobe Illustrator 16.0.4, SVG Export Plug-In . SVG Version: 6.00 Build 0)  -->
<!DOCTYPE svg PUBLIC "-//W3C//DTD SVG 1.1//EN" "http://www.w3.org/Graphics/SVG/1.1/DTD/svg11.dtd">
<svg version="1.1" id="Layer_1" xmlns="http://www.w3.org/2000/svg" xmlns:xlink="http://www.w3.org/1999/xlink" x="0px" y="0px"
	 width="300px" height="225px" viewBox="0 0 300 225" enable-background="new 0 0 300 225" xml:space="preserve">
<linearGradient id="SVGID_1_" gradientUnits="userSpaceOnUse" x1="154.1299" y1="-53.0054" x2="151.0937" y2="313.694" gradientTransform="matrix(0.9999 -0.0125 0.0113 1.2044 -1.1938 -12.4385)">
	<stop  offset="0" style="stop-color:#75C26A"/>
	<stop  offset="1" style="stop-color:#0C6A37"/>
</linearGradient>
<polygon fill="url(#SVGID_1_)" points="-34.854,-77.73 -33.757,363.944 340.608,363.016 339.513,-78.659 "/>
<g>
	<path fill="#EAE8E5" d="M36.944,97.185v33.835h-1.651v-29.131l-8.359,22.974l-8.408-22.974v29.131h-1.651V97.185h1.701
		l8.358,22.823l8.31-22.823H36.944z"/>
	<path fill="#EAE8E5" d="M47.706,131.269c-1.001,0-1.944-0.193-2.828-0.576c-0.885-0.383-1.652-0.9-2.303-1.551
		c-0.65-0.649-1.167-1.417-1.552-2.302s-0.575-1.827-0.575-2.827v-19.771c0-1,0.192-1.942,0.575-2.827
		c0.384-0.884,0.901-1.65,1.552-2.303c0.65-0.65,1.417-1.167,2.303-1.551c0.884-0.384,1.827-0.576,2.828-0.576
		c1.001,0,1.935,0.192,2.802,0.576c0.868,0.384,1.626,0.9,2.276,1.551c0.651,0.652,1.168,1.419,1.552,2.303
		c0.383,0.885,0.575,1.827,0.575,2.827v19.771c0,1-0.192,1.942-0.575,2.827c-0.384,0.885-0.901,1.651-1.552,2.302
		c-0.65,0.65-1.409,1.168-2.276,1.551C49.64,131.076,48.707,131.269,47.706,131.269z M47.706,98.635
		c-0.769,0-1.495,0.151-2.178,0.451c-0.685,0.301-1.276,0.703-1.777,1.204c-0.5,0.501-0.9,1.086-1.201,1.754
		c-0.301,0.669-0.451,1.388-0.451,2.155v19.803c0,0.77,0.149,1.496,0.451,2.181c0.301,0.686,0.701,1.279,1.201,1.78
		c0.501,0.502,1.092,0.903,1.777,1.203c0.683,0.302,1.409,0.451,2.178,0.451c0.767,0,1.484-0.149,2.152-0.451
		c0.667-0.3,1.25-0.701,1.752-1.203c0.5-0.501,0.902-1.095,1.201-1.78c0.3-0.685,0.451-1.411,0.451-2.181v-19.803
		c0-0.768-0.15-1.486-0.451-2.155c-0.299-0.668-0.7-1.253-1.201-1.754s-1.085-0.903-1.752-1.204
		C49.189,98.786,48.473,98.635,47.706,98.635z"/>
	<path fill="#EAE8E5" d="M65.303,97.185c0.996,0,1.935,0.184,2.815,0.55c0.881,0.367,1.646,0.876,2.295,1.526
		c0.648,0.65,1.162,1.41,1.545,2.277c0.381,0.868,0.574,1.802,0.574,2.804v19.519c0,1.001-0.192,1.936-0.574,2.802
		c-0.383,0.868-0.897,1.628-1.545,2.278c-0.649,0.65-1.414,1.16-2.295,1.526c-0.88,0.367-1.818,0.552-2.815,0.552h-5.235h-0.4
		h-1.252V97.185h1.252h0.4H65.303z M70.879,104.342c0-0.768-0.151-1.485-0.451-2.153c-0.301-0.668-0.701-1.251-1.202-1.752
		c-0.501-0.5-1.086-0.893-1.751-1.176c-0.668-0.282-1.385-0.426-2.151-0.426h-5.256v30.531h5.256c0.767,0,1.483-0.142,2.151-0.426
		c0.667-0.283,1.25-0.675,1.751-1.177c0.5-0.501,0.901-1.084,1.202-1.75c0.3-0.668,0.451-1.386,0.451-2.153V104.342z"/>
	<path fill="#EAE8E5" d="M77.736,98.835v12.812h9.46v1.651h-9.46v16.067h11.511v1.652H77.736h-1.652V97.185h1.652h11.511v1.651
		L77.736,98.835L77.736,98.835z"/>
	<path fill="#EAE8E5" d="M97.504,116.753h-4.104v14.266h-1.652v-14.266v-1.651V98.835v-1.651h1.652h4.437
		c0.996,0,1.934,0.184,2.814,0.55c0.881,0.367,1.645,0.876,2.293,1.526c0.647,0.651,1.162,1.411,1.545,2.278
		c0.381,0.867,0.574,1.802,0.574,2.803v0.9v4.354c0,0.867-0.151,1.686-0.451,2.453s-0.718,1.47-1.25,2.103
		c-0.535,0.633-1.151,1.158-1.852,1.576c-0.701,0.417-1.468,0.708-2.303,0.876l6.106,14.413h-1.752L97.504,116.753z M93.401,115.102
		h4.455c0.767,0,1.484-0.141,2.152-0.426c0.667-0.282,1.25-0.675,1.751-1.175c0.501-0.502,0.901-1.085,1.203-1.752
		c0.3-0.668,0.449-1.386,0.449-2.153v-4.354v-0.9c0-0.734-0.149-1.435-0.449-2.103c-0.302-0.668-0.701-1.252-1.203-1.753
		c-0.501-0.499-1.085-0.899-1.751-1.2c-0.667-0.3-1.385-0.45-2.152-0.45h-4.455V115.102z"/>
	<path fill="#EAE8E5" d="M122.78,97.185v33.835h-1.652l-10.61-29.23v29.23h-1.652V97.185h1.652l10.61,29.229V97.185H122.78z"/>
</g>
<g>
	<path fill="#EAE8E5" d="M167.719,129.115c0.767,0,1.482-0.15,2.15-0.452c0.669-0.299,1.252-0.699,1.752-1.201
		c0.5-0.5,0.901-1.091,1.201-1.775c0.303-0.684,0.452-1.409,0.452-2.177h1.65c0,1-0.191,1.943-0.573,2.828
		c-0.385,0.884-0.902,1.65-1.551,2.302c-0.652,0.65-1.411,1.168-2.279,1.551c-0.867,0.383-1.802,0.575-2.802,0.575
		c-1.002,0-1.943-0.192-2.827-0.575c-0.887-0.383-1.652-0.9-2.305-1.551c-0.65-0.65-1.167-1.418-1.55-2.302
		c-0.384-0.885-0.576-1.827-0.576-2.828v-19.771c0-1,0.192-1.942,0.576-2.828c0.383-0.883,0.899-1.651,1.55-2.303
		c0.652-0.65,1.418-1.167,2.305-1.55c0.884-0.384,1.825-0.576,2.827-0.576c1,0,1.936,0.186,2.802,0.56
		c0.866,0.372,1.625,0.882,2.279,1.525c0.648,0.646,1.166,1.411,1.551,2.295c0.382,0.884,0.573,1.827,0.573,2.827h-1.65
		c0-0.767-0.15-1.484-0.452-2.151c-0.3-0.668-0.699-1.252-1.201-1.752c-0.5-0.501-1.084-0.902-1.752-1.202s-1.384-0.451-2.15-0.451
		c-0.769,0-1.494,0.152-2.18,0.452c-0.684,0.301-1.275,0.702-1.775,1.203s-0.901,1.086-1.201,1.754
		c-0.3,0.669-0.451,1.388-0.451,2.155V123.5c0,0.769,0.151,1.495,0.451,2.181c0.3,0.685,0.701,1.277,1.201,1.779
		c0.502,0.502,1.092,0.903,1.775,1.203C166.225,128.965,166.95,129.115,167.719,129.115z"/>
	<path fill="#EAE8E5" d="M185.686,130.766c-1.001,0-1.942-0.19-2.827-0.575c-0.884-0.382-1.65-0.899-2.303-1.55
		c-0.651-0.651-1.168-1.418-1.55-2.302c-0.386-0.885-0.576-1.828-0.576-2.829v-19.771c0-1,0.19-1.942,0.576-2.828
		c0.382-0.883,0.898-1.651,1.55-2.303c0.651-0.65,1.419-1.167,2.303-1.55c0.885-0.384,1.826-0.576,2.827-0.576
		c1.002,0,1.936,0.192,2.803,0.576c0.867,0.383,1.626,0.899,2.278,1.55c0.65,0.651,1.168,1.42,1.552,2.303
		c0.383,0.885,0.574,1.828,0.574,2.828v19.771c0,1-0.19,1.944-0.574,2.828s-0.901,1.65-1.552,2.302
		c-0.651,0.65-1.41,1.168-2.278,1.551C187.62,130.575,186.688,130.766,185.686,130.766z M185.686,98.133
		c-0.768,0-1.493,0.151-2.177,0.451c-0.686,0.302-1.277,0.703-1.775,1.203c-0.502,0.502-0.903,1.086-1.203,1.755
		c-0.3,0.668-0.45,1.388-0.45,2.154V123.5c0,0.77,0.15,1.496,0.45,2.182c0.3,0.685,0.699,1.277,1.203,1.779
		c0.499,0.501,1.09,0.902,1.775,1.202c0.684,0.302,1.409,0.452,2.177,0.452c0.769,0,1.483-0.151,2.153-0.452
		c0.668-0.3,1.252-0.7,1.751-1.202c0.5-0.502,0.902-1.095,1.201-1.779c0.301-0.686,0.451-1.411,0.451-2.182v-19.803
		c0-0.767-0.15-1.487-0.451-2.155c-0.299-0.668-0.7-1.252-1.201-1.754c-0.5-0.501-1.085-0.902-1.751-1.203
		C187.169,98.285,186.454,98.133,185.686,98.133z"/>
	<path fill="#EAE8E5" d="M216.468,96.682v33.835h-1.651v-29.13l-8.36,22.974l-8.408-22.974v29.13h-1.65V96.682h1.7l8.359,22.823
		l8.31-22.823H216.468z"/>
	<path fill="#EAE8E5" d="M226.576,96.682c1.002,0,1.929,0.193,2.776,0.576c0.852,0.384,1.602,0.901,2.253,1.551
		c0.65,0.65,1.159,1.41,1.526,2.277c0.367,0.869,0.551,1.785,0.551,2.754v6.906c0,0.969-0.175,1.87-0.525,2.703
		c-0.351,0.835-0.835,1.569-1.451,2.202c-0.619,0.634-1.334,1.151-2.153,1.552c-0.817,0.401-1.694,0.634-2.627,0.7h-0.25h-0.2
		h-4.856v12.613h-1.651V96.682h0.852h0.8H226.576z M232.032,103.84c0-0.735-0.149-1.436-0.451-2.103
		c-0.301-0.668-0.7-1.252-1.201-1.753c-0.5-0.5-1.085-0.899-1.75-1.2c-0.669-0.301-1.386-0.45-2.152-0.45h-4.856v17.918h4.955
		c0.768,0,1.485-0.15,2.152-0.451c0.668-0.3,1.243-0.7,1.726-1.201c0.483-0.501,0.867-1.076,1.151-1.728
		c0.284-0.65,0.427-1.358,0.427-2.127V103.84L232.032,103.84z"/>
	<path fill="#EAE8E5" d="M250.551,130.517l-2.352-10.61h-9.71l-2.354,10.61h-1.7l7.507-33.835h2.803l7.508,33.835H250.551z
		 M238.839,118.254h9.01l-4.503-20.222L238.839,118.254z"/>
	<path fill="#EAE8E5" d="M261.861,112.62c0.834,0.668,1.66,1.362,2.479,2.081c0.817,0.719,1.55,1.503,2.202,2.355
		c0.65,0.854,1.176,1.805,1.576,2.857c0.4,1.051,0.599,2.246,0.599,3.585c0,1.002-0.191,1.945-0.572,2.831
		c-0.385,0.884-0.901,1.653-1.552,2.305c-0.652,0.653-1.412,1.171-2.278,1.556c-0.867,0.383-1.803,0.574-2.803,0.574
		c-1.001,0-1.944-0.191-2.829-0.574c-0.884-0.384-1.65-0.901-2.302-1.551c-0.65-0.651-1.168-1.419-1.55-2.302
		c-0.385-0.885-0.575-1.828-0.575-2.829h1.649c0,0.768,0.151,1.493,0.452,2.177c0.3,0.685,0.699,1.276,1.202,1.776
		c0.5,0.501,1.091,0.901,1.775,1.201c0.685,0.301,1.408,0.45,2.178,0.45c0.768,0,1.485-0.149,2.152-0.45
		c0.668-0.3,1.252-0.7,1.751-1.201c0.5-0.5,0.902-1.092,1.202-1.776c0.3-0.684,0.451-1.409,0.451-2.177
		c0-1.134-0.176-2.152-0.525-3.054c-0.35-0.899-0.817-1.727-1.4-2.477c-0.586-0.751-1.254-1.452-2.004-2.103
		c-0.75-0.649-1.525-1.293-2.327-1.928c-0.803-0.634-1.595-1.291-2.377-1.977c-0.785-0.683-1.485-1.425-2.103-2.227
		c-0.619-0.802-1.118-1.685-1.501-2.652c-0.385-0.968-0.575-2.086-0.575-3.354c0-1,0.19-1.942,0.575-2.828
		c0.383-0.883,0.899-1.651,1.551-2.303c0.649-0.65,1.418-1.167,2.302-1.55c0.884-0.384,1.828-0.576,2.828-0.576
		s1.936,0.186,2.803,0.56c0.866,0.371,1.625,0.882,2.278,1.525c0.65,0.646,1.167,1.411,1.552,2.295
		c0.381,0.884,0.573,1.827,0.573,2.827h-1.65c0-0.767-0.151-1.484-0.452-2.151c-0.3-0.668-0.7-1.252-1.201-1.752
		c-0.501-0.501-1.085-0.902-1.751-1.202c-0.668-0.3-1.386-0.451-2.152-0.451c-0.77,0-1.494,0.152-2.179,0.452
		c-0.684,0.301-1.276,0.702-1.774,1.203c-0.502,0.501-0.902,1.086-1.202,1.754c-0.301,0.669-0.452,1.388-0.452,2.155
		c0,1.07,0.167,2.014,0.501,2.832c0.331,0.82,0.773,1.58,1.327,2.281c0.55,0.703,1.185,1.363,1.901,1.98
		C260.353,111.409,261.094,112.019,261.861,112.62z"/>
	<path fill="#EAE8E5" d="M279.83,112.62c0.835,0.668,1.659,1.362,2.479,2.081c0.816,0.719,1.551,1.503,2.201,2.355
		c0.65,0.854,1.176,1.805,1.576,2.857c0.4,1.051,0.6,2.246,0.6,3.585c0,1.002-0.192,1.945-0.573,2.831
		c-0.384,0.884-0.902,1.653-1.553,2.305c-0.65,0.653-1.409,1.171-2.277,1.556c-0.867,0.383-1.802,0.574-2.802,0.574
		c-1.002,0-1.945-0.191-2.83-0.574c-0.883-0.384-1.648-0.901-2.302-1.551c-0.65-0.651-1.168-1.419-1.55-2.302
		c-0.384-0.885-0.575-1.828-0.575-2.829h1.65c0,0.768,0.151,1.493,0.451,2.177c0.3,0.685,0.701,1.276,1.202,1.776
		c0.5,0.501,1.09,0.901,1.774,1.201c0.686,0.301,1.41,0.45,2.179,0.45c0.768,0,1.484-0.149,2.152-0.45
		c0.668-0.3,1.253-0.7,1.751-1.201c0.501-0.5,0.901-1.092,1.201-1.776c0.302-0.684,0.452-1.409,0.452-2.177
		c0-1.134-0.175-2.152-0.525-3.054c-0.351-0.899-0.817-1.727-1.401-2.477c-0.586-0.751-1.253-1.452-2.003-2.103
		c-0.75-0.649-1.526-1.293-2.327-1.928c-0.802-0.634-1.596-1.291-2.378-1.977c-0.785-0.683-1.485-1.425-2.102-2.227
		c-0.618-0.802-1.12-1.685-1.502-2.652c-0.384-0.968-0.575-2.086-0.575-3.354c0-1,0.191-1.942,0.575-2.828
		c0.382-0.883,0.899-1.651,1.55-2.303c0.652-0.65,1.419-1.167,2.302-1.55c0.886-0.384,1.828-0.576,2.83-0.576
		c1,0,1.935,0.186,2.802,0.56c0.867,0.371,1.627,0.882,2.277,1.525c0.65,0.646,1.169,1.411,1.553,2.295
		c0.381,0.884,0.573,1.827,0.573,2.827h-1.649c0-0.767-0.151-1.484-0.452-2.151c-0.3-0.668-0.699-1.252-1.201-1.752
		c-0.499-0.501-1.083-0.902-1.751-1.202s-1.385-0.451-2.152-0.451c-0.769,0-1.494,0.152-2.179,0.452
		c-0.685,0.301-1.275,0.702-1.774,1.203c-0.5,0.501-0.902,1.086-1.202,1.754c-0.3,0.669-0.451,1.388-0.451,2.155
		c0,1.07,0.166,2.014,0.501,2.832c0.332,0.82,0.774,1.58,1.325,2.281c0.551,0.703,1.185,1.363,1.903,1.98
		C278.32,111.409,279.062,112.019,279.83,112.62z"/>
</g>
<path fill="#D32E2E" d="M158.372,105.567c0-8.913-7.227-16.14-16.139-16.14c-8.914,0-16.138,6.27-16.138,16.14
	c0,9.868,16.424,27.515,16.424,27.515S158.372,115.668,158.372,105.567z"/>
<path fill="#B72025" d="M136.876,113.767l11.684,11.933c0,0,8.135-10.829,9.24-16.431c0.627-3.181,0.572-3.701,0.572-3.701
	l-8.701-8.696c0,0,0.985,1.697,1.47,3.259c0.483,1.561,3.295,4.573,0.229,8.715C148.302,112.988,147.105,115.383,136.876,113.767z"
	/>
<circle fill="#EAE8E5" cx="142.233" cy="104.527" r="7.658"/>
<g>
	<path fill="#EAE8E5" d="M142.233,115.209c-5.89,0-10.681-4.79-10.681-10.681c0-5.89,4.792-10.681,10.681-10.681
		c5.889,0,10.682,4.791,10.682,10.681C152.915,110.419,148.123,115.209,142.233,115.209z M142.233,94.892
		c-5.314,0-9.636,4.323-9.636,9.637s4.322,9.637,9.636,9.637c5.315,0,9.636-4.323,9.636-9.637S147.548,94.892,142.233,94.892z"/>
</g>
<polygon fill="#B72025" points="145.17,106.256 146.064,99.152 139.751,102.7 139.01,109.903 "/>
<polygon fill="#BDBEC0" points="139.751,102.7 139.01,109.904 145.17,106.256 "/>
</svg>
