<?xml version="1.0" encoding="utf-8"?>
<!-- Generator: Adobe Illustrator 16.0.4, SVG Export Plug-In . SVG Version: 6.00 Build 0)  -->
<!DOCTYPE svg PUBLIC "-//W3C//DTD SVG 1.1//EN" "http://www.w3.org/Graphics/SVG/1.1/DTD/svg11.dtd">
<svg version="1.1" xmlns="http://www.w3.org/2000/svg" xmlns:xlink="http://www.w3.org/1999/xlink" x="0px" y="0px" width="600px"
	 height="600px" viewBox="0 0 600 600" enable-background="new 0 0 600 600" xml:space="preserve">
<g id="Layer_1" display="none">

		<image display="inline" overflow="visible" width="3024" height="4032" xlink:href="../../../../Downloads/43500052_248976292481855_424061667530244096_n.jpg"  transform="matrix(0.2088 0 0 0.2088 -15.6987 -90.9287)">
	</image>
</g>
<g id="Layer_2">
	<path fill="#2E2771" d="M351,43.667c0,0-132.667,42-194.667,227.333c0,0,32.667,41.333,74,44.667
		C230.333,315.667,337.667,233.667,351,43.667z"/>
</g>
<g id="Layer_9">
	<path fill="#353570" d="M232.401,309.897c0,0,85.599-102.23,95.599-176.897c0,0-101.938,172.625-109.335,174.641L232.401,309.897z"
		/>
</g>
<g id="Layer_4">
	<path fill="#363944" d="M123.667,347c0,0-33.667,37-44.667,76s1,89,61,98s133-72,133-103c0,0-26,32.998-42,32.332
		c0,0,7.333-6.305,8-15.985c0,0-13.333,14.319-37.333,14.319s-18.667-68-34-76.333C167.667,372.333,152,371.334,123.667,347z"/>
</g>
<g id="Layer_5">
	<path fill="#6200EE" d="M137.5,459.5c-5.5-18.375-13-22-24,17c-6.177,21.902-39.602-6.227-26.844,13.403
		C96.616,505.229,113.695,517.055,140,521c60,9,133-72,133-103c0,0-26,32.998-42,32.332c0,0,7.333-6.305,8-15.985
		c0,0-13.333,14.319-37.333,14.319c-4.5,0-7.968-2.391-10.736-6.33C178.94,425.264,180.875,474.25,170,478S143,477.875,137.5,459.5z
		"/>
	<path fill="#6200EE" d="M85.594,472.125c1.475,4.565,2.67,7.113,0.174,7.92s-3.219-3.048-4.694-7.613s-0.647-8.92,1.85-9.727
		S84.119,467.56,85.594,472.125z"/>

		<ellipse transform="matrix(-0.9455 -0.3257 0.3257 -0.9455 209.1825 903.7099)" fill="#6200EE" cx="180.23" cy="434.347" rx="3.176" ry="5.012"/>

		<ellipse transform="matrix(-0.9062 -0.4229 0.4229 -0.9062 366.2563 930.2657)" fill="#6200EE" cx="286.333" cy="424.5" rx="4.5" ry="16.166"/>
	<path fill="#6200EE" d="M434.333,293.417c-0.729,4.309-3.832,9.884-2.167,10.167c1.669,0.281,5.968-4.461,6.696-8.771
		c0.729-4.309,1.219-8.947-0.446-9.229C436.749,285.301,435.065,289.107,434.333,293.417z"/>
	<path fill="#6200EE" d="M353.594,252.899c7.29-6.755,19.284-16.718,17.574-18.565c-1.716-1.851-13.989,6.797-21.279,13.552
		c-7.296,6.755-11.817,13.731-10.105,15.578C341.496,265.318,346.296,259.652,353.594,252.899z"/>
</g>
<g id="Layer_11">
	<path fill="#EDEDED" d="M171,513.593c-0.31,4.407-13.286,6.209-24.987,5.388c-11.702-0.822-27.072-3.448-26.763-7.855
		S133.298,512.178,145,513C156.701,513.822,171.31,509.186,171,513.593z"/>
	<path fill="#EDEDED" d="M111.042,506.198c2.025,1.261,4.888,1.022,4.103,2.282s-3.062,1.26-5.086-0.001
		c-2.024-1.26-4.093-2.887-3.308-4.146C107.535,503.073,109.018,504.938,111.042,506.198z"/>

		<ellipse transform="matrix(0.9795 0.2013 -0.2013 0.9795 91.1868 -27.7525)" fill="#EDEDED" cx="182.034" cy="434.43" rx="0.829" ry="1.986"/>
</g>
<g id="Layer_7">
	<path opacity="0.4" fill="#7C71B4" d="M257.369,509.5c-9.256,27.768,1.333,20,4.833,27s40,20,49,18.5s25.5-8,40-6
		s30.5-7.678,40-25.339s18.5-15.161,30.5-17.661s27.5-15,30.5-22s18-19.872,29-25.5s40-52,23.5-77.5s-4.5-30-27-27
		s-64.054,22.5-64.054,10s26.554-15.996,47.054-33.998s35.5-17.502,39-30.002s11.5-39,3.5-51s-9.5-12-34.5-19
		s-53.747-3.943-68.5-4.5c-18.535-0.7-28.999,23.834-61.5,47c-22.898,16.321-36.834,69-48.667,85.5s-25.333,41-20.833,45.5
		s10.166-12.5,20.833-26s11.756-2.5,7.961,6.5c-3.794,9-5.544,12.25-2.294,15.5s17.5-24,17.5-35.5s9.167-24.666,18.167-34.666
		s13.5-8.167,20-15.667S367.702,312,367.202,297.5s15.122-31.167,31.5-31.167c26.5,0,50.5-16.333,47.5,4.667s-1,33.5-11.5,34
		s-12.5,4.5-27,21s-34.5,34.5-41,39.5s-0.5,18.5-8,24.5s-11.5,13.949-4,19.725s25,2.775,31.5-4.225s59.5-29,63-19.5s-3,9-1,16
		s3.5,11.5,2.5,18.5s2.5,11.75-12,23.25c-12.744,10.107-21,19.506-28.5,18.878s-9.5-8.872-15,0s-9,0.368-18.5,8.37
		s-31,14.738-33,8.37s7-12.868-5-13.368S270.536,470,257.369,509.5z"/>
</g>
<g id="Layer_6">
	<path fill="#6200EE" d="M253.667,509.5c-5.167,22.75,1.333,20,4.833,27s40,20,49,18.5s25.5-8,40-6s30.5-7.678,40-25.339
		S406,508.5,418,506s27.5-15,30.5-22s18-19.872,29-25.5s40-52,23.5-77.5s-4.5-30-27-27s-64.054,22.5-64.054,10
		S436.5,348.004,457,330.002S492.5,312.5,496,300s11.5-39,3.5-51s-9.5-12-34.5-19s-53.747-3.943-68.5-4.5
		c-18.535-0.7-28.999,23.834-61.5,47c-22.898,16.321-36.834,69-48.667,85.5S261,399,265.5,403.5s10.166-12.5,20.833-26
		s11.756-2.5,7.961,6.5s-5.544,12.25-2.294,15.5s17.5-24,17.5-35.5s9.167-24.666,18.167-34.666s13.5-8.167,20-15.667
		S364,312,363.5,297.5s15.122-31.167,31.5-31.167c26.5,0,50.5-16.333,47.5,4.667s-1,33.5-11.5,34s-12.5,4.5-27,21
		s-34.5,34.5-41,39.5s-0.5,18.5-8,24.5s-11.5,13.949-4,19.725s25,2.775,31.5-4.225s59.5-29,63-19.5s-3,9-1,16s3.5,11.5,2.5,18.5
		s2.5,11.75-12,23.25c-12.744,10.107-21,19.506-28.5,18.878s-9.5-8.872-15,0s-9,0.368-18.5,8.37s-31,14.738-33,8.37
		s7-12.868-5-13.368S262.889,468.897,253.667,509.5z"/>
</g>
<g id="Layer_8">
	<path fill="#EDEDED" d="M296.859,547.154c-0.633,1.933-4.691,2.337-9.063,0.904s-7.402-4.162-6.769-6.094
		c0.634-1.933,4.155-0.012,8.526,1.421C293.926,544.819,297.493,545.222,296.859,547.154z"/>
	<path fill="#EDEDED" d="M351.905,544.122c-0.969-1.788,6.737-2.203,13.345-5.784c6.607-3.582,9.615-8.973,10.584-7.186
		c0.969,1.788-1.977,8.016-8.584,11.598C360.642,546.331,352.874,545.91,351.905,544.122z"/>
	<path fill="#EDEDED" d="M487.996,250.523c3.73,5.411,3.799,11.834,6.754,9.797c2.956-2.038,2.328-8.076-1.402-13.486
		c-3.729-5.41-9.149-8.145-12.104-6.107C478.287,242.764,484.267,245.113,487.996,250.523z"/>
	<path fill="#EDEDED" d="M270,524.465c0,9.389,12.757,16.035,3,16.035s-15.333-9.979-15.333-19.368s2.743-21.465,12.5-21.465
		S270,515.076,270,524.465z"/>
	<path fill="#EDEDED" d="M494.333,400.334c0,13.18-3.99,29,0,29S503,411.65,503,398.471c0-13.179-10.479-27.137-14.469-27.137
		S494.333,387.155,494.333,400.334z"/>
	<path fill="#EDEDED" d="M405.375,364.75c0,4.832,4.925,5.75,5.753,5.75s-3.628-1.418-3.628-6.25s3.453-8.25,2.625-8.25
		S405.375,359.918,405.375,364.75z"/>
	<path fill="#EDEDED" d="M488.523,302.672c0,1.933-4.592,4.969-2.383,4.969s6.281-3.255,6.281-5.188s1.896-3.875-0.312-3.875
		S488.523,300.739,488.523,302.672z"/>
	<path fill="#EDEDED" d="M357.751,301.251c0,1.773-1.994,5.167-0.625,5.167c1.368,0,3.708-2.102,3.708-3.875
		s0.533-4.583-0.835-4.583C358.63,297.959,357.751,299.478,357.751,301.251z"/>
	<path fill="#EDEDED" d="M291.007,417.812c-0.542,1.456-0.388,3.606,0.033,3.763c0.42,0.156,0.948-1.74,1.49-3.196
		c0.542-1.456,0.641-2.763,0.22-2.919C292.33,415.303,291.549,416.355,291.007,417.812z"/>
	<path fill="#EDEDED" d="M306.375,365.292c0,2.623-0.973,6.498-0.374,6.498c0.598,0,1.833-3.625,1.833-6.248s-0.152-5.25-0.75-5.25
		C306.485,360.292,306.375,362.669,306.375,365.292z"/>
	<path fill="#EDEDED" d="M386.047,230.605c-1.532,0.903-2.532,2.043-2.234,2.549c0.299,0.505,1.781,0.184,3.312-0.719
		c1.531-0.902,4.507-3.346,4.209-3.851C391.036,228.079,387.578,229.702,386.047,230.605z"/>
</g>
<g id="Layer_3">
	<path fill="#E0C44E" d="M158.333,266.333c0,0-27.334,58.001-34.667,80.667c0,0,18.667,25.333,44.667,25.333
		c0,0,43.438-37.69,68.46-62.193C236.794,310.14,187.667,310.333,158.333,266.333z"/>
</g>
<g id="Layer_10">
	<path fill="#DDCA7B" d="M232.401,309.897l-68.618,62.179c0,0-3.362,0.206-8.824-1.952l63.705-62.483L232.401,309.897z"/>
</g>
</svg>
