<?xml version="1.0" encoding="utf-8"?>
<!-- Generator: Adobe Illustrator 16.0.4, SVG Export Plug-In . SVG Version: 6.00 Build 0)  -->
<!DOCTYPE svg PUBLIC "-//W3C//DTD SVG 1.1//EN" "http://www.w3.org/Graphics/SVG/1.1/DTD/svg11.dtd">
<svg version="1.1" id="Layer_1" xmlns="http://www.w3.org/2000/svg" xmlns:xlink="http://www.w3.org/1999/xlink" x="0px" y="0px"
	 width="600px" height="600px" viewBox="0 0 600 600" enable-background="new 0 0 600 600" xml:space="preserve">
<g id="Layer_1_1_" display="none">
	
		<image display="inline" overflow="visible" enable-background="new    " width="3024" height="4032" xlink:href="../../../../Downloads/43500052_248976292481855_424061667530244096_n.jpg"  transform="matrix(0.2088 0 0 0.2088 -15.6992 -90.9287)">
	</image>
</g>
<g id="Layer_2">
	<path fill="#2E2771" d="M281.644,9.335c0,0-128.369,40.639-188.36,219.968c0,0,31.608,39.995,71.602,43.22
		C164.885,272.523,268.741,193.181,281.644,9.335z"/>
</g>
<g id="Layer_9">
	<path fill="#353570" d="M166.886,266.94c0,0,82.827-98.917,92.504-171.165c0,0-98.637,167.032-105.794,168.984L166.886,266.94z"/>
</g>
<g id="Layer_4">
	<path fill="#363944" d="M61.675,302.842c0,0-32.577,35.801-43.22,73.538c-10.644,37.736,0.967,86.116,59.023,94.826
		c58.057,8.708,128.692-69.667,128.692-99.665c0,0-25.158,31.93-40.64,31.287c0,0,7.096-6.104,7.741-15.47
		c0,0-12.9,13.856-36.123,13.856s-18.062-65.796-32.899-73.86C104.25,327.354,89.09,326.388,61.675,302.842z"/>
</g>
<g id="Layer_5">
	<path fill="#6200EE" d="M75.06,411.697c-5.321-17.779-12.579-21.287-23.223,16.449c-5.976,21.193-38.32-6.024-25.974,12.968
		c9.638,14.831,26.163,26.272,51.615,30.092c58.057,8.708,128.692-69.667,128.692-99.665c0,0-25.158,31.93-40.64,31.287
		c0,0,7.096-6.104,7.741-15.47c0,0-12.9,13.856-36.123,13.856c-4.354,0-7.71-2.314-10.389-6.126
		c-11.603-16.518-9.73,30.88-20.252,34.51C95.984,433.227,80.382,429.478,75.06,411.697z"/>
	<path fill="#6200EE" d="M24.836,423.913c1.427,4.418,2.584,6.882,0.168,7.664c-2.415,0.78-3.115-2.949-4.542-7.367
		c-1.427-4.416-0.626-8.632,1.79-9.412C24.668,414.019,23.408,419.495,24.836,423.913z"/>
	<path fill="#6200EE" d="M114.838,391.932c-1.604-0.554-2.198-3.054-1.326-5.587c0.873-2.529,2.88-4.137,4.485-3.585
		c1.605,0.555,2.199,3.055,1.327,5.588C118.45,390.88,116.443,392.485,114.838,391.932z"/>
	
		<ellipse transform="matrix(-0.4229 0.9062 -0.9062 -0.4229 666.3274 337.0178)" fill="#6200EE" cx="225.848" cy="380.686" rx="26.149" ry="7.279"/>
	<path fill="#6200EE" d="M401.213,260.601c-0.923,5.456-4.852,12.515-2.744,12.873c2.113,0.357,7.557-5.647,8.479-11.105
		c0.923-5.457,1.543-11.329-0.565-11.686C404.272,250.324,402.14,255.144,401.213,260.601z"/>
	<path fill="#6200EE" d="M298.979,209.296c9.231-8.554,24.418-21.168,22.254-23.508c-2.174-2.344-17.714,8.606-26.946,17.16
		c-9.238,8.554-14.961,17.387-12.795,19.726C283.661,225.021,289.738,217.847,298.979,209.296z"/>
</g>
<g id="Layer_11">
	<path fill="#EDEDED" d="M107.475,464.038c-0.3,4.265-12.855,6.009-24.178,5.213c-11.323-0.796-26.195-3.335-25.896-7.6
		c0.299-4.266,13.593,1.017,24.916,1.812C93.639,464.261,107.775,459.773,107.475,464.038z"/>
	<path fill="#EDEDED" d="M49.458,456.884c1.96,1.221,4.73,0.986,3.971,2.206c-0.76,1.22-2.963,1.22-4.921-0.001
		c-1.958-1.22-3.961-2.793-3.201-4.011C46.065,453.859,47.5,455.664,49.458,456.884z"/>
	
		<ellipse transform="matrix(0.2013 -0.9795 0.9795 0.2013 -285.1257 425.1549)" fill="#EDEDED" cx="118.155" cy="387.425" rx="1.921" ry="0.803"/>
</g>
<g id="Layer_7">
	<path opacity="0.4" fill="#7C71B4" enable-background="new    " d="M179.048,518.183c-14.972,44.915,2.157,32.351,7.817,43.674
		c5.661,11.321,64.699,32.35,79.257,29.923c14.559-2.425,41.247-12.94,64.7-9.705s49.335-12.42,64.699-40.984
		c15.367-28.567,29.925-24.524,49.335-28.567c19.41-4.044,44.48-24.263,49.333-35.585c4.854-11.321,29.114-32.144,46.909-41.246
		c17.792-9.104,64.699-84.108,38.009-125.355c-26.688-41.247-7.279-48.525-43.67-43.672
		c-36.395,4.853-103.608,36.394-103.608,16.174s42.951-25.874,76.109-54.992c33.16-29.118,57.421-28.309,63.082-48.528
		s18.602-63.082,5.661-82.493c-12.939-19.41-15.366-19.41-55.803-30.732c-40.438-11.323-86.937-6.377-110.799-7.279
		c-29.979-1.133-46.906,38.552-99.476,76.022c-37.038,26.399-59.579,111.608-78.719,138.296
		c-19.14,26.688-40.976,66.317-33.698,73.596c7.28,7.279,16.444-20.219,33.698-42.055c17.253-21.836,19.015-4.043,12.876,10.515
		c-6.137,14.557-8.967,19.813-3.71,25.071c5.257,5.256,28.307-38.82,28.307-57.422c0-18.601,14.826-39.897,29.385-56.072
		c14.557-16.174,21.835-13.21,32.35-25.341c10.513-12.131,26.418-2.697,25.609-26.15c-0.81-23.454,24.459-50.413,50.95-50.413
		c42.863,0,81.684-26.418,76.832,7.549c-4.853,33.967-1.618,54.186-18.601,54.995c-16.985,0.809-20.22,7.279-43.672,33.968
		c-23.455,26.688-55.805,55.803-66.319,63.891c-10.513,8.087-0.809,29.924-12.938,39.627c-12.133,9.705-18.603,22.562-6.471,31.905
		c12.132,9.344,40.437,4.489,50.951-6.832c10.514-11.323,96.24-46.907,101.901-31.543c5.663,15.368-4.852,14.558-1.618,25.88
		c3.235,11.323,5.661,18.601,4.045,29.924c-1.618,11.323,4.046,19.005-19.411,37.606c-20.612,16.35-33.966,31.551-46.097,30.536
		c-12.134-1.016-15.367-14.352-24.263,0c-8.896,14.35-14.558,0.594-29.925,13.539c-15.365,12.943-50.141,23.838-53.377,13.537
		c-3.235-10.3,11.322-20.813-8.087-21.622C291.194,447.014,200.345,454.292,179.048,518.183z"/>
</g>
<g id="Layer_6">
	<path fill="#6200EE" d="M173.061,518.183c-8.358,36.799,4.269,40.124,7.817,43.674c8.951,8.952,64.7,32.35,79.257,29.923
		c14.558-2.425,41.246-12.94,64.7-9.705s49.334-12.42,64.7-40.984c15.367-28.567,29.924-24.524,49.333-28.567
		c19.409-4.044,44.482-24.263,49.334-35.585c4.854-11.321,29.114-32.144,46.907-41.246c17.792-9.104,64.7-84.108,38.012-125.355
		s-7.278-48.525-43.673-43.672c-36.393,4.853-103.607,36.394-103.607,16.174s42.951-25.874,76.109-54.992
		c33.159-29.118,57.42-28.309,63.082-48.528s18.603-63.082,5.662-82.493c-12.94-19.41-15.367-19.41-55.805-30.732
		c-40.438-11.323-86.934-6.377-110.798-7.279c-29.981-1.133-46.905,38.552-99.477,76.022
		c-37.039,26.399-59.579,111.608-78.718,138.296c-19.14,26.688-40.977,66.317-33.697,73.596
		c7.279,7.279,16.443-20.219,33.697-42.055c17.253-21.836,19.015-4.043,12.876,10.515c-6.138,14.557-8.966,19.813-3.709,25.071
		c5.256,5.256,28.305-38.82,28.305-57.422c0-18.601,14.828-39.897,29.386-56.072c14.558-16.174,21.836-13.21,32.351-25.341
		c10.514-12.131,26.417-2.697,25.608-26.15c-0.808-23.454,24.462-50.413,50.951-50.413c42.866,0,81.686-26.418,76.831,7.549
		c-4.852,33.967-1.617,54.186-18.602,54.995c-16.983,0.809-20.22,7.279-43.672,33.968c-23.453,26.688-55.804,55.803-66.316,63.891
		c-10.515,8.087-0.81,29.924-12.94,39.627c-12.131,9.705-18.602,22.562-6.47,31.905c12.131,9.344,40.438,4.489,50.95-6.832
		c10.515-11.323,96.241-46.907,101.904-31.543c5.661,15.368-4.854,14.558-1.619,25.88c3.236,11.323,5.662,18.601,4.044,29.924
		c-1.616,11.323,4.044,19.005-19.409,37.606c-20.614,16.35-33.969,31.551-46.1,30.536c-12.13-1.016-15.364-14.352-24.263,0
		c-8.896,14.35-14.558,0.594-29.922,13.539c-15.368,12.943-50.144,23.838-53.379,13.537c-3.234-10.3,11.323-20.813-8.088-21.622
		C285.206,447.014,187.978,452.509,173.061,518.183z"/>
</g>
<g id="Layer_8">
	<path fill="#EDEDED" d="M242.923,579.088c-1.023,3.126-7.589,3.781-14.66,1.462c-7.072-2.315-11.973-6.729-10.949-9.856
		c1.026-3.126,6.721-0.02,13.792,2.297C238.179,575.312,243.949,575.962,242.923,579.088z"/>
	<path fill="#EDEDED" d="M331.962,574.186c-1.571-2.894,10.895-3.564,21.583-9.356c10.689-5.794,15.553-14.514,17.12-11.624
		c1.567,2.893-3.197,12.966-13.885,18.76C346.092,577.758,333.526,577.077,331.962,574.186z"/>
	<path fill="#EDEDED" d="M552.086,99.289c6.032,8.753,6.145,19.142,10.927,15.847c4.779-3.296,3.764-13.062-2.27-21.814
		c-6.032-8.75-14.798-13.173-19.578-9.877C536.382,86.739,546.055,90.539,552.086,99.289z"/>
	<path fill="#EDEDED" d="M199.479,538.56c0,15.185,20.634,25.935,4.852,25.935c-15.781,0-24.8-16.14-24.8-31.327
		c0-15.185,4.437-34.72,20.219-34.72C215.53,498.447,199.479,523.373,199.479,538.56z"/>
	<path fill="#EDEDED" d="M562.335,341.607c0,21.318-6.451,46.907,0,46.907c6.456,0,14.021-28.604,14.021-49.92
		c0-21.317-16.949-43.894-23.403-43.894S562.335,320.29,562.335,341.607z"/>
	<path fill="#EDEDED" d="M418.448,284.05c0,7.815,7.966,9.301,9.305,9.301s-5.869-2.292-5.869-10.109
		c0-7.816,5.587-13.343,4.246-13.343C424.791,269.898,418.448,276.235,418.448,284.05z"/>
	<path fill="#EDEDED" d="M552.94,183.64c0,3.128-7.429,8.037-3.856,8.037c3.573,0,10.16-5.265,10.16-8.391
		c0-3.127,3.067-6.268-0.505-6.268C555.168,177.018,552.94,180.514,552.94,183.64z"/>
	<path fill="#EDEDED" d="M341.415,181.341c0,2.867-3.225,8.358-1.011,8.358s5.997-3.399,5.997-6.268
		c0-2.868,0.863-7.412-1.349-7.412C342.837,176.017,341.415,178.474,341.415,181.341z"/>
	<path fill="#EDEDED" d="M233.458,369.878c-0.877,2.355-0.628,5.833,0.054,6.087c0.678,0.254,1.533-2.813,2.41-5.169
		c0.876-2.355,1.036-4.47,0.356-4.723C235.597,365.818,234.334,367.522,233.458,369.878z"/>
	<path fill="#EDEDED" d="M258.314,284.928c0,4.242-1.573,10.51-0.604,10.51c0.967,0,2.965-5.864,2.965-10.107
		c0-4.242-0.246-8.491-1.213-8.491C258.494,276.84,258.314,280.684,258.314,284.928z"/>
	<path fill="#EDEDED" d="M387.185,67.072c-2.478,1.461-4.095,3.304-3.614,4.123c0.484,0.818,2.881,0.298,5.357-1.163
		c2.479-1.458,7.291-5.413,6.81-6.229C395.254,62.986,389.66,65.611,387.185,67.072z"/>
</g>
<g id="Layer_3">
	<path fill="#E0C44E" d="M95.218,224.789c0,0-26.449,56.121-33.543,78.053c0,0,18.062,24.513,43.22,24.513
		c0,0,42.031-36.47,66.242-60.178C171.138,267.177,123.602,267.363,95.218,224.789z"/>
</g>
<g id="Layer_10">
	<path fill="#DDCA7B" d="M166.886,266.94l-66.395,60.167c0,0-3.252,0.198-8.538-1.89l61.641-60.458L166.886,266.94z"/>
</g>
</svg>
