<?xml version="1.0" encoding="utf-8"?>
<!-- Generator: Adobe Illustrator 16.0.4, SVG Export Plug-In . SVG Version: 6.00 Build 0)  -->
<!DOCTYPE svg PUBLIC "-//W3C//DTD SVG 1.1//EN" "http://www.w3.org/Graphics/SVG/1.1/DTD/svg11.dtd">
<svg version="1.1" id="Layer_1" xmlns="http://www.w3.org/2000/svg" xmlns:xlink="http://www.w3.org/1999/xlink" x="0px" y="0px"
	 width="200px" height="200px" viewBox="0 0 200 200" enable-background="new 0 0 200 200" xml:space="preserve">
<circle fill="#DE6162" cx="50.834" cy="92.596" r="34.072"/>
<circle fill="#DE6162" cx="26.844" cy="35.434" r="10.007"/>
<circle fill="#DE6162" cx="87.596" cy="33.823" r="12.013"/>
<circle fill="#DE6162" cx="109.357" cy="13.867" r="6.007"/>
<circle fill="#DE6162" cx="71.908" cy="15.878" r="3.939"/>
<circle fill="#DE6162" cx="31.142" cy="11.061" r="4.134"/>
<circle fill="#DE6162" cx="9.362" cy="17.221" r="5.218"/>
<circle fill="#DE6162" cx="8.37" cy="50.743" r="3.749"/>
<rect x="33.194" y="38.638" transform="matrix(-0.9149 0.4036 -0.4036 -0.9149 87.7433 90.4928)" fill="#DE6162" width="2.283" height="31.709"/>
<rect x="16.045" y="35.943" transform="matrix(0.7072 0.707 -0.707 0.7072 36.4518 0.8606)" fill="#DE6162" width="2.283" height="16.996"/>
<rect x="28.49" y="13.942" transform="matrix(0.9936 0.1129 -0.1129 0.9936 2.7241 -3.2031)" fill="#DE6162" width="2.283" height="16.997"/>
<rect x="75.228" y="16.817" transform="matrix(0.8711 -0.491 0.491 0.8711 -1.4523 40.4648)" fill="#DE6162" width="2.284" height="12.366"/>
<rect x="101.027" y="14.508" transform="matrix(0.7068 0.7074 -0.7074 0.7068 46.2318 -65.531)" fill="#DE6162" width="2.281" height="16.995"/>
<rect x="60.092" y="9.019" transform="matrix(-0.0107 0.9999 -0.9999 -0.0107 97.2554 -25.3466)" fill="#DE6162" width="2.148" height="52.837"/>
<rect x="15.622" y="16.928" transform="matrix(0.7473 -0.6645 0.6645 0.7473 -12.6594 17.565)" fill="#DE6162" width="2.283" height="16.997"/>
<path fill="#B7E0D6" d="M181.292,50.927v83.77c0,5.221-4.232,9.452-9.453,9.452H76.255c-5.221,0-9.453-4.231-9.453-9.452V38.323
	c0-5.221,4.232-9.454,9.453-9.454h95.584L181.292,50.927z"/>
<path fill="#8EBCAF" d="M171.805,28.506l9.453,22.058c0,0-14.017-2.387-15.552-5.251C163.736,41.637,171.805,28.506,171.805,28.506z
	"/>
<path fill="#636281" d="M164.716,48.233c0,2.093-1.698,3.791-3.792,3.791h-66.47c-2.094,0-3.791-1.698-3.791-3.791l0,0
	c0-2.094,1.697-3.792,3.791-3.792h66.47C163.018,44.441,164.716,46.14,164.716,48.233L164.716,48.233z"/>
<path fill="#636281" d="M164.716,63.74c0,2.093-1.698,3.791-3.792,3.791h-66.47c-2.094,0-3.791-1.698-3.791-3.791l0,0
	c0-2.094,1.697-3.792,3.791-3.792h66.47C163.018,59.948,164.716,61.646,164.716,63.74L164.716,63.74z"/>
<circle fill="#636281" cx="80.422" cy="48.874" r="4.431"/>
<circle fill="#636281" cx="80.422" cy="63.74" r="4.431"/>
<path fill="#636281" d="M164.716,78.756c0,2.093-1.698,3.791-3.792,3.791h-66.47c-2.094,0-3.791-1.698-3.791-3.791l0,0
	c0-2.094,1.697-3.792,3.791-3.792h66.47C163.018,74.964,164.716,76.662,164.716,78.756L164.716,78.756z"/>
<circle fill="#636281" cx="80.422" cy="78.756" r="4.431"/>
<path fill="#636281" d="M164.716,95.569c0,2.093-1.698,3.791-3.792,3.791h-66.47c-2.094,0-3.791-1.698-3.791-3.791l0,0
	c0-2.094,1.697-3.792,3.791-3.792h66.47C163.018,91.777,164.716,93.475,164.716,95.569L164.716,95.569z"/>
<circle fill="#636281" cx="80.422" cy="95.569" r="4.431"/>
<g>
	<circle fill="#DDF1F1" cx="153.85" cy="87.509" r="35.484"/>
	<path fill="#434359" d="M153.85,126.145c-21.304,0-38.636-17.33-38.636-38.636c0-21.304,17.332-38.635,38.636-38.635
		c21.303,0,38.635,17.332,38.635,38.635C192.484,108.812,175.152,126.145,153.85,126.145z M153.85,55.175
		c-17.828,0-32.334,14.505-32.334,32.333c0,17.828,14.506,32.333,32.334,32.333c17.827,0,32.334-14.505,32.334-32.333
		C186.184,69.68,171.677,55.175,153.85,55.175z"/>
</g>
<path fill="#434359" d="M191.534,138.5c1.062,1.061,2.922,0.925,4.151-0.305l0,0c1.23-1.231,1.367-3.09,0.305-4.154l-23.744-23.743
	c-1.062-1.062-2.924-0.928-4.153,0.304l0,0c-1.231,1.229-1.368,3.09-0.304,4.152L191.534,138.5z"/>
<ellipse transform="matrix(0.8352 0.5499 -0.5499 0.8352 65.2035 -80.5905)" fill="#EDEFEF" cx="167.076" cy="68.504" rx="13.047" ry="6.893"/>
<circle fill="#EDEFEF" cx="180.292" cy="81.523" r="1.597"/>
<path fill="#FFF9E8" d="M175.611,183.87c0,5.221-4.231,9.454-9.452,9.454H15.167c-5.221,0-9.454-4.233-9.454-9.454v-75.89
	c0-5.221,4.232-9.453,9.454-9.453h150.992c5.221,0,9.452,4.232,9.452,9.453V183.87z"/>
<path fill="#B7E0D6" d="M72.544,172.268c0,5.219-4.232,9.453-9.454,9.453H24.096c-5.221,0-9.454-4.234-9.454-9.453v-52.681
	c0-5.222,4.232-9.455,9.454-9.455h38.995c5.221,0,9.454,4.233,9.454,9.455L72.544,172.268L72.544,172.268z"/>
<path fill="#85D2DD" d="M164.716,124.109c0,4.441-3.603,4.104-8.045,4.104H86.102c-4.442,0-8.043,0.338-8.043-4.104v-7.879
	c0-4.441,3.602-4.104,8.043-4.104h70.569c4.442,0,8.045-0.337,8.045,4.104V124.109L164.716,124.109z"/>
<path fill="#85D2DD" d="M128.87,140.624c0,3.12-2.013,2.881-4.496,2.881H84.919c-2.484,0-4.497,0.239-4.497-2.881v-5.53
	c0-3.117,2.013-2.881,4.497-2.881h39.455c2.483,0,4.496-0.236,4.496,2.881V140.624z"/>
<path fill="#85D2DD" d="M161.564,153.963c0,2.223-3.373,2.055-7.533,2.055H87.954c-4.16,0-7.531,0.168-7.531-2.055v-3.941
	c0-2.223,3.371-2.054,7.531-2.054h66.078c4.159,0,7.532-0.169,7.532,2.054V153.963L161.564,153.963z"/>
<path fill="#85D2DD" d="M161.564,165.781c0,2.222-3.373,2.053-7.533,2.053H87.954c-4.16,0-7.531,0.169-7.531-2.053v-3.941
	c0-2.223,3.371-2.056,7.531-2.056h66.078c4.159,0,7.532-0.167,7.532,2.056V165.781L161.564,165.781z"/>
<path fill="#85D2DD" d="M161.564,177.6c0,2.221-3.373,2.051-7.533,2.051H87.954c-4.16,0-7.531,0.17-7.531-2.051v-3.943
	c0-2.225,3.371-2.053,7.531-2.053h66.078c4.159,0,7.532-0.172,7.532,2.053V177.6L161.564,177.6z"/>
<circle fill="#C6C6C5" cx="42.017" cy="139.433" r="16.266"/>
<path fill="#C6C6C5" d="M22.956,181.721c0-13.652,8.984-24.718,20.067-24.718s20.068,11.065,20.068,24.718H22.956z"/>
<circle fill="#FFF9E8" cx="34.336" cy="136.231" r="2.446"/>
<circle fill="#FFF9E8" cx="48.91" cy="136.231" r="2.446"/>
<path fill="#FFF9E8" d="M48.188,142.841c0,3.408-2.763,6.173-6.171,6.173c-3.408,0-6.17-2.765-6.17-6.173"/>
</svg>
