<?xml version="1.0" encoding="utf-8"?>
<!-- Generator: Adobe Illustrator 16.0.4, SVG Export Plug-In . SVG Version: 6.00 Build 0)  -->
<!DOCTYPE svg PUBLIC "-//W3C//DTD SVG 1.1//EN" "http://www.w3.org/Graphics/SVG/1.1/DTD/svg11.dtd">
<svg version="1.1" xmlns="http://www.w3.org/2000/svg" xmlns:xlink="http://www.w3.org/1999/xlink" x="0px" y="0px" width="612px"
	 height="792px" viewBox="0 0 612 792" enable-background="new 0 0 612 792" xml:space="preserve">
<g id="Layer_2">
	<rect fill="#646281" width="612" height="102.105"/>
	<linearGradient id="SVGID_1_" gradientUnits="userSpaceOnUse" x1="139" y1="118.5" x2="574.9531" y2="118.5">
		<stop  offset="0.55" style="stop-color:#646281"/>
		<stop  offset="1" style="stop-color:#FFFFFF"/>
	</linearGradient>
	<rect x="139" y="117.528" fill="url(#SVGID_1_)" width="435.953" height="1.944"/>
	<linearGradient id="SVGID_2_" gradientUnits="userSpaceOnUse" x1="105.5" y1="163.6284" x2="574.9531" y2="163.6284">
		<stop  offset="0.55" style="stop-color:#646281"/>
		<stop  offset="1" style="stop-color:#FFFFFF"/>
	</linearGradient>
	<rect x="105.5" y="162.656" fill="url(#SVGID_2_)" width="469.453" height="1.944"/>
	<linearGradient id="SVGID_3_" gradientUnits="userSpaceOnUse" x1="149.25" y1="262.9722" x2="574.6055" y2="262.9722">
		<stop  offset="0.55" style="stop-color:#646281"/>
		<stop  offset="1" style="stop-color:#FFFFFF"/>
	</linearGradient>
	<rect x="149.25" y="262" fill="url(#SVGID_3_)" width="425.355" height="1.944"/>
	<linearGradient id="SVGID_4_" gradientUnits="userSpaceOnUse" x1="248.6685" y1="532.9727" x2="575" y2="532.9727">
		<stop  offset="0.55" style="stop-color:#646281"/>
		<stop  offset="1" style="stop-color:#FFFFFF"/>
	</linearGradient>
	<rect x="248.668" y="532.001" fill="url(#SVGID_4_)" width="326.332" height="1.944"/>
	<linearGradient id="SVGID_5_" gradientUnits="userSpaceOnUse" x1="142.5" y1="609.082" x2="574.9531" y2="609.082">
		<stop  offset="0.55" style="stop-color:#646281"/>
		<stop  offset="1" style="stop-color:#FFFFFF"/>
	</linearGradient>
	<rect x="142.5" y="608.11" fill="url(#SVGID_5_)" width="432.453" height="1.944"/>
	<rect x="58.667" y="73.991" fill="none" width="108" height="31.333"/>
	<text transform="matrix(1 0 0 1 58.6665 81.6113)"><tspan x="0" y="0" fill="#FFFFFF" font-family="'Roboto-Regular'" font-size="10">94-1116 Pulai Street</tspan><tspan x="0" y="12" fill="#FFFFFF" font-family="'Roboto-Regular'" font-size="10">Waipahu, HI, 96797  </tspan></text>
	<line fill="none" stroke="#FFFFFF" stroke-miterlimit="10" x1="159.5" y1="71.772" x2="159.5" y2="98.667"/>
	<line fill="none" stroke="#FFFFFF" stroke-miterlimit="10" x1="268" y1="71.772" x2="268" y2="98.667"/>
	<line fill="none" stroke="#FFFFFF" stroke-miterlimit="10" x1="432.334" y1="71.523" x2="432.334" y2="98.417"/>
</g>
<g id="Layer_1">
	<rect x="37.395" y="33.053" fill="none" width="537.21" height="29.947"/>
	<text transform="matrix(1 0 0 1 37.395 59.7642)" fill="#FFFFFF" font-family="'Montserrat-SemiBold'" font-size="36">Brice Okubo</text>
	<rect x="56.744" y="114.102" fill="none" width="539.308" height="19.499"/>
	<text transform="matrix(1 0 0 1 56.7437 124.4893)" fill="#646281" font-family="'Montserrat-Medium'" font-size="14">OBJECTIVE</text>
	<rect x="55.846" y="604.083" fill="none" width="539.309" height="19.499"/>
	<text transform="matrix(1 0 0 1 55.8457 614.4707)" fill="#646281" font-family="'Montserrat-Medium'" font-size="14">EDUCATION</text>
	<rect x="55.744" y="258" fill="none" width="539.308" height="19.499"/>
	<text transform="matrix(1 0 0 1 55.7441 268.3877)" fill="#646281" font-family="'Montserrat-Medium'" font-size="14">EXPERIENCE</text>
	<rect x="57.002" y="527.917" fill="none" width="505.945" height="19.499"/>
	<text transform="matrix(1 0 0 1 57.0024 538.3047)" fill="#646281" font-family="'Montserrat-Medium'" font-size="14">CERTIFICATION &amp; AWARDS</text>
	<rect x="56.64" y="158" fill="none" width="539.308" height="19.499"/>
	<text transform="matrix(1 0 0 1 56.6396 168.3877)" fill="#646281" font-family="'Montserrat-Medium'" font-size="14">SKILLS</text>
	<rect x="57" y="137.601" fill="none" width="488" height="29"/>
	<text transform="matrix(1 0 0 1 57 145.9824)" fill="#1F1F1F" font-family="'Roboto-Regular'" font-size="11">To obtain a web designer and web developer career where my experience will further my growth.</text>
	<rect x="93.333" y="176" fill="none" width="132" height="82"/>
	<text transform="matrix(1 0 0 1 93.333 184.3818)"><tspan x="0" y="0" font-family="'Roboto-Regular'" font-size="11">• HTML</tspan><tspan x="0" y="16" font-family="'Roboto-Regular'" font-size="11">• CSS</tspan><tspan x="0" y="32" font-family="'Roboto-Regular'" font-size="11">• JavaScript</tspan><tspan x="0" y="48" font-family="'Roboto-Regular'" font-size="11">• Vector Images</tspan><tspan x="0" y="64" font-family="'Roboto-Regular'" font-size="11">• Product Design</tspan></text>
	<rect x="304.953" y="176" fill="none" width="156.666" height="82"/>
	<text transform="matrix(1 0 0 1 304.9531 184.3818)"><tspan x="0" y="0" font-family="'Roboto-Regular'" font-size="11">• Google Analytics</tspan><tspan x="0" y="16" font-family="'Roboto-Regular'" font-size="11">• Adobe Creative Suite</tspan><tspan x="0" y="32" font-family="'Roboto-Regular'" font-size="11">• Graphic Design</tspan><tspan x="0" y="48" font-family="'Roboto-Regular'" font-size="11">• UX Research</tspan><tspan x="0" y="64" font-family="'Roboto-Regular'" font-size="11">• Critical Thinking</tspan></text>
	<rect x="49" y="398" fill="none" width="360" height="21"/>
	<text transform="matrix(1 0 0 1 49 406.3828)" fill="#212121" font-family="'Roboto-Bold'" font-size="11">UH MANOA BOOKSTORE, UNIVERSITY OF HAWAII AT MANOA</text>
	<rect x="49" y="275.334" fill="none" width="360" height="21"/>
	<text transform="matrix(1 0 0 1 49 283.7158)" fill="#212121" font-family="'Roboto-Bold'" font-size="11">Modern Compass</text>
	<rect x="49" y="413.5" fill="none" width="117" height="17"/>
	<text transform="matrix(1 0 0 1 49 421.8818)" fill="#212121" font-family="'Roboto-Italic'" font-size="11">Office Assistant 1</text>
	<rect x="49" y="290" fill="none" width="117" height="17"/>
	<text transform="matrix(1 0 0 1 49 298.3818)" fill="#212121" font-family="'Roboto-Italic'" font-size="11">Lead UI/UX Designer</text>
	<rect x="425.286" y="412.5" fill="none" width="133.334" height="14"/>
	<text transform="matrix(1 0 0 1 426.9746 420.8818)" fill="#212121" font-family="'Roboto-Italic'" font-size="11">January 2016 – March 2017</text>
	<rect x="425.286" y="288.334" fill="none" width="104.666" height="14"/>
	<text transform="matrix(1 0 0 1 425.6934 296.7158)" fill="#212121" font-family="'Roboto-Italic'" font-size="11">March 2017 – Present</text>
	<rect x="59" y="430.5" fill="none" width="480.667" height="89.417"/>
	<text transform="matrix(1 0 0 1 59 438.8818)"><tspan x="0" y="0" fill="#202020" font-family="'Roboto-Regular'" font-size="11">• Design wireframes, mockups and prototype to demonstrate user-friendly interface</tspan><tspan x="0" y="18" fill="#202020" font-family="'Roboto-Regular'" font-size="11">• Maintain content and design new layouts for merchandise webpages</tspan><tspan x="0" y="36" fill="#202020" font-family="'Roboto-Regular'" font-size="11">• Publish graphic promotional material for in store sales</tspan><tspan x="0" y="54" fill="#202020" font-family="'Roboto-Regular'" font-size="11">• Create internal resolutions to improve efficiency amongst peers and work environment</tspan><tspan x="0" y="72" fill="#202020" font-family="'Roboto-Regular'" font-size="11">• Research trending products in media and properly reorder products base on sales history</tspan></text>
	<rect x="59" y="307.334" fill="none" width="480.667" height="86.667"/>
	<text transform="matrix(1 0 0 1 59 315.7158)"><tspan x="0" y="0" fill="#202020" font-family="'Roboto-Regular'" font-size="11">• Work closely with project lead to create vision, conceive designs, and resolve website problems</tspan><tspan x="0" y="18" fill="#202020" font-family="'Roboto-Regular'" font-size="11">• Illustrate custom logo, wire frame, and functional prototype</tspan><tspan x="0" y="36" fill="#202020" font-family="'Roboto-Regular'" font-size="11">• Design UI for mobile application</tspan><tspan x="0" y="54" fill="#202020" font-family="'Roboto-Regular'" font-size="11">• Develop measurement plan,  user flows, and user personas</tspan><tspan x="0" y="72" fill="#202020" font-family="'Roboto-Regular'" font-size="11">• Perform competitive analysis to improve web and mobile application user experience </tspan></text>
	<rect x="49" y="549.416" fill="none" width="332.166" height="18.667"/>
	<text transform="matrix(1 0 0 1 49 557.7979)" fill="#212121" font-family="'Roboto-Bold'" font-size="11">GOOGLE ANALYTICS CERTIFICATION</text>
	<rect x="427" y="548.416" fill="none" width="144.667" height="14.592"/>
	<text transform="matrix(1 0 0 1 427 556.7979)" fill="#212121" font-family="'Roboto-Italic'" font-size="11">June 2017</text>
	<rect x="426.335" y="568.083" fill="none" width="114" height="22.592"/>
	<text transform="matrix(1 0 0 1 426.335 576.4648)" fill="#212121" font-family="'Roboto-Italic'" font-size="11">February 2015</text>
	<rect x="49" y="622.832" fill="none" width="525" height="35.501"/>
	<text transform="matrix(1 0 0 1 49 631.2139)"><tspan x="0" y="0" fill="#212121" font-family="'Roboto-Bold'" font-size="11">HONOLULU COMMUNITY COLLEGE</tspan><tspan x="175.065" y="0" fill="#212121" font-family="'Roboto-Regular'" font-size="11"> </tspan><tspan x="177.799" y="0" fill="#212121" font-family="'Roboto-Regular'" font-size="11">	</tspan><tspan x="180" y="0" fill="#212121" font-family="'Roboto-Regular'" font-size="11" letter-spacing="33">					</tspan><tspan x="360" y="0" fill="#212121" font-family="'Roboto-Regular'" font-size="11">      </tspan><tspan x="376.403" y="0" fill="#212121" font-family="'Roboto-Italic'" font-size="11">August 2014 – December 2015</tspan><tspan x="0" y="13.2" fill="#212121" font-family="'Roboto-Regular'" font-size="11">Computing, Electronics &amp; Networking Technologies</tspan></text>
	<rect x="49.293" y="654.334" fill="none" width="524.66" height="42.332"/>
	<text transform="matrix(1 0 0 1 49.293 662.7158)"><tspan x="0" y="0" fill="#212121" font-family="'Roboto-Bold'" font-size="11">UNIVERSITY OF HAWAII AT MANOA </tspan><tspan x="180.522" y="0" fill="#212121" font-family="'Roboto-Medium'" font-size="11" letter-spacing="32">	</tspan><tspan x="216" y="0" fill="#212121" font-family="'Roboto-Medium'" font-size="11" letter-spacing="33">				</tspan><tspan x="360" y="0" fill="#212121" font-family="'Roboto-Medium'" font-size="11">      </tspan><tspan x="376.436" y="0" fill="#212121" font-family="'Roboto-Italic'" font-size="11">August 2010 – December 2013</tspan><tspan x="0" y="13.2" fill="#212121" font-family="'Roboto-Regular'" font-size="11">COLLEGE OF ARTS AND SCIENCES  </tspan><tspan x="178.406" y="13.2" fill="#212121" font-family="'Roboto-Regular'" font-size="11" letter-spacing="-1">	</tspan><tspan x="180" y="13.2" fill="#212121" font-family="'Roboto-Regular'" font-size="11" letter-spacing="33">					</tspan><tspan x="360" y="13.2" fill="#212121" font-family="'Roboto-Regular'" font-size="11">      </tspan><tspan x="376.402" y="13.2" fill="#212121" font-family="'Roboto-Italic'" font-size="11">Cumulative GPA: 3.52</tspan><tspan x="0" y="26.4" fill="#212121" font-family="'Roboto-Regular'" font-size="11">Bachelor of Arts in Creative Media, Minor in Art</tspan></text>
	<rect x="49" y="699.674" fill="none" width="524.954" height="31.334"/>
	<text transform="matrix(1 0 0 1 48.9995 708.0557)"><tspan x="0" y="0" fill="#212121" font-family="'Roboto-Bold'" font-size="11">LEEWARD COMMUNITY COLLEGE</tspan><tspan x="167.299" y="0" fill="#212121" font-family="'Roboto-Medium'" font-size="11"> </tspan><tspan x="170.038" y="0" fill="#212121" font-family="'Roboto-Medium'" font-size="11" letter-spacing="7">	</tspan><tspan x="180" y="0" fill="#212121" font-family="'Roboto-Medium'" font-size="11" letter-spacing="33">					</tspan><tspan x="360" y="0" fill="#212121" font-family="'Roboto-Medium'" font-size="11">      </tspan><tspan x="376.436" y="0" fill="#212121" font-family="'Roboto-Italic'" font-size="11">August 2008 – May 2010</tspan><tspan x="0" y="13.2" fill="#212121" font-family="'Roboto-Regular'" font-size="11">Associate of Liberal Arts</tspan></text>
	<rect x="50" y="569.083" fill="none" width="382.949" height="29.333"/>
	<text transform="matrix(1 0 0 1 50 577.4648)"><tspan x="0" y="0" fill="#212121" font-family="'Roboto-Bold'" font-size="11">HAWAII’S AT&amp;T MOBILE HACKATHON EVENT</tspan><tspan x="0" y="13.2" fill="#212121" font-family="'Roboto-Regular'" font-size="10">Served as UI and UX designer and won first place over one hundred other applicants</tspan></text>
	<rect x="190.833" y="80.886" fill="none" width="72.333" height="13.22"/>
	<text transform="matrix(1 0 0 1 190.8335 89.2676)" fill="#FFFFFF" font-family="'Roboto-Regular'" font-size="11">808-352-6707 </text>
	<rect x="302" y="80.886" fill="none" width="126.952" height="20"/>
	<text transform="matrix(1 0 0 1 302 89.2676)" fill="#FFFFFF" font-family="'Roboto-Regular'" font-size="11">bricetokubo@gmail.com</text>
	<rect x="465.62" y="80.663" fill="none" width="123.333" height="11.039"/>
	<text transform="matrix(1 0 0 1 465.6201 89.0449)" fill="#FFFFFF" font-family="'Roboto-Regular'" font-size="11"> briceokubo.github.io</text>
	<polyline fill="none" stroke="#FFFFFF" stroke-linejoin="round" stroke-miterlimit="10" points="295.834,79.804 287.334,86.219 
		278.834,79.804 	"/>
</g>
<g id="icon">
	<g>
		<path fill="#646281" d="M54.986,541.062h-2.307v-0.819h1.897v-11.508H38.82v11.508h11.127v0.819H38.41
			c-0.226,0-0.41-0.183-0.41-0.409v-12.326c0-0.227,0.184-0.41,0.41-0.41h16.577c0.227,0,0.41,0.184,0.41,0.41v12.326
			C55.396,540.88,55.213,541.062,54.986,541.062z"/>
	</g>
	<g>
		<path fill="#646281" d="M51.798,531.196H41.431c-0.377,0-0.683-0.307-0.683-0.684s0.306-0.683,0.683-0.683h10.368
			c0.378,0,0.684,0.306,0.684,0.683S52.176,531.196,51.798,531.196z"/>
	</g>
	<g>
		<path fill="#646281" d="M47.184,533.792h-7.256c-0.151,0-0.273-0.123-0.273-0.273c0-0.151,0.122-0.272,0.273-0.272h7.256
			c0.151,0,0.274,0.121,0.274,0.272C47.458,533.669,47.334,533.792,47.184,533.792z"/>
	</g>
	<g>
		<path fill="#646281" d="M47.184,535.735h-7.407c-0.151,0-0.273-0.123-0.273-0.273c0-0.151,0.122-0.273,0.273-0.273h7.407
			c0.151,0,0.274,0.122,0.274,0.273C47.458,535.612,47.334,535.735,47.184,535.735z"/>
	</g>
	<g>
		<path fill="#646281" d="M47.184,537.678h-7.407c-0.151,0-0.273-0.121-0.273-0.273c0-0.15,0.122-0.272,0.273-0.272h7.407
			c0.151,0,0.274,0.122,0.274,0.272C47.458,537.557,47.334,537.678,47.184,537.678z"/>
	</g>
	<path fill="#646281" d="M54.354,537.498l-1.07-0.991l0.853-0.831l-1.218-0.177l0.211-1.46l-1.336,0.747l-0.625-1.267l-0.578,1.171
		l-1.128-0.557l0.262,1.32l-1.523,0.222l1.099,1.071l-0.881,0.905l1.151,0.136l-0.236,1.376l1.418-0.745l0.689,1.312l0.515-1.115
		l1.047,0.549l-0.239-1.393L54.354,537.498z M51.276,538.17c-0.853,0-1.543-0.692-1.543-1.546c0-0.853,0.69-1.544,1.543-1.544
		c0.854,0,1.545,0.691,1.545,1.544C52.822,537.478,52.13,538.17,51.276,538.17z"/>
	<polygon fill="#646281" points="50.224,538.927 50.224,542.979 51.32,541.818 52.478,542.979 52.478,539.109 51.95,538.835 
		51.422,539.996 50.752,538.619 	"/>
	<g id="HZXZmc.tif">
		<g>
			<path fill="#646281" d="M37.744,614.943c0.412,0.421,0.847,0.767,1.411,0.913c0.085,0.021,0.173,0.034,0.26,0.037
				c0.526,0.024,0.888-0.249,1.161-0.664c0.353-0.536,0.5-1.144,0.595-1.767c0.126-0.832,0.132-1.669,0.069-2.507
				c-0.008-0.113,0.017-0.191,0.108-0.272c0.246-0.216,0.331-0.574,0.159-0.847c-0.136-0.215-0.074-0.37,0.04-0.538
				c0.095-0.139,0.195-0.278,0.312-0.401c0.309-0.327,0.686-0.565,1.085-0.767c1.163-0.585,2.412-0.887,3.688-1.089
				c0.217-0.035,0.414,0.114,0.45,0.326c0.034,0.196-0.105,0.399-0.313,0.442c-0.149,0.031-0.301,0.047-0.45,0.075
				c-1.085,0.207-2.144,0.492-3.136,0.993c-0.069,0.035-0.135,0.077-0.228,0.131c0.058,0.021,0.079,0.028,0.1,0.035
				c1.13,0.348,2.258,0.698,3.39,1.036c0.109,0.032,0.247,0.021,0.359-0.014c1.953-0.592,3.905-1.191,5.857-1.788
				c0.587-0.18,1.177-0.354,1.759-0.549c0.098-0.032,0.211-0.146,0.235-0.243c0.022-0.09-0.049-0.219-0.114-0.306
				c-0.041-0.057-0.142-0.074-0.219-0.098c-2.488-0.763-4.978-1.523-7.465-2.29c-0.176-0.054-0.338-0.053-0.514,0.001
				c-1.9,0.587-3.802,1.169-5.703,1.752c-0.615,0.189-1.231,0.375-1.845,0.566c-0.254,0.08-0.347,0.349-0.177,0.521
				c0.062,0.062,0.158,0.1,0.244,0.128c0.698,0.217,1.398,0.429,2.098,0.644c0.07,0.021,0.14,0.045,0.199,0.066
				c-0.159,0.285-0.305,0.558-0.462,0.825c-0.041,0.068-0.106,0.136-0.176,0.171c-0.434,0.221-0.557,0.741-0.272,1.138
				c0.05,0.069,0.079,0.181,0.067,0.267c-0.112,0.789-0.416,1.507-0.838,2.179C39.02,613.779,38.444,614.398,37.744,614.943z
				 M42.671,609.739c-0.136,0.487-0.268,0.965-0.404,1.441c-0.171,0.596,0.042,1.08,0.437,1.51c0.123,0.133,0.256,0.259,0.397,0.372
				c1.768,1.42,4.383,1.574,6.388,0.382c0.468-0.278,0.888-0.61,1.216-1.05c0.207-0.277,0.33-0.578,0.279-0.934
				c-0.083-0.588-0.273-1.146-0.477-1.708c-0.067,0.019-0.123,0.032-0.178,0.05c-1.113,0.34-2.227,0.681-3.339,1.023
				c-0.261,0.081-0.516,0.082-0.776,0c-0.463-0.146-0.928-0.286-1.393-0.428C44.119,610.183,43.415,609.967,42.671,609.739z"/>
			<path fill-rule="evenodd" clip-rule="evenodd" fill="#646281" d="M37.744,614.943c0.7-0.545,1.276-1.164,1.732-1.892
				c0.422-0.672,0.726-1.39,0.838-2.179c0.012-0.086-0.017-0.197-0.067-0.267c-0.285-0.396-0.162-0.917,0.272-1.138
				c0.07-0.035,0.136-0.103,0.176-0.171c0.157-0.268,0.304-0.54,0.462-0.825c-0.059-0.021-0.129-0.046-0.199-0.066
				c-0.699-0.215-1.399-0.427-2.098-0.644c-0.086-0.028-0.182-0.065-0.244-0.128c-0.17-0.173-0.078-0.441,0.177-0.521
				c0.614-0.191,1.23-0.377,1.845-0.566c1.901-0.583,3.803-1.165,5.703-1.752c0.176-0.054,0.338-0.055,0.514-0.001
				c2.487,0.767,4.977,1.527,7.465,2.29c0.077,0.023,0.178,0.041,0.219,0.098c0.065,0.087,0.136,0.216,0.114,0.306
				c-0.023,0.097-0.137,0.211-0.235,0.243c-0.583,0.195-1.172,0.369-1.759,0.549c-1.952,0.597-3.904,1.196-5.857,1.788
				c-0.112,0.034-0.25,0.046-0.359,0.014c-1.132-0.338-2.26-0.688-3.39-1.036c-0.021-0.007-0.042-0.015-0.1-0.035
				c0.093-0.054,0.158-0.096,0.228-0.131c0.992-0.501,2.051-0.786,3.136-0.993c0.149-0.028,0.301-0.044,0.45-0.075
				c0.208-0.043,0.348-0.246,0.313-0.442c-0.036-0.212-0.233-0.361-0.45-0.326c-1.276,0.202-2.525,0.504-3.688,1.089
				c-0.4,0.201-0.776,0.439-1.085,0.767c-0.116,0.123-0.216,0.263-0.312,0.401c-0.114,0.168-0.176,0.323-0.04,0.538
				c0.172,0.272,0.086,0.631-0.159,0.847c-0.091,0.081-0.117,0.159-0.108,0.272c0.063,0.838,0.057,1.675-0.069,2.507
				c-0.094,0.623-0.242,1.23-0.595,1.767c-0.273,0.415-0.635,0.688-1.161,0.664c-0.087-0.003-0.175-0.016-0.26-0.037
				C38.59,615.71,38.156,615.364,37.744,614.943z"/>
			<path fill-rule="evenodd" clip-rule="evenodd" fill="#646281" d="M42.671,609.739c0.744,0.228,1.448,0.443,2.151,0.659
				c0.464,0.142,0.929,0.281,1.393,0.428c0.26,0.082,0.516,0.081,0.776,0c1.112-0.343,2.226-0.684,3.339-1.023
				c0.055-0.018,0.111-0.031,0.178-0.05c0.204,0.562,0.393,1.12,0.477,1.708c0.051,0.355-0.072,0.656-0.279,0.934
				c-0.329,0.439-0.749,0.771-1.216,1.05c-2.005,1.192-4.621,1.038-6.388-0.382c-0.141-0.113-0.274-0.239-0.397-0.372
				c-0.396-0.43-0.608-0.914-0.437-1.51C42.403,610.704,42.535,610.227,42.671,609.739z"/>
		</g>
	</g>
	<g id="FxuqGN.tif">
		<g>
			<path fill-rule="evenodd" clip-rule="evenodd" fill="#646281" d="M53.569,262.295c0,0.104,0,0.193,0,0.28
				c0,2.062,0,4.125,0,6.187c0,0.551-0.31,0.958-0.811,1.063c-0.091,0.02-0.189,0.02-0.284,0.02c-4.261,0-8.522,0-12.784,0
				c-0.291,0-0.581,0-0.872,0c-0.625,0-1.061-0.427-1.061-1.051c-0.002-1.645-0.001-3.29-0.001-4.934c0-0.466,0-0.931,0-1.396
				c0-0.051,0-0.102,0-0.172c0.046,0.016,0.076,0.022,0.1,0.035c1.776,0.963,3.676,1.59,5.623,2.093
				c0.119,0.032,0.164,0.071,0.159,0.198c-0.01,0.249-0.006,0.497-0.002,0.745c0.003,0.26,0.145,0.398,0.407,0.398
				c1.147,0.001,2.294,0.001,3.441,0c0.25,0,0.39-0.142,0.393-0.396c0.003-0.259,0.005-0.519-0.001-0.777
				c-0.003-0.103,0.032-0.143,0.135-0.17c1.437-0.374,2.845-0.835,4.197-1.452C52.659,262.758,53.098,262.527,53.569,262.295z"/>
			<path fill-rule="evenodd" clip-rule="evenodd" fill="#646281" d="M43.637,263.892c-0.487-0.147-0.947-0.281-1.403-0.426
				c-1.353-0.432-2.688-0.914-3.94-1.592c-0.177-0.095-0.407-0.169-0.498-0.321c-0.089-0.15-0.038-0.389-0.039-0.585
				c-0.003-0.445-0.001-0.89,0-1.333c0-0.658,0.427-1.083,1.08-1.082c0.967,0.001,1.934,0,2.902,0.001c0.058,0,0.115,0,0.198,0
				c0-0.193-0.001-0.375,0-0.558c0.001-0.216-0.016-0.436,0.012-0.649c0.069-0.548,0.537-0.949,1.095-0.951
				c1.777-0.002,3.553-0.002,5.33,0c0.579,0.001,1.07,0.492,1.078,1.071c0.004,0.354,0,0.708,0,1.086c0.076,0,0.143,0,0.209,0
				c0.957,0,1.914,0,2.871,0.001c0.586,0,1.028,0.423,1.036,1.011c0.009,0.629,0,1.258,0.006,1.888c0,0.104-0.054,0.148-0.128,0.194
				c-0.72,0.449-1.481,0.82-2.273,1.11c-1.049,0.386-2.114,0.728-3.171,1.089c-0.029,0.01-0.06,0.014-0.104,0.024
				c-0.006-0.044-0.015-0.083-0.016-0.122c-0.001-0.217,0-0.434,0-0.651c-0.002-0.297-0.132-0.428-0.425-0.428
				c-0.883-0.002-1.766,0-2.648,0c-0.253,0-0.507-0.001-0.761,0.001c-0.272,0.001-0.405,0.134-0.408,0.411
				C43.635,263.34,43.637,263.599,43.637,263.892z M48.662,258.546c0-0.356,0.004-0.694-0.001-1.031
				c-0.003-0.207-0.136-0.327-0.347-0.329c-0.244-0.003-0.486-0.002-0.73-0.002c-1.495,0-2.991,0-4.487,0
				c-0.245,0-0.37,0.126-0.371,0.371c-0.001,0.153,0,0.307,0,0.46c0,0.177,0,0.354,0,0.53
				C44.715,258.546,46.68,258.546,48.662,258.546z"/>
			<path fill-rule="evenodd" clip-rule="evenodd" fill="#646281" d="M45.752,263.161c0.38,0,0.761-0.002,1.142,0
				c0.303,0.003,0.405,0.108,0.406,0.413c0,0.443,0.001,0.888,0,1.332c-0.001,0.23-0.114,0.357-0.348,0.358
				c-0.792,0.005-1.584,0.006-2.377,0.002c-0.245-0.002-0.357-0.126-0.358-0.365c-0.002-0.454-0.002-0.909,0-1.362
				c0-0.259,0.116-0.374,0.379-0.376C44.98,263.159,45.367,263.161,45.752,263.161z"/>
		</g>
	</g>
	<g id="_x30_MLQRE.tif">
		<g>
			<path fill-rule="evenodd" clip-rule="evenodd" fill="#646281" d="M44.552,157.539c0.106,0.308,0.202,0.619,0.321,0.922
				c0.264,0.67,1.013,0.973,1.674,0.683c0.247-0.109,0.49-0.227,0.729-0.35c0.103-0.053,0.169-0.056,0.256,0.036
				c0.311,0.323,0.628,0.639,0.95,0.951c0.088,0.085,0.093,0.154,0.039,0.259c-0.118,0.227-0.225,0.458-0.332,0.69
				c-0.321,0.696-0.012,1.455,0.705,1.728c0.239,0.091,0.479,0.177,0.722,0.255c0.124,0.04,0.182,0.098,0.179,0.24
				c-0.01,0.434-0.009,0.868-0.001,1.302c0.003,0.131-0.046,0.189-0.165,0.229c-0.249,0.081-0.497,0.167-0.742,0.263
				c-0.717,0.279-1.019,1.033-0.694,1.731c0.104,0.225,0.208,0.451,0.323,0.671c0.057,0.109,0.059,0.184-0.039,0.277
				c-0.323,0.31-0.639,0.628-0.951,0.95c-0.08,0.082-0.143,0.085-0.238,0.036c-0.228-0.116-0.459-0.225-0.69-0.332
				c-0.708-0.329-1.467-0.022-1.746,0.706c-0.094,0.245-0.17,0.497-0.268,0.74c-0.022,0.056-0.098,0.128-0.15,0.129
				c-0.511,0.01-1.022,0.006-1.543,0.006c-0.103-0.288-0.202-0.568-0.303-0.848c-0.269-0.743-1.024-1.061-1.748-0.734
				c-0.277,0.125-0.551,0.259-0.84,0.396c-0.363-0.365-0.727-0.724-1.081-1.093c-0.036-0.037-0.034-0.143-0.009-0.199
				c0.102-0.242,0.223-0.475,0.331-0.714c0.321-0.711,0.006-1.46-0.727-1.736c-0.292-0.109-0.585-0.214-0.878-0.321
				c0-0.541,0-1.081,0-1.622c0.305-0.112,0.613-0.219,0.916-0.337c0.694-0.27,1.002-1.017,0.699-1.695
				c-0.109-0.246-0.223-0.49-0.345-0.729c-0.05-0.097-0.048-0.16,0.034-0.239c0.326-0.317,0.647-0.638,0.963-0.965
				c0.08-0.083,0.143-0.082,0.238-0.034c0.24,0.121,0.483,0.237,0.729,0.345c0.699,0.309,1.453-0.015,1.714-0.734
				c0.104-0.286,0.202-0.575,0.302-0.862C43.442,157.539,43.997,157.539,44.552,157.539z M41.509,163.592
				c-0.003,1.225,0.999,2.235,2.214,2.229c1.192-0.006,2.196-1,2.199-2.18c0.004-1.251-0.979-2.261-2.203-2.261
				C42.509,161.38,41.512,162.377,41.509,163.592z"/>
			<path fill-rule="evenodd" clip-rule="evenodd" fill="#646281" d="M55.267,169.236c-0.187,0.062-0.382,0.108-0.559,0.192
				c-0.324,0.152-0.447,0.514-0.31,0.849c0.066,0.163,0.214,0.342,0.182,0.48c-0.036,0.155-0.235,0.27-0.363,0.404
				c-0.068,0.072-0.134,0.146-0.206,0.223c-0.158-0.076-0.297-0.145-0.438-0.209c-0.393-0.18-0.785-0.025-0.944,0.373
				c-0.061,0.15-0.08,0.363-0.19,0.433c-0.124,0.078-0.33,0.025-0.5,0.03c-0.028,0-0.058-0.005-0.085,0.001
				c-0.217,0.044-0.329-0.05-0.366-0.262c-0.013-0.076-0.047-0.148-0.078-0.22c-0.159-0.377-0.541-0.529-0.915-0.363
				c-0.148,0.066-0.293,0.138-0.462,0.217c-0.175-0.184-0.353-0.359-0.514-0.547c-0.038-0.044-0.049-0.14-0.031-0.199
				c0.038-0.121,0.108-0.231,0.158-0.349c0.156-0.371,0.004-0.738-0.367-0.891c-0.157-0.064-0.38-0.084-0.455-0.201
				c-0.083-0.128-0.036-0.343-0.033-0.52c0.005-0.419-0.061-0.288,0.319-0.457c0.165-0.073,0.344-0.155,0.459-0.284
				c0.193-0.216,0.172-0.476,0.046-0.737c-0.191-0.396-0.184-0.399,0.117-0.7c0.311-0.311,0.311-0.311,0.718-0.126
				c0.45,0.204,0.815,0.05,0.984-0.412c0.149-0.409,0.149-0.409,0.583-0.409c0.445,0,0.445,0,0.597,0.417
				c0.165,0.451,0.537,0.608,0.97,0.409c0.413-0.19,0.412-0.189,0.735,0.131c0.096,0.095,0.2,0.182,0.306,0.278
				c-0.078,0.168-0.148,0.313-0.213,0.46c-0.173,0.388-0.021,0.77,0.373,0.923c0.158,0.062,0.32,0.112,0.48,0.168
				C55.267,168.638,55.267,168.937,55.267,169.236z M53.188,168.794c0.004-0.657-0.498-1.177-1.144-1.185
				c-0.646-0.008-1.177,0.505-1.186,1.146c-0.01,0.66,0.503,1.188,1.158,1.195C52.663,169.956,53.183,169.442,53.188,168.794z"/>
			<path fill-rule="evenodd" clip-rule="evenodd" fill="#646281" d="M46.558,173.718c-0.028-0.103-0.052-0.207-0.084-0.307
				c-0.057-0.176-0.187-0.217-0.321-0.094c-0.078,0.071-0.139,0.161-0.213,0.25c-0.165-0.093-0.298-0.169-0.448-0.255
				c0.029-0.11,0.065-0.216,0.085-0.325c0.031-0.168-0.065-0.269-0.225-0.244c-0.116,0.019-0.272,0.097-0.337,0.048
				c-0.11-0.081-0.161-0.24-0.263-0.412c0.084-0.064,0.172-0.117,0.241-0.187c0.138-0.141,0.104-0.274-0.078-0.338
				c-0.02-0.007-0.041-0.011-0.062-0.016c-0.232-0.062-0.348-0.275-0.246-0.5c0.025-0.056,0.135-0.082,0.21-0.104
				c0.304-0.086,0.346-0.218,0.111-0.433c-0.129-0.118-0.16-0.215-0.044-0.354c0.053-0.063,0.087-0.144,0.127-0.212
				c0.637,0.11,0.639,0.108,0.48-0.477c0.108-0.065,0.218-0.141,0.336-0.199c0.038-0.019,0.104-0.004,0.146,0.018
				c0.048,0.026,0.083,0.077,0.123,0.117c0.191,0.186,0.321,0.155,0.386-0.104c0.041-0.162,0.078-0.271,0.294-0.268
				c0.212,0.003,0.298,0.067,0.335,0.271c0.047,0.251,0.19,0.29,0.367,0.112c0.065-0.065,0.11-0.148,0.161-0.218
				c0.113,0.062,0.172,0.104,0.237,0.129c0.194,0.075,0.241,0.189,0.165,0.393c-0.09,0.241,0.028,0.348,0.282,0.283
				c0.076-0.019,0.149-0.043,0.248-0.073c0.081,0.137,0.161,0.274,0.272,0.462c-0.063,0.043-0.137,0.078-0.191,0.133
				c-0.216,0.212-0.179,0.337,0.12,0.417c0.068,0.018,0.136,0.035,0.209,0.054c0,0.164,0,0.318,0,0.489
				c-0.088,0.022-0.175,0.043-0.262,0.067c-0.227,0.063-0.268,0.201-0.106,0.366c0.064,0.066,0.138,0.123,0.21,0.186
				c-0.044,0.084-0.085,0.142-0.107,0.207c-0.075,0.212-0.205,0.246-0.409,0.168c-0.192-0.073-0.32,0.018-0.296,0.188
				c0.016,0.111,0.054,0.219,0.078,0.33c0.002,0.013-0.018,0.039-0.034,0.048c-0.115,0.069-0.232,0.136-0.408,0.256
				c-0.065-0.092-0.12-0.196-0.199-0.273c-0.132-0.127-0.269-0.088-0.324,0.088c-0.031,0.1-0.036,0.207-0.054,0.311
				C46.9,173.718,46.729,173.718,46.558,173.718z M47.637,171.553c0.008-0.48-0.357-0.864-0.828-0.869
				c-0.464-0.005-0.847,0.365-0.853,0.824c-0.006,0.479,0.358,0.862,0.829,0.875C47.239,172.394,47.629,172.014,47.637,171.553z"/>
		</g>
	</g>
	<g id="QtQBzc.tif">
		<g>
			<path fill-rule="evenodd" clip-rule="evenodd" fill="#646281" d="M40.096,126.721c-0.328,0-0.636,0.001-0.944,0
				c-0.197,0-0.394,0.006-0.59-0.003c-0.498-0.024-0.833-0.376-0.833-0.875c-0.001-2.424-0.001-4.848-0.001-7.273
				c0-2.144,0-4.287,0-6.43c0-0.592,0.35-0.941,0.942-0.941c3.584,0,7.168-0.001,10.752-0.001c0.707,0,1.025,0.319,1.026,1.03
				c0,0.435,0,0.87,0,1.341c0.138,0,0.26,0,0.384,0c0.358,0,0.716-0.002,1.075,0c0.555,0.004,0.91,0.355,0.91,0.911
				c0.001,2.854,0,5.707,0,8.559c0,0.577,0.008,1.153-0.003,1.729c-0.011,0.588-0.232,1.097-0.656,1.503
				c-0.772,0.739-1.55,1.471-2.333,2.197c-0.444,0.413-0.984,0.627-1.588,0.629c-2.382,0.008-4.765,0.004-7.146,0.003
				c-0.648,0-0.991-0.34-0.992-0.985C40.094,127.66,40.096,127.205,40.096,126.721z M48.523,128.449c0-0.774-0.004-1.51,0.001-2.248
				c0.004-0.665,0.508-1.171,1.174-1.176c0.716-0.005,1.433-0.001,2.15-0.001c0.344,0,0.344,0,0.344-0.347c0-3.309,0-6.618,0-9.927
				c0-0.562,0-0.558-0.561-0.558c-3.484,0.001-6.969,0.001-10.454,0c-0.413,0-0.457,0.044-0.457,0.458
				c0.001,1.497,0.001,2.993,0,4.489c0,2.979-0.001,5.957,0,8.937c0,0.343,0.064,0.402,0.408,0.402c2.347,0,4.693,0,7.04-0.002
				C48.281,128.477,48.391,128.46,48.523,128.449z M40.099,126.088c0-0.098,0-0.161,0-0.224c0-2.319-0.001-4.638-0.001-6.957
				c0-1.455-0.001-2.909,0-4.364c0.001-0.466,0.196-0.792,0.571-0.91c0.163-0.052,0.345-0.062,0.518-0.063
				c2.804-0.003,5.608-0.004,8.412,0.002c0.192,0,0.237-0.059,0.23-0.239c-0.014-0.365-0.004-0.731-0.003-1.096
				c0-0.359-0.058-0.42-0.411-0.42c-3.542,0-7.083,0-10.625,0c-0.402,0-0.443,0.042-0.443,0.448c0,3.83,0,7.66,0,11.489
				c0,0.675,0.001,1.349,0,2.024c-0.001,0.156,0.034,0.301,0.213,0.305C39.063,126.095,39.568,126.088,40.099,126.088z
				 M51.847,125.703c-0.009-0.019-0.017-0.038-0.027-0.057c-0.067,0-0.136,0-0.204,0c-0.618,0-1.234-0.001-1.852,0
				c-0.402,0-0.619,0.219-0.621,0.625c-0.001,0.568-0.001,1.136,0,1.705c0,0.059,0.009,0.118,0.021,0.249
				C50.087,127.356,50.967,126.53,51.847,125.703z"/>
			<path fill-rule="evenodd" clip-rule="evenodd" fill="#646281" d="M46.449,120.919c0.983,0,1.968,0,2.952,0
				c0.084,0,0.169,0,0.252,0.012c0.153,0.022,0.232,0.125,0.244,0.272c0.013,0.15-0.057,0.263-0.201,0.307
				c-0.085,0.027-0.18,0.03-0.27,0.03c-1.989,0.002-3.979,0.001-5.967,0.001c-0.048,0-0.099,0.003-0.146-0.005
				c-0.188-0.028-0.295-0.152-0.284-0.329c0.012-0.185,0.121-0.283,0.3-0.285c0.464-0.006,0.928-0.006,1.392-0.006
				c0.576-0.001,1.153,0,1.729,0C46.449,120.917,46.449,120.918,46.449,120.919z"/>
			<path fill-rule="evenodd" clip-rule="evenodd" fill="#646281" d="M46.471,119.373c-1.025,0-2.05,0.001-3.074-0.001
				c-0.265,0-0.39-0.123-0.366-0.343c0.02-0.181,0.144-0.276,0.381-0.277c0.597-0.003,1.194-0.001,1.789-0.001
				c1.411,0,2.822,0,4.232,0c0.05,0,0.1-0.002,0.147,0.002c0.2,0.022,0.323,0.146,0.32,0.323c-0.003,0.179-0.126,0.296-0.334,0.297
				c-0.561,0.003-1.124,0.002-1.685,0.002c-0.47,0-0.94,0-1.411,0C46.471,119.374,46.471,119.373,46.471,119.373z"/>
			<path fill-rule="evenodd" clip-rule="evenodd" fill="#646281" d="M46.45,117.216c-1.019,0-2.036-0.002-3.054,0.001
				c-0.181,0-0.321-0.046-0.361-0.243c-0.046-0.225,0.095-0.378,0.354-0.379c0.723-0.002,1.446,0,2.169,0c1.305,0,2.611,0,3.917,0
				c0.041,0,0.084-0.002,0.126,0.001c0.181,0.019,0.301,0.146,0.298,0.317c-0.002,0.17-0.126,0.296-0.312,0.299
				c-0.393,0.005-0.786,0.003-1.179,0.003C47.756,117.216,47.103,117.216,46.45,117.216z"/>
			<path fill-rule="evenodd" clip-rule="evenodd" fill="#646281" d="M45.056,123.081c0.555,0,1.109,0,1.664,0.001
				c0.244,0,0.366,0.104,0.367,0.305c0,0.195-0.129,0.315-0.364,0.315c-1.109,0.002-2.219,0.002-3.329,0
				c-0.232,0-0.369-0.123-0.369-0.313c0-0.199,0.125-0.306,0.367-0.307C43.946,123.079,44.5,123.081,45.056,123.081z"/>
		</g>
	</g>
	<g id="p8q8dx.tif">
		<g>
			<path fill="#FFFFFF" d="M182.915,93.009c-4.443,0-8.886,0-13.328,0c-0.014-0.01-0.025-0.023-0.041-0.029
				c-0.561-0.174-0.833-0.535-0.833-1.111c-0.001-0.594,0.016-1.189-0.004-1.783c-0.02-0.556,0.102-1.079,0.305-1.587
				c0.681-1.7,1.644-3.245,2.653-4.761c0.191-0.286,0.491-0.418,0.839-0.42c0.167,0,0.333,0,0.493,0
				c0.011-0.029,0.019-0.039,0.019-0.048c0.001-0.421,0.008-0.842,0.002-1.262c-0.003-0.24,0.094-0.424,0.27-0.571
				c0.3-0.251,0.656-0.316,1.028-0.257c0.593,0.091,0.855,0.41,0.855,1.002c0,0.374,0,0.748,0,1.125c0.728,0,1.436,0,2.157,0
				c0-0.435,0.004-0.861-0.002-1.286c-0.004-0.258,0.098-0.462,0.299-0.608c0.424-0.305,0.885-0.332,1.353-0.124
				c0.335,0.149,0.529,0.405,0.503,0.794c-0.009,0.129-0.002,0.258-0.002,0.387c0,0.278,0,0.556,0,0.847
				c0.176,0,0.333,0.003,0.489,0c0.403-0.009,0.715,0.158,0.943,0.485c0.205,0.294,0.412,0.587,0.608,0.888
				c0.726,1.107,1.403,2.241,1.881,3.481c0.205,0.529,0.376,1.069,0.383,1.644c0.008,0.712,0.006,1.424,0.001,2.136
				c-0.001,0.447-0.284,0.837-0.704,0.992C183.026,92.964,182.969,92.987,182.915,93.009z M176.238,85.469
				c-1.789,0.014-3.231,1.475-3.219,3.261c0.013,1.762,1.488,3.219,3.244,3.202c1.792-0.016,3.229-1.473,3.22-3.261
				C179.472,86.912,177.997,85.456,176.238,85.469z"/>
			<path fill-rule="evenodd" clip-rule="evenodd" fill="#FFFFFF" d="M167.635,82.442c0-0.55,0-1.099,0-1.649
				c0.095-0.448,0.29-0.843,0.623-1.164c0.689-0.665,1.429-1.259,2.287-1.696c1.349-0.687,2.805-0.939,4.295-1.035
				c1.276-0.083,2.554-0.065,3.827,0.094c0.908,0.113,1.796,0.31,2.649,0.648c1.107,0.439,2.042,1.136,2.892,1.953
				c0.262,0.252,0.468,0.543,0.574,0.896c0.031,0.101,0.056,0.203,0.083,0.303c0,0.55,0,1.1,0,1.649
				c-0.01,0.019-0.025,0.037-0.03,0.057c-0.154,0.538-0.512,0.814-1.066,0.816c-0.695,0.002-1.39,0.001-2.084,0.002
				c-0.614,0-1.086-0.468-1.092-1.082c-0.003-0.349-0.046-0.693-0.189-1.016c-0.42-0.94-1.139-1.545-2.102-1.88
				c-0.737-0.256-1.5-0.297-2.27-0.286c-0.722,0.011-1.436,0.088-2.098,0.394c-1.211,0.558-1.98,1.435-1.996,2.842
				c-0.004,0.556-0.483,1.021-1.042,1.024c-0.74,0.008-1.48,0.01-2.22-0.001c-0.416-0.006-0.723-0.215-0.919-0.579
				C167.707,82.641,167.675,82.54,167.635,82.442z"/>
			<path fill-rule="evenodd" clip-rule="evenodd" fill="#FFFFFF" d="M178.403,88.699c-0.004,1.223-0.963,2.159-2.209,2.155
				c-1.141-0.004-2.099-0.986-2.095-2.15c0.003-1.228,0.966-2.16,2.225-2.154C177.453,86.554,178.407,87.541,178.403,88.699z"/>
		</g>
	</g>
	<g id="yLdNiH.tif_1_">
		<g>
			<path fill-rule="evenodd" clip-rule="evenodd" fill="#FFFFFF" d="M452.02,93.855c-2.457,0-4.916,0.005-7.373-0.002
				c-1.02-0.003-1.895-0.704-2.133-1.693c-0.051-0.21-0.068-0.434-0.068-0.652c-0.004-3.997-0.003-7.992-0.003-11.988
				c0-1.297,0.979-2.279,2.273-2.279c4.883-0.001,9.764-0.001,14.646,0.001c1.276,0,2.255,0.995,2.255,2.276
				c-0.002,3.97-0.006,7.938,0.002,11.908c0.004,0.99-0.368,1.755-1.269,2.193c-0.294,0.144-0.65,0.223-0.978,0.225
				C456.921,93.864,454.471,93.855,452.02,93.855z M443.709,81.075c0,0.073,0,0.125,0,0.178c0,3.403-0.002,6.806-0.002,10.209
				c0,0.761,0.367,1.128,1.125,1.128c4.809,0,9.619,0,14.427,0c0.701,0,1.092-0.388,1.092-1.083c0-3.403,0-6.807,0-10.21
				c0-0.071,0-0.142,0-0.223C454.797,81.075,449.265,81.075,443.709,81.075z M453.94,78.508c-0.073,0-0.147-0.001-0.22,0
				c-0.287,0.002-0.416,0.128-0.419,0.412c-0.001,0.173-0.005,0.347,0.002,0.52c0.007,0.21,0.143,0.35,0.351,0.358
				c0.194,0.008,0.387,0.006,0.58,0c0.219-0.007,0.352-0.148,0.359-0.371c0.002-0.086,0.001-0.173,0.001-0.26
				C454.598,78.554,454.549,78.504,453.94,78.508z M456.513,78.506L456.513,78.506c-0.079,0-0.159-0.001-0.239,0
				c-0.283,0.007-0.409,0.131-0.414,0.42c-0.001,0.166-0.004,0.333,0.002,0.499c0.008,0.232,0.146,0.367,0.379,0.373
				c0.18,0.004,0.358,0.005,0.539,0c0.233-0.007,0.366-0.144,0.373-0.379c0.004-0.139,0-0.279,0-0.419
				c0.002-0.386-0.107-0.494-0.5-0.494C456.605,78.506,456.56,78.506,456.513,78.506z M459.062,79.8
				c0.598,0.003,0.65-0.052,0.648-0.645c0-0.006,0-0.013,0-0.02c-0.004-0.583-0.051-0.629-0.643-0.629c-0.6,0-0.65,0.05-0.65,0.644
				C458.418,79.751,458.461,79.796,459.062,79.8z"/>
			<path fill-rule="evenodd" clip-rule="evenodd" fill="#FFFFFF" d="M452.039,84.902c-1.52,0-3.038-0.001-4.555,0
				c-0.516,0-0.564-0.046-0.564-0.549c0-0.533,0-1.066,0.002-1.598c0-0.294,0.102-0.396,0.395-0.396c3.143-0.001,6.285-0.001,9.43,0
				c0.291,0,0.393,0.102,0.393,0.398c0.001,0.586,0.001,1.172,0,1.758c0,0.283-0.104,0.386-0.385,0.386
				C455.182,84.902,453.611,84.901,452.039,84.902z"/>
			<path fill-rule="evenodd" clip-rule="evenodd" fill="#FFFFFF" d="M446.92,88.406c0-0.819,0-1.638,0-2.458
				c0.002-0.292,0.104-0.393,0.399-0.394c1.011,0,2.022,0,3.036,0.001c0.281,0,0.387,0.104,0.387,0.383c0.002,1.658,0,3.316,0,4.974
				c0,0.28-0.104,0.383-0.387,0.383c-1.012,0.001-2.025,0.002-3.036,0.001c-0.295,0-0.399-0.106-0.399-0.395
				C446.92,90.071,446.92,89.239,446.92,88.406L446.92,88.406z"/>
			<path fill-rule="evenodd" clip-rule="evenodd" fill="#FFFFFF" d="M454.246,86.182c-0.857,0-1.715,0.003-2.574-0.004
				c-0.087-0.001-0.244-0.048-0.25-0.09c-0.021-0.158,0-0.323,0.023-0.482c0.004-0.024,0.104-0.048,0.158-0.048
				c1.775-0.002,3.553,0,5.328-0.003c0.158,0,0.217,0.07,0.208,0.219c-0.005,0.059-0.006,0.12,0,0.18
				c0.015,0.176-0.071,0.231-0.239,0.23c-0.885-0.004-1.77-0.002-2.654-0.002C454.246,86.181,454.246,86.181,454.246,86.182z"/>
			<path fill-rule="evenodd" clip-rule="evenodd" fill="#FFFFFF" d="M454.269,87.459c-0.867,0-1.733,0-2.599,0
				c-0.256,0-0.274-0.018-0.273-0.272c0-0.35,0.002-0.353,0.273-0.353c1.731-0.001,3.463-0.001,5.194,0
				c0.265,0,0.275,0.013,0.275,0.311c0,0.3-0.011,0.314-0.274,0.314c-0.865,0.001-1.73,0.001-2.597,0.001
				C454.269,87.46,454.269,87.46,454.269,87.459z"/>
			<path fill-rule="evenodd" clip-rule="evenodd" fill="#FFFFFF" d="M454.281,88.114c0.864,0,1.73,0,2.595,0
				c0.241,0,0.261,0.019,0.263,0.262c0,0.04-0.004,0.08,0.001,0.12c0.018,0.18-0.06,0.248-0.242,0.247
				c-0.731-0.007-1.464-0.002-2.194-0.002c-1.012,0-2.023,0-3.033,0c-0.26,0-0.273-0.014-0.273-0.293
				c-0.001-0.327,0.004-0.333,0.27-0.333C452.538,88.113,453.41,88.114,454.281,88.114z"/>
			<path fill-rule="evenodd" clip-rule="evenodd" fill="#FFFFFF" d="M454.244,90.018c-0.859,0-1.719,0-2.578-0.001
				c-0.252,0-0.27-0.019-0.271-0.276c0-0.04,0.003-0.08,0-0.12c-0.017-0.176,0.07-0.232,0.237-0.232
				c0.819,0.004,1.639,0.001,2.459,0.002c0.926,0,1.852,0,2.777,0c0.253,0,0.271,0.019,0.27,0.276c0,0.344-0.004,0.349-0.277,0.349
				C455.99,90.019,455.117,90.018,454.244,90.018z"/>
			<path fill-rule="evenodd" clip-rule="evenodd" fill="#FFFFFF" d="M454.269,90.671c0.864,0,1.729-0.003,2.595,0.004
				c0.087,0,0.244,0.048,0.25,0.089c0.021,0.158,0,0.323-0.025,0.483c-0.002,0.024-0.102,0.048-0.156,0.049
				c-1.777,0.001-3.553,0-5.329,0.002c-0.14,0-0.213-0.053-0.207-0.2c0.005-0.066,0.006-0.133,0-0.199
				c-0.015-0.176,0.07-0.231,0.239-0.23C452.512,90.675,453.39,90.672,454.269,90.671L454.269,90.671z"/>
		</g>
	</g>
	<g id="XiaFpi.tif">
		<g>
			<path fill="#FFFFFF" d="M45.667,73.469c0.531,0,1.062,0,1.593,0c0.066,0.028,0.13,0.067,0.2,0.081
				c2.463,0.49,4.051,1.948,4.792,4.338c0.099,0.32,0.155,0.653,0.231,0.98c0,0.413,0,0.826,0,1.239
				c-0.287,0.906-0.507,1.839-0.871,2.712c-1.21,2.904-2.98,5.475-4.85,7.982c-0.084,0.113-0.14,0.246-0.209,0.37
				c-0.059,0-0.118,0-0.177,0c-0.07-0.123-0.132-0.251-0.21-0.37c-1.238-1.88-2.521-3.731-3.703-5.646
				c-0.958-1.555-1.636-3.249-2.017-5.047c0-0.413,0-0.826,0-1.239c0.029-0.097,0.068-0.192,0.085-0.292
				c0.39-2.276,1.671-3.84,3.792-4.717C44.751,73.683,45.217,73.597,45.667,73.469z M46.466,76.55
				c-1.624-0.002-2.925,1.285-2.93,2.898c-0.004,1.63,1.326,2.964,2.942,2.951c1.604-0.014,2.911-1.335,2.909-2.941
				C49.386,77.844,48.088,76.552,46.466,76.55z"/>
		</g>
	</g>
</g>
<g id="Layer_4">
	
		<rect x="278.834" y="79.804" fill="none" stroke="#FFFFFF" stroke-linejoin="round" stroke-miterlimit="10" width="17" height="12.83"/>
</g>
</svg>
