<?xml version="1.0" encoding="utf-8"?>
<!-- Generator: Adobe Illustrator 16.0.4, SVG Export Plug-In . SVG Version: 6.00 Build 0)  -->
<!DOCTYPE svg PUBLIC "-//W3C//DTD SVG 1.1//EN" "http://www.w3.org/Graphics/SVG/1.1/DTD/svg11.dtd">
<svg version="1.1" id="Layer_1" xmlns="http://www.w3.org/2000/svg" xmlns:xlink="http://www.w3.org/1999/xlink" x="0px" y="0px"
	 width="400px" height="300px" viewBox="0 0 400 300" enable-background="new 0 0 400 300" xml:space="preserve">
<polygon fill="#636281" points="181.083,210.306 174.229,297.885 84.745,287.795 79.604,289.317 71.608,278.847 73.132,277.704 
	10.683,279.417 66.658,204.926 132.151,209.354 "/>
<polygon fill="#42415B" points="18.312,276.118 74.337,275.166 73.701,259.232 25.013,266.171 "/>
<path fill="#FFF9E8" d="M111.781,207.448l-36.174,68.921l90.625,10.662l11.424-80.393
	C177.656,206.639,113.767,203.664,111.781,207.448z"/>
<path fill="#D8D1BD" d="M17.538,276.369l53.309-72.728l40.743,1.284l-35.983,71.443c0,0-7.901-9.423-18.658-9.423
	C46.191,266.946,17.538,276.369,17.538,276.369z"/>
<path fill="#FFF9E8" d="M14.11,268.755l50.834-65.494c0,0,32.176-10.853,40.744-5.142c8.567,5.712,6.093,9.329,6.093,9.329
	l-36.174,68.921c0,0-16.375-16.563-32.177-15.039C27.627,262.852,14.11,268.755,14.11,268.755z"/>
<path fill="#D8D1BD" d="M75.607,276.369l5.521,9.33c0,0,0.714-0.572,4.712,0c3.998,0.57,85.533,9.138,85.533,9.138l-5.141-7.806
	L75.607,276.369z"/>
<polygon fill="#AFA99B" points="166.232,287.031 171.373,294.837 177.077,211.097 "/>
<path fill="#918D8D" d="M261.965,174.178c0,0,0.117,0.893-0.775,1.786c-0.894,0.891-35.698,13.993-35.698,13.993
	s-4.142,2.928,0.856,4.926c4.998,2,46.192,13.708,46.192,13.708s7.641,2.07,12.709-1.643c5.07-3.712,23.418-19.205,23.418-19.205
	s0-0.643,0-2.784C308.667,182.816,261.965,174.178,261.965,174.178"/>
<path fill="#636281" d="M371.995,192.885c0,3.784-3.067,6.853-6.854,6.853l-188.484-46.692c-3.786,0-6.854-3.069-6.854-6.854
	l5.997-134.368c0-3.785,3.069-6.854,6.854-6.854h201.766c3.784,0,6.854,3.068,6.854,6.854L371.995,192.885z"/>
<path fill="#B7E0D6" d="M365.959,160.442c0,3.027-2.882,5.483-6.436,5.483l-177.002-37.355c-3.553,0-6.436-2.455-6.436-5.483
	l5.632-107.495c0-3.028,2.881-5.483,6.437-5.483h189.469c3.557,0,6.438,2.456,6.438,5.483L365.959,160.442z"/>
<path fill="#FFF9E8" d="M356.738,150.885c0,2.684-2.551,4.859-5.696,4.859l-156.693-33.111c-3.146,0-5.698-2.176-5.698-4.859
	l4.986-95.283c0-2.684,2.55-4.861,5.699-4.861h167.729c3.148,0,5.7,2.177,5.7,4.861L356.738,150.885z"/>
<path fill="#C6C6C5" d="M193.637,21.824c0-2.684,2.55-4.86,5.699-4.86h167.729c3.148,0,5.7,2.176,5.7,4.86H193.637z"/>
<path fill="#F0555C" d="M276.16,81.252c0,1.202-1.144,2.178-2.553,2.178l-72.504-6.842c-1.408,0-2.553-0.975-2.553-2.177
	l2.235-42.699c0-1.202,1.143-2.178,2.553-2.178h75.163c1.411,0,2.554,0.976,2.554,2.178L276.16,81.252z"/>
<path fill="#F0555C" d="M352.124,153.5c0,1.203-1.142,2.179-2.553,2.179l-71.931-15.41c-1.409,0-1.982-0.975-1.982-2.177
	l3.377-33.56c0-1.203,1.143-2.178,2.554-2.178l72.879,4.569c1.413,0,2.554,0.976,2.554,2.177L352.124,153.5z"/>
<path opacity="0.8" fill="#F0555C" d="M363.094,49.475c0,0.404-1.143,0.731-2.553,0.731l-74.217-2.295
	c-1.407,0-2.551-0.327-2.551-0.73l1.662-14.324c0-0.403,1.143-0.731,2.554-0.731h75.164c1.411,0,2.554,0.328,2.554,0.731
	L363.094,49.475z"/>
<path opacity="0.8" fill="#F0555C" d="M271.715,122.54c0,0.404-1.143,0.73-2.554,0.73l-70.217-9.72c-1.41,0-2.553-0.328-2.553-0.731
	l1.664-13.753c0-0.403,1.142-0.73,2.554-0.73l70.021,6.854c1.412,0,2.554,0.327,2.554,0.731L271.715,122.54z"/>
<path opacity="0.5" fill="#F0555C" d="M361.313,54.501c0,1.094-1.423,1.981-3.18,1.981l-71.739-2.856c-1.756,0-3.18-0.887-3.18-1.98
	v-0.571c0-1.093,1.424-1.409,3.18-1.409l71.739,2.856C359.891,52.521,361.313,53.408,361.313,54.501L361.313,54.501z"/>
<path opacity="0.5" fill="#F0555C" d="M360.681,61.317c0,1.093-1.421,1.979-3.174,1.979l-71.595-2.855
	c-1.754,0-3.174-0.887-3.174-1.98V57.89c0-1.093,1.42-1.408,3.174-1.408l71.595,2.855C359.26,59.337,360.681,60.224,360.681,61.317
	L360.681,61.317z"/>
<path opacity="0.5" fill="#F0555C" d="M360.185,68.133c0,1.094-1.429,1.98-3.192,1.98l-72.012-2.856
	c-1.764,0-3.192-0.886-3.192-1.979v-0.571c0-1.093,1.429-1.409,3.192-1.409l72.012,2.856
	C358.756,66.153,360.185,67.04,360.185,68.133L360.185,68.133z"/>
<path opacity="0.5" fill="#F0555C" d="M359.857,74.949c0,1.093-1.433,1.98-3.201,1.98l-72.231-2.856c-1.768,0-3.2-0.887-3.2-1.979
	v-0.571c0-1.094,1.433-1.41,3.2-1.41l72.231,2.856C358.425,72.969,359.857,73.856,359.857,74.949L359.857,74.949z"/>
<path opacity="0.5" fill="#F0555C" d="M358.962,81.449c0,1.094-1.427,1.981-3.188,1.981l-71.892-2.856
	c-1.76,0-3.187-0.887-3.187-1.98v-0.571c0-1.094,1.427-1.41,3.187-1.41l71.892,2.856C357.535,79.469,358.962,80.355,358.962,81.449
	L358.962,81.449z"/>
<path opacity="0.5" fill="#F0555C" d="M358.838,88.115c0,1.093-1.438,1.98-3.214,1.98l-72.508-2.856
	c-1.775,0-3.214-0.887-3.214-1.979v-0.571c0-1.094,1.438-1.409,3.214-1.409l72.508,2.856
	C357.4,86.135,358.838,87.021,358.838,88.115L358.838,88.115z"/>
<path opacity="0.5" fill="#F0555C" d="M310.214,92.377c0,1.093-0.569,1.98-1.271,1.98l-28.648-1.143
	c-0.702,0-1.271-0.887-1.271-1.98v-0.571c0-1.094,0.568-1.41,1.271-1.41l28.648,1.143c0.701,0,1.271,0.315,1.271,1.409V92.377z"/>
<path opacity="0.5" fill="#F0555C" d="M224.835,121.11c0,1.093-0.532,1.979-1.188,1.979l-26.783-3.998
	c-0.656,0-1.187-0.886-1.187-1.98v-0.571c0-1.094,0.531-1.409,1.187-1.409l26.783,3.998c0.655,0,1.188,0.315,1.188,1.409V121.11z"/>
<path fill="#F0555C" d="M231.514,91.136c0,2.236-1.535,4.049-3.427,4.049l-26.299-2.285c-1.893,0-3.427-1.812-3.427-4.049v-5.094
	c0-2.237,1.535-4.05,3.427-4.05l26.299,2.285c1.892,0,3.427,1.813,3.427,4.05V91.136z"/>
<path fill="none" stroke="#F0555C" stroke-miterlimit="10" d="M271.019,94.858c0,2.236-1.535,4.049-3.427,4.049l-26.298-2.285
	c-1.893,0-3.427-1.813-3.427-4.049v-5.095c0-2.236,1.534-4.048,3.427-4.048l26.298,2.284c1.892,0,3.427,1.813,3.427,4.049V94.858z"
	/>
<path fill="none" stroke="#F0555C" stroke-miterlimit="10" d="M166.232,260.043c0,2.331-1.891,4.223-4.222,4.223l-64.016-2.855
	c-2.332,0-4.222-1.892-4.222-4.223l0,0c0-2.33,1.89-4.222,4.222-4.222l64.016,2.855c2.331,0,4.222,1.321,4.222,3.651V260.043z"/>
<path fill="#F0555C" d="M163.907,273.049c0,2.332-1.891,4.223-4.221,4.223l-64.016-2.855c-2.332,0-4.222-1.892-4.222-4.224l0,0
	c0-2.33,1.89-4.221,4.222-4.221l64.016,2.856c2.331,0,4.221,1.318,4.221,3.648V273.049z"/>
<path fill="#C6C6C5" d="M373.758,176.334l-1.763,16.551c0,3.784-3.067,6.853-6.854,6.853l-188.484-46.692
	c-3.786,0-6.854-3.069-6.854-6.854v-13.945"/>
<path fill="#F0555C" d="M174.992,173.805c-0.036,0.759-2.639,1.341-5.815,1.302l-38.666-0.473c-3.177-0.036-5.724-0.682-5.688-1.439
	l10.862-6.935c0.035-0.756,2.639-1.34,5.816-1.301l38.665,0.472c3.177,0.038,5.725,0.685,5.689,1.441L174.992,173.805z"/>
<path fill="none" stroke="#F0555C" stroke-miterlimit="10" d="M134.981,218.015c-0.019,0.758-1.364,1.341-3.006,1.302l-19.986-0.474
	c-1.642-0.036-2.958-0.683-2.94-1.439l5.615-6.935c0.018-0.756,1.364-1.34,3.006-1.3l19.986,0.472
	c1.642,0.037,2.958,0.684,2.941,1.441L134.981,218.015z"/>
<path fill="#F0555C" d="M165.41,219.943c-0.019,0.758-1.364,1.341-3.006,1.302l-19.986-0.472c-1.642-0.038-2.958-0.684-2.94-1.441
	l5.615-6.935c0.018-0.757,1.364-1.34,3.006-1.3l19.985,0.472c1.642,0.038,2.959,0.684,2.941,1.441L165.41,219.943z"/>
<polygon fill="#B8515A" points="185.855,166.872 185.855,174.52 174.167,182.137 173.423,174.715 "/>
<path fill="#CE5760" d="M124.823,173.194v7.647c0,0,0.037,1.447,6.191,1.447c6.156,0,37.238,0.454,37.238,0.454
	s5.09,0.075,5.915-0.606l-0.744-7.422c0,0-0.448,0.394-3.33,0.394c-2.883,0-40.339-0.496-40.339-0.496
	S124.94,174.493,124.823,173.194z"/>
<path fill="none" stroke="#F0555C" stroke-miterlimit="10" d="M168.088,245.385c-1.095,4.992-0.784,6.853-4.569,6.853l-61.896-2.856
	c-3.786,0-5.74-2.236-3.427-6.852l6.854-15.565c2.018-4.76,3.069-6.282,6.854-6.282l56.184,2.285c3.786,0,2.285,3.64,2.285,7.425
	L168.088,245.385z"/>
<polygon fill="#636281" stroke="#FEF8E9" stroke-width="2" stroke-miterlimit="10" points="193.055,188.571 169.075,170.033 
	174.707,199.815 182.204,195.223 189.701,207.975 193.09,205.981 185.558,193.166 "/>
</svg>
