<?xml version="1.0" encoding="utf-8"?>
<!-- Generator: Adobe Illustrator 16.0.4, SVG Export Plug-In . SVG Version: 6.00 Build 0)  -->
<!DOCTYPE svg PUBLIC "-//W3C//DTD SVG 1.1//EN" "http://www.w3.org/Graphics/SVG/1.1/DTD/svg11.dtd">
<svg version="1.1" id="Layer_1" xmlns="http://www.w3.org/2000/svg" xmlns:xlink="http://www.w3.org/1999/xlink" x="0px" y="0px"
	 width="800px" height="331.325px" viewBox="0 0 800 331.325" enable-background="new 0 0 800 331.325" xml:space="preserve">
<g>
	<path fill="#5BB647" d="M653.827,311.27H492.714c-1.938,0-3.753-0.96-4.844-2.562c-1.092-1.603-1.32-3.642-0.609-5.446
		l21.083-53.526v-46.304c-9.939,0.282-32.564,0.769-72.048,0.812v45.586l19.193,53.604c0.644,1.795,0.373,3.79-0.725,5.352
		c-1.1,1.559-2.887,2.485-4.792,2.485H306.713c-2.32,0-4.423-1.367-5.361-3.491c-0.938-2.122-0.536-4.599,1.025-6.313l46.583-51.204
		V77.805l-18.946-31.229c-1.098-1.811-1.134-4.074-0.094-5.918c1.038-1.843,2.99-2.983,5.105-2.983c0.002,0,0.004,0,0.006,0
		l84.792,0.08c1.969,0.002,3.806,0.993,4.889,2.638c1.082,1.645,1.268,3.724,0.491,5.534l-13.201,30.775v60.151
		c17.048-0.076,68.544-0.283,121.132-0.298V76.722l-13.188-30.225c-0.789-1.811-0.613-3.899,0.471-5.553
		c1.082-1.654,2.924-2.651,4.9-2.652l89.339-0.037h0.002c2.215,0,4.242,1.249,5.235,3.227c0.996,1.979,0.79,4.352-0.53,6.129
		l-22.655,30.493v171.048l16.696,32.401c0.938,1.816,0.859,3.99-0.206,5.734c-1.064,1.746-2.961,2.812-5.005,2.812h-83.857
		c-1.954,0-3.78-0.973-4.867-2.598c-1.09-1.621-1.298-3.68-0.556-5.487l13.249-32.324l0.021-68.333
		c-14.723,0.082-56.38,0.278-118.469,0.291l-0.168,68.052l13.142,32.125c0.739,1.809,0.53,3.868-0.562,5.49
		c-1.09,1.618-2.912,2.589-4.862,2.589c-0.004,0-0.008,0-0.012,0l-75.591-0.148c-3.237-0.006-5.857-2.636-5.851-5.872
		c0.007-3.234,2.629-5.851,5.862-5.851c0.004,0,0.006,0,0.01,0l66.842,0.132l-10.27-25.1c-0.289-0.707-0.439-1.467-0.436-2.233
		l0.186-75.06c0.008-3.23,2.631-5.846,5.862-5.846c81.646,0,129.662-0.324,130.137-0.328c1.502,0.016,3.062,0.603,4.171,1.703
		c1.107,1.102,1.73,2.598,1.73,4.16l-0.022,75.387c0,0.761-0.149,1.518-0.438,2.221l-10.375,25.308h65.509l-12.943-25.119
		c-0.429-0.829-0.651-1.749-0.651-2.684V76.167c0-1.26,0.405-2.485,1.156-3.496l16.856-22.689l-68.728,0.029l10.099,23.144
		c0.321,0.739,0.488,1.537,0.488,2.344v66.916c0,3.237-2.623,5.861-5.861,5.861c-65.969,0-132.164,0.322-132.825,0.326
		c-1.475-0.005-3.059-0.607-4.164-1.707c-1.105-1.1-1.727-2.595-1.727-4.155V75.498c0-0.794,0.162-1.581,0.475-2.311l10.173-23.717
		l-65.485-0.062l14.389,23.719c0.556,0.917,0.85,1.968,0.85,3.041v176.361c0,1.46-0.544,2.866-1.526,3.944l-39.188,43.075h121.678
		l-16.73-46.724c-0.228-0.636-0.344-1.303-0.344-1.977v-52.461c0-3.238,2.624-5.861,5.861-5.861c59.807,0,83.284-1,83.514-1.01
		c1.59-0.084,3.153,0.516,4.31,1.622c1.154,1.104,1.809,2.636,1.809,4.233v53.477c0,0.734-0.14,1.463-0.408,2.148l-18.335,46.552
		h141.18l-31.759-44.914c-0.701-0.991-1.076-2.173-1.076-3.386V75.497c0-1.23,0.387-2.429,1.107-3.427l31.047-43.089l-138.414-0.006
		l18.174,44.299c0.29,0.706,0.438,1.461,0.438,2.225v45.388c0,3.237-2.624,5.861-5.862,5.861c-53.688,0-85.249,0.854-85.562,0.862
		c-1.646,0.027-3.115-0.555-4.248-1.658c-1.136-1.104-1.775-2.618-1.775-4.201V75.499c0-0.763,0.148-1.519,0.439-2.225
		l18.173-44.293h-133.88l24.885,43.611c0.505,0.885,0.771,1.886,0.771,2.905v176.492c0,2.519-1.611,4.757-3.999,5.558
		c-2.777,0.93-69.93,22.545-236.479,0.578c-25.603-3.379-38.649,2.296-42.324,8.731c-1.933,3.384-1.402,7.419,1.458,11.071
		c5.223,6.672,18.574,12.401,39.015,6.606c77.815-22.072,98.041-3.739,100.091-1.573l-8.509,8.062l0.155,0.156
		c-0.171-0.156-18.035-15.36-88.538,4.632c-16.269,4.614-39.506,4.593-51.445-10.659c-5.856-7.48-6.756-16.494-2.405-24.11
		c3.459-6.06,15.653-19.601,54.035-14.541c141.625,18.684,210.661,5.185,227.223,1.034V77.051l-29.116-51.027
		c-1.035-1.814-1.027-4.042,0.022-5.849s2.979-2.917,5.067-2.917h152.714c1.954,0,3.78,0.974,4.867,2.596
		c1.09,1.623,1.298,3.682,0.556,5.49l-21.053,51.311v39.097c11.032-0.233,36.807-0.68,74.002-0.723V76.654l-21.053-51.315
		c-0.742-1.808-0.533-3.867,0.556-5.489c1.088-1.623,2.913-2.597,4.867-2.597l158.602,0.006c2.201,0,4.215,1.232,5.217,3.19
		c1.004,1.958,0.824,4.313-0.461,6.098l-36.635,50.842v171.998l37.222,52.638c1.266,1.79,1.427,4.136,0.421,6.079
		C658.025,310.048,656.018,311.27,653.827,311.27z"/>
</g>
<path d="M655.691,87.994l-0.262,116.195c-0.021,10.755,4.761,14.634,12.382,14.651c7.614,0.021,12.404-3.838,12.428-14.593
	l0.263-116.199l22.641,0.049l-0.254,114.688c-0.062,24.102-12.271,37.838-35.78,37.788c-23.518-0.049-35.675-13.846-35.615-37.949
	l0.258-114.679L655.691,87.994z"/>
<path d="M791.02,122.937l-0.011,5.378c-0.036,15.498-4.847,25.387-15.527,30.315c12.832,4.972,17.815,16.388,17.773,32.315
	l-0.016,12.257c-0.058,23.242-12.497,35.7-36.441,35.646l-37.657-0.088l0.336-150.624l36.132,0.085
	C780.421,88.272,791.076,99.698,791.02,122.937 M743.385,109.709l-0.092,39.803l9.346,0.022c8.936,0.029,14.384-3.838,14.412-15.888
	l0.018-8.392c0.024-10.758-3.671-15.497-12.149-15.52L743.385,109.709z M743.243,171.029l-0.099,46.27l13.697,0.033
	c8.062,0.017,12.423-3.627,12.457-14.829l0.024-13.126c0.028-13.978-4.535-18.302-15.42-18.324L743.243,171.029z"/>
<path d="M99.38,230.714c-4.473,2.005-16.891,6.957-22.581,8.663c-5.691,1.707-11.521,2.551-17.475,2.529
	c-4.063,0-7.891-0.549-11.462-1.631c-3.6-1.078-6.753-2.788-9.442-5.178c-2.708-2.361-4.836-5.482-6.387-9.361
	c-1.545-3.855-2.316-8.508-2.301-13.941l0.133-58.846l-25.728-0.055l0.062-25.972l25.721,0.061L30,91.125l32.506,0.072l-0.077,35.86
	l21.727,0.045l-0.053,25.964l-21.738-0.043l-0.102,47.022c-0.014,3.739,0.898,6.418,2.721,8.066c1.831,1.646,4.094,2.48,6.806,2.484
	c2.292,0.011,4.736-0.429,7.312-1.261c2.571-0.857,4.874-1.794,6.915-2.792L99.38,230.714z"/>
<path d="M147.475,242.12c-8.942-0.031-16.96-1.504-24.052-4.425c-7.111-2.936-13.126-6.899-18.058-11.929
	c-4.943-5.021-8.684-10.806-11.227-17.396c-2.572-6.565-3.833-13.447-3.814-20.629c0.016-7.718,1.305-14.99,3.907-21.825
	c2.572-6.823,6.316-12.815,11.195-17.944c4.891-5.14,10.9-9.191,18.018-12.15c7.104-2.958,15.207-4.442,24.278-4.424
	c9.073,0.02,17.126,1.543,24.152,4.537c7.047,2.987,12.988,7.03,17.86,12.127c4.861,5.08,8.54,10.947,11.04,17.586
	c2.482,6.654,3.727,13.63,3.71,20.938c-0.004,1.896-0.083,3.765-0.225,5.573c-0.145,1.831-0.349,3.435-0.617,4.777l-78.811-0.166
	c0.523,7.175,3.111,12.633,7.772,16.369c4.673,3.741,9.976,5.596,15.946,5.612c4.729,0.004,9.308-1.128,13.727-3.415
	c4.39-2.309,7.34-5.401,8.846-9.33l27.611,7.781c-4.229,8.39-10.75,15.212-19.559,20.473
	C170.368,239.518,159.795,242.139,147.475,242.12 M170.168,176.757c-0.664-6.78-3.094-12.123-7.277-16.069
	c-4.192-3.94-9.401-5.914-15.624-5.918c-6.371-0.016-11.621,1.978-15.764,5.954c-4.144,3.979-6.542,9.288-7.225,15.933
	L170.168,176.757z"/>
<path d="M208.941,186.793c0.016-7.312,1.323-14.31,3.906-21.011c2.592-6.697,6.327-12.583,11.206-17.645
	c4.889-5.067,10.897-9.091,18.008-12.057c7.121-2.958,15.203-4.424,24.295-4.405c12.312,0.022,22.66,2.652,31.047,7.893
	c8.381,5.228,14.67,12.044,18.846,20.442l-31.71,9.48c-4.176-6.775-10.327-10.174-18.458-10.193
	c-6.765-0.01-12.435,2.473-16.974,7.48c-4.549,4.989-6.841,11.69-6.868,20.083c-0.005,4.213,0.598,8.036,1.814,11.482
	c1.213,3.469,2.902,6.399,5.071,8.853c2.145,2.442,4.678,4.345,7.598,5.701c2.907,1.368,5.985,2.052,9.236,2.056
	c4.059,0.008,7.787-0.957,11.171-2.922c3.381-1.951,5.913-4.483,7.54-7.601l31.656,9.82c-3.931,8.258-10.217,15.016-18.828,20.272
	c-8.6,5.261-19.073,7.883-31.386,7.858c-8.947-0.022-16.964-1.569-24.071-4.628c-7.1-3.067-13.11-7.149-18.052-12.224
	c-4.937-5.106-8.668-10.994-11.235-17.708C210.199,201.122,208.927,194.108,208.941,186.793"/>
<path d="M82.209,107.063c0.809,0.004,1.491-0.144,2.047-0.482c0.565-0.317,1.019-0.735,1.356-1.283
	c0.351-0.537,0.589-1.147,0.751-1.841c0.141-0.691,0.208-1.408,0.208-2.132l0.025-10.074l4.746,0.012l-0.017,10.065
	c-0.002,1.374-0.194,2.661-0.561,3.842c-0.359,1.183-0.909,2.218-1.643,3.115c-0.743,0.883-1.69,1.583-2.842,2.081
	c-1.149,0.505-2.505,0.763-4.08,0.763c-1.65-0.008-3.025-0.285-4.184-0.818c-1.15-0.545-2.095-1.258-2.813-2.159
	c-0.723-0.906-1.25-1.937-1.579-3.129c-0.339-1.186-0.499-2.426-0.497-3.73l0.026-10.069l4.727,0.012l-0.021,10.07
	c-0.002,0.76,0.072,1.492,0.225,2.173c0.162,0.684,0.409,1.297,0.738,1.836c0.361,0.532,0.794,0.968,1.341,1.272
	C80.727,106.913,81.4,107.063,82.209,107.063"/>
<polygon points="124.158,91.327 124.117,111.051 119.385,111.041 119.406,102.958 111.23,102.941 111.208,111.026 106.48,111.012 
	106.518,91.292 111.25,91.304 111.238,98.938 119.412,98.966 119.427,91.32 "/>
<polygon points="174.041,111.162 174.069,99.366 169.604,107.937 167.055,107.928 162.633,99.343 162.606,111.134 157.873,111.126 
	157.916,91.406 163.051,91.418 168.336,101.731 173.703,91.443 178.816,91.452 178.772,111.171 "/>
<path d="M192.229,111.203l7.916-19.697l3.835,0.008l7.816,19.733l-5.018-0.009l-1.573-4.412l-6.391-0.014l-1.569,4.403
	L192.229,111.203z M197.717,86.14l8.766,0.017l-0.006,2.7l-8.769-0.021L197.717,86.14z M202.046,96.343l-2.468,7.319l4.823,0.013
	L202.046,96.343z"/>
<polygon points="229.988,100.023 229.967,111.286 225.239,111.276 225.279,91.566 228.975,91.571 238.497,103.168 238.52,91.594 
	243.259,91.605 243.213,111.313 239.413,111.309 "/>
<path d="M267.284,111.541c-1.451,0.002-2.774-0.287-3.964-0.87c-1.198-0.575-2.221-1.332-3.069-2.27
	c-0.867-0.945-1.524-2.01-1.996-3.207c-0.469-1.209-0.693-2.451-0.693-3.732c0-1.294,0.254-2.541,0.74-3.75
	c0.503-1.2,1.177-2.257,2.061-3.187c0.88-0.899,1.927-1.623,3.109-2.174c1.208-0.549,2.53-0.813,3.951-0.809
	c1.477,0.002,2.798,0.294,3.983,0.876c1.193,0.567,2.222,1.337,3.07,2.261c0.85,0.961,1.514,2.041,1.973,3.241
	c0.466,1.208,0.684,2.43,0.684,3.674c-0.005,1.29-0.24,2.54-0.749,3.74c-0.486,1.214-1.171,2.266-2.028,3.18
	c-0.877,0.914-1.924,1.652-3.122,2.201C270.027,111.27,268.723,111.546,267.284,111.541 M262.386,101.532
	c-0.004,0.752,0.094,1.489,0.326,2.209c0.215,0.717,0.529,1.348,0.941,1.899c0.418,0.566,0.942,0.999,1.562,1.348
	c0.631,0.33,1.341,0.501,2.138,0.498c0.838,0.004,1.566-0.164,2.167-0.518c0.626-0.355,1.135-0.814,1.553-1.383
	c0.426-0.556,0.719-1.201,0.918-1.9c0.221-0.715,0.33-1.448,0.33-2.192c0.003-0.752-0.117-1.492-0.335-2.204
	c-0.216-0.721-0.537-1.341-0.951-1.892c-0.426-0.541-0.948-0.984-1.558-1.309c-0.612-0.318-1.333-0.493-2.12-0.487
	c-0.824-0.008-1.542,0.165-2.166,0.512c-0.616,0.328-1.128,0.786-1.552,1.335c-0.408,0.561-0.716,1.184-0.944,1.904
	C262.492,100.071,262.382,100.784,262.386,101.532"/>
<path d="M288.633,111.419l7.927-19.695l3.843,0.01l7.812,19.726l-5.028-0.008l-1.586-4.413l-6.366-0.016l-1.577,4.408
	L288.633,111.419z M298.441,96.559l-2.452,7.317l4.811,0.012L298.441,96.559z"/>
<path fill="#5BB647" d="M189.15,288.801c4.457-6.673,13.376-8.521,19.921-4.134l-16.141,24.118
	C186.389,304.413,184.691,295.464,189.15,288.801"/>
<polygon fill="#5BB647" points="204.007,294.397 210.513,298.739 216.58,289.678 210.068,285.333 "/>
<rect x="196.097" y="302.259" transform="matrix(-0.8311 -0.5562 0.5562 -0.8311 195.2531 674.1343)" fill="#5BB647" width="7.821" height="10.309"/>
</svg>
