<?xml version="1.0" encoding="utf-8"?>
<!-- Generator: Adobe Illustrator 16.0.4, SVG Export Plug-In . SVG Version: 6.00 Build 0)  -->
<!DOCTYPE svg PUBLIC "-//W3C//DTD SVG 1.1//EN" "http://www.w3.org/Graphics/SVG/1.1/DTD/svg11.dtd">
<svg version="1.1" id="Layer_1" xmlns="http://www.w3.org/2000/svg" xmlns:xlink="http://www.w3.org/1999/xlink" x="0px" y="0px"
	 width="556.625px" height="691.253px" viewBox="0 0 556.625 691.253" enable-background="new 0 0 556.625 691.253"
	 xml:space="preserve">
<g id="Layer_1_1_">
	<g>
		<path fill="#5BB647" d="M442.133,198.134H341.106c-1.215,0-2.354-0.602-3.037-1.607c-0.686-1.005-0.828-2.285-0.381-3.416
			l13.219-33.564v-26.628c-8.104,0.166-28.703,0.523-56.205,0.553v26.135l12.037,33.612c0.402,1.126,0.232,2.376-0.455,3.356
			c-0.688,0.977-1.811,1.559-3.006,1.559h-89.833c-1.455,0-2.773-0.859-3.361-2.189c-0.588-1.331-0.336-2.884,0.643-3.96
			l29.21-32.107V51.736l-11.879-19.582c-0.689-1.136-0.711-2.554-0.059-3.711c0.65-1.156,1.875-1.871,3.202-1.871
			c0.001,0,0.002,0,0.003,0l53.169,0.051c1.234,0.001,2.388,0.623,3.066,1.654c0.68,1.031,0.795,2.335,0.309,3.47l-8.278,19.297
			v37.722c12.247-0.044,52.687-0.18,86.983-0.189v-37.52l-8.27-18.952c-0.496-1.136-0.387-2.446,0.293-3.482
			c0.68-1.038,1.836-1.663,3.074-1.663l56.021-0.023h0.002c1.389,0,2.658,0.783,3.283,2.024c0.623,1.241,0.494,2.729-0.334,3.843
			l-14.207,19.121v107.258l10.471,20.318c0.588,1.139,0.537,2.501-0.129,3.596c-0.668,1.094-1.857,1.762-3.139,1.762h-52.584
			c-1.227,0-2.371-0.609-3.053-1.628c-0.684-1.017-0.814-2.307-0.348-3.441l8.307-20.268l0.016-38.901
			c-11.297,0.242-46.512,0.924-85.312,0.965l-0.106,37.943l8.24,20.142c0.465,1.134,0.333,2.428-0.353,3.444
			c-0.684,1.014-1.826,1.623-3.049,1.623c-0.003,0-0.006,0-0.008,0l-47.4-0.094c-2.03-0.003-3.673-1.651-3.669-3.681
			c0.005-2.029,1.649-3.669,3.675-3.669c0.003,0,0.005,0,0.008,0l41.913,0.083l-6.438-15.738c-0.182-0.446-0.275-0.921-0.273-1.403
			l0.121-42.333c0.006-2.026,1.65-3.664,3.675-3.664c48.333,0,92.128-1.038,92.566-1.049c1.008-0.056,1.949,0.353,2.656,1.044
			c0.709,0.693,1.105,1.641,1.105,2.631l-0.016,43.383c0,0.479-0.094,0.951-0.275,1.393l-6.504,15.87h41.076l-8.115-15.75
			c-0.268-0.521-0.408-1.097-0.408-1.684V50.708c0-0.789,0.254-1.558,0.727-2.192l10.568-14.227l-43.096,0.018l6.332,14.512
			c0.201,0.464,0.305,0.964,0.305,1.47V92.25c0,2.03-1.645,3.675-3.676,3.675c-41.367,0-93.793,0.202-94.317,0.204
			c-0.932-0.033-1.916-0.382-2.608-1.071s-1.082-1.627-1.082-2.604V50.29c0-0.498,0.101-0.991,0.299-1.449l6.378-14.873
			l-41.062-0.039l9.021,14.873c0.349,0.575,0.533,1.234,0.533,1.906v110.59c0,0.915-0.342,1.796-0.957,2.472l-24.574,27.012h76.3
			l-10.491-29.298c-0.143-0.399-0.216-0.818-0.216-1.239v-30.447c0-2.031,1.646-3.675,3.676-3.675
			c37.576,0,63.211-0.63,63.465-0.636c0.979-0.051,1.947,0.351,2.656,1.043c0.711,0.691,1.109,1.642,1.109,2.631v31.084
			c0,0.46-0.088,0.917-0.256,1.346l-11.498,29.191h88.529l-19.916-28.165c-0.438-0.62-0.674-1.363-0.674-2.121V50.289
			c0-0.771,0.242-1.523,0.693-2.148l19.471-27.02l-86.795-0.003l11.395,27.778c0.182,0.442,0.275,0.917,0.275,1.395v24.786
			c0,2.03-1.645,3.675-3.676,3.675c-33.646,0-64.408,0.536-64.717,0.541c-0.977,0.037-1.936-0.362-2.639-1.053
			c-0.703-0.691-1.102-1.636-1.102-2.622V50.29c0-0.479,0.094-0.953,0.275-1.395l11.396-27.775h-83.952l15.604,27.347
			c0.317,0.555,0.483,1.183,0.483,1.821V160.96c0,1.579-1.009,2.981-2.506,3.484c-1.742,0.583-43.85,14.136-148.287,0.362
			c-16.055-2.118-24.236,1.441-26.541,5.476c-1.212,2.123-0.879,4.653,0.914,6.943c3.275,4.184,11.647,7.777,24.466,4.143
			c48.794-13.841,61.477-2.345,62.762-0.987l-5.335,5.056l0.097,0.098c-0.107-0.098-11.309-9.633-55.519,2.905
			c-10.202,2.894-24.773,2.879-32.259-6.684c-3.672-4.691-4.236-10.343-1.509-15.119c2.17-3.801,9.816-12.291,33.884-9.118
			c88.808,11.716,132.098,3.25,142.483,0.647V51.264L205.55,19.267c-0.649-1.138-0.645-2.535,0.014-3.668
			c0.658-1.132,1.869-1.83,3.178-1.83h95.76c1.227,0,2.371,0.611,3.053,1.628c0.684,1.018,0.812,2.309,0.348,3.442l-13.201,32.175
			v20.868c8.801-0.135,31.994-0.452,57.432-0.48V51.015L338.93,18.837c-0.465-1.134-0.334-2.425,0.35-3.443
			c0.682-1.017,1.826-1.628,3.051-1.628l99.455,0.003c1.379,0,2.643,0.772,3.27,2c0.631,1.229,0.52,2.705-0.289,3.824
			l-22.971,31.881v107.853l23.34,33.007c0.793,1.123,0.896,2.593,0.264,3.812C444.766,197.369,443.506,198.134,442.133,198.134z"/>
	</g>
	<path d="M443.303,58.125l-0.164,72.861c-0.014,6.745,2.984,9.177,7.764,9.187c4.773,0.013,7.777-2.405,7.793-9.15l0.166-72.863
		l14.195,0.031l-0.158,71.917c-0.039,15.113-7.695,23.728-22.438,23.695c-14.746-0.031-22.369-8.682-22.332-23.796l0.16-71.911
		L443.303,58.125z"/>
	<path d="M528.163,80.037l-0.006,3.373c-0.023,9.718-3.039,15.919-9.736,19.01c8.045,3.117,11.17,10.275,11.145,20.263l-0.01,7.686
		c-0.035,14.576-7.836,22.387-22.852,22.353l-23.613-0.055l0.211-94.451l22.658,0.053C521.516,58.3,528.198,65.465,528.163,80.037
		 M498.293,71.742l-0.059,24.959l5.859,0.014c5.604,0.018,9.02-2.407,9.037-9.963l0.01-5.263c0.018-6.746-2.301-9.718-7.617-9.732
		L498.293,71.742z M498.204,110.194l-0.062,29.014l8.59,0.021c5.057,0.01,7.791-2.275,7.811-9.299l0.016-8.231
		c0.02-8.765-2.844-11.476-9.668-11.49L498.204,110.194z"/>
	<path d="M83.435,147.62c-2.805,1.258-10.592,4.363-14.16,5.432c-3.568,1.072-7.225,1.6-10.958,1.587
		c-2.548,0-4.948-0.345-7.188-1.023c-2.257-0.676-4.234-1.748-5.921-3.246c-1.698-1.482-3.033-3.438-4.005-5.871
		c-0.969-2.419-1.452-5.335-1.442-8.743l0.083-36.9l-16.133-0.034l0.039-16.286l16.129,0.039l0.05-22.485l20.384,0.045
		l-0.048,22.486l13.625,0.028l-0.034,16.282l-13.631-0.028l-0.064,29.487c-0.009,2.344,0.563,4.024,1.706,5.058
		c1.148,1.033,2.567,1.555,4.268,1.558c1.437,0.007,2.969-0.27,4.585-0.791c1.612-0.537,3.057-1.125,4.336-1.75L83.435,147.62z"/>
	<path d="M113.593,154.772c-5.607-0.019-10.635-0.943-15.082-2.776c-4.458-1.84-8.23-4.324-11.323-7.479
		c-3.1-3.148-5.446-6.776-7.04-10.909c-1.613-4.117-2.404-8.432-2.392-12.935c0.01-4.839,0.818-9.4,2.45-13.685
		c1.612-4.279,3.96-8.037,7.021-11.253c3.066-3.223,6.834-5.763,11.298-7.619c4.455-1.855,9.536-2.786,15.223-2.774
		c5.689,0.011,10.74,0.967,15.145,2.845c4.419,1.873,8.145,4.408,11.2,7.604c3.048,3.186,5.354,6.865,6.922,11.028
		c1.557,4.173,2.337,8.547,2.327,13.129c-0.002,1.189-0.052,2.36-0.141,3.495c-0.091,1.149-0.219,2.154-0.387,2.996l-49.42-0.104
		c0.328,4.498,1.951,7.921,4.874,10.264c2.931,2.346,6.255,3.509,10,3.52c2.965,0.001,5.837-0.708,8.607-2.142
		c2.753-1.448,4.603-3.387,5.547-5.852l17.313,4.88c-2.652,5.26-6.74,9.539-12.265,12.837
		C127.948,153.14,121.318,154.784,113.593,154.772 M127.823,113.786c-0.416-4.252-1.94-7.603-4.563-10.077
		c-2.629-2.471-5.896-3.708-9.797-3.711c-3.995-0.009-7.287,1.241-9.885,3.734c-2.599,2.496-4.102,5.824-4.53,9.991L127.823,113.786
		z"/>
	<path d="M152.136,120.079c0.011-4.585,0.83-8.974,2.45-13.174c1.625-4.2,3.967-7.891,7.026-11.065
		c3.065-3.177,6.833-5.7,11.292-7.561c4.464-1.855,9.534-2.774,15.234-2.762c7.721,0.014,14.21,1.663,19.469,4.949
		c5.255,3.279,9.199,7.552,11.817,12.819l-19.885,5.945c-2.618-4.249-6.476-6.38-11.573-6.393
		c-4.243-0.005-7.798,1.552-10.644,4.691c-2.854,3.128-4.291,7.331-4.307,12.593c-0.004,2.642,0.375,5.04,1.138,7.2
		c0.76,2.175,1.819,4.013,3.18,5.551c1.344,1.532,2.933,2.724,4.764,3.575c1.823,0.859,3.753,1.286,5.792,1.289
		c2.545,0.004,4.883-0.599,7.005-1.832c2.12-1.224,3.708-2.812,4.728-4.767l19.85,6.158c-2.464,5.179-6.406,9.415-11.806,12.713
		c-5.392,3.299-11.96,4.942-19.681,4.926c-5.61-0.013-10.637-0.984-15.094-2.9c-4.452-1.924-8.221-4.483-11.319-7.666
		c-3.096-3.201-5.436-6.894-7.046-11.104C152.925,129.064,152.127,124.666,152.136,120.079"/>
	<path d="M72.667,70.083c0.508,0.002,0.936-0.091,1.284-0.302c0.355-0.199,0.639-0.461,0.851-0.805
		c0.22-0.336,0.37-0.719,0.471-1.154c0.088-0.433,0.13-0.883,0.13-1.337l0.016-6.317l2.976,0.008l-0.011,6.312
		c-0.001,0.861-0.122,1.668-0.351,2.41c-0.226,0.741-0.57,1.391-1.03,1.953c-0.466,0.554-1.061,0.992-1.782,1.305
		c-0.72,0.316-1.571,0.479-2.558,0.479c-1.035-0.006-1.897-0.179-2.624-0.513c-0.721-0.342-1.314-0.789-1.764-1.354
		c-0.453-0.568-0.783-1.214-0.99-1.962c-0.212-0.744-0.313-1.521-0.312-2.339l0.017-6.313l2.964,0.008l-0.013,6.313
		c-0.001,0.477,0.045,0.936,0.141,1.364c0.102,0.428,0.257,0.813,0.463,1.151c0.227,0.333,0.499,0.606,0.842,0.797
		C71.738,69.989,72.16,70.083,72.667,70.083"/>
	<polygon points="98.972,60.215 98.946,72.584 95.979,72.578 95.992,67.509 90.866,67.499 90.852,72.568 87.887,72.56 87.91,60.193 
		90.878,60.201 90.871,64.989 95.996,65.006 96.006,60.211 	"/>
	<polygon points="130.251,72.653 130.269,65.256 127.47,70.631 125.872,70.626 123.098,65.242 123.082,72.636 120.113,72.631 
		120.141,60.265 123.36,60.273 126.674,66.74 130.04,60.288 133.247,60.293 133.218,72.66 	"/>
	<path d="M141.657,72.679l4.964-12.351l2.405,0.004l4.901,12.374l-3.146-0.005l-0.986-2.767l-4.007-0.009l-0.984,2.762
		L141.657,72.679z M145.098,56.963l5.497,0.011l-0.003,1.693l-5.499-0.013L145.098,56.963z M147.813,63.361l-1.548,4.589
		l3.024,0.008L147.813,63.361z"/>
	<polygon points="165.334,65.668 165.321,72.731 162.356,72.725 162.382,60.366 164.699,60.369 170.669,67.641 170.684,60.383 
		173.656,60.39 173.627,72.748 171.244,72.745 	"/>
	<path d="M188.721,72.891c-0.91,0.001-1.74-0.18-2.486-0.545c-0.751-0.36-1.393-0.835-1.924-1.423
		c-0.544-0.593-0.957-1.261-1.252-2.011c-0.294-0.758-0.435-1.537-0.435-2.34c0-0.812,0.16-1.593,0.464-2.351
		c0.316-0.753,0.738-1.416,1.293-1.999c0.551-0.564,1.208-1.018,1.949-1.364c0.758-0.344,1.586-0.51,2.478-0.507
		c0.925,0.001,1.754,0.184,2.498,0.549c0.749,0.356,1.393,0.838,1.925,1.418c0.533,0.603,0.95,1.279,1.237,2.032
		c0.292,0.758,0.429,1.523,0.429,2.303c-0.004,0.809-0.151,1.593-0.469,2.346c-0.305,0.761-0.734,1.42-1.272,1.994
		c-0.55,0.573-1.206,1.036-1.958,1.38C190.441,72.721,189.623,72.895,188.721,72.891 M185.65,66.615
		c-0.003,0.472,0.059,0.934,0.205,1.385c0.135,0.449,0.332,0.845,0.59,1.191c0.262,0.355,0.591,0.626,0.98,0.845
		c0.396,0.207,0.841,0.314,1.34,0.312c0.526,0.002,0.982-0.103,1.359-0.325c0.393-0.224,0.712-0.51,0.974-0.868
		c0.267-0.348,0.45-0.752,0.575-1.19c0.139-0.449,0.207-0.908,0.207-1.375c0.002-0.471-0.073-0.936-0.21-1.381
		c-0.136-0.452-0.336-0.841-0.597-1.186c-0.267-0.339-0.594-0.617-0.977-0.821c-0.384-0.2-0.836-0.309-1.329-0.306
		c-0.517-0.005-0.968,0.104-1.359,0.321c-0.385,0.206-0.707,0.494-0.972,0.838c-0.256,0.351-0.45,0.742-0.593,1.194
		C185.716,65.699,185.646,66.146,185.65,66.615"/>
	<path d="M202.108,72.814l4.971-12.35l2.41,0.006l4.899,12.37l-3.153-0.006l-0.994-2.767l-3.992-0.01l-0.988,2.764L202.108,72.814z
		 M208.258,63.497l-1.538,4.588l3.018,0.007L208.258,63.497z"/>
	<path fill="#5BB647" d="M139.727,184.044c2.794-4.184,8.388-5.342,12.492-2.592l-10.121,15.123
		C137.994,193.833,136.93,188.223,139.727,184.044"/>
	<polygon fill="#5BB647" points="149.042,187.554 153.122,190.277 156.926,184.594 152.843,181.87 	"/>
	
		<rect x="144.084" y="192.472" transform="matrix(0.831 0.5562 -0.5562 0.831 133.6199 -48.4394)" fill="#5BB647" width="4.904" height="6.465"/>
</g>
<g id="Layer_2">
</g>
<g id="Layer_3">
	<g>
		<path fill="#5BB647" d="M444.352,427.353h-90.996c-1.998,0-3.617-1.617-3.617-3.615v-61.197
			c-7.854-1.164-30.475-3.742-55.32,0.566v60.631c0,1.998-1.619,3.615-3.617,3.615H212.03c-1.458,0-2.773-0.875-3.337-2.219
			c-0.563-1.344-0.264-2.895,0.758-3.936l31.065-31.582V283.262l-11.692-19.273c-0.678-1.118-0.7-2.514-0.058-3.653
			c0.641-1.137,1.845-1.84,3.151-1.84c0.001,0,0.002,0,0.004,0l43.892,0.05c1.995,0.002,3.611,1.622,3.611,3.617v57.035
			c12.63-1.605,51.33-5.666,85.615-0.333v-56.369c0-1.997,1.617-3.616,3.615-3.617l46.695-0.023c0.002,0,0.002,0,0.002,0
			c1.367,0,2.617,0.77,3.232,1.991c0.615,1.222,0.488,2.687-0.328,3.783l-13.98,18.82v108.078l7.975,17.656
			c0.504,1.119,0.408,2.418-0.258,3.451c-0.668,1.031-1.812,1.654-3.039,1.654h-40.904c-0.959,0-1.879-0.381-2.559-1.061
			c-0.678-0.678-1.061-1.6-1.061-2.559l0.021-60.189c-12.014-1.706-56.869-7.256-83.966,0.581l-0.17,59.501
			c-0.005,1.992-1.623,3.607-3.616,3.607c-0.004,0-0.007,0-0.009,0l-38.214-0.094c-1.997-0.004-3.613-1.627-3.608-3.625
			c0.005-1.994,1.624-3.609,3.618-3.609c0.002,0,0.006,0,0.009,0l34.597,0.084l0.167-58.541c0.004-1.551,0.998-2.927,2.47-3.419
			c13.728-4.592,33.563-6.179,58.97-4.716c18.766,1.08,33.807,3.52,33.957,3.543c1.75,0.288,3.035,1.799,3.033,3.572l-0.021,59.69
			h31.684l-5.99-13.26c-0.209-0.469-0.318-0.976-0.318-1.489V282.25c0-0.777,0.248-1.533,0.713-2.157l10.402-14.002l-35.883,0.018
			v57.029c0,1.073-0.477,2.089-1.299,2.777c-0.822,0.687-1.902,0.972-2.965,0.783c-40.455-7.328-91.157,0.141-91.664,0.219
			c-1.04,0.155-2.101-0.15-2.899-0.836c-0.798-0.686-1.257-1.688-1.257-2.742v-57.564l-33.845-0.039l8.88,14.638
			c0.343,0.565,0.525,1.214,0.525,1.876v108.848c0,0.948-0.373,1.86-1.039,2.536l-26.05,26.484h66.521v-60.023
			c0-1.732,1.227-3.221,2.928-3.553c33.283-6.471,62.703-0.867,63.939-0.625c1.697,0.334,2.922,1.821,2.922,3.551v60.652h79.15
			l-22.896-24.953c-0.613-0.668-0.951-1.541-0.951-2.447V281.837c0-0.76,0.236-1.499,0.682-2.115l19.162-26.594l-73.939-0.004
			v53.109c0,1.046-0.451,2.04-1.238,2.726c-0.789,0.688-1.828,1.001-2.871,0.858c-30.537-4.193-62.412,0.478-62.732,0.526
			c-1.045,0.16-2.1-0.149-2.896-0.837c-0.798-0.686-1.257-1.688-1.257-2.74v-53.639H212.05l19.145,26.595
			c0.442,0.616,0.681,1.355,0.681,2.114v108.928c0,1.554-0.994,2.937-2.467,3.43c-1.715,0.574-43.16,13.915-145.953,0.357
			c-15.802-2.087-23.853,1.418-26.122,5.39c-1.193,2.088-0.865,4.58,0.899,6.832c3.223,4.117,11.463,7.652,24.08,4.078
			c48.027-13.623,60.509-2.309,61.774-0.973l-5.252,4.979l0.096,0.096c-0.106-0.098-11.131-9.48-54.645,2.859
			c-10.042,2.848-24.382,2.836-31.751-6.578c-3.615-4.617-4.169-10.182-1.485-14.881c2.135-3.74,9.661-12.1,33.35-8.975
			c87.409,11.529,130.018,3.199,140.239,0.638V283.004l-22.588-31.38c-0.793-1.102-0.902-2.556-0.283-3.764s1.862-1.967,3.219-1.967
			h85.812c1.998,0,3.617,1.619,3.617,3.617v53.139c9.275-1.094,32.607-3.223,56.525-0.513v-52.629c0-0.96,0.381-1.88,1.059-2.558
			c0.68-0.678,1.6-1.06,2.559-1.06l84.623,0.004c1.357,0,2.604,0.76,3.221,1.969c0.619,1.208,0.51,2.661-0.285,3.763l-22.609,31.379
			v108.308l27.508,29.979c0.971,1.057,1.225,2.588,0.646,3.9C447.086,426.505,445.788,427.353,444.352,427.353z"/>
	</g>
	<g>
		<path d="M440.678,289.55l-0.16,71.714c-0.014,6.637,2.938,9.032,7.643,9.042c4.699,0.013,7.656-2.369,7.67-9.006l0.162-71.716
			l13.973,0.03l-0.156,70.784c-0.037,14.875-7.572,23.354-22.082,23.322c-14.516-0.03-22.02-8.545-21.98-23.422l0.158-70.777
			L440.678,289.55z"/>
	</g>
	<g>
		<path d="M524.202,311.118l-0.006,3.318c-0.021,9.566-2.99,15.669-9.582,18.71c7.92,3.069,10.994,10.114,10.969,19.943l-0.01,7.564
			c-0.035,14.346-7.713,22.035-22.492,22l-23.242-0.054l0.209-92.962l22.301,0.051C517.661,289.722,524.237,296.774,524.202,311.118
			 M494.801,302.952l-0.055,24.566l5.766,0.014c5.518,0.018,8.879-2.369,8.896-9.807l0.012-5.179c0.016-6.639-2.266-9.564-7.5-9.578
			L494.801,302.952z M494.715,340.799l-0.062,28.557l8.455,0.021c4.977,0.011,7.666-2.239,7.688-9.152l0.014-8.102
			c0.02-8.627-2.799-11.295-9.516-11.311L494.715,340.799z"/>
	</g>
	<g>
		<path d="M86.479,377.634c-2.761,1.238-10.425,4.294-13.937,5.347c-3.512,1.054-7.111,1.575-10.785,1.562
			c-2.509,0-4.871-0.338-7.074-1.006c-2.223-0.666-4.168-1.721-5.829-3.195c-1.671-1.457-2.985-3.385-3.941-5.777
			c-0.954-2.38-1.429-5.251-1.42-8.604l0.082-36.318l-15.879-0.035l0.038-16.03l15.875,0.038l0.05-22.131l20.062,0.045
			l-0.048,22.134l13.41,0.027l-0.033,16.025l-13.417-0.028l-0.063,29.021c-0.008,2.309,0.555,3.961,1.679,4.979
			c1.13,1.017,2.527,1.531,4.201,1.534c1.414,0.007,2.923-0.266,4.512-0.779c1.587-0.529,3.009-1.107,4.268-1.723L86.479,377.634z"
			/>
	</g>
	<g>
		<path d="M116.162,384.675c-5.519-0.02-10.467-0.928-14.845-2.73c-4.388-1.812-8.101-4.258-11.145-7.361
			c-3.051-3.1-5.36-6.67-6.93-10.737c-1.587-4.052-2.365-8.3-2.354-12.732c0.01-4.763,0.806-9.252,2.411-13.47
			c1.587-4.211,3.898-7.91,6.91-11.075c3.018-3.172,6.728-5.672,11.12-7.499c4.385-1.827,9.386-2.742,14.984-2.73
			c5.6,0.011,10.571,0.952,14.906,2.8c4.349,1.844,8.017,4.338,11.023,7.484c3,3.135,5.271,6.757,6.814,10.854
			c1.532,4.108,2.3,8.413,2.29,12.923c-0.003,1.17-0.052,2.324-0.139,3.438c-0.09,1.132-0.215,2.121-0.381,2.949l-48.641-0.103
			c0.322,4.428,1.92,7.796,4.797,10.103c2.884,2.31,6.157,3.453,9.842,3.465c2.918,0.002,5.745-0.696,8.472-2.108
			c2.709-1.425,4.53-3.333,5.46-5.759l17.041,4.803c-2.61,5.178-6.634,9.389-12.071,12.635
			C130.291,383.069,123.766,384.687,116.162,384.675 M130.168,344.334c-0.41-4.185-1.91-7.482-4.491-9.917
			c-2.588-2.433-5.803-3.65-9.643-3.652c-3.932-0.01-7.172,1.219-9.729,3.673c-2.558,2.457-4.038,5.733-4.459,9.834L130.168,344.334
			z"/>
	</g>
	<g>
		<path d="M154.098,350.528c0.01-4.512,0.817-8.832,2.412-12.967c1.599-4.133,3.904-7.766,6.916-10.89
			c3.018-3.127,6.726-5.611,11.114-7.442c4.395-1.825,9.384-2.729,14.995-2.718c7.598,0.014,13.985,1.636,19.161,4.871
			c5.173,3.227,9.054,7.434,11.631,12.617l-19.571,5.852c-2.577-4.183-6.374-6.28-11.391-6.292
			c-4.176-0.006-7.675,1.527-10.476,4.617c-2.808,3.079-4.223,7.215-4.239,12.395c-0.003,2.601,0.369,4.96,1.12,7.087
			c0.749,2.141,1.791,3.949,3.129,5.463c1.324,1.508,2.887,2.683,4.689,3.52c1.795,0.844,3.694,1.266,5.701,1.268
			c2.505,0.004,4.806-0.59,6.896-1.803c2.086-1.205,3.649-2.768,4.653-4.691l19.538,6.062c-2.425,5.097-6.306,9.269-11.62,12.513
			c-5.308,3.247-11.772,4.864-19.372,4.85c-5.521-0.014-10.469-0.969-14.856-2.855c-4.383-1.895-8.092-4.413-11.142-7.545
			c-3.047-3.15-5.35-6.785-6.935-10.93C154.875,359.373,154.089,355.042,154.098,350.528"/>
	</g>
	<g>
		<path d="M75.88,301.32c0.5,0.002,0.92-0.089,1.264-0.296c0.349-0.197,0.629-0.455,0.837-0.793
			c0.216-0.331,0.363-0.708,0.463-1.136c0.087-0.426,0.128-0.869,0.128-1.316l0.015-6.218l2.929,0.008l-0.01,6.212
			c-0.001,0.848-0.12,1.643-0.346,2.372c-0.222,0.73-0.561,1.37-1.014,1.923c-0.458,0.545-1.043,0.976-1.754,1.285
			c-0.709,0.311-1.546,0.471-2.519,0.471c-1.018-0.006-1.867-0.177-2.582-0.505c-0.71-0.337-1.293-0.776-1.736-1.333
			c-0.446-0.559-0.771-1.195-0.975-1.931c-0.208-0.731-0.308-1.497-0.307-2.302l0.016-6.216l2.917,0.009l-0.013,6.214
			c-0.001,0.47,0.045,0.921,0.139,1.343c0.1,0.421,0.252,0.801,0.456,1.132c0.223,0.328,0.491,0.597,0.828,0.786
			C74.966,301.227,75.381,301.32,75.88,301.32"/>
	</g>
	<g>
		<polygon points="101.771,291.607 101.746,303.781 98.826,303.774 98.838,298.786 93.792,298.776 93.778,303.766 90.861,303.758 
			90.884,291.586 93.805,291.593 93.797,296.306 98.842,296.322 98.852,291.603 		"/>
	</g>
	<g>
		<polygon points="132.558,303.849 132.575,296.569 129.82,301.859 128.247,301.854 125.517,296.556 125.5,303.833 122.58,303.827 
			122.606,291.657 125.775,291.664 129.037,298.029 132.349,291.679 135.505,291.686 135.478,303.855 		"/>
	</g>
	<g>
		<path d="M143.783,303.875l4.886-12.157l2.368,0.005l4.824,12.178l-3.097-0.004l-0.971-2.723l-3.944-0.009l-0.968,2.718
			L143.783,303.875z M147.171,288.407l5.41,0.009l-0.003,1.668l-5.412-0.013L147.171,288.407z M149.843,294.703l-1.523,4.517
			l2.977,0.008L149.843,294.703z"/>
	</g>
	<g>
		<polygon points="167.088,296.975 167.075,303.926 164.156,303.92 164.182,291.756 166.463,291.758 172.34,298.916 
			172.354,291.772 175.279,291.779 175.25,303.943 172.905,303.94 		"/>
	</g>
	<g>
		<path d="M190.106,304.083c-0.896,0.002-1.712-0.177-2.446-0.537c-0.74-0.353-1.371-0.822-1.894-1.4
			c-0.535-0.583-0.94-1.24-1.232-1.979c-0.289-0.745-0.427-1.512-0.427-2.303c0-0.799,0.157-1.568,0.457-2.313
			c0.311-0.742,0.726-1.394,1.272-1.968c0.543-0.555,1.189-1.002,1.917-1.341c0.746-0.339,1.562-0.503,2.439-0.499
			c0.912,0,1.727,0.181,2.459,0.539c0.737,0.351,1.372,0.827,1.895,1.396c0.525,0.594,0.935,1.26,1.217,2
			c0.288,0.747,0.422,1.5,0.422,2.268c-0.003,0.796-0.148,1.569-0.462,2.309c-0.3,0.749-0.722,1.399-1.252,1.963
			c-0.541,0.564-1.188,1.018-1.927,1.357C191.8,303.916,190.994,304.087,190.106,304.083 M187.084,297.905
			c-0.003,0.465,0.057,0.919,0.201,1.363c0.132,0.443,0.326,0.833,0.581,1.173c0.258,0.348,0.582,0.617,0.965,0.831
			c0.389,0.204,0.828,0.31,1.319,0.308c0.518,0.002,0.967-0.101,1.337-0.319c0.386-0.22,0.7-0.502,0.958-0.855
			c0.263-0.342,0.443-0.74,0.566-1.172c0.136-0.441,0.203-0.894,0.203-1.353c0.003-0.464-0.071-0.921-0.206-1.36
			c-0.134-0.444-0.332-0.828-0.587-1.167c-0.263-0.334-0.585-0.608-0.962-0.808c-0.377-0.197-0.823-0.304-1.309-0.302
			c-0.508-0.005-0.952,0.103-1.336,0.317c-0.38,0.201-0.696,0.485-0.958,0.824c-0.252,0.345-0.442,0.731-0.583,1.175
			C187.149,297.004,187.081,297.444,187.084,297.905"/>
	</g>
	<g>
		<path d="M203.283,304.008l4.893-12.156l2.372,0.007l4.822,12.175l-3.104-0.006l-0.979-2.723l-3.928-0.011l-0.974,2.722
			L203.283,304.008z M209.336,294.836l-1.513,4.517l2.969,0.007L209.336,294.836z"/>
	</g>
	<g>
		<path fill="#5BB647" d="M141.884,413.486c2.751-4.119,8.256-5.26,12.294-2.553l-9.961,14.887
			C140.179,423.121,139.131,417.599,141.884,413.486"/>
	</g>
	<g>
		<polygon fill="#5BB647" points="151.053,416.941 155.068,419.621 158.812,414.027 154.794,411.345 		"/>
	</g>
	<g>
		
			<rect x="146.151" y="421.477" transform="matrix(0.8311 0.5561 -0.5561 0.8311 261.2192 -10.9045)" fill="#5BB647" width="4.826" height="6.365"/>
	</g>
</g>
<g id="Layer_4">
	<g>
		<path fill="#5BB647" d="M447.6,657h-92.078c-2.023,0-3.662-1.639-3.662-3.66v-61.928c-7.943-1.176-30.836-3.783-55.979,0.576
			v61.352c0,2.021-1.641,3.66-3.662,3.66H212.51c-1.469,0-2.796-0.879-3.37-2.23c-0.574-1.354-0.283-2.918,0.738-3.975
			l48.117-49.783l-16.702-14.633c-0.803-0.701-1.259-1.719-1.25-2.785c0.01-1.064,0.483-2.076,1.298-2.764l16.286-13.762
			l-16.286-13.758c-0.814-0.689-1.289-1.697-1.298-2.764s0.447-2.086,1.25-2.787l17.118-14.992l-28.771-40.873
			c-0.788-1.117-0.886-2.58-0.255-3.793c0.63-1.213,1.882-1.973,3.249-1.973c0.001,0,0.003,0,0.004,0l44.415,0.051
			c2.021,0,3.656,1.641,3.656,3.658v57.715c12.777-1.623,51.941-5.73,86.635-0.338v-57.041c0-2.02,1.637-3.658,3.656-3.66
			l47.256-0.023l0,0c1.385,0,2.646,0.777,3.271,2.012c0.621,1.234,0.496,2.715-0.326,3.826l-30.078,40.664l14.939,14.934
			c0.693,0.693,1.08,1.641,1.072,2.621c-0.01,0.982-0.412,1.922-1.121,2.604l-14.484,13.965l14.533,14.527
			c0.693,0.693,1.08,1.639,1.072,2.621c-0.01,0.982-0.412,1.918-1.119,2.602l-15,14.467l23.836,36.797
			c0.729,1.125,0.785,2.561,0.145,3.738c-0.639,1.178-1.873,1.912-3.215,1.912h-41.393c-0.971,0-1.9-0.389-2.59-1.072
			c-0.688-0.688-1.072-1.619-1.072-2.588l0.021-60.908c-12.156-1.727-57.545-7.342-84.965,0.586l-0.172,60.209
			c-0.006,2.02-1.645,3.652-3.66,3.652c-0.003,0-0.006,0-0.009,0l-38.669-0.094c-2.021-0.006-3.656-1.648-3.651-3.67
			c0.004-2.02,1.643-3.65,3.66-3.65c0.003,0,0.006,0,0.009,0l35.009,0.084l0.168-59.236c0.003-1.572,1.01-2.965,2.499-3.463
			c13.891-4.645,33.966-6.25,59.671-4.771c18.988,1.092,34.211,3.562,34.361,3.588c1.77,0.289,3.07,1.818,3.07,3.611l-0.021,60.4
			h30.996l-21.814-33.676c-0.953-1.471-0.73-3.408,0.529-4.625l14.486-13.973l-14.533-14.527c-0.695-0.695-1.082-1.641-1.072-2.621
			c0.012-0.982,0.412-1.922,1.119-2.604l14.486-13.965l-14.533-14.525c-1.281-1.281-1.432-3.309-0.354-4.766l27.633-37.359
			l-36.33,0.02v57.707c0,1.086-0.48,2.115-1.314,2.811c-0.832,0.695-1.926,0.986-2.998,0.793
			c-40.938-7.414-92.243,0.145-92.757,0.223c-1.055,0.154-2.125-0.152-2.933-0.848c-0.808-0.695-1.272-1.707-1.272-2.773v-58.25
			l-33.695-0.039l26.6,37.787c1.078,1.529,0.826,3.629-0.582,4.861l-16.394,14.357l16.345,13.807
			c0.823,0.695,1.297,1.719,1.297,2.795c0,1.08-0.474,2.102-1.297,2.799l-16.346,13.811l16.395,14.363
			c0.754,0.658,1.205,1.6,1.246,2.6c0.042,1.002-0.329,1.979-1.025,2.697l-44.792,46.344h67.42v-60.738
			c0-1.754,1.241-3.26,2.962-3.594c33.678-6.549,63.449-0.877,64.701-0.633c1.719,0.336,2.957,1.842,2.957,3.592v61.373h80.096
			l-23.172-25.248c-0.619-0.678-0.965-1.561-0.965-2.477V509.75c0-0.77,0.242-1.518,0.691-2.141l19.391-26.91l-74.82-0.004v53.74
			c0,1.059-0.457,2.064-1.254,2.76c-0.799,0.695-1.852,1.014-2.904,0.869c-30.9-4.24-63.158,0.482-63.48,0.531
			c-1.055,0.164-2.123-0.15-2.93-0.846c-0.809-0.695-1.271-1.709-1.271-2.773v-54.277h-76.029l19.373,26.912
			c0.448,0.621,0.689,1.369,0.689,2.139v110.227c0,1.572-1.005,2.971-2.497,3.471c-1.735,0.582-43.673,14.082-147.691,0.359
			c-15.991-2.107-24.138,1.438-26.433,5.453c-1.207,2.113-0.875,4.635,0.911,6.916c3.261,4.168,11.599,7.746,24.367,4.127
			c48.599-13.787,61.229-2.334,62.51-0.98l-5.314,5.031l0.098,0.1c-0.107-0.1-11.263-9.598-55.295,2.893
			c-10.16,2.883-24.673,2.869-32.13-6.656c-3.658-4.674-4.219-10.301-1.502-15.059c2.16-3.783,9.78-12.244,33.747-9.08
			c88.451,11.664,131.566,3.236,141.91,0.645V510.929l-22.857-31.754c-0.802-1.113-0.913-2.584-0.287-3.807
			c0.626-1.225,1.884-1.992,3.258-1.992h86.834c2.021,0,3.66,1.639,3.66,3.66v53.771c9.388-1.105,32.994-3.262,57.199-0.52v-53.256
			c0-0.973,0.387-1.902,1.072-2.588c0.686-0.688,1.617-1.072,2.588-1.072l85.631,0.004c1.375,0,2.635,0.768,3.26,1.992
			c0.625,1.223,0.514,2.693-0.289,3.809l-22.881,31.754v109.598l27.836,30.336c0.982,1.068,1.24,2.617,0.654,3.945
			C450.368,656.14,449.053,657,447.6,657z"/>
	</g>
	<path d="M443.883,517.554l-0.162,72.568c-0.014,6.717,2.973,9.139,7.73,9.15c4.758,0.014,7.748-2.396,7.764-9.113l0.164-72.572
		l14.141,0.033l-0.158,71.625c-0.039,15.053-7.664,23.633-22.348,23.602c-14.688-0.031-22.279-8.646-22.242-23.699l0.16-71.623
		L443.883,517.554z"/>
	<path d="M528.403,539.378l-0.006,3.357c-0.023,9.68-3.027,15.855-9.697,18.934c8.014,3.105,11.125,10.234,11.1,20.182l-0.01,7.656
		c-0.035,14.516-7.805,22.297-22.76,22.262l-23.52-0.055l0.209-94.072l22.568,0.055
		C521.784,517.728,528.438,524.865,528.403,539.378 M498.653,531.117l-0.059,24.857l5.836,0.016
		c5.582,0.018,8.984-2.398,9.002-9.924l0.012-5.24c0.016-6.719-2.293-9.678-7.588-9.693L498.653,531.117z M498.565,569.414
		l-0.062,28.896l8.553,0.021c5.037,0.01,7.76-2.266,7.781-9.262l0.016-8.197c0.018-8.73-2.832-11.43-9.631-11.445L498.565,569.414z"
		/>
	<path d="M85.463,606.689c-2.794,1.252-10.549,4.344-14.103,5.408c-3.554,1.066-7.196,1.594-10.914,1.582
		c-2.538,0-4.928-0.344-7.158-1.02c-2.249-0.674-4.218-1.742-5.897-3.232c-1.691-1.475-3.021-3.426-3.989-5.848
		c-0.965-2.408-1.446-5.314-1.437-8.707l0.083-36.75l-16.068-0.035l0.039-16.223l16.064,0.039l0.049-22.396l20.302,0.045
		l-0.048,22.396l13.57,0.027l-0.034,16.219l-13.576-0.029l-0.063,29.367c-0.009,2.338,0.561,4.01,1.699,5.039
		c1.144,1.027,2.558,1.549,4.251,1.551c1.432,0.008,2.958-0.268,4.567-0.787c1.605-0.535,3.044-1.121,4.318-1.742L85.463,606.689z"
		/>
	<path d="M115.5,613.812c-5.584-0.02-10.592-0.938-15.021-2.764c-4.441-1.834-8.198-4.309-11.278-7.449
		c-3.087-3.137-5.423-6.748-7.012-10.865c-1.606-4.1-2.394-8.398-2.382-12.883c0.01-4.82,0.815-9.363,2.44-13.633
		c1.606-4.26,3.945-8.002,6.992-11.205c3.054-3.211,6.808-5.74,11.253-7.59c4.437-1.848,9.498-2.773,15.163-2.762
		c5.666,0.012,10.696,0.963,15.084,2.832c4.401,1.867,8.112,4.391,11.154,7.574c3.036,3.174,5.333,6.838,6.896,10.982
		c1.55,4.156,2.327,8.514,2.316,13.076c-0.002,1.188-0.051,2.352-0.141,3.48c-0.09,1.145-0.218,2.145-0.385,2.984l-49.221-0.104
		c0.327,4.479,1.943,7.889,4.854,10.223c2.918,2.336,6.23,3.494,9.959,3.504c2.953,0.004,5.813-0.703,8.573-2.133
		c2.742-1.441,4.584-3.371,5.525-5.826l17.245,4.859c-2.642,5.238-6.713,9.502-12.216,12.785
		C129.798,612.187,123.195,613.824,115.5,613.812 M129.673,572.99c-0.415-4.234-1.932-7.57-4.545-10.035
		c-2.619-2.461-5.871-3.693-9.758-3.695c-3.979-0.01-7.258,1.234-9.845,3.717c-2.588,2.486-4.086,5.803-4.512,9.951L129.673,572.99z
		"/>
	<path d="M153.888,579.257c0.01-4.564,0.827-8.936,2.44-13.121c1.619-4.182,3.952-7.857,6.999-11.02
		c3.054-3.164,6.806-5.678,11.247-7.529c4.447-1.848,9.495-2.764,15.173-2.752c7.689,0.014,14.151,1.658,19.39,4.93
		c5.234,3.268,9.162,7.523,11.77,12.768l-19.804,5.922c-2.607-4.232-6.45-6.355-11.527-6.367c-4.226-0.006-7.767,1.547-10.601,4.674
		c-2.842,3.115-4.273,7.299-4.29,12.541c-0.004,2.633,0.373,5.02,1.133,7.17c0.757,2.168,1.812,3.998,3.167,5.531
		c1.339,1.523,2.922,2.713,4.745,3.559c1.816,0.855,3.738,1.283,5.768,1.285c2.535,0.006,4.864-0.598,6.978-1.824
		c2.111-1.219,3.692-2.801,4.708-4.746l19.771,6.133c-2.455,5.156-6.38,9.377-11.759,12.66c-5.371,3.285-11.912,4.924-19.602,4.906
		c-5.588-0.012-10.595-0.979-15.033-2.889c-4.435-1.916-8.188-4.465-11.274-7.635c-3.083-3.189-5.414-6.865-7.017-11.061
		C154.674,588.207,153.879,583.828,153.888,579.257"/>
	<path d="M74.739,529.464c0.505,0.002,0.931-0.09,1.278-0.301c0.354-0.199,0.637-0.459,0.848-0.801
		c0.219-0.336,0.368-0.717,0.469-1.15c0.088-0.432,0.13-0.879,0.13-1.332l0.016-6.291l2.964,0.006l-0.011,6.287
		c-0.001,0.857-0.121,1.662-0.35,2.4c-0.224,0.736-0.568,1.387-1.026,1.945c-0.464,0.553-1.056,0.986-1.775,1.301
		c-0.717,0.312-1.564,0.477-2.548,0.477c-1.03-0.006-1.889-0.18-2.612-0.512c-0.719-0.34-1.309-0.785-1.757-1.35
		c-0.451-0.564-0.78-1.209-0.986-1.955c-0.211-0.74-0.312-1.514-0.31-2.328l0.016-6.289l2.952,0.008l-0.013,6.287
		c-0.001,0.477,0.046,0.934,0.141,1.359c0.101,0.428,0.255,0.811,0.461,1.146c0.226,0.332,0.496,0.604,0.838,0.795
		C73.813,529.371,74.234,529.464,74.739,529.464"/>
	<polygon points="100.938,519.636 100.912,531.955 97.957,531.947 97.97,526.9 92.864,526.89 92.85,531.937 89.898,531.931 
		89.921,519.615 92.876,519.623 92.869,524.39 97.974,524.408 97.983,519.63 	"/>
	<polygon points="132.092,532.023 132.109,524.658 129.321,530.011 127.729,530.005 124.967,524.644 124.95,532.007 
		121.994,532.001 122.021,519.687 125.228,519.693 128.529,526.134 131.881,519.708 135.074,519.714 135.047,532.029 	"/>
	<path d="M143.451,532.05l4.944-12.303l2.396,0.006l4.882,12.322l-3.134-0.004l-0.982-2.756l-3.991-0.01l-0.98,2.75L143.451,532.05z
		 M146.879,516.396l5.475,0.012l-0.003,1.688l-5.477-0.014L146.879,516.396z M149.583,522.769l-1.542,4.57l3.013,0.008
		L149.583,522.769z"/>
	<polygon points="167.033,525.068 167.02,532.101 164.067,532.095 164.092,519.787 166.4,519.789 172.347,527.031 172.361,519.802 
		175.321,519.81 175.292,532.119 172.919,532.117 	"/>
	<path d="M190.326,532.259c-0.906,0.004-1.733-0.178-2.476-0.543c-0.749-0.355-1.388-0.832-1.917-1.416
		c-0.542-0.59-0.952-1.256-1.247-2.004c-0.292-0.754-0.433-1.529-0.433-2.332c0-0.807,0.158-1.584,0.462-2.34
		c0.314-0.75,0.735-1.41,1.288-1.99c0.549-0.561,1.204-1.014,1.94-1.355c0.755-0.346,1.581-0.51,2.468-0.506
		c0.922,0,1.747,0.184,2.488,0.547c0.746,0.354,1.388,0.836,1.917,1.412c0.531,0.6,0.946,1.273,1.232,2.023
		c0.292,0.754,0.427,1.518,0.427,2.295c-0.003,0.805-0.15,1.586-0.468,2.334c-0.303,0.758-0.731,1.416-1.266,1.986
		c-0.549,0.572-1.202,1.031-1.95,1.375C192.04,532.089,191.224,532.263,190.326,532.259 M187.267,526.009
		c-0.003,0.471,0.058,0.93,0.204,1.379c0.135,0.447,0.33,0.842,0.587,1.188c0.261,0.354,0.589,0.625,0.977,0.842
		c0.394,0.205,0.837,0.312,1.335,0.311c0.523,0.002,0.978-0.104,1.353-0.322c0.391-0.223,0.708-0.51,0.97-0.865
		c0.266-0.344,0.448-0.748,0.573-1.186c0.138-0.447,0.206-0.904,0.206-1.369c0.002-0.471-0.073-0.934-0.209-1.375
		c-0.136-0.451-0.335-0.838-0.594-1.184c-0.266-0.338-0.592-0.613-0.973-0.816c-0.383-0.197-0.833-0.309-1.324-0.307
		c-0.515-0.004-0.963,0.105-1.353,0.32c-0.384,0.205-0.704,0.492-0.969,0.836c-0.255,0.35-0.447,0.74-0.589,1.188
		C187.333,525.097,187.264,525.542,187.267,526.009"/>
	<path d="M203.66,532.185l4.951-12.301l2.4,0.006l4.879,12.32l-3.14-0.006l-0.991-2.754l-3.976-0.012l-0.984,2.754L203.66,532.185z
		 M209.785,522.904l-1.531,4.57l3.005,0.008L209.785,522.904z"/>
	<path fill="#5BB647" d="M141.528,642.966c2.784-4.166,8.354-5.32,12.441-2.582l-10.081,15.064
		C139.804,652.716,138.743,647.128,141.528,642.966"/>
	<polygon fill="#5BB647" points="150.807,646.462 154.87,649.173 158.659,643.515 154.592,640.802 	"/>
	
		<rect x="145.859" y="651.398" transform="matrix(0.831 0.5563 -0.5563 0.831 389.2048 28.1335)" fill="#5BB647" width="4.884" height="6.437"/>
</g>
</svg>
