<?xml version="1.0" encoding="utf-8"?>
<!-- Generator: Adobe Illustrator 16.0.4, SVG Export Plug-In . SVG Version: 6.00 Build 0)  -->
<!DOCTYPE svg PUBLIC "-//W3C//DTD SVG 1.1//EN" "http://www.w3.org/Graphics/SVG/1.1/DTD/svg11.dtd">
<svg version="1.1" id="Layer_1" xmlns="http://www.w3.org/2000/svg" xmlns:xlink="http://www.w3.org/1999/xlink" x="0px" y="0px"
	 width="556.625px" height="691.253px" viewBox="0 0 556.625 691.253" enable-background="new 0 0 556.625 691.253"
	 xml:space="preserve">
<g id="Layer_2">
</g>
<g id="Layer_1_1_">
	<path d="M81.944,262.835c-1.837,0.782-6.958,2.728-9.303,3.4c-2.344,0.67-4.748,1.002-7.203,1.002
		c-1.677,0-3.255-0.206-4.731-0.627c-1.484-0.417-2.783-1.084-3.9-2.01c-1.114-0.918-1.995-2.139-2.638-3.649
		c-0.642-1.507-0.962-3.317-0.962-5.438v-22.959h-10.61v-10.132h10.608v-13.991h13.408v13.991h8.96v10.132h-8.96v18.347
		c0,1.457,0.375,2.5,1.13,3.144c0.753,0.642,1.687,0.967,2.806,0.967c0.946,0,1.955-0.171,3.014-0.501
		c1.061-0.339,2.011-0.702,2.85-1.092L81.944,262.835z"/>
	<path d="M101.792,267.239c-3.682,0-6.994-0.602-9.923-1.8c-2.933-1.205-5.419-2.835-7.458-4.902
		c-2.042-2.064-3.59-4.45-4.649-7.161c-1.065-2.711-1.591-5.544-1.591-8.507c0-3.179,0.526-6.182,1.591-9.006
		c1.06-2.813,2.595-5.286,4.604-7.409c2.011-2.124,4.487-3.798,7.419-5.026c2.928-1.228,6.265-1.845,10.008-1.845
		c3.744,0,7.066,0.618,9.965,1.845c2.906,1.228,5.362,2.887,7.375,4.984c2.009,2.088,3.535,4.508,4.568,7.241
		c1.031,2.741,1.548,5.616,1.548,8.632c0,0.784-0.029,1.551-0.082,2.301c-0.06,0.755-0.142,1.411-0.252,1.971H92.413
		c0.223,2.958,1.295,5.21,3.223,6.748c1.927,1.536,4.118,2.3,6.58,2.3c1.948,0,3.834-0.473,5.656-1.425
		c1.809-0.95,3.022-2.232,3.641-3.854l11.397,3.187c-1.737,3.462-4.418,6.277-8.049,8.457
		C111.228,266.15,106.873,267.239,101.792,267.239 M111.089,240.267c-0.28-2.796-1.286-4.998-3.015-6.622
		c-1.732-1.621-3.88-2.428-6.451-2.428c-2.625,0-4.79,0.827-6.492,2.472c-1.707,1.646-2.693,3.835-2.97,6.578H111.089z"/>
	<path d="M127.091,244.367c0-3.014,0.53-5.905,1.591-8.67c1.063-2.762,2.596-5.191,4.604-7.285c2.016-2.097,4.486-3.758,7.417-4.984
		c2.932-1.229,6.269-1.845,10.014-1.845c5.077,0,9.35,1.078,12.814,3.228c3.459,2.148,6.061,4.954,7.787,8.415l-13.066,3.938
		c-1.728-2.792-4.268-4.185-7.621-4.185c-2.793,0-5.125,1.029-6.996,3.102c-1.87,2.058-2.809,4.826-2.809,8.288
		c0,1.733,0.255,3.31,0.755,4.733c0.506,1.425,1.201,2.637,2.099,3.646c0.888,1.002,1.934,1.785,3.137,2.344
		c1.201,0.561,2.472,0.837,3.813,0.837c1.674,0,3.21-0.402,4.605-1.212c1.395-0.812,2.435-1.859,3.101-3.143l13.067,4.02
		c-1.618,3.407-4.2,6.198-7.745,8.377c-3.544,2.176-7.864,3.267-12.942,3.267c-3.687,0-6.996-0.628-9.93-1.884
		c-2.929-1.257-5.413-2.936-7.453-5.024c-2.041-2.102-3.588-4.528-4.651-7.292C127.621,250.274,127.091,247.384,127.091,244.367"/>
	<polygon fill="#5BB647" points="182.227,265.953 172.351,265.953 172.351,203.835 182.227,203.835 182.227,230.454 
		193.449,230.454 193.449,203.835 203.5,203.835 203.5,265.953 193.449,265.953 193.449,239.33 182.227,239.33 	"/>
	<path fill="#5BB647" d="M220.109,203.833v47.922c0,4.437,1.978,6.032,5.122,6.032c3.139,0,5.115-1.595,5.115-6.032v-47.922h9.334
		v47.3c0,9.937-5.023,15.616-14.719,15.616c-9.696,0-14.726-5.68-14.726-15.616v-47.3H220.109z"/>
	<path fill="#5BB647" d="M275.956,218.121v2.218c0,6.392-1.977,10.472-6.374,12.515c5.292,2.039,7.358,6.743,7.358,13.31v5.057
		c0,9.586-5.115,14.732-14.989,14.732h-15.533v-62.12h14.903C271.555,203.833,275.956,208.538,275.956,218.121 M256.297,212.709
		v16.42h3.856c3.684,0,5.925-1.601,5.925-6.57v-3.465c0-4.435-1.527-6.387-5.027-6.387h-4.754V212.709z M256.297,237.998v19.081
		h5.652c3.324,0,5.116-1.506,5.116-6.123v-5.417c0-5.767-1.885-7.542-6.375-7.542H256.297z"/>
	<path fill="#5BB647" d="M50.7,188.377l19.154-26.891l-13.197-15.397c-0.626-0.726-0.93-1.676-0.849-2.631
		c0.082-0.958,0.546-1.838,1.285-2.451l13.382-11.056l-13.604-13.31c-0.73-0.712-1.12-1.703-1.071-2.72
		c0.047-1.021,0.528-1.969,1.318-2.611l12.686-10.283L56.934,87.866c-1.334-1.368-1.36-3.542-0.058-4.939l12.608-13.514
		L46.406,45.037c-0.907-0.954-1.214-2.329-0.797-3.579c0.411-1.249,1.479-2.171,2.775-2.398l95.464-16.806
		c1.039-0.181,2.106,0.105,2.915,0.783c0.81,0.68,1.279,1.682,1.279,2.741v50.748h24.343V25.822c0-1.06,0.467-2.066,1.281-2.743
		c0.812-0.678,1.883-0.963,2.924-0.776l93.842,16.801c1.27,0.229,2.317,1.121,2.743,2.343c0.429,1.215,0.161,2.57-0.69,3.538
		l-21.507,24.438l12.021,13.549c1.199,1.349,1.205,3.385,0.01,4.736l-11.785,13.375l11.32,10.205
		c1.418,1.278,1.581,3.449,0.365,4.926l-12.033,14.621l11.588,11.295c1.364,1.324,1.447,3.491,0.189,4.918l-12.203,13.861
		l22.341,34.007c0.775,1.188,0.779,2.718,0.01,3.909c-0.776,1.189-2.177,1.809-3.577,1.58l-93.841-15.312
		c-1.736-0.281-3.005-1.783-2.999-3.539l0.166-42.887h-25.368v33.188c0,1.746-1.26,3.235-2.98,3.525L71.81,187.535
		c-1.452,0.245-2.909-0.428-3.662-1.69c-0.757-1.267-0.659-2.863,0.245-4.027l16.584-21.373l-0.173-89.594L67.718,52.636
		c-0.898-0.955-1.198-2.324-0.789-3.568c0.412-1.245,1.471-2.161,2.76-2.395l58.984-10.667c1.042-0.187,2.117,0.095,2.929,0.774
		c0.816,0.681,1.282,1.685,1.282,2.744v49.75l53.438-0.054l-0.11-49.45c-0.002-1.051,0.456-2.052,1.262-2.733
		c0.804-0.679,1.867-0.976,2.905-0.798l60.355,10.188c1.288,0.219,2.362,1.125,2.787,2.366c0.426,1.239,0.138,2.611-0.747,3.577
		l-16.928,18.456l0.171,88.632l15.615,22.137c0.841,1.189,0.873,2.775,0.08,4.001c-0.798,1.227-2.257,1.848-3.689,1.565
		L189.99,175.78c-1.674-0.324-2.886-1.794-2.889-3.502l-0.052-44.393h-53.123l-0.326,37.748c-0.017,1.963-1.616,3.545-3.574,3.545
		h-0.031c-1.976-0.019-3.561-1.635-3.544-3.608l0.358-41.287c0.016-1.962,1.611-3.546,3.575-3.546h60.235
		c1.974,0,3.571,1.595,3.573,3.572l0.06,45.023l46.399,9.1l-11.129-15.776c-0.422-0.598-0.649-1.319-0.653-2.051l-0.176-91.162
		c-0.002-0.894,0.331-1.763,0.938-2.425l13.428-14.636l-49.69-8.387l0.111,48.787c0,0.949-0.374,1.861-1.043,2.535
		c-0.67,0.67-1.581,1.048-2.529,1.05l-60.593,0.059h-0.003c-0.949,0-1.857-0.376-2.528-1.047c-0.67-0.671-1.048-1.581-1.048-2.53
		V43.803l-48.304,8.735l13.557,14.45c0.617,0.661,0.962,1.532,0.965,2.435l0.178,92.233c0.001,0.797-0.264,1.569-0.75,2.2
		l-11.724,15.109l60.378-10.135v-33.739c0-0.948,0.376-1.857,1.047-2.528c0.67-0.671,1.58-1.049,2.526-1.049h32.533
		c0.951,0,1.864,0.38,2.535,1.052c0.67,0.675,1.042,1.585,1.041,2.539l-0.169,43.422l82.801,13.511l-19.366-29.483
		c-0.886-1.346-0.76-3.118,0.303-4.325l11.758-13.359l-11.508-11.213c-1.331-1.295-1.447-3.397-0.266-4.831l11.95-14.52
		l-11.406-10.284c-1.452-1.312-1.584-3.549-0.288-5.017l12.033-13.656l-12.023-13.542c-1.198-1.35-1.203-3.382-0.01-4.736
		l19.401-22.049l-83.391-14.933v50.006c0,1.977-1.599,3.578-3.574,3.578h-31.493c-1.977,0-3.578-1.601-3.578-3.578V30.034
		L56.167,44.949l20.818,21.989c1.297,1.371,1.305,3.516,0.017,4.894L64.432,85.305l13.229,13.531c0.7,0.72,1.068,1.702,1.012,2.707
		c-0.062,1.002-0.538,1.938-1.319,2.571l-12.616,10.224l13.58,13.282c0.724,0.71,1.113,1.693,1.072,2.707
		c-0.046,1.014-0.516,1.958-1.298,2.607L64.453,144.2l12.648,14.755c1.067,1.25,1.151,3.066,0.197,4.401l-20.432,28.688"/>
	<path d="M74.753,211.607c0.333,0,0.61-0.067,0.84-0.205c0.235-0.13,0.421-0.305,0.559-0.53c0.145-0.224,0.243-0.475,0.308-0.76
		c0.06-0.289,0.085-0.582,0.085-0.879v-4.156h1.959v4.156c0,0.564-0.076,1.095-0.228,1.582c-0.147,0.486-0.371,0.915-0.676,1.284
		c-0.303,0.369-0.692,0.659-1.169,0.864c-0.471,0.21-1.031,0.316-1.679,0.316c-0.682,0-1.249-0.112-1.728-0.333
		c-0.473-0.221-0.862-0.515-1.161-0.887c-0.297-0.369-0.52-0.801-0.655-1.29c-0.139-0.49-0.206-1-0.206-1.536v-4.156h1.948v4.156
		c0,0.311,0.039,0.613,0.094,0.896c0.069,0.282,0.174,0.534,0.312,0.753c0.148,0.225,0.329,0.402,0.554,0.526
		C74.14,211.541,74.418,211.607,74.753,211.607"/>
	<polygon points="92.035,205.078 92.035,213.21 90.087,213.21 90.087,209.877 86.714,209.877 86.714,213.21 84.765,213.21 
		84.765,205.078 86.714,205.078 86.714,208.228 90.087,208.228 90.087,205.078 	"/>
	<polygon points="112.628,213.21 112.628,208.343 110.792,211.882 109.746,211.882 107.909,208.343 107.909,213.21 105.958,213.21 
		105.958,205.078 108.076,205.078 110.267,209.327 112.468,205.078 114.581,205.078 114.581,213.21 	"/>
	<path d="M120.13,213.21l3.244-8.132h1.586l3.237,8.132h-2.07l-0.652-1.817h-2.635l-0.64,1.817H120.13z M122.367,202.868h3.616
		v1.111h-3.616V202.868z M124.163,207.073l-1.013,3.021h1.992L124.163,207.073z"/>
	<polygon points="135.688,208.562 135.688,213.21 133.742,213.21 133.742,205.078 135.266,205.078 139.201,209.855 139.201,205.078 
		141.156,205.078 141.156,213.21 139.587,213.21 	"/>
	<path d="M151.084,213.282c-0.601,0-1.149-0.12-1.64-0.36c-0.495-0.231-0.916-0.543-1.268-0.931
		c-0.357-0.386-0.628-0.827-0.824-1.323c-0.196-0.495-0.289-1.009-0.289-1.535c0-0.536,0.104-1.049,0.302-1.547
		c0.204-0.496,0.483-0.933,0.845-1.316c0.362-0.371,0.794-0.671,1.283-0.9c0.498-0.223,1.04-0.336,1.626-0.336
		c0.608,0,1.157,0.121,1.642,0.354c0.494,0.24,0.919,0.554,1.272,0.935c0.35,0.394,0.627,0.84,0.812,1.334
		c0.195,0.497,0.287,1.001,0.287,1.511c0,0.535-0.097,1.049-0.301,1.545c-0.203,0.502-0.483,0.935-0.839,1.314
		c-0.36,0.376-0.787,0.682-1.281,0.909C152.215,213.165,151.674,213.282,151.084,213.282 M149.052,209.154
		c0,0.314,0.04,0.617,0.136,0.913c0.089,0.295,0.222,0.552,0.392,0.78c0.174,0.236,0.389,0.413,0.644,0.555
		c0.26,0.134,0.552,0.205,0.886,0.205c0.346,0,0.646-0.071,0.892-0.218c0.256-0.146,0.465-0.334,0.638-0.569
		c0.176-0.231,0.296-0.498,0.379-0.79c0.088-0.292,0.13-0.592,0.13-0.898c0-0.312-0.048-0.619-0.14-0.91
		c-0.088-0.297-0.22-0.553-0.39-0.779c-0.178-0.221-0.396-0.405-0.646-0.54c-0.252-0.129-0.548-0.198-0.872-0.198
		c-0.342,0-0.636,0.069-0.894,0.214c-0.255,0.138-0.466,0.325-0.639,0.554c-0.168,0.228-0.296,0.49-0.39,0.783
		C149.091,208.553,149.052,208.849,149.052,209.154"/>
	<path d="M159.884,213.21l3.255-8.132h1.584l3.238,8.132h-2.075l-0.654-1.817h-2.631l-0.644,1.817H159.884z M163.919,207.073
		l-1.008,3.021h1.984L163.919,207.073z"/>
	<path fill="#5BB647" d="M21.866,231.552c-6.847-0.205-11.99-3.714-13.759-9.388c-1.841-5.906,0.69-12.647,6.3-16.779
		c9.055-6.664,35.059-16.538,36.292-17.008l6.167,3.666c-0.293,0.112-29.749,13.379-37.974,19.437
		c-3.48,2.561-4.296,6.081-3.563,8.433c0.775,2.486,3.242,3.973,6.765,4.077L21.866,231.552z"/>
	<path fill="#5BB647" d="M40.961,247.108c-10.68,0-19.339-8.658-19.339-19.338c0-10.682,8.659-19.339,19.339-19.339V247.108z"/>
	<rect x="42.596" y="208.432" fill="#5BB647" width="10.611" height="14.18"/>
	<rect x="42.596" y="232.339" fill="#5BB647" width="10.611" height="14.181"/>
</g>
<g id="Layer_2_1_">
	<path fill="#5BB647" d="M312.052,447.043c-1.65,0-2.989-1.337-2.989-2.984v-17.112l-76.316,12.194
		c-1.187,0.189-2.374-0.349-3.008-1.376c-0.636-1.027-0.592-2.33,0.107-3.308l19.854-27.877l-11.025-12.866
		c-0.521-0.608-0.78-1.405-0.71-2.203c0.068-0.797,0.458-1.531,1.076-2.047l11.182-9.236l-11.371-11.124
		c-0.61-0.592-0.934-1.421-0.896-2.272c0.041-0.85,0.441-1.646,1.103-2.184l10.602-8.589l-10.755-11.002
		c-1.119-1.145-1.137-2.958-0.05-4.128l10.534-11.289l-19.283-20.37c-0.754-0.798-1.013-1.951-0.667-2.992
		c0.344-1.042,1.234-1.813,2.32-2.005l79.769-14.041c0.873-0.155,1.766,0.087,2.439,0.65c0.678,0.572,1.071,1.409,1.071,2.292
		v42.408h20.339v-42.37c0-0.884,0.394-1.725,1.07-2.289c0.677-0.566,1.576-0.805,2.446-0.65l78.417,14.04
		c1.062,0.191,1.936,0.937,2.293,1.958c0.357,1.016,0.133,2.147-0.579,2.955l-17.97,20.426l10.046,11.318
		c1.004,1.128,1.006,2.829,0.009,3.957l-9.847,11.178l9.456,8.529c1.185,1.066,1.321,2.882,0.304,4.117l-10.052,12.217l9.685,9.434
		c1.14,1.109,1.204,2.918,0.154,4.113l-10.192,11.585l18.665,28.416c0.649,0.992,0.654,2.275,0.009,3.271
		c-0.648,0.99-1.817,1.51-2.988,1.317l-78.416-12.793c-1.451-0.237-2.515-1.492-2.51-2.961l0.142-35.833h-21.202v27.729
		c0,1.456-1.049,2.704-2.49,2.948l-60.494,10.155c-1.214,0.205-2.429-0.355-3.062-1.413c-0.627-1.059-0.55-2.394,0.205-3.365
		l13.861-17.861l-0.144-74.869l-14.281-15.222c-0.749-0.798-1-1.943-0.657-2.979c0.344-1.044,1.226-1.807,2.306-2.002l49.29-8.913
		c0.87-0.158,1.77,0.079,2.448,0.645c0.681,0.569,1.068,1.409,1.068,2.296v41.57l44.653-0.047l-0.091-41.322
		c-0.003-0.875,0.386-1.713,1.057-2.283c0.672-0.569,1.562-0.813,2.428-0.667l50.435,8.513c1.083,0.183,1.977,0.94,2.33,1.976
		c0.355,1.037,0.116,2.184-0.626,2.99l-14.145,15.421l0.142,74.065l13.05,18.498c0.702,0.997,0.73,2.323,0.064,3.349
		c-0.665,1.022-1.882,1.543-3.08,1.305l-48.491-9.508c-1.405-0.275-2.417-1.501-2.417-2.93l-0.045-37.096h-44.391l-0.273,31.542
		c-0.016,1.64-1.351,2.959-2.988,2.959h-0.023c-1.651-0.012-2.979-1.36-2.966-3.012l0.305-34.503
		c0.012-1.639,1.344-2.958,2.983-2.958h50.336c1.649,0,2.985,1.333,2.985,2.979l0.054,37.626l38.77,7.604l-9.299-13.179
		c-0.352-0.506-0.543-1.101-0.547-1.718l-0.146-76.176c-0.003-0.75,0.274-1.475,0.784-2.027l11.222-12.23l-41.524-7.009
		l0.094,40.768c0,0.793-0.312,1.557-0.875,2.118c-0.559,0.559-1.323,0.876-2.112,0.876l-50.634,0.05h-0.003
		c-0.793,0-1.551-0.313-2.113-0.876c-0.559-0.56-0.877-1.318-0.877-2.11V308.24l-40.367,7.298l11.332,12.076
		c0.514,0.549,0.805,1.278,0.805,2.035l0.15,77.073c0,0.665-0.22,1.312-0.627,1.837l-9.799,12.626l50.457-8.47v-28.192
		c0-0.793,0.314-1.555,0.875-2.114c0.562-0.56,1.318-0.877,2.111-0.877h27.184c0.793,0,1.557,0.318,2.118,0.881
		c0.56,0.563,0.874,1.325,0.869,2.12l-0.139,36.286l69.191,11.292l-16.184-24.64c-0.737-1.127-0.633-2.602,0.255-3.614l9.825-11.163
		l-9.619-9.368c-1.112-1.086-1.208-2.842-0.224-4.04l9.989-12.134l-9.534-8.594c-1.213-1.095-1.32-2.965-0.239-4.191l10.054-11.412
		l-10.047-11.318c-1.001-1.128-1.006-2.826-0.009-3.956l16.217-18.425l-69.684-12.481v41.79c0,1.649-1.338,2.987-2.99,2.987h-26.316
		c-1.651,0-2.989-1.338-2.989-2.987v-41.837l-70.798,12.464l17.396,18.375c1.083,1.146,1.092,2.938,0.012,4.091l-10.493,11.261
		l11.052,11.307c0.588,0.604,0.892,1.422,0.844,2.26c-0.05,0.844-0.448,1.621-1.103,2.152l-10.542,8.543l11.348,11.1
		c0.605,0.592,0.932,1.416,0.894,2.26c-0.034,0.848-0.429,1.639-1.08,2.178l-11.401,9.417l10.571,12.331
		c0.894,1.039,0.964,2.562,0.166,3.678l-17.076,23.969l72.732-11.622c0.862-0.139,1.743,0.111,2.407,0.679
		c0.669,0.565,1.054,1.398,1.054,2.271v20.618C315.042,445.707,313.701,447.043,312.052,447.043"/>
	<path d="M75.135,410.935c-3.289,1.402-12.444,4.886-16.64,6.084c-4.194,1.196-8.494,1.795-12.884,1.795
		c-3.005,0-5.82-0.371-8.467-1.123c-2.652-0.747-4.979-1.94-6.973-3.595c-1.996-1.646-3.572-3.825-4.722-6.526
		c-1.15-2.693-1.722-5.935-1.722-9.728v-41.069H4.752v-18.125h18.976v-25.023h23.981v25.023h16.03v18.125h-16.03v32.82
		c0,2.605,0.672,4.472,2.023,5.623c1.347,1.148,3.021,1.727,5.019,1.727c1.694,0,3.498-0.309,5.395-0.896
		c1.895-0.605,3.596-1.252,5.1-1.956L75.135,410.935z"/>
	<path d="M110.639,418.818c-6.592,0-12.511-1.079-17.756-3.221c-5.246-2.152-9.687-5.069-13.336-8.77
		c-3.653-3.693-6.422-7.957-8.315-12.814c-1.906-4.844-2.845-9.914-2.845-15.211c0-5.69,0.938-11.061,2.845-16.108
		c1.893-5.032,4.642-9.462,8.231-13.25c3.601-3.807,8.027-6.796,13.272-8.999c5.238-2.194,11.211-3.305,17.904-3.305
		c6.694,0,12.638,1.111,17.827,3.305c5.198,2.202,9.593,5.17,13.19,8.919c3.592,3.739,6.317,8.063,8.171,12.952
		c1.843,4.906,2.774,10.049,2.774,15.445c0,1.398-0.054,2.772-0.151,4.114c-0.107,1.351-0.253,2.526-0.452,3.522H93.86
		c0.395,5.297,2.317,9.321,5.76,12.07c3.454,2.748,7.369,4.113,11.773,4.113c3.484,0,6.858-0.849,10.114-2.548
		c3.238-1.7,5.41-3.989,6.517-6.892l20.382,5.695c-3.108,6.197-7.899,11.235-14.395,15.133
		C127.519,416.864,119.726,418.818,110.639,418.818 M127.269,370.567c-0.502-4.998-2.3-8.94-5.393-11.84
		c-3.1-2.905-6.944-4.349-11.538-4.349c-4.697,0-8.567,1.482-11.614,4.422c-3.052,2.946-4.816,6.864-5.31,11.767H127.269
		L127.269,370.567z"/>
	<path d="M155.893,377.907c0-5.395,0.945-10.565,2.844-15.511c1.9-4.941,4.646-9.289,8.24-13.032
		c3.601-3.752,8.021-6.72,13.263-8.919c5.245-2.194,11.213-3.296,17.913-3.296c9.084,0,16.724,1.922,22.921,5.77
		c6.189,3.847,10.84,8.864,13.934,15.056l-23.376,7.047c-3.093-4.997-7.634-7.488-13.632-7.488c-4.998,0-9.169,1.842-12.514,5.546
		c-3.341,3.688-5.025,8.636-5.025,14.828c0,3.096,0.455,5.923,1.355,8.464c0.9,2.549,2.147,4.719,3.752,6.521
		c1.584,1.797,3.459,3.195,5.613,4.193c2.149,1.004,4.42,1.497,6.819,1.497c2.996,0,5.742-0.72,8.236-2.171
		c2.493-1.449,4.353-3.322,5.549-5.62l23.374,7.192c-2.896,6.098-7.516,11.089-13.859,14.986
		c-6.338,3.894-14.062,5.844-23.146,5.844c-6.595,0-12.515-1.125-17.763-3.372c-5.245-2.246-9.684-5.248-13.331-8.984
		c-3.65-3.759-6.423-8.097-8.323-13.046C156.838,388.472,155.893,383.3,155.893,377.907"/>
	<path fill="#5BB647" d="M433.103,316.544v80.318c0,7.438,3.311,10.112,8.58,10.112c5.265,0,8.578-2.675,8.578-10.112v-80.318
		h15.644v79.277c0,16.656-8.418,26.177-24.671,26.177s-24.68-9.52-24.68-26.177v-79.277H433.103z"/>
	<path fill="#5BB647" d="M526.7,340.493v3.718c0,10.711-3.311,17.551-10.682,20.973c8.868,3.419,12.335,11.304,12.335,22.312v8.477
		c0,16.064-8.576,24.689-25.129,24.689h-26.027V316.544h24.979C519.323,316.544,526.7,324.43,526.7,340.493 M493.751,331.42v27.518
		h6.465c6.173,0,9.93-2.678,9.93-11.007v-5.803c0-7.435-2.558-10.707-8.425-10.707L493.751,331.42L493.751,331.42z M493.751,373.811
		v31.976h9.473c5.573,0,8.58-2.522,8.58-10.26v-9.078c0-9.665-3.167-12.638-10.688-12.638H493.751z"/>
	<path d="M372.904,459.408c0.519,0,0.958-0.102,1.321-0.321c0.362-0.2,0.652-0.481,0.874-0.824c0.224-0.353,0.381-0.75,0.482-1.193
		c0.092-0.45,0.133-0.913,0.133-1.378v-6.513h3.066v6.513c0,0.885-0.118,1.714-0.357,2.479c-0.228,0.762-0.576,1.431-1.055,2.01
		s-1.089,1.027-1.832,1.354c-0.738,0.327-1.617,0.499-2.633,0.499c-1.067,0-1.961-0.183-2.708-0.524
		c-0.742-0.347-1.354-0.806-1.821-1.385c-0.466-0.583-0.808-1.263-1.025-2.022c-0.217-0.764-0.325-1.57-0.325-2.408v-6.515h3.06
		v6.515c0,0.483,0.053,0.962,0.146,1.402c0.104,0.438,0.27,0.837,0.484,1.184c0.229,0.348,0.515,0.626,0.868,0.82
		C371.94,459.306,372.378,459.408,372.904,459.408"/>
	<polygon points="399.98,449.178 399.98,461.917 396.926,461.917 396.926,456.701 391.643,456.701 391.643,461.917 388.586,461.917 
		388.586,449.178 391.643,449.178 391.643,454.114 396.926,454.114 396.926,449.178 	"/>
	<polygon points="432.245,461.919 432.245,454.299 429.368,459.837 427.731,459.837 424.854,454.299 424.854,461.919 
		421.797,461.919 421.797,449.178 425.112,449.178 428.547,455.829 431.995,449.178 435.303,449.178 435.303,461.919 	"/>
	<path d="M444,461.919l5.081-12.738h2.483l5.076,12.738h-3.244l-1.022-2.848h-4.127l-1.006,2.848H444z M447.503,445.716h5.669v1.744
		h-5.669V445.716z M450.317,452.301l-1.584,4.736h3.117L450.317,452.301z"/>
	<polygon points="468.375,454.639 468.375,461.919 465.324,461.919 465.324,449.178 467.708,449.178 473.878,456.662 
		473.878,449.178 476.941,449.178 476.941,461.919 474.482,461.919 	"/>
	<path d="M492.497,462.031c-0.938,0-1.8-0.185-2.566-0.562c-0.778-0.369-1.436-0.853-1.987-1.458
		c-0.556-0.609-0.982-1.297-1.292-2.073c-0.307-0.777-0.455-1.581-0.455-2.408c0-0.84,0.162-1.641,0.477-2.422
		c0.323-0.779,0.759-1.459,1.326-2.065c0.567-0.583,1.24-1.049,2.009-1.406c0.783-0.355,1.63-0.53,2.549-0.53
		c0.952,0,1.812,0.187,2.575,0.555c0.772,0.378,1.438,0.869,1.991,1.467c0.544,0.612,0.977,1.313,1.272,2.09
		c0.306,0.779,0.45,1.568,0.45,2.371c0,0.833-0.151,1.642-0.474,2.415c-0.316,0.784-0.756,1.467-1.313,2.06
		c-0.562,0.592-1.233,1.067-2.01,1.421C494.268,461.85,493.421,462.031,492.497,462.031 M489.315,455.567
		c0,0.49,0.063,0.964,0.213,1.427c0.138,0.459,0.349,0.869,0.614,1.224c0.271,0.37,0.606,0.648,1.009,0.869
		c0.409,0.214,0.866,0.32,1.385,0.32c0.54,0,1.016-0.106,1.399-0.338c0.398-0.23,0.73-0.527,1.001-0.891
		c0.273-0.364,0.463-0.784,0.593-1.238c0.141-0.46,0.203-0.93,0.203-1.412c0-0.486-0.077-0.969-0.22-1.429
		c-0.139-0.459-0.348-0.862-0.611-1.218c-0.278-0.348-0.622-0.632-1.014-0.844c-0.397-0.205-0.854-0.312-1.368-0.312
		c-0.53,0-0.997,0.107-1.398,0.333c-0.398,0.215-0.733,0.513-1.001,0.868c-0.266,0.355-0.465,0.771-0.606,1.23
		C489.378,454.621,489.315,455.082,489.315,455.567"/>
	<path d="M506.288,461.919l5.097-12.738h2.479l5.078,12.738h-3.249l-1.031-2.848h-4.115l-1.009,2.848H506.288z M512.608,452.301
		l-1.576,4.736h3.109L512.608,452.301z"/>
	<path d="M344.294,445.82c1.137,0,2.233,0.197,3.283,0.586c1.051,0.393,1.985,0.96,2.798,1.711c0.81,0.749,1.452,1.674,1.929,2.779
		c0.479,1.111,0.717,2.392,0.717,3.841c0,0.218-0.015,0.511-0.037,0.875c-0.024,0.369-0.073,0.756-0.154,1.162
		c-0.077,0.402-0.196,0.819-0.348,1.238c-0.156,0.422-0.364,0.803-0.634,1.144c-0.263,0.343-0.593,0.622-0.994,0.838
		c-0.396,0.204-0.877,0.311-1.439,0.311c-0.416,0-0.766-0.055-1.038-0.175c-0.274-0.114-0.491-0.268-0.657-0.457
		c-0.161-0.187-0.282-0.392-0.361-0.617c-0.08-0.229-0.133-0.45-0.164-0.669c-0.482,0.487-1.069,0.87-1.754,1.157
		c-0.687,0.29-1.427,0.437-2.222,0.437c-1.168,0-2.057-0.308-2.669-0.917c-0.605-0.604-0.911-1.391-0.911-2.36
		c0-0.64,0.13-1.175,0.39-1.613c0.256-0.438,0.589-0.789,1.003-1.054c0.413-0.263,0.881-0.46,1.403-0.572
		c0.523-0.118,1.049-0.174,1.579-0.174c0.626,0,1.162,0.056,1.617,0.174c0.452,0.112,0.794,0.23,1.028,0.337
		c0-0.416-0.042-0.811-0.117-1.167c-0.081-0.36-0.217-0.663-0.419-0.915c-0.206-0.247-0.479-0.442-0.818-0.583
		c-0.344-0.144-0.783-0.212-1.313-0.212c-0.641,0-1.225,0.092-1.754,0.282c-0.529,0.189-0.98,0.435-1.358,0.751l-0.608-1.662
		c1.185-0.781,2.526-1.172,4.027-1.172c1.016,0,1.803,0.154,2.372,0.47c0.57,0.308,0.992,0.706,1.264,1.18
		c0.273,0.475,0.443,1.002,0.502,1.577c0.062,0.58,0.096,1.131,0.096,1.66v2.247c0,0.346,0.014,0.678,0.034,0.993
		c0.022,0.322,0.075,0.602,0.151,0.844c0.08,0.247,0.195,0.443,0.35,0.586c0.158,0.147,0.378,0.224,0.655,0.224
		c0.42,0,0.761-0.158,1.018-0.469c0.259-0.312,0.459-0.69,0.609-1.133c0.148-0.446,0.246-0.915,0.29-1.394
		c0.052-0.482,0.071-0.889,0.071-1.218c0-1.09-0.184-2.102-0.548-3.028c-0.369-0.929-0.88-1.729-1.534-2.408
		c-0.651-0.681-1.441-1.212-2.363-1.593c-0.916-0.383-1.942-0.571-3.062-0.571c-1.108,0-2.115,0.185-3.029,0.561
		c-0.911,0.376-1.702,0.892-2.36,1.554c-0.663,0.663-1.182,1.451-1.548,2.366c-0.364,0.909-0.548,1.906-0.548,2.98
		c0,1.045,0.173,2.025,0.515,2.935c0.346,0.913,0.829,1.708,1.461,2.385c0.631,0.684,1.392,1.219,2.28,1.617
		s1.881,0.597,2.975,0.597c0.746,0,1.393-0.078,1.941-0.246c0.545-0.165,1.113-0.377,1.708-0.643l0.373,1.211
		c-0.653,0.317-1.325,0.552-2.011,0.705c-0.688,0.157-1.374,0.236-2.06,0.236c-1.172,0-2.27-0.211-3.299-0.635
		c-1.034-0.42-1.932-1.015-2.699-1.788c-0.774-0.771-1.384-1.699-1.829-2.784c-0.444-1.084-0.666-2.278-0.666-3.59
		c0-1.387,0.24-2.62,0.726-3.707c0.481-1.084,1.136-1.997,1.953-2.738c0.821-0.739,1.766-1.305,2.844-1.696
		C342,446.017,343.122,445.82,344.294,445.82 M345.439,457.898c0.422-0.208,0.721-0.455,0.912-0.755
		c0.187-0.291,0.281-0.62,0.281-0.979v-0.889c-0.22-0.081-0.561-0.181-1.031-0.307c-0.466-0.123-0.993-0.185-1.588-0.185
		c-0.73,0-1.335,0.137-1.8,0.417c-0.468,0.282-0.702,0.763-0.702,1.431c0,0.528,0.166,0.95,0.502,1.266
		c0.333,0.311,0.796,0.464,1.39,0.464c0.313,0,0.66-0.039,1.03-0.117C344.805,458.167,345.141,458.049,345.439,457.898"/>
	<path fill="#4AB749" d="M315.157,456.092c0,1.617-1.369,2.932-3.061,2.932c-1.687,0-3.061-1.314-3.061-2.932V438
		c0-1.622,1.374-2.935,3.061-2.935c1.691,0,3.061,1.312,3.061,2.935V456.092z"/>
	<path fill="#4AB749" d="M310.447,459.024c-0.776,0-1.411-1.357-1.411-3.04c0-1.676,0.635-3.037,1.411-3.037h8.691
		c0.779,0,1.41,1.361,1.41,3.037c0,1.683-0.631,3.04-1.41,3.04H310.447z"/>
	<polygon fill="#4AB749" points="325.469,462.938 317.723,460.102 317.723,452.25 325.469,449.418 	"/>
	<rect x="317.385" y="451.779" fill="#FFFFFF" width="0.338" height="9.241"/>
	<rect x="316.271" y="452.079" fill="#FFFFFF" width="0.344" height="9.239"/>
	<rect x="325.375" y="452.949" fill="#4AB749" width="2.608" height="1.496"/>
	<rect x="325.375" y="457.529" fill="#4AB749" width="2.608" height="1.495"/>
</g>
<g id="Layer_3">
	<path d="M98.347,598.145c-2.54,1.143-9.601,3.977-12.832,4.957c-3.238,0.976-6.552,1.465-9.94,1.465
		c-2.315,0-4.491-0.305-6.527-0.92c-2.049-0.605-3.842-1.578-5.38-2.93c-1.541-1.342-2.755-3.114-3.642-5.318
		c-0.885-2.195-1.328-4.838-1.328-7.931v-33.482H44.061v-14.774h14.637v-20.399h18.495v20.399h12.365v14.774H77.192v26.756
		c0,2.126,0.52,3.646,1.56,4.583s2.329,1.409,3.873,1.409c1.305,0,2.696-0.251,4.16-0.73c1.461-0.49,2.772-1.025,3.93-1.595
		L98.347,598.145z"/>
	<path d="M125.728,604.569c-5.084,0-9.649-0.833-13.691-2.486c-4.048-1.659-7.474-3.909-10.288-6.766
		c-2.818-2.846-4.956-6.134-6.413-9.877c-1.472-3.737-2.194-7.648-2.194-11.737c0-4.387,0.722-8.528,2.194-12.421
		c1.457-3.884,3.577-7.299,6.347-10.223c2.778-2.929,6.191-5.241,10.238-6.936c4.038-1.694,8.646-2.549,13.807-2.549
		c5.162,0,9.746,0.854,13.75,2.549c4.008,1.694,7.397,3.984,10.174,6.882c2.772,2.88,4.875,6.216,6.303,9.989
		c1.42,3.781,2.137,7.748,2.137,11.906c0,1.078-0.042,2.139-0.118,3.173c-0.083,1.041-0.194,1.955-0.348,2.722h-44.841
		c0.307,4.081,1.787,7.184,4.444,9.305c2.663,2.123,5.685,3.175,9.081,3.175c2.69,0,5.29-0.651,7.803-1.963
		c2.496-1.317,4.17-3.079,5.024-5.316l15.72,4.395c-2.395,4.779-6.097,8.666-11.104,11.669
		C138.749,603.063,132.737,604.569,125.728,604.569 M138.555,567.355c-0.386-3.856-1.773-6.896-4.159-9.136
		c-2.39-2.238-5.356-3.35-8.897-3.35c-3.624,0-6.61,1.142-8.961,3.411c-2.354,2.271-3.71,5.294-4.094,9.074H138.555L138.555,567.355
		z"/>
	<path d="M160.63,573.014c0-4.159,0.733-8.143,2.194-11.96c1.467-3.813,3.584-7.164,6.355-10.052
		c2.774-2.891,6.188-5.184,10.229-6.882c4.047-1.689,8.645-2.54,13.818-2.54c7.006,0,12.896,1.483,17.677,4.453
		c4.772,2.963,8.361,6.833,10.745,11.607l-18.027,5.434c-2.386-3.852-5.888-5.774-10.515-5.774c-3.853,0-7.071,1.423-9.65,4.278
		c-2.581,2.842-3.877,6.66-3.877,11.436c0,2.392,0.351,4.568,1.045,6.529c0.695,1.968,1.656,3.638,2.893,5.031
		c1.224,1.382,2.668,2.464,4.33,3.235c1.658,0.771,3.411,1.154,5.26,1.154c2.311,0,4.428-0.556,6.352-1.675
		c1.923-1.116,3.358-2.563,4.281-4.339l18.026,5.549c-2.231,4.704-5.796,8.555-10.689,11.56c-4.888,3.004-10.843,4.51-17.85,4.51
		c-5.087,0-9.652-0.871-13.703-2.603c-4.042-1.736-7.468-4.049-10.282-6.932c-2.816-2.896-4.95-6.244-6.417-10.062
		C161.363,581.165,160.63,577.173,160.63,573.014"/>
	<path fill="#124734" d="M442.118,518.892v66.113c0,6.119,2.723,8.319,7.06,8.319c4.333,0,7.056-2.2,7.056-8.319v-66.113h12.882
		v65.256c0,13.71-6.932,21.541-20.309,21.541s-20.312-7.831-20.312-21.541v-65.256H442.118z"/>
	<path fill="#124734" d="M519.159,538.602v3.062c0,8.813-2.727,14.448-8.793,17.267c7.3,2.813,10.156,9.301,10.156,18.361v6.975
		c0,13.225-7.064,20.327-20.688,20.327h-21.427v-85.702h20.562C513.084,518.892,519.159,525.381,519.159,538.602 M492.038,531.137
		v22.649h5.319c5.084,0,8.176-2.206,8.176-9.06v-4.777c0-6.117-2.104-8.812-6.933-8.812H492.038z M492.038,566.026v26.327h7.797
		c4.586,0,7.062-2.082,7.062-8.45v-7.47c0-7.955-2.605-10.408-8.798-10.408L492.038,566.026L492.038,566.026z"/>
	<path d="M88.425,527.815c0.459,0,0.845-0.087,1.163-0.28c0.321-0.18,0.577-0.42,0.769-0.729c0.2-0.307,0.333-0.657,0.423-1.049
		c0.083-0.395,0.118-0.805,0.118-1.216v-5.73h2.701v5.73c0,0.783-0.104,1.511-0.312,2.184c-0.2,0.674-0.512,1.262-0.931,1.775
		c-0.421,0.502-0.961,0.902-1.614,1.188c-0.651,0.288-1.423,0.438-2.317,0.438c-0.939,0-1.725-0.155-2.384-0.46
		c-0.653-0.307-1.193-0.713-1.601-1.224c-0.414-0.514-0.714-1.103-0.906-1.774c-0.192-0.679-0.285-1.385-0.285-2.126v-5.73h2.691
		v5.73c0,0.434,0.047,0.849,0.131,1.237c0.093,0.39,0.235,0.739,0.424,1.042c0.205,0.305,0.453,0.553,0.764,0.724
		C87.578,527.726,87.961,527.815,88.425,527.815"/>
	<polygon points="112.269,518.809 112.269,530.029 109.579,530.029 109.579,525.429 104.927,525.429 104.927,530.029 
		102.236,530.029 102.236,518.809 104.927,518.809 104.927,523.156 109.579,523.156 109.579,518.809 	"/>
	<polygon points="140.676,530.029 140.676,523.316 138.146,528.198 136.699,528.198 134.168,523.316 134.168,530.029 
		131.478,530.029 131.478,518.809 134.398,518.809 137.419,524.667 140.457,518.809 143.369,518.809 143.369,530.029 	"/>
	<path d="M151.026,530.029l4.477-11.219h2.183l4.472,11.219h-2.857l-0.897-2.51h-3.64l-0.883,2.51H151.026z M154.113,515.759h4.988
		v1.536h-4.988V515.759z M156.59,521.559l-1.396,4.171h2.748L156.59,521.559z"/>
	<polygon points="172.492,523.618 172.492,530.029 169.805,530.029 169.805,518.812 171.906,518.812 177.336,525.397 
		177.336,518.812 180.032,518.812 180.032,530.029 177.871,530.029 	"/>
	<path d="M193.729,530.126c-0.827,0-1.583-0.159-2.258-0.493c-0.684-0.324-1.264-0.753-1.749-1.288
		c-0.496-0.531-0.871-1.137-1.138-1.82c-0.268-0.688-0.4-1.393-0.4-2.123c0-0.735,0.142-1.444,0.416-2.13
		c0.284-0.685,0.667-1.285,1.168-1.817c0.5-0.515,1.095-0.923,1.765-1.242c0.689-0.312,1.438-0.465,2.247-0.465
		c0.84,0,1.593,0.164,2.268,0.493c0.679,0.325,1.264,0.762,1.749,1.284c0.483,0.546,0.865,1.156,1.125,1.844
		c0.268,0.683,0.395,1.379,0.395,2.086c0,0.734-0.131,1.448-0.418,2.13c-0.277,0.69-0.663,1.29-1.152,1.813
		c-0.498,0.519-1.089,0.939-1.771,1.251C195.289,529.965,194.545,530.126,193.729,530.126 M190.927,524.436
		c0,0.431,0.058,0.848,0.192,1.255c0.12,0.409,0.299,0.765,0.536,1.081c0.236,0.32,0.536,0.568,0.889,0.763
		c0.358,0.188,0.764,0.282,1.22,0.282c0.474,0,0.889-0.098,1.232-0.298c0.353-0.203,0.643-0.466,0.881-0.787
		c0.241-0.316,0.407-0.685,0.522-1.084c0.12-0.408,0.181-0.824,0.181-1.249c0-0.426-0.068-0.849-0.193-1.252
		c-0.124-0.412-0.311-0.761-0.542-1.074c-0.247-0.309-0.542-0.559-0.889-0.744c-0.351-0.182-0.755-0.277-1.207-0.277
		c-0.468,0-0.875,0.1-1.229,0.299c-0.353,0.187-0.646,0.449-0.884,0.762c-0.232,0.316-0.408,0.675-0.534,1.081
		C190.984,523.605,190.927,524.012,190.927,524.436"/>
	<path d="M205.875,530.029l4.485-11.219h2.187l4.468,11.219h-2.859l-0.906-2.51h-3.626l-0.891,2.51H205.875z M211.438,521.559
		l-1.391,4.171h2.74L211.438,521.559z"/>
	<g>
		<path fill="#124734" d="M225.452,621.375c10.636-5.99,4.644-6.808,4.644-6.808l-11.137-12.9c-1.244-1.441-1.099-3.615,0.329-4.876
			l12.373-10.95l-12.543-12.688c-0.653-0.661-1.015-1.558-1.003-2.487c0.011-0.929,0.395-1.816,1.065-2.461l11.738-11.305
			l-10.942-12.984c-1.174-1.394-1.073-3.458,0.231-4.73l11.614-11.327l-22.473-23.416c-0.884-0.923-1.193-2.252-0.802-3.47
			c0.39-1.217,1.414-2.119,2.669-2.355l91.625-17.214c1.017-0.19,2.066,0.081,2.863,0.743c0.795,0.66,1.256,1.641,1.256,2.675
			v48.391l25.204,0.2l-0.342-48.591c0-1.036,0.462-2.017,1.26-2.679c0.802-0.661,1.852-0.932,2.87-0.736l90.929,17.386
			c1.243,0.239,2.254,1.128,2.65,2.326c0.396,1.199,0.11,2.521-0.747,3.449l-20.92,23.515l10.818,12.634
			c1.077,1.344,1.009,3.273-0.159,4.539l-10.666,11.528l11.171,11.894c1.251,1.334,1.258,3.408,0.01,4.747l-11.383,12.25
			l12.614,11.889c0.687,0.646,1.08,1.545,1.092,2.486c0.012,0.944-0.363,1.852-1.032,2.517l-13.349,13.198l24.669,32.641
			c0.827,1.142,0.887,2.668,0.15,3.866c-0.739,1.202-2.127,1.837-3.518,1.613l-94.754-14.447c-1.684-0.273-2.924-1.726-2.924-3.433
			v-43.888l-22.66,0.133l-0.116,43.91c-0.036,1.658-1.238,3.06-2.871,3.348l-82.759,14.605c-1.475,0.26-2.951-0.451-3.663-1.771
			c-0.713-1.317-0.502-2.941,0.522-4.033l29.818-32.692l-1.172-87.828l-15.775-16.762c-0.876-0.931-1.171-2.268-0.768-3.482
			c0.403-1.213,1.441-2.106,2.701-2.327l52.68-9.215c1.003-0.174,2.034,0.1,2.818,0.746c0.785,0.653,1.243,1.615,1.258,2.634
			l0.648,47.84l54.836-0.312l0.324-48.044c0.006-1.05,0.49-2.04,1.311-2.694c0.818-0.656,1.893-0.905,2.917-0.68l51.984,10.624
			c1.205,0.265,2.178,1.148,2.559,2.319c0.38,1.172,0.11,2.459-0.706,3.383l-14.072,15.872l0.339,88.435l13.726,18.025
			c0.863,1.135,0.946,2.686,0.206,3.907c-0.738,1.221-2.149,1.866-3.559,1.626l-51.794-8.691c-1.644-0.281-2.854-1.687-2.891-3.354
			l-0.116-44.312l-54.867-0.116l-0.321,45.248c-0.012,1.647-1.176,3.058-2.791,3.384l-41.379,8.345
			c-1.882,0.382-3.717-0.837-4.096-2.721c-0.38-1.882,0.839-3.717,2.721-4.096l38.61-7.786l0.326-45.854
			c0.016-1.906,1.556-3.444,3.46-3.455l61.72,0.079c0.007,0-0.009,0,0,0c1.887,0,3.454,1.511,3.497,3.403l0.126,44.862l40.27,6.729
			l-9.086-11.934c-0.458-0.602-0.708-1.336-0.711-2.096l-0.347-90.927c-0.004-0.854,0.308-1.682,0.874-2.321l11.027-12.438
			l-42.008-8.419l-0.321,47.18c-0.012,1.904-1.551,3.444-3.458,3.453l-61.72,0.351c-0.006,0-0.013,0-0.019,0
			c-1.901,0-3.451-1.528-3.478-3.431l-0.639-47.208l-42.306,7.399l12.27,13.038c0.588,0.623,0.925,1.445,0.943,2.302l1.234,90.583
			c0.022,0.91-0.316,1.793-0.94,2.458l-23.643,26.11l69.662-12.294l0.126-44.438c0.043-1.882,1.574-3.388,3.456-3.401l29.433-0.017
			c0.008,0,0.014,0,0.021,0c0.917,0,1.8,0.364,2.452,1.013c0.654,0.651,1.022,1.539,1.022,2.465l0.107,44.696l83.504,12.203
			l-21.465-28.235c-1.012-1.391-0.854-3.311,0.366-4.519l12.914-12.768l-12.505-11.784c-1.393-1.309-1.463-3.498-0.163-4.898
			l11.524-12.398l-11.164-11.888c-1.251-1.331-1.257-3.401-0.017-4.743l10.832-11.709l-10.818-12.632
			c-1.079-1.342-1.01-3.269,0.155-4.535l18.707-21.115l-80.652-15.421l0.206,47.582c0,0.932-0.373,1.825-1.038,2.48
			c-0.665,0.653-1.569,1.012-2.498,0.998l-32.021,0.022c-1.899-0.031-3.419-1.577-3.419-3.478v-47.619l-81.188,15.251l20.412,21.269
			c1.321,1.376,1.286,3.562-0.082,4.897l-11.767,11.476l10.955,13.002c1.18,1.399,1.073,3.477-0.247,4.746l-11.545,11.116
			l12.648,12.796c0.672,0.678,1.035,1.604,1.003,2.561c-0.032,0.953-0.455,1.853-1.17,2.487l-12.554,11.109l12.012,13.918
			c1.103,1.274,1.941,3.6,0.878,4.907c0,0,0.354,0.474-8.838,2.241L225.452,621.375z"/>
	</g>
	<path fill="none" stroke="#124734" stroke-width="9" stroke-miterlimit="10" d="M235.352,616.543c0,0-40.141,9.547-77.259,2.476
		c-37.119-7.071-92.5-23.023-92.544,10.605c-0.036,27.581,48.958,3.889,65.93,4.599"/>
	<path fill="#124734" d="M136.977,646.503c-5.291-1.515-8.331-7.107-6.791-12.494c1.54-5.384,7.077-8.524,12.367-7.011
		L136.977,646.503z"/>
	
		<rect x="142.212" y="627.852" transform="matrix(0.9615 0.2747 -0.2747 0.9615 179.1232 -15.5151)" fill="#124734" width="5.467" height="7.616"/>
	
		<rect x="138.619" y="640.453" transform="matrix(0.9614 0.2752 -0.2752 0.9614 182.7137 -14.0308)" fill="#124734" width="5.468" height="7.207"/>
</g>
<g id="Layer_4">
	<g>
		<path d="M353.215,262.059c-1.657,0.706-6.28,2.463-8.395,3.071c-2.117,0.602-4.287,0.904-6.501,0.904
			c-1.514,0-2.938-0.188-4.271-0.567c-1.336-0.377-2.511-0.978-3.52-1.815c-1.006-0.829-1.797-1.93-2.38-3.292
			c-0.58-1.357-0.868-2.994-0.868-4.904v-20.722h-9.575v-9.143h9.575v-12.627h12.098v12.627h8.086v9.143h-8.086v16.561
			c0,1.311,0.34,2.254,1.022,2.833c0.679,0.58,1.519,0.872,2.527,0.872c0.855,0,1.765-0.154,2.724-0.453
			c0.956-0.306,1.812-0.633,2.573-0.986L353.215,262.059z"/>
	</g>
	<g>
		<path d="M371.125,266.034c-3.322,0-6.312-0.542-8.955-1.626c-2.646-1.083-4.889-2.557-6.728-4.423
			c-1.844-1.862-3.243-4.015-4.199-6.462c-0.961-2.445-1.434-5.003-1.434-7.676c0-2.871,0.474-5.579,1.434-8.126
			c0.957-2.54,2.343-4.772,4.157-6.685c1.813-1.919,4.048-3.43,6.693-4.539c2.64-1.107,5.656-1.666,9.031-1.666
			c3.381,0,6.378,0.558,8.995,1.666c2.622,1.108,4.838,2.606,6.654,4.501c1.813,1.884,3.189,4.067,4.124,6.535
			c0.93,2.472,1.398,5.069,1.398,7.788c0,0.707-0.027,1.401-0.076,2.076c-0.055,0.684-0.128,1.276-0.228,1.78h-29.333
			c0.201,2.669,1.167,4.702,2.908,6.091c1.741,1.386,3.715,2.073,5.939,2.073c1.759,0,3.459-0.427,5.104-1.286
			c1.632-0.855,2.726-2.013,3.287-3.478l10.283,2.876c-1.568,3.125-3.989,5.666-7.265,7.633
			C379.643,265.05,375.71,266.034,371.125,266.034 M379.517,241.691c-0.253-2.52-1.162-4.509-2.723-5.973
			c-1.562-1.463-3.5-2.192-5.82-2.192c-2.37,0-4.32,0.745-5.858,2.233c-1.542,1.483-2.433,3.461-2.679,5.933L379.517,241.691
			L379.517,241.691z"/>
	</g>
	<g>
		<path d="M393.958,245.396c0-2.722,0.478-5.331,1.436-7.824c0.957-2.494,2.343-4.688,4.156-6.577
			c1.815-1.891,4.043-3.391,6.688-4.499c2.648-1.108,5.657-1.666,9.041-1.666c4.582,0,8.438,0.974,11.563,2.915
			c3.121,1.939,5.47,4.472,7.028,7.593l-11.792,3.555c-1.563-2.52-3.851-3.777-6.88-3.777c-2.522,0-4.623,0.93-6.312,2.798
			c-1.685,1.86-2.534,4.357-2.534,7.481c0,1.562,0.229,2.988,0.686,4.272c0.453,1.286,1.079,2.378,1.889,3.29
			c0.805,0.905,1.746,1.611,2.834,2.115c1.084,0.505,2.228,0.753,3.438,0.753c1.513,0,2.896-0.361,4.158-1.093
			c1.258-0.732,2.192-1.678,2.796-2.837l11.793,3.627c-1.461,3.077-3.792,5.596-6.99,7.561c-3.199,1.965-7.097,2.949-11.68,2.949
			c-3.327,0-6.312-0.565-8.96-1.699c-2.649-1.135-4.884-2.649-6.727-4.536c-1.842-1.894-3.239-4.083-4.198-6.579
			C394.435,250.725,393.958,248.115,393.958,245.396"/>
	</g>
	<g>
		<polygon fill="#5BB647" points="443.715,264.874 434.801,264.874 434.801,208.816 443.715,208.816 443.715,232.838 
			453.841,232.838 453.841,208.816 462.911,208.816 462.911,264.874 453.841,264.874 453.841,240.85 443.715,240.85 		"/>
	</g>
	<g>
		<path fill="#5BB647" d="M477.901,208.816v43.245c0,4.003,1.782,5.444,4.62,5.444c2.835,0,4.617-1.441,4.617-5.444v-43.245h8.421
			V251.5c0,8.969-4.53,14.092-13.281,14.092c-8.749,0-13.286-5.124-13.286-14.092v-42.685H477.901z"/>
	</g>
	<g>
		<path fill="#5BB647" d="M528.295,221.707v2.002c0,5.77-1.783,9.453-5.749,11.293c4.775,1.841,6.641,6.088,6.641,12.014v4.562
			c0,8.652-4.616,13.296-13.529,13.296h-14.013v-56.061h13.446C524.327,208.813,528.295,213.059,528.295,221.707 M510.556,216.826
			v14.816h3.481c3.322,0,5.345-1.442,5.345-5.928v-3.126c0-4-1.373-5.761-4.536-5.761L510.556,216.826L510.556,216.826z
			 M510.556,239.647v17.22h5.1c3.002,0,4.617-1.36,4.617-5.528v-4.887c0-5.204-1.702-6.805-5.753-6.805H510.556z"/>
	</g>
	<g>
		<path fill="#4AB749" d="M439.208,214.9c-2.106,0-3.811-1.708-3.811-3.811v-69.613c-1.352-0.451-3.349-0.987-5.907-1.334
			c-4.249-0.573-10.896-0.71-19.257,1.598v47.49c0,1.858-1.339,3.446-3.172,3.757L302.853,210.78
			c-1.525,0.26-3.054-0.423-3.876-1.734c-0.819-1.31-0.768-2.983,0.133-4.242l26.514-37.071l-14.382-15.939
			c-0.703-0.777-1.053-1.81-0.97-2.853c0.08-1.044,0.591-2.01,1.41-2.668l15.069-12.156l-13.334-13.267
			c-1.46-1.452-1.505-3.797-0.102-5.302l11.752-12.594l-12.796-14.007c-1.365-1.495-1.324-3.799,0.097-5.245l12.729-12.938
			l-23.594-26.054c-0.928-1.024-1.229-2.469-0.788-3.776c0.442-1.31,1.556-2.278,2.913-2.531l101.074-18.894
			c1.121-0.21,2.271,0.093,3.147,0.822c0.873,0.731,1.378,1.814,1.364,2.954l-0.388,53.88c5.375-0.842,14.848-1.732,26.572-0.342
			V23.255c0-1.138,0.507-2.219,1.387-2.943c0.876-0.723,2.031-1.018,3.149-0.801l99.632,19.317c1.357,0.264,2.463,1.235,2.899,2.545
			c0.432,1.309,0.125,2.751-0.806,3.769l-22.795,24.941l13.112,14.118c1.367,1.469,1.36,3.746-0.016,5.208l-12.405,13.18
			l13.115,13.397c0.718,0.735,1.112,1.729,1.086,2.756c-0.021,1.03-0.461,2.002-1.218,2.703l-13.876,12.896l12.963,12.963
			c1.416,1.415,1.496,3.685,0.181,5.197L518.6,167.701l25.904,36.785c0.88,1.253,0.925,2.907,0.115,4.207
			c-0.808,1.298-2.31,1.991-3.82,1.754l-87.351-13.639c-1.876-0.293-3.251-1.917-3.229-3.812l0.726-60.469
			c-3.784-0.711-10.809-1.874-19.199-2.532c-15.139-1.186-28.397-0.246-38.571,2.723l-0.482,47.145
			c-0.016,1.825-1.332,3.383-3.128,3.71l-58.458,10.674c-1.487,0.271-2.992-0.359-3.842-1.609c-0.846-1.249-0.879-2.883-0.078-4.163
			l13.397-21.436l-0.247-95.885l-16.143-19.271c-0.869-1.041-1.123-2.461-0.665-3.738c0.459-1.275,1.558-2.211,2.893-2.46
			l61.509-11.438c1.106-0.205,2.248,0.088,3.112,0.8c0.87,0.711,1.382,1.772,1.397,2.897l0.702,51.473
			c2.776-0.388,6.816-0.84,12.133-1.151c9.356-0.552,24.597-0.762,45.213,1.19l1.178-50.786c0.021-1.107,0.529-2.148,1.383-2.851
			c0.854-0.706,1.968-1.004,3.06-0.82L516.6,45.167c1.329,0.222,2.439,1.13,2.928,2.387c0.481,1.255,0.27,2.675-0.563,3.733
			l-16.228,20.585l-0.988,95.469l16.964,21.567c1.303,1.655,1.017,4.053-0.637,5.353c-1.658,1.303-4.057,1.018-5.354-0.639
			L494.928,171c-0.535-0.683-0.827-1.527-0.817-2.395l1.017-98.112c0.008-0.843,0.299-1.659,0.819-2.32l13.045-16.553l-49.805-8.37
			l-1.174,50.501c-0.021,1.064-0.492,2.071-1.291,2.774c-0.801,0.704-1.858,1.041-2.918,0.93
			c-22.028-2.32-38.144-2.146-47.782-1.593c-10.442,0.6-15.744,1.762-15.795,1.774c-1.123,0.251-2.296-0.018-3.197-0.73
			c-0.903-0.711-1.436-1.79-1.451-2.937l-0.7-51.396L334.23,51.99l12.842,15.33c0.569,0.686,0.888,1.548,0.888,2.439l0.253,98.365
			c0.004,0.718-0.196,1.421-0.58,2.03l-9.4,15.045l46.869-8.557l0.479-46.757c0.016-1.613,1.048-3.043,2.572-3.566
			c6.442-2.217,14.027-3.624,22.541-4.176c6.72-0.436,14.05-0.348,21.771,0.263c13.12,1.038,22.771,3.199,23.175,3.29
			c1.751,0.398,2.99,1.966,2.97,3.765l-0.722,60.325l75.205,11.744l-22.442-31.877c-1.011-1.436-0.914-3.373,0.238-4.695
			l12.833-14.774l-13.245-13.244c-0.733-0.73-1.135-1.729-1.113-2.766c0.019-1.034,0.456-2.017,1.214-2.724l13.908-12.924
			l-12.936-13.217c-1.429-1.461-1.454-3.791-0.051-5.279l12.466-13.248l-13.076-14.08c-1.354-1.454-1.358-3.701-0.022-5.164
			l20.576-22.517L443.019,27.88v53.327c0,1.12-0.488,2.182-1.339,2.905c-0.854,0.725-1.979,1.039-3.086,0.862
			c-18.802-3.057-32.504,0.479-32.642,0.515c-1.146,0.304-2.372,0.055-3.31-0.674c-0.939-0.728-1.487-1.853-1.476-3.041
			l0.388-53.919L311.73,44.643l21.435,23.667c1.355,1.499,1.31,3.792-0.109,5.233L320.34,86.473l12.726,13.937
			c1.342,1.468,1.332,3.72-0.025,5.172l-11.632,12.466l13.736,13.663c0.771,0.765,1.175,1.821,1.12,2.9
			c-0.06,1.083-0.574,2.091-1.417,2.771l-15.249,12.298l13.737,15.223c1.2,1.331,1.312,3.315,0.274,4.773l-22.912,32.031
			l91.909-15.692v-47.11c0-1.652,1.064-3.116,2.635-3.626c21.624-7.027,35.188-0.042,35.755,0.258
			c1.245,0.661,2.023,1.957,2.023,3.369v72.186C443.021,213.192,441.314,214.9,439.208,214.9"/>
	</g>
	<g>
		<polygon fill="#4AB749" points="435.289,199.299 443.227,199.299 443.712,208.816 434.801,208.816 		"/>
	</g>
	<g>
		<path fill="#FFFFFF" d="M444.478,209.541h-10.441l0.561-10.967h9.318L444.478,209.541z M435.565,208.09h7.384l-0.413-8.066h-6.559
			L435.565,208.09z"/>
	</g>
	<g>
		<rect x="436.603" y="208.816" fill="#4AB749" width="1.303" height="3.655"/>
	</g>
	<g>
		<path fill="#FFFFFF" d="M438.387,212.956h-2.269v-4.625h2.269V212.956z M437.086,211.987h0.335v-2.688h-0.335V211.987z"/>
	</g>
	<g>
		<rect x="440.342" y="208.816" fill="#4AB749" width="1.299" height="3.655"/>
	</g>
	<g>
		<path fill="#FFFFFF" d="M442.125,212.956h-2.267v-4.625h2.267V212.956z M440.826,211.987h0.333v-2.688h-0.333V211.987z"/>
	</g>
</g>
</svg>
