<?xml version="1.0" encoding="utf-8"?>
<!-- Generator: Adobe Illustrator 16.0.4, SVG Export Plug-In . SVG Version: 6.00 Build 0)  -->
<!DOCTYPE svg PUBLIC "-//W3C//DTD SVG 1.1//EN" "http://www.w3.org/Graphics/SVG/1.1/DTD/svg11.dtd">
<svg version="1.1" xmlns="http://www.w3.org/2000/svg" xmlns:xlink="http://www.w3.org/1999/xlink" x="0px" y="0px" width="936px"
	 height="408px" viewBox="0 0 936 408" enable-background="new 0 0 936 408" xml:space="preserve">
<g id="Layer_1">
	<path fill="none" stroke="#757576" stroke-width="3" stroke-miterlimit="10" d="M524.668,109.079c0,4.909-3.405,8.888-7.604,8.888
		h-93.157c-4.2,0-7.604-3.979-7.604-8.888V48.345c0-4.909,3.404-8.888,7.604-8.888h93.157c4.198,0,7.604,3.979,7.604,8.888V109.079z
		"/>
	<line fill="none" stroke="#757576" stroke-width="3" stroke-miterlimit="10" x1="416.303" y1="54.572" x2="524.668" y2="54.572"/>
	<circle fill="#757576" cx="516.435" cy="47.644" r="2.729"/>
	<circle fill="#757576" cx="506.989" cy="47.644" r="2.729"/>
	<circle fill="#757576" cx="496.913" cy="47.644" r="2.729"/>
	<path fill="none" stroke="#757576" stroke-width="3" stroke-miterlimit="10" d="M132.746,257.112c0,4.909-3.406,8.888-7.604,8.888
		H31.985c-4.2,0-7.604-3.979-7.604-8.888v-60.733c0-4.909,3.404-8.889,7.604-8.889h93.156c4.199,0,7.604,3.979,7.604,8.889V257.112z
		"/>
	<line fill="none" stroke="#757576" stroke-width="3" stroke-miterlimit="10" x1="24.381" y1="203.838" x2="132.746" y2="203.838"/>
	<circle fill="#757576" cx="124.513" cy="196.911" r="2.729"/>
	<circle fill="#757576" cx="115.067" cy="196.911" r="2.729"/>
	<circle fill="#757576" cx="104.99" cy="196.911" r="2.729"/>
	<g>
		<path fill="#757576" d="M440.476,82.482h-1.616v-5.272h-5.797v5.272h-1.615V70.542h1.615v5.396h5.797v-5.396h1.616V82.482z"/>
		<path fill="#757576" d="M442.748,77.964c0-1.312,0.355-2.393,1.066-3.243c0.71-0.85,1.676-1.275,2.895-1.275
			c1.23,0,2.202,0.424,2.915,1.271c0.714,0.848,1.07,1.93,1.07,3.248v0.18c0,1.323-0.355,2.405-1.066,3.247
			c-0.71,0.842-1.678,1.263-2.902,1.263s-2.193-0.422-2.907-1.267s-1.07-1.926-1.07-3.243V77.964z M444.363,78.14
			c0,0.939,0.197,1.715,0.594,2.326c0.396,0.612,0.985,0.917,1.768,0.917c0.771,0,1.355-0.306,1.755-0.917
			c0.398-0.611,0.599-1.387,0.599-2.326v-0.18c0-0.928-0.201-1.701-0.603-2.318c-0.402-0.617-0.991-0.926-1.768-0.926
			c-0.771,0-1.354,0.309-1.751,0.926c-0.396,0.617-0.594,1.39-0.594,2.318V78.14z"/>
		<path fill="#757576" d="M454.113,73.609l0.114,1.165c0.29-0.421,0.657-0.748,1.104-0.98c0.445-0.232,0.963-0.349,1.554-0.349
			c0.59,0,1.097,0.137,1.521,0.41s0.742,0.684,0.956,1.23c0.278-0.503,0.647-0.902,1.106-1.197c0.459-0.295,0.995-0.443,1.607-0.443
			c0.902,0,1.615,0.311,2.141,0.931c0.524,0.621,0.787,1.554,0.787,2.8v5.306h-1.616V77.16c0-0.875-0.15-1.494-0.45-1.857
			c-0.301-0.363-0.749-0.545-1.345-0.545c-0.553,0-1,0.191-1.341,0.574c-0.342,0.383-0.543,0.867-0.604,1.451v0.066v5.633h-1.623
			V77.16c0-0.831-0.154-1.439-0.464-1.825c-0.309-0.385-0.753-0.578-1.332-0.578c-0.492,0-0.896,0.102-1.214,0.304
			c-0.316,0.202-0.561,0.486-0.729,0.853v6.568h-1.615v-8.873H454.113z"/>
		<path fill="#757576" d="M471.029,82.654c-1.235,0-2.218-0.412-2.948-1.234c-0.729-0.823-1.095-1.89-1.095-3.202v-0.361
			c0-1.263,0.376-2.313,1.128-3.153c0.751-0.839,1.642-1.259,2.669-1.259c1.197,0,2.102,0.361,2.714,1.083s0.919,1.684,0.919,2.887
			v1.008h-5.757l-0.024,0.041c0.017,0.851,0.232,1.55,0.647,2.098c0.416,0.548,0.998,0.822,1.747,0.822
			c0.547,0,1.026-0.078,1.439-0.234c0.412-0.156,0.769-0.37,1.069-0.644l0.632,1.051c-0.317,0.313-0.735,0.575-1.255,0.784
			C472.396,82.55,471.768,82.654,471.029,82.654z M470.783,74.716c-0.541,0-1.003,0.228-1.386,0.683s-0.618,1.025-0.705,1.712
			l0.017,0.041h4.092v-0.212c0-0.632-0.17-1.161-0.509-1.585S471.45,74.716,470.783,74.716z"/>
		<path fill="#757576" d="M483.789,78.382c0,1.279-0.307,2.311-0.919,3.096c-0.612,0.784-1.457,1.177-2.533,1.177
			c-0.547,0-1.026-0.092-1.439-0.275s-0.764-0.458-1.054-0.824v4.338h-1.615V73.609h1.238l0.254,1.148
			c0.29-0.426,0.65-0.751,1.082-0.976c0.433-0.224,0.936-0.336,1.509-0.336c1.1,0,1.953,0.436,2.562,1.308
			c0.61,0.872,0.915,2.024,0.915,3.456V78.382z M482.173,78.206c0-1.005-0.198-1.831-0.594-2.478
			c-0.396-0.647-0.98-0.971-1.751-0.971c-0.465,0-0.861,0.105-1.189,0.315c-0.327,0.21-0.593,0.499-0.795,0.864v4.283
			c0.202,0.366,0.468,0.651,0.795,0.856c0.328,0.205,0.73,0.307,1.206,0.307c0.765,0,1.345-0.28,1.738-0.84
			c0.394-0.56,0.59-1.281,0.59-2.166V78.206z"/>
		<path fill="#757576" d="M491.227,82.482c-0.055-0.268-0.098-0.504-0.128-0.709c-0.029-0.205-0.048-0.411-0.053-0.619
			c-0.301,0.427-0.693,0.783-1.177,1.07s-1.005,0.431-1.562,0.431c-0.924,0-1.627-0.236-2.111-0.709
			c-0.483-0.473-0.726-1.125-0.726-1.956c0-0.848,0.343-1.51,1.029-1.989c0.686-0.478,1.616-0.717,2.792-0.717h1.755v-0.877
			c0-0.52-0.159-0.931-0.476-1.234c-0.317-0.303-0.766-0.455-1.345-0.455c-0.52,0-0.942,0.133-1.267,0.398
			c-0.326,0.265-0.488,0.583-0.488,0.955h-1.542l-0.017-0.049c-0.032-0.645,0.272-1.236,0.915-1.771
			c0.642-0.536,1.472-0.804,2.488-0.804c1.006,0,1.815,0.256,2.428,0.767s0.918,1.248,0.918,2.209v4.272
			c0,0.317,0.017,0.623,0.049,0.918c0.033,0.295,0.094,0.585,0.181,0.869H491.227z M488.545,81.293c0.585,0,1.112-0.15,1.582-0.45
			c0.471-0.3,0.776-0.643,0.919-1.03v-1.439h-1.812c-0.65,0-1.171,0.164-1.562,0.491c-0.392,0.327-0.587,0.711-0.587,1.153
			c0,0.393,0.123,0.704,0.369,0.933S488.063,81.293,488.545,81.293z"/>
		<path fill="#757576" d="M494.654,78.209c0-1.427,0.312-2.577,0.935-3.452c0.623-0.875,1.484-1.312,2.583-1.312
			c0.562,0,1.058,0.114,1.484,0.34c0.426,0.227,0.781,0.554,1.065,0.98l0.197-1.156h1.287v8.922c0,1.137-0.331,2.01-0.992,2.62
			c-0.661,0.61-1.615,0.915-2.861,0.915c-0.427,0-0.888-0.059-1.382-0.176c-0.495-0.118-0.931-0.278-1.309-0.48l0.41-1.254
			c0.29,0.164,0.64,0.296,1.05,0.397s0.814,0.152,1.214,0.152c0.787,0,1.359-0.179,1.718-0.537s0.537-0.903,0.537-1.636v-1
			c-0.29,0.372-0.637,0.652-1.041,0.84c-0.405,0.189-0.869,0.283-1.395,0.283c-1.088,0-1.943-0.394-2.566-1.181
			c-0.623-0.787-0.935-1.817-0.935-3.091V78.209z M496.27,78.382c0,0.891,0.188,1.607,0.565,2.148s0.951,0.812,1.723,0.812
			c0.486,0,0.894-0.111,1.222-0.332c0.328-0.222,0.599-0.535,0.812-0.939v-4.084c-0.208-0.377-0.479-0.676-0.812-0.898
			c-0.334-0.221-0.735-0.332-1.206-0.332c-0.771,0-1.348,0.323-1.729,0.968c-0.383,0.645-0.574,1.473-0.574,2.484V78.382z"/>
		<path fill="#757576" d="M508.233,82.654c-1.235,0-2.218-0.412-2.948-1.234c-0.729-0.823-1.095-1.89-1.095-3.202v-0.361
			c0-1.263,0.376-2.313,1.128-3.153c0.751-0.839,1.642-1.259,2.669-1.259c1.197,0,2.102,0.361,2.714,1.083s0.919,1.684,0.919,2.887
			v1.008h-5.757l-0.024,0.041c0.017,0.851,0.232,1.55,0.647,2.098c0.416,0.548,0.998,0.822,1.747,0.822
			c0.547,0,1.026-0.078,1.439-0.234c0.412-0.156,0.769-0.37,1.069-0.644l0.632,1.051c-0.317,0.313-0.735,0.575-1.255,0.784
			C509.6,82.55,508.972,82.654,508.233,82.654z M507.987,74.716c-0.541,0-1.003,0.228-1.386,0.683s-0.618,1.025-0.705,1.712
			l0.017,0.041h4.092v-0.212c0-0.632-0.17-1.161-0.509-1.585S508.654,74.716,507.987,74.716z"/>
	</g>
	<g>
		<path fill="#757576" d="M64.972,232.032H59.97l-1.132,3.075H57.19l4.617-11.939h1.386l4.543,11.939h-1.648L64.972,232.032z
			 M60.47,230.679h4.018l-1.968-5.437h-0.049L60.47,230.679z"/>
		<path fill="#757576" d="M76.632,231.007c0,1.279-0.306,2.311-0.918,3.096c-0.612,0.784-1.457,1.177-2.534,1.177
			c-0.547,0-1.026-0.092-1.439-0.275c-0.413-0.183-0.764-0.458-1.054-0.824v4.338h-1.616v-12.284h1.238l0.254,1.148
			c0.29-0.426,0.65-0.751,1.083-0.976c0.432-0.224,0.935-0.336,1.509-0.336c1.099,0,1.953,0.436,2.562,1.308
			c0.609,0.872,0.914,2.024,0.914,3.456V231.007z M75.017,230.831c0-1.005-0.198-1.831-0.595-2.478
			c-0.396-0.647-0.979-0.971-1.75-0.971c-0.465,0-0.861,0.105-1.189,0.315c-0.328,0.21-0.593,0.499-0.795,0.864v4.283
			c0.202,0.366,0.467,0.651,0.795,0.856c0.328,0.205,0.729,0.307,1.206,0.307c0.765,0,1.345-0.28,1.738-0.84
			c0.394-0.56,0.59-1.281,0.59-2.166V230.831z"/>
		<path fill="#757576" d="M86.177,231.007c0,1.279-0.306,2.311-0.918,3.096c-0.612,0.784-1.457,1.177-2.534,1.177
			c-0.547,0-1.026-0.092-1.439-0.275c-0.413-0.183-0.764-0.458-1.054-0.824v4.338h-1.616v-12.284h1.238l0.254,1.148
			c0.29-0.426,0.65-0.751,1.083-0.976c0.432-0.224,0.935-0.336,1.509-0.336c1.099,0,1.953,0.436,2.562,1.308
			c0.609,0.872,0.914,2.024,0.914,3.456V231.007z M84.562,230.831c0-1.005-0.198-1.831-0.595-2.478
			c-0.396-0.647-0.979-0.971-1.75-0.971c-0.465,0-0.861,0.105-1.189,0.315c-0.328,0.21-0.593,0.499-0.795,0.864v4.283
			c0.202,0.366,0.467,0.651,0.795,0.856c0.328,0.205,0.729,0.307,1.206,0.307c0.765,0,1.345-0.28,1.738-0.84
			c0.394-0.56,0.59-1.281,0.59-2.166V230.831z"/>
		<path fill="#757576" d="M89.908,235.107h-1.616v-12.792h1.616V235.107z"/>
		<path fill="#757576" d="M96.075,235.28c-1.235,0-2.218-0.412-2.948-1.234c-0.73-0.823-1.095-1.89-1.095-3.202v-0.361
			c0-1.263,0.375-2.313,1.127-3.153c0.751-0.839,1.641-1.259,2.669-1.259c1.197,0,2.102,0.361,2.714,1.083s0.918,1.684,0.918,2.887
			v1.008h-5.757l-0.024,0.041c0.017,0.851,0.232,1.55,0.648,2.098s0.998,0.822,1.747,0.822c0.546,0,1.026-0.078,1.439-0.234
			s0.77-0.37,1.07-0.644l0.631,1.051c-0.317,0.313-0.735,0.575-1.255,0.784C97.441,235.175,96.812,235.28,96.075,235.28z
			 M95.829,227.342c-0.541,0-1.003,0.228-1.386,0.683c-0.383,0.455-0.618,1.025-0.705,1.712l0.016,0.041h4.092v-0.212
			c0-0.632-0.169-1.161-0.508-1.585S96.496,227.342,95.829,227.342z"/>
	</g>
	<path fill="none" stroke="#757576" stroke-width="3" stroke-miterlimit="10" d="M524.668,376.111c0,4.91-3.406,8.889-7.604,8.889
		h-93.156c-4.2,0-7.604-3.979-7.604-8.889v-60.732c0-4.91,3.404-8.889,7.604-8.889h93.156c4.198,0,7.604,3.979,7.604,8.889V376.111z
		"/>
	
		<line fill="none" stroke="#757576" stroke-width="3" stroke-miterlimit="10" x1="416.303" y1="322.838" x2="524.668" y2="322.838"/>
	<circle fill="#757576" cx="516.435" cy="315.911" r="2.729"/>
	<circle fill="#757576" cx="506.988" cy="315.911" r="2.729"/>
	<circle fill="#757576" cx="496.912" cy="315.911" r="2.729"/>
	<g>
		<path fill="#757576" d="M430.933,348.572h-5.47v4.264h6.306v1.271h-7.921v-11.939h7.831v1.271h-6.216v3.861h5.47V348.572z"/>
		<path fill="#757576" d="M436.492,349.695h-4.018v-1.262h4.018V349.695z"/>
		<path fill="#757576" d="M446.701,350.277l0.016,0.05c0.022,1.12-0.371,2.06-1.18,2.817c-0.81,0.757-1.878,1.135-3.207,1.135
			c-1.351,0-2.451-0.479-3.301-1.435s-1.275-2.171-1.275-3.642v-2.123c0-1.471,0.425-2.686,1.275-3.645
			c0.85-0.96,1.95-1.439,3.301-1.439c1.35,0,2.424,0.359,3.222,1.078c0.799,0.719,1.187,1.672,1.164,2.857l-0.016,0.049h-1.55
			c0-0.836-0.246-1.497-0.738-1.984c-0.492-0.486-1.186-0.729-2.083-0.729c-0.902,0-1.621,0.363-2.157,1.089
			c-0.536,0.727-0.804,1.628-0.804,2.704v2.139c0,1.086,0.268,1.993,0.804,2.72c0.536,0.727,1.254,1.09,2.157,1.09
			c0.896,0,1.591-0.242,2.083-0.726c0.492-0.484,0.738-1.152,0.738-2.006H446.701z"/>
		<path fill="#757576" d="M448.218,349.59c0-1.312,0.355-2.394,1.065-3.244c0.711-0.85,1.676-1.275,2.895-1.275
			c1.23,0,2.202,0.424,2.916,1.271c0.713,0.848,1.07,1.93,1.07,3.248v0.18c0,1.323-0.355,2.405-1.066,3.247
			c-0.711,0.843-1.678,1.263-2.902,1.263s-2.193-0.422-2.907-1.267s-1.07-1.926-1.07-3.243V349.59z M449.833,349.766
			c0,0.939,0.198,1.715,0.595,2.326s0.985,0.917,1.768,0.917c0.771,0,1.355-0.306,1.754-0.917c0.399-0.611,0.6-1.387,0.6-2.326
			v-0.18c0-0.929-0.201-1.701-0.604-2.318s-0.99-0.926-1.768-0.926c-0.77,0-1.354,0.309-1.75,0.926s-0.595,1.39-0.595,2.318V349.766
			z"/>
		<path fill="#757576" d="M459.583,345.234l0.114,1.165c0.291-0.421,0.658-0.747,1.104-0.979s0.963-0.35,1.554-0.35
			s1.098,0.137,1.521,0.41c0.423,0.273,0.742,0.684,0.955,1.23c0.278-0.503,0.647-0.902,1.106-1.197
			c0.46-0.295,0.996-0.443,1.607-0.443c0.902,0,1.615,0.311,2.141,0.932c0.525,0.62,0.787,1.554,0.787,2.8v5.306h-1.615v-5.322
			c0-0.874-0.15-1.493-0.451-1.857c-0.301-0.363-0.749-0.545-1.345-0.545c-0.552,0-0.999,0.191-1.341,0.574
			s-0.543,0.867-0.603,1.451v0.066v5.633h-1.624v-5.322c0-0.83-0.154-1.438-0.463-1.824c-0.309-0.385-0.753-0.578-1.332-0.578
			c-0.492,0-0.896,0.102-1.215,0.304c-0.316,0.202-0.56,0.486-0.729,0.853v6.568h-1.616v-8.873H459.583z"/>
		<path fill="#757576" d="M474.262,345.234l0.114,1.165c0.29-0.421,0.657-0.747,1.103-0.979s0.964-0.35,1.555-0.35
			c0.59,0,1.098,0.137,1.521,0.41c0.423,0.273,0.742,0.684,0.955,1.23c0.278-0.503,0.647-0.902,1.106-1.197
			c0.46-0.295,0.995-0.443,1.607-0.443c0.901,0,1.615,0.311,2.14,0.932c0.525,0.62,0.787,1.554,0.787,2.8v5.306h-1.615v-5.322
			c0-0.874-0.15-1.493-0.451-1.857c-0.301-0.363-0.748-0.545-1.344-0.545c-0.553,0-1,0.191-1.342,0.574s-0.542,0.867-0.602,1.451
			v0.066v5.633h-1.624v-5.322c0-0.83-0.155-1.438-0.464-1.824c-0.309-0.385-0.752-0.578-1.332-0.578
			c-0.492,0-0.896,0.102-1.214,0.304s-0.56,0.486-0.729,0.853v6.568h-1.615v-8.873H474.262z"/>
		<path fill="#757576" d="M491.178,354.279c-1.234,0-2.218-0.411-2.947-1.234c-0.73-0.822-1.095-1.89-1.095-3.201v-0.361
			c0-1.263,0.376-2.313,1.128-3.152c0.751-0.84,1.641-1.26,2.668-1.26c1.197,0,2.103,0.361,2.715,1.083s0.918,1.685,0.918,2.887
			v1.009h-5.756l-0.025,0.041c0.018,0.85,0.232,1.549,0.648,2.098c0.416,0.547,0.998,0.821,1.746,0.821
			c0.547,0,1.027-0.078,1.439-0.233c0.412-0.156,0.77-0.371,1.07-0.645l0.631,1.051c-0.316,0.314-0.734,0.575-1.254,0.784
			C492.545,354.176,491.916,354.279,491.178,354.279z M490.932,346.342c-0.541,0-1.003,0.228-1.385,0.683
			c-0.383,0.455-0.618,1.025-0.705,1.712l0.016,0.041h4.092v-0.213c0-0.631-0.17-1.16-0.508-1.585
			C492.102,346.555,491.6,346.342,490.932,346.342z"/>
		<path fill="#757576" d="M500.576,346.662l-0.828-0.049c-0.428,0-0.787,0.101-1.079,0.303s-0.519,0.486-0.677,0.853v6.339h-1.615
			v-8.873h1.443l0.156,1.297c0.251-0.46,0.562-0.818,0.93-1.074c0.369-0.258,0.795-0.387,1.275-0.387
			c0.121,0,0.235,0.01,0.345,0.029s0.2,0.039,0.271,0.062L500.576,346.662z"/>
		<path fill="#757576" d="M505.586,353.009c0.535,0,1.007-0.165,1.414-0.496c0.408-0.331,0.611-0.737,0.611-1.218h1.451l0.017,0.049
			c0.027,0.766-0.313,1.446-1.021,2.042c-0.709,0.597-1.533,0.894-2.473,0.894c-1.291,0-2.277-0.42-2.961-1.263
			c-0.683-0.842-1.024-1.899-1.024-3.173v-0.345c0-1.263,0.343-2.316,1.029-3.161c0.686-0.845,1.671-1.268,2.956-1.268
			c1.039,0,1.887,0.307,2.546,0.919s0.978,1.364,0.956,2.255l-0.018,0.049h-1.459c0-0.541-0.191-1.001-0.574-1.381
			s-0.866-0.57-1.451-0.57c-0.848,0-1.453,0.305-1.816,0.914c-0.363,0.607-0.545,1.354-0.545,2.239v0.344
			c0,0.907,0.18,1.661,0.541,2.265C504.126,352.707,504.732,353.009,505.586,353.009z"/>
		<path fill="#757576" d="M514.573,354.279c-1.235,0-2.218-0.411-2.948-1.234c-0.729-0.822-1.094-1.89-1.094-3.201v-0.361
			c0-1.263,0.375-2.313,1.127-3.152c0.752-0.84,1.641-1.26,2.669-1.26c1.197,0,2.103,0.361,2.714,1.083
			c0.613,0.722,0.919,1.685,0.919,2.887v1.009h-5.757l-0.024,0.041c0.017,0.85,0.232,1.549,0.647,2.098
			c0.416,0.547,0.998,0.821,1.747,0.821c0.546,0,1.026-0.078,1.438-0.233c0.413-0.156,0.77-0.371,1.07-0.645l0.632,1.051
			c-0.317,0.314-0.735,0.575-1.255,0.784C515.939,354.176,515.311,354.279,514.573,354.279z M514.327,346.342
			c-0.541,0-1.003,0.228-1.386,0.683s-0.617,1.025-0.705,1.712l0.016,0.041h4.092v-0.213c0-0.631-0.169-1.16-0.508-1.585
			S514.994,346.342,514.327,346.342z"/>
	</g>
	<path fill="none" stroke="#757576" stroke-width="3" stroke-miterlimit="10" d="M267.096,257.112c0,4.909-3.405,8.888-7.605,8.888
		h-93.155c-4.2,0-7.605-3.979-7.605-8.888v-60.733c0-4.909,3.405-8.889,7.605-8.889h93.155c4.2,0,7.605,3.979,7.605,8.889V257.112z"
		/>
	<line fill="none" stroke="#757576" stroke-width="3" stroke-miterlimit="10" x1="158.73" y1="203.838" x2="267.096" y2="203.838"/>
	<circle fill="#757576" cx="258.863" cy="196.911" r="2.729"/>
	<circle fill="#757576" cx="249.416" cy="196.911" r="2.729"/>
	<circle fill="#757576" cx="239.34" cy="196.911" r="2.729"/>
	<g>
		<path fill="#757576" d="M182.187,230.975l0.221,1.492l0.049,0.008l0.32-1.5l2.189-7.807h1.427l2.206,7.807l0.328,1.533h0.049
			l0.238-1.533l1.779-7.807h1.615l-2.878,11.939h-1.443l-2.354-8.282l-0.213-1.074h-0.049l-0.205,1.074l-2.395,8.282h-1.443
			l-2.87-11.939h1.607L182.187,230.975z"/>
		<path fill="#757576" d="M196.07,223.963h-1.616v-1.648h1.616V223.963z M196.07,235.107h-1.616v-8.873h1.616V235.107z"/>
		<path fill="#757576" d="M199.998,226.235l0.115,1.32c0.295-0.47,0.666-0.835,1.111-1.095c0.445-0.26,0.953-0.39,1.521-0.39
			c0.957,0,1.697,0.28,2.222,0.841c0.525,0.56,0.787,1.425,0.787,2.595v5.601h-1.615v-5.568c0-0.782-0.154-1.336-0.463-1.665
			c-0.309-0.328-0.78-0.492-1.415-0.492c-0.464,0-0.876,0.112-1.234,0.336c-0.358,0.224-0.644,0.53-0.857,0.918v6.47h-1.616v-8.873
			H199.998z"/>
		<path fill="#757576" d="M207.73,230.835c0-1.427,0.305-2.577,0.914-3.452c0.61-0.875,1.464-1.312,2.562-1.312
			c0.52,0,0.98,0.096,1.382,0.287s0.745,0.47,1.029,0.836v-4.879h1.615v12.792h-1.32l-0.188-1.091
			c-0.29,0.416-0.645,0.73-1.066,0.943c-0.421,0.213-0.91,0.32-1.468,0.32c-1.083,0-1.93-0.393-2.542-1.177
			c-0.612-0.785-0.918-1.816-0.918-3.096V230.835z M209.346,231.007c0,0.896,0.183,1.614,0.549,2.152
			c0.366,0.539,0.935,0.808,1.706,0.808c0.481,0,0.886-0.109,1.214-0.328s0.596-0.525,0.804-0.918v-4.141
			c-0.208-0.366-0.477-0.657-0.808-0.873c-0.331-0.216-0.729-0.324-1.193-0.324c-0.776,0-1.349,0.32-1.718,0.959
			c-0.369,0.64-0.554,1.471-0.554,2.493V231.007z"/>
		<path fill="#757576" d="M217.267,230.589c0-1.312,0.355-2.393,1.066-3.243s1.676-1.275,2.895-1.275
			c1.23,0,2.202,0.424,2.915,1.271c0.714,0.848,1.07,1.93,1.07,3.248v0.18c0,1.323-0.355,2.405-1.066,3.247
			c-0.711,0.842-1.678,1.263-2.903,1.263s-2.193-0.422-2.907-1.267s-1.07-1.926-1.07-3.243V230.589z M218.882,230.765
			c0,0.939,0.198,1.715,0.595,2.326c0.396,0.612,0.985,0.917,1.767,0.917c0.771,0,1.355-0.306,1.755-0.917
			c0.399-0.611,0.599-1.387,0.599-2.326v-0.18c0-0.928-0.201-1.701-0.603-2.318c-0.402-0.617-0.991-0.926-1.767-0.926
			c-0.771,0-1.354,0.309-1.75,0.926c-0.396,0.617-0.595,1.39-0.595,2.318V230.765z"/>
		<path fill="#757576" d="M229.46,231.876l0.189,1.074h0.049l0.23-1.074l1.771-5.642h1.295l1.78,5.642l0.254,1.197h0.049
			l0.238-1.197l1.394-5.642h1.607l-2.575,8.873h-1.304l-1.714-5.404l-0.369-1.509l-0.049,0.008l-0.353,1.5l-1.689,5.404h-1.304
			l-2.575-8.873h1.607L229.46,231.876z"/>
		<path fill="#757576" d="M245.057,232.746c0-0.355-0.135-0.647-0.406-0.877c-0.271-0.229-0.783-0.429-1.537-0.598
			c-1.077-0.235-1.888-0.553-2.432-0.954c-0.544-0.401-0.816-0.948-0.816-1.642c0-0.72,0.306-1.334,0.918-1.842
			c0.612-0.508,1.411-0.762,2.395-0.762c1.033,0,1.854,0.266,2.464,0.795c0.61,0.53,0.901,1.176,0.874,1.936l-0.017,0.049h-1.542
			c0-0.388-0.163-0.736-0.488-1.045c-0.325-0.309-0.756-0.463-1.292-0.463c-0.574,0-1,0.126-1.279,0.377s-0.418,0.555-0.418,0.91
			c0,0.35,0.123,0.626,0.369,0.828c0.246,0.202,0.747,0.383,1.501,0.542c1.121,0.24,1.954,0.567,2.501,0.979
			c0.546,0.413,0.82,0.966,0.82,1.661c0,0.787-0.318,1.424-0.955,1.911c-0.637,0.487-1.469,0.73-2.497,0.73
			c-1.132,0-2.023-0.287-2.673-0.861c-0.65-0.574-0.959-1.244-0.926-2.009l0.016-0.049h1.542c0.027,0.571,0.241,0.989,0.64,1.252
			c0.399,0.264,0.867,0.396,1.402,0.396c0.574,0,1.023-0.116,1.349-0.349C244.894,233.428,245.057,233.123,245.057,232.746z"/>
	</g>
	<path fill="none" stroke="#757576" stroke-width="3" stroke-miterlimit="10" d="M397.247,257.113c0,4.909-3.406,8.888-7.605,8.888
		h-93.155c-4.2,0-7.604-3.979-7.604-8.888v-60.734c0-4.909,3.404-8.889,7.604-8.889h93.155c4.2,0,7.605,3.979,7.605,8.889V257.113z"
		/>
	
		<line fill="none" stroke="#757576" stroke-width="3" stroke-miterlimit="10" x1="288.882" y1="203.839" x2="397.247" y2="203.839"/>
	<circle fill="#757576" cx="389.014" cy="196.912" r="2.729"/>
	<circle fill="#757576" cx="379.567" cy="196.912" r="2.729"/>
	<circle fill="#757576" cx="369.491" cy="196.912" r="2.729"/>
	<g>
		<path fill="#757576" d="M317.021,232.102c0-0.543-0.205-0.999-0.615-1.366c-0.41-0.367-1.137-0.675-2.181-0.925
			c-1.263-0.301-2.249-0.745-2.957-1.332s-1.062-1.323-1.062-2.211c0-0.932,0.381-1.71,1.144-2.334
			c0.763-0.625,1.751-0.937,2.964-0.937c1.307,0,2.347,0.358,3.12,1.074s1.147,1.547,1.12,2.493l-0.017,0.049h-1.542
			c0-0.7-0.231-1.266-0.693-1.698c-0.462-0.432-1.125-0.647-1.989-0.647c-0.803,0-1.42,0.182-1.849,0.545
			c-0.429,0.363-0.644,0.837-0.644,1.422c0,0.52,0.232,0.953,0.697,1.3c0.464,0.347,1.219,0.652,2.263,0.915
			c1.257,0.312,2.214,0.771,2.87,1.377c0.656,0.607,0.984,1.358,0.984,2.255c0,0.962-0.394,1.736-1.181,2.321
			c-0.787,0.585-1.815,0.877-3.083,0.877c-1.192,0-2.246-0.324-3.161-0.972c-0.916-0.648-1.36-1.513-1.333-2.596l0.017-0.049h1.542
			c0,0.765,0.281,1.348,0.845,1.747c0.562,0.399,1.26,0.599,2.091,0.599c0.814,0,1.459-0.171,1.935-0.514
			S317.021,232.689,317.021,232.102z"/>
		<path fill="#757576" d="M320.309,230.59c0-1.312,0.355-2.393,1.066-3.243s1.676-1.275,2.895-1.275c1.23,0,2.202,0.424,2.915,1.271
			c0.714,0.848,1.07,1.93,1.07,3.248v0.18c0,1.323-0.355,2.405-1.066,3.247c-0.711,0.842-1.678,1.263-2.903,1.263
			s-2.193-0.422-2.907-1.267s-1.07-1.926-1.07-3.243V230.59z M321.924,230.766c0,0.939,0.198,1.715,0.595,2.326
			c0.396,0.612,0.985,0.917,1.767,0.917c0.771,0,1.355-0.306,1.755-0.917c0.399-0.611,0.599-1.387,0.599-2.326v-0.18
			c0-0.928-0.201-1.701-0.603-2.318c-0.402-0.617-0.991-0.926-1.767-0.926c-0.771,0-1.354,0.309-1.75,0.926
			c-0.396,0.617-0.595,1.39-0.595,2.318V230.766z"/>
		<path fill="#757576" d="M330.904,235.108v-7.675h-1.386v-1.197h1.386v-1.124c0-0.945,0.247-1.677,0.742-2.193
			c0.495-0.517,1.185-0.775,2.071-0.775c0.186,0,0.373,0.015,0.562,0.045c0.188,0.03,0.398,0.072,0.627,0.127l-0.197,1.23
			c-0.099-0.022-0.217-0.041-0.357-0.058c-0.139-0.016-0.286-0.024-0.438-0.024c-0.47,0-0.82,0.141-1.05,0.422
			s-0.344,0.69-0.344,1.226v1.124h1.845v1.197h-1.845v7.675H330.904z"/>
		<path fill="#757576" d="M338.161,224.096v2.14h1.681v1.197h-1.681v5.388c0,0.416,0.086,0.708,0.258,0.877
			c0.172,0.17,0.4,0.254,0.685,0.254c0.093,0,0.195-0.011,0.308-0.033c0.112-0.022,0.212-0.049,0.299-0.082l0.213,1.107
			c-0.12,0.099-0.296,0.179-0.529,0.242c-0.232,0.062-0.466,0.094-0.701,0.094c-0.656,0-1.178-0.198-1.566-0.595
			c-0.388-0.396-0.583-1.018-0.583-1.865v-5.388h-1.41v-1.197h1.41v-2.14H338.161z"/>
		<path fill="#757576" d="M344.105,231.877l0.189,1.074h0.049l0.23-1.074l1.771-5.642h1.295l1.78,5.642l0.254,1.197h0.049
			l0.238-1.197l1.394-5.642h1.607l-2.575,8.873h-1.304l-1.714-5.404L347,228.196l-0.049,0.008l-0.353,1.5l-1.689,5.404h-1.304
			l-2.575-8.873h1.607L344.105,231.877z"/>
		<path fill="#757576" d="M359.997,235.108c-0.055-0.268-0.097-0.504-0.127-0.709c-0.03-0.205-0.048-0.411-0.053-0.619
			c-0.301,0.427-0.693,0.783-1.177,1.07s-1.004,0.431-1.562,0.431c-0.924,0-1.628-0.236-2.112-0.709
			c-0.483-0.473-0.726-1.125-0.726-1.956c0-0.848,0.343-1.51,1.029-1.989c0.686-0.478,1.617-0.717,2.792-0.717h1.755v-0.877
			c0-0.52-0.159-0.931-0.476-1.234c-0.317-0.303-0.766-0.455-1.345-0.455c-0.52,0-0.942,0.133-1.267,0.398s-0.488,0.583-0.488,0.955
			H354.7l-0.017-0.049c-0.033-0.645,0.272-1.236,0.914-1.771c0.643-0.536,1.472-0.804,2.489-0.804c1.006,0,1.815,0.256,2.427,0.767
			s0.918,1.248,0.918,2.209v4.272c0,0.317,0.017,0.623,0.049,0.918c0.033,0.295,0.093,0.585,0.18,0.869H359.997z M357.316,233.919
			c0.585,0,1.112-0.15,1.583-0.45s0.776-0.643,0.918-1.03V231h-1.812c-0.65,0-1.171,0.164-1.562,0.491
			c-0.391,0.327-0.586,0.711-0.586,1.153c0,0.393,0.123,0.704,0.369,0.933S356.834,233.919,357.316,233.919z"/>
		<path fill="#757576" d="M367.976,227.663l-0.828-0.049c-0.427,0-0.786,0.101-1.079,0.303s-0.518,0.487-0.676,0.853v6.339h-1.616
			v-8.873h1.443l0.156,1.296c0.251-0.459,0.562-0.817,0.931-1.074c0.369-0.257,0.794-0.386,1.275-0.386
			c0.12,0,0.235,0.01,0.344,0.029s0.2,0.04,0.271,0.062L367.976,227.663z"/>
		<path fill="#757576" d="M373.06,235.281c-1.235,0-2.218-0.412-2.948-1.234c-0.73-0.823-1.095-1.89-1.095-3.202v-0.361
			c0-1.263,0.375-2.313,1.127-3.153c0.751-0.839,1.641-1.259,2.669-1.259c1.197,0,2.102,0.361,2.714,1.083s0.918,1.684,0.918,2.887
			v1.008h-5.757l-0.024,0.041c0.017,0.851,0.232,1.55,0.648,2.098s0.998,0.822,1.747,0.822c0.546,0,1.026-0.078,1.439-0.234
			s0.77-0.37,1.07-0.644l0.631,1.051c-0.317,0.313-0.735,0.575-1.255,0.784C374.427,235.176,373.798,235.281,373.06,235.281z
			 M372.814,227.343c-0.541,0-1.003,0.228-1.386,0.683c-0.383,0.455-0.618,1.025-0.705,1.712l0.016,0.041h4.092v-0.212
			c0-0.632-0.169-1.161-0.508-1.585S373.481,227.343,372.814,227.343z"/>
	</g>
	<path fill="none" stroke="#757576" stroke-width="3" stroke-miterlimit="10" d="M524.878,257.112c0,4.909-3.404,8.888-7.604,8.888
		h-93.157c-4.2,0-7.604-3.979-7.604-8.888v-60.733c0-4.909,3.404-8.889,7.604-8.889h93.157c4.199,0,7.604,3.979,7.604,8.889V257.112
		z"/>
	
		<line fill="none" stroke="#757576" stroke-width="3" stroke-miterlimit="10" x1="416.514" y1="203.838" x2="524.878" y2="203.838"/>
	<circle fill="#757576" cx="516.646" cy="196.911" r="2.729"/>
	<circle fill="#757576" cx="507.199" cy="196.911" r="2.729"/>
	<circle fill="#757576" cx="497.124" cy="196.911" r="2.729"/>
	<g>
		<path fill="#757576" d="M448.421,230.318v4.789h-1.616v-11.939h4.567c1.274,0,2.264,0.328,2.969,0.984
			c0.705,0.656,1.058,1.52,1.058,2.591c0,1.088-0.353,1.956-1.058,2.604c-0.705,0.648-1.694,0.972-2.969,0.972H448.421z
			 M448.421,229.047h2.951c0.81,0,1.413-0.217,1.812-0.65c0.399-0.434,0.599-0.981,0.599-1.641c0-0.661-0.201-1.211-0.603-1.654
			c-0.401-0.442-1.005-0.663-1.809-0.663h-2.951V229.047z"/>
		<path fill="#757576" d="M461.459,227.662l-0.828-0.049c-0.427,0-0.786,0.101-1.078,0.303c-0.293,0.202-0.519,0.487-0.677,0.853
			v6.339h-1.615v-8.873h1.443l0.155,1.296c0.252-0.459,0.562-0.817,0.931-1.074s0.794-0.386,1.275-0.386
			c0.12,0,0.235,0.01,0.345,0.029c0.108,0.019,0.199,0.04,0.271,0.062L461.459,227.662z"/>
		<path fill="#757576" d="M464.764,223.963h-1.615v-1.648h1.615V223.963z M464.764,235.107h-1.615v-8.873h1.615V235.107z"/>
		<path fill="#757576" d="M468.692,226.235l0.114,1.32c0.295-0.47,0.666-0.835,1.111-1.095s0.952-0.39,1.521-0.39
			c0.956,0,1.697,0.28,2.222,0.841c0.524,0.56,0.787,1.425,0.787,2.595v5.601h-1.615v-5.568c0-0.782-0.154-1.336-0.463-1.665
			c-0.31-0.328-0.781-0.492-1.415-0.492c-0.465,0-0.876,0.112-1.234,0.336c-0.357,0.224-0.644,0.53-0.856,0.918v6.47h-1.615v-8.873
			H468.692z"/>
		<path fill="#757576" d="M478.926,224.095v2.14h1.681v1.197h-1.681v5.388c0,0.416,0.086,0.708,0.258,0.877
			c0.173,0.17,0.4,0.254,0.686,0.254c0.093,0,0.195-0.011,0.307-0.033c0.112-0.022,0.212-0.049,0.3-0.082l0.213,1.107
			c-0.12,0.099-0.296,0.179-0.528,0.242c-0.232,0.062-0.467,0.094-0.701,0.094c-0.656,0-1.179-0.198-1.566-0.595
			c-0.389-0.396-0.582-1.018-0.582-1.865v-5.388h-1.411v-1.197h1.411v-2.14H478.926z"/>
		<path fill="#757576" d="M486.281,235.28c-1.235,0-2.218-0.412-2.948-1.234c-0.729-0.823-1.095-1.89-1.095-3.202v-0.361
			c0-1.263,0.376-2.313,1.128-3.153c0.751-0.839,1.642-1.259,2.669-1.259c1.197,0,2.102,0.361,2.714,1.083s0.919,1.684,0.919,2.887
			v1.008h-5.757l-0.024,0.041c0.017,0.851,0.232,1.55,0.647,2.098c0.416,0.548,0.998,0.822,1.747,0.822
			c0.547,0,1.026-0.078,1.439-0.234c0.412-0.156,0.769-0.37,1.069-0.644l0.632,1.051c-0.317,0.313-0.735,0.575-1.255,0.784
			C487.647,235.175,487.02,235.28,486.281,235.28z M486.035,227.342c-0.541,0-1.003,0.228-1.386,0.683s-0.618,1.025-0.705,1.712
			l0.017,0.041h4.092v-0.212c0-0.632-0.17-1.161-0.509-1.585S486.702,227.342,486.035,227.342z"/>
		<path fill="#757576" d="M495.679,227.662l-0.828-0.049c-0.427,0-0.786,0.101-1.078,0.303c-0.293,0.202-0.519,0.487-0.677,0.853
			v6.339h-1.615v-8.873h1.443l0.155,1.296c0.252-0.459,0.562-0.817,0.931-1.074s0.794-0.386,1.275-0.386
			c0.12,0,0.235,0.01,0.345,0.029c0.108,0.019,0.199,0.04,0.271,0.062L495.679,227.662z"/>
	</g>
	<path fill="none" stroke="#757576" stroke-width="3" stroke-miterlimit="10" d="M653.35,257.113c0,4.909-3.404,8.888-7.604,8.888
		H552.59c-4.199,0-7.604-3.979-7.604-8.888v-60.734c0-4.909,3.405-8.889,7.604-8.889h93.156c4.199,0,7.604,3.979,7.604,8.889
		V257.113z"/>
	<line fill="none" stroke="#757576" stroke-width="3" stroke-miterlimit="10" x1="544.985" y1="203.839" x2="653.35" y2="203.839"/>
	<circle fill="#757576" cx="645.118" cy="196.912" r="2.729"/>
	<circle fill="#757576" cx="635.671" cy="196.912" r="2.729"/>
	<circle fill="#757576" cx="625.595" cy="196.912" r="2.729"/>
	<g>
		<path fill="#757576" d="M577.872,229.934v5.174h-1.616v-11.931h4.322c1.306,0,2.304,0.29,2.992,0.869
			c0.689,0.58,1.033,1.421,1.033,2.526c0,0.612-0.159,1.145-0.479,1.599c-0.319,0.454-0.786,0.814-1.397,1.082
			c0.655,0.213,1.127,0.559,1.414,1.038s0.431,1.07,0.431,1.775v1.123c0,0.372,0.041,0.706,0.123,1
			c0.082,0.295,0.224,0.536,0.426,0.722v0.197h-1.664c-0.213-0.186-0.35-0.459-0.41-0.82s-0.09-0.733-0.09-1.115v-1.091
			c0-0.645-0.188-1.165-0.566-1.558c-0.377-0.394-0.883-0.59-1.517-0.59H577.872z M577.872,228.663h2.542
			c0.912,0,1.57-0.173,1.972-0.52c0.402-0.347,0.603-0.875,0.603-1.583c0-0.671-0.195-1.191-0.586-1.559s-0.999-0.553-1.824-0.553
			h-2.706V228.663z"/>
		<path fill="#757576" d="M590.763,235.281c-1.235,0-2.218-0.412-2.948-1.234c-0.729-0.823-1.095-1.89-1.095-3.202v-0.361
			c0-1.263,0.376-2.313,1.128-3.153c0.751-0.839,1.642-1.259,2.669-1.259c1.197,0,2.102,0.361,2.714,1.083s0.919,1.684,0.919,2.887
			v1.008h-5.757l-0.024,0.041c0.017,0.851,0.232,1.55,0.647,2.098c0.416,0.548,0.998,0.822,1.747,0.822
			c0.547,0,1.026-0.078,1.439-0.234c0.412-0.156,0.769-0.37,1.069-0.644l0.632,1.051c-0.317,0.313-0.735,0.575-1.255,0.784
			C592.129,235.176,591.501,235.281,590.763,235.281z M590.517,227.343c-0.541,0-1.003,0.228-1.386,0.683s-0.618,1.025-0.705,1.712
			l0.017,0.041h4.092v-0.212c0-0.632-0.17-1.161-0.509-1.585S591.184,227.343,590.517,227.343z"/>
		<path fill="#757576" d="M603.522,231.008c0,1.279-0.307,2.311-0.919,3.096c-0.612,0.784-1.457,1.177-2.533,1.177
			c-0.547,0-1.026-0.092-1.439-0.275s-0.764-0.458-1.054-0.824v4.338h-1.615v-12.284h1.238l0.254,1.148
			c0.29-0.426,0.65-0.751,1.082-0.976c0.433-0.224,0.936-0.336,1.509-0.336c1.1,0,1.953,0.436,2.562,1.308
			c0.61,0.872,0.915,2.024,0.915,3.456V231.008z M601.906,230.832c0-1.005-0.198-1.831-0.594-2.478
			c-0.396-0.647-0.98-0.971-1.751-0.971c-0.465,0-0.861,0.105-1.189,0.315c-0.327,0.21-0.593,0.499-0.795,0.864v4.283
			c0.202,0.366,0.468,0.651,0.795,0.856c0.328,0.205,0.73,0.307,1.206,0.307c0.765,0,1.345-0.28,1.738-0.84
			c0.394-0.56,0.59-1.281,0.59-2.166V230.832z"/>
		<path fill="#757576" d="M610.96,235.108c-0.055-0.268-0.098-0.504-0.128-0.709c-0.029-0.205-0.048-0.411-0.053-0.619
			c-0.301,0.427-0.693,0.783-1.177,1.07s-1.005,0.431-1.562,0.431c-0.924,0-1.627-0.236-2.111-0.709
			c-0.483-0.473-0.726-1.125-0.726-1.956c0-0.848,0.343-1.51,1.029-1.989c0.686-0.478,1.616-0.717,2.792-0.717h1.755v-0.877
			c0-0.52-0.159-0.931-0.476-1.234c-0.317-0.303-0.766-0.455-1.345-0.455c-0.52,0-0.942,0.133-1.267,0.398
			c-0.326,0.265-0.488,0.583-0.488,0.955h-1.542l-0.017-0.049c-0.032-0.645,0.272-1.236,0.915-1.771
			c0.642-0.536,1.472-0.804,2.488-0.804c1.006,0,1.815,0.256,2.428,0.767s0.918,1.248,0.918,2.209v4.272
			c0,0.317,0.017,0.623,0.049,0.918c0.033,0.295,0.094,0.585,0.181,0.869H610.96z M608.278,233.919c0.585,0,1.112-0.15,1.582-0.45
			c0.471-0.3,0.776-0.643,0.919-1.03V231h-1.812c-0.65,0-1.171,0.164-1.562,0.491c-0.392,0.327-0.587,0.711-0.587,1.153
			c0,0.393,0.123,0.704,0.369,0.933S607.797,233.919,608.278,233.919z"/>
		<path fill="#757576" d="M616.486,223.964h-1.615v-1.648h1.615V223.964z M616.486,235.108h-1.615v-8.873h1.615V235.108z"/>
		<path fill="#757576" d="M623.17,227.663l-0.828-0.049c-0.427,0-0.786,0.101-1.078,0.303c-0.293,0.202-0.519,0.487-0.677,0.853
			v6.339h-1.615v-8.873h1.443l0.155,1.296c0.252-0.459,0.562-0.817,0.931-1.074s0.794-0.386,1.275-0.386
			c0.12,0,0.235,0.01,0.345,0.029c0.108,0.019,0.199,0.04,0.271,0.062L623.17,227.663z"/>
	</g>
	<path fill="none" stroke="#757576" stroke-width="3" stroke-miterlimit="10" d="M778.621,257.112c0,4.909-3.405,8.888-7.604,8.888
		h-93.156c-4.199,0-7.604-3.979-7.604-8.888v-60.733c0-4.909,3.405-8.889,7.604-8.889h93.156c4.198,0,7.604,3.979,7.604,8.889
		V257.112z"/>
	
		<line fill="none" stroke="#757576" stroke-width="3" stroke-miterlimit="10" x1="670.257" y1="203.838" x2="778.621" y2="203.838"/>
	<circle fill="#757576" cx="770.389" cy="196.911" r="2.729"/>
	<circle fill="#757576" cx="760.943" cy="196.911" r="2.729"/>
	<circle fill="#757576" cx="750.867" cy="196.911" r="2.729"/>
	<g>
		<path fill="#757576" d="M703.192,224.439h-3.838v10.668h-1.615v-10.668h-3.83v-1.271h9.283V224.439z"/>
		<path fill="#757576" d="M708.309,227.662l-0.828-0.049c-0.427,0-0.786,0.101-1.078,0.303c-0.293,0.202-0.519,0.487-0.677,0.853
			v6.339h-1.615v-8.873h1.443l0.155,1.296c0.252-0.459,0.562-0.817,0.931-1.074s0.794-0.386,1.275-0.386
			c0.12,0,0.235,0.01,0.345,0.029c0.108,0.019,0.199,0.04,0.271,0.062L708.309,227.662z"/>
		<path fill="#757576" d="M715.32,235.108c-0.055-0.268-0.098-0.504-0.128-0.709c-0.029-0.205-0.048-0.411-0.053-0.619
			c-0.301,0.427-0.693,0.783-1.177,1.07s-1.005,0.431-1.562,0.431c-0.924,0-1.627-0.236-2.111-0.709
			c-0.483-0.473-0.726-1.125-0.726-1.956c0-0.848,0.343-1.51,1.029-1.989c0.686-0.478,1.616-0.717,2.792-0.717h1.755v-0.877
			c0-0.52-0.159-0.931-0.476-1.234c-0.317-0.303-0.766-0.455-1.345-0.455c-0.52,0-0.942,0.133-1.267,0.398
			c-0.326,0.265-0.488,0.583-0.488,0.955h-1.542l-0.017-0.049c-0.032-0.645,0.272-1.236,0.915-1.771
			c0.642-0.536,1.472-0.804,2.488-0.804c1.006,0,1.815,0.256,2.428,0.767s0.918,1.248,0.918,2.209v4.272
			c0,0.317,0.017,0.623,0.049,0.918c0.033,0.295,0.094,0.585,0.181,0.869H715.32z M712.639,233.919c0.585,0,1.112-0.15,1.582-0.45
			c0.471-0.3,0.776-0.643,0.919-1.03V231h-1.812c-0.65,0-1.171,0.164-1.562,0.491c-0.392,0.327-0.587,0.711-0.587,1.153
			c0,0.393,0.123,0.704,0.369,0.933S712.157,233.919,712.639,233.919z"/>
		<path fill="#757576" d="M718.731,230.835c0-1.427,0.305-2.577,0.914-3.452c0.609-0.875,1.464-1.312,2.562-1.312
			c0.52,0,0.98,0.096,1.382,0.287s0.745,0.47,1.029,0.836v-4.879h1.615v12.792h-1.32l-0.188-1.091
			c-0.29,0.416-0.646,0.73-1.066,0.943c-0.421,0.213-0.91,0.32-1.468,0.32c-1.082,0-1.93-0.393-2.542-1.177
			c-0.612-0.785-0.918-1.816-0.918-3.096V230.835z M720.347,231.008c0,0.896,0.184,1.614,0.55,2.152
			c0.366,0.539,0.935,0.808,1.705,0.808c0.481,0,0.886-0.109,1.214-0.328s0.596-0.525,0.804-0.918v-4.141
			c-0.208-0.366-0.478-0.657-0.808-0.873c-0.331-0.216-0.729-0.324-1.193-0.324c-0.776,0-1.349,0.32-1.718,0.959
			s-0.554,1.471-0.554,2.493V231.008z"/>
		<path fill="#757576" d="M732.327,235.28c-1.235,0-2.218-0.412-2.948-1.234c-0.729-0.823-1.095-1.89-1.095-3.202v-0.361
			c0-1.263,0.376-2.313,1.128-3.153c0.751-0.839,1.642-1.259,2.669-1.259c1.197,0,2.102,0.361,2.714,1.083s0.919,1.684,0.919,2.887
			v1.008h-5.757l-0.024,0.041c0.017,0.851,0.232,1.55,0.647,2.098c0.416,0.548,0.998,0.822,1.747,0.822
			c0.547,0,1.026-0.078,1.439-0.234c0.412-0.156,0.769-0.37,1.069-0.644l0.632,1.051c-0.317,0.313-0.735,0.575-1.255,0.784
			C733.693,235.176,733.065,235.28,732.327,235.28z M732.081,227.342c-0.541,0-1.003,0.228-1.386,0.683s-0.618,1.025-0.705,1.712
			l0.017,0.041h4.092v-0.212c0-0.632-0.17-1.161-0.509-1.585S732.748,227.342,732.081,227.342z"/>
		<path fill="#757576" d="M740.658,230.696h-4.018v-1.263h4.018V230.696z"/>
		<path fill="#757576" d="M744.136,235.108h-1.624v-11.939h1.624V235.108z"/>
		<path fill="#757576" d="M748.318,226.235l0.114,1.32c0.295-0.47,0.666-0.835,1.111-1.095s0.952-0.39,1.521-0.39
			c0.956,0,1.697,0.28,2.222,0.841c0.524,0.56,0.787,1.425,0.787,2.595v5.601h-1.615v-5.568c0-0.782-0.154-1.336-0.463-1.665
			c-0.31-0.328-0.781-0.492-1.415-0.492c-0.465,0-0.876,0.112-1.234,0.336c-0.357,0.224-0.644,0.53-0.856,0.918v6.47h-1.615v-8.873
			H748.318z"/>
	</g>
	<path fill="none" stroke="#757576" stroke-width="3" stroke-miterlimit="10" d="M912.244,257.112c0,4.909-3.405,8.888-7.604,8.888
		h-93.155c-4.2,0-7.604-3.979-7.604-8.888v-60.733c0-4.909,3.404-8.889,7.604-8.889h93.155c4.199,0,7.604,3.979,7.604,8.889V257.112
		z"/>
	<line fill="none" stroke="#757576" stroke-width="3" stroke-miterlimit="10" x1="803.88" y1="203.838" x2="912.244" y2="203.838"/>
	<circle fill="#757576" cx="904.012" cy="196.911" r="2.729"/>
	<circle fill="#757576" cx="894.566" cy="196.911" r="2.729"/>
	<circle fill="#757576" cx="884.489" cy="196.911" r="2.729"/>
	<g>
		<path fill="#757576" d="M810.48,235.108v-11.939h3.666c1.563,0,2.817,0.48,3.764,1.439c0.945,0.959,1.419,2.199,1.419,3.719v1.632
			c0,1.525-0.474,2.765-1.419,3.719c-0.946,0.954-2.2,1.431-3.764,1.431H810.48z M812.097,224.439v9.397h2.05
			c1.104,0,1.975-0.363,2.611-1.089c0.637-0.727,0.955-1.658,0.955-2.794v-1.647c0-1.125-0.318-2.051-0.955-2.777
			s-1.507-1.09-2.611-1.09H812.097z"/>
		<path fill="#757576" d="M824.921,235.28c-1.235,0-2.218-0.412-2.948-1.234c-0.729-0.823-1.095-1.89-1.095-3.202v-0.361
			c0-1.263,0.376-2.313,1.128-3.153c0.751-0.839,1.642-1.259,2.669-1.259c1.197,0,2.102,0.361,2.714,1.083s0.919,1.684,0.919,2.887
			v1.008h-5.757l-0.024,0.041c0.017,0.851,0.232,1.55,0.647,2.098c0.416,0.548,0.998,0.822,1.747,0.822
			c0.547,0,1.026-0.078,1.439-0.234c0.412-0.156,0.769-0.37,1.069-0.644l0.632,1.051c-0.317,0.313-0.735,0.575-1.255,0.784
			C826.287,235.176,825.659,235.28,824.921,235.28z M824.675,227.342c-0.541,0-1.003,0.228-1.386,0.683s-0.618,1.025-0.705,1.712
			l0.017,0.041h4.092v-0.212c0-0.632-0.17-1.161-0.509-1.585S825.342,227.342,824.675,227.342z"/>
		<path fill="#757576" d="M837.681,231.008c0,1.279-0.307,2.311-0.919,3.096c-0.612,0.784-1.457,1.177-2.533,1.177
			c-0.547,0-1.026-0.092-1.439-0.275s-0.764-0.458-1.054-0.824v4.338h-1.615v-12.284h1.238l0.254,1.148
			c0.29-0.426,0.65-0.751,1.082-0.976c0.433-0.224,0.936-0.336,1.509-0.336c1.1,0,1.953,0.436,2.562,1.308
			c0.61,0.872,0.915,2.024,0.915,3.456V231.008z M836.064,230.832c0-1.005-0.198-1.831-0.594-2.478
			c-0.396-0.647-0.98-0.971-1.751-0.971c-0.465,0-0.861,0.105-1.189,0.315c-0.327,0.21-0.593,0.499-0.795,0.864v4.283
			c0.202,0.366,0.468,0.651,0.795,0.856c0.328,0.205,0.73,0.307,1.206,0.307c0.765,0,1.345-0.28,1.738-0.84
			c0.394-0.56,0.59-1.281,0.59-2.166V230.832z"/>
		<path fill="#757576" d="M845.118,235.108c-0.055-0.268-0.098-0.504-0.128-0.709c-0.029-0.205-0.048-0.411-0.053-0.619
			c-0.301,0.427-0.693,0.783-1.177,1.07s-1.005,0.431-1.562,0.431c-0.924,0-1.627-0.236-2.111-0.709
			c-0.483-0.473-0.726-1.125-0.726-1.956c0-0.848,0.343-1.51,1.029-1.989c0.686-0.478,1.616-0.717,2.792-0.717h1.755v-0.877
			c0-0.52-0.159-0.931-0.476-1.234c-0.317-0.303-0.766-0.455-1.345-0.455c-0.52,0-0.942,0.133-1.267,0.398
			c-0.326,0.265-0.488,0.583-0.488,0.955h-1.542l-0.017-0.049c-0.032-0.645,0.272-1.236,0.915-1.771
			c0.642-0.536,1.472-0.804,2.488-0.804c1.006,0,1.815,0.256,2.428,0.767s0.918,1.248,0.918,2.209v4.272
			c0,0.317,0.017,0.623,0.049,0.918c0.033,0.295,0.094,0.585,0.181,0.869H845.118z M842.437,233.919c0.585,0,1.112-0.15,1.582-0.45
			c0.471-0.3,0.776-0.643,0.919-1.03V231h-1.812c-0.65,0-1.171,0.164-1.562,0.491c-0.392,0.327-0.587,0.711-0.587,1.153
			c0,0.393,0.123,0.704,0.369,0.933S841.955,233.919,842.437,233.919z"/>
		<path fill="#757576" d="M853.097,227.662l-0.828-0.049c-0.427,0-0.786,0.101-1.078,0.303c-0.293,0.202-0.519,0.487-0.677,0.853
			v6.339h-1.615v-8.873h1.443l0.155,1.296c0.252-0.459,0.562-0.817,0.931-1.074s0.794-0.386,1.275-0.386
			c0.12,0,0.235,0.01,0.345,0.029c0.108,0.019,0.199,0.04,0.271,0.062L853.097,227.662z"/>
		<path fill="#757576" d="M856.927,224.095v2.14h1.681v1.197h-1.681v5.388c0,0.416,0.086,0.708,0.258,0.877
			c0.173,0.17,0.4,0.254,0.686,0.254c0.093,0,0.195-0.011,0.307-0.033c0.112-0.022,0.212-0.049,0.3-0.082l0.213,1.107
			c-0.12,0.099-0.296,0.179-0.528,0.242c-0.232,0.062-0.467,0.094-0.701,0.094c-0.656,0-1.179-0.198-1.566-0.595
			c-0.389-0.396-0.582-1.018-0.582-1.865v-5.388H853.9v-1.197h1.411v-2.14H856.927z"/>
		<path fill="#757576" d="M862.044,226.235l0.114,1.165c0.29-0.421,0.657-0.748,1.104-0.98c0.445-0.232,0.963-0.349,1.554-0.349
			c0.59,0,1.097,0.137,1.521,0.41s0.742,0.684,0.956,1.23c0.278-0.503,0.647-0.902,1.106-1.197c0.459-0.295,0.995-0.443,1.607-0.443
			c0.902,0,1.615,0.311,2.141,0.931c0.524,0.621,0.787,1.554,0.787,2.8v5.306h-1.616v-5.322c0-0.875-0.15-1.494-0.45-1.857
			c-0.301-0.363-0.749-0.545-1.345-0.545c-0.553,0-1,0.191-1.341,0.574c-0.342,0.383-0.543,0.867-0.604,1.451v0.066v5.633h-1.623
			v-5.322c0-0.831-0.154-1.439-0.464-1.825c-0.309-0.385-0.753-0.578-1.332-0.578c-0.492,0-0.896,0.102-1.214,0.304
			c-0.316,0.202-0.561,0.486-0.729,0.853v6.568h-1.615v-8.873H862.044z"/>
		<path fill="#757576" d="M878.96,235.28c-1.235,0-2.218-0.412-2.948-1.234c-0.729-0.823-1.095-1.89-1.095-3.202v-0.361
			c0-1.263,0.376-2.313,1.128-3.153c0.751-0.839,1.642-1.259,2.669-1.259c1.197,0,2.102,0.361,2.714,1.083s0.919,1.684,0.919,2.887
			v1.008h-5.757l-0.024,0.041c0.017,0.851,0.232,1.55,0.647,2.098c0.416,0.548,0.998,0.822,1.747,0.822
			c0.547,0,1.026-0.078,1.439-0.234c0.412-0.156,0.769-0.37,1.069-0.644l0.632,1.051c-0.317,0.313-0.735,0.575-1.255,0.784
			C880.326,235.176,879.698,235.28,878.96,235.28z M878.714,227.342c-0.541,0-1.003,0.228-1.386,0.683s-0.618,1.025-0.705,1.712
			l0.017,0.041h4.092v-0.212c0-0.632-0.17-1.161-0.509-1.585S879.381,227.342,878.714,227.342z"/>
		<path fill="#757576" d="M885.603,226.235l0.114,1.32c0.295-0.47,0.666-0.835,1.111-1.095s0.952-0.39,1.521-0.39
			c0.956,0,1.697,0.28,2.222,0.841c0.524,0.56,0.787,1.425,0.787,2.595v5.601h-1.615v-5.568c0-0.782-0.154-1.336-0.463-1.665
			c-0.31-0.328-0.781-0.492-1.415-0.492c-0.465,0-0.876,0.112-1.234,0.336c-0.357,0.224-0.644,0.53-0.856,0.918v6.47h-1.615v-8.873
			H885.603z"/>
		<path fill="#757576" d="M895.836,224.095v2.14h1.681v1.197h-1.681v5.388c0,0.416,0.086,0.708,0.258,0.877
			c0.173,0.17,0.4,0.254,0.686,0.254c0.093,0,0.195-0.011,0.307-0.033c0.112-0.022,0.212-0.049,0.3-0.082l0.213,1.107
			c-0.12,0.099-0.296,0.179-0.528,0.242c-0.232,0.062-0.467,0.094-0.701,0.094c-0.656,0-1.179-0.198-1.566-0.595
			c-0.389-0.396-0.582-1.018-0.582-1.865v-5.388h-1.411v-1.197h1.411v-2.14H895.836z"/>
		<path fill="#757576" d="M904.667,232.746c0-0.355-0.135-0.647-0.405-0.877c-0.271-0.229-0.783-0.429-1.538-0.598
			c-1.077-0.235-1.887-0.553-2.431-0.954c-0.544-0.401-0.816-0.948-0.816-1.642c0-0.72,0.307-1.334,0.919-1.842
			c0.611-0.508,1.41-0.762,2.394-0.762c1.033,0,1.854,0.266,2.465,0.795c0.609,0.53,0.9,1.176,0.873,1.936l-0.017,0.049h-1.541
			c0-0.388-0.163-0.736-0.488-1.045c-0.325-0.309-0.756-0.463-1.292-0.463c-0.573,0-1,0.126-1.278,0.377
			c-0.279,0.251-0.419,0.555-0.419,0.91c0,0.35,0.123,0.626,0.369,0.828s0.746,0.383,1.501,0.542c1.12,0.24,1.954,0.567,2.501,0.979
			c0.547,0.413,0.82,0.966,0.82,1.661c0,0.787-0.319,1.424-0.956,1.911c-0.637,0.487-1.469,0.73-2.497,0.73
			c-1.131,0-2.022-0.287-2.673-0.861c-0.65-0.574-0.959-1.244-0.927-2.009l0.017-0.049h1.542c0.027,0.571,0.24,0.989,0.64,1.252
			c0.398,0.264,0.866,0.396,1.401,0.396c0.574,0,1.024-0.116,1.35-0.349S904.667,233.124,904.667,232.746z"/>
	</g>
</g>
<g id="Layer_2">
	<polyline fill="none" stroke="#757576" stroke-width="4" stroke-linejoin="round" stroke-miterlimit="10" points="78.563,187.49 
		78.563,156 863,156 863,187.49 	"/>
	
		<line fill="none" stroke="#757576" stroke-width="4" stroke-linejoin="round" stroke-miterlimit="10" x1="212.913" y1="187.49" x2="212.913" y2="156"/>
	
		<line fill="none" stroke="#757576" stroke-width="4" stroke-linejoin="round" stroke-miterlimit="10" x1="212.913" y1="353.907" x2="212.913" y2="266"/>
	
		<line fill="none" stroke="#757576" stroke-width="4" stroke-linejoin="round" stroke-miterlimit="10" x1="343.064" y1="187.49" x2="343.064" y2="156"/>
	
		<line fill="none" stroke="#757576" stroke-width="4" stroke-linejoin="round" stroke-miterlimit="10" x1="468" y1="187.49" x2="468" y2="156"/>
	
		<line fill="none" stroke="#757576" stroke-width="4" stroke-linejoin="round" stroke-miterlimit="10" x1="468" y1="156" x2="468" y2="117.967"/>
	
		<line fill="none" stroke="#757576" stroke-width="4" stroke-linejoin="round" stroke-miterlimit="10" x1="599.167" y1="187.49" x2="599.167" y2="156"/>
	
		<line fill="none" stroke="#757576" stroke-width="4" stroke-linejoin="round" stroke-miterlimit="10" x1="724.439" y1="187.49" x2="724.439" y2="156"/>
	<polyline fill="none" stroke="#757576" stroke-width="4" stroke-linejoin="round" stroke-miterlimit="10" points="78.563,266 
		78.563,353.907 416.303,353.907 	"/>
</g>
</svg>
