<?xml version="1.0" encoding="utf-8"?>
<!-- Generator: Adobe Illustrator 16.0.4, SVG Export Plug-In . SVG Version: 6.00 Build 0)  -->
<!DOCTYPE svg PUBLIC "-//W3C//DTD SVG 1.1//EN" "http://www.w3.org/Graphics/SVG/1.1/DTD/svg11.dtd">
<svg version="1.1" id="Layer_1" xmlns="http://www.w3.org/2000/svg" xmlns:xlink="http://www.w3.org/1999/xlink" x="0px" y="0px"
	 width="200px" height="40px" viewBox="0 0 200 40" enable-background="new 0 0 200 40" xml:space="preserve">
<g id="Layer_1_1_">
	<path fill="#F84644" d="M57,17l-3,8l8-3.1l3.1-8L57,17z"/>
	<path fill="#464C50" d="M153,10v21h-26V10H153 M155,8h-30v25h30V8L155,8z"/>
	<rect x="131" y="5" fill="#464C50" width="3" height="4.9"/>
	<rect x="146" y="5" fill="#464C50" width="3" height="4.9"/>
	<g>
		<rect x="173.1" y="21" fill="#F84644" width="2" height="6"/>
	</g>
	<g>
		<rect x="179" y="18" fill="#F84644" width="2" height="9"/>
	</g>
	<g>
		<rect x="185.1" y="15" fill="#F84644" width="2" height="12"/>
	</g>
	<path fill="#464C50" d="M192.1,9v22h-24V9H192.1 M194.1,7h-28v26h28V7L194.1,7z"/>
	<circle fill="none" stroke="#464C50" stroke-width="2" stroke-miterlimit="10" cx="59.5" cy="19.5" r="13.5"/>
	<polygon fill="#F84644" points="147.2,16.1 145.8,14.7 138,22.5 134.2,18.7 132.8,20.1 138,25.3 138,25.3 138,25.3 	"/>
</g>
<g id="Layer_3">
	<path fill="#E2E248" d="M115.029,19.696c0,0,0.607,0.69,0.607,1.133c0,0.444,0,1.428,0,1.428s-0.133,0.984-1.265,1.87
		c-1.132,0.887-6.22,3.578-7.908,4.217c-1.69,0.641-9.272,3.086-9.272,3.086s-2.282,0.983-4.595,0.295s-6.531-3.02-7.516-4.035
		c-0.985-1.019-1.51-1.756-1.51-1.756s-0.558-0.41,0.147-1.985c0.707-1.575,3.233-3.479,3.233-3.479s0.033,1.28,0.525,2.002
		c0.492,0.723,1.067,1.035,1.067,1.035s-0.05,0.51,0.064,0.705c0.115,0.196,1.396,1.05,1.396,1.05l2.461,1.279
		c0,0,1.378,0.033,1.805-0.181c0,0,1.1,0.377,2.379,0.346c1.28-0.033,4.448-0.673,4.448-0.673s-3.396,0.114-4.185-0.198
		c-0.788-0.311-1.51-0.854-1.51-0.9c0-0.051,0.028-5.175,0.509-6.793c0.481-1.62,0.766-2.954,1.597-3.698
		c0.831-0.744,1.903-1.882,4.376-2.582c2.473-0.7,3.764-1.138,5.579-1.204c1.815-0.066,1.991-0.109,1.991-0.109
		s0.064-0.306-0.196-0.306c-0.264,0-3.721-0.285-6.39,0.306c-2.67,0.59-5.36,1.488-6.717,3.15c-1.356,1.664-1.663,2.888-1.882,4.07
		c-0.218,1.182-0.831,7.767-0.831,7.767s-2.604-0.568-3.808-2.015c0,0,0.46-7.329,1.795-9.166c1.334-1.839,1.181-1.685,2.472-2.495
		s4.792-2.167,8.665-2.91c0,0-6.213,0.853-9.059,2.582c-2.845,1.729-3.5,4.748-3.5,4.748l-0.897,5.099c0,0-1.028-0.635-1.028-1.27
		c0-0.635,0.918-5.186,1.882-6.652c0.962-1.465,1.707-2.537,3.172-3.237c1.465-0.7,4.507-2.232,8.27-2.188
		c3.764,0.043,8.009,1.137,9.256,2.166c1.246,1.028,3.632,3.544,3.632,6.607c0,3.064,0.196,3.195,0,3.61
		c-0.196,0.416-2.274,1.969-2.69,1.969l0.043,0.547c0,0,2.517-1.115,2.758-1.553C114.641,20.938,115.023,20.271,115.029,19.696z"/>
</g>
<ellipse transform="matrix(-0.7321 0.6812 -0.6812 -0.7321 48.5028 -0.5664)" opacity="0.5" fill="#92D7EC" cx="24.363" cy="9.254" rx="8.482" ry="4.312"/>
<ellipse fill="#F5ED64" cx="21.671" cy="21.196" rx="16.124" ry="10.312"/>
<circle fill="#6B652A" cx="39.971" cy="11.682" r="0.455"/>
<circle fill="#6B652A" cx="36.432" cy="12.136" r="0.455"/>
<ellipse fill="#F5ED64" cx="29.81" cy="20.771" rx="7.881" ry="8.584"/>
<path fill="none" stroke="#6B652A" stroke-width="0.25" stroke-miterlimit="10" d="M32.37,22.804c0,0,0.168,0.824,0.706,0.824
	s0.713-0.824,0.713-0.824"/>
<circle fill="#FFFFFF" cx="29.227" cy="19.784" r="1.844"/>
<circle fill="#FFFFFF" cx="35.513" cy="19.331" r="1.844"/>
<circle fill="#6B652A" cx="29.589" cy="19.899" r="1.274"/>
<circle fill="#6B652A" cx="35.928" cy="19.524" r="1.274"/>
<path fill="#6B652A" d="M28.314,30.595c0,0-3.951-3.307-3.951-10.24c0-6.931,3.951-8.559,3.951-8.559s-2.908-0.709-3.487-0.666
	c0,0-2.681,2.724-2.681,9.227c0,6.502,3.084,10.9,3.084,10.9S27.584,30.872,28.314,30.595z"/>
<path fill="#6B652A" d="M20.709,31.509c0,0-4.292-4.221-4.292-11.154c0-6.931,3.928-9.439,3.928-9.439s-2.885,0.171-3.464,0.214
	c0,0-2.681,2.724-2.681,9.227c0,6.502,2.983,10.748,2.983,10.748S19.757,31.491,20.709,31.509z"/>
<path fill="#6B652A" d="M13.447,30.069c0,0-3.444-4.029-3.444-10.963c0-3.349,2.584-6.434,2.584-6.434s-2.297,1.032-2.972,1.774
	c0,0-1.829,2.31-1.829,4.66c0,6.504,2.462,9.369,2.462,9.369S12.489,29.812,13.447,30.069z"/>
<path fill="#6B652A" d="M5.642,20.069l-3.39,1.559l3.53,1.334C5.782,22.962,5.353,21.603,5.642,20.069z"/>
<ellipse transform="matrix(0.8673 0.4978 -0.4978 0.8673 6.7223 -5.3777)" opacity="0.5" fill="#92D7EC" cx="13.447" cy="9.918" rx="8.482" ry="4.311"/>
<ellipse fill="#231F20" cx="28.357" cy="13.891" rx="4.983" ry="1.793"/>
<ellipse fill="#302978" cx="29.777" cy="10.597" rx="4.699" ry="3.633"/>
<ellipse fill="#302978" cx="27.25" cy="11.905" rx="5.829" ry="2.907"/>
<ellipse fill="#100F40" cx="28.089" cy="9.397" rx="0.587" ry="0.368"/>
<path fill="none" stroke="#6B652A" stroke-width="0.5" stroke-miterlimit="10" d="M33.789,16.906c0,0,2.884-5.351,6.182-5.351"/>
<path fill="none" stroke="#6B652A" stroke-width="0.5" stroke-miterlimit="10" d="M30.25,17.487c0,0,2.883-5.351,6.181-5.351"/>
<path fill="#CCB67F" d="M31.357,28.937c0,0.574-1.411-0.221-2.396,0.764c-0.823,0.824,0.962,1.654,0.39,1.99
	c-1.456,0.855-3.58,1.393-5.945,1.393c-4.391,0-7.951-1.855-7.951-4.146c0-2.289,3.56-4.145,7.951-4.145
	c2.745,0,5.164,0.725,6.593,1.828C30.857,27.28,31.357,28.079,31.357,28.937z"/>
<ellipse fill="#F5ED64" cx="29.16" cy="27.989" rx="0.65" ry="0.549"/>
<rect x="24.585" y="26.155" fill="none" width="2.519" height="1.107"/>
<text transform="matrix(1 0 0 1 24.585 26.9805)" fill="#661011" font-family="'MyriadPro-Regular'" font-size="1.1627">{CSS}</text>
<rect x="20.475" y="26.155" fill="none" width="3.343" height="1.744"/>
<text transform="matrix(1 0 0 1 20.4751 26.9805)" fill="#3B52A3" font-family="'MyriadPro-Regular'" font-size="1.1627">{SASS}</text>
<rect x="16.059" y="27.452" fill="none" width="4.23" height="1.744"/>
<text transform="matrix(1 0 0 1 16.0586 28.2773)" fill="#66BB46" font-family="'MyriadPro-Regular'" font-size="1.1627">&lt;HTML&gt;</text>
</svg>
