<?xml version="1.0" encoding="utf-8"?>
<!-- Generator: Adobe Illustrator 16.0.4, SVG Export Plug-In . SVG Version: 6.00 Build 0)  -->
<!DOCTYPE svg PUBLIC "-//W3C//DTD SVG 1.1//EN" "http://www.w3.org/Graphics/SVG/1.1/DTD/svg11.dtd">
<svg version="1.1" id="Layer_1" xmlns="http://www.w3.org/2000/svg" xmlns:xlink="http://www.w3.org/1999/xlink" x="0px" y="0px"
	 width="300px" height="300px" viewBox="0 0 300 300" enable-background="new 0 0 300 300" xml:space="preserve">
<g id="Layer_1_1_">
	<circle fill="#DE6162" cx="150" cy="150.554" r="131.676"/>
</g>
<g id="Layer_10">
	<path fill="#C24950" d="M281.676,150.555c0,72.723-58.953,131.676-131.676,131.676l-66.044-65.838L215.691,84.307L281.676,150.555z
		"/>
</g>
<g id="Layer_3">
	<path fill="#FFF9E8" d="M219.25,208.648c0,6.162-4.994,11.152-11.154,11.152H91.904c-6.16,0-11.154-4.99-11.154-11.152V92.458
		c0-6.16,4.994-11.154,11.154-11.154h116.192c6.159,0,11.153,4.994,11.153,11.154L219.25,208.648L219.25,208.648z"/>
</g>
<g id="Layer_5">
	<path fill="#8A5B4C" d="M80.75,129.667V92.458c0-6.16,4.994-11.154,11.154-11.154h116.192c6.159,0,11.153,4.994,11.153,11.154
		v37.208L80.75,129.667L80.75,129.667z"/>
</g>
<g id="Layer_8">
	<rect x="118.001" y="81.304" fill="#69C7F1" width="9.333" height="48.363"/>
	<rect x="108.668" y="81.304" fill="#51BA69" width="9.333" height="48.363"/>
	<rect x="99.335" y="81.304" fill="#FFD239" width="9.333" height="48.363"/>
	<rect x="90.002" y="81.304" fill="#EF3E38" width="9.333" height="48.363"/>
</g>
<g id="Layer_7">
	<circle fill="#D0CBC4" cx="150" cy="153.589" r="40.41"/>
	<circle fill="#434359" cx="149.548" cy="153.589" r="31.933"/>
	<circle fill="#636281" cx="150" cy="153.59" r="21.363"/>
	<circle fill="#434359" cx="150" cy="153.59" r="12.307"/>
	<circle fill="#73738E" cx="161.123" cy="139.162" r="6.905"/>
</g>
<g id="Layer_6">
	<circle fill="#434359" cx="196.15" cy="106.335" r="11.065"/>
	<circle fill="#636281" cx="196.15" cy="106.335" r="4.646"/>
	<circle fill="#73738E" cx="196.15" cy="106.336" r="2.422"/>
</g>
</svg>
