<?xml version="1.0" encoding="utf-8"?>
<!-- Generator: Adobe Illustrator 16.0.4, SVG Export Plug-In . SVG Version: 6.00 Build 0)  -->
<!DOCTYPE svg PUBLIC "-//W3C//DTD SVG 1.1//EN" "http://www.w3.org/Graphics/SVG/1.1/DTD/svg11.dtd">
<svg version="1.1" xmlns="http://www.w3.org/2000/svg" xmlns:xlink="http://www.w3.org/1999/xlink" x="0px" y="0px" width="300px"
	 height="300px" viewBox="0 0 300 300" enable-background="new 0 0 300 300" xml:space="preserve">
<g id="Layer_3">
	<circle fill="#0583BE" cx="150" cy="149.554" r="131.676"/>
</g>
<g id="Layer_7">
	<path fill="#03739A" d="M195.897,273.456c42.045-15.636,73.94-52.138,83.104-96.919l-64.668-63.871L156.75,122.75l-29,10.25
		l-1.25,70L195.897,273.456z"/>
</g>
<g id="Layer_8">
	<path fill="#03739A" d="M245.103,240.625c-23.562,24.599-56.572,40.072-93.198,40.591L76.5,203l32.25-97.5L245.103,240.625z"/>
</g>
<g id="Layer_4">
	<circle fill="#FFF9E8" cx="92.625" cy="75.25" r="17.875"/>
	<rect x="76.5" y="105.5" fill="#FFF9E8" width="32.25" height="97.5"/>
	<rect x="126.5" y="105.5" fill="#FFF9E8" width="32.25" height="97.5"/>
	<path fill="#FFF9E8" d="M192.656,203.344h32.5c0,0,0-52.24,0-60.125c0-7.885-2.5-39.375-35.25-39.375
		c-25.375,0-31.5,16.125-31.5,16.125l0.344,25.614c0,0,2.531-16.114,19.656-16.114c14.375,0,14.5,24.75,14.5,31.75
		S192.656,203.344,192.656,203.344z"/>
	<path fill="#FFF9E8" d="M237,136.167"/>
</g>
</svg>
