<?xml version="1.0" encoding="utf-8"?>
<!-- Generator: Adobe Illustrator 16.0.4, SVG Export Plug-In . SVG Version: 6.00 Build 0)  -->
<!DOCTYPE svg PUBLIC "-//W3C//DTD SVG 1.1//EN" "http://www.w3.org/Graphics/SVG/1.1/DTD/svg11.dtd">
<svg version="1.1" id="Layer_1" xmlns="http://www.w3.org/2000/svg" xmlns:xlink="http://www.w3.org/1999/xlink" x="0px" y="0px"
	 width="300px" height="300px" viewBox="0 0 300 300" enable-background="new 0 0 300 300" xml:space="preserve">
<g id="Layer_3_2_">
	<rect x="-6.5" fill="#0583BE" width="310" height="300"/>
</g>
<g id="Layer_2">
	<g id="Layer_7_1_">
		<path fill="#03739A" d="M282.471,361.029c42.045-15.637,73.94-52.139,83.104-96.92L213.333,112.666L155.75,122.75l-29,10.25
			l-1.25,70L282.471,361.029z"/>
	</g>
	<g id="Layer_8_1_">
		<path fill="#03739A" d="M321.489,318.011c-23.562,24.601-56.572,40.072-93.199,40.591L75.5,203l32.25-97.5L321.489,318.011z"/>
	</g>
	<g id="Layer_4_1_">
		<circle fill="#FFF9E8" cx="91.625" cy="75.25" r="17.875"/>
		<rect x="75.5" y="105.5" fill="#FFF9E8" width="32.25" height="97.5"/>
		<rect x="125.5" y="105.5" fill="#FFF9E8" width="32.25" height="97.5"/>
		<path fill="#FFF9E8" d="M191.656,203.344h32.5c0,0,0-52.24,0-60.125s-2.5-39.375-35.25-39.375c-25.375,0-31.5,16.125-31.5,16.125
			v26.156c0,0,2.875-16.656,20-16.656c14.375,0,14.5,24.75,14.5,31.75S191.656,203.344,191.656,203.344z"/>
		<path fill="#FFF9E8" d="M236,136.167"/>
	</g>
</g>
</svg>
