<?xml version="1.0" encoding="utf-8"?>
<!-- Generator: Adobe Illustrator 16.0.4, SVG Export Plug-In . SVG Version: 6.00 Build 0)  -->
<!DOCTYPE svg PUBLIC "-//W3C//DTD SVG 1.1//EN" "http://www.w3.org/Graphics/SVG/1.1/DTD/svg11.dtd">
<svg version="1.1" xmlns="http://www.w3.org/2000/svg" xmlns:xlink="http://www.w3.org/1999/xlink" x="0px" y="0px" width="300px"
	 height="300px" viewBox="0 0 300 300" enable-background="new 0 0 300 300" xml:space="preserve">
<g id="Layer_2">
	<rect fill="#DE6162" width="300" height="317"/>
</g>
<g id="Layer_1">
	<g id="Layer_9">
		<path fill="#C24950" d="M340.236,216.289c-3.242,69.289-60.038,124.577-129.934,125.408C209.771,341.703,150.533,283,150,283
			l-82.552-85.259l161.483-90.446L340.236,216.289z"/>
	</g>
	<g id="Layer_3">
		<rect x="67.448" y="107.295" fill="#FFF9E8" width="161.483" height="90.446"/>
	</g>
	<g id="Layer_4">
		<polygon fill="#C6C6C5" points="67.448,107.295 151.684,159.895 228.932,107.295 		"/>
	</g>
	<g id="Layer_5">
		<polygon fill="#F4EDDC" points="67.448,107.46 151.684,153.712 228.932,107.46 		"/>
	</g>
	<g id="Layer_6">
		<path fill="#636281" d="M166.01,154.518c1.596,2.577,2.518,5.616,2.518,8.873c0,9.323-7.56,16.885-16.883,16.885
			c-9.326,0-16.885-7.562-16.885-16.885c0-3.259,0.923-6.298,2.521-8.877L166.01,154.518z"/>
	</g>
	<g id="Layer_8">
		<path fill="#434359" d="M137.278,154.514c2.975,5.907,7.968,10.611,14.037,10.611s11.717-4.702,14.692-10.607L137.278,154.514z"/>
	</g>
	<g id="Layer_7">
		<path fill="#636281" d="M137.278,154.514c2.975,4.807,8.297,8.01,14.367,8.01c6.067,0,11.387-3.201,14.362-8.006L137.278,154.514z
			"/>
		<polyline opacity="0.3" fill="#434359" enable-background="new    " points="143.046,154.514 159.584,154.516 151.684,159.895 
			143.046,154.514 		"/>
	</g>
</g>
</svg>
