<?xml version="1.0" encoding="utf-8"?>
<!-- Generator: Adobe Illustrator 16.0.4, SVG Export Plug-In . SVG Version: 6.00 Build 0)  -->
<!DOCTYPE svg PUBLIC "-//W3C//DTD SVG 1.1//EN" "http://www.w3.org/Graphics/SVG/1.1/DTD/svg11.dtd">
<svg version="1.1" xmlns="http://www.w3.org/2000/svg" xmlns:xlink="http://www.w3.org/1999/xlink" x="0px" y="0px" width="300px"
	 height="300px" viewBox="0 0 300 300" enable-background="new 0 0 300 300" xml:space="preserve">
<g id="Layer_2">
	<circle fill="#DE6162" cx="150" cy="151.324" r="131.676"/>
</g>
<g id="Layer_9">
	<path fill="#C24950" d="M281.53,157.583c-3.243,69.289-60.039,124.577-129.935,125.408C151.064,282.997,150.533,283,150,283
		l-82.552-85.259l161.484-90.446L281.53,157.583z"/>
</g>
<g id="Layer_3">
	<rect x="67.448" y="107.295" fill="#FFF9E8" width="161.484" height="90.446"/>
</g>
<g id="Layer_4">
	<polygon fill="#C6C6C5" points="67.448,107.295 151.684,159.894 228.932,107.295 	"/>
</g>
<g id="Layer_5">
	<polygon fill="#F4EDDC" points="67.448,107.46 151.684,153.712 228.932,107.46 	"/>
</g>
<g id="Layer_6">
	<path fill="#636281" d="M166.01,154.517c1.596,2.578,2.518,5.617,2.518,8.873c0,9.324-7.56,16.885-16.884,16.885
		c-9.325,0-16.884-7.561-16.884-16.885c0-3.258,0.923-6.297,2.521-8.877L166.01,154.517z"/>
</g>
<g id="Layer_8">
	<path fill="#434359" d="M137.278,154.513c2.975,5.908,7.968,10.612,14.037,10.612c6.068,0,11.716-4.702,14.692-10.608
		L137.278,154.513z"/>
</g>
<g id="Layer_7">
	<path fill="#636281" d="M137.278,154.513c2.975,4.807,8.297,8.01,14.366,8.01c6.068,0,11.387-3.201,14.363-8.006L137.278,154.513z"
		/>
	<polyline opacity="0.3" fill="#434359" points="143.046,154.513 159.584,154.515 151.684,159.894 143.046,154.513 	"/>
</g>
</svg>
