<?xml version="1.0" encoding="utf-8"?>
<!-- Generator: Adobe Illustrator 16.0.4, SVG Export Plug-In . SVG Version: 6.00 Build 0)  -->
<!DOCTYPE svg PUBLIC "-//W3C//DTD SVG 1.1//EN" "http://www.w3.org/Graphics/SVG/1.1/DTD/svg11.dtd">
<svg version="1.1" xmlns="http://www.w3.org/2000/svg" xmlns:xlink="http://www.w3.org/1999/xlink" x="0px" y="0px" width="300px"
	 height="300px" viewBox="0 0 300 300" enable-background="new 0 0 300 300" xml:space="preserve">
<g id="Layer_2">
	<rect fill="#0883BE" width="300" height="300"/>
</g>
<g id="Layer_1">
	<g id="Layer_6">
		<path fill="#01739A" d="M220.377,343.219c66.48-3.59,119.852-56.494,124.176-122.776l-84.389-84.398L155.25,154.75l-76.5,13.5
			l-17.774,15.414L220.377,343.219z"/>
	</g>
	<g id="Layer_4">
		<path fill="#F6EB14" d="M66.889,181.12l-5.913,2.544c0,0-2.877-18.487-0.512-22.744c0,0-6.031-0.593-6.701-2.288
			c0,0,4.218-3.704,6.78-4.178c0,0,0.63-8.121-0.217-9.145l16.3-6.7c0,0,0.984-6.583,2.207-9.105l17.85-7.235l4.54,9.994
			l0.946,17.816l6.78,1.892l1.577-0.512c0,0,1.946-1.048,3.653-1.19c1.706-0.141,4.191,0.206,4.191,0.206l17.882-7.607l0.606,0.983
			c0,0,17.818-5.873,18.289-5.952c0.476-0.079,1.185-11.314,4.732-14.309l17.43-6.992l4.174,5.651l11.352-4.101
			c0,0,6.307,12.614,6.387,15.295c0.078,2.68,2.143,6.401,2.143,6.401l4.166-1.986l2.836,4.177l1.623-0.511l10.679-3.745
			l2.302,0.824l11.809-4.53l5.203,5.439l2.603,0.79l17.583-4.258c0,0,3.941,14.742-8.91,19.788l-2.21,1.82
			c0,0-17.304,7.65-22.979,7.65s-8.838-1.713-8.838-1.713s-4.821,2.363-8.576,2.363c-3.754,0-5.557-0.975-5.557-0.975
			s-5.232,2.602-7.982,2.602s-4.641-0.77-4.641-0.77s-3.55,1.772-6.683,1.772c-3.136,0-5.767-1.151-5.767-1.151
			s-5.291,2.306-7.834,2.306s-5.942-2.866-5.942-2.866s-3.017,1.686-5.558,1.686c-2.545,0-4.614-0.771-4.614-0.771
			s-2.956,2.041-5.823,2.041c-2.868,0-3.459-0.681-3.459-0.681s-4.405,2.276-6.563,2.276s-4.287-0.384-4.287-0.384
			s-4.583,2.602-6.8,2.867c-2.217,0.265-6.06,0.089-6.06,0.089s-8.101,3.989-10.348,3.989s-4.642-2.452-4.642-2.452
			s-8.544,3.489-10.466,3.489c-1.921,0-4.612-2.93-4.612-2.93s-13.777,7.363-18.3,7.363C68.189,183.458,66.889,181.12,66.889,181.12
			z"/>
	</g>
	<g id="Layer_3">
		<path fill="#EE3C96" d="M260.163,136.044c-1.022,18.845-18.058,17.267-18.058,17.267c2.367-3.311,2.367-8.515,0.475-13.008
			c-1.891-4.494-7.807-6.229-7.807-6.229c0.475,12.219-5.912,20.341-6.776,20.656c-0.867,0.312,1.258-5.834,0.708-10.406
			c-0.551-4.573-8.04-6.544-8.04-6.544c0.788,2.759-5.046,18.764-8.91,19.079c-3.862,0.312-0.71-2.683,0.945-8.122
			c1.657-5.439-7.173-10.879-7.173-10.879s-4.021,8.121-2.602,13.167c1.417,5.047,1.574,6.069-1.287,6.069s-4.231-0.944-5.102-1.891
			c-0.864-0.947,1.498-1.894,4.572-14.191c3.074-12.298-8.277-22.864-8.277-22.864c-5.678,10.959-4.021,30.037-3.389,31.929
			c0.631,1.892,3.623,8.673-1.185,8.673c-4.81,0-4.965-7.884-2.917-21.839c2.051-13.954-7.884-20.576-7.884-20.576
			c-6.938,11.746-3.784,24.046-3.784,24.046c-0.945-0.946-6.779,0.788-8.121,6.071c-1.34,5.281,2.365,11.193,2.365,11.193
			c-2.286,3.863-4.493-1.655-4.967-5.674c-0.475-4.021-3.705-14.351-7.174-14.351s-7.253,6.308-8.279,8.831
			c-1.025,2.522-1.183,11.354-0.867,14.428c0.315,3.073-7.254,2.048-7.254,2.048s3.075-4.021,3.47-9.774
			c0.394-5.757-6.386-10.406-6.386-10.406s-5.755,2.996-7.49,10.645c-1.735,7.646,3.391,10.879,3.391,10.879s-1.262,1.97-3.312,1.97
			c-2.05,0-2.759-1.575-3.075-1.892c-0.315-0.314,0.473-3.469,0.789-7.017c0.315-3.549-3.547-8.081-3.547-8.081l-1.893,1.458
			c-1.024-1.182-7.568-0.394-7.568-0.394c2.681,14.979,0.789,18.052,0,18.052c-0.788,0-1.892-0.076-1.813-5.124
			c0.079-5.046,0.394-9.46-2.129-13.638s-6.702-2.287-6.702-2.287s0.079-1.97,0.631-9.145c0.552-7.175-6.938-16.162-6.938-16.162
			s-2.917,5.44-2.917,16.083c0,10.646-3.076,32.954-3.076,32.954c-12.457-2.561-7.805-18.053-7.805-18.053
			c5.755-0.156,7.175-2.169,7.175-2.169c-3.153-2.915-7.411-2.327-7.411-2.327s0.592-3.586,0.553-5.597
			c-0.04-2.01-5.047-4.296-5.047-4.296l-0.314,10.68c-5.44-0.118-6.977,2.208-6.977,2.208c1.498,3.392,6.78,2.562,6.78,2.562
			c-2.09,5.717,0.511,22.432,0.511,22.432l3.631-3.944c0,0,4.888,4.334,8.12,4.334s7.648-3.39,8.357-5.834
			s5.677-19.867,6.307-19.708c0.631,0.157,2.523,12.614,2.839,14.505c0.315,1.894,0.552,6.228,5.046,6.228
			c4.494,0,5.755-4.809,5.755-4.809v-12.771l2.917,0.869c0.236,11.98,2.444,15.528,6.623,15.371c4.178-0.158,8.12-4.492,8.12-4.492
			s1.103,1.024,6.07,1.024s6.938-4.414,6.938-4.414s0.394,1.497,5.203,1.497c4.811,0,6.229-4.414,6.229-4.414
			s2.127,3.154,5.123,3.154s4.969-3.23,4.969-3.23s2.287,2.127,5.281,2.127c2.997,0,5.204-3.547,5.204-3.547s3.153,4.571,6.62,4.571
			c3.471,0,5.994-3.94,5.994-3.94s4.729,2.521,7.882,2.521c3.155,0,5.913-2.206,5.913-2.206s1.973,0.946,5.598,0.946
			c3.627,0,5.834-3.863,5.834-3.863s3.231,2.917,7.332,2.917c4.102,0,7.174-3.467,7.174-3.467
			c12.223,6.229,21.916,0.236,26.806-6.703C265.052,142.272,260.163,136.044,260.163,136.044z M96.413,156.975l1.419-25.662
			C101.381,142.626,96.413,156.975,96.413,156.975z M135.793,159.934c0,0-1.971-3.154-1.971-6.584c0-3.428,3.114-5.083,3.114-5.083
			s2.767,3.884,1.932,6.308C137.895,157.395,135.793,159.934,135.793,159.934z M154.438,159.775c-2.364,0-3.467-3.231-3.467-6.465
			c0-3.232,4.021-9.539,4.021-9.539s1.379,4.926,2.641,9.026C158.895,156.898,156.803,159.775,154.438,159.775z M171.073,151.971
			c-1.498-6.465,3.391-7.175,3.391-7.175c0.237,3.547,3.94,8.908,3.94,8.908C176.671,155.438,172.573,158.434,171.073,151.971z
			 M180.852,144.479c0,0-1.58-4.099-2.445-8.671c-0.867-4.572,0-13.167,0-13.167C181.717,132.418,180.852,144.479,180.852,144.479z
			 M192.912,142.115c-0.473-3.705,1.419-16.398,1.419-16.398s2.364,7.017,2.603,11.866c0.235,4.847-2.603,11.863-2.603,11.863
			S193.386,145.821,192.912,142.115z M206.943,152.365c-0.944-1.656,0-8.909,0-8.909s1.895,1.576,2.209,3.863
			C209.467,149.605,206.943,152.365,206.943,152.365z M220.979,151.971c0.869-0.553,1.893-7.491,1.893-7.491
			s2.811,2.755,2.129,5.885C224.529,152.514,220.979,151.971,220.979,151.971z M235.408,151.971
			c1.654-0.789,2.283-10.406,2.283-10.406s3.027,2.146,2.447,5.597C239.668,149.951,235.408,151.971,235.408,151.971z"/>
	</g>
</g>
</svg>
