<?xml version="1.0" encoding="utf-8"?>
<!-- Generator: Adobe Illustrator 16.0.4, SVG Export Plug-In . SVG Version: 6.00 Build 0)  -->
<!DOCTYPE svg PUBLIC "-//W3C//DTD SVG 1.1//EN" "http://www.w3.org/Graphics/SVG/1.1/DTD/svg11.dtd">
<svg version="1.1" xmlns="http://www.w3.org/2000/svg" xmlns:xlink="http://www.w3.org/1999/xlink" x="0px" y="0px" width="300px"
	 height="300px" viewBox="0 0 300 300" enable-background="new 0 0 300 300" xml:space="preserve">
<g id="Layer_5">
	<circle fill="#0883BE" cx="151.422" cy="150" r="131.676"/>
</g>
<g id="Layer_6">
	<path fill="#01739A" d="M158.639,281.481c66.48-3.591,119.851-56.494,124.176-122.777l-22.651-22.66L155.25,154.75l-76.5,13.5
		l-17.774,15.414L158.639,281.481z"/>
</g>
<g id="Layer_4">
	<path fill="#F6EB14" d="M66.889,181.12l-5.913,2.544c0,0-2.877-18.487-0.512-22.744c0,0-6.031-0.593-6.701-2.288
		c0,0,4.218-3.704,6.78-4.178c0,0,0.63-8.121-0.217-9.145l16.3-6.7c0,0,0.984-6.583,2.207-9.105l17.85-7.235l4.54,9.994
		l0.946,17.816l6.78,1.892l1.577-0.512c0,0,1.946-1.048,3.653-1.19c1.706-0.141,4.191,0.206,4.191,0.206l17.882-7.607l0.606,0.983
		c0,0,17.818-5.873,18.289-5.952c0.475-0.079,1.184-11.314,4.732-14.309l17.43-6.992l4.173,5.651l11.352-4.101
		c0,0,6.306,12.614,6.387,15.295c0.078,2.68,2.142,6.401,2.142,6.401l4.166-1.986l2.836,4.177l1.623-0.511l10.679-3.745l2.302,0.824
		l11.808-4.53l5.203,5.439l2.603,0.79l17.583-4.258c0,0,3.941,14.742-8.91,19.788l-2.21,1.821c0,0-17.304,7.65-22.98,7.65
		s-8.838-1.713-8.838-1.713s-4.821,2.363-8.575,2.363c-3.755,0-5.557-0.975-5.557-0.975s-5.233,2.602-7.982,2.602
		c-2.751,0-4.642-0.769-4.642-0.769s-3.549,1.772-6.682,1.772c-3.136,0-5.767-1.152-5.767-1.152s-5.291,2.306-7.834,2.306
		c-2.542,0-5.942-2.866-5.942-2.866s-3.016,1.685-5.558,1.685c-2.544,0-4.614-0.77-4.614-0.77s-2.956,2.041-5.823,2.041
		c-2.868,0-3.459-0.681-3.459-0.681s-4.405,2.277-6.563,2.277c-2.158,0-4.287-0.384-4.287-0.384s-4.583,2.602-6.8,2.867
		s-6.06,0.089-6.06,0.089s-8.101,3.99-10.348,3.99c-2.247,0-4.642-2.453-4.642-2.453s-8.544,3.489-10.466,3.489
		c-1.921,0-4.612-2.929-4.612-2.929s-13.777,7.363-18.3,7.363C68.189,183.458,66.889,181.12,66.889,181.12z"/>
</g>
<g id="Layer_3">
	<path fill="#EE3C96" d="M260.163,136.044c-1.023,18.844-18.057,17.267-18.057,17.267c2.367-3.311,2.367-8.515,0.474-13.008
		c-1.891-4.494-7.806-6.229-7.806-6.229c0.474,12.219-5.913,20.341-6.777,20.657c-0.867,0.312,1.258-5.835,0.708-10.407
		c-0.551-4.573-8.04-6.544-8.04-6.544c0.788,2.759-5.046,18.764-8.91,19.079c-3.862,0.313-0.71-2.682,0.945-8.121
		c1.657-5.439-7.173-10.879-7.173-10.879s-4.021,8.121-2.601,13.166c1.417,5.047,1.574,6.07-1.288,6.07
		c-2.86,0-4.231-0.944-5.101-1.891c-0.864-0.947,1.498-1.893,4.572-14.191c3.074-12.298-8.277-22.864-8.277-22.864
		c-5.677,10.959-4.021,30.037-3.389,31.929c0.631,1.892,3.624,8.673-1.184,8.673c-4.81,0-4.965-7.884-2.917-21.839
		c2.051-13.954-7.884-20.576-7.884-20.576c-6.938,11.746-3.784,24.046-3.784,24.046c-0.946-0.946-6.779,0.788-8.121,6.071
		c-1.34,5.282,2.365,11.194,2.365,11.194c-2.286,3.863-4.493-1.656-4.967-5.675c-0.475-4.021-3.705-14.35-7.174-14.35
		s-7.253,6.308-8.279,8.831c-1.025,2.522-1.183,11.353-0.867,14.428c0.315,3.073-7.254,2.048-7.254,2.048s3.075-4.021,3.47-9.775
		c0.394-5.757-6.386-10.406-6.386-10.406s-5.755,2.996-7.49,10.644c-1.735,7.647,3.391,10.879,3.391,10.879s-1.262,1.97-3.312,1.97
		c-2.05,0-2.759-1.575-3.075-1.892c-0.315-0.314,0.473-3.468,0.789-7.016c0.315-3.549-3.547-8.081-3.547-8.081l-1.893,1.458
		c-1.024-1.182-7.568-0.394-7.568-0.394c2.681,14.979,0.789,18.052,0,18.052c-0.788,0-1.892-0.076-1.813-5.124
		c0.079-5.046,0.394-9.46-2.129-13.638s-6.702-2.287-6.702-2.287s0.079-1.97,0.631-9.145c0.552-7.175-6.938-16.162-6.938-16.162
		s-2.917,5.44-2.917,16.083c0,10.645-3.076,32.954-3.076,32.954c-12.457-2.561-7.805-18.053-7.805-18.053
		c5.755-0.156,7.175-2.169,7.175-2.169c-3.153-2.915-7.411-2.327-7.411-2.327s0.592-3.586,0.553-5.597
		c-0.04-2.01-5.047-4.296-5.047-4.296l-0.314,10.68c-5.44-0.118-6.977,2.208-6.977,2.208c1.498,3.392,6.78,2.562,6.78,2.562
		c-2.09,5.717,0.511,22.431,0.511,22.431l3.631-3.944c0,0,4.888,4.334,8.12,4.334s7.648-3.39,8.357-5.834
		c0.709-2.444,5.677-19.867,6.307-19.708c0.631,0.157,2.523,12.614,2.839,14.505c0.315,1.893,0.552,6.228,5.046,6.228
		s5.755-4.809,5.755-4.809v-12.771l2.917,0.868c0.236,11.981,2.444,15.529,6.623,15.372c4.178-0.158,8.12-4.493,8.12-4.493
		s1.103,1.025,6.07,1.025c4.967,0,6.938-4.414,6.938-4.414s0.394,1.497,5.203,1.497c4.81,0,6.229-4.414,6.229-4.414
		s2.127,3.154,5.123,3.154s4.968-3.231,4.968-3.231s2.287,2.128,5.282,2.128c2.997,0,5.204-3.548,5.204-3.548
		s3.153,4.572,6.62,4.572c3.47,0,5.994-3.941,5.994-3.941s4.729,2.521,7.882,2.521c3.155,0,5.913-2.206,5.913-2.206
		s1.972,0.946,5.598,0.946c3.627,0,5.834-3.863,5.834-3.863s3.231,2.917,7.332,2.917s7.173-3.467,7.173-3.467
		c12.223,6.229,21.917,0.236,26.806-6.703C265.052,142.272,260.163,136.044,260.163,136.044z M96.413,156.975l1.419-25.662
		C101.381,142.626,96.413,156.975,96.413,156.975z M135.793,159.934c0,0-1.971-3.155-1.971-6.584c0-3.428,3.114-5.084,3.114-5.084
		s2.767,3.884,1.932,6.308C137.895,157.395,135.793,159.934,135.793,159.934z M154.438,159.776c-2.365,0-3.468-3.232-3.468-6.466
		c0-3.232,4.021-9.538,4.021-9.538s1.379,4.926,2.641,9.026C158.894,156.898,156.803,159.776,154.438,159.776z M171.073,151.971
		c-1.498-6.465,3.391-7.175,3.391-7.175c0.237,3.547,3.941,8.908,3.941,8.908C176.671,155.438,172.573,158.434,171.073,151.971z
		 M180.851,144.479c0,0-1.579-4.099-2.445-8.671c-0.867-4.572,0-13.167,0-13.167C181.717,132.418,180.851,144.479,180.851,144.479z
		 M192.912,142.115c-0.472-3.705,1.419-16.398,1.419-16.398s2.364,7.017,2.603,11.866c0.235,4.847-2.603,11.863-2.603,11.863
		S193.386,145.821,192.912,142.115z M206.944,152.365c-0.945-1.656,0-8.909,0-8.909s1.894,1.576,2.208,3.863
		C209.467,149.605,206.944,152.365,206.944,152.365z M220.978,151.971c0.869-0.553,1.893-7.491,1.893-7.491s2.811,2.755,2.129,5.885
		C224.53,152.514,220.978,151.971,220.978,151.971z M235.408,151.971c1.654-0.789,2.283-10.406,2.283-10.406
		s3.028,2.146,2.448,5.597C239.668,149.951,235.408,151.971,235.408,151.971z"/>
</g>
</svg>
